<svg width="400" height="220" viewBox="0 0 400 220" fill="none" xmlns="http://www.w3.org/2000/svg">
<path d="M333.771 101.51C336.101 101.51 337.974 102.219 338.886 102.725C339.241 102.928 339.342 102.928 339.393 102.725L339.595 102.067C339.639 101.934 339.684 101.917 339.898 101.915L340 101.915C340.304 101.915 340.355 101.966 340.355 102.32C340.355 102.776 340.861 106.828 340.963 107.587C340.988 107.739 340.963 107.815 340.861 107.841L340.38 107.993C340.254 108.043 340.178 107.942 340.102 107.739C339.798 106.828 339.19 105.562 338.126 104.447C337.012 103.384 335.695 102.573 333.72 102.573C329.668 102.573 327.997 106.22 327.997 109.866C327.997 111.437 328.453 114.425 330.327 116.451C331.998 118.223 333.467 118.426 334.682 118.426C337.468 118.426 339.671 117.033 340.735 115.488C340.861 115.311 340.963 115.235 341.039 115.311L341.469 115.691C341.545 115.767 341.57 115.843 341.52 115.944C340 118.122 337.569 120.198 333.973 120.198C330.732 120.198 328.909 119.236 327.339 117.818C325.465 116.147 324.604 113.209 324.604 110.981C324.604 108.499 325.414 106.119 327.187 104.194C328.554 102.725 330.732 101.51 333.771 101.51ZM75.0184 101.814C75.221 101.814 75.2716 101.915 75.2716 101.991V102.573C75.2716 102.725 75.221 102.827 75.1197 102.827H74.4106C73.9042 102.827 73.6509 103.232 73.575 104.169C73.5 105.188 73.3808 107.094 73.2959 109.016L73.2788 109.413C73.2293 110.605 73.1951 111.779 73.1951 112.728V119.413C73.1951 119.768 73.1951 120.122 72.8913 120.122C72.5367 120.122 72.2329 119.92 72.0303 119.717C71.8277 119.464 70.4602 117.894 68.8902 116.02C68.772 115.875 68.6529 115.729 68.5335 115.582L68.1748 115.143L68.0852 115.034L67.9064 114.815C66.4495 113.036 65.0866 111.388 64.8385 111.057C64.484 110.702 60.4322 105.638 60.1284 105.283H59.9764L59.9766 108.559C59.9823 112.78 60.1797 116.234 60.2297 117.008C60.2803 118.274 60.5842 118.882 61.4958 118.882H62.1542C62.3568 118.882 62.3568 118.983 62.3568 119.109V119.692C62.3568 119.844 62.3568 119.894 62.1542 119.894C61.901 119.894 60.3816 119.818 59.4193 119.818L59.3546 119.819C58.6547 119.823 57.031 119.894 56.7857 119.894C56.6844 119.894 56.6338 119.844 56.6338 119.667V119.033C56.6338 118.983 56.6844 118.882 56.7857 118.882H57.6467C58.3051 118.882 58.6596 118.324 58.7862 116.78C58.8109 116.336 58.9553 112.971 58.9632 109.059L58.9635 105.511C58.9635 103.991 58.1025 102.827 56.9883 102.827H56.1779C56.0767 102.801 56.026 102.751 56.026 102.649V101.966C56.026 101.864 56.0767 101.814 56.1779 101.814C56.3046 101.814 56.5071 101.839 56.963 101.864C57.3238 101.884 57.8275 101.889 58.5746 101.889L59.2167 101.89C59.6472 101.89 60.0271 101.864 60.3309 101.839C60.6601 101.839 60.8881 101.814 61.04 101.814C61.3439 101.814 61.4958 101.89 61.6478 102.042C61.7595 102.153 62.7891 103.43 63.9479 104.882L64.0965 105.068C64.1711 105.161 64.246 105.255 64.3212 105.35L64.5075 105.584C64.5386 105.623 64.5697 105.662 64.6008 105.701L64.787 105.935C65.84 107.26 66.8462 108.537 67.2391 109.056L67.3019 109.14C67.33 109.177 67.3531 109.209 67.3708 109.233C67.7253 109.639 71.6757 114.551 72.0809 115.058H72.1822V112.424C72.1822 112.357 72.1822 112.29 72.1822 112.224L72.1819 111.298C72.1805 109.735 72.173 108.699 72.1316 107.663C72.0809 106.701 71.9796 104.219 71.853 103.789C71.6757 103.181 71.1186 102.827 70.5109 102.827H69.7005C69.5486 102.827 69.5486 102.725 69.5486 102.599L69.5487 101.985C69.5496 101.857 69.5631 101.814 69.7512 101.814C70.0551 101.814 70.8654 101.89 72.5874 101.89L72.7191 101.889C74.1423 101.885 74.7235 101.814 75.0184 101.814ZM305.747 101.814C305.949 101.814 306 101.915 306 101.991V102.573C306 102.725 305.95 102.827 305.848 102.827H305.139C304.633 102.827 304.379 103.232 304.304 104.169C304.229 105.188 304.109 107.094 304.024 109.016L304.007 109.413C303.958 110.605 303.924 111.779 303.924 112.728L303.923 119.514C303.921 119.832 303.895 120.122 303.62 120.122C303.265 120.122 302.961 119.92 302.759 119.717C302.556 119.464 301.189 117.894 299.619 116.02C299.501 115.875 299.381 115.729 299.262 115.582L298.903 115.143L298.814 115.034L298.635 114.815C297.178 113.036 295.815 111.388 295.567 111.057C295.212 110.702 291.161 105.638 290.857 105.283H290.705L290.705 108.559C290.711 112.78 290.908 116.234 290.958 117.008C291.009 118.274 291.313 118.882 292.224 118.882H292.883C293.085 118.882 293.085 118.983 293.085 119.109L293.085 119.723C293.084 119.851 293.071 119.894 292.883 119.894C292.63 119.894 291.11 119.818 290.148 119.818L290.083 119.819C289.383 119.823 287.76 119.894 287.514 119.894C287.413 119.894 287.362 119.844 287.362 119.667V119.033C287.362 118.983 287.413 118.882 287.514 118.882H288.375C289.034 118.882 289.388 118.324 289.515 116.78C289.539 116.336 289.684 112.971 289.692 109.059L289.692 105.511C289.692 103.991 288.831 102.827 287.717 102.827H286.906C286.805 102.801 286.755 102.751 286.755 102.649V101.966C286.755 101.864 286.805 101.814 286.906 101.814C287.033 101.814 287.236 101.839 287.691 101.864C288.052 101.884 288.556 101.889 289.303 101.889L289.945 101.89C290.376 101.89 290.756 101.864 291.059 101.839C291.389 101.839 291.617 101.814 291.769 101.814C292.072 101.814 292.224 101.89 292.376 102.042C292.488 102.153 293.518 103.43 294.676 104.882L294.825 105.068C294.9 105.161 294.975 105.255 295.05 105.35L295.236 105.584C295.267 105.623 295.298 105.662 295.329 105.701L295.516 105.935C296.569 107.26 297.575 108.537 297.968 109.056L298.03 109.14C298.059 109.177 298.082 109.209 298.099 109.233C298.454 109.639 302.404 114.551 302.809 115.058H302.911L302.91 111.298C302.909 109.735 302.902 108.699 302.86 107.663C302.809 106.701 302.708 104.219 302.582 103.789C302.404 103.181 301.847 102.827 301.239 102.827H300.429C300.277 102.827 300.277 102.725 300.277 102.599L300.277 101.985C300.278 101.857 300.292 101.814 300.48 101.814C300.784 101.814 301.594 101.89 303.316 101.89L303.448 101.889C304.871 101.885 305.452 101.814 305.747 101.814ZM111.905 101.814C112.108 101.814 112.159 101.915 112.159 101.991V102.573C112.159 102.725 112.108 102.827 112.007 102.827H111.298C110.791 102.827 110.538 103.232 110.462 104.169C110.387 105.188 110.268 107.094 110.183 109.016L110.166 109.413C110.116 110.605 110.082 111.779 110.082 112.728V119.413C110.082 119.768 110.082 120.122 109.778 120.122C109.424 120.122 109.12 119.92 108.917 119.717C108.715 119.464 107.347 117.894 105.777 116.02C105.659 115.875 105.54 115.729 105.421 115.582L105.062 115.143L104.972 115.034L104.793 114.815C103.336 113.036 101.974 111.388 101.725 111.057C101.371 110.702 97.3192 105.638 97.0154 105.283H96.8634L96.8636 108.559C96.8693 112.78 97.0667 116.234 97.1167 117.008C97.1673 118.274 97.4712 118.882 98.3828 118.882H99.0412C99.2438 118.882 99.2438 118.983 99.2438 119.109L99.2437 119.723C99.2428 119.851 99.2293 119.894 99.0412 119.894C98.788 119.894 97.2686 119.818 96.3063 119.818L96.2415 119.819C95.5417 119.823 93.918 119.894 93.6727 119.894C93.5714 119.894 93.5208 119.844 93.5208 119.667V119.033C93.5208 118.983 93.5714 118.882 93.6727 118.882H94.5337C95.1921 118.882 95.5466 118.324 95.6732 116.78C95.6986 116.324 95.8505 112.779 95.8505 108.727V105.511C95.8505 103.991 94.9895 102.827 93.8753 102.827H93.0649C92.9637 102.801 92.913 102.751 92.913 102.649V101.966C92.913 101.864 92.9637 101.814 93.0649 101.814C93.1916 101.814 93.3941 101.839 93.85 101.864C94.2108 101.884 94.7145 101.889 95.4616 101.889L96.1037 101.89C96.5342 101.89 96.9141 101.864 97.2179 101.839C97.5472 101.839 97.7751 101.814 97.927 101.814C98.2309 101.814 98.3828 101.89 98.5348 102.042C98.6465 102.153 99.6761 103.43 100.835 104.882L100.983 105.068C101.058 105.161 101.133 105.255 101.208 105.35L101.395 105.584C101.426 105.623 101.457 105.662 101.488 105.701L101.674 105.935C102.727 107.26 103.733 108.537 104.126 109.056L104.189 109.14C104.217 109.177 104.24 109.209 104.258 109.233C104.612 109.639 108.563 114.551 108.968 115.058H109.069L109.069 111.298C109.068 109.735 109.06 108.699 109.019 107.663C108.968 106.701 108.867 104.219 108.74 103.789C108.563 103.181 108.006 102.827 107.398 102.827H106.588C106.436 102.827 106.436 102.725 106.436 102.599L106.436 101.985C106.437 101.857 106.45 101.814 106.638 101.814C106.942 101.814 107.752 101.89 109.474 101.89L109.606 101.889C111.029 101.885 111.61 101.814 111.905 101.814ZM139.423 101.029C139.575 101.029 139.676 101.333 139.727 101.485C140.183 103.055 142.158 108.727 142.614 110.348C142.879 111.212 143.339 112.599 143.802 113.944L143.901 114.232L143.987 114.48C144.518 116.005 145.018 117.372 145.196 117.717C145.652 118.578 146.311 118.882 146.817 118.882H147.628C147.779 118.882 147.83 118.932 147.83 119.059V119.591C147.83 119.743 147.779 119.894 147.577 119.894L147.529 119.894C147.099 119.889 146.559 119.823 144.109 119.819L143.686 119.819C141.663 119.822 140.828 119.894 140.284 119.894C140.081 119.894 140.031 119.743 140.031 119.591V119.084C140.031 118.932 140.081 118.882 140.233 118.882H140.892C141.601 118.882 141.803 118.628 141.651 117.945C141.449 117.033 140.436 113.792 140.132 112.855H134.257C134.054 113.437 132.813 117.058 132.687 117.742C132.636 117.945 132.636 118.147 132.636 118.274C132.636 118.603 133.041 118.882 133.548 118.882H134.611C134.814 118.882 134.865 118.932 134.865 119.008V119.641C134.865 119.793 134.814 119.894 134.662 119.894C134.308 119.894 133.244 119.818 131.471 119.818L131.346 119.819C129.572 119.822 129.032 119.894 128.686 119.894C128.534 119.894 128.534 119.743 128.534 119.565V119.084C128.534 118.932 128.584 118.882 128.686 118.882H129.445C130.155 118.882 130.61 118.527 131.066 117.742C131.219 117.467 131.942 115.701 132.659 113.875L132.764 113.608C133.2 112.494 133.623 111.383 133.902 110.601L136.384 103.966C136.435 103.713 136.587 103.257 136.435 103.105C136.359 103.029 136.283 102.877 136.283 102.801C136.283 102.7 136.333 102.599 136.536 102.548C137.346 102.345 138.739 101.586 139.043 101.282C139.195 101.13 139.296 101.029 139.423 101.029ZM228.174 101.814C230.2 101.814 231.77 102.497 232.783 103.409C233.695 104.219 234.151 105.283 234.151 106.245C234.151 109.436 232.226 110.753 229.441 111.209V111.31C230.15 111.563 230.605 112.019 230.96 112.475C231.264 112.88 232.834 115.26 233.037 115.564C233.188 115.817 234.809 118.097 235.189 118.451C235.67 118.882 236.379 118.932 236.987 118.932C237.139 118.932 237.19 119.008 237.19 119.109V119.641C237.19 119.818 237.139 119.894 236.987 119.894C236.784 119.894 236.126 119.818 234.505 119.818C233.796 119.818 232.834 119.869 232.277 119.894C231.973 119.667 231.492 118.983 231.163 118.451C230.707 117.742 229.719 115.919 229.491 115.514C229.238 115.058 228.529 113.893 228.124 113.336C227.491 112.449 226.908 111.766 225.845 111.766C225.743 111.766 225.313 111.791 225.034 111.816L225.035 113.372C225.036 113.793 225.04 114.293 225.047 114.805L225.05 115.042L225.054 115.279C225.073 116.504 225.104 117.684 225.136 117.919C225.212 118.426 225.389 118.882 225.794 118.882H227.06C227.212 118.882 227.263 118.958 227.263 119.059V119.667C227.263 119.844 227.187 119.894 226.984 119.894L226.949 119.894C226.629 119.889 226.097 119.824 223.784 119.819L223.252 119.819C221.075 119.824 220.462 119.889 220.201 119.894L220.172 119.894C220.02 119.894 219.97 119.818 219.97 119.667V119.084C219.97 118.958 220.02 118.882 220.122 118.882H220.983C221.54 118.882 221.945 118.73 221.945 118.046C221.986 115.974 221.994 114.004 221.995 112.052L221.996 104.093C221.996 103.232 221.641 102.827 221.185 102.827H220.198C220.071 102.827 220.02 102.776 220.02 102.675V101.991C220.02 101.864 220.071 101.814 220.198 101.814C220.368 101.814 221.126 101.884 223.398 101.889L223.787 101.89C224.276 101.888 224.859 101.879 225.443 101.867L225.735 101.861C226.754 101.84 227.731 101.814 228.174 101.814ZM379.116 101.814C379.369 101.814 379.42 101.915 379.42 102.042V102.573C379.42 102.725 379.369 102.827 379.116 102.827H378.204C377.444 102.827 377.394 103.232 377.394 104.118L377.394 104.175C377.392 104.448 377.38 105.326 377.368 106.252L377.365 106.494C377.354 107.424 377.343 108.354 377.343 108.727V111.462C377.343 112.032 377.356 113.252 377.369 114.5L377.373 114.841C377.383 115.806 377.392 116.755 377.393 117.4L377.394 117.615C377.394 118.527 377.647 118.882 378.407 118.882H379.42C379.572 118.882 379.622 118.958 379.622 119.059V119.641C379.622 119.793 379.572 119.894 379.369 119.894C378.964 119.894 378.103 119.818 375.925 119.818L375.775 119.819C373.51 119.822 372.719 119.894 372.025 119.894C371.873 119.894 371.823 119.768 371.823 119.667V119.084C371.823 118.958 371.848 118.882 372.025 118.882H373.393C374 118.882 374.026 118.426 374.051 117.742C374.075 117.178 374.098 116.002 374.117 114.859L374.121 114.596C374.138 113.488 374.15 112.459 374.152 112.106L374.152 111.31C374.152 111.082 373.95 111.006 373.595 111.006H365.34C365.061 111.006 364.985 111.107 364.985 111.335V112.424C364.985 112.966 365.003 114.222 365.028 115.519L365.034 115.797L365.04 116.095C365.054 116.788 365.071 117.465 365.087 118.021C365.112 118.628 365.391 118.882 365.948 118.882H366.859C367.062 118.882 367.113 118.932 367.113 119.059V119.641C367.113 119.793 367.062 119.894 366.859 119.894C366.404 119.894 365.543 119.818 363.466 119.818L363.182 119.819C361.017 119.824 360.266 119.889 359.779 119.894L359.718 119.894C359.516 119.894 359.465 119.793 359.465 119.667V119.084C359.465 118.932 359.516 118.882 359.718 118.882H361.035C361.643 118.882 361.744 118.274 361.744 117.691C361.744 116.476 361.795 113.589 361.795 111.968L361.794 108.621C361.793 108.248 361.784 107.539 361.774 106.809L361.771 106.566C361.758 105.595 361.744 104.645 361.744 104.447C361.744 103.181 361.592 102.827 360.782 102.827H359.668C359.465 102.827 359.414 102.725 359.414 102.599V102.067C359.414 101.966 359.465 101.814 359.668 101.814C360.105 101.814 360.871 101.884 363.131 101.889L363.559 101.89C365.733 101.886 366.616 101.814 367.062 101.814C367.264 101.814 367.315 101.915 367.315 102.042V102.573C367.315 102.725 367.264 102.827 367.062 102.827H366.15C365.239 102.827 365.137 103.232 365.112 104.219C365.087 104.574 364.985 107.917 364.985 108.575V109.588C364.985 109.841 365.061 109.942 365.289 109.942H373.646C374.051 109.942 374.152 109.866 374.152 109.588L374.152 108.775C374.149 107.786 374.051 104.366 374.026 104.093C374 103.282 373.899 102.827 373.342 102.827H372.177C372 102.827 371.975 102.751 371.975 102.599V102.016C371.975 101.89 372 101.814 372.177 101.814C372.633 101.814 373.747 101.89 375.773 101.89L375.923 101.89C377.751 101.886 378.721 101.814 379.116 101.814ZM30.889 101.029C31.0409 101.029 31.1422 101.333 31.1929 101.485C31.6487 103.055 33.6239 108.727 34.0797 110.348C34.3456 111.212 34.8054 112.599 35.2682 113.944L35.3673 114.232L35.4535 114.48C35.9837 116.005 36.484 117.372 36.6627 117.717C37.1185 118.578 37.7769 118.882 38.2833 118.882H39.0937C39.2456 118.882 39.2963 118.932 39.2963 119.059V119.591C39.2963 119.743 39.2456 119.894 39.043 119.894L38.9956 119.894C38.5655 119.889 38.0249 119.823 35.5753 119.819L35.1521 119.819C33.1291 119.822 32.2944 119.894 31.75 119.894C31.5474 119.894 31.4967 119.743 31.4967 119.591V119.084C31.4967 118.932 31.5474 118.882 31.6993 118.882H32.3577C33.0668 118.882 33.2694 118.628 33.1174 117.945C32.9148 117.033 31.9019 113.792 31.598 112.855H25.723C25.5205 113.437 24.2796 117.058 24.153 117.742C24.1024 117.945 24.1024 118.147 24.1024 118.274C24.1024 118.603 24.5075 118.882 25.014 118.882H26.0776C26.2802 118.882 26.3308 118.932 26.3308 119.008V119.641C26.3308 119.793 26.2802 119.894 26.1282 119.894C25.7737 119.894 24.7101 119.818 22.9375 119.818L22.8118 119.819C21.0384 119.822 20.4984 119.894 20.1519 119.894C20 119.894 20 119.743 20 119.565V119.084C20 118.932 20.0506 118.882 20.1519 118.882H20.9116C21.6207 118.882 22.0765 118.527 22.5323 117.742C22.685 117.467 23.4085 115.701 24.1254 113.875L24.2302 113.608C24.6662 112.494 25.0892 111.383 25.3685 110.601L27.8502 103.966C27.9008 103.713 28.0528 103.257 27.9008 103.105C27.8249 103.029 27.7489 102.877 27.7489 102.801C27.7489 102.7 27.7995 102.599 28.0021 102.548C28.8125 102.345 30.2052 101.586 30.5091 101.282C30.6611 101.13 30.7624 101.029 30.889 101.029ZM267.568 101.814C267.695 101.814 267.746 101.864 267.771 101.966C267.872 102.295 268.835 105.739 268.936 105.992C268.987 106.144 268.961 106.22 268.86 106.271L268.404 106.473C268.328 106.498 268.252 106.473 268.176 106.347C268.075 106.195 265.998 103.865 265.391 103.51C264.859 103.206 264.175 102.877 263.466 102.852L259.617 102.751L259.566 110.069C260.326 110.069 262.149 110.018 262.453 109.942C263.01 109.841 263.314 109.639 263.618 109.031C263.77 108.702 264.023 108.069 264.023 107.613C264.023 107.461 264.124 107.41 264.226 107.41L264.884 107.461C264.985 107.461 265.061 107.511 265.036 107.663C264.994 107.999 264.987 109.201 264.986 109.979L264.985 110.398C264.985 111.411 265.087 112.627 265.137 113.184C265.137 113.31 265.087 113.336 264.935 113.361L264.378 113.462C264.276 113.488 264.226 113.437 264.175 113.285C264.074 112.88 263.897 112.323 263.77 112.019C263.542 111.512 263.061 111.158 262.504 111.107C261.592 111.006 260.377 110.955 259.566 110.955L259.592 112.475C259.6 112.91 259.61 113.458 259.621 114.017L259.628 114.378C259.647 115.383 259.665 116.356 259.667 116.711L259.668 116.78C259.668 118.097 260.123 118.603 260.681 118.755C261.086 118.856 261.693 118.958 262.656 118.958C263.112 118.958 264.276 118.907 264.783 118.856C265.239 118.806 266.201 118.552 266.859 117.995C267.315 117.59 268.733 115.919 269.214 115.311C269.316 115.184 269.392 115.159 269.493 115.21L269.898 115.463C269.974 115.514 269.999 115.59 269.949 115.716L268.733 119.515C268.657 119.743 268.48 119.894 268.176 119.894L268.153 119.894C267.99 119.892 267.412 119.868 265.922 119.844L265.657 119.844C264.134 119.841 261.778 119.821 258.156 119.819L257.327 119.819C256.473 119.821 255.838 119.844 255.337 119.844C254.831 119.869 254.476 119.894 254.248 119.894C254.096 119.894 254.046 119.844 254.046 119.692V119.084C254.046 118.932 254.097 118.882 254.299 118.882L255.24 118.881C256.33 118.874 256.426 118.708 256.426 117.793L256.426 109.062C256.425 108.685 256.423 108.28 256.42 107.867L256.418 107.619C256.416 107.424 256.414 107.23 256.412 107.036L256.409 106.805C256.39 105.306 256.357 103.94 256.325 103.713C256.224 103.029 255.97 102.827 255.211 102.827H254.248C254.147 102.827 254.097 102.776 254.097 102.649V101.991C254.097 101.864 254.122 101.814 254.248 101.814C254.726 101.814 255.464 101.888 256.973 101.893L257.231 101.894C257.409 101.893 257.596 101.892 257.794 101.89L258.632 101.89C259.232 101.888 260.615 101.878 262.072 101.868L262.438 101.865C262.499 101.865 262.56 101.864 262.621 101.864L262.986 101.861C264.443 101.85 265.826 101.841 266.426 101.839L266.556 101.839C266.961 101.839 267.442 101.814 267.568 101.814ZM201.062 101.738C201.163 101.788 201.214 101.89 201.214 102.092C201.315 102.497 202.126 105.992 202.227 106.296C202.252 106.397 202.227 106.473 202.151 106.498L201.67 106.701C201.569 106.752 201.518 106.701 201.366 106.498C201.113 106.043 200.454 105.182 199.543 104.169C199.138 103.612 198.479 103.156 197.821 103.004C197.492 102.941 196.504 102.884 195.478 102.842L195.198 102.832C194.264 102.797 193.346 102.776 192.908 102.776V110.879C193.617 110.879 195.213 110.854 195.618 110.753C196.124 110.702 196.529 110.398 196.96 109.765C197.162 109.436 197.314 108.93 197.416 108.474C197.441 108.372 197.517 108.271 197.618 108.271L198.125 108.322C198.226 108.322 198.277 108.372 198.277 108.474C198.236 108.844 198.228 110.284 198.226 111.002L198.226 111.361C198.226 112.272 198.327 113.488 198.378 113.994C198.403 114.171 198.327 114.222 198.226 114.247L197.669 114.349C197.568 114.349 197.492 114.298 197.466 114.146C197.441 113.969 197.213 113.184 197.086 112.956C196.783 112.399 196.327 112.019 195.82 111.918C194.858 111.766 193.668 111.766 192.908 111.766V118.071C192.908 118.78 193.111 118.882 193.718 118.882H195.086C195.238 118.882 195.289 118.932 195.289 119.059V119.692C195.289 119.844 195.238 119.894 195.086 119.894L195.053 119.894C194.763 119.889 193.805 119.824 191.623 119.819L191.194 119.819C189.018 119.822 188.089 119.894 187.742 119.894C187.641 119.894 187.59 119.844 187.59 119.717V119.033C187.59 118.932 187.641 118.882 187.742 118.882H188.755C189.363 118.882 189.565 118.78 189.591 118.35C189.615 117.864 189.663 114.914 189.666 110.835L189.666 108.368C189.665 107.946 189.659 107.294 189.652 106.603L189.649 106.367C189.635 105.143 189.618 103.868 189.616 103.579L189.616 103.536C189.616 103.08 189.262 102.827 188.603 102.827H187.337C187.236 102.827 187.134 102.776 187.134 102.7V101.966C187.134 101.864 187.236 101.814 187.337 101.814C187.582 101.814 188.487 101.885 191.148 101.889L191.532 101.889C192 101.887 193.92 101.873 195.859 101.861L196.143 101.859C197.652 101.849 199.131 101.841 199.902 101.839L200.1 101.839C200.556 101.839 200.961 101.738 201.062 101.738ZM137.498 104.371C137.346 104.371 137.245 104.473 137.169 104.701C137.068 105.03 134.789 111.259 134.611 111.842H139.879C139.766 111.514 139.36 110.183 138.932 108.765L138.844 108.47L138.743 108.136C138.274 106.577 137.826 105.074 137.751 104.827C137.65 104.523 137.6 104.371 137.498 104.371ZM28.9644 104.371C28.8125 104.371 28.7112 104.473 28.6352 104.701C28.5339 105.03 26.2548 111.259 26.0776 111.842H31.3448C31.2318 111.514 30.8265 110.183 30.3986 108.765L30.3099 108.47L30.2092 108.136C29.7402 106.577 29.2918 105.074 29.2176 104.827C29.1163 104.523 29.0657 104.371 28.9644 104.371ZM226.351 102.725C225.946 102.725 225.642 102.751 225.44 102.877C225.237 103.004 225.136 103.308 225.136 103.612L225.085 110.905C225.44 110.955 225.743 111.006 226.047 111.006C229.998 111.006 230.808 107.815 230.808 106.65C230.808 105.486 230.327 104.397 229.694 103.814C228.782 103.004 227.617 102.725 226.351 102.725Z" fill="#1D1D23"/>
</svg>
