<svg width="400" height="220" viewBox="0 0 400 220" fill="none" xmlns="http://www.w3.org/2000/svg">
<g filter="url(#filter0_d_1089_13846)">
<path d="M301.516 103.924L299.28 105.49C297.901 103.024 295.253 101.475 292.432 101.461L292.197 101.464C287.5 101.464 283.921 105.043 283.921 110.038C283.921 114.955 287.389 118.428 291.977 118.535L292.197 118.538C295.03 118.612 297.639 117.196 299.131 114.735V111.604H293.315V109.218H301.74L301.815 115.555C299.918 118.911 296.309 120.981 292.454 121L292.197 120.998C285.859 120.998 281.237 116.45 281.237 110.038C281.237 103.709 285.74 99.1239 291.951 99.0058L292.197 99.0035C295.925 98.929 299.429 100.793 301.516 103.924ZM210.779 109.367V110.038C210.779 116.45 206.082 120.998 199.744 120.998C193.407 120.998 188.784 116.376 188.784 110.038C188.784 103.783 193.288 99.1258 199.498 99.0059L199.744 99.0035C205.635 98.8544 210.555 103.477 210.779 109.367ZM270.426 109.367V110.038C270.426 116.45 265.728 120.998 259.391 120.998C253.054 120.998 248.431 116.376 248.431 110.038C248.431 103.783 252.934 99.1258 259.145 99.0059L259.391 99.0035C265.281 98.8544 270.202 103.477 270.426 109.367ZM80.6003 99.4509L91.1876 120.476H88.2798L85.3721 114.81H73.6664L70.8332 120.476H68V120.402L78.3636 99.4509H80.6003ZM103.564 99.4509L117.283 115.108V99.4509H119.967V120.476H118.625L104.757 104.744V120.476H102.148V99.4509H103.564ZM149.418 99.4509V101.837H140.471V120.476H137.861V101.837H128.914V99.4509H149.418ZM161.049 99.4509V107.727H173.574V99.4509H176.184V120.476H173.574V110.187H161.049V120.476H158.365V99.4509H161.049ZM225.914 99.4509V118.016H239.782V120.476H223.305V99.4509H225.914ZM313.222 99.4509L320.827 107.727L328.357 99.4509H331.713L322.169 109.964V120.476H319.485V109.964L309.942 99.4509H313.222ZM199.744 101.464C194.973 101.464 191.468 105.043 191.468 110.038C191.468 115.034 195.047 118.538 199.744 118.538C204.516 118.538 208.02 114.959 208.02 110.038C208.02 105.117 204.516 101.464 199.744 101.464ZM259.391 101.464C254.619 101.464 251.115 105.043 251.115 110.038C251.115 115.034 254.694 118.538 259.391 118.538C264.163 118.538 267.667 114.959 267.667 110.038C267.667 105.117 264.163 101.464 259.391 101.464ZM79.482 103.03L74.7848 112.349H84.1046L79.482 103.03Z" fill="#1D1D23"/>
</g>
<defs>
<filter id="filter0_d_1089_13846" x="-4" y="0" width="408" height="228" filterUnits="userSpaceOnUse" color-interpolation-filters="sRGB">
<feFlood flood-opacity="0" result="BackgroundImageFix"/>
<feColorMatrix in="SourceAlpha" type="matrix" values="0 0 0 0 0 0 0 0 0 0 0 0 0 0 0 0 0 0 127 0" result="hardAlpha"/>
<feOffset dy="4"/>
<feGaussianBlur stdDeviation="2"/>
<feComposite in2="hardAlpha" operator="out"/>
<feColorMatrix type="matrix" values="0 0 0 0 0 0 0 0 0 0 0 0 0 0 0 0 0 0 0.25 0"/>
<feBlend mode="normal" in2="BackgroundImageFix" result="effect1_dropShadow_1089_13846"/>
<feBlend mode="normal" in="SourceGraphic" in2="effect1_dropShadow_1089_13846" result="shape"/>
</filter>
</defs>
</svg>
