<svg width="400" height="220" viewBox="0 0 400 220" fill="none" xmlns="http://www.w3.org/2000/svg">
<path d="M229.329 50.7346C213.101 34.5064 186.786 34.5064 170.615 50.7346C162.838 58.5106 158.443 69.1041 158.443 80.1483C158.443 96.6019 168.079 111.478 183.067 118.183L184.871 118.972L184.927 83.9236L182.391 82.2331L182.335 115.028C163.064 105.223 155.457 81.6133 165.261 62.3987C167.121 58.7924 169.544 55.4679 172.418 52.5941C187.632 37.3802 212.312 37.3802 227.526 52.5941C234.851 59.9193 238.965 69.8366 238.965 80.2046C238.965 95.1368 230.512 108.717 217.102 115.309C222.736 108.153 222.455 98.0106 216.369 91.1925C213.946 88.4878 210.847 86.4592 207.353 85.3323C213.439 82.2331 217.271 75.9785 217.327 69.1604C217.327 59.7503 208.931 52.0306 198.619 52.0306C193.604 52.0306 188.984 53.6084 185.547 56.4258C182.053 59.2432 180.025 63.5256 180.025 67.9771C180.025 72.0342 181.377 75.5277 184.025 78.0634C186.786 80.7681 190.843 82.2895 195.126 82.2331C197.436 82.1768 199.69 81.5006 201.719 80.3173C204.311 78.7396 205.832 75.9222 205.888 72.8794C206.057 70.1183 205.099 67.3573 203.184 65.3288C201.155 63.1875 198.112 62.0606 194.731 62.0606H193.435L193.661 79.6411C190.731 79.4721 187.97 78.2888 185.828 76.2603C183.744 74.1754 182.617 71.358 182.617 67.9771C182.56 64.2581 184.251 60.7082 187.181 58.3416C190.111 55.9186 194.168 54.5663 198.619 54.5663C207.522 54.5663 214.791 61.1027 214.791 69.1041C214.735 72.3722 213.721 75.5841 211.748 78.2324C209.833 80.9371 207.072 82.9093 203.916 83.9236H203.86V87.0227C212.537 88.6005 218.567 95.4186 218.567 103.645C218.567 108.829 216.087 113.619 211.805 117C211.467 117.282 211.072 117.563 210.622 117.732L210.509 117.789C208.368 118.409 206.17 118.803 203.972 119.028H203.86V121.564H203.916C225.216 119.479 241.444 101.56 241.388 80.1483C241.5 69.1041 237.161 58.5106 229.329 50.7346ZM201.437 67.1319C202.846 68.6533 203.578 70.7382 203.409 72.823C203.409 75.0206 202.282 77.0491 200.423 78.1761C199.183 78.965 197.718 79.4157 196.253 79.5848L196.084 64.6526C198.169 64.878 200.028 65.7232 201.437 67.1319ZM57.8059 160.5C56.5663 160.219 56.1718 160.162 56.3972 159.768C59.271 158.754 60.9051 157.232 60.9051 154.866C60.9051 152.217 59.3837 150.696 57.3551 149.963C55.3266 149.231 53.0164 149.118 50.2553 149.118C46.9871 149.118 43.7189 149.231 40.9015 149.456C40.3944 149.625 40.3381 150.696 40.8452 150.865L42.592 151.09C44.1697 151.316 44.2261 152.217 44.2261 155.824V167.657C44.2261 171.545 44.0007 171.714 41.5777 172.108L40.5635 172.277C40.169 172.559 40.2254 173.517 40.6762 173.686C42.8737 173.573 44.7896 173.517 46.5363 173.517C48.5649 173.517 50.4243 173.686 51.495 173.686C54.1433 173.686 56.9607 173.404 59.1019 172.39C61.2432 171.376 62.7645 169.572 62.7645 166.586C62.8209 163.6 60.6797 161.064 57.8059 160.5ZM48.4522 152.217C48.4522 151.203 48.5649 150.696 50.9315 150.696C53.8052 150.696 56.2845 151.992 56.2845 155.316C56.2845 158.81 53.8616 159.655 50.368 159.655C48.5649 159.655 48.4522 159.599 48.4522 158.697V152.217ZM52.6783 172.108C49.1847 172.108 48.5085 171.094 48.5085 167.769V162.36C48.5085 161.627 48.6212 161.402 51.1569 161.402C54.8195 161.402 58.144 162.754 58.144 167.149C58.0877 170.812 55.4957 172.108 52.6783 172.108ZM81.134 148.498C73.0199 148.498 67.3287 154.189 67.3287 161.627C67.3287 168.671 72.4564 174.306 81.134 174.306C89.0227 174.306 94.7138 168.84 94.7138 161.289C94.7138 154.471 90.1496 148.498 81.134 148.498ZM81.4157 172.728C74.9357 172.728 72.2873 166.53 72.2873 160.782C72.2873 152.893 76.6825 150.132 80.7395 150.132C86.8815 150.132 89.7552 156.162 89.7552 162.135C89.7552 169.798 85.6418 172.672 81.4157 172.728ZM121.197 171.545C119.338 170.023 116.915 167.319 114.098 162.585C113.928 162.36 113.928 161.965 114.098 161.74C116.295 160.951 119.056 159.317 119.056 155.767C119.056 149.907 113.421 149.062 108.181 149.062C105.082 149.062 101.983 149.174 98.8836 149.4C98.3201 149.569 98.4328 150.752 98.8836 150.809L100.461 151.034C101.757 151.203 101.814 152.161 101.814 155.767V167.6C101.814 171.488 101.588 171.601 99.1653 172.052L98.3201 172.221C97.9257 172.503 97.8693 172.953 98.0947 173.348C98.1511 173.46 98.2637 173.573 98.4328 173.63C100.405 173.517 102.152 173.46 103.899 173.46C105.645 173.46 107.505 173.517 109.815 173.63C110.266 173.46 110.322 172.503 109.928 172.221L108.632 172.052C106.209 171.714 105.983 171.432 105.983 167.6V163.656C105.983 162.867 106.096 162.754 107.561 162.754C108.463 162.754 109.364 162.98 109.815 163.656C110.998 165.459 112.52 167.882 113.872 169.685C116.351 172.841 118.324 173.855 121.704 173.855C122.493 173.855 123.282 173.799 124.071 173.573C124.296 173.291 124.296 172.953 124.071 172.672C123.057 172.672 122.043 172.277 121.197 171.545ZM108.857 161.289C106.096 161.289 106.04 161.289 106.04 159.881V152.274C106.04 150.809 106.434 150.696 108.519 150.696C112.463 150.696 114.379 153.175 114.379 155.936C114.436 159.824 112.52 161.289 108.857 161.289ZM167.234 160.106L163.796 158.303C161.542 157.12 160.021 155.88 160.021 153.908C160.021 151.992 161.261 150.076 164.585 150.076C167.91 150.076 169.318 152.95 169.769 154.866C170.051 155.26 171.065 155.204 171.234 154.753C171.291 152.33 170.896 150.245 170.445 149.287C168.53 148.949 167.177 148.442 165.261 148.442C159.627 148.442 156.471 151.316 156.471 155.373C156.471 158.528 158.781 160.669 161.43 162.078L163.965 163.374C167.177 165.008 167.91 166.868 167.91 168.615C167.91 171.207 166.05 172.615 163.233 172.615C159.514 172.615 157.035 168.671 156.584 166.642C156.302 166.248 155.795 166.192 155.401 166.473C155.288 166.53 155.232 166.642 155.119 166.755C155.119 169.742 155.795 171.714 156.302 172.503C158.218 173.686 160.472 174.306 162.726 174.249C168.248 174.249 171.854 171.488 171.854 167.149C171.741 164.163 169.995 161.402 167.234 160.106ZM199.07 149.118C198.169 149.231 197.267 149.287 196.366 149.231H180.813C179.348 149.287 177.883 149.231 176.475 149.118C176.193 150.527 175.855 152.386 175.235 154.809C175.517 155.26 176.08 155.429 176.531 155.147L176.587 155.091C177.94 151.259 179.405 150.921 182.786 150.921H184.532C185.659 150.921 185.716 150.921 185.716 152.386V167.713C185.716 171.601 185.49 171.883 183.067 172.164L181.546 172.333C181.152 172.615 181.208 173.573 181.659 173.742C184.025 173.63 185.997 173.573 187.801 173.573C189.604 173.573 191.689 173.63 193.943 173.742C194.393 173.573 194.45 172.615 194.055 172.333L192.534 172.164C190.111 171.883 189.885 171.545 189.885 167.713V152.386C189.885 150.921 190.055 150.921 191.125 150.921H193.041C196.422 150.921 197.831 151.372 198.225 154.978C198.45 155.429 199.408 155.373 199.634 154.922C199.521 152.555 199.183 150.64 199.07 149.118ZM245.445 150.02C243.303 149.287 240.993 149.005 238.739 149.062C235.753 149.062 232.935 149.174 229.78 149.4C229.273 149.569 229.216 150.64 229.723 150.809L231.414 151.09C232.71 151.316 232.766 152.161 232.766 155.767V167.6C232.766 171.488 232.541 171.601 230.118 172.052L229.273 172.221C228.878 172.503 228.935 173.46 229.385 173.63C231.358 173.517 233.048 173.46 234.851 173.46C236.654 173.46 238.457 173.517 240.768 173.63C241.218 173.46 241.275 172.503 240.88 172.221L239.584 172.052C237.161 171.714 236.936 171.432 236.936 167.6V152.612C236.936 151.034 236.936 150.696 239.246 150.696C243.078 150.696 245.332 152.724 245.332 156.387C245.332 159.993 243.585 162.022 240.148 162.754C239.922 163.036 239.922 163.487 240.204 163.769C241.951 163.825 243.641 163.543 245.276 162.923C247.36 162.191 249.896 160.388 249.896 156.556C250.065 153.682 248.206 151.034 245.445 150.02ZM274.633 167.262C272.999 171.714 270.97 171.883 267.364 171.883C264.152 171.883 263.138 171.657 262.687 171.094C262.236 170.53 262.067 168.727 262.067 167.093V163.092C262.067 161.965 262.067 161.796 263.138 161.796H265.786C268.773 161.796 269.054 162.247 269.449 163.938L269.731 165.008C270.125 165.346 270.688 165.346 271.027 165.008C271.027 165.008 271.083 164.952 271.083 164.896C270.97 163.261 270.97 162.247 270.97 160.895C270.97 159.599 270.97 158.585 271.083 157.007C270.745 156.612 270.181 156.5 269.787 156.838L269.731 156.894L269.449 157.965C268.998 159.655 268.716 160.106 265.786 160.106H263.138C262.067 160.106 262.067 159.993 262.067 158.979V152.781C262.067 151.034 262.124 150.978 264.096 150.978H266.575C267.927 150.978 270.463 150.978 271.308 152.33C271.815 153.175 272.153 154.077 272.323 155.035C272.717 155.429 273.393 155.373 273.731 154.978C273.731 154.978 273.731 154.978 273.788 154.922C273.506 152.499 273.224 149.907 273.168 149.231C271.421 149.4 269.674 149.456 267.984 149.4H260.039C259.137 149.4 258.236 149.4 257.334 149.344C256.432 149.287 255.644 149.287 254.798 149.231C254.404 149.513 254.291 150.132 254.629 150.527C254.629 150.583 254.686 150.583 254.686 150.64L255.475 150.809C257.616 151.259 257.841 151.428 257.841 155.26V167.769C257.841 171.657 257.616 171.939 255.193 172.221L253.671 172.39C253.277 172.672 253.333 173.63 253.784 173.799C256.489 173.686 258.179 173.63 259.982 173.63H264.885C266.406 173.63 267.927 173.63 269.449 173.686C270.97 173.742 272.661 173.742 274.351 173.799C274.971 172.728 275.76 169.967 276.042 167.6C275.929 166.98 275.027 166.868 274.633 167.262ZM328.22 167.262C326.586 171.714 324.557 171.883 320.951 171.883C317.739 171.883 316.781 171.657 316.274 171.094C315.767 170.53 315.654 168.727 315.654 167.093V163.092C315.654 161.965 315.654 161.796 316.725 161.796H319.373C322.359 161.796 322.641 162.247 323.092 163.938L323.374 165.008C323.768 165.346 324.332 165.346 324.726 165.008C324.726 165.008 324.782 164.952 324.782 164.896C324.67 163.261 324.67 162.247 324.67 160.895C324.67 159.599 324.67 158.585 324.782 157.007C324.444 156.612 323.881 156.5 323.43 156.838L323.374 156.894L323.092 157.965C322.641 159.655 322.359 160.106 319.373 160.106H316.725C315.654 160.106 315.654 159.993 315.654 158.979V152.781C315.654 151.034 315.71 150.978 317.683 150.978H320.162C321.514 150.978 324.05 150.978 324.895 152.33C325.402 153.175 325.74 154.077 325.909 155.035C326.304 155.429 326.98 155.373 327.318 154.978C327.318 154.978 327.318 154.922 327.374 154.922C327.093 152.499 326.811 149.907 326.755 149.231C325.008 149.4 323.261 149.456 321.571 149.4H313.626C312.724 149.4 311.822 149.4 310.921 149.344C310.019 149.287 309.23 149.287 308.385 149.231C307.991 149.569 307.878 150.132 308.216 150.527L308.273 150.583L309.061 150.752C311.203 151.203 311.428 151.372 311.428 155.204V167.713C311.428 171.601 311.203 171.883 308.78 172.164L307.258 172.333C306.864 172.615 306.92 173.573 307.371 173.742C310.076 173.63 311.766 173.573 313.569 173.573H318.471C319.993 173.573 321.514 173.573 323.036 173.63C324.557 173.686 326.248 173.686 327.938 173.742C328.558 172.672 329.347 169.911 329.628 167.544C329.516 166.98 328.614 166.868 328.22 167.262ZM359.549 172.728C358.479 172.672 357.408 172.277 356.563 171.545C354.703 170.023 352.224 167.319 349.463 162.585C349.294 162.36 349.294 161.965 349.463 161.74C351.66 160.951 354.422 159.317 354.422 155.767C354.422 149.907 348.787 149.062 343.546 149.062C340.447 149.062 337.348 149.174 334.249 149.4C333.685 149.569 333.798 150.752 334.249 150.809L335.827 151.034C337.123 151.203 337.179 152.161 337.179 155.767V167.6C337.179 171.488 336.954 171.601 334.531 172.052L333.685 172.221C333.291 172.503 333.235 173.01 333.516 173.348C333.573 173.46 333.685 173.573 333.798 173.63C335.77 173.517 337.461 173.46 339.264 173.46C341.067 173.46 342.814 173.517 345.18 173.63C345.631 173.46 345.688 172.503 345.293 172.221L343.997 172.052C341.574 171.714 341.349 171.432 341.349 167.6V163.656C341.349 162.867 341.461 162.754 342.927 162.754C343.828 162.754 344.73 162.98 345.18 163.656C346.364 165.459 347.885 167.882 349.237 169.685C351.717 172.841 353.689 173.855 357.07 173.855C357.859 173.855 358.648 173.799 359.436 173.573C359.775 173.404 359.775 173.01 359.549 172.728ZM344.279 161.289C341.518 161.289 341.461 161.289 341.461 159.881V152.274C341.461 150.809 341.856 150.696 343.941 150.696C347.885 150.696 349.801 153.175 349.801 155.936C349.801 159.824 347.941 161.289 344.279 161.289ZM152.02 172.277L151.118 172.108C149.09 171.714 148.582 170.981 147.963 169.122L142.948 155.767C142.046 153.344 141.37 151.372 141.032 150.245C142.553 149.625 143.511 148.104 143.567 146.47C143.398 144.047 141.37 142.244 138.947 142.356C136.749 142.469 135.003 144.272 134.834 146.47C134.834 148.16 135.904 149.682 137.426 150.301C137.426 150.358 137.426 150.414 137.369 150.471C137.031 152.217 136.524 153.851 135.848 155.485L130.495 168.333C129.368 171.038 128.748 171.601 127.058 171.995L125.762 172.277C125.423 172.615 125.367 173.179 125.705 173.517C125.762 173.573 125.818 173.63 125.874 173.63C126.888 173.573 128.241 173.46 129.762 173.46C131.284 173.46 132.805 173.517 134.157 173.63C134.721 173.517 134.777 172.503 134.326 172.221L132.805 171.939C131.734 171.714 131.565 171.488 132.185 169.685L133.481 166.135C133.932 164.839 134.101 164.783 135.397 164.783H140.694C141.99 164.783 142.159 164.839 142.61 166.135L143.962 169.798C144.638 171.545 144.694 171.883 143.229 172.108L142.102 172.277C141.708 172.559 141.652 173.066 141.877 173.404C141.933 173.517 142.046 173.63 142.215 173.686C143.624 173.573 145.258 173.517 147.23 173.517C149.146 173.517 150.386 173.573 151.851 173.686C152.245 173.517 152.414 173.01 152.245 172.615C152.189 172.503 152.132 172.39 152.02 172.277ZM136.806 146.526C136.806 145.005 137.82 143.821 139.116 143.821C140.412 143.821 141.426 145.005 141.426 146.526C141.426 148.048 140.468 149.231 139.116 149.231C137.764 149.231 136.806 148.104 136.806 146.526ZM139.792 163.092H135.961C134.721 163.092 134.608 162.98 135.228 161.458L137.257 156.5C137.482 155.824 137.82 155.204 138.158 154.584H138.271C138.609 155.204 138.891 155.88 139.116 156.612L140.863 161.346C141.37 162.98 141.201 163.092 139.792 163.092ZM302.694 149.118C301.793 149.231 300.891 149.287 299.989 149.231H284.437C282.972 149.287 281.507 149.231 280.099 149.118C279.817 150.527 279.479 152.386 278.859 154.809C279.141 155.26 279.76 155.429 280.211 155.147L280.268 155.091C281.62 151.259 283.085 150.921 286.466 150.921H288.213C289.34 150.921 289.396 150.921 289.396 152.386V167.713C289.396 171.601 289.171 171.883 286.748 172.164L285.226 172.333C284.832 172.615 284.888 173.573 285.339 173.742C287.706 173.63 289.678 173.573 291.481 173.573C293.284 173.573 295.369 173.63 297.623 173.742C298.074 173.573 298.13 172.615 297.735 172.333L296.214 172.164C293.791 171.883 293.566 171.545 293.566 167.713V152.386C293.566 150.921 293.735 150.921 294.805 150.921H296.721C300.102 150.921 301.511 151.372 301.905 154.978C302.243 155.373 302.807 155.373 303.201 155.035C303.258 154.978 303.314 154.922 303.314 154.922C303.145 152.555 302.863 150.64 302.694 149.118ZM226.061 172.277L225.159 172.108C223.131 171.714 222.624 170.981 221.947 169.122L216.933 155.767C215.637 152.33 214.735 149.4 214.51 148.836C214.397 148.498 212.537 148.498 212.425 148.836C212.143 149.513 210.734 153.119 209.833 155.429L204.48 168.276C203.353 170.981 202.733 171.601 201.042 171.995L199.746 172.277C199.408 172.615 199.352 173.179 199.69 173.517C199.746 173.573 199.803 173.63 199.859 173.63C200.873 173.573 202.226 173.46 203.803 173.46C205.381 173.46 206.846 173.517 208.255 173.63C208.818 173.517 208.875 172.503 208.424 172.221L206.903 171.939C205.832 171.714 205.663 171.488 206.283 169.685L207.579 166.079C208.03 164.783 208.199 164.727 209.495 164.727H214.791C216.087 164.727 216.256 164.783 216.707 166.079L218.059 169.742C218.736 171.488 218.792 171.826 217.327 172.052L216.2 172.221C215.806 172.503 215.749 172.953 215.975 173.348C216.031 173.46 216.144 173.573 216.313 173.63C217.721 173.517 219.355 173.46 221.328 173.46C223.243 173.46 224.539 173.517 225.948 173.63C226.455 173.573 226.568 172.559 226.061 172.277ZM213.664 163.092H209.776C208.537 163.092 208.424 162.98 209.044 161.458L211.072 156.5C211.298 155.824 211.636 155.204 211.974 154.584H212.087C212.425 155.204 212.706 155.88 212.932 156.612L214.679 161.346C215.298 162.98 215.129 163.092 213.664 163.092Z" fill="#1D1D23"/>
</svg>
