<svg width="408" height="228" viewBox="0 0 408 228" fill="none" xmlns="http://www.w3.org/2000/svg">
<g filter="url(#filter0_d_1089_13852)">
<path d="M143.696 109.223L146.29 110.183C149.556 111.336 151.285 113.354 151.285 115.948C151.285 119.598 148.499 122 144.368 122C140.237 122 137.643 119.79 137.355 115.659V115.563H140.237V115.659C140.525 118.157 141.966 119.406 144.56 119.406C146.866 119.406 148.499 118.061 148.499 116.236C148.499 114.891 147.442 113.834 145.329 112.969L142.639 111.913C139.372 110.664 137.835 108.646 137.835 105.956C137.835 102.017 141.198 100 144.464 100C148.307 100 150.805 102.402 151.093 106.533V106.821H148.403V106.725C147.923 104.227 146.482 102.786 144.368 102.786C141.678 102.786 140.717 104.515 140.717 106.052C140.717 107.493 141.582 108.454 143.696 109.223Z" fill="#1D1D23"/>
<path d="M96.9097 117.1C95.4686 118.541 93.4512 119.31 91.3376 119.31C86.7263 119.214 83.0756 115.563 83.1717 110.952C83.2678 106.437 86.8224 102.786 91.3376 102.786C93.3551 102.786 95.2765 103.555 96.7176 104.9L96.8136 104.996L98.735 102.882L98.639 102.786C96.6215 101.057 94.0276 100.096 91.3376 100.096C85.2853 99.9039 80.1936 104.707 80.0014 110.76C79.9053 116.812 84.7088 121.904 90.7612 122H91.3376C94.0276 122 96.7176 120.943 98.735 119.214L98.8311 119.118L96.9097 117.1Z" fill="#1D1D23"/>
<path fill-rule="evenodd" clip-rule="evenodd" d="M119.006 100.384H116.508L107.862 121.808H111.032L112.953 116.812H122.656L124.578 121.808H127.748L119.006 100.384ZM121.696 114.122H114.01L117.757 104.227L121.696 114.122Z" fill="#1D1D23"/>
<path fill-rule="evenodd" clip-rule="evenodd" d="M172.42 100.384H169.923L161.276 121.808H164.447L166.368 116.812H176.071L177.993 121.808H181.163L172.42 100.384ZM175.014 114.122H167.329L171.076 104.227L175.014 114.122Z" fill="#1D1D23"/>
<path d="M195.285 100.384L203.835 116.236L212.482 100.384H215.268V121.616H212.386V106.245L203.835 122L195.381 106.245V121.616H192.499V100.384H195.285Z" fill="#1D1D23"/>
<path fill-rule="evenodd" clip-rule="evenodd" d="M237.844 100.384H235.346L226.7 121.808H229.87L231.792 116.812H241.495L243.416 121.808H246.586L237.844 100.384ZM240.342 114.122H232.656L236.403 104.227L240.342 114.122Z" fill="#1D1D23"/>
<path d="M260.42 100.384L271.565 116.524V100.384H274.447V121.616H271.757L260.613 105.476V121.616H257.73V100.384H260.42Z" fill="#1D1D23"/>
<path d="M303.556 117.1C302.115 118.541 300.097 119.31 297.984 119.31C293.372 119.214 289.722 115.563 289.818 110.952C289.914 106.437 293.468 102.786 297.984 102.786C300.001 102.786 301.922 103.555 303.364 104.9L303.46 104.996L305.381 102.882L305.285 102.786C303.267 101.057 300.674 100.096 297.984 100.096C291.931 99.9039 286.84 104.707 286.743 110.76C286.551 116.812 291.355 121.904 297.407 122H297.984C300.674 122 303.363 120.943 305.381 119.214L305.477 119.118L303.556 117.1Z" fill="#1D1D23"/>
<path d="M328.246 100.384V103.074H319.984V109.511H328.246V112.297H319.984V118.926H328.246V121.616H317.102V100.384H328.246Z" fill="#1D1D23"/>
</g>
<defs>
<filter id="filter0_d_1089_13852" x="0" y="0" width="408" height="228" filterUnits="userSpaceOnUse" color-interpolation-filters="sRGB">
<feFlood flood-opacity="0" result="BackgroundImageFix"/>
<feColorMatrix in="SourceAlpha" type="matrix" values="0 0 0 0 0 0 0 0 0 0 0 0 0 0 0 0 0 0 127 0" result="hardAlpha"/>
<feOffset dy="4"/>
<feGaussianBlur stdDeviation="2"/>
<feComposite in2="hardAlpha" operator="out"/>
<feColorMatrix type="matrix" values="0 0 0 0 0 0 0 0 0 0 0 0 0 0 0 0 0 0 0.25 0"/>
<feBlend mode="normal" in2="BackgroundImageFix" result="effect1_dropShadow_1089_13852"/>
<feBlend mode="normal" in="SourceGraphic" in2="effect1_dropShadow_1089_13852" result="shape"/>
</filter>
</defs>
</svg>
