<svg width="400" height="220" viewBox="0 0 400 220" fill="none" xmlns="http://www.w3.org/2000/svg">
<path fill-rule="evenodd" clip-rule="evenodd" d="M127.508 108.057C127.508 68.0569 160.1 35.6814 200.313 35.6814C240.526 35.6814 273.118 68.0569 273.118 108.057C273.118 148.057 240.526 180.432 200.313 180.432C160.1 180.432 127.508 148 127.508 108.057ZM120 108C120 63.7895 155.834 28 199.972 28C244.166 28 280 63.8464 280 108C280 152.211 244.166 188 199.972 188C155.777 188 120 152.211 120 108ZM198.549 95.027H203.27V114.486H198.948V112.097H198.891C198.265 113.633 196.388 114.828 194.227 114.828C190.188 114.828 188.027 111.471 188.027 107.488C188.027 104.188 190.074 100.66 193.828 100.66C195.705 100.66 197.298 101.172 198.493 102.708H198.549V95.027ZM195.649 104.245C193.885 104.245 192.862 105.781 192.862 107.602C192.862 109.764 193.942 111.3 195.649 111.243C197.241 111.243 198.549 109.764 198.549 107.772C198.549 105.724 197.355 104.245 195.649 104.245ZM187.288 100.831C187.169 100.816 187.043 100.797 186.911 100.778L186.911 100.778H186.911C186.536 100.722 186.116 100.66 185.695 100.66C183.648 100.66 182.51 101.741 181.657 103.448H181.6V100.944H177.334V114.486H182.055V108.74C182.055 106.065 183.249 104.529 185.468 104.529C186.036 104.529 186.548 104.529 187.06 104.7L187.288 100.831ZM142.41 101.457C141.33 100.945 140.135 100.717 138.713 100.717C134.22 100.717 130.864 103.334 130.864 107.829C130.864 112.324 134.277 114.885 138.713 114.885C139.965 114.885 141.387 114.657 142.524 114.259L142.41 110.788C141.671 111.186 140.59 111.414 139.51 111.414C137.462 111.414 135.642 109.991 135.642 107.829C135.642 105.496 137.178 104.074 139.225 104.074C140.306 104.074 141.216 104.302 142.069 104.814L142.41 101.457ZM151.113 114.885C155.606 114.885 159.019 112.267 159.019 107.829C159.019 103.334 155.606 100.717 151.113 100.717C146.619 100.717 143.263 103.334 143.263 107.829C143.207 112.267 146.619 114.885 151.113 114.885ZM151.113 111.585C148.951 111.585 148.098 109.764 148.098 107.772C148.098 105.724 148.951 103.96 151.113 103.96C153.274 103.96 154.127 105.781 154.127 107.772C154.127 109.764 153.274 111.585 151.113 111.585ZM175.741 107.829C175.741 112.267 172.329 114.885 167.835 114.885C163.399 114.885 159.986 112.267 159.986 107.829C159.986 103.334 163.399 100.717 167.835 100.717C172.329 100.717 175.741 103.334 175.741 107.829ZM164.821 107.772C164.821 109.764 165.674 111.585 167.835 111.585C169.997 111.585 170.907 109.764 170.907 107.772C170.907 105.781 169.997 103.96 167.835 103.96C165.731 103.96 164.821 105.724 164.821 107.772ZM212.656 114.885C217.149 114.885 220.505 112.267 220.505 107.829C220.505 103.334 217.092 100.717 212.656 100.717C208.162 100.717 204.806 103.334 204.806 107.829C204.806 112.267 208.162 114.885 212.656 114.885ZM212.656 111.585C210.494 111.585 209.584 109.764 209.584 107.772C209.584 105.724 210.494 103.96 212.656 103.96C214.817 103.96 215.67 105.781 215.67 107.772C215.727 109.764 214.817 111.585 212.656 111.585ZM226.875 114.543H222.211H222.154V100.944H226.42V103.448H226.477C227.387 101.513 229.321 100.66 231.426 100.66C235.123 100.66 236.602 103.277 236.602 106.065V114.543H231.937V108C231.937 105.439 231.027 104.586 229.776 104.586C227.842 104.586 226.875 105.895 226.875 108.797V114.543ZM238.934 114.543H243.598V108.797C243.598 105.895 244.621 104.586 246.498 104.586C247.75 104.586 248.66 105.439 248.66 108V114.543H253.324V106.065C253.324 103.277 251.845 100.66 248.148 100.66C245.987 100.66 244.166 101.513 243.2 103.448V100.944H238.934V114.543ZM263.676 99.3514H260.377L262.14 95.5961H267.031L263.676 99.3514ZM269.079 108.285V109.081H259.694C259.978 110.959 261.4 111.698 263.676 111.698C264.984 111.698 266.406 111.414 267.828 110.674V113.974C266.349 114.543 264.643 114.828 262.879 114.828C258.443 114.828 255.03 112.211 255.03 107.716C255.03 103.277 258.045 100.66 262.254 100.66C267.259 100.66 269.079 104.245 269.079 108.285ZM262.254 103.619C260.547 103.619 259.751 104.928 259.637 106.464H264.87C264.87 104.871 264.131 103.619 262.254 103.619ZM193.203 153.178C195.08 153.69 199.801 154.316 199.801 154.316L199.289 155.226C199.289 155.226 197.241 157.331 195.876 158.185C194.511 159.038 190.871 160.518 189.676 160.745C188.482 160.973 187.117 160.518 186.264 159.664C185.354 158.811 185.24 157.559 185.24 157.559C185.24 157.559 184.273 157.104 183.42 156.08C182.567 155.112 182.68 153.917 182.68 153.917C182.68 153.917 182.794 150.617 185.354 150.333C187.037 150.183 189.115 151.24 190.858 152.126C191.764 152.587 192.58 153.003 193.203 153.178ZM199.573 156.25C199.573 156.25 196.786 158.469 195.421 159.323C194.941 159.623 194.369 159.874 193.803 160.123C192.758 160.581 191.731 161.032 191.326 161.77C190.7 162.908 190.757 163.989 191.44 164.615C192.179 165.24 193.601 165.582 195.706 163.989C197.81 162.395 198.55 161.087 199.005 159.835C199.573 158.583 199.573 156.25 199.573 156.25ZM198.038 149.991C198.095 148.398 199.744 146.35 200.085 146.236C200.484 146.407 202.133 148.398 202.076 149.935C202.076 151.983 201.564 153.747 200.029 153.633C198.55 153.519 197.981 152.097 198.038 149.991ZM207.764 151.357C207.764 151.357 209.641 149.252 210.096 146.464C210.308 145.136 210.112 144.515 209.963 144.045C209.794 143.507 209.686 143.168 210.323 142.196C211.518 140.319 212.655 140.319 213.736 140.831C214.874 141.343 216.011 143.277 215.727 144.814C215.329 146.805 214.76 148.171 212.883 149.423C211.063 150.674 209.3 151.414 208.617 151.414C207.935 151.357 207.764 151.357 207.764 151.357ZM203.384 147.659C203.726 149.764 202.019 153.292 202.019 153.292C202.019 153.292 204.01 152.95 204.977 152.324C205.944 151.698 206.57 150.959 207.65 149.252C208.788 147.545 209.072 144.871 208.788 142.879C208.503 140.888 206.797 138.839 205.091 138.327C203.384 137.815 201.394 137.758 200.825 140.546C200.438 142.27 201.356 143.777 202.207 145.174C202.733 146.035 203.232 146.855 203.384 147.659ZM192.293 151.357C192.293 151.357 190.416 149.252 189.961 146.464C189.749 145.136 189.945 144.515 190.094 144.045C190.263 143.507 190.371 143.168 189.734 142.196C188.482 140.319 187.401 140.319 186.321 140.831C185.183 141.343 183.989 143.277 184.33 144.814C184.728 146.805 185.297 148.171 187.174 149.423C188.994 150.674 190.757 151.414 191.497 151.414C192.122 151.357 192.293 151.357 192.293 151.357ZM196.673 147.659C196.275 149.764 198.038 153.292 198.038 153.292C198.038 153.292 196.047 152.95 195.023 152.324C194.056 151.698 193.431 150.959 192.35 149.252C191.269 147.545 190.985 144.871 191.269 142.879C191.497 140.888 193.26 138.839 194.966 138.327C196.673 137.815 198.607 137.758 199.232 140.546C199.619 142.27 198.701 143.777 197.85 145.174C197.324 146.035 196.825 146.855 196.673 147.659ZM200.37 154.316C200.37 154.316 205.147 153.69 206.968 153.178C207.624 152.999 208.469 152.569 209.399 152.095L209.399 152.095C211.128 151.215 213.153 150.185 214.817 150.333C217.376 150.617 217.49 153.917 217.49 153.917C217.49 153.917 217.604 155.112 216.751 156.08C215.898 157.104 214.931 157.559 214.931 157.559C214.931 157.559 214.76 158.811 213.907 159.664C213.054 160.518 211.689 160.973 210.494 160.745C209.243 160.518 205.602 159.038 204.237 158.185C202.872 157.331 200.825 155.226 200.825 155.226L200.37 154.316ZM204.749 159.323C203.384 158.469 200.597 156.25 200.597 156.25C200.597 156.25 200.597 158.583 201.052 159.835C201.507 161.087 202.247 162.395 204.351 163.989C206.456 165.582 207.878 165.24 208.617 164.615C209.356 163.989 209.356 162.908 208.788 161.77C208.417 161.027 207.392 160.575 206.345 160.114C205.787 159.868 205.224 159.62 204.749 159.323Z" fill="#1D1D23"/>
</svg>
