<svg width="400" height="220" viewBox="0 0 400 220" fill="none" xmlns="http://www.w3.org/2000/svg">
<path d="M169.272 101.453H162.342V78.2249H169.272V101.453ZM169.272 75.7879H162.342V70.5331H169.272V75.7879Z" fill="#1D1D23"/>
<path d="M181.229 75.8641H174.299V70.6093H181.229V75.8641ZM181.229 100.996C181.229 106.403 180.239 110.059 172.623 110.059H170.948V104.804H171.862C174.299 104.804 174.299 102.976 174.299 101.301V78.3773H181.229V100.996V100.996Z" fill="#1D1D23"/>
<path d="M210.397 75.331H211.159V70.0762H210.169C206.818 70.0762 201.335 70.6854 201.335 77.1588V78.3773H194.557V77.4634C194.557 75.4833 196.08 75.2548 196.689 75.2548H197.451V70H196.46C193.11 70 187.626 70.6093 187.626 77.0826V78.3011H185.037V83.5559H187.626V101.453H194.557V83.5559H201.335V101.453H208.265V83.5559H211.159V78.3011H208.265V77.3872C208.265 75.5595 209.788 75.331 210.397 75.331Z" fill="#1D1D23"/>
<path d="M221.897 101.605H214.967V78.3773H221.897V101.605ZM221.897 75.9403H214.967V70.6854H221.897V75.9403Z" fill="#1D1D23"/>
<path d="M226.39 78.4534H232.864V80.8905H232.94C233.625 79.7481 235.148 77.6157 239.261 77.6157C241.469 77.6157 243.906 78.5296 245.201 79.5958C246.419 80.662 247.866 82.4898 247.866 87.0592V101.529H240.936V88.887C240.936 87.2877 240.936 84.0891 237.281 84.0891C233.32 84.0891 233.32 87.5161 233.32 88.9631V101.605H226.39V78.4534Z" fill="#1D1D23"/>
<path d="M263.098 95.8934C266.449 95.8934 268.81 93.4564 268.81 90.1055C268.81 86.3738 266.296 84.1652 263.174 84.1652C260.204 84.1652 257.538 86.5261 257.538 89.9532C257.538 93.6849 260.204 95.8934 263.098 95.8934ZM275.74 98.8635C275.74 102.367 275.511 104.575 274.369 106.479C272.541 109.373 268.353 111.963 262.641 111.963C254.568 111.963 251.522 107.088 251.065 103.814H259.062C260.052 106.098 262.641 106.098 263.098 106.098C264.012 106.098 268.733 106.022 268.733 99.7774V99.092H268.657C267.972 100.463 265.916 102.367 262.336 102.367C256.015 102.367 250.608 97.5689 250.608 90.1816C250.608 82.2613 256.32 77.6919 262.336 77.6919C264.926 77.6919 267.515 78.6058 268.733 80.5859H268.81V78.3773H275.74V98.8635Z" fill="#1D1D23"/>
<path d="M295.693 87.44C295.388 86.0691 294.018 83.4798 290.438 83.4798C286.859 83.4798 285.488 86.0691 285.183 87.44H295.693ZM301.862 94.3703C300.719 96.9596 299.12 98.9397 297.14 100.311C295.236 101.681 292.951 102.367 290.514 102.367C283.889 102.367 278.253 96.9596 278.253 90.1055C278.253 83.6321 283.356 77.6157 290.438 77.6157C297.521 77.6157 302.7 83.2513 302.7 90.2578C302.7 91.1717 302.623 91.5525 302.547 92.0856H285.183C285.564 94.8272 287.925 96.5027 290.591 96.5027C292.723 96.5027 293.865 95.5126 294.779 94.2941H301.862V94.3703Z" fill="#1D1D23"/>
<path d="M305.289 78.4534H311.838V80.8905H311.914C312.524 79.7481 313.742 77.6157 317.702 77.6157V84.6222C314.504 84.6983 312.219 85.3837 312.219 88.887V101.605H305.289V78.4534V78.4534Z" fill="#1D1D23"/>
<path d="M158.153 70.5331H137.82V77.0826H158.153V70.5331Z" fill="#1D1D23"/>
<path d="M151.223 82.7181H137.82V89.2676H151.223V82.7181Z" fill="#1D1D23"/>
<path d="M158.153 94.9033H137.82V101.529H158.153V94.9033Z" fill="#1D1D23"/>
<path d="M329.05 75.4833C329.05 76.1687 328.593 76.8542 327.527 76.8542H325.851V74.1125H327.527C328.669 74.1125 329.05 74.7979 329.05 75.4833ZM329.964 75.4833C329.964 74.2648 329.126 73.1986 327.527 73.1986H325.014V80.3574H325.851V77.6919H327.527H327.679L328.898 80.3574H329.888L328.593 77.4634C329.507 77.2349 329.964 76.3972 329.964 75.4833ZM333.086 76.8542C333.086 80.1289 330.497 82.7944 327.222 82.7944C323.947 82.7944 321.358 80.1289 321.358 76.8542C321.358 73.5794 323.947 70.9139 327.222 70.9139C330.573 70.9139 333.086 73.5794 333.086 76.8542ZM334 76.8542C334 73.1225 331.03 70.0762 327.222 70.0762C323.49 70.0762 320.444 73.1225 320.444 76.8542C320.444 80.5858 323.414 83.6321 327.222 83.6321C331.03 83.6321 334 80.5858 334 76.8542Z" fill="#777373"/>
<path d="M238.575 149.508C238.575 147.832 239.718 145.929 242.155 145.929C244.516 145.929 245.734 147.756 245.734 149.508C245.734 150.955 244.744 153.163 242.079 153.163C240.099 153.163 238.575 151.717 238.575 149.508ZM249.77 137.704H245.506V143.644C245.049 143.187 243.83 141.968 241.317 141.968C237.738 141.968 234.311 144.71 234.311 149.508C234.311 153.773 237.128 157.124 241.393 157.124C244.287 157.124 245.277 155.753 245.658 155.144H245.734V156.667H249.77V137.704ZM228.37 156.667H232.635V137.704H228.37C228.37 137.704 228.37 156.667 228.37 156.667ZM219.308 156.667H223.572V148.823C223.572 146.69 224.943 146.233 226.923 146.233V141.968C224.486 141.968 223.725 143.263 223.344 143.948H223.268V142.425H219.308C219.308 142.425 219.308 156.667 219.308 156.667ZM206.666 149.584C206.666 147.528 208.265 146.005 210.093 146.005C211.92 146.005 213.52 147.528 213.52 149.584C213.52 151.64 211.92 153.163 210.093 153.163C208.265 153.163 206.666 151.64 206.666 149.584ZM202.401 149.584C202.401 153.087 204.914 157.124 210.093 157.124C215.271 157.124 217.785 153.087 217.785 149.584C217.785 146.081 215.271 142.045 210.093 142.045C204.914 141.968 202.401 146.081 202.401 149.584ZM181.458 142.425L185.799 156.667H189.759L192.12 147.452H192.196L194.557 156.667H198.517L202.858 142.425H198.517L196.384 151.26H196.308L193.947 142.425H190.368L188.007 151.26H187.931L185.799 142.425H181.458V142.425ZM165.388 147.985C165.541 147.147 166.379 145.548 168.587 145.548C170.796 145.548 171.633 147.147 171.786 147.985H165.388ZM171.253 152.173C170.643 152.935 169.958 153.468 168.663 153.468C166.988 153.468 165.617 152.478 165.312 150.803H175.974C176.05 150.498 176.05 150.27 176.05 149.66C176.05 145.319 172.852 141.892 168.511 141.892C164.17 141.892 161.048 145.548 161.048 149.508C161.048 153.697 164.475 157.047 168.587 157.047C170.034 157.047 171.481 156.591 172.623 155.753C173.842 154.915 174.832 153.697 175.517 152.097L171.253 152.173ZM146.502 156.667H150.766V148.746C150.766 148.061 150.766 145.929 153.127 145.929C155.412 145.929 155.412 148.213 155.412 148.899V156.667H159.677V148.746C159.677 146.233 159.524 144.939 158.382 143.568C157.468 142.502 155.869 141.968 154.498 141.968C152.975 141.968 151.528 142.502 150.843 143.796H150.766V137.78H146.502V156.667ZM143.379 137.704H139.114V142.425H136.982V145.624H139.114V156.591H143.379V145.624H145.435V142.425H143.379V137.704Z" fill="#777373"/>
<path d="M264.088 124.528C264.088 122.472 265.687 121.025 267.515 121.025C269.419 121.025 270.942 122.396 270.942 124.681C270.942 126.737 269.495 128.184 267.439 128.184C265.763 128.184 264.088 126.813 264.088 124.528ZM275.207 117.446H270.942V118.741H270.866C270.104 117.522 268.505 116.989 266.982 116.989C263.326 116.989 259.823 119.807 259.823 124.681C259.823 129.25 263.098 132.144 266.982 132.144C269.19 132.144 270.409 130.926 270.866 130.088H270.942V130.545C270.942 134.353 268.048 134.429 267.515 134.429C267.21 134.429 265.611 134.429 265.002 133.058H260.052C260.356 135.114 262.184 138.084 267.134 138.084C270.637 138.084 273.227 136.485 274.293 134.733C274.978 133.515 275.131 132.144 275.131 130.012V117.446H275.207ZM245.125 131.687H249.39V123.919C249.39 123.081 249.39 120.949 251.827 120.949C254.035 120.949 254.035 122.929 254.035 123.919V131.687H258.3V122.777C258.3 119.959 257.462 118.893 256.624 118.207C255.863 117.522 254.34 116.989 252.969 116.989C250.456 116.989 249.542 118.284 249.085 118.969H249.009V117.446H245.049L245.125 131.687ZM242.764 112.724H238.499V115.923H242.764V112.724ZM242.764 117.446H238.499V131.687H242.764V117.446ZM235.377 112.724H231.112V117.446H228.98V120.644H231.112V131.611H235.377V120.644H237.433V117.446H235.377V112.724ZM216.49 124.605C216.49 123.005 217.556 120.949 219.993 120.949C222.43 120.949 223.572 122.853 223.572 124.528C223.572 125.899 222.658 128.184 219.993 128.184C217.48 128.184 216.49 125.975 216.49 124.605ZM227.837 117.446H223.572V118.969H223.496C222.963 118.131 221.668 116.989 219.384 116.989C215.576 116.989 212.225 119.883 212.225 124.605C212.225 128.641 214.89 132.22 219.384 132.22C221.059 132.22 222.811 131.611 223.496 130.164H223.572V131.687H227.837V117.446ZM204.381 131.687H208.646V123.843C208.646 121.711 210.016 121.254 211.996 121.254V116.989C209.559 116.989 208.798 118.284 208.417 118.969H208.341V117.446H204.381V131.687V131.687ZM191.663 124.528C191.663 122.472 193.262 120.949 195.09 120.949C196.917 120.949 198.517 122.472 198.517 124.528C198.517 126.585 196.917 128.108 195.09 128.108C193.262 128.184 191.663 126.661 191.663 124.528ZM187.474 124.528C187.474 128.032 189.987 132.068 195.166 132.068C200.344 132.068 202.858 128.032 202.858 124.528C202.858 121.025 200.344 116.989 195.166 116.989C189.911 116.989 187.474 121.101 187.474 124.528ZM182.219 126.28C181.762 127.118 180.924 128.184 179.173 128.184C177.117 128.184 175.822 126.661 175.822 124.605C175.822 122.548 177.193 120.873 179.173 121.025C180.924 121.025 181.762 122.015 182.219 123.005H186.484C185.798 119.502 182.752 117.065 178.944 117.065C174.68 117.065 171.405 120.416 171.405 124.605C171.405 128.793 174.68 132.22 179.021 132.22C182.828 132.22 185.722 129.555 186.484 126.356L182.219 126.28ZM159.905 123.005C160.057 122.168 160.895 120.568 163.104 120.568C165.312 120.568 166.15 122.168 166.302 123.005H159.905ZM165.769 127.194C165.16 127.956 164.475 128.489 163.18 128.489C161.504 128.489 160.134 127.499 159.829 125.823H170.491C170.567 125.519 170.567 125.29 170.567 124.681C170.567 120.34 167.368 116.913 163.028 116.913C158.687 116.913 155.564 120.568 155.564 124.528C155.564 128.717 158.991 132.068 163.104 132.068C164.551 132.068 165.998 131.611 167.14 130.773C168.359 129.936 169.349 128.717 170.034 127.118L165.769 127.194ZM142.922 116.989H145.054C147.187 116.989 148.177 117.903 148.71 118.741C149.395 119.807 149.624 121.178 149.624 122.244C149.624 124.909 148.634 127.422 144.978 127.422H142.922V116.989ZM138.124 131.687H144.75C151.909 131.687 154.498 127.346 154.498 122.168C154.498 120.111 154.041 118.055 152.746 116.304C150.309 112.8 146.501 112.8 144.369 112.8H138.124C138.124 112.724 138.124 131.687 138.124 131.687Z" fill="#777373"/>
<path d="M126.32 157.124V70.1522H74V83.0227H112.535V96.0456H74V107.088H100.198V120.111H74V131.23H112.535V144.253H74V157.124H126.32Z" fill="#1D1D23"/>
</svg>
