<svg width="408" height="228" viewBox="0 0 408 228" fill="none" xmlns="http://www.w3.org/2000/svg">
<g filter="url(#filter0_d_1089_13862)">
<path d="M138.465 89L130.792 90.6671V92.8882L138.465 91.3545V89Z" fill="#1D1D23"/>
<path d="M42.3124 105.291H34.3565V102.742H45.8518V102.998C45.8669 104.307 45.601 105.603 45.0721 106.799C44.566 107.932 43.8164 108.939 42.8766 109.749C41.8692 110.602 40.7029 111.247 39.445 111.647C37.9918 112.113 36.4724 112.34 34.9464 112.319C33.5316 112.329 32.1235 112.123 30.771 111.708C29.5682 111.341 28.4359 110.774 27.4214 110.031C26.3391 109.265 25.4612 108.246 24.8647 107.062C24.2682 105.877 23.9713 104.565 24 103.24C23.9823 101.917 24.2891 100.61 24.8937 99.4328C25.4982 98.256 26.3819 97.2453 27.4676 96.4891C28.5021 95.7101 29.6728 95.1309 30.9197 94.781C32.3142 94.3747 33.7608 94.176 35.2131 94.1911C36.9724 94.1588 38.7192 94.4925 40.3427 95.1708C41.9254 95.8947 43.3272 96.9618 44.4463 98.2947L41.7994 99.6181C40.9697 98.7139 39.9621 97.9909 38.8397 97.4945C37.6105 96.9826 36.2879 96.7327 34.9567 96.761C33.9392 96.7545 32.9264 96.8979 31.9508 97.1867C31.075 97.439 30.2491 97.8398 29.5091 98.3717C28.7123 98.91 28.0611 99.6372 27.6136 100.488C27.1661 101.34 26.9361 102.288 26.9444 103.25C26.9352 104.153 27.128 105.047 27.5086 105.866C27.8899 106.662 28.4436 107.363 29.1295 107.918C29.88 108.52 30.7382 108.975 31.6584 109.257C32.7234 109.583 33.8326 109.742 34.9464 109.728C36.5759 109.786 38.1895 109.392 39.6091 108.59C40.8599 107.831 41.8137 106.667 42.3124 105.291Z" fill="#1D1D23"/>
<path fill-rule="evenodd" clip-rule="evenodd" d="M50.3093 111.806L59.3475 94.7195H62.9074L71.9354 111.801H68.8577L66.8725 107.979H55.3824L53.387 111.806H50.3093ZM61.1377 97.156L56.7725 105.415H65.4824L61.1377 97.156Z" fill="#1D1D23"/>
<path d="M93.2793 103.214C92.2534 102.445 90.6718 101.932 88.5345 101.675C87.6676 101.562 86.8418 101.485 86.0569 101.439L83.8512 101.306C83.169 101.27 82.5381 101.213 81.9636 101.142C81.4282 101.081 80.9015 100.958 80.3939 100.777C79.4039 100.434 78.9064 99.8797 78.9064 99.1257C78.9064 98.3717 79.3629 97.8536 80.276 97.4381C81.5651 96.9574 82.9387 96.7445 84.3129 96.8123C85.6369 96.8099 86.9563 96.9684 88.2421 97.2842C89.5626 97.624 90.8397 98.1146 92.0482 98.7461L93.7615 96.8226C91.2788 95.1401 88.2011 94.2988 84.5283 94.2988C81.7447 94.2988 79.6125 94.7622 78.1318 95.6889C77.4536 96.0633 76.8894 96.6143 76.4992 97.2836C76.1091 97.9528 75.9075 98.7153 75.9159 99.4899C75.8922 100.2 76.0701 100.903 76.4288 101.516C76.7908 102.08 77.3047 102.53 77.9113 102.814C78.692 103.183 79.5237 103.434 80.3786 103.558C81.3634 103.722 82.5124 103.855 83.8359 103.947C84.4632 103.991 85.0306 104.028 85.5588 104.062C86.1447 104.1 86.683 104.135 87.2008 104.173C88.0394 104.219 88.872 104.341 89.6886 104.537C90.2557 104.659 90.7842 104.918 91.2275 105.291C91.4074 105.478 91.546 105.701 91.6344 105.945C91.7227 106.189 91.7589 106.448 91.7404 106.707C91.7404 107.634 91.2121 108.369 90.1554 108.913C89.0987 109.457 87.5496 109.728 85.5081 109.728C84.0022 109.738 82.5021 109.539 81.0505 109.139C79.5796 108.713 78.1745 108.086 76.8751 107.277L75.3362 109.328C76.6312 110.345 78.1201 111.087 79.7117 111.508C81.6035 112.001 83.5533 112.236 85.5081 112.206C88.5619 112.206 90.877 111.71 92.4534 110.718C93.193 110.299 93.8046 109.687 94.223 108.947C94.6413 108.207 94.8506 107.367 94.8284 106.517C94.8592 105.882 94.7342 105.249 94.4642 104.673C94.1942 104.097 93.7874 103.596 93.2793 103.214Z" fill="#1D1D23"/>
<path d="M106.467 97.2945H98.3011V94.7195H117.465V97.2945H109.299V111.806H106.467V97.2945Z" fill="#1D1D23"/>
<path fill-rule="evenodd" clip-rule="evenodd" d="M137.921 94.7912C139.128 95.1589 140.261 95.7334 141.271 96.4891C142.353 97.2472 143.235 98.2576 143.839 99.4329C144.443 100.608 144.752 101.913 144.739 103.234C144.764 104.562 144.463 105.876 143.863 107.061C143.263 108.246 142.382 109.265 141.297 110.031C140.288 110.777 139.158 111.345 137.957 111.708C135.231 112.515 132.328 112.515 129.601 111.708C128.395 111.343 127.259 110.776 126.242 110.031C125.154 109.269 124.27 108.251 123.669 107.066C123.068 105.882 122.767 104.568 122.795 103.239C122.795 100.504 123.959 98.2536 126.288 96.4891C127.304 95.7383 128.44 95.1643 129.648 94.7912C132.345 93.9772 135.224 93.9772 137.921 94.7912ZM139.619 107.933C140.3 107.377 140.849 106.676 141.225 105.881C141.611 105.056 141.809 104.156 141.805 103.245C141.814 102.283 141.585 101.334 141.137 100.482C140.69 99.6308 140.038 98.9038 139.24 98.3665C138.504 97.8366 137.684 97.4358 136.814 97.1815C134.755 96.5936 132.571 96.615 130.525 97.2431C129.602 97.5314 128.741 97.9888 127.986 98.5922C127.293 99.1489 126.73 99.8489 126.334 100.644C125.94 101.452 125.738 102.34 125.744 103.239C125.733 104.152 125.928 105.055 126.313 105.881C126.688 106.68 127.241 107.381 127.929 107.933C128.683 108.53 129.543 108.981 130.463 109.262C131.542 109.588 132.665 109.747 133.792 109.733C134.914 109.748 136.032 109.588 137.106 109.262C138.02 108.982 138.873 108.531 139.619 107.933Z" fill="#1D1D23"/>
<path d="M155.336 97.7869L168.406 111.806H171.899V94.7195H169.068V108.738L156.018 94.7195H152.505V111.806H155.336V97.7869Z" fill="#1D1D23"/>
<path d="M198.583 102.696L205.806 94.7195H209.319L199.979 105.055V111.806H197.147V105.055L187.801 94.7195H191.32L198.583 102.696Z" fill="#1D1D23"/>
<path fill-rule="evenodd" clip-rule="evenodd" d="M243.107 97.1047C242.222 96.3201 241.187 95.7217 240.066 95.3452C238.765 94.912 237.4 94.7004 236.029 94.7194H225.226V111.806H236.572C237.761 111.814 238.943 111.618 240.066 111.226C241.127 110.851 242.105 110.27 242.943 109.518C243.827 108.772 244.532 107.838 245.01 106.785C245.487 105.732 245.724 104.585 245.703 103.429C245.72 102.2 245.492 100.979 245.031 99.8387C244.603 98.7947 243.945 97.8604 243.107 97.1047ZM242.2 105.727C241.919 106.419 241.504 107.049 240.979 107.579C240.456 108.108 239.829 108.522 239.137 108.795C238.39 109.092 237.592 109.24 236.788 109.231H228.057V97.2945H236.265C237.154 97.2816 238.039 97.4293 238.876 97.7305C239.621 98.0015 240.304 98.4222 240.881 98.9667C241.442 99.511 241.884 100.166 242.179 100.89C242.493 101.683 242.648 102.53 242.636 103.383C242.644 104.186 242.496 104.982 242.2 105.727Z" fill="#1D1D23"/>
<path fill-rule="evenodd" clip-rule="evenodd" d="M266.493 107.979H255.003L253.007 111.806H249.93L258.963 94.7195H262.523L271.551 111.801H268.473L266.493 107.979ZM265.087 105.415L260.758 97.1457L256.367 105.415H265.087Z" fill="#1D1D23"/>
<path d="M294.074 108.738L281.03 94.7195H277.511V111.806H280.343V97.7869L293.418 111.806H296.906V94.7195H294.074V108.738Z" fill="#1D1D23"/>
<path d="M305.334 94.7195H308.165V111.801H305.334V94.7195Z" fill="#1D1D23"/>
<path d="M319.63 104.23H329.637V101.66H319.63V97.2945H334.023V94.7195H316.798V111.806H334.685V109.231H319.63V104.23Z" fill="#1D1D23"/>
<path d="M341.41 94.7195H344.241V109.231H357.429V111.806H341.41V94.7195Z" fill="#1D1D23"/>
<path fill-rule="evenodd" clip-rule="evenodd" d="M374.962 94.7195H371.402L362.364 111.806H365.441L367.437 107.979H378.927L380.907 111.801H383.985L374.962 94.7195ZM368.827 105.415L373.192 97.156L377.537 105.415H368.827Z" fill="#1D1D23"/>
<path fill-rule="evenodd" clip-rule="evenodd" d="M139.106 128.307C139.674 128.494 140.198 128.794 140.645 129.19C141.059 129.569 141.382 130.038 141.589 130.559C141.817 131.132 141.93 131.744 141.923 132.36C141.93 132.938 141.811 133.51 141.574 134.037C141.333 134.562 140.984 135.029 140.548 135.407C140.127 135.776 139.64 136.062 139.112 136.248C138.55 136.444 137.958 136.542 137.362 136.535H131.72V127.984H137.106C137.786 127.979 138.462 128.089 139.106 128.307ZM139.589 134.427C139.849 134.16 140.054 133.844 140.194 133.499C140.343 133.118 140.416 132.712 140.409 132.303C140.415 131.878 140.337 131.456 140.178 131.062C140.036 130.708 139.823 130.387 139.553 130.118C139.256 129.844 138.907 129.633 138.527 129.498C138.109 129.348 137.668 129.275 137.224 129.282H133.12V135.253H137.496C137.898 135.258 138.297 135.183 138.67 135.032C139.015 134.897 139.328 134.691 139.589 134.427Z" fill="#1D1D23"/>
<path d="M151.263 132.75H156.265V131.462H151.263V129.282H158.46V127.995H149.848V136.535H158.794V135.253H151.263V132.75Z" fill="#1D1D23"/>
<path d="M171.828 131.462C172.67 131.52 173.485 131.788 174.197 132.242C174.455 132.436 174.66 132.691 174.794 132.984C174.928 133.276 174.988 133.598 174.967 133.919C174.978 134.344 174.874 134.764 174.665 135.135C174.457 135.505 174.151 135.812 173.782 136.022C172.992 136.515 171.833 136.761 170.304 136.761C169.329 136.776 168.356 136.661 167.411 136.417C166.615 136.203 165.87 135.832 165.221 135.325L166.001 134.299C166.65 134.704 167.352 135.017 168.088 135.227C168.814 135.43 169.566 135.53 170.32 135.525C171.115 135.569 171.91 135.43 172.643 135.12C172.868 135.033 173.063 134.883 173.204 134.687C173.344 134.491 173.424 134.258 173.433 134.017C173.442 133.887 173.423 133.756 173.377 133.634C173.331 133.512 173.259 133.401 173.166 133.309C172.946 133.119 172.681 132.989 172.397 132.929C171.988 132.831 171.571 132.77 171.151 132.745L169.468 132.632C168.806 132.586 168.252 132.524 167.739 132.442C167.313 132.376 166.899 132.25 166.508 132.068C166.204 131.928 165.945 131.703 165.765 131.421C165.588 131.109 165.503 130.754 165.518 130.395C165.513 130.008 165.614 129.627 165.809 129.293C166.004 128.958 166.287 128.683 166.626 128.497C167.608 127.967 168.718 127.72 169.832 127.784C171.463 127.729 173.073 128.169 174.449 129.046L173.587 130C172.982 129.682 172.342 129.438 171.679 129.272C171.036 129.112 170.376 129.033 169.714 129.036C169.028 129.001 168.342 129.107 167.698 129.349C167.242 129.554 167.016 129.811 167.016 130.19C167.016 130.57 167.247 130.842 167.76 131.016C168.014 131.107 168.277 131.169 168.545 131.201L168.651 131.214C168.909 131.247 169.187 131.283 169.489 131.283L170.591 131.344C170.981 131.37 171.397 131.411 171.828 131.462Z" fill="#1D1D23"/>
<path fill-rule="evenodd" clip-rule="evenodd" d="M191.735 129.19C191.287 128.796 190.763 128.496 190.196 128.307C189.547 128.09 188.865 127.984 188.181 127.995H182.764V136.535H188.442C189.036 136.541 189.626 136.444 190.186 136.248C190.716 136.062 191.205 135.776 191.628 135.407C192.062 135.027 192.412 134.561 192.654 134.037C192.888 133.509 193.007 132.937 193.002 132.36C193.011 131.743 192.896 131.131 192.664 130.559C192.459 130.04 192.142 129.572 191.735 129.19ZM191.279 133.499C191.143 133.845 190.939 134.161 190.679 134.427C190.415 134.69 190.101 134.896 189.755 135.032C189.384 135.183 188.986 135.258 188.586 135.253H184.205V129.282H188.309C188.752 129.276 189.194 129.349 189.612 129.498C189.984 129.634 190.324 129.846 190.612 130.118C190.878 130.387 191.086 130.709 191.222 131.062C191.381 131.456 191.459 131.878 191.453 132.303C191.465 132.711 191.397 133.117 191.253 133.499H191.279Z" fill="#1D1D23"/>
<path d="M207.329 132.75H202.328V135.253H209.853V136.535H200.912V127.995H209.524V129.282H202.328V131.462H207.329V132.75Z" fill="#1D1D23"/>
<path d="M225.59 128.774V130L226.96 129.41V136.535H228.376V127.984H226.97C226.571 128.342 226.101 128.612 225.59 128.774Z" fill="#1D1D23"/>
<path fill-rule="evenodd" clip-rule="evenodd" d="M244.4 131.355C244.102 131.692 243.711 131.935 243.277 132.052C243.87 132.179 244.418 132.464 244.862 132.878C245.026 133.044 245.156 133.241 245.245 133.458C245.333 133.674 245.377 133.906 245.375 134.14C245.379 134.528 245.274 134.909 245.071 135.24C244.867 135.57 244.574 135.836 244.226 136.007C242.051 136.903 239.609 136.903 237.434 136.007C237.084 135.84 236.789 135.578 236.582 135.25C236.375 134.922 236.265 134.543 236.265 134.155C236.263 133.921 236.307 133.69 236.395 133.473C236.483 133.257 236.613 133.06 236.778 132.893C237.215 132.477 237.758 132.186 238.347 132.052C237.911 131.935 237.519 131.692 237.219 131.355C236.966 131.055 236.83 130.674 236.834 130.282C236.831 129.926 236.924 129.575 237.105 129.268C237.286 128.961 237.547 128.709 237.86 128.538C238.763 128.06 239.78 127.84 240.799 127.902C241.825 127.841 242.849 128.061 243.759 128.538C244.072 128.709 244.333 128.961 244.514 129.268C244.694 129.575 244.788 129.926 244.785 130.282C244.789 130.674 244.653 131.055 244.4 131.355ZM240.825 129.164C239.117 129.164 238.26 129.539 238.26 130.298C238.271 130.498 238.34 130.691 238.46 130.853C238.579 131.014 238.743 131.137 238.932 131.206C240.166 131.644 241.514 131.644 242.748 131.206C242.931 131.132 243.089 131.007 243.203 130.846C243.316 130.685 243.381 130.495 243.39 130.298C243.39 129.539 242.533 129.164 240.825 129.164ZM240.82 135.391C241.607 135.434 242.394 135.315 243.133 135.043C243.35 134.972 243.54 134.835 243.675 134.651C243.81 134.467 243.884 134.245 243.887 134.017C243.887 133.107 242.861 132.652 240.809 132.652C238.758 132.652 237.732 133.107 237.732 134.017C237.735 134.247 237.812 134.47 237.95 134.654C238.088 134.839 238.281 134.975 238.501 135.043C239.243 135.314 240.031 135.432 240.82 135.391Z" fill="#1D1D23"/>
<path d="M251.228 129.282H258.152L252.597 136.535H254.223L259.794 129.282V127.995H251.228V129.282Z" fill="#1D1D23"/>
<path fill-rule="evenodd" clip-rule="evenodd" d="M272.592 131.375C273.039 131.495 273.464 131.687 273.849 131.944C274.181 132.169 274.456 132.47 274.649 132.822C274.833 133.152 274.931 133.525 274.931 133.904C274.938 134.303 274.846 134.698 274.664 135.053C274.481 135.405 274.213 135.707 273.885 135.93C273.503 136.196 273.075 136.389 272.623 136.499C271.374 136.797 270.068 136.762 268.837 136.397C268.268 136.221 267.743 135.926 267.298 135.53C266.88 135.15 266.554 134.68 266.344 134.155C266.115 133.576 266.002 132.957 266.011 132.334C266.009 131.868 266.079 131.405 266.216 130.959C266.353 130.534 266.56 130.134 266.826 129.775C267.272 129.18 267.854 128.701 268.524 128.379C269.238 128.037 270.02 127.862 270.812 127.866C271.538 127.857 272.258 127.993 272.93 128.266C273.556 128.523 274.115 128.917 274.567 129.421L273.541 130.252C273.223 129.893 272.826 129.614 272.382 129.436C271.892 129.243 271.369 129.147 270.843 129.154C270.189 129.137 269.544 129.305 268.981 129.636C268.517 129.901 268.127 130.279 267.847 130.734C267.591 131.148 267.456 131.626 267.457 132.114C267.449 132.199 267.449 132.285 267.457 132.37C267.461 132.404 267.468 132.438 267.475 132.474C267.487 132.529 267.498 132.585 267.498 132.642C268.436 131.738 269.675 131.214 270.976 131.17C271.522 131.163 272.065 131.232 272.592 131.375ZM272.823 134.971C273.028 134.86 273.204 134.701 273.336 134.509L273.295 134.489C273.417 134.337 273.491 134.154 273.51 133.96C273.511 133.741 273.446 133.527 273.325 133.345C273.198 133.135 273.022 132.959 272.812 132.832C272.563 132.679 272.292 132.566 272.007 132.498C271.663 132.417 271.31 132.378 270.956 132.38C270.349 132.378 269.75 132.52 269.208 132.795C268.667 133.07 268.199 133.469 267.842 133.96C268.355 134.914 269.381 135.391 270.92 135.391C271.285 135.393 271.65 135.356 272.007 135.279C272.293 135.216 272.567 135.112 272.823 134.971Z" fill="#1D1D23"/>
</g>
<defs>
<filter id="filter0_d_1089_13862" x="0" y="0" width="408" height="228" filterUnits="userSpaceOnUse" color-interpolation-filters="sRGB">
<feFlood flood-opacity="0" result="BackgroundImageFix"/>
<feColorMatrix in="SourceAlpha" type="matrix" values="0 0 0 0 0 0 0 0 0 0 0 0 0 0 0 0 0 0 127 0" result="hardAlpha"/>
<feOffset dy="4"/>
<feGaussianBlur stdDeviation="2"/>
<feComposite in2="hardAlpha" operator="out"/>
<feColorMatrix type="matrix" values="0 0 0 0 0 0 0 0 0 0 0 0 0 0 0 0 0 0 0.25 0"/>
<feBlend mode="normal" in2="BackgroundImageFix" result="effect1_dropShadow_1089_13862"/>
<feBlend mode="normal" in="SourceGraphic" in2="effect1_dropShadow_1089_13862" result="shape"/>
</filter>
</defs>
</svg>
