<svg width="400" height="220" viewBox="0 0 400 220" fill="none" xmlns="http://www.w3.org/2000/svg">
<path d="M173.245 131.407C174.261 130.357 175.167 129.206 175.948 127.972C176.838 126.87 177.479 125.589 177.826 124.215C177.826 123.666 177.551 123.391 177.048 123.391C176.865 123.391 176.687 123.442 176.533 123.54C176.379 123.637 176.255 123.776 176.177 123.941C175.459 125.416 174.567 126.8 173.52 128.063C171.596 130.354 169.947 131.453 168.619 131.453C167.29 131.453 167.061 130.445 167.061 128.43C167.16 125.673 167.497 122.929 168.069 120.23C169.214 115.329 170.085 111.801 170.726 109.603C170.726 108.916 170.176 108.503 168.71 108.412C168.214 108.287 167.695 108.287 167.199 108.412C165.895 109.236 164.934 110.506 164.496 111.985C163.902 110.828 162.994 109.861 161.876 109.197C160.758 108.533 159.475 108.197 158.174 108.228C155.655 108.281 153.199 109.026 151.074 110.381C148.316 112.17 146.111 114.692 144.707 117.665C143.631 119.765 143.051 122.085 143.012 124.444C143.012 124.994 143.012 125.498 143.012 126.002C142.588 126.693 142.114 127.351 141.592 127.972C139.439 130.354 137.698 131.545 136.278 131.545C135.944 131.592 135.605 131.592 135.27 131.545C134.446 131.27 134.034 130.308 134.034 128.567C134.219 125.631 134.741 122.726 135.591 119.909C136.553 116.245 137.561 112.534 138.614 108.87C139.689 104.737 140.424 100.524 140.813 96.2724C141.18 89.7676 139.301 86.0114 134.721 85.0952C134.173 85.0276 133.619 85.0276 133.072 85.0952C131.74 85.1837 130.44 85.5421 129.251 86.1484C128.062 86.7548 127.008 87.5965 126.155 88.6224C124.425 90.4597 122.89 92.4707 121.574 94.6233C120.932 95.5395 120.154 96.7763 119.283 98.3338C119.65 95.4937 119.879 93.3407 119.925 91.9664C119.925 85.9656 118.321 82.5299 114.519 81.6138C114.093 81.57 113.663 81.57 113.237 81.6138C109.48 81.6138 105.77 84.6371 102.105 90.7754C101.326 92.1039 100.41 93.7988 99.3567 95.7685C99.3567 95.0814 99.6315 94.5317 99.6774 94.1194C100.178 91.5063 100.454 88.8549 100.502 86.1946C100.889 83.873 100.551 81.4885 99.5351 79.3656C98.5187 77.2426 96.8729 75.4845 94.8217 74.3303C92.7433 73.4204 90.4938 72.9674 88.2253 73.0018C84.8751 73.0086 81.5701 73.7761 78.5597 75.2464C75.3241 76.7345 72.4955 78.9817 70.3143 81.797C67.5856 85.1551 66.0686 89.3349 66.0083 93.6614C65.8979 96.6315 66.8936 99.537 68.8026 101.815C69.6745 102.881 70.7822 103.73 72.0383 104.294C73.2943 104.858 74.6644 105.123 76.0403 105.068C77.4151 105.112 78.7786 104.807 80.004 104.182C81.2294 103.558 82.2769 102.633 83.049 101.495C84.2785 100.058 84.917 98.2077 84.8355 96.3182C84.8355 95.3104 84.4232 94.7607 83.9193 94.7149C83.5242 94.7585 83.1621 94.956 82.9115 95.2646C82.2018 96.0988 81.3161 96.7656 80.3182 97.217C79.3203 97.6685 78.2348 97.8934 77.1397 97.8757C76.3246 97.9062 75.5139 97.7437 74.7735 97.4014C74.0332 97.0591 73.3842 96.5467 72.8795 95.906C71.8401 94.6084 71.2889 92.9873 71.322 91.3251C71.3447 89.5614 71.6541 87.8131 72.2382 86.1488C73.2461 83.1969 75.1321 80.6236 77.6436 78.7737C79.9801 76.9591 82.8397 75.947 85.7975 75.8877C86.8538 75.8692 87.9061 76.0239 88.9124 76.3458C91.8441 77.3994 93.2642 80.5602 93.2642 85.9198C92.9734 91.4447 92.1916 96.9328 90.928 102.319C89.9202 107.266 88.6376 112.947 87.0343 119.36C85.431 125.773 84.3316 128.934 84.0109 130.4C83.7427 130.992 83.5873 131.629 83.5528 132.278C83.5528 133.056 83.9651 133.423 84.7897 133.423H90.3783C91.4319 133.423 92.119 132.507 92.3938 130.995L97.3869 106.259C102.884 91.3251 107.694 84.0416 111.817 84.0416C113.466 84.0416 114.29 85.6907 114.29 88.9431C113.696 95.4447 112.686 101.902 111.267 108.274C108.793 120.978 107.129 128.735 106.274 131.545C106.233 131.833 106.233 132.126 106.274 132.415C106.274 133.194 106.778 133.652 107.877 133.835H110.213H112.549C112.766 133.848 112.983 133.817 113.188 133.745C113.393 133.674 113.581 133.562 113.743 133.418C113.905 133.273 114.036 133.098 114.13 132.902C114.224 132.707 114.278 132.494 114.29 132.278C115.252 126.46 116.168 120.963 116.993 115.833C117.451 113.359 118.001 109.969 118.642 105.801C119.747 103.114 120.985 100.484 122.352 97.9215C123.825 95.4546 125.495 93.1107 127.346 90.9129C129.453 88.5766 131.102 87.3856 132.339 87.3856C133.575 87.3856 134.812 88.6224 134.812 90.7754C134.698 92.7098 134.391 94.628 133.896 96.5015C132.98 100.395 132.018 104.289 131.102 108.183C129.944 112.482 129.102 116.861 128.582 121.284C128.582 122.2 128.582 123.116 128.582 123.941C128.582 130.033 130.369 133.515 133.942 134.293H135.408C137.961 134.201 140.377 133.117 142.142 131.27C142.829 130.579 143.472 129.844 144.066 129.071C144.403 129.849 144.85 130.574 145.394 131.224C146.115 132.132 147.035 132.861 148.084 133.353C149.133 133.846 150.282 134.089 151.441 134.064C153.534 134.032 155.582 133.452 157.382 132.384C159.182 131.315 160.671 129.794 161.702 127.972C162.206 131.682 163.809 133.744 166.557 134.11C167.806 134.213 169.061 134.023 170.223 133.553C171.384 133.084 172.419 132.349 173.245 131.407ZM161.793 122.795C161.519 123.345 161.289 123.895 161.015 124.399C158.358 129.392 155.609 131.865 152.678 131.865C152.297 131.913 151.913 131.913 151.532 131.865C150.204 131.453 149.563 130.125 149.563 127.926C149.667 125.654 150.067 123.406 150.754 121.238C152.586 114.367 155.334 110.931 158.541 110.931H159.824C161.931 111.527 163.03 113.267 163.213 116.107C162.585 118.301 162.11 120.536 161.793 122.795Z" fill="#1D1D23"/>
<path d="M187.034 100.12C187.543 100.111 188.044 99.9911 188.503 99.7697C188.961 99.5483 189.367 99.2302 189.691 98.8372C190.373 98.0131 190.746 96.9758 190.744 95.9055C190.778 94.951 190.45 94.0188 189.828 93.2944C189.544 92.924 189.175 92.6268 188.753 92.4276C188.331 92.2284 187.867 92.133 187.4 92.1492C186.896 92.1492 186.398 92.2648 185.946 92.4871C185.493 92.7095 185.097 93.0327 184.789 93.4319C184.106 94.256 183.733 95.2933 183.735 96.3636C183.73 97.2997 184.054 98.2079 184.652 98.9289C184.924 99.3041 185.282 99.6082 185.697 99.8156C186.112 100.023 186.57 100.127 187.034 100.12Z" fill="#1D1D23"/>
<path d="M229.91 100.487C230.411 100.496 230.908 100.389 231.361 100.174C231.814 99.9596 232.211 99.6433 232.521 99.2499C233.215 98.4502 233.59 97.4228 233.575 96.364C233.594 95.4473 233.285 94.5538 232.704 93.8445C232.42 93.4888 232.057 93.2043 231.643 93.0135C231.23 92.8227 230.778 92.7308 230.322 92.7451C229.818 92.745 229.32 92.8606 228.868 93.083C228.415 93.3053 228.02 93.6285 227.711 94.0277C227.035 94.8015 226.66 95.794 226.658 96.822C226.652 97.7582 226.977 98.6664 227.574 99.3873C227.856 99.7342 228.212 100.013 228.617 100.203C229.021 100.394 229.463 100.491 229.91 100.487Z" fill="#1D1D23"/>
<path d="M333.574 123.391C332.933 122.979 332.475 123.162 332.154 123.941C331.297 125.737 330.169 127.39 328.81 128.843C326.825 131.102 325.298 132.064 324.229 131.728C323.588 131.499 323.542 130.079 324.229 127.148C325.558 119.131 326.245 115.054 326.245 114.825C326.307 113.166 325.771 111.54 324.733 110.244C324.298 109.633 323.72 109.138 323.049 108.803C322.378 108.467 321.635 108.302 320.885 108.32C318.366 108.32 315.663 110.428 312.686 114.55C311.014 117.2 309.485 119.937 308.105 122.75C308.105 123.208 307.555 123.437 307.28 123.346C307.005 123.254 306.776 122.979 306.96 122.338C308.059 117.161 308.929 113.176 309.662 110.382C309.937 109.328 309.204 108.733 307.509 108.641C306.321 108.535 305.137 108.896 304.211 109.649C302.53 112.85 301.591 116.388 301.463 120.002C301.463 121.696 301.142 123.208 301.005 124.582C300.355 125.853 299.572 127.051 298.668 128.155C296.744 130.446 295.095 131.545 293.767 131.545C292.438 131.545 292.209 130.537 292.209 128.522C292.308 125.765 292.645 123.021 293.217 120.322C294.362 115.421 295.233 111.893 295.874 109.695C295.874 109.008 295.37 108.595 293.859 108.504C293.362 108.38 292.843 108.38 292.347 108.504C291.043 109.328 290.082 110.598 289.644 112.077C289.05 110.92 288.142 109.953 287.024 109.289C285.906 108.625 284.623 108.289 283.323 108.32C280.817 108.368 278.373 109.113 276.268 110.473C273.496 112.259 271.276 114.781 269.855 117.757C268.779 119.858 268.199 122.177 268.16 124.537C268.09 125.268 268.09 126.004 268.16 126.735L267.152 128.11C266.531 128.926 265.754 129.61 264.865 130.121C263.976 130.632 262.994 130.961 261.976 131.087C261.627 131.149 261.271 131.149 260.922 131.087C259.777 130.766 259.182 128.018 259.182 122.75C259.182 121.238 259.182 119.635 259.182 117.849C261.546 114.824 263.602 111.571 265.32 108.137C266.967 105.214 268.347 102.147 269.443 98.9756C270.991 94.6725 271.901 90.1661 272.145 85.5995C272.145 81.2478 270.954 78.9115 268.618 78.5451C262.984 77.8121 258.403 86.7447 254.601 105.938C253.604 110.655 253.067 115.456 252.998 120.276C252.998 122.017 252.998 123.529 252.998 124.857C251.577 126.919 250.799 128.064 250.661 128.201C250.046 129.012 249.275 129.693 248.394 130.204C247.514 130.715 246.54 131.047 245.531 131.179C245.167 131.245 244.795 131.245 244.431 131.179C243.286 130.858 242.691 128.11 242.691 122.842C242.691 121.33 242.691 119.727 242.691 117.94C245.219 114.917 247.416 111.63 249.241 108.137C250.889 105.214 252.269 102.147 253.364 98.9756C254.728 94.6909 255.468 90.2324 255.563 85.737C255.563 81.3852 254.372 79.049 252.036 78.6825C246.813 77.9496 242.187 87.0654 238.293 106.167C237.296 110.884 236.759 115.686 236.69 120.505C236.69 121.834 236.69 123.025 236.69 124.17C235.934 125.849 234.913 127.396 233.666 128.751C233.109 129.557 232.389 130.239 231.553 130.752C230.716 131.264 229.783 131.597 228.811 131.728C227.757 131.728 227.208 130.812 227.208 129.072C227.382 126.283 227.765 123.512 228.353 120.78C228.353 120.047 228.857 118.215 229.59 115.237C230.052 113.748 230.344 112.212 230.46 110.657C230.46 109.374 229.635 108.687 228.032 108.595C227.531 108.553 227.028 108.641 226.571 108.849C226.114 109.058 225.718 109.381 225.421 109.786C223.654 113.227 222.492 116.946 221.985 120.78C221.851 121.553 221.759 122.333 221.711 123.117C220.859 123.69 219.913 124.108 218.916 124.353C217.315 124.858 215.61 124.937 213.969 124.582C215.32 121.632 216.053 118.436 216.122 115.192C216.122 110.611 214.61 108.504 211.541 108.595C210.751 108.636 209.988 108.898 209.34 109.352C208.692 109.805 208.185 110.432 207.876 111.161C206.96 112.928 206.503 114.897 206.548 116.887C206.515 118.449 206.779 120.004 207.327 121.467C208.034 123.469 209.497 125.114 211.404 126.048C210.249 127.907 208.681 129.474 206.823 130.629C205.509 131.616 203.88 132.088 202.242 131.958C200.364 131.591 199.448 129.667 199.448 126.231C199.475 124.3 199.628 122.372 199.906 120.46C200.776 115.192 201.417 111.893 201.83 110.519C202.242 109.145 201.28 108.962 199.494 108.962C198.666 108.918 197.847 109.143 197.157 109.603C196.306 110.648 195.696 111.868 195.371 113.176C194.817 115.525 194.449 117.915 194.271 120.322C194.059 121.98 194.059 123.658 194.271 125.315L193.767 126.048C193.115 127.04 192.38 127.975 191.569 128.843C189.978 130.291 188.226 131.552 186.347 132.599C187.629 124.628 188.408 118.856 188.774 114.596C189.095 112.306 189.232 111.069 189.232 110.932C189.288 110.532 189.242 110.125 189.098 109.749C188.954 109.372 188.716 109.038 188.408 108.779C187.88 108.466 187.281 108.292 186.667 108.275C184.194 108.275 181.582 110.702 178.88 115.512C178.823 115.722 178.823 115.944 178.88 116.154C178.88 116.658 179.2 116.932 179.888 116.932C180.159 116.83 180.386 116.636 180.529 116.383C180.687 116.174 180.81 115.943 180.895 115.696C181.308 115.008 181.674 114.688 181.949 114.688C182.224 114.688 182.27 114.917 182.178 115.467C181.857 122.155 181.184 128.821 180.162 135.439C174.293 138.27 169.329 142.68 165.824 148.174C164.615 150.047 163.949 152.22 163.9 154.449C163.768 155.779 164.09 157.114 164.813 158.237C165.537 159.36 166.62 160.205 167.886 160.633C168.643 160.867 169.43 160.99 170.222 161C172.332 160.934 174.355 160.141 175.948 158.755C177.682 157.272 179.113 155.468 180.162 153.442C182.592 147.383 184.388 141.089 185.522 134.66C187.467 133.834 189.286 132.739 190.927 131.408C192.187 130.286 193.366 129.077 194.455 127.789C194.798 128.952 195.358 130.04 196.104 130.996C196.763 131.934 197.642 132.696 198.665 133.215C199.687 133.734 200.821 133.994 201.967 133.973C204.384 133.922 206.733 133.167 208.727 131.8C210.721 130.433 212.272 128.513 213.19 126.277C215.105 126.712 217.093 126.712 219.008 126.277C219.891 126.061 220.739 125.722 221.527 125.269C221.49 127.313 221.979 129.333 222.947 131.133C223.305 131.856 223.827 132.485 224.472 132.97C225.116 133.455 225.864 133.783 226.658 133.927C227.972 134.046 229.295 133.868 230.532 133.409C231.768 132.949 232.886 132.218 233.804 131.27C235.135 130.029 236.25 128.573 237.102 126.964C237.881 131.087 239.53 133.469 242.049 133.973C242.597 134.035 243.151 134.035 243.698 133.973C246.371 133.876 248.914 132.8 250.845 130.95C251.946 130.072 252.945 129.073 253.822 127.972C254.692 131.499 256.25 133.561 258.403 134.019C258.951 134.081 259.504 134.081 260.052 134.019C262.724 133.922 265.267 132.846 267.198 130.996C267.811 130.398 268.377 129.755 268.893 129.072C269.239 129.792 269.67 130.469 270.176 131.087C270.903 131.998 271.832 132.729 272.889 133.222C273.946 133.714 275.102 133.956 276.268 133.927C278.389 133.958 280.479 133.423 282.323 132.376C284.167 131.329 285.698 129.809 286.758 127.972C287.262 131.683 288.865 133.744 291.614 134.11C292.852 134.234 294.101 134.067 295.262 133.621C296.424 133.176 297.465 132.465 298.302 131.545C299.115 130.724 299.836 129.818 300.455 128.843C300.455 130.354 300.455 131.637 300.18 132.553C300.154 132.692 300.157 132.836 300.19 132.974C300.223 133.112 300.285 133.241 300.372 133.353C300.458 133.466 300.567 133.559 300.692 133.626C300.817 133.693 300.955 133.734 301.096 133.744H303.112C304.898 133.744 305.86 133.332 306.089 132.507C307.441 127.699 309.396 123.082 311.907 118.765C313.118 116.596 314.664 114.633 316.488 112.947C317.999 111.573 319.145 111.023 319.832 111.206C320.519 111.39 320.84 112.581 320.336 114.505C319.374 118.719 318.458 122.567 317.633 126.002C317.586 126.505 317.586 127.011 317.633 127.514C317.622 129.188 318.206 130.812 319.282 132.095C319.785 132.741 320.432 133.261 321.172 133.611C321.912 133.961 322.724 134.132 323.542 134.11C325.867 133.875 328.013 132.761 329.543 130.996C331.362 129.277 332.785 127.182 333.712 124.857C334.032 124.17 333.987 123.666 333.574 123.391ZM260.785 105.343C261.516 99.6057 262.649 93.9268 264.175 88.348C265.732 82.851 267.106 80.2858 268.343 80.6522C269.58 81.0187 270.038 82.622 270.038 85.5995C269.882 89.8878 269.047 94.1243 267.565 98.151C265.884 103.745 263.182 108.979 259.594 113.588C260.006 110.794 260.373 108.046 260.785 105.343ZM244.66 105.343C245.392 99.6057 246.524 93.9268 248.05 88.348C249.608 82.851 250.982 80.2858 252.219 80.6522C253.456 81.0187 253.822 82.622 253.822 85.5995C253.71 89.8804 252.922 94.1166 251.486 98.151C249.801 103.734 247.116 108.965 243.561 113.588C243.653 110.794 244.019 108.046 244.66 105.343ZM175.948 151.792C174.436 156.373 172.375 158.893 169.718 158.893C167.061 158.893 166.42 157.564 166.42 154.862C166.481 153.282 166.838 151.728 167.474 150.281C169.812 144.737 174.097 140.24 179.521 137.638C178.585 142.417 177.392 147.142 175.948 151.792ZM212.595 123.941C211.323 123.321 210.269 122.331 209.571 121.101C208.965 119.813 208.667 118.401 208.701 116.978C208.701 114.688 209.434 113.359 210.946 113.13C212.457 112.901 214.015 114.23 214.015 117.711C213.98 119.864 213.496 121.986 212.595 123.941ZM287.033 122.796C286.758 123.346 286.529 123.895 286.254 124.399C283.597 129.392 280.849 131.866 277.917 131.866C277.537 131.914 277.152 131.914 276.772 131.866C275.444 131.454 274.802 130.125 274.802 127.926C274.906 125.655 275.307 123.406 275.993 121.238C277.871 114.367 280.574 110.932 283.781 110.932H285.109C287.171 111.527 288.27 113.268 288.453 116.108C287.763 118.297 287.227 120.532 286.85 122.796H287.033Z" fill="#1D1D23"/>
</svg>
