<svg width="400" height="220" viewBox="0 0 400 220" fill="none" xmlns="http://www.w3.org/2000/svg">
<path d="M160.505 130.294L164.952 115.724H179.769L184.217 130.294H186.286L172.371 84.5172L158.435 130.294H160.505ZM50 130.23H51.8438L51.8488 95.1282L65.9784 130.214L79.5859 95.1282L79.5725 130.214H81.3979V85.1898L65.9968 124.977L50 85.1229L50 130.23ZM179.073 113.387H165.67L172.371 91.285L179.073 113.387ZM86.5478 130.155L90.1634 119.907H101.7L105.314 130.155H107.263L95.9725 98.0478L84.5986 130.155H86.5478ZM242.149 130.155L245.764 119.907H257.299L260.914 130.155H262.864L251.572 98.0478L240.199 130.155H242.149ZM290.46 131V99.0433H288.713V126.131L266.009 98.6585V130.214H267.756V103.628L290.46 131ZM198.922 130.145V128.273H192.057V98.9747H190.31V130.145H198.922ZM129.151 130.16V116.121L129.8 115.371L142.514 130.16H145.072L131.018 114.014L144.259 98.9931H141.863V98.9897L129.151 113.497V98.9897H127.404V130.16H129.151ZM300.777 130.16C305.001 130.16 308.088 128.85 310.687 125.855C313.246 122.905 314.667 118.928 314.667 114.577C314.667 110.225 313.246 106.246 310.687 103.298C308.175 100.403 305.244 99.0823 301.199 98.9975L300.777 98.9931H295.456V130.16H300.777ZM222.038 130.16L228.456 116.355L234.954 130.16H236.945L229.471 114.249L236.539 98.9931H234.548L228.456 112.095L222.322 98.9931H220.333L227.44 114.249L220.088 130.16H222.038ZM338.383 130.281V115.54H339.155L347.889 130.281H350V130.277L341.186 115.537L342.044 115.487L342.502 115.451C343.065 115.401 343.454 115.333 343.915 115.2L344.278 115.088C344.342 115.067 344.408 115.045 344.477 115.022C347.157 114.086 348.904 111.09 348.904 107.347C348.904 104.493 347.929 102.105 346.182 100.654C344.866 99.5853 343.367 99.1519 340.842 99.1131L340.455 99.1102H336.637V130.281H338.383ZM111.842 130.281V115.54H112.613L121.345 130.281H123.459V130.277L114.645 115.537L115.503 115.487L115.961 115.451C116.523 115.401 116.913 115.333 117.373 115.2L117.736 115.088C117.8 115.067 117.865 115.045 117.934 115.022C120.616 114.086 122.361 111.09 122.361 107.347C122.361 104.493 121.387 102.105 119.641 100.654C118.324 99.5853 116.826 99.1519 114.3 99.1131L113.913 99.1102H110.095V130.281H111.842ZM331.555 130.296V128.423H320.386V114.15H331.311V112.326H320.386V100.997H331.555V99.1253H318.599V130.296H331.555ZM216.11 130.296V128.423H204.94V114.15L215.867 114.15V112.326L204.94 112.326V100.997L216.11 100.997V99.1253L203.153 99.1253V130.296H216.11ZM300.736 128.343H297.203V100.87H300.736C307.844 100.87 312.88 106.532 312.88 114.582C312.88 122.503 308.003 128.158 301.073 128.335L300.736 128.34V128.343ZM340.943 113.715H338.383V100.986H340.577C342.364 100.986 343.664 101.267 344.72 101.923C346.182 102.811 347.116 104.918 347.116 107.35C347.116 111.276 344.99 113.6 341.229 113.711L340.943 113.715ZM114.4 113.715H111.842V100.986H114.036C115.822 100.986 117.123 101.267 118.178 101.923C119.641 102.811 120.574 104.918 120.574 107.35C120.574 111.276 118.448 113.6 114.686 113.711L114.4 113.715ZM101.049 118.035H90.8143L95.9725 103.295L101.049 118.035ZM256.65 118.035H246.413L251.572 103.295L256.65 118.035Z" fill="#1D1D23"/>
</svg>
