<svg width="400" height="220" viewBox="0 0 400 220" fill="none" xmlns="http://www.w3.org/2000/svg">
<path fill-rule="evenodd" clip-rule="evenodd" d="M286.717 95.9911C286.353 95.9911 286.186 95.8242 286.186 95.5055C286.186 95.1868 286.672 94.7164 287.704 94.5798L288.736 94.2915C289.171 94.1599 289.747 93.9475 290.466 93.6541L293.182 92.3339C293.315 92.2306 293.464 92.1487 293.622 92.0911L293.91 92C294.108 92 294.214 92.1518 294.259 92.4401L294.153 94.6253V111.318L294.441 110.984C295.204 110.053 296.183 109.323 297.294 108.86C298.439 108.318 299.686 108.028 300.952 108.01C302.145 107.97 303.331 108.199 304.424 108.68C305.517 109.161 306.488 109.881 307.265 110.787C308.954 112.827 309.82 115.425 309.693 118.071C309.772 121.205 308.692 124.259 306.658 126.645C305.779 127.733 304.667 128.61 303.403 129.209C302.139 129.808 300.757 130.114 299.358 130.105C298.005 130.106 296.661 129.88 295.382 129.437C294.344 129.166 293.403 128.608 292.666 127.829C292.408 127.51 292.196 127.343 292.029 127.343L291.831 127.586L290.314 129.619C290.247 129.761 290.142 129.881 290.01 129.967C289.879 130.053 289.727 130.1 289.57 130.105C289.504 130.115 289.436 130.11 289.373 130.089C289.309 130.068 289.251 130.033 289.204 129.986C289.157 129.938 289.121 129.88 289.1 129.817C289.08 129.753 289.074 129.686 289.085 129.619V129.437L289.176 129.043L289.282 127.965C289.282 127.657 289.312 127.318 289.345 126.951L289.345 126.948C289.374 126.63 289.404 126.291 289.418 125.932C289.439 125.404 289.432 124.891 289.425 124.421C289.422 124.201 289.418 123.99 289.418 123.792V99.5117C289.418 97.3113 288.766 96.2035 287.446 96.2035L286.717 95.9911ZM298.857 110.559C298.212 110.526 297.567 110.631 296.965 110.866C296.363 111.102 295.819 111.463 295.367 111.925C294.464 112.934 293.995 114.26 294.062 115.613V122.684C293.957 124.251 294.432 125.801 295.397 127.04C295.876 127.561 296.465 127.968 297.122 128.23C297.778 128.493 298.486 128.605 299.191 128.557C300.063 128.574 300.925 128.375 301.701 127.978C302.476 127.581 303.142 126.998 303.638 126.281C304.838 124.491 305.433 122.364 305.337 120.211C305.453 117.76 304.823 115.331 303.531 113.245C303.055 112.435 302.377 111.762 301.563 111.291C300.749 110.82 299.828 110.568 298.888 110.559H298.857Z" fill="#1D1D23"/>
<path d="M161.476 112.456C161.272 107.497 163.027 102.656 166.363 98.9806C167.96 97.265 169.907 95.9114 172.072 95.0109C174.237 94.1105 176.569 93.6841 178.912 93.7604C180.557 93.7264 182.197 93.957 183.769 94.4433C184.376 94.6709 185.165 95.0047 186.121 95.4296C187.077 95.8546 187.942 96.325 188.716 96.7651C189.13 97.0255 189.596 97.1913 190.081 97.2507C190.237 97.2611 190.393 97.2267 190.53 97.1514C190.668 97.0761 190.78 96.9631 190.855 96.8258L191.144 96.3402L191.493 96.2339C191.902 96.2339 192.115 96.6437 192.115 97.4479L192.267 100.483C192.388 101.495 192.494 102.269 192.585 102.805C192.585 103.258 192.674 103.562 192.724 103.735C192.736 103.776 192.746 103.81 192.752 103.837L192.889 104.656C192.889 105.142 192.722 105.385 192.358 105.385C191.993 105.385 191.66 105.036 191.417 104.338C190.98 103.329 190.408 102.385 189.717 101.53C188.961 100.462 188.102 99.471 187.153 98.5709C186.048 97.5839 184.773 96.8073 183.389 96.2795C182.018 95.7506 180.564 95.473 179.095 95.46C177.4 95.4109 175.717 95.7682 174.189 96.5021C172.66 97.2361 171.33 98.3253 170.308 99.6787C167.954 102.878 166.77 106.789 166.954 110.757C166.794 115.071 168.135 119.308 170.748 122.745C171.858 124.247 173.309 125.463 174.982 126.291C176.656 127.12 178.502 127.538 180.369 127.51C181.394 127.516 182.415 127.383 183.404 127.116C184.422 126.854 185.412 126.499 186.363 126.053C187.943 125.376 189.342 124.336 190.446 123.018L192.236 120.105C192.428 119.74 192.656 119.558 192.919 119.558C193.283 119.558 193.45 119.74 193.45 120.105L193.359 120.833L192.919 122.35C192.776 122.952 192.583 123.541 192.343 124.111C192.137 124.512 191.853 124.868 191.508 125.158C187.991 128.447 183.315 130.209 178.503 130.06C176.232 130.151 173.967 129.765 171.855 128.925C169.743 128.086 167.83 126.813 166.241 125.188C164.641 123.489 163.396 121.488 162.578 119.302C161.759 117.116 161.385 114.789 161.476 112.456Z" fill="#1D1D23"/>
<path d="M49.1036 123.352V102.501L49.4071 102.896L71.5933 129.012C72.0789 129.619 72.4886 129.923 72.8073 129.923C73.1259 129.923 73.3384 129.847 73.4295 129.68C73.5593 129.39 73.6116 129.071 73.5812 128.754V100.286C73.5143 99.0892 73.6424 97.8899 73.9606 96.7346C74.0804 96.4275 74.2884 96.1627 74.5585 95.9737C74.8286 95.7846 75.1485 95.6798 75.4781 95.6723C76.1762 95.6723 76.5404 95.5813 76.5404 95.035C76.5404 94.4887 76.1458 94.2155 75.3719 94.2155H73.8544L71.8664 94.5039L68.9983 94.2155H67.4808C66.7068 94.2155 66.3123 94.4735 66.3123 94.9895C66.3123 95.4447 66.7827 95.6723 67.7236 95.6723C68.2753 95.6065 68.8345 95.6934 69.3403 95.9235C69.846 96.1536 70.2789 96.5182 70.5917 96.9774C70.8433 97.45 71.0078 97.9641 71.0773 98.4949C71.196 99.1053 71.262 99.7247 71.2746 100.346V120.696L70.9711 120.271L50.439 95.4751L49.7561 94.519L49.3312 94.261H48.6938L46.0685 94.5494C45.2787 94.5906 44.4877 94.493 43.7315 94.261H42.214C41.4097 94.261 41 94.519 41 95.035C41 95.1271 41.022 95.2179 41.0642 95.2997C41.1065 95.3816 41.1677 95.4521 41.2428 95.5054C41.4047 95.639 41.6097 95.7091 41.8195 95.7027H42.5175C43.2251 95.8061 43.8912 96.0998 44.4448 96.5525L45.2187 97.2961C45.4612 97.5555 45.6749 97.8405 45.8561 98.1459L46.539 99.284C46.7127 99.6194 46.8404 99.9767 46.9183 100.346V123.352C47.0089 124.565 46.8113 125.781 46.3417 126.903C46.1346 127.261 45.8276 127.551 45.4583 127.737C45.0891 127.923 44.6735 127.997 44.2627 127.95C43.4129 127.95 42.988 128.117 42.988 128.633C42.988 129.149 43.3825 129.407 44.1564 129.407H45.674L48.5876 129.21L51.1978 129.407H52.609C53.4133 129.407 53.8231 129.149 53.8231 128.633C53.8231 128.178 53.3678 127.95 52.4573 127.95C51.8589 127.978 51.2621 127.869 50.7121 127.631C50.2891 127.423 49.9358 127.096 49.6954 126.691C49.2488 125.637 49.0465 124.495 49.1036 123.352Z" fill="#1D1D23"/>
<path d="M83.0506 114.641V123.959H83.1113V125.674C83.1644 126.35 83.0659 127.029 82.8229 127.662C82.7042 127.857 82.5402 128.021 82.3448 128.14C82.1493 128.259 81.9282 128.329 81.7 128.345C81.2447 128.375 81.0323 128.557 81.0323 128.876C81.0323 129.301 81.3206 129.513 81.8972 129.513H82.8078C83.3809 129.379 83.965 129.298 84.5529 129.27H87.2389C87.814 129.292 88.3869 129.353 88.9537 129.452H89.9098C90.4561 129.452 90.7444 129.179 90.7444 128.845C90.7444 128.511 90.4561 128.329 89.9098 128.329C89.5612 128.373 89.2071 128.328 88.8807 128.198C88.5543 128.068 88.2662 127.857 88.0432 127.586C87.6538 126.721 87.5019 125.767 87.6031 124.824V107.691C87.5905 107.623 87.5637 107.558 87.5245 107.5C87.4853 107.443 87.4346 107.394 87.3755 107.357L87.0265 107.479L86.6016 107.645C86.2222 107.873 85.7821 108.101 85.2813 108.344C84.8416 108.566 84.3849 108.754 83.9156 108.905L81.2295 109.922C80.1976 110.058 79.712 110.438 79.712 110.802C79.712 111.166 79.9093 111.333 80.3038 111.333H81.0323C81.3349 111.334 81.6324 111.411 81.8976 111.557C82.1628 111.702 82.387 111.913 82.5498 112.168C82.9625 112.923 83.137 113.785 83.0506 114.641Z" fill="#1D1D23"/>
<path d="M82.6712 96.5524L81.4572 98.768L82.7167 100.923C82.8609 101.317 83.1173 101.661 83.4543 101.912C83.7913 102.163 84.1943 102.309 84.6136 102.334C85.0339 102.263 85.4352 102.106 85.7927 101.874C86.1503 101.642 86.4565 101.339 86.6926 100.984C87.3192 100.384 87.73 99.5947 87.8611 98.7376C87.85 98.3076 87.7386 97.886 87.5357 97.5066C87.3328 97.1272 87.0441 96.8005 86.6926 96.5524C86.0645 96.0218 85.3646 95.5824 84.6136 95.2473C84.1994 95.2583 83.7969 95.3869 83.453 95.6179C83.1091 95.849 82.8379 96.1731 82.6712 96.5524Z" fill="#1D1D23"/>
<path d="M96.7538 123.671V114.566C96.7538 112.365 96.0709 111.257 94.7203 111.257H93.9919C93.5974 111.257 93.4001 111.075 93.4001 110.726C93.4001 110.377 93.8857 109.983 94.8417 109.846L97.5429 108.829C98.5291 108.526 99.4725 108.097 100.35 107.555C100.467 107.471 100.595 107.405 100.73 107.357L101.064 107.266C101.231 107.266 101.306 107.388 101.306 107.6V111.789L101.504 111.606L101.792 111.212C102.581 110.195 103.63 109.408 104.827 108.936C106.088 108.314 107.473 107.982 108.879 107.964C110.067 107.95 111.242 108.215 112.308 108.738C113.288 109.207 114.111 109.95 114.676 110.878C115.133 111.68 115.456 112.552 115.632 113.458C115.854 114.745 115.951 116.052 115.92 117.358V124.794C115.843 125.744 116.021 126.698 116.436 127.556C116.685 127.836 117 128.051 117.352 128.181C117.704 128.311 118.083 128.351 118.454 128.299C119.031 128.299 119.319 128.481 119.319 128.815C119.319 129.149 119.046 129.422 118.5 129.422H117.483C117.028 129.346 116.497 129.286 115.966 129.24C115.61 129.21 115.207 129.22 114.811 129.23C114.616 129.235 114.421 129.24 114.236 129.24H112.9C112.227 129.261 111.556 129.342 110.897 129.483H110.017C109.44 129.483 109.137 129.27 109.137 128.846C109.137 128.421 109.349 128.345 109.759 128.314C110.028 128.284 110.285 128.19 110.51 128.039C110.734 127.889 110.919 127.687 111.049 127.449C111.317 126.602 111.425 125.711 111.368 124.824V117.464C111.368 112.861 109.754 110.559 106.527 110.559C105.638 110.592 104.768 110.823 103.981 111.235C103.193 111.647 102.507 112.231 101.974 112.942C101.525 113.543 101.314 114.289 101.382 115.036V124.824C101.312 125.764 101.506 126.705 101.944 127.54C102.19 127.827 102.503 128.049 102.854 128.187C103.206 128.324 103.587 128.373 103.962 128.33C104.569 128.33 104.888 128.512 104.888 128.846C104.888 129.179 104.569 129.453 103.962 129.453H103.082C102.02 129.301 101.246 129.21 100.76 129.195H99.5916C99.0508 129.165 98.5087 129.165 97.9678 129.195C97.5935 129.195 96.9865 129.27 96.1468 129.422H95.2211C94.6293 129.422 94.341 129.21 94.341 128.785C94.341 128.36 94.6445 128.269 95.2515 128.208C95.5069 128.201 95.7557 128.126 95.972 127.989C96.1882 127.853 96.3639 127.662 96.4807 127.434C96.7728 126.576 96.8914 125.668 96.8297 124.763L96.7538 123.671Z" fill="#1D1D23"/>
<path fill-rule="evenodd" clip-rule="evenodd" d="M134.768 127.222L134.874 127.07L134.95 127.707L135.086 127.996L135.451 128.572C135.883 129.06 136.424 129.438 137.031 129.676C137.638 129.913 138.293 130.003 138.941 129.938C140.198 129.967 141.427 129.572 142.431 128.815C142.57 128.71 142.687 128.578 142.773 128.427C142.859 128.275 142.913 128.108 142.932 127.935C142.932 127.616 142.795 127.464 142.537 127.464H142.052C141.762 127.647 141.422 127.732 141.081 127.707C139.73 127.707 139.047 126.751 139.047 124.839V113.276C139.07 112.509 138.988 111.744 138.804 110.999C138.623 110.457 138.304 109.971 137.879 109.588C136.364 108.322 134.415 107.696 132.446 107.843C130.24 107.756 128.063 108.367 126.224 109.588C125.471 110.054 124.849 110.704 124.416 111.476C123.984 112.249 123.754 113.119 123.75 114.004C123.722 114.204 123.75 114.407 123.83 114.592C123.911 114.777 124.041 114.936 124.206 115.051C124.753 115.278 125.346 115.372 125.936 115.324C126.588 115.35 127.24 115.294 127.878 115.157C128.031 115.126 128.167 115.041 128.264 114.919C128.361 114.797 128.413 114.645 128.409 114.49L128.212 113.822C128.011 113.294 127.913 112.733 127.924 112.168C127.917 111.812 127.992 111.46 128.145 111.138C128.298 110.817 128.523 110.536 128.804 110.316C129.457 109.81 130.269 109.552 131.095 109.588C133.447 109.588 134.631 111.03 134.631 113.913V116.66C134.64 116.761 134.628 116.862 134.597 116.959C134.566 117.055 134.515 117.145 134.449 117.221C134.241 117.374 134.003 117.483 133.751 117.54C131.766 117.912 129.809 118.419 127.893 119.057C126.962 119.376 126.079 119.82 125.268 120.378C124.574 120.888 124.017 121.563 123.649 122.342C123.281 123.121 123.112 123.979 123.159 124.839C123.119 125.526 123.224 126.213 123.467 126.856C123.71 127.499 124.086 128.084 124.57 128.572C125.088 129.043 125.693 129.406 126.353 129.64C127.012 129.875 127.711 129.976 128.409 129.938C129.575 129.953 130.731 129.731 131.809 129.285C132.841 128.847 133.779 128.213 134.57 127.419L134.768 127.222ZM133.705 118.769L134.191 118.572L134.525 118.481C134.617 118.568 134.672 118.688 134.677 118.815V123.898C134.685 124.376 134.586 124.849 134.386 125.282C134.187 125.716 133.892 126.099 133.523 126.402C132.722 127.087 131.693 127.444 130.64 127.404C128.667 127.404 127.681 126.326 127.681 124.202C127.633 123.104 127.983 122.026 128.667 121.167C129.665 120.249 130.875 119.592 132.188 119.255L133.705 118.769Z" fill="#1D1D23"/>
<path fill-rule="evenodd" clip-rule="evenodd" d="M209.642 127.222L209.748 127.07L209.824 127.677L209.961 127.965L210.416 128.542C210.847 129.031 211.389 129.41 211.996 129.647C212.603 129.885 213.258 129.974 213.907 129.908C215.162 129.932 216.391 129.537 217.397 128.785C217.532 128.677 217.644 128.544 217.728 128.393C217.811 128.242 217.864 128.076 217.882 127.905C217.882 127.586 217.746 127.434 217.488 127.434H217.002C216.715 127.623 216.373 127.708 216.031 127.677C214.68 127.677 213.998 126.721 213.998 124.809V113.245C214 112.485 213.893 111.729 213.679 110.999C213.498 110.457 213.179 109.971 212.753 109.588C211.238 108.322 209.289 107.696 207.32 107.843C205.115 107.758 202.938 108.369 201.099 109.588C200.346 110.054 199.724 110.704 199.291 111.476C198.858 112.249 198.629 113.119 198.625 114.004C198.597 114.204 198.625 114.407 198.705 114.592C198.785 114.777 198.915 114.936 199.08 115.051C199.627 115.277 200.22 115.371 200.81 115.324C201.462 115.351 202.115 115.295 202.753 115.157C202.907 115.128 203.045 115.045 203.143 114.922C203.24 114.8 203.29 114.646 203.284 114.49L203.087 113.822C202.892 113.292 202.795 112.732 202.798 112.168C202.795 111.813 202.872 111.461 203.024 111.14C203.177 110.82 203.401 110.538 203.678 110.316C204.336 109.808 205.154 109.549 205.985 109.588C208.322 109.588 209.506 111.03 209.506 113.913V116.66C209.521 116.861 209.462 117.061 209.339 117.221C209.124 117.374 208.882 117.482 208.626 117.54C206.641 117.914 204.684 118.421 202.768 119.057C201.84 119.382 200.957 119.826 200.143 120.378C199.452 120.89 198.899 121.566 198.534 122.345C198.169 123.123 198.002 123.98 198.048 124.839C198.007 125.524 198.109 126.211 198.35 126.854C198.59 127.497 198.963 128.082 199.445 128.572C199.963 129.042 200.569 129.405 201.228 129.639C201.887 129.874 202.585 129.975 203.284 129.938C204.449 129.953 205.606 129.731 206.683 129.285C207.72 128.847 208.663 128.214 209.46 127.419L209.642 127.222ZM208.58 118.769L209.066 118.572L209.384 118.481C209.433 118.522 209.472 118.573 209.498 118.63C209.524 118.688 209.537 118.751 209.536 118.815V123.898C209.548 124.374 209.451 124.847 209.254 125.281C209.057 125.714 208.764 126.098 208.398 126.402C207.591 127.087 206.557 127.444 205.499 127.404C203.527 127.404 202.54 126.326 202.54 124.202C202.483 123.101 202.841 122.018 203.542 121.167C204.538 120.246 205.748 119.589 207.062 119.255L208.58 118.769Z" fill="#1D1D23"/>
<path d="M227.564 110.21V110.696L227.853 110.544C228.632 109.631 229.607 108.904 230.705 108.419C231.803 107.933 232.996 107.7 234.196 107.737C235.376 107.716 236.545 107.97 237.61 108.48C238.537 108.929 239.301 109.656 239.795 110.559L239.993 110.802L240.175 110.605C240.582 110.167 241.041 109.78 241.541 109.452C242.995 108.343 244.781 107.76 246.609 107.798C247.748 107.731 248.885 107.966 249.905 108.477C250.925 108.988 251.793 109.759 252.421 110.711C252.906 111.492 253.255 112.349 253.453 113.245C253.702 114.463 253.814 115.705 253.787 116.948V124.824C253.708 125.77 253.87 126.72 254.257 127.586C254.468 127.86 254.748 128.073 255.068 128.203C255.388 128.334 255.736 128.377 256.078 128.33C256.685 128.33 256.989 128.512 256.989 128.846C256.989 129.179 256.685 129.453 256.078 129.453H255.198C254.196 129.282 253.18 129.2 252.163 129.21L249.25 129.453H248.278C247.732 129.453 247.459 129.24 247.459 128.815C247.459 128.557 247.671 128.375 248.111 128.269C248.306 128.222 248.487 128.133 248.642 128.006C248.797 127.88 248.922 127.721 249.007 127.541C249.207 126.919 249.289 126.265 249.25 125.613V117.221C249.359 115.442 248.93 113.671 248.02 112.138C247.63 111.566 247.101 111.104 246.482 110.793C245.863 110.482 245.176 110.334 244.485 110.362C243.847 110.345 243.214 110.473 242.633 110.736C242.053 110.999 241.539 111.39 241.131 111.88C240.957 112.068 240.8 112.271 240.66 112.487C240.67 112.552 240.67 112.619 240.66 112.684V124.809C240.665 125.293 240.716 125.776 240.812 126.251C240.863 126.64 240.96 127.022 241.101 127.389C241.322 127.667 241.6 127.893 241.917 128.053C242.234 128.213 242.582 128.302 242.937 128.314C243.529 128.314 243.817 128.497 243.817 128.83C243.817 129.164 243.544 129.437 242.997 129.437H242.072C241.069 129.266 240.054 129.185 239.037 129.195H237.747C237.154 129.225 236.565 129.306 235.986 129.437H235.106C234.484 129.437 234.181 129.225 234.181 128.8C234.181 128.414 234.393 128.366 234.818 128.27L234.879 128.256L234.955 128.239C235.189 128.205 235.411 128.112 235.599 127.968C235.788 127.825 235.937 127.636 236.032 127.419C236.282 126.557 236.38 125.659 236.32 124.763V116.068C236.349 115.274 236.283 114.479 236.123 113.701C235.954 113.099 235.676 112.533 235.304 112.031C234.972 111.503 234.507 111.07 233.956 110.777C233.405 110.484 232.786 110.341 232.162 110.362H231.92C231.588 110.365 231.258 110.401 230.933 110.468C230.694 110.509 230.46 110.575 230.235 110.666L228.93 111.44C228.523 111.636 228.172 111.934 227.913 112.305C227.785 112.409 227.685 112.545 227.625 112.699V124.839C227.552 125.747 227.703 126.659 228.065 127.495C228.279 127.764 228.551 127.981 228.862 128.128C229.172 128.275 229.512 128.35 229.856 128.345C230.417 128.345 230.69 128.527 230.69 128.861C230.69 129.195 230.417 129.468 229.856 129.468H228.884C227.837 129.29 226.775 129.209 225.713 129.225H223.71L222.496 129.468H221.585C220.993 129.468 220.705 129.255 220.705 128.83C220.705 128.406 220.933 128.33 221.388 128.299C221.662 128.267 221.924 128.169 222.151 128.013C222.378 127.857 222.564 127.648 222.693 127.404C222.973 126.569 223.086 125.687 223.027 124.809V114.642C223.027 112.441 222.359 111.333 221.009 111.333H220.28C219.886 111.333 219.688 111.151 219.688 110.802C219.688 110.453 220.159 110.059 221.206 109.922L223.907 108.905C224.892 108.598 225.835 108.17 226.714 107.631C226.831 107.547 226.959 107.481 227.094 107.433L227.428 107.342C227.595 107.342 227.67 107.509 227.67 107.828V110.21H227.564Z" fill="#1D1D23"/>
<path fill-rule="evenodd" clip-rule="evenodd" d="M267.247 111.394V110.468L267.202 110.514V107.873C267.202 107.524 267.096 107.342 266.914 107.342C266.639 107.387 266.376 107.485 266.14 107.631C265.319 108.198 264.412 108.629 263.454 108.905L260.722 109.922C259.796 110.059 259.326 110.453 259.326 110.802C259.326 111.151 259.493 111.333 259.812 111.333H260.646C261.966 111.333 262.634 112.441 262.634 114.642V134.491C262.693 135.393 262.585 136.299 262.315 137.162C262.212 137.385 262.053 137.577 261.854 137.721C261.655 137.864 261.422 137.954 261.177 137.981C260.631 138.072 260.343 138.133 260.343 138.558C260.343 138.983 260.661 139.195 261.268 139.195H262.149C263.286 138.994 264.438 138.882 265.593 138.861C266.704 138.872 267.811 138.984 268.902 139.195H269.812C270.404 139.195 270.692 138.937 270.692 138.558C270.692 138.178 270.389 137.981 269.767 137.981C269.347 138.021 268.925 137.957 268.536 137.795C268.147 137.634 267.804 137.38 267.536 137.055C267.248 136.233 267.135 135.36 267.202 134.491V128.193L267.445 128.33C268.781 129.466 270.504 130.043 272.255 129.938C273.701 129.975 275.136 129.681 276.451 129.078C277.766 128.476 278.926 127.582 279.843 126.463C281.889 124.048 282.97 120.962 282.878 117.798C282.975 115.192 282.086 112.645 280.389 110.666C279.618 109.757 278.654 109.032 277.567 108.543C276.48 108.055 275.298 107.816 274.107 107.843C272.862 107.847 271.634 108.127 270.51 108.663C269.441 109.146 268.504 109.88 267.779 110.802L267.384 111.242L267.247 111.394ZM270.184 110.842C270.789 110.58 271.444 110.452 272.104 110.468C273.037 110.471 273.954 110.717 274.763 111.183C275.573 111.649 276.246 112.318 276.717 113.124C277.98 115.226 278.598 117.654 278.492 120.105C278.621 122.255 278.039 124.387 276.838 126.175C276.356 126.885 275.703 127.463 274.939 127.855C274.176 128.248 273.326 128.442 272.468 128.421C271.756 128.461 271.044 128.346 270.381 128.084C269.718 127.822 269.12 127.419 268.628 126.903C267.645 125.702 267.152 124.173 267.247 122.624V115.825C267.177 114.418 267.662 113.039 268.598 111.986C269.038 111.494 269.579 111.104 270.184 110.842Z" fill="#1D1D23"/>
<path fill-rule="evenodd" clip-rule="evenodd" d="M318.661 117.752C318.661 117.13 318.858 116.827 319.253 116.827H331.727C332.471 116.827 332.85 116.553 332.85 116.007C332.838 114.922 332.591 113.852 332.124 112.872C331.658 111.892 330.984 111.025 330.149 110.332C329.24 109.495 328.173 108.849 327.011 108.432C325.849 108.014 324.615 107.833 323.382 107.9C322.149 107.966 320.942 108.279 319.831 108.819C318.721 109.359 317.729 110.116 316.916 111.045C315.031 113.261 314.045 116.104 314.154 119.012C314.02 121.891 315.01 124.71 316.916 126.873C317.819 127.867 318.927 128.654 320.164 129.178C321.4 129.702 322.736 129.951 324.079 129.908C325.899 129.917 327.697 129.501 329.329 128.694C330.775 128.067 331.989 127.006 332.804 125.659L333.093 125.082C333.093 124.794 332.911 124.642 332.562 124.642L332.015 124.839L331.287 125.522C330.593 126.121 329.789 126.58 328.92 126.873C328.034 127.22 327.094 127.405 326.142 127.419C325.097 127.413 324.067 127.155 323.143 126.666C322.218 126.177 321.425 125.473 320.831 124.612C319.352 122.637 318.587 120.218 318.661 117.752ZM319.405 115.37C319.04 115.37 318.858 115.218 318.858 114.93C318.847 113.466 319.376 112.05 320.346 110.954C320.75 110.434 321.264 110.011 321.852 109.714C322.44 109.418 323.087 109.255 323.745 109.239C324.353 109.24 324.954 109.376 325.502 109.639C326.051 109.901 326.534 110.283 326.916 110.757C327.804 111.777 328.275 113.093 328.237 114.444C328.237 115.066 327.979 115.37 327.448 115.37H319.405Z" fill="#1D1D23"/>
<path d="M339.603 124.065V99.3903C339.603 97.1899 338.92 96.0821 337.569 96.0821L336.735 95.9759C336.669 95.9863 336.601 95.9809 336.537 95.9601C336.474 95.9394 336.416 95.9039 336.369 95.8566C336.321 95.8093 336.286 95.7514 336.265 95.6877C336.244 95.6241 336.239 95.5564 336.249 95.4903C336.249 95.0199 336.629 94.7164 337.403 94.595C338.45 94.4118 339.47 94.0957 340.438 93.6541L343.139 92.3339C343.383 92.162 343.663 92.0478 343.958 92C344.026 92.0537 344.082 92.1202 344.124 92.1957C344.165 92.2713 344.192 92.3543 344.201 92.4401V124.839C344.125 125.784 344.303 126.733 344.717 127.586C344.959 127.863 345.266 128.076 345.61 128.205C345.954 128.335 346.325 128.378 346.69 128.329C347.236 128.329 347.509 128.512 347.509 128.845C347.509 129.179 347.236 129.452 346.69 129.452H345.764C345.339 129.377 344.823 129.316 344.247 129.27C343.862 129.24 343.464 129.25 343.066 129.26C342.867 129.265 342.668 129.27 342.471 129.27H340.392L339.178 129.513H338.298C337.721 129.513 337.418 129.301 337.418 128.876C337.418 128.451 337.645 128.375 338.101 128.345C338.364 128.329 338.618 128.245 338.839 128.102C339.06 127.958 339.239 127.759 339.36 127.525C339.619 126.66 339.722 125.756 339.664 124.854L339.603 124.065Z" fill="#1D1D23"/>
<path d="M353.094 99.3903V124.065L353.154 124.854C353.216 125.755 353.118 126.659 352.866 127.525C352.739 127.754 352.557 127.948 352.338 128.091C352.118 128.234 351.867 128.321 351.607 128.345C351.151 128.375 350.924 128.557 350.924 128.876C350.924 129.301 351.212 129.513 351.789 129.513H352.669L353.883 129.27H357.737C358.246 129.305 358.753 129.366 359.255 129.452H360.181C360.727 129.452 361 129.179 361 128.845C361 128.512 360.727 128.329 360.181 128.329C359.816 128.376 359.445 128.333 359.101 128.204C358.758 128.074 358.451 127.862 358.208 127.586C357.8 126.731 357.627 125.783 357.707 124.839V92.4401C357.698 92.3543 357.671 92.2713 357.63 92.1957C357.588 92.1202 357.532 92.0537 357.464 92C357.168 92.0428 356.887 92.1574 356.645 92.3339L353.944 93.6541C352.974 94.0915 351.955 94.4075 350.908 94.595C350.135 94.7164 349.74 95.1564 349.74 95.4903C349.74 95.8242 349.907 95.9759 350.241 95.9759L351.06 96.0821C352.411 96.0821 353.094 97.1899 353.094 99.3903Z" fill="#1D1D23"/>
</svg>
