<svg width="400" height="222" viewBox="0 0 400 222" fill="none" xmlns="http://www.w3.org/2000/svg">
<path fill-rule="evenodd" clip-rule="evenodd" d="M117.358 109.34C117.358 95.0195 127.434 86 141.268 86C155.195 86 165.36 95.0195 165.36 109.34C165.36 123.218 155.207 132.929 141.268 132.929C127.451 132.929 117.358 123.218 117.358 109.34ZM126.001 109.34C126.001 118.863 132.243 125.802 141.329 125.802C150.475 125.802 156.723 118.863 156.723 109.34C156.723 100.132 150.536 92.9998 141.329 92.9998C132.121 92.9998 126.001 100.132 126.001 109.34Z" fill="#1D1D23"/>
<path d="M96.2862 120.567H96.4135V87.1343H104.365V131.795H94.272L73.0733 97.2937H72.946V131.795H65V87.1343H75.5357L96.2862 120.567Z" fill="#1D1D23"/>
<path fill-rule="evenodd" clip-rule="evenodd" d="M201.676 108.267V108.134C206.28 106.684 209.423 103.403 209.423 98.3563C209.423 90.2221 202.484 87.1289 195.733 87.1289H178.358V131.795H194.444C202.894 131.795 211.349 128.58 211.349 118.802C211.349 112.743 207.309 109.025 201.676 108.267ZM186.304 93.6971H192.679C198.733 93.6971 201.533 95.2078 201.533 99.2306C201.533 103.104 198.694 105.284 193.393 105.284H186.304V93.6971ZM193.432 125.111H186.304V112.118H193.747C200.249 112.118 203.403 113.69 203.403 118.421C203.403 124.292 197.532 125.111 193.432 125.111Z" fill="#1D1D23"/>
<path d="M224.469 87.1343H232.415V131.795H224.469V87.1343Z" fill="#1D1D23"/>
<path d="M274.491 124.734H255.506V87.1343H247.554V131.795H274.491V124.734Z" fill="#1D1D23"/>
<path d="M285.088 87.1343H293.034V131.795H285.088V87.1343Z" fill="#1D1D23"/>
<path d="M323.379 105.616C318.333 104.039 314.863 102.849 314.863 98.7436C314.863 94.3887 319.091 92.6236 322.749 92.6236C325.842 92.6236 329.245 94.2836 330.949 96.497L336.139 90.792C332.653 87.577 327.668 86 323.125 86C315.051 86 306.812 90.1003 306.812 99.1198C306.812 107.42 312.738 110.032 318.1 111.797C318.442 111.909 318.781 112.018 319.115 112.126C324.268 113.788 328.387 115.116 328.387 119.544C328.387 124.258 324.093 126.184 320.308 126.184C318.415 126.142 316.554 125.679 314.863 124.827C313.171 123.975 311.691 122.756 310.531 121.259L304.831 126.56C308.367 130.788 314.36 132.929 320.164 132.929C328.929 132.929 336.438 128.265 336.438 118.675C336.438 109.844 329.118 107.387 323.379 105.616Z" fill="#1D1D23"/>
<path fill-rule="evenodd" clip-rule="evenodd" d="M135.247 143.177C135.514 143.267 135.757 143.415 135.961 143.609C136.147 143.795 136.294 144.017 136.393 144.262C136.501 144.54 136.556 144.837 136.553 145.136C136.572 145.426 136.525 145.717 136.416 145.986C136.307 146.255 136.138 146.496 135.922 146.691C135.389 147.088 134.732 147.285 134.069 147.244H130.013V149.84H128.906V143.028H134.307C134.626 143.024 134.944 143.074 135.247 143.177ZM134.107 146.215C134.454 146.239 134.8 146.146 135.087 145.949C135.201 145.853 135.29 145.731 135.346 145.594C135.403 145.456 135.426 145.307 135.413 145.158C135.413 144.428 134.954 144.051 134.035 144.051H130.035V146.215H134.107Z" fill="#1D1D23"/>
<path fill-rule="evenodd" clip-rule="evenodd" d="M166.937 143.028L163.335 149.84H164.569L165.36 148.312H169.937L170.728 149.84H171.962L168.36 143.028H166.937ZM165.914 147.289L167.651 143.969L169.383 147.289H165.914Z" fill="#1D1D23"/>
<path fill-rule="evenodd" clip-rule="evenodd" d="M207.597 146.569C207.439 146.735 207.251 146.87 207.044 146.968C206.815 147.082 206.571 147.162 206.319 147.206L208.145 149.862H206.839L204.997 147.267H201.571V149.862H200.465V143.05H205.832C206.436 143.014 207.031 143.212 207.492 143.603C207.7 143.807 207.861 144.052 207.966 144.323C208.071 144.594 208.117 144.885 208.101 145.175C208.106 145.446 208.061 145.717 207.968 145.972C207.887 146.194 207.76 146.398 207.597 146.569ZM201.577 144.052V146.215L205.655 146.199C206 146.222 206.343 146.128 206.629 145.933C206.741 145.839 206.829 145.72 206.887 145.585C206.945 145.451 206.97 145.304 206.961 145.158C206.961 144.428 206.491 144.052 205.55 144.052H201.577Z" fill="#1D1D23"/>
<path d="M238.336 143.028H237.207V149.84H238.336V143.028Z" fill="#1D1D23"/>
<path d="M272.455 145.795C273.128 145.84 273.778 146.053 274.347 146.414C274.546 146.564 274.706 146.76 274.814 146.984C274.921 147.208 274.974 147.455 274.967 147.704C274.972 148.04 274.887 148.371 274.72 148.663C274.554 148.955 274.312 149.197 274.021 149.364C273.17 149.81 272.213 150.015 271.254 149.956C270.474 149.966 269.696 149.873 268.941 149.679C268.307 149.508 267.714 149.211 267.198 148.805L267.818 147.986C268.845 148.642 270.041 148.983 271.26 148.965C271.894 149.001 272.528 148.891 273.113 148.644C273.293 148.575 273.448 148.455 273.561 148.299C273.673 148.143 273.736 147.957 273.744 147.765C273.751 147.663 273.735 147.56 273.699 147.465C273.663 147.37 273.607 147.283 273.534 147.211C273.357 147.061 273.146 146.956 272.92 146.907C272.592 146.831 272.259 146.783 271.924 146.763C271.756 146.751 271.58 146.74 271.392 146.728C271.148 146.713 270.882 146.696 270.585 146.674C270.059 146.636 269.6 146.586 269.207 146.52C268.866 146.469 268.534 146.368 268.222 146.221C267.981 146.106 267.777 145.928 267.63 145.706C267.491 145.458 267.424 145.177 267.436 144.893C267.433 144.585 267.513 144.282 267.668 144.016C267.823 143.751 268.047 143.531 268.316 143.382C269.099 142.966 269.982 142.775 270.867 142.829C272.169 142.784 273.454 143.135 274.552 143.836L273.866 144.599C273.385 144.353 272.876 144.167 272.35 144.046C271.838 143.919 271.312 143.856 270.784 143.858C270.236 143.831 269.688 143.916 269.174 144.107C268.797 144.273 268.62 144.472 268.62 144.776C268.62 145.081 268.814 145.297 269.212 145.435C269.414 145.511 269.624 145.561 269.838 145.584L269.842 145.585C270.041 145.613 270.316 145.651 270.59 145.651L271.47 145.701C271.78 145.717 272.112 145.75 272.455 145.795Z" fill="#1D1D23"/>
</svg>
