<svg width="400" height="220" viewBox="0 0 400 220" fill="none" xmlns="http://www.w3.org/2000/svg">
<path d="M146.349 127.081C154.369 135.331 168.19 134.905 177.214 126.128C186.141 117.444 187.033 103.853 179.29 95.5741L179.029 95.3002C171.008 87.0503 157.188 87.4768 148.163 96.2533C139.138 105.033 138.326 118.831 146.349 127.081ZM271.797 127.081C279.817 135.331 293.637 134.905 302.662 126.128C311.687 117.348 312.499 103.55 304.476 95.3002C296.456 87.0503 282.636 87.4768 273.611 96.2533C264.586 105.033 263.774 118.831 271.797 127.081ZM117.759 129.958C119.684 131.743 122.161 132.371 124.027 132.548L124.48 132.583C124.553 132.588 124.625 132.592 124.695 132.595L125.102 132.606C125.167 132.607 125.231 132.607 125.293 132.607L125.645 132.601L125.956 132.585L126.221 132.563C127.368 132.447 128.755 131.909 129.878 131.359L130.341 131.124C130.859 130.851 131.293 130.589 131.58 130.39L131.961 130.121C132.109 130.009 132.211 129.894 132.088 129.782C132.028 129.728 131.855 129.761 131.611 129.841L131.343 129.934L130.521 130.243L130.154 130.372C129.657 130.539 129.136 130.68 128.687 130.694L128.437 130.698C128.349 130.698 128.256 130.696 128.158 130.692L127.85 130.674L127.515 130.64C126.235 130.482 124.422 129.954 122.316 128.425C122.031 128.218 121.663 127.862 121.233 127.389L120.899 127.014C120.841 126.948 120.783 126.88 120.724 126.811L120.359 126.376L119.975 125.907L119.575 125.405L119.161 124.874L118.516 124.031L117.851 123.142L116.942 121.901L116.253 120.945L115.564 119.978L114.118 117.913L112.215 115.136L110.429 112.469L109.78 111.467C109.278 110.642 109.667 110.068 110.344 109.394L110.58 109.165L111.204 108.576L112.141 107.703L112.515 107.345L112.882 106.981L113.238 106.608C114.759 104.969 115.945 102.999 116.003 99.6356C116.094 94.2503 112.551 91.7919 109.136 90.812L108.701 90.6948C108.629 90.6766 108.557 90.659 108.485 90.6421L108.055 90.5477C107.984 90.5332 107.913 90.5193 107.842 90.506L107.422 90.433L107.01 90.3734C106.942 90.3646 106.875 90.3562 106.808 90.3484L106.411 90.3076C106.346 90.3018 106.282 90.2965 106.218 90.2917L105.842 90.2682L105.48 90.2555C105.422 90.2542 105.363 90.2533 105.306 90.2529L91.1733 90.2268L90.797 90.217C90.4468 90.2116 90.0168 90.2313 90.0014 90.4168C89.9879 90.5796 90.0728 90.6783 90.2735 90.8144L90.446 90.925L90.79 91.1379L91.0784 91.3251C91.1305 91.36 91.1847 91.3968 91.241 91.4358C92.011 91.9694 92.2407 92.7435 92.3088 93.1887L92.3291 93.3577L92.3363 93.4765L92.3369 128.595L92.3387 128.597L92.3369 128.801L92.3253 129.056C92.3005 129.444 92.232 129.994 92.0458 130.366C91.8118 130.834 91.1774 131.247 90.7776 131.472L90.571 131.584C90.5429 131.598 90.5185 131.611 90.4983 131.621L90.2727 131.719C90.1489 131.772 90.0817 131.825 90.0904 132.006C90.0972 132.166 90.315 132.195 90.4594 132.196L90.5855 132.191L99.4275 132.191C99.6453 132.19 99.9344 132.177 99.9451 131.974C99.9533 131.8 99.7769 131.689 99.4535 131.562L99.1839 131.463C98.445 131.202 97.8915 130.779 97.63 130.366C97.4629 130.102 97.4058 129.68 97.3867 129.392L97.378 129.184L97.3504 122.69L97.3638 117.935L97.3975 115.316L97.4369 113.883L97.4584 113.405L97.4744 113.138L97.5011 112.825L97.5207 112.678C97.5309 112.618 97.5417 112.577 97.5531 112.557C97.68 112.339 98.3173 112.242 99.1387 112.202L99.5632 112.187L100.009 112.18L100.7 112.18L102.812 112.207C104.239 112.207 105.148 113.174 105.63 113.863L105.775 114.08L106.374 115.051C106.562 115.351 106.757 115.66 106.959 115.977L107.585 116.948C107.908 117.443 108.245 117.951 108.592 118.469L109.302 119.513C111.953 123.371 115.114 127.507 117.759 129.958ZM241.034 132.048C241.034 132.282 241.344 132.317 241.513 132.319L249.198 132.178C249.474 132.178 249.735 132.131 249.749 131.948C249.757 131.841 249.691 131.748 249.58 131.67L249.336 131.517L249.106 131.358L248.835 131.155C248.644 131.007 248.438 130.834 248.238 130.647C247.937 130.364 247.764 129.897 247.673 129.569L247.625 129.374L247.577 129.1L242.814 95.62C242.57 94.1254 243.022 93.1181 243.396 92.5471L243.524 92.3636L243.728 92.1033C243.895 91.9025 244.103 91.7531 244.306 91.6308L244.546 91.4956L244.763 91.377C244.965 91.2637 245.107 91.1614 245.111 91.0278C245.115 90.8715 245.009 90.8324 244.854 90.8176L244.596 90.8023L244.443 90.7878L244.247 90.7779L243.208 90.7569L241.434 90.7479L240.563 90.7525C239.73 90.7622 239.066 91.6575 238.704 92.2792L238.576 92.5106L238.383 92.9132L225.177 122.616L225.128 122.719L224.979 123.01C224.887 123.188 224.796 123.319 224.63 123.31C224.464 123.302 224.283 122.99 224.174 122.765L210.109 91.4386C209.778 90.7406 209.131 90.5203 208.602 90.425L208.35 90.3861L208.173 90.3654L207.876 90.3507L206.905 90.334L206.105 90.3301L203.592 90.3363L203.4 90.3421C203.173 90.3567 202.949 90.4073 202.94 90.5819C202.933 90.7232 203.085 90.8371 203.285 90.9505L203.605 91.1235C203.642 91.1435 203.678 91.1638 203.713 91.1845C204.474 91.6296 205.187 92.3889 205.745 93.5701C206.007 94.1242 206.081 94.8827 206.087 95.5217L206.085 95.8297L206.068 96.2348L206.026 96.7283L201.286 129.154L201.265 129.241L201.222 129.394L201.157 129.596C201.053 129.889 200.883 130.263 200.631 130.522C200.429 130.73 200.25 130.889 200.095 131.016L199.881 131.182L199.629 131.366L199.508 131.462C199.423 131.538 199.378 131.607 199.373 131.701C199.365 131.868 199.659 131.907 199.875 131.913L200.11 131.909L204.458 132.001C204.734 132.001 204.881 131.977 204.865 131.741C204.859 131.666 204.753 131.587 204.6 131.492L204.286 131.297C204.096 131.175 203.891 131.027 203.724 130.836C203.454 130.528 203.406 130 203.412 129.617L203.421 129.408L203.447 129.152L207.537 100.197L207.553 100.067C207.592 99.7986 207.701 99.2619 207.958 99.2619C208.103 99.2619 208.278 99.5708 208.399 99.8282L208.488 100.028L208.545 100.17L221.95 130.446C222.098 130.757 222.438 131.341 222.915 131.349C223.326 131.355 223.689 130.856 223.903 130.482L224.013 130.277L224.107 130.077L237.625 99.5572C237.686 99.4313 237.809 99.2372 237.992 99.2063C238.186 99.1745 238.22 99.4125 238.224 99.5582L238.222 99.675L242.401 129.836C242.446 130.295 242.313 131.109 241.545 131.559L241.358 131.668C241.179 131.776 241.034 131.885 241.034 132.048ZM105.136 110.435C104.564 110.57 103.815 110.645 103.011 110.678L102.468 110.694L101.917 110.699C101.732 110.698 101.548 110.696 101.365 110.693L100.822 110.678L100.294 110.655L99.7906 110.626L99.3191 110.59L98.8876 110.55L98.5042 110.506L98.1771 110.46C98.1277 110.452 98.081 110.444 98.0371 110.436L97.8093 110.388C97.7139 110.364 97.647 110.34 97.6133 110.317C97.4025 110.173 97.3182 109.702 97.2844 109.349L97.2647 109.051L97.2619 108.931L97.2695 93.4714L97.2632 93.2911L97.2634 93.0813C97.2715 92.6473 97.3326 91.9781 97.6133 91.6704C97.9087 91.3467 98.9848 91.2247 100.18 91.1984L100.697 91.1926L101.218 91.1967L101.729 91.2088L102.221 91.227L102.895 91.2618L103.616 91.3125C107.436 91.6268 111.381 95.8379 111.612 100.134C111.917 105.784 110.174 109.249 105.136 110.435ZM176.58 125.273C169.719 131.945 158.112 131.163 150.48 123.582L150.203 123.301C142.567 115.457 142.014 103.63 148.957 96.8763C155.911 90.1229 167.717 91.0065 175.344 98.8493C182.971 106.693 183.524 118.521 176.58 125.273ZM302.024 125.273C295.164 131.945 283.555 131.163 275.924 123.582L275.647 123.301C268.013 115.457 267.459 103.63 274.403 96.8763C281.348 90.1229 293.163 91.0065 300.79 98.8493C308.416 106.693 308.968 118.521 302.024 125.273Z" fill="#1D1D23"/>
</svg>
