<svg width="400" height="220" viewBox="0 0 400 220" fill="none" xmlns="http://www.w3.org/2000/svg">
<path d="M133.752 87.2086C134.248 87.2086 134.73 87.2122 135.199 87.2188L136.567 87.247C136.789 87.253 137.008 87.2596 137.224 87.2667L138.487 87.3151L139.688 87.3725L141.392 87.4676C143.334 87.5971 145.147 87.9856 146.831 88.8921C148.255 89.6691 149.421 90.964 150.068 92.518C150.845 94.7194 151.234 97.0504 151.234 99.3813V107.669L138.155 107.799V98.8633C138.155 98.0863 138.025 97.3094 137.637 96.6619C137.378 96.0144 136.73 95.6259 136.083 95.6259C135.306 95.4964 134.529 96.0144 134.27 96.6619C133.881 97.5683 133.752 98.4748 133.752 99.3813V105.856C133.752 106.374 133.752 107.022 133.881 107.54C133.881 107.928 134.011 108.317 134.14 108.705C134.251 109.038 134.457 109.276 134.759 109.5L135.084 109.729L135.427 109.985C135.662 110.156 135.916 110.314 136.212 110.388L142.816 113.496L146.831 115.309C147.867 115.827 148.773 116.475 149.55 117.252C150.327 118.029 150.845 119.065 151.104 120.101C151.493 121.655 151.622 123.209 151.622 124.763V133.568C151.752 135.899 151.363 138.36 150.586 140.561C150.068 142.115 148.903 143.41 147.478 144.317C145.795 145.223 143.852 145.612 141.91 145.741L140.087 145.836L138.785 145.894L137.409 145.942C137.173 145.949 136.934 145.956 136.692 145.962L135.198 145.99L133.622 146C131.55 146 129.349 145.871 127.277 145.482C125.723 145.223 124.298 144.576 123.133 143.54C121.838 142.633 121.061 141.338 120.673 139.914C120.155 137.971 120.025 135.899 120.025 133.827V124.633H133.622V134.216C133.622 134.604 133.622 134.993 133.752 135.381C133.752 135.77 133.881 136.158 134.011 136.547C134.14 136.806 134.399 137.194 134.658 137.453C134.917 137.712 135.306 137.842 135.565 137.842C136.342 137.842 137.119 137.453 137.507 136.806C137.896 135.899 138.155 134.863 138.155 133.827V126.317C138.155 125.54 138.155 124.763 138.025 123.986C138.025 123.468 137.766 122.95 137.507 122.561C137.291 122.237 136.986 122.004 136.665 121.785L136.471 121.655C135.953 121.266 135.306 121.007 134.658 120.748L128.313 118.029L124.687 116.345C123.651 115.957 122.745 115.309 121.968 114.532C121.191 113.755 120.673 112.978 120.284 111.942C120.155 110.518 120.025 109.094 120.025 107.669V100.029C119.896 97.8273 120.284 95.6259 120.802 93.554C121.191 92 122.097 90.705 123.263 89.6691C124.557 88.6331 125.982 87.9856 127.536 87.7266C129.608 87.3381 131.68 87.2086 133.752 87.2086ZM173.248 87.0791C174.624 87.0791 175.899 87.1297 177.104 87.1993L178.519 87.2898C178.75 87.3058 178.978 87.3219 179.205 87.3381C180.888 87.4676 182.442 87.8561 183.867 88.6331C185.162 89.2806 186.327 90.3165 186.975 91.6115C187.752 93.295 188.14 95.2374 188.14 97.0504V111.036H174.414V97.9568C174.414 97.7496 174.414 97.5424 174.347 97.3353L174.228 97.0408L174.138 96.7266C174.09 96.5647 174.025 96.4029 173.896 96.2734C173.766 96.0144 173.507 95.7554 173.248 95.6259C172.989 95.3669 172.601 95.3669 172.212 95.3669C171.565 95.3669 170.917 95.7554 170.788 96.4029C170.529 97.1799 170.399 98.0863 170.399 98.9928V134.604C170.399 135.381 170.529 136.288 170.917 136.935C171.435 137.453 172.083 137.712 172.86 137.712C173.378 137.712 173.896 137.453 174.155 136.935C174.414 136.288 174.543 135.64 174.543 134.993V120.101H188.14V136.029C188.14 137.712 187.881 139.396 187.234 140.95C186.586 142.245 185.68 143.281 184.385 143.928C182.96 144.705 181.277 145.223 179.593 145.482C177.392 145.741 175.061 145.871 172.73 145.871C170.27 145.871 167.809 145.741 165.478 145.482C163.665 145.353 161.982 144.835 160.557 143.928C159.263 143.022 158.227 141.597 157.709 140.043C157.061 137.712 156.673 135.381 156.802 133.05V102.101C156.802 101.465 156.812 100.858 156.828 100.28L156.87 99.163L156.926 98.1227C156.936 97.9558 156.947 97.792 156.958 97.6315L157.026 96.7068C157.038 96.5591 157.049 96.4147 157.061 96.2734C157.191 94.8489 157.45 93.4245 157.968 92.1295C158.356 91.0935 159.004 90.1871 159.78 89.5396C160.687 88.7626 161.723 88.2446 162.759 87.9856C164.183 87.5971 165.737 87.3381 167.162 87.2086C168.004 87.1439 168.942 87.1115 169.962 87.0953L171.224 87.0826L173.248 87.0791ZM270.37 87.3381C271.665 87.3381 272.96 87.4676 274.126 87.8561C275.421 88.2446 276.586 88.8921 277.493 89.7986C278.14 90.3165 278.658 91.0935 279.176 91.8705C279.565 92.518 279.824 93.295 279.953 94.0719L280.078 94.8537C280.155 95.3813 280.212 95.9281 280.212 96.5324V145.871H267.004V98.3453C267.004 97.8273 266.874 97.3094 266.486 96.9209C265.968 96.4029 265.32 96.1439 264.673 96.2734C264.025 96.2734 263.378 96.6619 263.119 97.3094C262.86 98.0863 262.73 98.9928 262.73 99.8993V145.741H249.263V87.8561H262.86V90.1871C263.896 89.4101 265.061 88.7626 266.227 88.2446C267.521 87.5971 268.946 87.3381 270.37 87.3381ZM228.284 86.8201C231.004 86.8201 233.723 86.9496 236.442 87.3381C238.126 87.5971 239.809 88.3741 241.104 89.5396C242.27 90.705 243.047 92.259 243.306 93.813C243.694 96.1439 243.824 98.6043 243.824 100.935L243.953 130.978C243.953 132.366 243.887 133.753 243.802 135.046L243.694 136.547C243.565 138.23 243.176 139.784 242.27 141.209C241.363 142.633 240.068 143.799 238.514 144.446C236.183 145.353 233.723 145.741 231.263 145.612C227.896 145.612 224.529 145.482 221.162 145.094C219.09 144.964 217.147 144.187 215.464 143.022C214.169 141.986 213.133 140.432 212.874 138.748C212.486 136.417 212.227 133.957 212.227 131.626V100.547C212.227 98.2158 212.356 95.8849 212.874 93.554C213.133 91.8705 214.039 90.446 215.334 89.4101C216.759 88.3741 218.442 87.5971 220.255 87.3381C222.975 86.9496 225.565 86.6906 228.284 86.8201ZM207.047 87.9856V145.612H193.45V87.9856H207.047ZM226.471 96.1439C226.083 97.1799 225.953 98.2158 226.083 99.3813V133.568C226.083 134.475 226.212 135.381 226.471 136.288C226.73 137.065 227.507 137.453 228.155 137.324C228.543 137.324 228.932 137.194 229.32 137.065L229.574 136.801C229.737 136.619 229.881 136.417 229.968 136.158C230.097 135.77 230.227 135.252 230.227 134.863V133.309L230.356 99.2518C230.356 98.2158 230.227 97.1799 229.968 96.1439C229.709 95.4964 228.932 94.9784 228.155 95.1079C227.378 94.9784 226.73 95.3669 226.471 96.1439ZM204.716 74C206.011 74 207.047 75.036 207.047 76.3309V83.4532C207.047 84.7482 206.011 85.7842 204.716 85.7842H195.651C194.356 85.7842 193.32 84.7482 193.32 83.4532V76.3309C193.45 75.036 194.486 74 195.651 74H204.716Z" fill="#1D1D23"/>
</svg>
