<svg width="400" height="220" viewBox="0 0 400 220" fill="none" xmlns="http://www.w3.org/2000/svg">
<path d="M98.5316 149.194C98.5316 149.039 100.126 147.592 102.074 145.98C107.1 141.821 110.499 138.511 112.874 135.465C115.555 132.026 116.438 130.618 122.691 119.813C134.685 99.0889 136.413 96.4582 141.54 91.1219C146.441 86.0204 149.597 83.453 154.732 80.3887C156.461 79.3567 157.876 78.4015 157.876 78.2659C157.876 77.1459 123.912 77.495 107.971 78.7789C101.18 79.3258 100.011 79.6673 98.4082 81.5717C97.6781 82.4394 97.5425 82.9197 97.5425 84.638C97.5425 87.6359 96.899 89.4453 95.8245 89.4684C95.285 89.4802 94.1385 87.8272 92.5756 84.7844C91.2269 82.1589 90.9307 81.2871 91.0125 80.1847C91.1583 78.2219 92.006 77.7415 96.7183 76.9507C103.194 75.8641 117.567 75.4637 150.128 75.4626C166.267 75.4619 182.068 75.3288 185.243 75.1664C190.373 74.9041 191.063 74.9302 191.454 75.401C191.801 75.8188 191.814 76.1708 191.518 77.0683C190.651 79.6953 188.413 80.6343 184.725 79.9184C181.966 79.3829 173.407 78.6201 170.074 78.6128C164.282 78.5993 161.337 79.4685 156.609 82.583C149.328 87.3787 143.467 95.7221 134.399 114.2C131.601 119.9 127.99 125.892 124.985 129.82C122.663 132.856 117.493 138.088 114.522 140.411C108.015 145.497 98.5315 150.706 98.5315 149.194H98.5316ZM135.457 143.951C135.457 143.812 135.791 143.553 136.199 143.374C136.904 143.064 136.945 142.843 137.033 138.89L137.124 134.733L136.043 134.2C135.449 133.907 135.111 133.653 135.292 133.636C136.651 133.507 141.465 133.616 141.628 133.779C141.74 133.89 141.607 133.982 141.333 133.982C140.362 133.982 139.743 135.12 139.743 136.906V138.625L142.298 138.529L144.853 138.433L144.96 137.316C145.121 135.629 144.776 134.71 143.777 134.168C143.281 133.899 142.949 133.665 143.04 133.648C143.966 133.474 149.074 133.546 149.19 133.734C149.274 133.87 149.12 133.982 148.848 133.982C147.735 133.982 147.326 135.318 147.326 138.949C147.326 141.923 147.417 142.534 147.929 142.997C148.26 143.297 148.705 143.543 148.918 143.543C149.13 143.543 149.304 143.691 149.304 143.872C149.304 144.069 148.04 144.202 146.172 144.202C144.304 144.202 143.04 144.069 143.04 143.872C143.04 143.691 143.239 143.543 143.483 143.543C144.361 143.543 145.018 142.367 145.018 140.797V139.257H142.38H139.743V140.882C139.743 142.429 140.305 143.543 141.085 143.543C141.254 143.543 141.391 143.691 141.391 143.872C141.391 144.068 140.183 144.202 138.424 144.202C136.792 144.202 135.457 144.089 135.457 143.951V143.951ZM154.085 143.671C152.599 142.859 151.94 142.193 151.213 140.769C149.998 138.388 151.17 135.54 153.943 134.135C157.971 132.093 162.899 134.393 163.35 138.524C163.522 140.095 162.709 141.693 161.066 143.014C159.96 143.903 159.516 144.038 157.44 144.119C155.729 144.186 154.8 144.062 154.085 143.671V143.671ZM158.993 142.94C160.55 141.561 160.951 138.439 159.875 136.069C159.197 134.575 158.397 133.982 157.062 133.982C154.865 133.982 153.327 136.595 153.731 139.64C154.205 143.211 156.829 144.857 158.993 142.94V142.94ZM164.8 143.925C164.8 143.773 165.16 143.485 165.6 143.284C166.346 142.944 166.407 142.721 166.507 140.017C166.671 135.533 166.537 134.667 165.613 134.247C164.386 133.687 164.874 133.477 167.11 133.601L169.155 133.714L170.851 137.31C171.784 139.287 172.624 140.905 172.718 140.905C172.812 140.905 173.698 139.291 174.686 137.317L176.483 133.73L178.284 133.544C180.5 133.315 181.022 133.573 179.669 134.228L178.647 134.724V138.795V142.867L179.636 143.378C180.18 143.659 180.625 143.96 180.625 144.046C180.625 144.132 179.141 144.202 177.328 144.202C175.514 144.202 174.031 144.064 174.031 143.896C174.031 143.727 174.361 143.541 174.764 143.483C175.168 143.425 175.685 143.007 175.913 142.554C176.364 141.661 176.511 135.96 176.083 135.96C175.943 135.96 174.982 137.74 173.947 139.916C172.912 142.092 171.909 143.873 171.717 143.873C171.525 143.873 170.548 142.166 169.545 140.081C168.543 137.996 167.584 136.29 167.415 136.29C167.246 136.29 167.107 137.557 167.107 139.107C167.107 141.659 167.184 142.001 167.917 142.734C168.362 143.179 168.881 143.543 169.07 143.543C169.26 143.543 169.415 143.691 169.415 143.873C169.415 144.061 168.426 144.202 167.107 144.202C165.838 144.202 164.8 144.078 164.8 143.926V143.925ZM181.614 143.88C181.614 143.695 181.826 143.543 182.085 143.543C183.282 143.543 183.592 142.605 183.592 138.977C183.592 135.317 183.185 133.982 182.07 133.982C181.798 133.982 181.647 133.866 181.734 133.724C181.822 133.582 184.22 133.486 187.063 133.512C192.889 133.564 192.81 133.53 192.818 136.042C192.825 137.912 192.402 138.045 191.629 136.416C190.86 134.795 189.406 133.944 187.599 134.057L186.167 134.147L186.116 136.29C186.066 138.369 186.089 138.433 186.889 138.433C187.533 138.433 187.857 138.13 188.372 137.043C188.735 136.279 189.143 135.649 189.279 135.642C189.415 135.635 189.526 137.114 189.526 138.927C189.526 140.74 189.408 142.224 189.263 142.224C189.118 142.224 188.812 141.705 188.582 141.07C188.171 139.933 187.182 139.104 186.505 139.33C186.314 139.393 186.145 140.33 186.13 141.412L186.101 143.378L187.965 143.37C189.557 143.363 189.971 143.226 190.805 142.427C191.342 141.912 191.87 141.137 191.979 140.704C192.375 139.123 192.855 139.908 192.757 141.976L192.658 144.037L187.136 144.127C183.529 144.186 181.614 144.1 181.614 143.88V143.88ZM221.108 127.37C220.185 126.447 220.116 126.228 220.29 124.76C220.394 123.879 220.943 122.24 221.509 121.118C222.075 119.997 222.478 119.018 222.403 118.944C222.329 118.869 221.141 119.552 219.762 120.461C209.817 127.018 200.966 129.385 198.433 126.166C197.614 125.124 197.526 122.219 198.272 120.778C198.548 120.243 198.67 119.805 198.542 119.805C198.413 119.805 197.26 120.599 195.978 121.569C190.185 125.954 187.38 127.388 184.593 127.388C182.779 127.388 181.982 126.7 181.259 124.511C180.86 123.302 180.998 119.244 181.479 118.017C181.853 117.065 181.393 117.311 173.236 122.431C169.201 124.964 165.667 127.126 165.383 127.235C164.582 127.542 164.318 126.73 165.007 126.079C165.346 125.759 169.339 123.184 173.879 120.358L182.134 115.219L182.895 112.855C183.314 111.555 184.09 109.524 184.621 108.342C185.151 107.16 185.538 106.146 185.481 106.088C185.423 106.031 183.406 107.796 180.998 110.01C175.752 114.833 174.978 115.454 170.005 118.829C165.245 122.059 161.961 123.735 157.403 125.261C152.62 126.861 149.504 127.41 144.996 127.446C140.605 127.48 139.29 127.058 137.829 125.142C137.086 124.168 136.941 123.644 136.941 121.943C136.941 118.703 138.702 115.565 142.87 111.381C148.061 106.17 154.887 101.955 161.765 99.7132C168.747 97.4376 173.539 97.4872 175.911 99.8597C176.828 100.777 176.998 101.186 176.998 102.476C176.998 105.292 175.212 107.793 170.899 111.014C165.793 114.827 160.261 116.838 154.873 116.838C151.524 116.838 149.779 116.376 148.433 115.134L147.727 114.483L145.7 116.891C143.723 119.24 142.298 121.698 141.87 123.497C141.541 124.878 142.821 125.953 145.139 126.243C149.524 126.791 155.458 125.258 162.603 121.732C168.642 118.752 172.431 115.775 186.067 103.299C188.97 100.643 191.678 98.3645 192.084 98.2355C192.491 98.1064 193.14 98.1015 193.527 98.2236C194.18 98.4307 194.218 98.608 194.045 100.636C193.943 101.84 193.394 104.138 192.825 105.744C192.257 107.349 191.857 108.727 191.936 108.807C192.063 108.933 204.499 101.298 207.624 99.1744C208.272 98.7343 209.075 98.3743 209.409 98.3743C211.117 98.3743 209.17 99.9012 200.733 105.177C195.748 108.295 191.348 111.118 190.954 111.451C189.771 112.453 184.987 124.273 185.365 125.259C186.113 127.206 194.586 121.621 203.832 113.088C210.211 107.2 214.81 103.917 220.232 101.382C226.575 98.4165 233.221 97.4102 236.219 98.9613C237.745 99.7503 237.991 100.175 237.991 102.021V103.306L240.323 101.798C243.667 99.6343 246.741 98.3255 248.948 98.1254C251.903 97.8574 251.742 98.122 245.739 103.403C241.524 107.111 230.756 117.891 227.711 121.453C225.723 123.777 224.661 125.572 224.974 126.078C225.31 126.622 227.172 126.421 229.542 125.585C232.438 124.563 236.567 122.197 242.681 118.055C247.948 114.487 249.475 113.053 258.121 103.547C261.014 100.366 263.775 97.6461 264.601 97.1621C266.772 95.8895 269.974 96.177 269.969 97.6441C269.965 98.6846 268.775 100.038 262.183 106.499C258.578 110.032 255.852 112.812 256.124 112.677C256.396 112.543 258.325 111.209 260.41 109.713C273.867 100.059 283.944 95.8631 286.804 98.7224C288.193 100.111 287.289 103.24 284.358 107.194C283.518 108.327 282.91 109.254 283.007 109.254C283.104 109.254 284.476 108.389 286.056 107.332C288.645 105.6 291.753 103.797 297.481 100.704C303.465 97.4723 308.875 97.1799 308.875 100.088C308.875 102.863 305.63 106.604 295.522 115.485C284.536 125.136 284.197 125.597 288.113 125.546C289.715 125.525 290.849 125.263 292.659 124.497C295.709 123.206 301.345 119.692 306.236 116.031C308.321 114.47 310.249 113.236 310.522 113.289C312.15 113.602 309.631 115.932 302.775 120.452C292.711 127.088 283.825 129.697 281.687 126.645C280.922 125.553 281.065 124.57 282.345 122.136C284.535 117.968 288.044 114.405 300.227 103.979C302.24 102.256 303.973 100.644 304.077 100.397C304.652 99.0375 297.66 101.612 293.214 104.397C285.77 109.06 276.325 115.747 271.455 119.802C267.879 122.78 263.959 125.693 261.521 127.184C259.926 128.16 259.232 128.399 258.224 128.316C257.204 128.232 256.928 128.067 256.846 127.493C256.713 126.557 257.778 125.397 265.516 118.051C275.125 108.929 281.396 102.766 282.374 101.484C283.671 99.7839 283.137 99.4657 280.199 100.186C275.384 101.366 267.992 105.719 257.608 113.492C252.472 117.335 245.067 123.325 242.439 125.763C240.056 127.972 238.672 128.637 237.339 128.214C236.972 128.097 236.672 127.752 236.672 127.447C236.672 127.141 238.082 125.357 239.804 123.482C241.527 121.608 242.936 119.996 242.936 119.901C242.936 119.806 242.603 119.947 242.195 120.214C235.205 124.792 227.06 128.376 223.648 128.376C222.378 128.376 221.942 128.203 221.108 127.369L221.108 127.37ZM207.36 125.455C213.416 123.37 223.198 117.028 228.595 111.689C230.589 109.715 233.069 107.321 234.104 106.369C238.406 102.411 236.946 98.919 231.457 100.039C227.779 100.789 223.447 103.559 215.572 110.199C210.064 114.843 209.068 115.792 205.73 119.576C202.351 123.408 201.617 124.592 202.081 125.459C202.519 126.278 204.977 126.276 207.36 125.456V125.455ZM157.334 114.339C161.739 113.207 168.059 109.073 172.163 104.641C173.654 103.031 174.031 102.402 174.031 101.528C174.031 100.048 172.826 99.5416 169.87 99.7788C167.202 99.993 164.243 101.387 159.829 104.508C155.577 107.515 149.963 112.167 149.963 112.684C149.963 113.283 151.042 114.188 152.153 114.521C153.616 114.959 155.128 114.906 157.334 114.339V114.339Z" fill="#1D1D23"/>
</svg>
