<svg width="400" height="220" viewBox="0 0 400 220" fill="none" xmlns="http://www.w3.org/2000/svg">
<path d="M280.593 91.4381L286.707 91.5036C285.735 92.0363 285.154 93.0801 285.215 94.1874V119.141C285.215 127.82 280.79 132.599 272.778 132.599C267.763 132.599 259.28 129.706 259.28 118.892V94.1874C259.267 93.2398 258.818 92.3511 258.062 91.7785C257.933 91.678 257.798 91.5862 257.657 91.5036H266.507C265.458 91.9744 264.746 92.9765 264.648 94.122V118.656C264.648 124.037 265.656 129.522 273.144 129.522C278.983 129.522 281.942 125.87 281.942 118.656V94.122C281.994 93.2302 281.655 92.36 281.012 91.7393C280.881 91.6285 280.741 91.5279 280.593 91.4381ZM319.935 91.3727L320 96.5702C319.493 95.3844 318.436 94.5232 317.172 94.266C317.132 94.266 314.403 94.0167 311.391 93.9027L310.718 93.8798C310.043 93.8594 309.362 93.847 308.702 93.847V129.195C308.67 130.082 309.012 130.942 309.644 131.565C309.771 131.68 309.907 131.785 310.05 131.879H301.868L301.75 131.957H301.698L301.828 131.879H301.711C302.571 131.377 303.093 130.458 303.093 129.473L303.085 129.261V93.9125C299.118 93.9125 294.405 94.3314 294.405 94.3314C293.378 94.4826 292.479 95.1015 291.97 96.0072C291.838 96.1991 291.72 96.4004 291.617 96.6094V91.3727H319.935ZM198.234 91.3474C200.229 91.3696 211.887 91.8686 211.887 100.616C211.887 106.036 207.096 108.706 204.896 109.623C204.425 109.819 204.072 109.989 203.914 109.989C205.08 110.107 215.697 111.403 215.697 120.698C215.697 126.132 211.468 131.944 199.686 131.944H192.904L186.686 131.827C187.726 131.381 188.383 130.339 188.335 129.208V94.0696C188.399 93.0467 187.896 92.0715 187.026 91.5298L186.764 91.3465L198.234 91.3474ZM236.88 90.3646L253.297 129.012C253.6 130.016 254.274 130.868 255.182 131.395C255.521 131.597 255.871 131.78 256.23 131.944L245.403 131.866C246.882 131.159 247.353 130.282 246.882 128.973C246.528 128.252 244.84 124.39 243.059 119.874H228.239C226.302 124.338 224.731 128.318 224.482 129.038C224.076 130.269 224.22 131.002 224.992 131.578C225.212 131.729 225.449 131.852 225.699 131.944H217.779C218.984 131.277 219.954 130.252 220.554 129.012C220.998 128.027 224.181 120.518 227.621 112.385L228.091 111.273C232.335 101.238 236.795 90.6673 236.88 90.4693V90.3646ZM114.51 87L114.536 93.0615C113.884 91.7294 112.633 90.79 111.172 90.5348C111.106 90.5217 105.254 90.0766 100.541 90.0766L100.54 129.208C100.57 130.116 100.976 130.976 101.667 131.578C101.833 131.707 102.008 131.826 102.191 131.931H92.4111C93.5273 131.392 94.2129 130.237 94.1523 128.999V90.129C93.2487 90.129 92.3092 90.1448 91.3786 90.1706L90.6829 90.1918C86.8737 90.3173 83.4039 90.5872 83.4039 90.5872C82.183 90.7255 81.0881 91.4027 80.4189 92.4331C80.2668 92.643 80.1269 92.8616 80 93.0877V87H114.51ZM129.448 91.4512C128.454 91.9795 127.856 93.0368 127.916 94.1612V108.235H147.986V94.122C148.067 93.0197 147.464 91.9804 146.467 91.5036H155.331C154.315 91.9616 153.7 93.0122 153.799 94.122V129.247C153.756 130.142 154.128 131.007 154.807 131.591C154.99 131.673 155.178 131.742 155.37 131.8H146.533C147.496 131.288 148.085 130.273 148.051 129.182V110.644H127.982V129.234C127.988 130.238 128.475 131.177 129.291 131.761L129.527 131.918H120.585C121.564 131.415 122.173 130.4 122.156 129.3V94.1612C122.197 93.1432 121.7 92.1785 120.847 91.6214C120.723 91.558 120.596 91.5012 120.467 91.4512H129.448ZM175.544 91.4381C174.531 91.9414 173.906 92.9913 173.947 94.122V129.261C173.947 130.266 174.435 131.208 175.256 131.787L175.44 131.879H166.576C167.562 131.378 168.184 130.366 168.187 129.261V94.122C168.22 93.1056 167.725 92.1445 166.878 91.5822C166.799 91.5265 166.716 91.4783 166.629 91.4381H175.544ZM198.913 111.678L194.2 111.757V129.339C195.124 129.47 196.056 129.532 196.989 129.522C205.224 129.522 209.387 126.367 209.387 120.149C209.387 114.532 205.839 111.678 198.913 111.678ZM235.427 101.362C235.234 101.909 233.185 107.501 231.109 112.848L230.805 113.628C230.3 114.923 229.798 116.188 229.326 117.347H238.49L242.051 117.386C241.907 117.072 237.246 105.852 235.846 102.357L235.427 101.362ZM198.076 93.9256L194.148 94.0041V108.968L196.648 109.086C201.021 109.086 206.258 107.685 206.258 101.034C206.258 95.7846 201.846 93.9256 198.076 93.9256Z" fill="#1D1D23"/>
</svg>
