<svg width="400" height="220" viewBox="0 0 400 220" fill="none" xmlns="http://www.w3.org/2000/svg">
<path d="M113.605 136.254V99.5019H122.033V94.946H113.605V79.6075H108.252V94.946H101V99.5019H108.252V136.254H113.605ZM136.993 136.254V122.282C136.993 115.119 137.322 110.36 137.98 108.006C138.84 104.944 140.093 102.685 141.739 101.229C143.384 99.774 145.092 99.0463 146.864 99.0463C147.623 99.0463 148.56 99.2868 149.674 99.7677L152.445 95.2877C150.775 94.3511 149.205 93.8829 147.737 93.8829C145.788 93.8829 143.915 94.4714 142.118 95.6483C140.321 96.8253 138.613 98.6034 136.993 100.983V94.946H131.563V136.254H136.993ZM178.482 137.317C181.519 137.317 184.24 136.855 186.645 135.931C189.049 135.007 191.213 133.659 193.137 131.887C195.061 130.116 196.756 127.787 198.225 124.902L193.744 122.548C192.125 125.256 190.619 127.218 189.226 128.432C187.834 129.647 186.145 130.622 184.158 131.356C182.171 132.09 180.127 132.457 178.026 132.457C173.673 132.457 170.015 130.919 167.054 127.844C164.093 124.769 162.561 120.826 162.46 116.017H199.591C199.541 110.373 198.022 105.665 195.035 101.894C190.834 96.5532 185.215 93.8829 178.178 93.8829C171.344 93.8829 165.89 96.4899 161.815 101.704C158.6 105.804 156.993 110.474 156.993 115.714C156.993 121.282 158.891 126.275 162.688 130.691C166.484 135.108 171.749 137.317 178.482 137.317ZM193.744 111.423H162.992C164.08 107.627 165.687 104.779 167.813 102.881C170.724 100.274 174.204 98.9704 178.254 98.9704C180.709 98.9704 183.051 99.4893 185.278 100.527C187.505 101.565 189.296 102.932 190.65 104.627C192.004 106.323 193.036 108.589 193.744 111.423ZM215.217 136.254V121.105C215.217 115.663 215.47 111.917 215.976 109.867C216.786 106.728 218.463 104.096 221.007 101.97C223.55 99.8436 226.429 98.7806 229.644 98.7806C232.454 98.7806 234.732 99.4703 236.478 100.85C238.224 102.229 239.414 104.286 240.047 107.019C240.452 108.614 240.654 111.79 240.654 116.549V136.254H245.932V114.992C245.932 109.373 245.362 105.235 244.223 102.577C243.084 99.9196 241.319 97.8061 238.927 96.2368C236.535 94.6675 233.795 93.8829 230.707 93.8829C227.67 93.8829 224.86 94.5853 222.278 95.99C219.697 97.3948 217.343 99.5146 215.217 102.349V94.946H209.901V136.254H215.217ZM278.767 137.317C282.057 137.317 285.088 136.633 287.86 135.266C290.631 133.9 293.131 131.862 295.358 129.154V136.254H300.597V79H295.358V102.539C293.282 99.6538 290.872 97.4897 288.125 96.047C285.379 94.6043 282.31 93.8829 278.918 93.8829C273.046 93.8829 268.022 95.9964 263.846 100.223C259.669 104.45 257.581 109.538 257.581 115.486C257.581 121.561 259.65 126.718 263.789 130.957C267.927 135.197 272.92 137.317 278.767 137.317ZM279.298 132.457C276.413 132.457 273.711 131.717 271.192 130.236C268.674 128.755 266.668 126.686 265.175 124.028C263.681 121.371 262.935 118.586 262.935 115.676C262.935 112.74 263.675 109.955 265.156 107.323C266.636 104.691 268.63 102.647 271.135 101.191C273.641 99.7361 276.375 99.0084 279.336 99.0084C283.943 99.0084 287.822 100.616 290.973 103.83C294.124 107.045 295.7 111.044 295.7 115.828C295.7 118.966 294.997 121.788 293.593 124.294C292.188 126.8 290.182 128.787 287.575 130.255C284.968 131.723 282.209 132.457 279.298 132.457Z" fill="#1D1D23"/>
</svg>
