<svg width="400" height="220" viewBox="0 0 400 220" fill="none" xmlns="http://www.w3.org/2000/svg">
<path d="M322.772 94.1102L335 126.166L333.127 126.827L329.712 117.905H314.841L311.426 126.827L309.553 126.166L321.671 94.1102H322.772ZM218.672 94.1102L235.416 121.76V94.1102H237.289V126.827H236.297L236.187 126.607L219.553 99.1775V126.717H217.681V94.1102H218.672ZM101.573 94.1102V126.827H99.59V94.1102H101.573ZM178.464 94.1102L190.581 126.166L188.709 126.827L185.294 117.905H170.422L167.007 126.827L165.135 126.166L177.252 94.1102H178.464ZM307.681 94.1102L309.553 94.661L309.443 94.9914L297.546 126.717H296.334L284.217 94.661L286.089 94.1102L296.885 122.752L307.681 94.1102ZM262.625 94.1102C271.548 94.1102 278.488 101.271 278.488 110.414C278.488 119.557 271.548 126.717 262.625 126.717C253.703 126.717 246.763 119.557 246.763 110.414C246.763 101.271 253.703 94.1102 262.625 94.1102ZM113.911 94.1102V124.845H129.443V126.717H111.928V94.1102H113.911ZM141.01 94.1102V124.845H156.542V126.717H139.027V94.1102H141.01ZM88.4639 94L90.3366 94.661L78.2191 126.717H77.1175L65 94.661L66.8727 94L77.6683 122.752L88.4639 94ZM262.625 95.9829C254.804 95.9829 248.635 102.372 248.635 110.414C248.635 118.565 254.804 124.845 262.625 124.845C270.447 124.845 276.505 118.455 276.505 110.414C276.505 102.372 270.447 96.093 262.625 95.9829ZM322.222 98.0759L315.502 115.922H328.941L322.222 98.0759ZM177.803 98.0759L171.083 115.922H184.523L177.803 98.0759Z" fill="#1D1D23"/>
</svg>
