<svg width="400" height="220" viewBox="0 0 400 220" fill="none" xmlns="http://www.w3.org/2000/svg">
<path d="M133.264 28.7639H119.236L163.194 148.903L199.236 57.5833L232.917 148.903L281.042 28.7639H266.944L233.403 114.389L199.444 23L163.542 114.389L133.264 28.7639Z" fill="#1D1D23"/>
<path d="M119.792 197.444L125.972 181.194L131.875 197.444L142.222 173H138.403L132.014 188.347L126.042 171.889L119.722 188.347L113.75 173H110L119.792 197.444Z" fill="#1D1D23"/>
<path d="M176.042 195.986H165.764V173H169.236V192.722H176.042V195.986Z" fill="#1D1D23"/>
<path d="M179.306 195.986H189.583V192.722H182.778V173H179.306V195.986Z" fill="#1D1D23"/>
<path d="M237.292 187.792C237.361 190.014 236.528 192.167 235 193.764C231.597 197.236 225.972 197.236 222.569 193.833L222.5 193.764C220.972 192.167 220.139 190.014 220.208 187.792V173H223.681V186.819C223.542 188.347 223.889 189.806 224.653 191.125C226.458 193.417 229.722 193.764 231.944 191.958C232.292 191.681 232.569 191.403 232.778 191.125C233.403 190.222 233.75 188.833 233.75 186.819V173H237.222V187.792H237.292Z" fill="#1D1D23"/>
<path d="M246.319 176.264H255.556V173H242.847V195.986H255.556V192.722H246.319V185.083H255.278V181.819H246.319V176.264Z" fill="#1D1D23"/>
<path d="M266.319 196.403C264.514 196.472 262.708 195.847 261.389 194.667C260 193.347 259.167 191.542 258.958 189.667L262.5 188.903C262.569 189.875 262.847 190.847 263.333 191.681C264.722 193.417 267.222 193.695 268.958 192.306L269.167 192.097C269.861 191.333 270.278 190.361 270.208 189.32C270.208 188.903 270.139 188.486 270 188.07C269.861 187.722 269.653 187.375 269.444 187.028C269.167 186.681 268.819 186.403 268.403 186.125C267.917 185.847 267.431 185.57 266.944 185.361L264.722 184.458C261.597 183.139 260 181.195 260 178.625C260 176.958 260.694 175.361 262.014 174.32C263.403 173.139 265.139 172.514 266.944 172.583C269.583 172.583 271.667 173.903 273.194 176.472L270.347 178.139C270 177.445 269.514 176.82 268.819 176.333C267.431 175.57 265.764 175.708 264.514 176.681C263.889 177.167 263.542 177.931 263.542 178.695C263.542 179.806 264.375 180.708 266.042 181.403L268.333 182.306C269.931 182.861 271.319 183.833 272.431 185.083C273.333 186.195 273.75 187.653 273.75 189.111C273.819 191.056 273.056 192.931 271.597 194.32C270.208 195.708 268.264 196.472 266.319 196.403Z" fill="#1D1D23"/>
<path d="M284.722 176.264H290V173H275.972V176.264H281.25V195.986H284.722V176.264Z" fill="#1D1D23"/>
<path fill-rule="evenodd" clip-rule="evenodd" d="M151.875 171.542L140.486 195.986H144.236L146.806 190.43H156.667L159.097 195.986H162.917L151.875 171.542ZM148.194 187.167L151.806 179.319L155.208 187.167H148.194Z" fill="#1D1D23"/>
<path fill-rule="evenodd" clip-rule="evenodd" d="M215.903 184.805C215.833 187.792 214.653 190.639 212.569 192.722L216.458 196.472H212.083L210.278 194.597C208.333 195.847 206.111 196.472 203.819 196.472C200.833 196.472 197.917 195.361 195.694 193.347C193.125 191.194 191.736 188 191.806 184.667C191.736 181.333 193.056 178.208 195.486 175.986C199.931 171.68 207.014 171.472 211.736 175.569C214.444 177.861 216.042 181.264 215.903 184.805ZM206.806 186.889L210.139 190.222C211.597 188.694 212.361 186.68 212.292 184.458C212.361 182.167 211.528 179.944 209.861 178.278C208.264 176.611 206.042 175.708 203.75 175.778C201.458 175.708 199.236 176.611 197.639 178.278C195.972 180.014 195.139 182.236 195.208 184.597C195.139 186.889 196.042 189.111 197.708 190.708C199.306 192.236 201.389 193.139 203.611 193.139C205.069 193.139 206.458 192.792 207.708 192.097L202.292 186.889H206.806Z" fill="#1D1D23"/>
</svg>
