<svg width="24" height="23" viewBox="0 0 24 23" fill="" xmlns="http://www.w3.org/2000/svg">
<path fill-rule="evenodd" clip-rule="evenodd" d="M18.234 6.78046L18.2074 6.5326C17.7819 3.08072 15.1193 0.408299 11.8535 0.211278C11.8329 0.20377 11.425 0.20377 11.4046 0.211613C8.06093 0.412999 5.34963 3.20939 5.02396 6.78046L5.00703 6.99988L1.00018 7C0.937282 7 0.874523 7.00592 0.812736 7.0177C0.27024 7.12122 -0.0856177 7.64496 0.0179094 8.18744L2.37939 20.5623C2.64931 21.9768 3.8862 23 5.32621 23H17.9317L18.1106 22.9947C19.4731 22.9141 20.6199 21.9179 20.8786 20.5623L23.24 8.18744L23.2553 8.0716C23.2918 7.57227 22.949 7.11383 22.4452 7.0177C22.3834 7.00592 22.3207 7 22.2578 7L18.2509 6.99988L18.234 6.78046ZM2.20905 8.99994L4.34394 20.1874C4.43391 20.6589 4.84621 21 5.32621 21H17.9022L18.0141 20.9967C18.4577 20.9608 18.8292 20.6317 18.914 20.1874L21.0489 8.99994H2.20905ZM16.245 7L16.2422 6.96393L16.2206 6.7627C15.8946 4.17066 13.9304 2.34021 11.733 2.20765L11.7083 2.20615C11.6873 2.20588 11.6601 2.20569 11.6298 2.20569C11.601 2.20569 11.5753 2.20591 11.5552 2.20615L11.5248 2.20798C9.27542 2.34348 7.26785 4.26151 7.01688 6.94922L7.01296 7H16.245Z" fill=""/>
</svg>
