<svg width="15" height="15" viewBox="0 0 15 15" fill="none" xmlns="http://www.w3.org/2000/svg">
<path fill-rule="evenodd" clip-rule="evenodd" d="M0.292893 0.782485C-0.0976309 1.17301 -0.0976312 1.80617 0.292893 2.1967L5.59621 7.50001L0.292923 12.8033C-0.0976009 13.1938 -0.0976009 13.827 0.292923 14.2175C0.683448 14.608 1.31661 14.608 1.70714 14.2175L7.01042 8.91423L12.3137 14.2175C12.7042 14.608 13.3374 14.608 13.7279 14.2175C14.1184 13.827 14.1184 13.1938 13.7279 12.8033L8.42464 7.50002L13.728 2.1967C14.1185 1.80618 14.1185 1.17301 13.728 0.782486C13.3374 0.391961 12.7043 0.391961 12.3137 0.782485L7.01042 6.0858L1.70711 0.782485C1.31658 0.391961 0.683418 0.391961 0.292893 0.782485Z" fill="#1D1D23"/>
</svg>
