<svg width="120" height="120" viewBox="0 0 120 120" fill="none" xmlns="http://www.w3.org/2000/svg">
<path fill-rule="evenodd" clip-rule="evenodd" d="M60 4C90.9279 4 116 29.0721 116 60C116 90.9279 90.9279 116 60 116C29.0721 116 4 90.9279 4 60C4 29.0721 29.0721 4 60 4ZM60 6C30.1766 6 6 30.1766 6 60C6 89.8234 30.1766 114 60 114C89.8234 114 114 89.8234 114 60C114 30.1766 89.8234 6 60 6ZM44.5199 31.1458C43.8535 30.7402 43 31.2199 43 32V88C43 88.7801 43.8535 89.2598 44.5199 88.8542L90.5199 60.8542C91.16 60.4646 91.16 59.5354 90.5199 59.1458L44.5199 31.1458ZM45 33.779L88.076 60L45 86.22V33.779Z" fill="black"/>
<mask id="mask0_21_17460" style="mask-type:luminance" maskUnits="userSpaceOnUse" x="4" y="4" width="112" height="112">
<path fill-rule="evenodd" clip-rule="evenodd" d="M60 4C90.9279 4 116 29.0721 116 60C116 90.9279 90.9279 116 60 116C29.0721 116 4 90.9279 4 60C4 29.0721 29.0721 4 60 4ZM60 6C30.1766 6 6 30.1766 6 60C6 89.8234 30.1766 114 60 114C89.8234 114 114 89.8234 114 60C114 30.1766 89.8234 6 60 6ZM44.5199 31.1458C43.8535 30.7402 43 31.2199 43 32V88C43 88.7801 43.8535 89.2598 44.5199 88.8542L90.5199 60.8542C91.16 60.4646 91.16 59.5354 90.5199 59.1458L44.5199 31.1458ZM45 33.779L88.076 60L45 86.22V33.779Z" fill="white"/>
</mask>
<g mask="url(#mask0_21_17460)">
<rect width="120" height="120" fill="black"/>
</g>
</svg>
