<?xml version="1.0" encoding="utf-8"?><svg viewBox="0 0 120 120" xmlns="http://www.w3.org/2000/svg" xmlns:xlink="http://www.w3.org/1999/xlink"><style>:root>svg{display:none}:root>svg:target{display:block}</style><svg viewBox="0 0 40 40" id="i-arrow-circle" xmlns="http://www.w3.org/2000/svg"><path d="M20.145 14.343 25.802 20l-5.657 5.657-1.13-1.131 3.727-3.728H13v-1.6h9.738l-3.724-3.723 1.131-1.132Z"/></svg><svg viewBox="0 0 40 40" id="i-basket" xmlns="http://www.w3.org/2000/svg"><g clip-path="url(#ada)"><path fill-rule="evenodd" clip-rule="evenodd" d="M29 4a9 9 0 1 1-2.098 17.754l-1.49 7.808A3 3 0 0 1 22.465 32H9.535a3 3 0 0 1-2.947-2.438L4.227 17.187A1 1 0 0 1 5.209 16h4.007l.017-.22C9.57 12.073 12.48 9.2 16 9.2c1.62 0 3.104.606 4.269 1.616A9 9 0 0 1 29 4Zm-7.737 13.6H5.934L8.16 29.262a1.4 1.4 0 0 0 1.242 1.132l.133.006h12.93a1.4 1.4 0 0 0 1.344-1.008l.031-.13 1.53-8.024a9.036 9.036 0 0 1-3.922-3.341l-.185-.296Zm-10.437-1.674c.265-2.91 2.51-5.126 5.174-5.126 1.604 0 3.046.8 4.001 2.061L20 13l.004.265c.027.957.204 1.876.508 2.736L10.821 16l.005-.074Z"/></g><g clip-path="url(#adb)"><circle cx="29" cy="13" r="10"/></g><defs><clipPath id="ada"><path transform="translate(4.209 4)" d="M0 0h33.791v28H0z"/></clipPath><clipPath id="adb"><path transform="translate(19 3)" d="M0 0h20v20H0z"/></clipPath></defs></svg><svg viewBox="0 0 40 40" id="i-basket-hover" xmlns="http://www.w3.org/2000/svg"><path fill-rule="evenodd" clip-rule="evenodd" d="M38 13a9 9 0 0 0-17.731-2.184C19.104 9.806 17.62 9.2 16 9.2c-3.52 0-6.43 2.873-6.767 6.58l-.017.22H5.209a1 1 0 0 0-.982 1.187l2.361 12.375A3 3 0 0 0 9.535 32h12.93a3 3 0 0 0 2.947-2.438l1.49-7.808A9 9 0 0 0 38 13Zm-27.174 2.926c.265-2.91 2.51-5.126 5.174-5.126 1.604 0 3.046.8 4.001 2.061L20 13l.004.265c.028.957.205 1.876.508 2.736L10.821 16l.005-.074Z"/></svg><svg viewBox="0 0 24 23" id="i-basket-only" xmlns="http://www.w3.org/2000/svg"><path fill-rule="evenodd" clip-rule="evenodd" d="m18.234 6.78-.027-.247C17.782 3.08 15.12.408 11.853.21a4.378 4.378 0 0 0-.448 0C8.06.414 5.35 3.21 5.024 6.782L5.007 7H1a1 1 0 0 0-.982 1.187l2.361 12.375A3 3 0 0 0 5.326 23h12.606l.179-.005a3 3 0 0 0 2.768-2.433L23.24 8.187l.015-.115A1 1 0 0 0 22.258 7H18.25l-.017-.22ZM2.209 9l2.135 11.187a1 1 0 0 0 .982.813h12.576l.112-.003a1 1 0 0 0 .9-.81L21.049 9H2.209Zm14.036-2-.003-.036-.021-.201c-.326-2.592-2.29-4.423-4.488-4.555l-.025-.002a6.28 6.28 0 0 0-.153 0l-.03.002c-2.25.135-4.257 2.054-4.508 4.741L7.013 7h9.232Z"/></svg><svg viewBox="0 0 40 40" id="i-calc" xmlns="http://www.w3.org/2000/svg"><path fill-rule="evenodd" clip-rule="evenodd" d="M31.79 6C33.01 6 34 6.99 34 8.21v23.58c0 1.22-.99 2.21-2.21 2.21H8.21A2.21 2.21 0 0 1 6 31.79V8.21C6 6.99 6.99 6 8.21 6h23.58Zm0 1.4H8.21a.81.81 0 0 0-.804.709L7.4 8.21v23.578c0 .414.31.755.709.805l.102.006h23.578a.81.81 0 0 0 .805-.709l.006-.101V8.21a.81.81 0 0 0-.709-.804L31.79 7.4ZM17.67 23.306a.7.7 0 0 0-1.063-.904l-2.402 2.401-2.4-2.4-.087-.074a.7.7 0 0 0-.903 1.063l2.4 2.401-2.4 2.401-.074.087a.7.7 0 0 0 1.064.903l2.4-2.401 2.402 2.401.086.074a.7.7 0 0 0 .904-1.064l-2.402-2.401 2.402-2.4.073-.087Zm10.537 3.718a.7.7 0 0 1 .095 1.394l-.095.006h-5.794a.7.7 0 0 1-.096-1.393l.095-.007h5.795Zm.7-3.162a.7.7 0 0 0-.7-.7h-5.794l-.096.007a.7.7 0 0 0 .095 1.393h5.795l.095-.006a.7.7 0 0 0 .605-.694Zm-14.7-13.251a.7.7 0 0 1 .694.605l.006.095v2.197h2.195a.7.7 0 0 1 .095 1.394l-.095.006h-2.195v2.195a.7.7 0 0 1-1.393.095l-.007-.095v-2.195h-2.197a.7.7 0 0 1-.095-1.393l.095-.007h2.197v-2.197a.7.7 0 0 1 .7-.7Zm14.7 3.597a.7.7 0 0 0-.7-.7h-5.794l-.096.007a.7.7 0 0 0 .095 1.393h5.795l.095-.006a.7.7 0 0 0 .605-.694Z"/><g clip-path="url(#aea)"><path fill-rule="evenodd" clip-rule="evenodd" d="M31.79 6C33.01 6 34 6.99 34 8.21v23.58c0 1.22-.99 2.21-2.21 2.21H8.21A2.21 2.21 0 0 1 6 31.79V8.21C6 6.99 6.99 6 8.21 6h23.58Zm0 1.4H8.21a.81.81 0 0 0-.804.709L7.4 8.21v23.578c0 .414.31.755.709.805l.102.006h23.578a.81.81 0 0 0 .805-.709l.006-.101V8.21a.81.81 0 0 0-.709-.804L31.79 7.4ZM17.67 23.306a.7.7 0 0 0-1.063-.904l-2.402 2.401-2.4-2.4-.087-.074a.7.7 0 0 0-.903 1.063l2.4 2.401-2.4 2.401-.074.087a.7.7 0 0 0 1.064.903l2.4-2.401 2.402 2.401.086.074a.7.7 0 0 0 .904-1.064l-2.402-2.401 2.402-2.4.073-.087Zm10.537 3.718a.7.7 0 0 1 .095 1.394l-.095.006h-5.794a.7.7 0 0 1-.096-1.393l.095-.007h5.795Zm.7-3.162a.7.7 0 0 0-.7-.7h-5.794l-.096.007a.7.7 0 0 0 .095 1.393h5.795l.095-.006a.7.7 0 0 0 .605-.694Zm-14.7-13.251a.7.7 0 0 1 .694.605l.006.095v2.197h2.195a.7.7 0 0 1 .095 1.394l-.095.006h-2.195v2.195a.7.7 0 0 1-1.393.095l-.007-.095v-2.195h-2.197a.7.7 0 0 1-.095-1.393l.095-.007h2.197v-2.197a.7.7 0 0 1 .7-.7Zm14.7 3.597a.7.7 0 0 0-.7-.7h-5.794l-.096.007a.7.7 0 0 0 .095 1.393h5.795l.095-.006a.7.7 0 0 0 .605-.694Z"/></g><clipPath id="aea"><path d="M0 0h40v40H0z"/></clipPath></svg><svg fill="none" viewBox="0 0 15 15" id="i-close" xmlns="http://www.w3.org/2000/svg"><path fill-rule="evenodd" clip-rule="evenodd" d="M.293.782a1 1 0 0 0 0 1.415L5.596 7.5.293 12.803a1 1 0 1 0 1.414 1.414L7.01 8.915l5.304 5.303a1 1 0 0 0 1.414-1.414L8.425 7.5l5.303-5.303A1 1 0 0 0 12.314.782L7.01 6.086 1.707.782a1 1 0 0 0-1.414 0Z" fill="#1D1D23"/></svg><svg viewBox="0 0 40 40" id="i-direct" xmlns="http://www.w3.org/2000/svg"><g clip-path="url(#aga)"><path d="m27.685 19.489-14.857-7.43a.575.575 0 0 0-.678.126.574.574 0 0 0-.065.685L16.472 20l-4.387 7.13a.572.572 0 0 0 .743.81l14.857-7.43a.572.572 0 0 0 0-1.021Z"/></g><clipPath id="aga"><path transform="matrix(-1 0 0 1 40 0)" d="M0 0h40v40H0z"/></clipPath></svg><svg fill="none" viewBox="0 0 24 24" id="i-drop-down" xmlns="http://www.w3.org/2000/svg"><mask id="aha" style="mask-type:luminance" maskUnits="userSpaceOnUse" x="8" y="10" width="8" height="5"><path d="M8.223 11.367a.829.829 0 0 1 0-1.133.736.736 0 0 1 1.013-.062l.066.063 2.7 2.833 2.696-2.831a.737.737 0 0 1 1.012-.063l.067.063a.83.83 0 0 1 .059 1.062l-.06.07-3.236 3.396a.736.736 0 0 1-1.012.063l-.066-.063-3.239-3.398Z" fill="#fff"/></mask><g mask="url(#aha)"><path fill="#000" d="M24 0H0v24h24z"/></g></svg><svg viewBox="0 0 48 48" id="i-facebook" xmlns="http://www.w3.org/2000/svg"><g clip-path="url(#aia)"><path fill-rule="evenodd" clip-rule="evenodd" d="M25.362 31v-7.03h2.534L28 21.442h-2.638v-1.852c0-.35.059-.628.176-.832.118-.203.399-.298.842-.284h1.558L28 16.118a5.47 5.47 0 0 0-.592-.054 10.139 10.139 0 0 1-.55-.03 8.083 8.083 0 0 0-.582-.022c-.609-.042-1.132.025-1.568.2a2.85 2.85 0 0 0-1.08.737 3.104 3.104 0 0 0-.634 1.084 3.845 3.845 0 0 0-.208 1.242v2.168H21v2.526h1.786V31h2.576Z"/></g><clipPath id="aia"><path d="M0 0h48v48H0z"/></clipPath></svg><svg viewBox="0 0 40 40" id="i-heart" xmlns="http://www.w3.org/2000/svg"><path fill-rule="evenodd" clip-rule="evenodd" d="m19.905 11.576.095.107.095-.107a7.272 7.272 0 0 1 8.714-1.561c3.515 1.819 4.969 6.126 3.296 9.745l-.138.277-.158.258-.093.143-.196.285-.22.3-.304.396-.341.42-.302.358-.494.566-.547.603-.396.427-.639.671-.457.472-.73.74-.787.782-.843.825-1.21 1.164-1.31 1.24-1.662 1.545c-.24.266-.551.448-.937.535l-.147.022-.153.011-.165-.004-.123-.013a1.746 1.746 0 0 1-.898-.42l-.086-.083-1.713-1.597-1.31-1.24-1.21-1.165-.843-.825-.787-.782-.73-.74-.459-.473-.639-.671-.397-.428-.55-.607-.494-.566-.303-.36-.405-.502-.242-.317-.22-.303-.194-.282-.094-.146-.177-.296c-1.837-3.641-.412-8.102 3.189-9.965a7.27 7.27 0 0 1 8.714 1.561Zm10.754 7.5c1.309-2.832.167-6.216-2.585-7.64l-.22-.108c-2.572-1.196-5.636-.3-7.18 2.112L20 14.493l-.674-1.053c-1.588-2.48-4.784-3.358-7.4-2.004-2.819 1.459-3.939 4.963-2.527 7.767l.134.22.07.11.17.248.195.268.219.286.382.474.283.336.474.544.533.588.385.414.627.66.448.46.72.73.777.773.833.816 1.201 1.155 1.301 1.232 1.72 1.602.053.055.022.02.022.01h.017l.043-.006c.024-.005.044-.017.11-.087l1.706-1.59 1.301-1.232 1.2-1.155.834-.815.777-.772.72-.73.448-.461.626-.659.384-.412.53-.585.475-.544.283-.336.318-.392.28-.363.194-.266.171-.25.179-.277.095-.196Z"/></svg><svg viewBox="0 0 40 40" id="i-heart-hover" xmlns="http://www.w3.org/2000/svg"><path fill-rule="evenodd" clip-rule="evenodd" d="m19.705 11.376.095.107.095-.107a7.271 7.271 0 0 1 8.714-1.562c3.516 1.82 4.969 6.127 3.296 9.745l-.138.277-.158.259-.093.143-.196.284-.22.301-.304.396-.34.42-.302.358-.495.566-.546.603-.397.427-.638.67-.458.472-.73.74-.787.782-.843.825-1.21 1.164-1.31 1.24-1.662 1.546c-.24.266-.551.447-.937.534l-.146.023-.154.01-.165-.004-.123-.013a1.746 1.746 0 0 1-.898-.419l-.086-.084-1.713-1.596-1.31-1.241-1.21-1.165-.843-.824-.787-.783-.73-.74-.459-.472-.639-.672-.397-.428-.55-.606-.494-.566-.303-.36-.405-.503-.242-.317-.22-.302-.194-.283-.094-.145-.177-.296c-1.837-3.642-.412-8.103 3.189-9.966a7.27 7.27 0 0 1 8.714 1.562Z"/></svg><svg viewBox="0 0 48 48" id="i-instagram" xmlns="http://www.w3.org/2000/svg"><g clip-path="url(#ala)"><path fill-rule="evenodd" clip-rule="evenodd" d="M28 13a7 7 0 0 1 7 7v7a7 7 0 0 1-7 7h-7a7 7 0 0 1-7-7v-7a7 7 0 0 1 7-7h7Zm0 2h-7a5 5 0 0 0-5 5v7a5 5 0 0 0 5 5h7a5 5 0 0 0 5-5v-7a5 5 0 0 0-5-5Zm1 8.5a4.5 4.5 0 1 0-9 0 4.5 4.5 0 0 0 9 0ZM24.5 21a2.5 2.5 0 1 0 0 5 2.5 2.5 0 0 0 0-5Zm6.5-2.5a1.5 1.5 0 1 0-3 0 1.5 1.5 0 0 0 3 0Z"/></g><clipPath id="ala"><path d="M0 0h48v48H0z"/></clipPath></svg><svg viewBox="0 0 16 16" id="i-item-delete" xmlns="http://www.w3.org/2000/svg"><path d="m10.487 5.673-.555 7.25a.625.625 0 0 1-1.246-.096l.555-7.25a.625.625 0 0 1 1.246.096Zm-3.728-.096a.625.625 0 0 0-1.246.096l.555 7.25a.625.625 0 0 0 1.246-.096l-.555-7.25Zm7.991-2.452c0 .345-.28.625-.625.625h-.671l-.893 11.673a.625.625 0 0 1-.623.577H4.061a.625.625 0 0 1-.623-.577L2.546 3.75h-.671a.625.625 0 1 1 0-1.25h3.063v-.656C4.938.827 5.764 0 6.78 0H9.22c1.016 0 1.844.827 1.844 1.844V2.5h3.062c.345 0 .625.28.625.625ZM6.187 2.5h3.625v-.656a.594.594 0 0 0-.593-.594H6.78a.594.594 0 0 0-.593.594V2.5ZM12.2 3.75H3.8l.841 11h6.717l.842-11Z"/></svg><svg fill="none" viewBox="0 0 60 60" id="i-like" xmlns="http://www.w3.org/2000/svg"><g filter="url(#ana)"><circle cx="30" cy="28" r="22" fill="#fff"/></g><path d="m30.5 22.648-.062-.071a4.83 4.83 0 0 0-5.788-1.037c-2.39 1.237-3.337 4.198-2.118 6.615l.118.196.063.097.128.187.146.201.161.21.27.334.2.24.329.375.364.402.265.284.424.446.304.314.485.49.523.52.56.547.803.773.87.824 1.138 1.06.057.055c.192.162.389.249.596.279l.082.008.11.003.102-.007.097-.015c.256-.058.463-.178.623-.355l1.103-1.025.87-.824.804-.772.56-.548.522-.519.485-.491.304-.313.424-.445.263-.284.363-.4.328-.375.2-.238.227-.279.202-.262.146-.2.13-.19.062-.094.105-.172.092-.184c1.11-2.401.145-5.26-2.19-6.468a4.831 4.831 0 0 0-5.787 1.037l-.062.07Z" stroke="#1D1D23" stroke-width="2"/><defs><filter id="ana" x="0" y="0" width="60" height="60" filterUnits="userSpaceOnUse" color-interpolation-filters="sRGB"><feFlood flood-opacity="0" result="BackgroundImageFix"/><feColorMatrix in="SourceAlpha" values="0 0 0 0 0 0 0 0 0 0 0 0 0 0 0 0 0 0 127 0" result="hardAlpha"/><feMorphology radius="4" in="SourceAlpha" result="effect1_dropShadow_22_13827"/><feOffset dy="2"/><feGaussianBlur stdDeviation="6"/><feColorMatrix values="0 0 0 0 0 0 0 0 0 0 0 0 0 0 0 0 0 0 0.2 0"/><feBlend in2="BackgroundImageFix" result="effect1_dropShadow_22_13827"/><feBlend in="SourceGraphic" in2="effect1_dropShadow_22_13827" result="shape"/></filter></defs></svg><svg fill="none" viewBox="0 0 40 40" id="i-menu" xmlns="http://www.w3.org/2000/svg"><mask id="aoa" style="mask-type:luminance" maskUnits="userSpaceOnUse" x="8" y="13" width="24" height="14"><path fill-rule="evenodd" clip-rule="evenodd" d="M8 14a1 1 0 0 1 1-1h22a1 1 0 1 1 0 2H9a1 1 0 0 1-1-1Zm0 6a1 1 0 0 1 1-1h22a1 1 0 1 1 0 2H9a1 1 0 0 1-1-1Zm1 5a1 1 0 1 0 0 2h22a1 1 0 1 0 0-2H9Z" fill="#fff"/></mask><g mask="url(#aoa)"><path fill="#1D1D23" d="M0 0h40v40H0z"/></g></svg><svg viewBox="0 0 40 40" id="i-messenger" xmlns="http://www.w3.org/2000/svg"><g clip-path="url(#mask0_67_18402)"><path fill-rule="evenodd" clip-rule="evenodd" d="M30 19.26C30 14.144 25.523 10 20 10s-10 4.145-10 9.26c0 2.895 1.436 5.48 3.684 7.178V30l3.356-1.893c.935.267 1.93.411 2.96.411 5.523 0 10-4.145 10-9.259Zm-8.48.089 4.854-2.626-5.362 5.667-2.565-2.673-4.908 2.673 5.393-5.667 2.589 2.626Z"/></g></svg><svg fill="none" viewBox="0 0 8 2" id="i-minus" xmlns="http://www.w3.org/2000/svg"><rect width="8" height="2" rx="1" fill="#1D1D23"/></svg><svg fill="none" viewBox="0 0 40 40" id="i-navigator" xmlns="http://www.w3.org/2000/svg"><mask id="ara" style="mask-type:luminance" maskUnits="userSpaceOnUse" x="13" y="13" width="15" height="15"><path fill-rule="evenodd" clip-rule="evenodd" d="M26.955 13.053a.76.76 0 0 1 .821.174c.206.22.285.536.174.82L22.614 27.51a.75.75 0 0 1-.71.489h-.016a.788.788 0 0 1-.71-.505l-2.069-5.597-5.604-2.065a.764.764 0 0 1-.505-.71.77.77 0 0 1 .49-.725l13.465-5.345Zm-6.535 7.978 1.5 4.052 3.946-9.949-9.961 3.942 4.057 1.498a.771.771 0 0 1 .458.457Z" fill="#fff"/></mask><g mask="url(#ara)"><path fill="#000" d="M0 0h40v40H0z"/></g></svg><svg viewBox="0 0 24 24" id="i-phone" xmlns="http://www.w3.org/2000/svg"><g clip-path="url(#asa)"><path d="M9.7 7.115c.258.257.517.513.773.772.452.456.453.987.003 1.44-.323.324-.644.65-.973.968-.087.084-.094.153-.05.259.216.52.528.979.88 1.411.707.869 1.506 1.64 2.46 2.238.203.128.429.221.642.337.109.06.184.04.272-.05.322-.333.651-.659.98-.985.431-.427.972-.428 1.405.001.53.524 1.056 1.05 1.58 1.579.44.443.436.984-.006 1.43-.299.302-.615.588-.897.904-.412.46-.928.61-1.518.577-.858-.047-1.65-.332-2.412-.702a13.13 13.13 0 0 1-4.354-3.407c-.896-1.066-1.636-2.227-2.123-3.537-.236-.634-.404-1.283-.353-1.97.032-.424.191-.784.503-1.081.336-.32.655-.656.986-.98.432-.426.973-.425 1.407 0 .268.263.53.53.796.796Z"/></g><clipPath id="asa"><path transform="matrix(-1 0 0 1 24 0)" d="M0 0h24v24H0z"/></clipPath></svg><svg viewBox="0 0 24 24" id="i-pin" xmlns="http://www.w3.org/2000/svg"><path fill-rule="evenodd" clip-rule="evenodd" d="M8.61 6.572c2.228-2.16 5.857-2.094 7.99.195 2.002 2.134 1.815 5.477-.293 7.52l-2.774 3.303c-.56.547-1.48.547-2.041 0L8.61 14.182a5.3 5.3 0 0 1 0-7.61Zm1.335 3.825c0 1.378 1.147 2.484 2.547 2.484 1.414 0 2.548-1.106 2.548-2.484 0-1.38-1.147-2.485-2.548-2.485-1.414 0-2.547 1.106-2.547 2.485Z"/></svg><svg viewBox="0 0 48 48" id="i-pinterest" xmlns="http://www.w3.org/2000/svg"><path fill-rule="evenodd" clip-rule="evenodd" d="M30.924 19.738C30.54 16.903 28.022 15 24.66 15c-.328 0-.663.018-.993.056-3.556.404-5.571 3.323-5.661 5.864-.082 2.281.704 3.574 2.4 3.957l.089.019.045-.08c.555-.996.248-1.511-.05-2.009-.148-.249-.302-.507-.355-.838-.197-1.239.148-2.462.97-3.445.912-1.088 2.327-1.763 3.692-1.763 1.076 0 2.036.403 2.775 1.166 1.148 1.183 1.102 3.75.402 5.45-.613 1.486-1.649 2.231-2.804 2.001-.416-.085-.694-.256-.849-.522-.349-.603-.021-1.652.297-2.667.445-1.42.905-2.889-.369-3.401-.85-.344-1.656 0-2.158.895-.558.997-.604 2.398-.111 3.284-.143.708-.324 1.391-.515 2.114-.537 2.033-1.092 4.136-.735 6.714l.029.205.165-.122c1.556-1.148 2.095-3.264 2.528-5.537.134.086.257.172.375.257.508.358.946.666 1.729.728.129.01.256.015.381.015 1.328 0 2.512-.562 3.425-1.624 1.263-1.473 1.861-3.764 1.562-5.979Z"/><g clip-path="url(#aua)"><path fill-rule="evenodd" clip-rule="evenodd" d="M30.924 19.738C30.54 16.903 28.022 15 24.66 15c-.328 0-.663.018-.993.056-3.556.404-5.571 3.323-5.661 5.864-.082 2.281.704 3.574 2.4 3.957l.089.019.045-.08c.555-.996.248-1.511-.05-2.009-.148-.249-.302-.507-.355-.838-.197-1.239.148-2.462.97-3.445.912-1.088 2.327-1.763 3.692-1.763 1.076 0 2.036.403 2.775 1.166 1.148 1.183 1.102 3.75.402 5.45-.613 1.486-1.649 2.231-2.804 2.001-.416-.085-.694-.256-.849-.522-.349-.603-.021-1.652.297-2.667.445-1.42.905-2.889-.369-3.401-.85-.344-1.656 0-2.158.895-.558.997-.604 2.398-.111 3.284-.143.708-.324 1.391-.515 2.114-.537 2.033-1.092 4.136-.735 6.714l.029.205.165-.122c1.556-1.148 2.095-3.264 2.528-5.537.134.086.257.172.375.257.508.358.946.666 1.729.728.129.01.256.015.381.015 1.328 0 2.512-.562 3.425-1.624 1.263-1.473 1.861-3.764 1.562-5.979Z"/></g><clipPath id="aua"><path d="M0 0h48v48H0z"/></clipPath></svg><svg fill="none" viewBox="0 0 120 120" id="i-play" xmlns="http://www.w3.org/2000/svg"><path fill-rule="evenodd" clip-rule="evenodd" d="M60 4c30.928 0 56 25.072 56 56s-25.072 56-56 56S4 90.928 4 60 29.072 4 60 4Zm0 2C30.177 6 6 30.177 6 60s24.177 54 54 54 54-24.177 54-54S89.823 6 60 6ZM44.52 31.146A1 1 0 0 0 43 32v56a1 1 0 0 0 1.52.854l46-28a1 1 0 0 0 0-1.708l-46-28Zm.48 2.633L88.076 60 45 86.22V33.779Z" fill="#000"/><mask id="ava" style="mask-type:luminance" maskUnits="userSpaceOnUse" x="4" y="4" width="112" height="112"><path fill-rule="evenodd" clip-rule="evenodd" d="M60 4c30.928 0 56 25.072 56 56s-25.072 56-56 56S4 90.928 4 60 29.072 4 60 4Zm0 2C30.177 6 6 30.177 6 60s24.177 54 54 54 54-24.177 54-54S89.823 6 60 6ZM44.52 31.146A1 1 0 0 0 43 32v56a1 1 0 0 0 1.52.854l46-28a1 1 0 0 0 0-1.708l-46-28Zm.48 2.633L88.076 60 45 86.22V33.779Z" fill="#fff"/></mask><g mask="url(#ava)"><path fill="#000" d="M0 0h120v120H0z"/></g></svg><svg fill="none" viewBox="0 0 8 8" id="i-plus" xmlns="http://www.w3.org/2000/svg"><path d="M4 0a1 1 0 0 0-1 1v2H1a1 1 0 1 0 0 2h2v2a1 1 0 1 0 2 0V5h2a1 1 0 1 0 0-2H5V1a1 1 0 0 0-1-1Z" fill="#1D1D23"/></svg><svg viewBox="0 0 40 40" id="i-search" xmlns="http://www.w3.org/2000/svg"><path fill-rule="evenodd" clip-rule="evenodd" d="M26.778 11.222c-4.296-4.296-11.26-4.296-15.556 0-4.296 4.296-4.296 11.26 0 15.556 4.105 4.106 10.649 4.288 14.97.546l4.263 4.262 1.132-1.13-4.264-4.264c3.742-4.321 3.56-10.865-.545-14.97ZM12.353 25.647a9.4 9.4 0 1 1 13.294-13.294 9.4 9.4 0 0 1-13.294 13.294Z"/></svg><svg fill="none" viewBox="0 0 24 24" id="i-sub-menu-success" xmlns="http://www.w3.org/2000/svg"><rect x=".5" y=".5" width="23" height="23" rx="11.5" stroke="#fff"/><path d="m16.765 9.138-5.627 5.627L8 11.627" stroke="#fff" stroke-width="2" stroke-linecap="round" stroke-linejoin="round"/></svg><svg viewBox="0 0 40 40" id="i-telegram" xmlns="http://www.w3.org/2000/svg"><g clip-path="url(#aza)"><path d="m16.455 22.545-.314 4.467c.45 0 .645-.195.878-.43l2.108-2.035 4.369 3.232c.801.452 1.366.214 1.582-.744l2.867-13.578h.001c.254-1.198-.428-1.666-1.209-1.372l-16.855 6.52c-1.15.452-1.133 1.1-.195 1.394l4.309 1.354 10.009-6.329c.471-.315.9-.14.547.175l-8.097 7.346Z"/></g><clipPath id="aza"><path transform="matrix(-1 0 0 1 40 0)" d="M0 0h40v40H0z"/></clipPath></svg><svg viewBox="0 0 48 48" id="i-twitter" xmlns="http://www.w3.org/2000/svg"><g clip-path="url(#baa)"><path fill-rule="evenodd" clip-rule="evenodd" d="M32.5 18.649a6.56 6.56 0 0 1-1.945.554 3.502 3.502 0 0 0 1.489-1.946 6.626 6.626 0 0 1-2.15.853 3.32 3.32 0 0 0-2.47-1.11c-2.185 0-3.792 2.118-3.298 4.318-2.813-.146-5.308-1.546-6.978-3.675-.886 1.58-.46 3.65 1.049 4.697a3.277 3.277 0 0 1-1.534-.44c-.037 1.629 1.087 3.154 2.715 3.492a3.266 3.266 0 0 1-1.529.06c.431 1.399 1.68 2.416 3.163 2.444A6.628 6.628 0 0 1 16 29.353a9.328 9.328 0 0 0 5.189 1.58c6.285 0 9.836-5.516 9.621-10.464a7.037 7.037 0 0 0 1.69-1.82Z"/></g><clipPath id="baa"><path d="M0 0h48v48H0z"/></clipPath></svg><svg viewBox="0 0 60 60" id="i-up-btn" xmlns="http://www.w3.org/2000/svg"><path d="m35 29.855-5.657-5.657-5.657 5.657 1.132 1.13 3.727-3.727V37h1.6v-9.738l3.724 3.724L35 29.855Z"/></svg><svg viewBox="0 0 40 40" id="i-viber" xmlns="http://www.w3.org/2000/svg"><path d="M20.829 14.131a2.128 2.128 0 0 0-.156-.014c-.236-.017-.726-.052-.697-.545.013-.214.111-.572.629-.572.057 0 .114.004.165.007h.009c.04.003.077.006.108.006.02 0 .032-.001.039-.002a.233.233 0 0 1 .039-.002c3.25.107 6.066 2.98 6.026 6.147 0 .042.002.09.004.14v.003c.01.21.022.471-.151.648a.553.553 0 0 1-.412.152h-.017c-.555-.011-.563-.514-.567-.756a1.77 1.77 0 0 0-.01-.185c-.402-3.098-1.853-4.554-5.01-5.027Z"/><path d="M21.261 14.841c2.14.25 3.866 2.06 3.849 4.034l-.002.027c-.005.036-.003.09-.001.146.007.203.022.626-.453.696a.936.936 0 0 1-.135.01c-.51 0-.539-.461-.552-.683-.004-.059-.008-.115-.015-.16-.317-1.856-.964-2.514-2.886-2.932-.046-.01-.101-.017-.16-.025h-.004c-.205-.028-.46-.062-.606-.255a.542.542 0 0 1-.085-.434c.03-.179.148-.479.587-.479.11 0 .22.018.325.035.05.008.096.015.138.02ZM25.686 23.161a9.65 9.65 0 0 1-.201-.153c-.345-.27-.711-.518-1.065-.759l-.221-.15c-.454-.31-.863-.462-1.248-.462-.52 0-.973.28-1.347.831-.166.244-.367.363-.614.363-.147 0-.313-.04-.495-.12-1.466-.648-2.512-1.64-3.111-2.95-.29-.634-.196-1.048.314-1.385.289-.19.827-.547.789-1.228-.043-.774-1.796-3.102-2.535-3.367a1.475 1.475 0 0 0-.979-.002c-.849.278-1.458.766-1.762 1.412-.294.623-.28 1.356.038 2.118.922 2.203 2.217 4.123 3.85 5.708 1.6 1.552 3.566 2.823 5.843 3.777.205.086.42.133.577.167l.012.003c.049.01.09.02.122.028a.233.233 0 0 0 .057.008h.018c1.07 0 2.357-.953 2.752-2.04.346-.95-.286-1.421-.794-1.799Z"/><path d="M21.147 16.633c.486-.011 1.02.236 1.464.674.441.437.701.986.695 1.47.016.462-.157.718-.515.76a.56.56 0 0 1-.067.004c-.297 0-.529-.234-.563-.57-.074-.717-.443-1.104-1.161-1.216-.198-.032-.416-.088-.53-.273-.077-.126-.085-.28-.022-.457.134-.378.515-.387.699-.392Z"/></svg><svg fill="none" viewBox="0 0 24 24" id="i-watch" xmlns="http://www.w3.org/2000/svg"><path fill-rule="evenodd" clip-rule="evenodd" d="M12 2c5.523 0 10 4.477 10 10s-4.477 10-10 10S2 17.523 2 12 6.477 2 12 2Zm0 1.6a8.4 8.4 0 1 0 0 16.8 8.4 8.4 0 0 0 0-16.8Zm.691 3.853a.736.736 0 0 0-.76-.671.829.829 0 0 0-.8.8l-.114 4.693.004.091a.736.736 0 0 0 .76.672l4.69-.113.09-.008a.83.83 0 0 0 .71-.793l-.003-.09a.737.737 0 0 0-.76-.673l-3.908.096.094-3.913-.003-.09Z" fill="#1D1D23"/></svg><svg viewBox="0 0 40 40" id="i-whatsapp" xmlns="http://www.w3.org/2000/svg"><g clip-path="url(#bea)"><path fill-rule="evenodd" clip-rule="evenodd" d="M19.998 10h.004C24.965 10 29 14.038 29 19s-4.035 9-8.998 9a8.923 8.923 0 0 1-4.95-1.487l-3.46 1.106 1.121-3.344A8.933 8.933 0 0 1 11 19c0-4.963 4.035-9 8.998-9Zm3.475 13.98c.687-.15 1.549-.658 1.766-1.27.217-.615.217-1.138.154-1.25-.05-.088-.17-.146-.35-.232l-.153-.075c-.264-.131-1.55-.767-1.793-.851-.238-.09-.466-.059-.646.195l-.102.144c-.217.306-.427.6-.6.788-.16.169-.418.19-.635.1l-.081-.033c-.344-.139-1.107-.447-2.03-1.269-.778-.693-1.307-1.555-1.46-1.814-.15-.26-.02-.412.1-.553l.006-.008c.077-.095.152-.175.227-.255.054-.057.109-.115.164-.179l.024-.027c.118-.136.189-.217.268-.386.09-.174.026-.354-.039-.487a87.01 87.01 0 0 1-.55-1.322l-.258-.625c-.175-.418-.308-.433-.572-.444l-.024-.002a5.247 5.247 0 0 0-.277-.009c-.345 0-.704.102-.92.323a2.52 2.52 0 0 1-.024.024c-.278.283-.897.912-.897 2.167 0 1.257.892 2.473 1.057 2.698l.012.016.056.08c.337.488 1.978 2.864 4.425 3.878 2.067.857 2.682.777 3.152.677Z"/></g><clipPath id="bea"><path transform="matrix(-1 0 0 1 40 0)" d="M0 0h40v40H0z"/></clipPath></svg></svg>