<?xml version="1.0" encoding="utf-8"?><svg viewBox="0 0 60 60" xmlns="http://www.w3.org/2000/svg" xmlns:xlink="http://www.w3.org/1999/xlink"><style>:root>svg{display:none}:root>svg:target{display:block}</style><svg viewBox="0 0 13 12" id="i-arrow" xmlns="http://www.w3.org/2000/svg"><path d="M7.145.343 12.802 6l-5.657 5.657-1.13-1.132 3.727-3.727H0v-1.6h9.738L6.014 1.475 7.145.343Z"/></svg><svg viewBox="0 0 40 40" id="i-arrow-circle" xmlns="http://www.w3.org/2000/svg"><path d="M20.145 14.343 25.802 20l-5.657 5.657-1.13-1.131 3.727-3.728H13v-1.6h9.738l-3.724-3.723 1.131-1.132Z"/></svg><svg viewBox="0 0 40 40" id="i-basket" xmlns="http://www.w3.org/2000/svg"><g clip-path="url(#aea)"><path fill-rule="evenodd" clip-rule="evenodd" d="M29 4a9 9 0 1 1-2.098 17.754l-1.49 7.808A3 3 0 0 1 22.465 32H9.535a3 3 0 0 1-2.947-2.438L4.227 17.187A1 1 0 0 1 5.209 16h4.007l.017-.22C9.57 12.073 12.48 9.2 16 9.2c1.62 0 3.104.606 4.269 1.616A9 9 0 0 1 29 4Zm-7.737 13.6H5.934L8.16 29.262a1.4 1.4 0 0 0 1.242 1.132l.133.006h12.93a1.4 1.4 0 0 0 1.344-1.008l.031-.13 1.53-8.024a9.036 9.036 0 0 1-3.922-3.341l-.185-.296Zm-10.437-1.674c.265-2.91 2.51-5.126 5.174-5.126 1.604 0 3.046.8 4.001 2.061L20 13l.004.265c.027.957.204 1.876.508 2.736L10.821 16l.005-.074Z"/></g><g clip-path="url(#aeb)"><circle cx="29" cy="13" r="10"/></g><defs><clipPath id="aea"><path transform="translate(4.209 4)" d="M0 0h33.791v28H0z"/></clipPath><clipPath id="aeb"><path transform="translate(19 3)" d="M0 0h20v20H0z"/></clipPath></defs></svg><svg viewBox="0 0 40 40" id="i-basket-hover" xmlns="http://www.w3.org/2000/svg"><path fill-rule="evenodd" clip-rule="evenodd" d="M38 13a9 9 0 0 0-17.731-2.184C19.104 9.806 17.62 9.2 16 9.2c-3.52 0-6.43 2.873-6.767 6.58l-.017.22H5.209a1 1 0 0 0-.982 1.187l2.361 12.375A3 3 0 0 0 9.535 32h12.93a3 3 0 0 0 2.947-2.438l1.49-7.808A9 9 0 0 0 38 13Zm-27.174 2.926c.265-2.91 2.51-5.126 5.174-5.126 1.604 0 3.046.8 4.001 2.061L20 13l.004.265c.028.957.205 1.876.508 2.736L10.821 16l.005-.074Z"/></svg><svg viewBox="0 0 24 23" id="i-basket-only" xmlns="http://www.w3.org/2000/svg"><path fill-rule="evenodd" clip-rule="evenodd" d="m18.234 6.78-.027-.247C17.782 3.08 15.12.408 11.853.21a4.378 4.378 0 0 0-.448 0C8.06.414 5.35 3.21 5.024 6.782L5.007 7H1a1 1 0 0 0-.982 1.187l2.361 12.375A3 3 0 0 0 5.326 23h12.606l.179-.005a3 3 0 0 0 2.768-2.433L23.24 8.187l.015-.115A1 1 0 0 0 22.258 7H18.25l-.017-.22ZM2.209 9l2.135 11.187a1 1 0 0 0 .982.813h12.576l.112-.003a1 1 0 0 0 .9-.81L21.049 9H2.209Zm14.036-2-.003-.036-.021-.201c-.326-2.592-2.29-4.423-4.488-4.555l-.025-.002a6.28 6.28 0 0 0-.153 0l-.03.002c-2.25.135-4.257 2.054-4.508 4.741L7.013 7h9.232Z"/></svg><svg viewBox="0 0 40 40" id="i-calc" xmlns="http://www.w3.org/2000/svg"><path fill-rule="evenodd" clip-rule="evenodd" d="M31.79 6C33.01 6 34 6.99 34 8.21v23.58c0 1.22-.99 2.21-2.21 2.21H8.21A2.21 2.21 0 0 1 6 31.79V8.21C6 6.99 6.99 6 8.21 6h23.58Zm0 1.4H8.21a.81.81 0 0 0-.804.709L7.4 8.21v23.578c0 .414.31.755.709.805l.102.006h23.578a.81.81 0 0 0 .805-.709l.006-.101V8.21a.81.81 0 0 0-.709-.804L31.79 7.4ZM17.67 23.306a.7.7 0 0 0-1.063-.904l-2.402 2.401-2.4-2.4-.087-.074a.7.7 0 0 0-.903 1.063l2.4 2.401-2.4 2.401-.074.087a.7.7 0 0 0 1.064.903l2.4-2.401 2.402 2.401.086.074a.7.7 0 0 0 .904-1.064l-2.402-2.401 2.402-2.4.073-.087Zm10.537 3.718a.7.7 0 0 1 .095 1.394l-.095.006h-5.794a.7.7 0 0 1-.096-1.393l.095-.007h5.795Zm.7-3.162a.7.7 0 0 0-.7-.7h-5.794l-.096.007a.7.7 0 0 0 .095 1.393h5.795l.095-.006a.7.7 0 0 0 .605-.694Zm-14.7-13.251a.7.7 0 0 1 .694.605l.006.095v2.197h2.195a.7.7 0 0 1 .095 1.394l-.095.006h-2.195v2.195a.7.7 0 0 1-1.393.095l-.007-.095v-2.195h-2.197a.7.7 0 0 1-.095-1.393l.095-.007h2.197v-2.197a.7.7 0 0 1 .7-.7Zm14.7 3.597a.7.7 0 0 0-.7-.7h-5.794l-.096.007a.7.7 0 0 0 .095 1.393h5.795l.095-.006a.7.7 0 0 0 .605-.694Z"/><g clip-path="url(#afa)"><path fill-rule="evenodd" clip-rule="evenodd" d="M31.79 6C33.01 6 34 6.99 34 8.21v23.58c0 1.22-.99 2.21-2.21 2.21H8.21A2.21 2.21 0 0 1 6 31.79V8.21C6 6.99 6.99 6 8.21 6h23.58Zm0 1.4H8.21a.81.81 0 0 0-.804.709L7.4 8.21v23.578c0 .414.31.755.709.805l.102.006h23.578a.81.81 0 0 0 .805-.709l.006-.101V8.21a.81.81 0 0 0-.709-.804L31.79 7.4ZM17.67 23.306a.7.7 0 0 0-1.063-.904l-2.402 2.401-2.4-2.4-.087-.074a.7.7 0 0 0-.903 1.063l2.4 2.401-2.4 2.401-.074.087a.7.7 0 0 0 1.064.903l2.4-2.401 2.402 2.401.086.074a.7.7 0 0 0 .904-1.064l-2.402-2.401 2.402-2.4.073-.087Zm10.537 3.718a.7.7 0 0 1 .095 1.394l-.095.006h-5.794a.7.7 0 0 1-.096-1.393l.095-.007h5.795Zm.7-3.162a.7.7 0 0 0-.7-.7h-5.794l-.096.007a.7.7 0 0 0 .095 1.393h5.795l.095-.006a.7.7 0 0 0 .605-.694Zm-14.7-13.251a.7.7 0 0 1 .694.605l.006.095v2.197h2.195a.7.7 0 0 1 .095 1.394l-.095.006h-2.195v2.195a.7.7 0 0 1-1.393.095l-.007-.095v-2.195h-2.197a.7.7 0 0 1-.095-1.393l.095-.007h2.197v-2.197a.7.7 0 0 1 .7-.7Zm14.7 3.597a.7.7 0 0 0-.7-.7h-5.794l-.096.007a.7.7 0 0 0 .095 1.393h5.795l.095-.006a.7.7 0 0 0 .605-.694Z"/></g><clipPath id="afa"><path d="M0 0h40v40H0z"/></clipPath></svg><svg viewBox="0 0 24 24" id="i-close" xmlns="http://www.w3.org/2000/svg"><path d="M2.4 0 0 2.4 9.6 12 0 21.6 2.4 24l9.6-9.6 9.6 9.6 2.4-2.4-9.6-9.6L24 2.4 21.6 0 12 9.6 2.4 0Z"/></svg><svg viewBox="0 0 24 24" id="i-copy" xmlns="http://www.w3.org/2000/svg"><g clip-path="url(#aha)"><path d="M16 20H8a3 3 0 0 1-3-3V7a1 1 0 0 0-2 0v10a5 5 0 0 0 5 5h8a1 1 0 0 0 0-2Zm5-11.06a1.307 1.307 0 0 0-.06-.27v-.09a1.07 1.07 0 0 0-.19-.28l-6-6a1.071 1.071 0 0 0-.28-.19h-.09L14.06 2H10a3 3 0 0 0-3 3v10a3 3 0 0 0 3 3h8a3 3 0 0 0 3-3V8.94Zm-6-3.53L17.59 8H16a1 1 0 0 1-1-1V5.41ZM19 15a1 1 0 0 1-1 1h-8a1 1 0 0 1-1-1V5a1 1 0 0 1 1-1h3v3a3 3 0 0 0 3 3h3v5Z"/></g><defs><clipPath id="aha"><path d="M0 0h24v24H0z"/></clipPath></defs></svg><svg viewBox="0 0 40 40" id="i-direct" xmlns="http://www.w3.org/2000/svg"><g clip-path="url(#aia)"><path d="m27.685 19.489-14.857-7.43a.575.575 0 0 0-.678.126.574.574 0 0 0-.065.685L16.472 20l-4.387 7.13a.572.572 0 0 0 .743.81l14.857-7.43a.572.572 0 0 0 0-1.021Z"/></g><clipPath id="aia"><path transform="matrix(-1 0 0 1 40 0)" d="M0 0h40v40H0z"/></clipPath></svg><svg viewBox="0 0 24 24" id="i-direct2" xmlns="http://www.w3.org/2000/svg"><path d="M12 2A10 10 0 0 0 2 12a9.89 9.89 0 0 0 2.26 6.33l-2 2a1 1 0 0 0-.21 1.09A1 1 0 0 0 3 22h9a10 10 0 0 0 0-20Zm0 18H5.41l.93-.93a1 1 0 0 0 0-1.41A8 8 0 1 1 12 20Z"/></svg><svg fill="none" viewBox="0 0 24 24" id="i-drop-down" xmlns="http://www.w3.org/2000/svg"><mask id="aka" style="mask-type:luminance" maskUnits="userSpaceOnUse" x="8" y="10" width="8" height="5"><path d="M8.223 11.367a.829.829 0 0 1 0-1.133.736.736 0 0 1 1.013-.062l.066.063 2.7 2.833 2.696-2.831a.737.737 0 0 1 1.012-.063l.067.063a.83.83 0 0 1 .059 1.062l-.06.07-3.236 3.396a.736.736 0 0 1-1.012.063l-.066-.063-3.239-3.398Z" fill="#fff"/></mask><g mask="url(#aka)"><path fill="#000" d="M24 0H0v24h24z"/></g></svg><svg viewBox="0 0 24 24" id="i-email" xmlns="http://www.w3.org/2000/svg"><g clip-path="url(#ala)"><path d="M12 2C6.48 2 2 6.48 2 12s4.48 10 10 10h5v-2h-5c-4.34 0-8-3.66-8-8s3.66-8 8-8 8 3.66 8 8v1.43c0 .79-.71 1.57-1.5 1.57s-1.5-.78-1.5-1.57V12c0-2.76-2.24-5-5-5s-5 2.24-5 5 2.24 5 5 5c1.38 0 2.64-.56 3.54-1.47.65.89 1.77 1.47 2.96 1.47 1.97 0 3.5-1.6 3.5-3.57V12c0-5.52-4.48-10-10-10Zm0 13c-1.66 0-3-1.34-3-3s1.34-3 3-3 3 1.34 3 3-1.34 3-3 3Z"/></g><defs><clipPath id="ala"><path d="M0 0h24v24H0z"/></clipPath></defs></svg><svg viewBox="0 0 48 48" id="i-facebook" xmlns="http://www.w3.org/2000/svg"><g clip-path="url(#ama)"><path fill-rule="evenodd" clip-rule="evenodd" d="M25.362 31v-7.03h2.534L28 21.442h-2.638v-1.852c0-.35.059-.628.176-.832.118-.203.399-.298.842-.284h1.558L28 16.118a5.47 5.47 0 0 0-.592-.054 10.139 10.139 0 0 1-.55-.03 8.083 8.083 0 0 0-.582-.022c-.609-.042-1.132.025-1.568.2a2.85 2.85 0 0 0-1.08.737 3.104 3.104 0 0 0-.634 1.084 3.845 3.845 0 0 0-.208 1.242v2.168H21v2.526h1.786V31h2.576Z"/></g><clipPath id="ama"><path d="M0 0h48v48H0z"/></clipPath></svg><svg viewBox="0 0 40 40" id="i-heart" xmlns="http://www.w3.org/2000/svg"><path fill-rule="evenodd" clip-rule="evenodd" d="m19.905 11.576.095.107.095-.107a7.272 7.272 0 0 1 8.714-1.561c3.515 1.819 4.969 6.126 3.296 9.745l-.138.277-.158.258-.093.143-.196.285-.22.3-.304.396-.341.42-.302.358-.494.566-.547.603-.396.427-.639.671-.457.472-.73.74-.787.782-.843.825-1.21 1.164-1.31 1.24-1.662 1.545c-.24.266-.551.448-.937.535l-.147.022-.153.011-.165-.004-.123-.013a1.746 1.746 0 0 1-.898-.42l-.086-.083-1.713-1.597-1.31-1.24-1.21-1.165-.843-.825-.787-.782-.73-.74-.459-.473-.639-.671-.397-.428-.55-.607-.494-.566-.303-.36-.405-.502-.242-.317-.22-.303-.194-.282-.094-.146-.177-.296c-1.837-3.641-.412-8.102 3.189-9.965a7.27 7.27 0 0 1 8.714 1.561Zm10.754 7.5c1.309-2.832.167-6.216-2.585-7.64l-.22-.108c-2.572-1.196-5.636-.3-7.18 2.112L20 14.493l-.674-1.053c-1.588-2.48-4.784-3.358-7.4-2.004-2.819 1.459-3.939 4.963-2.527 7.767l.134.22.07.11.17.248.195.268.219.286.382.474.283.336.474.544.533.588.385.414.627.66.448.46.72.73.777.773.833.816 1.201 1.155 1.301 1.232 1.72 1.602.053.055.022.02.022.01h.017l.043-.006c.024-.005.044-.017.11-.087l1.706-1.59 1.301-1.232 1.2-1.155.834-.815.777-.772.72-.73.448-.461.626-.659.384-.412.53-.585.475-.544.283-.336.318-.392.28-.363.194-.266.171-.25.179-.277.095-.196Z"/></svg><svg viewBox="0 0 40 40" id="i-heart-hover" xmlns="http://www.w3.org/2000/svg"><path fill-rule="evenodd" clip-rule="evenodd" d="m19.705 11.376.095.107.095-.107a7.271 7.271 0 0 1 8.714-1.562c3.516 1.82 4.969 6.127 3.296 9.745l-.138.277-.158.259-.093.143-.196.284-.22.301-.304.396-.34.42-.302.358-.495.566-.546.603-.397.427-.638.67-.458.472-.73.74-.787.782-.843.825-1.21 1.164-1.31 1.24-1.662 1.546c-.24.266-.551.447-.937.534l-.146.023-.154.01-.165-.004-.123-.013a1.746 1.746 0 0 1-.898-.419l-.086-.084-1.713-1.596-1.31-1.241-1.21-1.165-.843-.824-.787-.783-.73-.74-.459-.472-.639-.672-.397-.428-.55-.606-.494-.566-.303-.36-.405-.503-.242-.317-.22-.302-.194-.283-.094-.145-.177-.296c-1.837-3.642-.412-8.103 3.189-9.966a7.27 7.27 0 0 1 8.714 1.562Z"/></svg><svg viewBox="0 0 48 48" id="i-instagram" xmlns="http://www.w3.org/2000/svg"><g clip-path="url(#apa)"><path fill-rule="evenodd" clip-rule="evenodd" d="M28 13a7 7 0 0 1 7 7v7a7 7 0 0 1-7 7h-7a7 7 0 0 1-7-7v-7a7 7 0 0 1 7-7h7Zm0 2h-7a5 5 0 0 0-5 5v7a5 5 0 0 0 5 5h7a5 5 0 0 0 5-5v-7a5 5 0 0 0-5-5Zm1 8.5a4.5 4.5 0 1 0-9 0 4.5 4.5 0 0 0 9 0ZM24.5 21a2.5 2.5 0 1 0 0 5 2.5 2.5 0 0 0 0-5Zm6.5-2.5a1.5 1.5 0 1 0-3 0 1.5 1.5 0 0 0 3 0Z"/></g><clipPath id="apa"><path d="M0 0h48v48H0z"/></clipPath></svg><svg viewBox="0 0 16 16" id="i-item-delete" xmlns="http://www.w3.org/2000/svg"><path d="m10.487 5.673-.555 7.25a.625.625 0 0 1-1.246-.096l.555-7.25a.625.625 0 0 1 1.246.096Zm-3.728-.096a.625.625 0 0 0-1.246.096l.555 7.25a.625.625 0 0 0 1.246-.096l-.555-7.25Zm7.991-2.452c0 .345-.28.625-.625.625h-.671l-.893 11.673a.625.625 0 0 1-.623.577H4.061a.625.625 0 0 1-.623-.577L2.546 3.75h-.671a.625.625 0 1 1 0-1.25h3.063v-.656C4.938.827 5.764 0 6.78 0H9.22c1.016 0 1.844.827 1.844 1.844V2.5h3.062c.345 0 .625.28.625.625ZM6.187 2.5h3.625v-.656a.594.594 0 0 0-.593-.594H6.78a.594.594 0 0 0-.593.594V2.5ZM12.2 3.75H3.8l.841 11h6.717l.842-11Z"/></svg><svg fill="none" viewBox="0 0 60 60" id="i-like" xmlns="http://www.w3.org/2000/svg"><g filter="url(#ara)"><circle cx="30" cy="28" r="22" fill="#fff"/></g><path d="m30.5 22.648-.062-.071a4.83 4.83 0 0 0-5.788-1.037c-2.39 1.237-3.337 4.198-2.118 6.615l.118.196.063.097.128.187.146.201.161.21.27.334.2.24.329.375.364.402.265.284.424.446.304.314.485.49.523.52.56.547.803.773.87.824 1.138 1.06.057.055c.192.162.389.249.596.279l.082.008.11.003.102-.007.097-.015c.256-.058.463-.178.623-.355l1.103-1.025.87-.824.804-.772.56-.548.522-.519.485-.491.304-.313.424-.445.263-.284.363-.4.328-.375.2-.238.227-.279.202-.262.146-.2.13-.19.062-.094.105-.172.092-.184c1.11-2.401.145-5.26-2.19-6.468a4.831 4.831 0 0 0-5.787 1.037l-.062.07Z" stroke="#1D1D23" stroke-width="2"/><defs><filter id="ara" x="0" y="0" width="60" height="60" filterUnits="userSpaceOnUse" color-interpolation-filters="sRGB"><feFlood flood-opacity="0" result="BackgroundImageFix"/><feColorMatrix in="SourceAlpha" values="0 0 0 0 0 0 0 0 0 0 0 0 0 0 0 0 0 0 127 0" result="hardAlpha"/><feMorphology radius="4" in="SourceAlpha" result="effect1_dropShadow_22_13827"/><feOffset dy="2"/><feGaussianBlur stdDeviation="6"/><feColorMatrix values="0 0 0 0 0 0 0 0 0 0 0 0 0 0 0 0 0 0 0.2 0"/><feBlend in2="BackgroundImageFix" result="effect1_dropShadow_22_13827"/><feBlend in="SourceGraphic" in2="effect1_dropShadow_22_13827" result="shape"/></filter></defs></svg><svg fill="none" viewBox="0 0 40 40" id="i-menu" xmlns="http://www.w3.org/2000/svg"><mask id="asa" style="mask-type:luminance" maskUnits="userSpaceOnUse" x="8" y="13" width="24" height="14"><path fill-rule="evenodd" clip-rule="evenodd" d="M8 14a1 1 0 0 1 1-1h22a1 1 0 1 1 0 2H9a1 1 0 0 1-1-1Zm0 6a1 1 0 0 1 1-1h22a1 1 0 1 1 0 2H9a1 1 0 0 1-1-1Zm1 5a1 1 0 1 0 0 2h22a1 1 0 1 0 0-2H9Z" fill="#fff"/></mask><g mask="url(#asa)"><path fill="#1D1D23" d="M0 0h40v40H0z"/></g></svg><svg viewBox="0 0 40 40" id="i-messenger" xmlns="http://www.w3.org/2000/svg"><g clip-path="url(#mask0_67_18402)"><path fill-rule="evenodd" clip-rule="evenodd" d="M30 19.26C30 14.144 25.523 10 20 10s-10 4.145-10 9.26c0 2.895 1.436 5.48 3.684 7.178V30l3.356-1.893c.935.267 1.93.411 2.96.411 5.523 0 10-4.145 10-9.259Zm-8.48.089 4.854-2.626-5.362 5.667-2.565-2.673-4.908 2.673 5.393-5.667 2.589 2.626Z"/></g></svg><svg viewBox="0 0 24 24" id="i-messenger2" xmlns="http://www.w3.org/2000/svg"><g clip-path="url(#aua)"><path d="M5.656 24a1.822 1.822 0 0 1-1.823-1.766l-.059-1.94C1.341 18.112 0 15.049 0 11.669c0-3.226 1.237-6.193 3.481-8.354C5.703 1.177 8.728 0 12 0c3.272 0 6.297 1.177 8.519 3.315C22.764 5.476 24 8.443 24 11.67c0 3.226-1.236 6.192-3.481 8.353-2.222 2.138-5.247 3.316-8.519 3.316-1.18 0-2.334-.153-3.431-.453l-2.178.96a1.829 1.829 0 0 1-.735.155ZM12 1.875c-5.772 0-10.125 4.21-10.125 9.794 0 2.844 1.123 5.415 3.162 7.239.376.339.592.798.61 1.294v.006l.058 1.89 2.124-.936a1.83 1.83 0 0 1 1.215-.091c.943.26 1.937.392 2.956.392 5.772 0 10.125-4.21 10.125-9.794 0-5.584-4.353-9.794-10.125-9.794ZM6.1 15.5l3.504-2.702a.67.67 0 0 1 .802-.002l2.592 2.016c.777.58 1.89.375 2.407-.443l3.26-5.167c.314-.494-.298-1.051-.765-.698l-3.502 2.654a.669.669 0 0 1-.801.002l-2.593-1.968a1.671 1.671 0 0 0-2.407.442L5.337 14.8c-.315.493.296 1.051.763.698Z"/></g><defs><clipPath id="aua"><path d="M0 0h24v24H0z"/></clipPath></defs></svg><svg fill="none" viewBox="0 0 8 2" id="i-minus" xmlns="http://www.w3.org/2000/svg"><rect width="8" height="2" rx="1" fill="#1D1D23"/></svg><svg fill="none" viewBox="0 0 40 40" id="i-navigator" xmlns="http://www.w3.org/2000/svg"><mask id="awa" style="mask-type:luminance" maskUnits="userSpaceOnUse" x="13" y="13" width="15" height="15"><path fill-rule="evenodd" clip-rule="evenodd" d="M26.955 13.053a.76.76 0 0 1 .821.174c.206.22.285.536.174.82L22.614 27.51a.75.75 0 0 1-.71.489h-.016a.788.788 0 0 1-.71-.505l-2.069-5.597-5.604-2.065a.764.764 0 0 1-.505-.71.77.77 0 0 1 .49-.725l13.465-5.345Zm-6.535 7.978 1.5 4.052 3.946-9.949-9.961 3.942 4.057 1.498a.771.771 0 0 1 .458.457Z" fill="#fff"/></mask><g mask="url(#awa)"><path fill="#000" d="M0 0h40v40H0z"/></g></svg><svg viewBox="0 0 40 40" id="i-open-fancybox" xmlns="http://www.w3.org/2000/svg"><path fill-rule="evenodd" clip-rule="evenodd" d="M18.4 14a.6.6 0 0 1 .6.6v.8a.6.6 0 0 1-.6.6H16v2.4a.6.6 0 0 1-.6.6h-.8a.6.6 0 0 1-.6-.6v-3.8a.6.6 0 0 1 .6-.6h3.8Zm.6 11.4a.6.6 0 0 1-.6.6h-3.8a.6.6 0 0 1-.6-.6v-3.8a.6.6 0 0 1 .6-.6h.8a.6.6 0 0 1 .6.6V24h2.4a.6.6 0 0 1 .6.6v.8Zm2 0a.6.6 0 0 0 .6.6h3.8a.6.6 0 0 0 .6-.6v-3.8a.6.6 0 0 0-.6-.6h-.8a.6.6 0 0 0-.6.6V24h-2.4a.6.6 0 0 0-.6.6v.8Zm0-10.8a.6.6 0 0 1 .6-.6h3.8a.6.6 0 0 1 .6.6v3.8a.6.6 0 0 1-.6.6h-.8a.6.6 0 0 1-.6-.6V16h-2.4a.6.6 0 0 1-.6-.6v-.8Z"/></svg><svg viewBox="0 0 24 24" id="i-phone" xmlns="http://www.w3.org/2000/svg"><g clip-path="url(#aya)"><path d="M9.7 7.115c.258.257.517.513.773.772.452.456.453.987.003 1.44-.323.324-.644.65-.973.968-.087.084-.094.153-.05.259.216.52.528.979.88 1.411.707.869 1.506 1.64 2.46 2.238.203.128.429.221.642.337.109.06.184.04.272-.05.322-.333.651-.659.98-.985.431-.427.972-.428 1.405.001.53.524 1.056 1.05 1.58 1.579.44.443.436.984-.006 1.43-.299.302-.615.588-.897.904-.412.46-.928.61-1.518.577-.858-.047-1.65-.332-2.412-.702a13.13 13.13 0 0 1-4.354-3.407c-.896-1.066-1.636-2.227-2.123-3.537-.236-.634-.404-1.283-.353-1.97.032-.424.191-.784.503-1.081.336-.32.655-.656.986-.98.432-.426.973-.425 1.407 0 .268.263.53.53.796.796Z"/></g><clipPath id="aya"><path transform="matrix(-1 0 0 1 24 0)" d="M0 0h24v24H0z"/></clipPath></svg><svg viewBox="0 0 24 24" id="i-pin" xmlns="http://www.w3.org/2000/svg"><path fill-rule="evenodd" clip-rule="evenodd" d="M8.61 6.572c2.228-2.16 5.857-2.094 7.99.195 2.002 2.134 1.815 5.477-.293 7.52l-2.774 3.303c-.56.547-1.48.547-2.041 0L8.61 14.182a5.3 5.3 0 0 1 0-7.61Zm1.335 3.825c0 1.378 1.147 2.484 2.547 2.484 1.414 0 2.548-1.106 2.548-2.484 0-1.38-1.147-2.485-2.548-2.485-1.414 0-2.547 1.106-2.547 2.485Z"/></svg><svg viewBox="0 0 48 48" id="i-pinterest" xmlns="http://www.w3.org/2000/svg"><path fill-rule="evenodd" clip-rule="evenodd" d="M30.924 19.738C30.54 16.903 28.022 15 24.66 15c-.328 0-.663.018-.993.056-3.556.404-5.571 3.323-5.661 5.864-.082 2.281.704 3.574 2.4 3.957l.089.019.045-.08c.555-.996.248-1.511-.05-2.009-.148-.249-.302-.507-.355-.838-.197-1.239.148-2.462.97-3.445.912-1.088 2.327-1.763 3.692-1.763 1.076 0 2.036.403 2.775 1.166 1.148 1.183 1.102 3.75.402 5.45-.613 1.486-1.649 2.231-2.804 2.001-.416-.085-.694-.256-.849-.522-.349-.603-.021-1.652.297-2.667.445-1.42.905-2.889-.369-3.401-.85-.344-1.656 0-2.158.895-.558.997-.604 2.398-.111 3.284-.143.708-.324 1.391-.515 2.114-.537 2.033-1.092 4.136-.735 6.714l.029.205.165-.122c1.556-1.148 2.095-3.264 2.528-5.537.134.086.257.172.375.257.508.358.946.666 1.729.728.129.01.256.015.381.015 1.328 0 2.512-.562 3.425-1.624 1.263-1.473 1.861-3.764 1.562-5.979Z"/><g clip-path="url(#baa)"><path fill-rule="evenodd" clip-rule="evenodd" d="M30.924 19.738C30.54 16.903 28.022 15 24.66 15c-.328 0-.663.018-.993.056-3.556.404-5.571 3.323-5.661 5.864-.082 2.281.704 3.574 2.4 3.957l.089.019.045-.08c.555-.996.248-1.511-.05-2.009-.148-.249-.302-.507-.355-.838-.197-1.239.148-2.462.97-3.445.912-1.088 2.327-1.763 3.692-1.763 1.076 0 2.036.403 2.775 1.166 1.148 1.183 1.102 3.75.402 5.45-.613 1.486-1.649 2.231-2.804 2.001-.416-.085-.694-.256-.849-.522-.349-.603-.021-1.652.297-2.667.445-1.42.905-2.889-.369-3.401-.85-.344-1.656 0-2.158.895-.558.997-.604 2.398-.111 3.284-.143.708-.324 1.391-.515 2.114-.537 2.033-1.092 4.136-.735 6.714l.029.205.165-.122c1.556-1.148 2.095-3.264 2.528-5.537.134.086.257.172.375.257.508.358.946.666 1.729.728.129.01.256.015.381.015 1.328 0 2.512-.562 3.425-1.624 1.263-1.473 1.861-3.764 1.562-5.979Z"/></g><clipPath id="baa"><path d="M0 0h48v48H0z"/></clipPath></svg><svg fill="none" viewBox="0 0 8 8" id="i-plus" xmlns="http://www.w3.org/2000/svg"><path d="M4 0a1 1 0 0 0-1 1v2H1a1 1 0 1 0 0 2h2v2a1 1 0 1 0 2 0V5h2a1 1 0 1 0 0-2H5V1a1 1 0 0 0-1-1Z" fill="#1D1D23"/></svg><svg fill="none" viewBox="0 0 56 36" id="i-quote" xmlns="http://www.w3.org/2000/svg"><path d="M26.827 34.384c2.346-5.192 5.327-10.874 8.943-17.045A570.57 570.57 0 0 1 46.325 0H56a4068.33 4068.33 0 0 0-7.77 18.514C45.494 25.078 43.246 30.906 41.487 36H27.414l-.587-1.616ZM0 34.384c2.346-5.192 5.277-10.874 8.796-17.045A426.264 426.264 0 0 1 19.204 0h9.822a4079.269 4079.269 0 0 0-7.77 18.514C18.618 25.078 16.37 30.906 14.513 36H.44L0 34.384Z" fill="#FF6662"/></svg><svg viewBox="0 0 40 40" id="i-search" xmlns="http://www.w3.org/2000/svg"><path fill-rule="evenodd" clip-rule="evenodd" d="M26.778 11.222c-4.296-4.296-11.26-4.296-15.556 0-4.296 4.296-4.296 11.26 0 15.556 4.105 4.106 10.649 4.288 14.97.546l4.263 4.262 1.132-1.13-4.264-4.264c3.742-4.321 3.56-10.865-.545-14.97ZM12.353 25.647a9.4 9.4 0 1 1 13.294-13.294 9.4 9.4 0 0 1-13.294 13.294Z"/></svg><svg viewBox="0 0 22 6" id="i-share-more" xmlns="http://www.w3.org/2000/svg"><circle cx="3" cy="3" r="3"/><circle cx="11" cy="3" r="3"/><circle cx="19" cy="3" r="3"/></svg><svg fill="none" viewBox="0 0 24 24" id="i-sub-menu-success" xmlns="http://www.w3.org/2000/svg"><rect x=".5" y=".5" width="23" height="23" rx="11.5" stroke="#fff"/><path d="m16.765 9.138-5.627 5.627L8 11.627" stroke="#fff" stroke-width="2" stroke-linecap="round" stroke-linejoin="round"/></svg><svg viewBox="0 0 40 40" id="i-telegram" xmlns="http://www.w3.org/2000/svg"><g clip-path="url(#bga)"><path d="m16.455 22.545-.314 4.467c.45 0 .645-.195.878-.43l2.108-2.035 4.369 3.232c.801.452 1.366.214 1.582-.744l2.867-13.578h.001c.254-1.198-.428-1.666-1.209-1.372l-16.855 6.52c-1.15.452-1.133 1.1-.195 1.394l4.309 1.354 10.009-6.329c.471-.315.9-.14.547.175l-8.097 7.346Z"/></g><clipPath id="bga"><path transform="matrix(-1 0 0 1 40 0)" d="M0 0h40v40H0z"/></clipPath></svg><svg viewBox="0 0 24 24" id="i-telegram2" xmlns="http://www.w3.org/2000/svg"><path d="M22.265 2.428a2.048 2.048 0 0 0-2.079-.324L2.266 9.339a2.043 2.043 0 0 0 .104 3.818l3.625 1.261 2.02 6.682c.028.089.068.174.119.252.008.012.019.021.027.033a.988.988 0 0 0 .281.265c.095.063.2.11.31.136l.013.001.006.003c.067.014.135.02.203.02l.018-.003a.992.992 0 0 0 .301-.052c.023-.008.042-.02.064-.03a.994.994 0 0 0 .205-.114l.152-.129 2.702-2.983 4.03 3.122c.355.276.792.427 1.241.427a2.054 2.054 0 0 0 2.008-1.633l3.263-16.017a2.03 2.03 0 0 0-.693-1.97ZM9.37 14.736a.994.994 0 0 0-.272.506l-.31 1.504-.784-2.593 4.065-2.117-2.699 2.7Zm8.302 5.304-4.763-3.69a1.001 1.001 0 0 0-1.353.12l-.866.955.306-1.487 7.083-7.083a1 1 0 0 0-1.169-1.593L6.745 12.554 3.02 11.191 21 4 17.672 20.04Z"/></svg><svg viewBox="0 0 16 16" id="i-tooltip-plus" xmlns="http://www.w3.org/2000/svg"><path fill-rule="evenodd" clip-rule="evenodd" d="M8 0a1 1 0 0 0-1 1v6H1a1 1 0 1 0 0 2h6v6a1 1 0 1 0 2 0V9h6a1 1 0 1 0 0-2H9V1a1 1 0 0 0-1-1Z"/></svg><svg viewBox="0 0 48 48" id="i-twitter" xmlns="http://www.w3.org/2000/svg"><g clip-path="url(#bja)"><path fill-rule="evenodd" clip-rule="evenodd" d="M32.5 18.649a6.56 6.56 0 0 1-1.945.554 3.502 3.502 0 0 0 1.489-1.946 6.626 6.626 0 0 1-2.15.853 3.32 3.32 0 0 0-2.47-1.11c-2.185 0-3.792 2.118-3.298 4.318-2.813-.146-5.308-1.546-6.978-3.675-.886 1.58-.46 3.65 1.049 4.697a3.277 3.277 0 0 1-1.534-.44c-.037 1.629 1.087 3.154 2.715 3.492a3.266 3.266 0 0 1-1.529.06c.431 1.399 1.68 2.416 3.163 2.444A6.628 6.628 0 0 1 16 29.353a9.328 9.328 0 0 0 5.189 1.58c6.285 0 9.836-5.516 9.621-10.464a7.037 7.037 0 0 0 1.69-1.82Z"/></g><clipPath id="bja"><path d="M0 0h48v48H0z"/></clipPath></svg><svg viewBox="0 0 24 24" id="i-twitter2" xmlns="http://www.w3.org/2000/svg"><path d="M22.991 3.95a1 1 0 0 0-1.51-.86 7.479 7.479 0 0 1-1.874.794 5.152 5.152 0 0 0-3.374-1.242 5.232 5.232 0 0 0-5.223 5.063 11.032 11.032 0 0 1-6.814-3.924 1.012 1.012 0 0 0-.857-.365.998.998 0 0 0-.785.5 5.275 5.275 0 0 0-.243 4.769l-.001.002a1.041 1.041 0 0 0-.496.888 3.04 3.04 0 0 0 .027.44 5.185 5.185 0 0 0 1.568 3.312.999.999 0 0 0-.066.77 5.204 5.204 0 0 0 2.362 2.921 7.465 7.465 0 0 1-3.59.449A1 1 0 0 0 1.45 19.3a12.942 12.942 0 0 0 7.01 2.061 12.788 12.788 0 0 0 12.465-9.363c.353-1.183.533-2.412.535-3.646l-.001-.2a5.77 5.77 0 0 0 1.532-4.202Zm-3.306 3.212a.996.996 0 0 0-.234.702c.01.165.009.331.009.488a10.822 10.822 0 0 1-.454 3.08 10.684 10.684 0 0 1-10.546 7.93c-.86 0-1.715-.101-2.55-.301a9.48 9.48 0 0 0 2.942-1.564 1.001 1.001 0 0 0-.602-1.786 3.208 3.208 0 0 1-2.214-.935c.15-.028.298-.063.445-.105a1 1 0 0 0-.08-1.944 3.197 3.197 0 0 1-2.25-1.725c.181.025.363.04.545.046a1.022 1.022 0 0 0 .984-.696 1 1 0 0 0-.4-1.137A3.196 3.196 0 0 1 3.86 6.344a13.014 13.014 0 0 0 8.21 3.48 1.02 1.02 0 0 0 .817-.36 1 1 0 0 0 .206-.867 3.153 3.153 0 0 1-.087-.729 3.23 3.23 0 0 1 4.506-2.962c.403.176.766.433 1.065.756a.993.993 0 0 0 .921.298c.41-.08.816-.188 1.212-.322a6.683 6.683 0 0 1-1.026 1.524Z"/></svg><svg viewBox="0 0 40 40" id="i-viber" xmlns="http://www.w3.org/2000/svg"><path d="M20.829 14.131a2.128 2.128 0 0 0-.156-.014c-.236-.017-.726-.052-.697-.545.013-.214.111-.572.629-.572.057 0 .114.004.165.007h.009c.04.003.077.006.108.006.02 0 .032-.001.039-.002a.233.233 0 0 1 .039-.002c3.25.107 6.066 2.98 6.026 6.147 0 .042.002.09.004.14v.003c.01.21.022.471-.151.648a.553.553 0 0 1-.412.152h-.017c-.555-.011-.563-.514-.567-.756a1.77 1.77 0 0 0-.01-.185c-.402-3.098-1.853-4.554-5.01-5.027Z"/><path d="M21.261 14.841c2.14.25 3.866 2.06 3.849 4.034l-.002.027c-.005.036-.003.09-.001.146.007.203.022.626-.453.696a.936.936 0 0 1-.135.01c-.51 0-.539-.461-.552-.683-.004-.059-.008-.115-.015-.16-.317-1.856-.964-2.514-2.886-2.932-.046-.01-.101-.017-.16-.025h-.004c-.205-.028-.46-.062-.606-.255a.542.542 0 0 1-.085-.434c.03-.179.148-.479.587-.479.11 0 .22.018.325.035.05.008.096.015.138.02ZM25.686 23.161a9.65 9.65 0 0 1-.201-.153c-.345-.27-.711-.518-1.065-.759l-.221-.15c-.454-.31-.863-.462-1.248-.462-.52 0-.973.28-1.347.831-.166.244-.367.363-.614.363-.147 0-.313-.04-.495-.12-1.466-.648-2.512-1.64-3.111-2.95-.29-.634-.196-1.048.314-1.385.289-.19.827-.547.789-1.228-.043-.774-1.796-3.102-2.535-3.367a1.475 1.475 0 0 0-.979-.002c-.849.278-1.458.766-1.762 1.412-.294.623-.28 1.356.038 2.118.922 2.203 2.217 4.123 3.85 5.708 1.6 1.552 3.566 2.823 5.843 3.777.205.086.42.133.577.167l.012.003c.049.01.09.02.122.028a.233.233 0 0 0 .057.008h.018c1.07 0 2.357-.953 2.752-2.04.346-.95-.286-1.421-.794-1.799Z"/><path d="M21.147 16.633c.486-.011 1.02.236 1.464.674.441.437.701.986.695 1.47.016.462-.157.718-.515.76a.56.56 0 0 1-.067.004c-.297 0-.529-.234-.563-.57-.074-.717-.443-1.104-1.161-1.216-.198-.032-.416-.088-.53-.273-.077-.126-.085-.28-.022-.457.134-.378.515-.387.699-.392Z"/></svg><svg viewBox="0 0 24 24" id="i-viber2" xmlns="http://www.w3.org/2000/svg"><g clip-path="url(#bma)"><path d="M6.328 20.378c-.031 1.465-.204 3.14 1.071 3.543 1.25.407 1.975-.598 3.605-2.638 6.078.415 11.443-1.294 12.161-7.42.643-5.448-.188-9.523-2.327-11.462C17.701-.605 7.49-1.026 3.752 2.547 2.213 4.148 1.463 6.497 1.393 9.94c-.057 2.812-.173 8.562 4.935 10.438ZM2.893 9.971C2.955 6.928 3.571 4.9 4.81 3.61 7.931.627 17.18.972 19.815 3.5c1.759 1.593 2.438 5.306 1.861 10.187-.524 4.476-3.406 5.24-4.491 5.527a18.66 18.66 0 0 1-6.444.544c-.541-.058-.754.454-.951.64-.979 1.177-1.685 2.027-1.868 2.141-.135-.2-.114-1.152-.098-1.916-.049-.344.259-1.295-.544-1.51-4.545-1.342-4.442-6.415-4.387-9.142Z"/><path d="M5.762 7.98c.801 1.598 1.582 4.42 4.581 6.876 1.041.858 4.157 2.838 5.377 2.838 1.743 0 3.734-2.742 2.276-3.965-.656-.641-1.579-1.272-2.171-1.62h-.002c-1.537-.89-2.379.747-2.479.81-2.252 2.017-5.026-1.485-3.082-3.18.239-.296 1.665-.984.819-2.548-.75-1.357-1.245-1.824-1.525-2.211-1.477-1.844-4.673 1.219-3.794 3Zm9.174 5.374c.102.064.991.453 2.052 1.486.135.113-.765 1.42-1.338 1.346-.113-.051-.93-.246-2.685-1.32 1.666-.565 1.652-1.452 1.971-1.512ZM8.27 5.929c.062-.033.094-.035.091-.043.288.4.718.783 1.404 2.024.182.337-.267.468-.557.764a3.302 3.302 0 0 0-.902 1.283c-.614-1.16-.889-1.994-1.169-2.578-.112-.532.657-1.178 1.133-1.45Z"/><path d="M12.812 8.55c.011 0 1.099.14 1.294 1.31.165.995 1.641.728 1.479-.245-.303-1.82-1.834-2.467-2.603-2.555-.985-.111-1.154 1.376-.17 1.49Z"/><path d="M12.031 5.315c.017 0 2.378-.042 3.915 1.602 1.518 1.624 1.183 3.985 1.18 4.006-.153.973 1.325 1.231 1.481.233.02-.125.461-3.096-1.565-5.264-2.011-2.152-4.936-2.085-5.057-2.077-1.025.034-.901 1.578.046 1.5Z"/></g><defs><clipPath id="bma"><path d="M0 0h24v24H0z"/></clipPath></defs></svg><svg fill="none" viewBox="0 0 24 24" id="i-watch" xmlns="http://www.w3.org/2000/svg"><path fill-rule="evenodd" clip-rule="evenodd" d="M12 2c5.523 0 10 4.477 10 10s-4.477 10-10 10S2 17.523 2 12 6.477 2 12 2Zm0 1.6a8.4 8.4 0 1 0 0 16.8 8.4 8.4 0 0 0 0-16.8Zm.691 3.853a.736.736 0 0 0-.76-.671.829.829 0 0 0-.8.8l-.114 4.693.004.091a.736.736 0 0 0 .76.672l4.69-.113.09-.008a.83.83 0 0 0 .71-.793l-.003-.09a.737.737 0 0 0-.76-.673l-3.908.096.094-3.913-.003-.09Z" fill="#1D1D23"/></svg><svg viewBox="0 0 40 40" id="i-whatsapp" xmlns="http://www.w3.org/2000/svg"><g clip-path="url(#boa)"><path fill-rule="evenodd" clip-rule="evenodd" d="M19.998 10h.004C24.965 10 29 14.038 29 19s-4.035 9-8.998 9a8.923 8.923 0 0 1-4.95-1.487l-3.46 1.106 1.121-3.344A8.933 8.933 0 0 1 11 19c0-4.963 4.035-9 8.998-9Zm3.475 13.98c.687-.15 1.549-.658 1.766-1.27.217-.615.217-1.138.154-1.25-.05-.088-.17-.146-.35-.232l-.153-.075c-.264-.131-1.55-.767-1.793-.851-.238-.09-.466-.059-.646.195l-.102.144c-.217.306-.427.6-.6.788-.16.169-.418.19-.635.1l-.081-.033c-.344-.139-1.107-.447-2.03-1.269-.778-.693-1.307-1.555-1.46-1.814-.15-.26-.02-.412.1-.553l.006-.008c.077-.095.152-.175.227-.255.054-.057.109-.115.164-.179l.024-.027c.118-.136.189-.217.268-.386.09-.174.026-.354-.039-.487a87.01 87.01 0 0 1-.55-1.322l-.258-.625c-.175-.418-.308-.433-.572-.444l-.024-.002a5.247 5.247 0 0 0-.277-.009c-.345 0-.704.102-.92.323a2.52 2.52 0 0 1-.024.024c-.278.283-.897.912-.897 2.167 0 1.257.892 2.473 1.057 2.698l.012.016.056.08c.337.488 1.978 2.864 4.425 3.878 2.067.857 2.682.777 3.152.677Z"/></g><clipPath id="boa"><path transform="matrix(-1 0 0 1 40 0)" d="M0 0h40v40H0z"/></clipPath></svg><svg viewBox="0 0 24 24" id="i-whatsapp2" xmlns="http://www.w3.org/2000/svg"><path d="M16.6 14c-.2-.1-1.5-.7-1.7-.8-.2-.1-.4-.1-.6.1-.2.2-.6.8-.8 1-.1.2-.3.2-.5.1-.7-.3-1.4-.7-2-1.2-.5-.5-1-1.1-1.4-1.7-.1-.2 0-.4.1-.5.1-.1.2-.3.4-.4.1-.1.2-.3.2-.4.1-.1.1-.3 0-.4-.1-.1-.6-1.3-.8-1.8-.1-.7-.3-.7-.5-.7h-.5c-.2 0-.5.2-.6.3-.6.6-.9 1.3-.9 2.1.1.9.4 1.8 1 2.6 1.1 1.6 2.5 2.9 4.2 3.7.5.2.9.4 1.4.5.5.2 1 .2 1.6.1.7-.1 1.3-.6 1.7-1.2.2-.4.2-.8.1-1.2l-.4-.2Zm2.5-9.1C15.2 1 8.9 1 5 4.9c-3.2 3.2-3.8 8.1-1.6 12L2 22l5.3-1.4c1.5.8 3.1 1.2 4.7 1.2 5.5 0 9.9-4.4 9.9-9.9.1-2.6-1-5.1-2.8-7Zm-2.7 14c-1.3.8-2.8 1.3-4.4 1.3-1.5 0-2.9-.4-4.2-1.1l-.3-.2-3.1.8.8-3-.2-.3c-2.4-4-1.2-9 2.7-11.5 3.9-2.5 8.9-1.2 11.3 2.6 2.4 3.9 1.3 9-2.6 11.4Z"/></svg></svg>