<svg width="400" height="220" viewBox="0 0 400 220" fill="none" xmlns="http://www.w3.org/2000/svg">
<path d="M113.183 124.662C113.183 124.459 113.031 124.459 112.828 124.459C112.524 124.459 112.119 124.409 111.714 124.358C111.157 124.206 110.347 123.852 109.334 121.421C107.612 117.318 103.256 106.278 102.649 104.809C102.395 104.201 102.193 103.948 101.99 103.948C101.737 103.948 101.534 104.252 101.23 105.011L94.4439 121.978C93.8868 123.345 93.3804 124.257 92.1649 124.409C91.9623 124.459 91.5571 124.459 91.3039 124.459C91.1013 124.459 91 124.51 91 124.662C91 124.865 91.1519 124.915 91.5065 124.915C92.9245 124.915 94.3933 124.814 94.6971 124.814C95.5581 124.814 96.723 124.915 97.5839 124.915C97.8878 124.915 98.0398 124.865 98.0398 124.662C98.0398 124.51 97.9385 124.459 97.6346 124.459H97.2294C96.3684 124.459 96.1659 124.105 96.1659 123.598C96.1659 123.295 96.3178 122.636 96.571 121.927L98.0398 118.078C98.0904 117.926 98.141 117.875 98.293 117.875H104.32C104.472 117.875 104.522 117.926 104.573 118.078L106.751 123.801C106.903 124.105 106.7 124.358 106.498 124.409C106.244 124.459 106.143 124.51 106.143 124.662C106.143 124.865 106.447 124.865 106.953 124.865C109.131 124.915 111.106 124.915 112.069 124.915C112.98 124.966 113.183 124.865 113.183 124.662ZM103.712 116.508H98.7488C98.6475 116.508 98.5969 116.407 98.6475 116.305L101.129 109.671C101.18 109.57 101.23 109.418 101.281 109.418C101.382 109.418 101.382 109.57 101.433 109.671L103.864 116.356C103.864 116.457 103.864 116.508 103.712 116.508ZM120.223 117.774L122.35 117.825C122.502 117.825 122.654 117.875 122.806 117.977C123.109 118.331 124.122 119.851 125.034 121.117C126.351 122.889 127.262 124.004 128.275 124.51C128.883 124.814 129.541 124.966 130.858 124.966H133.137C133.441 124.966 133.593 124.915 133.593 124.713C133.593 124.611 133.492 124.459 133.289 124.459C133.087 124.459 132.985 124.459 132.732 124.409C132.378 124.307 131.517 124.206 130.2 122.889C128.782 121.471 127.11 119.395 124.983 116.761C127.313 114.887 128.275 113.368 128.275 111.697C128.275 110.177 127.262 109.012 126.604 108.557C125.338 107.696 123.616 107.594 122.096 107.594C121.387 107.594 119.21 107.645 118.399 107.645C117.893 107.645 116.424 107.594 115.158 107.594C114.803 107.594 114.601 107.645 114.601 107.797C114.601 107.949 114.753 108.05 115.006 108.05C115.361 108.05 115.766 108.101 115.968 108.151C116.728 108.354 116.931 108.607 116.981 109.418C117.032 110.127 117.032 110.785 117.032 114.28V118.331C117.032 120.458 117.032 122.231 116.931 123.244C116.829 123.902 116.728 124.358 116.222 124.459C116.019 124.51 115.715 124.561 115.361 124.561C115.057 124.561 114.955 124.713 114.955 124.814C114.955 124.966 115.107 125.067 115.411 125.067C116.374 125.067 117.893 124.966 118.349 124.966C118.703 124.966 120.678 125.067 122.046 125.067C122.35 125.067 122.552 124.966 122.552 124.814C122.552 124.713 122.451 124.561 122.248 124.561C121.945 124.561 121.438 124.51 121.084 124.459C120.375 124.358 120.223 123.902 120.172 123.244C120.071 122.282 120.02 120.509 120.02 118.331V118.027C120.02 117.825 120.121 117.774 120.223 117.774ZM120.02 109.164C120.02 108.962 120.071 108.911 120.223 108.86C120.476 108.81 121.033 108.759 121.641 108.759C123.059 108.759 125.287 109.62 125.287 112.861C125.287 114.735 124.477 115.748 123.768 116.255C123.363 116.559 123.059 116.609 122.096 116.609C121.489 116.609 120.78 116.559 120.273 116.407C120.121 116.305 120.071 116.255 120.071 116.002V109.164H120.02ZM140.076 109.772C141.139 108.86 142.507 108.455 144.583 108.455C146.761 108.455 148.382 109.012 149.192 109.823C149.8 110.43 150.104 111.241 150.104 111.95C150.104 112.254 150.154 112.456 150.357 112.456C150.559 112.456 150.661 112.203 150.661 111.899C150.711 111.443 150.711 110.177 150.762 109.418C150.813 108.607 150.863 108.354 150.863 108.151C150.863 107.999 150.762 107.898 150.509 107.898C149.8 107.797 149.04 107.645 148.128 107.544C147.065 107.392 146.153 107.29 144.684 107.29C141.139 107.29 138.86 108.202 137.138 109.721C134.859 111.747 134.353 114.432 134.353 116.002C134.353 118.23 134.96 120.813 137.341 122.788C139.519 124.611 142.253 125.27 145.495 125.27C147.014 125.27 148.837 125.118 149.8 124.763C150.205 124.611 150.306 124.51 150.407 124.105C150.661 123.345 150.914 121.319 150.914 121.066C150.914 120.864 150.813 120.661 150.661 120.661C150.458 120.661 150.407 120.762 150.357 121.117C150.256 121.573 149.952 122.18 149.546 122.636C148.584 123.7 147.419 123.852 145.343 123.852C142.152 123.852 137.949 121.269 137.949 115.799C137.847 113.52 138.303 111.291 140.076 109.772ZM175.781 124.713C175.781 124.611 175.629 124.459 175.426 124.459C175.072 124.459 174.515 124.409 174.211 124.358C173.502 124.257 173.35 123.801 173.249 123.193C173.147 122.18 173.147 120.357 173.147 118.281V114.229C173.147 110.734 173.147 110.076 173.198 109.367C173.249 108.557 173.451 108.253 174.059 108.101C174.363 108.05 174.565 108 174.768 108C175.021 108 175.224 107.898 175.224 107.746C175.224 107.594 175.072 107.544 174.717 107.544C173.806 107.544 172.236 107.594 171.679 107.594C171.071 107.594 169.4 107.544 168.133 107.544C167.779 107.544 167.627 107.594 167.627 107.746C167.627 107.898 167.779 108 168.032 108C168.336 108 168.741 108.05 168.944 108.101C169.703 108.303 169.906 108.557 169.957 109.367C170.007 110.076 170.007 110.937 170.007 114.432V114.938C170.007 115.09 169.906 115.09 169.855 115.09H160.891C160.79 115.09 160.739 115.039 160.739 114.938V114.432C160.739 110.937 160.739 110.127 160.79 109.367C160.84 108.557 161.043 108.253 161.701 108.101C161.955 108.05 162.208 108 162.36 108C162.664 108 162.816 107.898 162.816 107.746C162.816 107.594 162.664 107.544 162.309 107.544C161.347 107.544 159.726 107.594 159.169 107.594C158.511 107.594 156.941 107.544 155.675 107.544C155.371 107.544 155.168 107.594 155.168 107.746C155.168 107.898 155.32 108 155.573 108C155.928 108 156.333 108.05 156.536 108.101C157.295 108.303 157.498 108.557 157.548 109.367C157.599 110.076 157.599 110.734 157.599 114.229V118.281C157.599 120.408 157.599 122.18 157.498 123.193C157.397 123.852 157.295 124.307 156.789 124.409C156.586 124.459 156.282 124.51 155.928 124.51C155.624 124.51 155.523 124.662 155.523 124.763C155.523 124.915 155.675 125.016 155.978 125.016C156.941 125.016 158.511 124.915 159.017 124.915C159.676 124.915 161.347 125.016 162.866 125.016C163.17 125.016 163.373 124.915 163.373 124.763C163.373 124.662 163.271 124.51 163.018 124.51C162.664 124.51 162.107 124.459 161.803 124.409C161.094 124.307 160.942 123.852 160.891 123.244C160.79 122.231 160.739 120.509 160.739 118.382V116.609C160.739 116.508 160.84 116.457 160.891 116.457H169.855C169.906 116.457 170.007 116.508 170.007 116.609V118.382C170.007 120.509 170.007 122.231 169.906 123.244C169.805 123.902 169.703 124.358 169.197 124.459C168.994 124.51 168.691 124.561 168.336 124.561C168.083 124.561 167.931 124.713 167.931 124.814C167.931 124.966 168.133 125.067 168.437 125.067C169.349 125.067 171.02 124.966 171.577 124.966C172.236 124.966 173.806 125.067 175.325 125.067C175.578 124.966 175.781 124.865 175.781 124.713ZM188.24 124.713C188.24 124.611 188.139 124.459 187.885 124.459C187.531 124.459 186.974 124.409 186.67 124.358C185.961 124.257 185.809 123.902 185.708 123.295C185.606 122.332 185.606 120.458 185.606 118.281V114.229C185.606 110.734 185.606 110.076 185.657 109.367C185.708 108.557 185.91 108.253 186.569 108.101C186.822 108.05 187.024 108 187.278 108C187.531 108 187.632 107.949 187.632 107.746C187.632 107.594 187.429 107.544 187.126 107.544C186.214 107.544 184.644 107.594 184.087 107.594C183.428 107.594 181.808 107.544 180.896 107.544C180.542 107.544 180.339 107.594 180.339 107.746C180.339 107.949 180.491 108 180.694 108C180.997 108 181.301 108.05 181.555 108.101C182.061 108.253 182.314 108.557 182.365 109.316C182.416 110.025 182.416 110.684 182.416 114.178V118.23C182.416 120.458 182.416 122.282 182.314 123.244C182.213 123.902 182.112 124.257 181.605 124.358C181.403 124.409 181.099 124.459 180.744 124.459C180.44 124.459 180.39 124.611 180.39 124.713C180.39 124.865 180.542 124.966 180.846 124.966C181.808 124.966 183.428 124.865 183.935 124.865C184.593 124.865 186.214 124.966 187.784 124.966C188.037 124.966 188.24 124.865 188.24 124.713ZM207.586 110.684C207.586 110.076 207.637 108.405 207.637 107.898C207.637 107.544 207.586 107.392 207.435 107.392C207.333 107.392 207.181 107.442 206.776 107.493C206.422 107.544 205.915 107.594 205.155 107.594H195.482C194.672 107.594 193.811 107.544 193.102 107.493C192.494 107.392 192.241 107.24 192.089 107.24C191.937 107.24 191.886 107.392 191.836 107.696C191.785 107.898 191.329 110.127 191.329 110.481C191.329 110.734 191.38 110.836 191.532 110.836C191.684 110.836 191.734 110.734 191.785 110.532C191.836 110.38 191.937 110.076 192.19 109.772C192.545 109.266 193.102 109.114 194.469 109.063L198.014 108.962V118.281C198.014 120.408 198.014 122.18 197.913 123.193C197.812 123.852 197.711 124.307 197.204 124.409C197.002 124.459 196.698 124.51 196.343 124.51C196.039 124.51 195.989 124.662 195.989 124.763C195.989 124.915 196.141 125.016 196.444 125.016C197.407 125.016 199.027 124.915 199.534 124.915C200.192 124.915 201.813 125.016 203.383 125.016C203.636 125.016 203.839 124.915 203.839 124.763C203.839 124.662 203.737 124.51 203.484 124.51C203.13 124.51 202.573 124.459 202.269 124.409C201.56 124.307 201.408 123.852 201.357 123.244C201.256 122.231 201.205 120.408 201.205 118.331V109.012L204.193 109.063C206.32 109.114 206.928 109.772 207.029 110.38L207.08 110.633C207.131 110.988 207.181 111.089 207.333 111.089C207.485 111.038 207.536 110.886 207.586 110.684ZM217.665 124.915C218.83 124.966 220.248 125.016 222.071 125.016C222.983 125.016 223.185 125.016 223.337 124.409C223.489 123.953 223.641 122.383 223.641 121.876C223.641 121.623 223.591 121.319 223.439 121.319C223.287 121.319 223.236 121.421 223.185 121.674C223.033 122.636 222.73 123.092 222.172 123.396C221.565 123.649 220.552 123.7 219.944 123.7C217.513 123.7 216.804 123.345 216.703 121.775C216.652 121.117 216.703 119.142 216.703 118.382V116.508C216.703 116.356 216.753 116.255 216.855 116.255C217.462 116.255 220.147 116.305 220.602 116.356C221.514 116.457 221.767 116.812 221.919 117.268C221.97 117.572 221.97 117.875 222.021 118.129C222.021 118.23 222.071 118.331 222.223 118.331C222.426 118.331 222.476 118.027 222.476 117.825C222.476 117.673 222.527 116.761 222.578 116.305C222.73 115.141 222.78 114.786 222.78 114.634C222.78 114.482 222.679 114.381 222.578 114.381C222.476 114.381 222.375 114.533 222.223 114.685C222.021 114.938 221.666 114.989 221.109 115.039C220.552 115.09 217.462 115.09 216.956 115.09C216.804 115.09 216.804 114.989 216.804 114.837V109.164C216.804 109.012 216.855 108.962 216.956 108.962C217.462 108.962 220.299 109.012 220.704 109.063C221.869 109.164 222.071 109.519 222.274 109.924C222.426 110.177 222.426 110.582 222.426 110.785C222.426 110.988 222.476 111.089 222.628 111.089C222.831 111.089 222.881 110.836 222.881 110.734C222.932 110.481 222.983 109.468 223.033 109.215C223.084 108.151 223.236 107.898 223.236 107.746C223.236 107.645 223.185 107.544 223.084 107.544C222.983 107.544 222.831 107.645 222.73 107.645C222.527 107.696 222.172 107.746 221.717 107.797C221.261 107.848 215.994 107.797 215.234 107.797C214.576 107.797 213.056 107.746 211.79 107.746C211.436 107.746 211.233 107.797 211.233 107.949C211.233 108.101 211.385 108.202 211.638 108.202C211.993 108.202 212.398 108.253 212.6 108.303C213.36 108.506 213.563 108.759 213.613 109.57C213.664 110.279 213.664 110.937 213.664 114.432V118.483C213.664 120.61 213.664 122.383 213.563 123.396C213.461 124.054 213.36 124.51 212.854 124.611C212.651 124.662 212.347 124.713 211.993 124.713C211.689 124.713 211.638 124.865 211.638 124.966C211.638 125.118 211.79 125.219 212.094 125.219C212.6 125.219 213.158 125.168 213.765 125.168C214.322 125.168 214.829 125.118 215.133 125.118C215.639 124.865 216.5 124.915 217.665 124.915ZM244.001 124.054C244.254 123.295 244.507 121.269 244.507 121.015C244.507 120.813 244.406 120.61 244.254 120.61C244.051 120.61 244.001 120.712 243.95 121.066C243.849 121.522 243.545 122.13 243.14 122.585C242.178 123.649 241.013 123.801 238.936 123.801C235.746 123.801 231.542 121.218 231.542 115.748C231.542 113.52 231.998 111.291 233.72 109.772C234.783 108.86 236.151 108.455 238.227 108.455C240.405 108.455 242.026 109.012 242.836 109.823C243.444 110.43 243.748 111.241 243.748 111.95C243.748 112.254 243.798 112.456 244.001 112.456C244.203 112.456 244.305 112.203 244.305 111.899C244.355 111.443 244.355 110.177 244.406 109.418C244.457 108.607 244.507 108.354 244.507 108.151C244.507 107.999 244.406 107.898 244.153 107.898C243.444 107.797 242.684 107.645 241.772 107.544C240.709 107.392 239.797 107.29 238.328 107.29C234.783 107.29 232.504 108.202 230.782 109.721C228.503 111.747 227.997 114.432 227.997 116.002C227.997 118.23 228.604 120.813 230.985 122.788C233.163 124.611 235.897 125.27 239.139 125.27C240.658 125.27 242.481 125.118 243.444 124.763C243.798 124.561 243.899 124.459 244.001 124.054ZM263.145 110.329L263.195 110.582C263.246 110.937 263.297 111.038 263.449 111.038C263.601 111.038 263.651 110.886 263.651 110.684C263.651 110.076 263.702 108.405 263.702 107.898C263.702 107.544 263.651 107.392 263.499 107.392C263.398 107.392 263.246 107.442 262.841 107.493C262.486 107.544 261.98 107.594 261.22 107.594H251.547C250.787 107.594 249.876 107.544 249.167 107.493C248.559 107.392 248.306 107.24 248.154 107.24C248.002 107.24 247.951 107.392 247.9 107.696C247.85 107.898 247.394 110.127 247.394 110.481C247.394 110.734 247.445 110.836 247.597 110.836C247.749 110.836 247.799 110.734 247.85 110.532C247.9 110.38 248.002 110.076 248.255 109.772C248.61 109.266 249.167 109.114 250.534 109.063L254.079 108.962V118.281C254.079 120.408 254.079 122.18 253.978 123.193C253.877 123.852 253.775 124.307 253.269 124.409C253.066 124.459 252.762 124.51 252.408 124.51C252.104 124.51 252.003 124.662 252.003 124.763C252.003 124.915 252.155 125.016 252.459 125.016C253.421 125.016 255.042 124.915 255.548 124.915C256.206 124.915 257.827 125.016 259.397 125.016C259.65 125.016 259.853 124.915 259.853 124.763C259.853 124.662 259.752 124.51 259.498 124.51C259.144 124.51 258.587 124.459 258.283 124.409C257.574 124.307 257.422 123.852 257.371 123.244C257.27 122.231 257.219 120.408 257.219 118.331V109.012L260.207 109.063C262.486 109.063 263.094 109.721 263.145 110.329ZM266.639 116.255C266.639 120.357 269.476 125.27 276.363 125.27C282.492 125.27 286.341 121.117 286.341 115.85C286.341 110.582 282.593 107.24 276.617 107.24C269.374 107.24 266.639 112.304 266.639 116.255ZM282.795 116.66C282.795 123.193 278.997 124.004 277.326 124.004C272.818 124.004 270.134 120.256 270.134 115.546C270.134 109.873 273.223 108.455 275.908 108.455C279.757 108.455 282.795 111.595 282.795 116.66ZM308.574 124.459C308.371 124.459 308.27 124.459 308.017 124.409C307.662 124.307 306.801 124.206 305.485 122.889C304.067 121.471 302.395 119.395 300.268 116.761C302.598 114.887 303.56 113.368 303.56 111.697C303.56 110.177 302.547 109.012 301.889 108.557C300.623 107.696 298.901 107.594 297.381 107.594C296.672 107.594 294.495 107.645 293.684 107.645C293.178 107.645 291.709 107.594 290.443 107.594C290.088 107.594 289.886 107.645 289.886 107.797C289.886 107.949 290.038 108.05 290.291 108.05C290.645 108.05 291.051 108.101 291.253 108.151C292.013 108.354 292.215 108.607 292.266 109.418C292.317 110.127 292.317 110.785 292.317 114.28V118.331C292.317 120.458 292.317 122.231 292.215 123.244C292.114 123.902 292.013 124.358 291.506 124.459C291.304 124.51 291 124.561 290.645 124.561C290.342 124.561 290.24 124.713 290.24 124.814C290.24 124.966 290.392 125.067 290.696 125.067C291.658 125.067 293.178 124.966 293.634 124.966C293.988 124.966 295.963 125.067 297.331 125.067C297.635 125.067 297.837 124.966 297.837 124.814C297.837 124.713 297.736 124.561 297.533 124.561C297.229 124.561 296.723 124.51 296.368 124.459C295.659 124.358 295.507 123.902 295.457 123.244C295.356 122.282 295.305 120.509 295.305 118.331V118.027C295.305 117.875 295.406 117.825 295.507 117.825L297.635 117.875C297.787 117.875 297.938 117.926 298.09 118.027C298.394 118.382 299.407 119.901 300.319 121.167C301.636 122.94 302.547 124.054 303.56 124.561C304.168 124.865 304.826 125.016 306.143 125.016H308.422C308.726 125.016 308.878 124.966 308.878 124.763C308.878 124.611 308.777 124.459 308.574 124.459ZM299.002 116.255C298.597 116.559 298.293 116.609 297.331 116.609C296.723 116.609 296.014 116.559 295.507 116.407C295.356 116.305 295.305 116.255 295.305 116.002V109.164C295.305 108.962 295.356 108.911 295.507 108.86C295.761 108.81 296.318 108.759 296.926 108.759C298.344 108.759 300.572 109.62 300.572 112.861C300.521 114.735 299.711 115.698 299.002 116.255ZM137.088 135.399C137.189 135.399 137.442 135.399 137.543 135.5C137.695 135.601 137.797 135.855 137.949 136.31L140.481 143.603C140.582 143.907 140.633 144.009 140.785 144.009C140.937 144.009 141.038 143.857 141.241 143.401C141.747 142.337 143.317 138.286 143.52 137.779H143.57L146.001 143.452C146.153 143.857 146.254 144.009 146.406 144.009C146.558 144.009 146.66 143.857 146.761 143.452C147.318 141.73 148.534 138.083 149.091 136.614C149.344 135.956 149.445 135.5 149.749 135.399C149.901 135.348 150.053 135.348 150.154 135.348C150.256 135.348 150.306 135.298 150.306 135.196C150.306 135.146 150.205 135.095 150.104 135.095C149.698 135.095 149.192 135.146 149.141 135.146C149.04 135.146 148.483 135.095 147.875 135.095C147.673 135.095 147.571 135.146 147.571 135.196C147.571 135.247 147.673 135.298 147.774 135.298C148.23 135.298 148.331 135.449 148.331 135.601C148.331 135.753 148.28 136.007 148.23 136.26C147.825 137.577 146.913 140.615 146.66 141.274H146.71L144.33 135.601C144.178 135.247 144.077 135.044 143.925 135.044C143.823 135.044 143.672 135.146 143.57 135.449L141.291 141.324H141.241C141.089 140.818 139.974 137.323 139.772 136.564C139.62 136.057 139.519 135.652 139.519 135.5C139.519 135.399 139.519 135.298 139.62 135.247C139.721 135.196 139.822 135.196 139.924 135.196C140.025 135.196 140.126 135.146 140.126 135.095C140.126 134.994 140.025 134.994 139.873 134.994C139.164 134.994 138.607 135.044 138.506 135.044C138.404 135.044 137.746 134.994 137.138 134.994C136.986 134.994 136.885 135.044 136.885 135.095C136.936 135.399 136.986 135.399 137.088 135.399ZM156.536 143.654C156.434 143.654 156.384 143.705 156.384 143.755C156.384 143.857 156.536 143.857 156.738 143.857C157.751 143.907 158.612 143.907 159.017 143.907C159.473 143.907 159.524 143.857 159.524 143.806C159.524 143.705 159.473 143.705 159.372 143.705C159.22 143.705 159.119 143.705 158.916 143.654C158.713 143.603 158.359 143.452 157.903 142.439C157.143 140.717 155.168 136.007 154.864 135.348C154.763 135.095 154.712 134.994 154.51 134.994C154.408 134.994 154.307 135.146 154.155 135.449L151.066 142.692C150.813 143.249 150.61 143.603 150.104 143.705C150.002 143.705 149.85 143.705 149.749 143.705C149.648 143.705 149.597 143.755 149.597 143.806C149.597 143.907 149.648 143.907 149.8 143.907C150.407 143.907 151.066 143.857 151.167 143.857C151.522 143.857 152.079 143.907 152.484 143.907C152.585 143.907 152.687 143.857 152.687 143.806C152.687 143.755 152.636 143.705 152.535 143.705H152.383C152.028 143.705 151.927 143.603 151.927 143.401C151.927 143.249 151.977 142.996 152.079 142.692L152.737 141.172C152.788 141.122 152.788 141.071 152.838 141.071H155.624C155.675 141.071 155.725 141.071 155.725 141.172L156.637 143.502C156.688 143.502 156.586 143.603 156.536 143.654ZM155.32 140.362H153.041C152.99 140.362 152.99 140.311 152.99 140.261L154.155 137.374C154.155 137.323 154.206 137.273 154.206 137.273C154.257 137.273 154.257 137.323 154.257 137.374L155.371 140.311C155.371 140.311 155.371 140.362 155.32 140.362ZM161.499 142.996C161.448 143.35 161.398 143.553 161.144 143.603C161.043 143.654 160.891 143.654 160.739 143.654C160.587 143.654 160.537 143.705 160.537 143.755C160.537 143.857 160.638 143.857 160.79 143.857C161.043 143.857 161.347 143.857 161.6 143.806C161.904 143.806 162.157 143.806 162.259 143.806C162.765 143.806 163.221 143.806 163.829 143.857C164.436 143.907 165.095 143.907 165.956 143.907C166.563 143.907 166.614 143.857 166.715 143.603C166.817 143.249 166.867 142.439 166.867 142.287C166.867 142.135 166.817 142.033 166.766 142.033C166.665 142.033 166.665 142.084 166.614 142.185C166.563 142.388 166.462 142.742 166.31 142.894C166.006 143.198 165.551 143.198 164.892 143.198C163.98 143.198 163.525 143.148 163.322 142.945C163.069 142.742 163.069 141.983 163.069 140.514V138.488C163.069 136.766 163.069 136.412 163.12 136.057C163.17 135.652 163.221 135.5 163.575 135.449C163.727 135.399 163.879 135.399 164.031 135.399C164.183 135.399 164.234 135.348 164.234 135.298C164.234 135.196 164.132 135.196 163.981 135.196C163.525 135.196 162.562 135.247 162.259 135.247C161.955 135.247 161.195 135.196 160.638 135.196C160.486 135.196 160.385 135.247 160.385 135.298C160.385 135.399 160.435 135.399 160.587 135.399C160.739 135.399 160.891 135.399 160.992 135.449C161.347 135.551 161.499 135.703 161.499 136.057C161.499 136.412 161.499 136.766 161.499 138.488V140.514C161.55 141.578 161.55 142.489 161.499 142.996ZM169.703 142.996C169.653 143.35 169.602 143.553 169.349 143.603C169.248 143.654 169.096 143.654 168.944 143.654C168.792 143.654 168.741 143.705 168.741 143.755C168.741 143.857 168.842 143.857 168.994 143.857C169.248 143.857 169.552 143.857 169.805 143.806C170.109 143.806 170.362 143.806 170.463 143.806C170.97 143.806 171.425 143.806 172.033 143.857C172.641 143.907 173.299 143.907 174.16 143.907C174.768 143.907 174.819 143.857 174.92 143.603C175.021 143.249 175.072 142.439 175.072 142.287C175.072 142.135 175.021 142.033 174.971 142.033C174.869 142.033 174.869 142.084 174.819 142.185C174.768 142.388 174.667 142.742 174.515 142.894C174.211 143.198 173.755 143.198 173.097 143.198C172.185 143.198 171.729 143.148 171.527 142.945C171.273 142.742 171.273 141.983 171.273 140.514V138.488C171.273 136.766 171.273 136.412 171.324 136.057C171.375 135.652 171.425 135.5 171.78 135.449C171.932 135.399 172.084 135.399 172.236 135.399C172.388 135.399 172.438 135.348 172.438 135.298C172.438 135.196 172.337 135.196 172.185 135.196C171.729 135.196 170.767 135.247 170.463 135.247C170.159 135.247 169.4 135.196 168.842 135.196C168.691 135.196 168.589 135.247 168.589 135.298C168.589 135.399 168.64 135.399 168.792 135.399C168.944 135.399 169.096 135.399 169.197 135.449C169.552 135.551 169.703 135.703 169.703 136.057C169.703 136.412 169.703 136.766 169.703 138.488V140.514C169.754 141.578 169.754 142.489 169.703 142.996ZM181.504 135.652C182.618 135.652 183.378 135.956 183.783 136.31C184.087 136.614 184.239 137.02 184.239 137.374C184.239 137.526 184.289 137.627 184.34 137.627C184.441 137.627 184.492 137.526 184.492 137.323C184.492 137.07 184.492 136.462 184.543 136.057C184.593 135.652 184.593 135.5 184.593 135.399C184.593 135.348 184.543 135.298 184.441 135.247C184.087 135.196 183.682 135.146 183.277 135.044C182.719 134.994 182.314 134.943 181.555 134.943C179.782 134.943 178.668 135.399 177.807 136.159C176.693 137.171 176.439 138.539 176.439 139.299C176.439 140.413 176.743 141.679 177.908 142.692C178.972 143.603 180.39 143.958 182.01 143.958C182.77 143.958 183.682 143.907 184.137 143.705C184.34 143.603 184.391 143.553 184.441 143.35C184.543 142.945 184.695 141.983 184.695 141.831C184.695 141.73 184.644 141.628 184.543 141.628C184.441 141.628 184.441 141.679 184.391 141.882C184.34 142.084 184.188 142.439 183.986 142.641C183.53 143.148 182.922 143.249 181.858 143.249C180.288 143.249 178.161 141.932 178.161 139.197C178.161 138.083 178.364 136.969 179.276 136.209C179.833 135.855 180.491 135.652 181.504 135.652ZM191.532 144.009C194.621 144.009 196.495 141.932 196.495 139.299C196.495 136.665 194.621 134.994 191.633 134.994C188.037 134.994 186.619 137.526 186.619 139.501C186.67 141.578 188.088 144.009 191.532 144.009ZM191.329 135.652C193.254 135.652 194.773 137.222 194.773 139.754C194.773 143.046 192.899 143.401 192.038 143.401C189.81 143.401 188.442 141.527 188.442 139.147C188.442 136.361 190.012 135.652 191.329 135.652ZM200.952 135.399C201.053 135.399 201.154 135.348 201.154 135.298C201.154 135.196 201.003 135.196 200.851 135.196C200.243 135.196 199.635 135.247 199.331 135.247C198.926 135.247 198.217 135.196 197.609 135.196C197.457 135.196 197.305 135.196 197.305 135.298C197.305 135.348 197.356 135.399 197.457 135.399C197.559 135.399 197.761 135.399 197.913 135.449C198.369 135.551 198.521 135.652 198.774 136.31L201.762 143.35C202.015 143.907 202.066 144.059 202.269 144.059C202.421 144.059 202.522 143.907 202.826 143.198C203.079 142.641 203.636 141.375 204.396 139.704C205.054 138.286 205.358 137.678 205.814 136.614C206.118 135.905 206.27 135.703 206.422 135.601C206.624 135.449 206.877 135.449 206.979 135.449C207.08 135.449 207.181 135.399 207.181 135.348C207.181 135.247 207.08 135.247 206.928 135.247C206.574 135.247 206.016 135.298 205.814 135.298C205.662 135.298 205.155 135.247 204.548 135.247C204.295 135.247 204.193 135.298 204.193 135.348C204.193 135.449 204.295 135.449 204.396 135.449C204.548 135.449 204.75 135.449 204.852 135.5C204.953 135.551 205.004 135.601 205.004 135.703C205.004 135.804 204.953 135.956 204.902 136.108C204.598 136.868 203.079 140.565 202.573 141.78H202.522L200.496 136.614C200.344 136.209 200.243 135.905 200.243 135.753C200.243 135.652 200.293 135.601 200.344 135.5C200.597 135.449 200.749 135.399 200.952 135.399ZM209.207 142.996C209.156 143.35 209.106 143.553 208.853 143.603C208.751 143.654 208.599 143.654 208.447 143.654C208.296 143.654 208.245 143.705 208.245 143.755C208.245 143.857 208.346 143.857 208.498 143.857C208.751 143.857 209.055 143.857 209.308 143.806C209.612 143.806 209.866 143.806 209.967 143.806C210.321 143.806 210.777 143.806 211.334 143.857C211.891 143.907 212.651 143.907 213.512 143.907C213.968 143.907 214.069 143.907 214.17 143.603C214.221 143.35 214.322 142.591 214.322 142.337C214.322 142.236 214.322 142.084 214.221 142.084C214.12 142.084 214.12 142.135 214.069 142.236C213.968 142.692 213.867 142.945 213.563 143.097C213.259 143.249 212.752 143.249 212.448 143.249C211.233 143.249 210.878 143.097 210.828 142.287C210.828 141.932 210.828 140.97 210.828 140.565V139.653C210.828 139.602 210.828 139.552 210.878 139.552C211.182 139.552 212.55 139.602 212.752 139.602C213.208 139.653 213.36 139.805 213.411 140.058C213.461 140.21 213.461 140.362 213.461 140.463C213.461 140.514 213.512 140.565 213.563 140.565C213.664 140.565 213.664 140.413 213.664 140.311C213.664 140.21 213.715 139.754 213.715 139.552C213.765 138.995 213.816 138.792 213.816 138.691C213.816 138.64 213.765 138.59 213.715 138.59C213.664 138.59 213.613 138.64 213.512 138.741C213.411 138.843 213.208 138.893 212.955 138.893C212.702 138.944 211.132 138.944 210.878 138.944C210.828 138.944 210.777 138.893 210.777 138.843V136.007C210.777 135.956 210.828 135.905 210.878 135.905C211.132 135.905 212.55 135.956 212.752 135.956C213.36 136.007 213.461 136.159 213.512 136.361C213.563 136.513 213.613 136.716 213.613 136.766C213.613 136.868 213.613 136.918 213.715 136.918C213.816 136.918 213.816 136.766 213.867 136.716C213.917 136.564 213.917 136.057 213.917 135.956C213.968 135.449 214.018 135.298 214.018 135.196C214.018 135.146 214.018 135.095 213.917 135.095C213.867 135.095 213.816 135.146 213.715 135.146C213.613 135.146 213.411 135.196 213.208 135.196C212.955 135.196 210.321 135.196 209.967 135.196C209.612 135.196 208.853 135.146 208.245 135.146C208.093 135.146 207.992 135.196 207.992 135.247C207.992 135.348 208.093 135.348 208.194 135.348C208.346 135.348 208.599 135.348 208.65 135.399C209.005 135.5 209.156 135.652 209.156 136.007C209.156 136.361 209.156 136.716 209.156 138.438V140.463C209.258 141.578 209.258 142.489 209.207 142.996ZM219.134 140.261L220.197 140.311C220.299 140.311 220.349 140.311 220.4 140.413C220.552 140.565 221.058 141.375 221.514 141.983C222.172 142.894 222.628 143.401 223.135 143.654C223.439 143.806 223.793 143.907 224.452 143.907H225.566C225.718 143.907 225.819 143.857 225.819 143.806C225.819 143.755 225.768 143.705 225.667 143.705C225.566 143.705 225.515 143.705 225.363 143.654C225.161 143.603 224.755 143.553 224.097 142.894C223.388 142.185 222.527 141.122 221.463 139.856C222.628 138.944 223.135 138.184 223.135 137.323C223.135 136.564 222.628 135.956 222.274 135.753C221.615 135.348 220.754 135.247 219.995 135.247C219.64 135.247 218.526 135.298 218.121 135.298C217.868 135.298 217.108 135.247 216.5 135.247C216.348 135.247 216.247 135.298 216.247 135.348C216.247 135.449 216.348 135.449 216.449 135.449C216.601 135.449 216.804 135.449 216.905 135.5C217.26 135.601 217.412 135.753 217.412 136.108C217.412 136.462 217.412 136.817 217.412 138.539V140.565C217.412 141.628 217.412 142.54 217.361 142.996C217.31 143.35 217.26 143.553 217.007 143.603C216.905 143.654 216.753 143.654 216.601 143.654C216.449 143.654 216.399 143.705 216.399 143.755C216.399 143.857 216.5 143.857 216.652 143.857C217.108 143.857 217.868 143.806 218.121 143.806C218.273 143.806 219.286 143.857 219.995 143.857C220.147 143.857 220.248 143.806 220.248 143.755C220.248 143.705 220.197 143.654 220.096 143.654C219.944 143.654 219.691 143.654 219.539 143.603C219.184 143.553 219.134 143.35 219.083 142.996C219.032 142.489 219.032 141.628 219.032 140.565V140.413C219.032 140.311 219.083 140.261 219.134 140.261ZM219.032 136.007C219.032 135.905 219.083 135.855 219.134 135.855C219.235 135.804 219.539 135.804 219.843 135.804C220.552 135.804 221.666 136.209 221.666 137.83C221.666 138.792 221.261 139.299 220.906 139.552C220.704 139.704 220.552 139.754 220.045 139.754C219.741 139.754 219.387 139.704 219.134 139.653C219.032 139.602 219.032 139.552 219.032 139.45V136.007ZM227.49 143.046C227.44 143.401 227.389 143.553 227.136 143.603C227.034 143.654 226.883 143.654 226.731 143.654C226.579 143.654 226.528 143.705 226.528 143.755C226.528 143.857 226.629 143.857 226.781 143.857C227.237 143.857 228.047 143.806 228.351 143.806C228.655 143.806 229.465 143.857 230.276 143.857C230.428 143.857 230.529 143.806 230.529 143.755C230.529 143.705 230.478 143.654 230.326 143.654C230.174 143.654 229.871 143.654 229.719 143.603C229.364 143.553 229.263 143.35 229.263 143.046C229.212 142.54 229.212 141.628 229.212 140.514V138.488C229.212 136.766 229.212 136.412 229.263 136.057C229.313 135.652 229.364 135.5 229.719 135.449C229.871 135.399 229.972 135.399 230.073 135.399C230.174 135.399 230.276 135.348 230.276 135.247C230.276 135.196 230.174 135.146 230.023 135.146C229.567 135.146 228.807 135.196 228.503 135.196C228.149 135.196 227.338 135.146 226.933 135.146C226.731 135.146 226.629 135.196 226.629 135.247C226.629 135.348 226.68 135.399 226.832 135.399C226.984 135.399 227.136 135.399 227.288 135.449C227.541 135.551 227.642 135.652 227.693 136.057C227.693 136.412 227.693 136.766 227.693 138.488V140.514C227.541 141.628 227.541 142.591 227.49 143.046ZM237.214 140.463C238.48 141.679 239.949 143.097 240.709 143.755C240.81 143.857 241.013 144.009 241.215 144.009C241.317 144.009 241.418 143.907 241.418 143.654L241.57 136.412C241.57 135.753 241.671 135.551 242.026 135.449C242.178 135.399 242.279 135.399 242.38 135.399C242.532 135.399 242.583 135.348 242.583 135.298C242.583 135.196 242.481 135.196 242.329 135.196C241.772 135.196 241.317 135.247 241.165 135.247C240.911 135.247 240.253 135.196 239.645 135.196C239.493 135.196 239.341 135.196 239.341 135.298C239.341 135.348 239.392 135.399 239.544 135.399C239.696 135.399 240 135.399 240.152 135.449C240.456 135.551 240.557 135.753 240.557 136.462L240.658 141.578H240.607C240.456 141.426 238.835 139.805 238.025 138.995C236.303 137.323 234.53 135.5 234.378 135.348C234.175 135.146 234.024 134.994 233.872 134.994C233.77 134.994 233.669 135.146 233.669 135.399L233.568 142.185C233.568 143.198 233.517 143.502 233.213 143.553C233.061 143.603 232.859 143.603 232.656 143.603C232.555 143.603 232.454 143.654 232.454 143.705C232.454 143.806 232.555 143.806 232.707 143.806C233.314 143.806 233.872 143.755 233.973 143.755C234.175 143.755 234.733 143.806 235.492 143.806C235.644 143.806 235.745 143.755 235.745 143.705C235.745 143.654 235.695 143.603 235.543 143.603C235.34 143.603 235.138 143.603 234.935 143.502C234.682 143.401 234.581 143.148 234.53 142.236L234.378 137.526H234.429C234.682 137.83 235.948 139.197 237.214 140.463ZM249.977 144.009C250.889 144.009 252.104 143.907 252.864 143.502C253.016 143.401 253.016 143.401 253.016 143.097V141.831C253.016 141.274 253.016 140.818 253.016 140.463C253.016 140.058 253.168 139.906 253.472 139.856C253.623 139.805 253.725 139.805 253.775 139.805C253.877 139.805 253.927 139.754 253.927 139.704C253.927 139.602 253.826 139.602 253.674 139.602C253.269 139.602 252.661 139.653 252.256 139.653C251.901 139.653 251.041 139.602 250.433 139.602C250.281 139.602 250.18 139.602 250.18 139.704C250.18 139.754 250.281 139.805 250.382 139.805C250.534 139.805 250.737 139.805 250.838 139.856C251.192 139.957 251.344 140.109 251.344 140.463C251.344 140.818 251.344 141.223 251.344 141.831V142.894C251.344 143.097 251.294 143.198 251.091 143.3C250.787 143.401 250.585 143.401 250.23 143.401C247.698 143.401 246.077 141.628 246.077 139.147C246.077 137.729 246.533 136.868 247.191 136.361C248.002 135.703 248.863 135.703 249.47 135.703C250.787 135.703 251.699 136.209 252.053 136.564C252.357 136.868 252.408 137.273 252.459 137.526C252.459 137.627 252.509 137.678 252.56 137.678C252.661 137.678 252.712 137.577 252.712 137.425C252.712 135.956 252.813 135.652 252.813 135.551C252.813 135.449 252.762 135.449 252.661 135.399C252.357 135.399 251.952 135.298 251.699 135.298C251.446 135.247 250.433 135.095 249.572 135.095C248.559 135.095 247.495 135.196 246.381 135.855C245.267 136.513 244.305 137.779 244.305 139.602C244.457 142.692 247.04 144.009 249.977 144.009ZM258.587 143.452C257.827 143.452 256.966 143.148 256.713 142.337C256.662 142.135 256.612 141.881 256.612 141.73C256.612 141.628 256.612 141.527 256.51 141.527C256.409 141.527 256.358 141.628 256.358 141.831C256.358 142.033 256.308 142.742 256.308 143.35C256.308 143.603 256.358 143.654 256.561 143.755C257.067 144.009 257.827 144.059 258.485 144.059C259.144 144.059 259.904 144.009 260.461 143.603C261.322 142.996 261.625 142.287 261.625 141.476C261.625 140.413 261.119 139.552 259.549 138.691L259.043 138.438C257.979 137.83 257.776 137.425 257.776 136.918C257.776 136.159 258.536 135.703 259.397 135.703C260.157 135.703 260.562 136.007 260.714 136.26C260.967 136.564 261.018 136.918 261.018 137.02C261.018 137.171 261.068 137.222 261.119 137.222C261.22 137.222 261.271 137.121 261.271 136.868C261.271 135.956 261.322 135.652 261.322 135.5C261.322 135.399 261.271 135.399 261.17 135.348C260.866 135.247 260.258 135.146 259.498 135.146C257.827 135.146 256.51 136.057 256.51 137.475C256.51 138.488 256.966 139.248 258.384 140.058L259.093 140.463C260.157 141.071 260.258 141.578 260.258 142.084C260.207 142.793 259.6 143.452 258.587 143.452ZM102.243 97.1613C104.421 80.3976 110.802 64.9 120.273 51.884L120.425 97.1613H121.489V50.8711H183.53L165.044 97.1613H165.956L184.441 50.8711H198.065C197.305 51.8334 196.596 53.454 195.533 55.9863L179.073 97.1613H189.658L195.026 82.7273C195.178 82.1195 195.482 81.3598 195.938 81.3598C196.394 81.3598 196.546 82.1195 196.698 82.7273L201.965 97.1613H220.704C212.752 77.2069 205.51 59.0251 203.636 54.7708C202.826 52.8969 202.167 51.6308 201.56 50.8711H216.044L234.53 97.1613H235.492L217.057 50.8711H279.453V97.1613H280.314V51.5295C289.936 64.6467 296.368 80.2456 298.546 97.1613H299.508C297.28 79.5872 290.443 63.4313 280.263 49.9088V10.2532H207.333C205.004 10.1013 202.674 10 200.344 10C198.014 10 195.634 10.1013 193.355 10.2532H120.577V49.7569C120.526 49.8582 120.476 49.9088 120.375 50.0101H120.223V50.2634C110.195 63.6845 103.459 79.7392 101.23 97.212H102.243V97.1613ZM279.453 11.0636V48.744C264.006 28.8402 241.266 14.9126 215.234 11.0636H279.453ZM205.307 11.0636C235.442 12.5323 261.98 27.4728 279.149 49.9595H216.703L201.408 11.57L201.205 11.0636H205.307ZM215.69 49.9595H200.547C200.293 49.8582 200.04 49.8075 199.787 49.8075C199.534 49.8075 199.281 49.8582 199.027 49.9595H184.745L200.192 11.1649L215.69 49.9595ZM195.482 11.0636H199.382L183.884 49.9595H121.641C138.81 27.4728 165.348 12.5323 195.482 11.0636ZM121.438 11.0636H185.556C159.574 14.9126 136.834 28.7896 121.438 48.592V11.0636ZM280.314 168.42V154.391H279.453V169.23H264.208L263.753 168.116C263.753 168.065 263.753 168.015 263.753 167.964C263.753 167.458 263.601 167.154 263.297 167.002L258.283 154.442H257.422L262.335 166.749C262.132 166.749 261.98 166.749 261.777 166.749C259.954 166.749 257.624 166.597 255.295 166.141C252.509 165.482 248.812 163.76 244.102 154.442H223.287L226.528 163.051C227.288 164.875 226.224 166.293 225.161 166.597C223.641 166.749 222.983 167.052 222.983 167.964C222.983 169.028 224.806 169.028 227.592 169.18C228.453 169.18 229.314 169.23 230.124 169.23H176.389C176.895 169.028 177.199 168.622 177.199 167.964C177.199 167.052 176.743 166.749 174.869 166.749H172.54C167.779 166.749 166.411 164.773 166.411 161.988C166.411 160.418 166.969 157.582 168.032 154.442H156.13C153.294 161.127 150.306 165.584 143.824 166.445C142.608 166.597 140.43 166.749 139.063 166.749C138.708 166.749 138.404 166.799 138.151 166.85L143.114 154.442H142.203L136.277 169.281H121.438V154.442H120.526L120.577 168.622C117.285 164.166 114.398 159.405 111.866 154.442H110.802C113.588 160.013 116.88 165.33 120.577 170.243V209.747H193.355C195.685 209.899 198.014 210 200.344 210C202.674 210 205.054 209.899 207.333 209.747H280.263V170.091C283.96 165.229 287.202 159.962 289.936 154.442H288.873C286.391 159.304 283.555 164.014 280.314 168.42ZM279.048 170.091C276.009 174.092 272.616 177.84 269.02 181.335L264.563 170.091H279.048ZM263.195 168.876L263.347 169.23H262.031C262.588 169.129 262.942 169.028 263.195 168.876ZM158.258 169.028C160.537 169.028 163.221 169.129 165.956 169.23H152.028C155.118 169.129 157.447 169.028 158.258 169.028ZM137.391 168.673C137.543 168.926 137.746 169.078 138.05 169.23H137.138L137.391 168.673ZM135.923 170.091L131.517 181.132C127.971 177.688 124.679 174.042 121.691 170.091H135.923ZM121.438 171.307C124.426 175.105 127.668 178.701 131.111 182.044L121.438 206.354V171.307ZM121.438 208.835V208.582L131.77 182.651C146.254 196.326 164.841 205.746 185.505 208.835H121.438ZM205.409 208.835H195.381C170.919 207.62 148.787 197.541 132.175 181.689L136.834 170.041H263.702L268.412 181.841C251.8 197.592 229.769 207.62 205.409 208.835ZM215.234 208.835C235.796 205.796 254.332 196.427 268.817 182.854L279.2 208.835H215.234ZM279.453 207.518L269.425 182.297C273.021 178.853 276.414 175.105 279.453 171.155V207.518Z" fill="#1D1D23"/>
</svg>
