<svg width="400" height="220" viewBox="0 0 400 220" fill="none" xmlns="http://www.w3.org/2000/svg">
<path d="M220.158 132.145C219.641 132.195 218.508 132.247 217.953 132.247C213.205 132.247 209.266 129.271 203.22 123.409L189.862 111.14C194.93 109.374 197.611 106.084 197.611 101.595C197.611 100.031 197.063 98.6896 195.982 97.609C193.82 95.4462 189.588 94.3496 183.404 94.3496C181.62 94.3496 179.771 94.3972 177.813 94.4477L177.802 94.448C175.728 94.5016 173.585 94.5567 171.4 94.5567C170.006 94.5567 168.539 94.5081 167.119 94.4608L165.04 94.3958C165.041 94.3958 165.041 94.6848 165.041 94.6848V94.9645C165.041 94.9882 165.321 94.9882 165.321 94.9882H165.783C171.055 95.378 171.274 96.8732 171.274 102.528C171.274 103.278 171.291 104.077 171.308 104.922L171.31 104.993C171.33 105.941 171.351 106.921 171.351 107.92V114.816L171.353 116.277C171.373 124.19 171.382 127.466 165.773 127.653C165.752 127.655 165.29 127.707 165.29 127.707L165.041 127.734V128.269C165.041 128.287 165.325 128.282 165.325 128.282L167.763 128.243L174.324 128.179C176.854 128.179 178.552 128.208 180.686 128.244L183.299 128.287C183.299 128.287 183.299 128.002 183.299 128.002V127.766C183.299 127.748 183.066 127.709 183.066 127.709L182.758 127.657L182.743 127.654L182.728 127.653C177.266 127.327 177.275 124.108 177.295 116.328L177.297 114.816V102.735C177.297 101.869 177.332 100.949 177.369 99.9752L177.37 99.9561C177.41 98.9082 177.451 97.8243 177.451 96.7209V96.2196C178.831 96.1933 180.404 96.237 181.934 96.2822L183.551 96.3267C187.605 96.3784 191.434 99.3668 191.434 102.476C191.434 107.193 187.756 109.903 181.077 110.106L180.28 110.131L180.917 110.61C186.185 114.572 190.609 118.783 194.513 122.499L194.514 122.5C201.264 128.925 206.597 134 212.336 134C214.815 134 217.782 133.51 220.272 132.69L220.158 132.145Z" fill="#1D1D23"/>
<path d="M162.504 128.001V127.746C162.504 127.728 162.249 127.705 162.249 127.705C158.331 127.35 157.618 126.421 155.229 122.548C154.949 122.094 154.578 121.539 154.148 120.897L154.139 120.884C153.381 119.749 152.437 118.337 151.461 116.693C151.46 116.69 137.686 94.171 137.686 94.171L137.581 94L137.385 94.0438L134.73 94.6405L134.668 94.7421L122.126 115.395L121.756 116.016C119.494 115.78 117.182 115.504 114.944 115.236C105.101 114.057 94.922 112.838 87 114.884L87.1204 115.431C93.8094 114.211 101.049 115.315 108.713 116.485L108.714 116.485C112.522 117.066 116.458 117.661 120.533 118.015C118.001 122.072 116.205 124.409 115.795 124.765C113.739 126.744 112.433 127.234 109.547 127.707L109.312 127.746V128.268C109.312 128.286 109.597 128.281 109.597 128.281L111.76 128.244C113.83 128.207 115.464 128.177 117.902 128.177C120.202 128.177 121.719 128.206 123.64 128.243L125.746 128.281L126.031 128.286C126.031 128.286 126.031 128.001 126.031 128.001V127.751C126.031 127.733 125.782 127.705 125.782 127.705C123.147 127.409 122.26 126.312 122.26 125.858C122.26 124.851 122.937 123.583 123.535 122.465L123.535 122.464C123.535 122.464 123.919 121.755 124.375 120.913L125.783 118.313C131.779 118.453 137.232 117.834 142.445 116.416L142.314 115.872C138.182 116.739 133.235 116.927 126.784 116.464L127.853 114.489C127.853 114.489 129.403 111.923 129.403 111.923C129.405 111.92 130.825 109.408 132.314 106.772L135.449 101.224L141.528 111.729L143.201 114.479C143.199 114.476 147.671 122.06 147.671 122.06C147.668 122.055 148.152 122.896 148.152 122.896L148.153 122.897C148.906 124.196 149.556 125.317 149.556 126.065C149.556 127.062 148.41 127.598 146.052 127.704L145.785 127.716V128.268C145.785 128.286 146.069 128.281 146.069 128.281L148.455 128.243L155.145 128.177C157.215 128.177 158.587 128.206 160.32 128.243L160.333 128.243L162.504 128.287C162.504 128.287 162.504 128.001 162.504 128.001Z" fill="#1D1D23"/>
<path d="M248.784 94.389L248.802 94.6636L249.186 100.851L248.643 100.962C247.41 97.4908 245.694 96.7413 238.981 96.7413H232.335V114.815L232.334 116.065C232.321 124.292 232.316 127.37 237.918 127.653L237.934 127.654L237.95 127.656L238.258 127.708C238.258 127.708 238.491 127.748 238.491 127.765V128.002C238.491 128.002 238.491 128.287 238.492 128.287L238.207 128.282L236.016 128.245C233.872 128.208 232.179 128.178 229.67 128.178L222.706 128.244L220.21 128.282C220.21 128.282 219.925 128.286 219.926 128.269V127.727L220.182 127.705C220.182 127.705 220.798 127.654 220.812 127.653C226.421 127.466 226.412 123.951 226.392 116.251L226.389 114.815V96.7413H218.974C211.933 96.7413 211.206 98.3338 209.995 100.985L209.463 100.837L210.184 94.3917L210.443 94.4013C213.285 94.5046 216.349 94.5046 219.051 94.5046C237.71 94.5046 247.401 94.451 248.51 94.4013L248.784 94.389Z" fill="#1D1D23"/>
<path d="M286.385 121.161C285.544 122.686 283.979 125.526 278.85 125.683C278.851 125.683 275.025 125.792 275.025 125.792L274.971 125.794C273.104 125.85 271.754 125.89 271.087 125.89C268.53 125.89 267.289 125.644 266.659 125.014C265.937 124.293 265.904 122.977 265.904 120.519V111.57H275.614V108.573H265.904V96.7416H273.318C273.565 96.7416 273.954 96.7275 274.329 96.7136L274.35 96.7128C274.68 96.7009 274.99 96.6897 275.165 96.6897C281.638 96.6897 282.946 97.6993 283.821 100.942L284.371 100.869V94.3901C284.375 94.3901 284.091 94.3942 284.091 94.3942L283.439 94.4029C276.562 94.5048 268.963 94.5568 260.853 94.5568C259.267 94.5568 257.635 94.509 256.057 94.4628L256.052 94.4627L253.646 94.3966C253.647 94.3966 253.647 94.4348 253.647 94.4834C253.648 94.5681 253.648 94.6845 253.648 94.6845V94.955C253.648 94.9814 253.918 94.9906 253.918 94.9906L254.38 95.0064C259.662 95.3965 259.88 96.8876 259.88 102.528C259.88 103.361 259.898 104.212 259.917 105.111L259.917 105.114L259.918 105.15C259.938 106.061 259.957 107.002 259.957 107.92V114.815L259.962 116.455C259.989 124.048 260.002 127.515 254.382 127.653C254.37 127.653 253.601 127.705 253.601 127.705L253.34 127.723V128.271C253.34 128.289 253.627 128.282 253.627 128.282C255.71 128.232 258.116 128.178 260.315 128.178L282.014 128.27C282.461 128.27 282.83 128.289 283.155 128.305L283.186 128.306C284.88 128.393 285.162 128.252 285.748 125.927L286.902 121.365L286.385 121.161Z" fill="#1D1D23"/>
<path fill-rule="evenodd" clip-rule="evenodd" d="M296.841 96.3974C296.579 96.2892 296.168 96.2351 295.607 96.2351H294.025V100.738H294.79V98.9707H295.428C295.857 98.9707 296.157 99.0188 296.328 99.1151C296.616 99.2817 296.761 99.6245 296.761 100.143V100.499L296.777 100.643C296.781 100.662 296.785 100.678 296.789 100.693L296.8 100.738H297.542L297.512 100.682C297.492 100.645 297.477 100.567 297.469 100.448C297.461 100.329 297.457 100.218 297.457 100.114V99.7846C297.457 99.5582 297.377 99.326 297.216 99.0881C297.056 98.8503 296.803 98.7035 296.456 98.6478C296.733 98.6032 296.949 98.5303 297.104 98.4295C297.396 98.2392 297.542 97.9423 297.542 97.5394C297.542 96.9724 297.308 96.5918 296.841 96.3974ZM295.485 96.7959C295.937 96.7959 296.265 96.8514 296.47 96.9617C296.675 97.0721 296.778 97.2896 296.778 97.6139C296.778 97.9567 296.619 98.1889 296.301 98.3104C296.128 98.3767 295.87 98.4099 295.525 98.4099H294.79V96.7959H295.485Z" fill="#1D1D23"/>
<path fill-rule="evenodd" clip-rule="evenodd" d="M295.682 102.607C296.817 102.607 297.785 102.205 298.585 101.402C299.385 100.6 299.785 99.6316 299.785 98.498C299.785 97.3682 299.385 96.4055 298.585 95.6101C297.785 94.8147 296.817 94.4172 295.682 94.4172C294.554 94.4172 293.592 94.8147 292.796 95.6101C291.996 96.4094 291.595 97.372 291.595 98.498C291.595 99.6354 291.992 100.603 292.785 101.402C293.581 102.205 294.547 102.607 295.682 102.607ZM292.156 98.5037C292.156 97.531 292.5 96.7008 293.188 96.0138C293.879 95.3233 294.712 94.9778 295.687 94.9778C296.667 94.9778 297.502 95.3233 298.193 96.0138C298.88 96.7008 299.224 97.531 299.224 98.5037C299.224 99.4837 298.88 100.319 298.193 101.01C297.505 101.701 296.67 102.046 295.687 102.046C294.705 102.046 293.87 101.701 293.182 101.01C292.498 100.319 292.156 99.4837 292.156 98.5037Z" fill="#1D1D23"/>
</svg>
