<svg width="400" height="220" viewBox="0 0 400 220" fill="none" xmlns="http://www.w3.org/2000/svg">
<path d="M208.671 154.135C210.684 153.052 213.781 152.432 215.174 154.91C215.794 155.994 216.103 157.387 216.103 159.245C216.103 160.484 215.794 161.877 215.019 162.806C213.316 164.665 210.374 164.974 207.897 164.51C207.012 164.333 206.228 164.105 205.459 163.856L203.716 163.271L203.392 163.155L202.802 162.923C202.7 162.884 202.594 162.845 202.477 162.806C203.264 163.557 204.033 164.332 204.8 165.117L207.103 167.484C208.907 169.323 210.767 171.132 212.852 172.716C213.006 172.871 212.697 173.181 212.542 173.181C212.277 173.313 212.011 173.332 211.843 173.238L211.768 173.181C209.817 171.735 208.034 170.021 206.279 168.24L204.026 165.932C202.77 164.647 201.497 163.374 200.155 162.187C199.307 163.072 198.494 163.992 197.687 164.915L196.72 166.024C194.46 168.604 192.155 171.116 189.161 172.871C188.852 173.026 188.542 173.181 188.077 173.181C187.796 173.181 187.642 172.925 187.849 172.762L187.923 172.716C190.64 171.106 192.769 168.841 194.819 166.475L196.704 164.279C197.177 163.73 197.654 163.186 198.142 162.652L197.661 162.854L196.145 163.534C195.98 163.605 195.819 163.674 195.665 163.735C194.151 164.424 192.514 164.867 190.864 165.175L190.245 165.284C187.768 165.748 184.361 165.594 183.277 162.961C182.658 161.568 182.658 159.71 183.123 158.316C183.432 156.923 184.206 155.684 185.6 155.219C188.284 154.027 191.255 155.131 193.684 156.459L193.961 156.613C195.665 157.542 197.368 158.626 198.916 159.865C199.535 159.245 200.155 158.781 200.929 158.781C201.239 158.781 201.548 158.781 201.703 158.935C202.09 158.652 202.469 158.363 202.843 158.075L204.512 156.782C205.811 155.791 207.135 154.858 208.671 154.135ZM187.923 155.994H186.839C186.839 156.123 186.839 156.144 186.749 156.148L186.684 156.148L186.592 156.165C186.545 156.18 186.5 156.206 186.464 156.23L186.342 156.335L186.065 156.613L186.01 156.623C185.98 156.633 185.946 156.653 185.926 156.692L185.91 156.768L185.749 156.949C185.455 157.327 185.314 157.791 185.194 158.343L185.135 158.626C184.826 160.019 184.826 161.723 185.6 162.806C186.219 163.735 187.148 164.045 188.232 164.2L188.804 164.196C189.221 164.187 189.537 164.156 190.09 164.045L190.523 163.952L191.671 163.674C191.806 163.643 191.948 163.612 192.103 163.581L193.056 163.289C194.087 162.963 194.89 162.669 195.974 162.187L196.345 162.017L197.056 161.73C197.281 161.636 197.492 161.537 197.677 161.413C197.677 161.277 197.796 161.142 197.826 161.214L197.832 161.254L197.833 161.242C197.837 161.212 197.852 161.149 197.912 161.119L197.987 161.103H198.141L197.987 160.948L197.663 160.716L197.073 160.252C196.971 160.174 196.865 160.097 196.748 160.019L195.569 159.222C194.952 158.805 194.302 158.378 193.652 158.006L192.034 157.273C191.242 156.916 190.462 156.582 189.626 156.303L189.407 156.245L189.019 156.137C188.771 156.071 188.528 156.019 188.193 156.001L187.923 155.994ZM212.852 153.981C211.923 153.516 210.839 153.826 209.91 154.29C208.558 154.966 207.299 155.872 206.057 156.807L204.817 157.745C204.197 158.211 203.575 158.668 202.942 159.09C202.942 159.183 202.886 159.22 202.842 159.235L202.787 159.245C202.787 159.369 202.787 159.493 202.866 159.617L202.942 159.71V160.174C202.942 160.329 202.942 160.639 202.787 160.794C203.097 161.103 203.561 161.103 203.871 161.413C204.219 161.529 204.558 161.645 204.892 161.761L206.876 162.458L207.897 162.806C209.135 163.271 210.529 163.426 211.923 163.271C213.887 162.78 214.391 160.73 214.516 158.744L214.54 158.229L214.552 157.723L214.555 157.232L214.292 156.292C214.025 155.389 213.646 154.435 212.852 153.981ZM200.929 159.555H200.619L200.503 159.695L200.329 159.951C200.3 159.994 200.271 160.035 200.242 160.073L200.155 160.174L200.09 160.175C200 160.178 200 160.2 200 160.329L200.31 160.639C200.465 160.484 200.774 160.329 200.929 160.484L201.063 160.423L201.234 160.36C201.292 160.342 201.349 160.329 201.394 160.329C201.394 160.108 201.236 159.887 201.089 159.722L200.929 159.555ZM164.387 121L164.852 121.155L164.775 121.48L164.703 121.843C164.611 122.359 164.542 123.013 164.542 123.942C164.49 124.355 164.456 124.819 164.427 125.318L164.347 126.901C164.318 127.452 164.284 128.019 164.232 128.587V130.29L164.077 136.948L164.08 139.702L164.088 140.37C164.09 140.475 164.093 140.577 164.096 140.676L164.122 141.228C164.139 141.483 164.163 141.704 164.196 141.888L164.232 142.058C164.387 142.832 164.542 143.142 164.697 143.142L164.897 143.136C165.058 143.125 165.265 143.09 165.471 142.987L165.795 142.871L166.385 142.639C166.487 142.6 166.594 142.561 166.71 142.523V143.142L166.051 143.34L165.169 143.62L164.413 143.874L163.433 144.222L162.653 144.505L162.556 144.532C162.545 144.534 162.536 144.535 162.529 144.535C162.432 144.535 162.335 144.415 162.239 144.248L162.123 144.032C162.103 143.994 162.084 143.955 162.065 143.916C161.954 143.584 161.922 143.174 161.913 142.684L161.91 142.058L161.218 142.411L160.081 143.006C159.742 143.179 159.432 143.328 159.123 143.452C158.348 143.761 157.729 143.916 156.955 143.916C156.181 143.916 155.252 143.606 154.632 143.297C153.858 142.832 153.239 142.368 152.774 141.439C152.258 140.794 152.172 139.933 152.158 139.127L152.155 138.652C152.155 137.103 152.465 136.019 153.084 135.09C153.703 134.161 154.477 133.387 155.252 132.923C155.735 132.535 156.28 132.33 156.809 132.154L157.432 131.949L157.729 131.839C158.331 131.598 158.746 131.544 159.046 131.532L159.277 131.529L159.633 131.535C159.897 131.546 160.206 131.581 160.516 131.684L160.815 131.761L161.387 131.916C161.677 131.994 161.987 132.071 162.374 132.148C162.188 131.219 162.17 130.402 162.185 129.662L162.215 128.607C162.218 128.496 162.219 128.386 162.219 128.277V125.955C162.123 125.568 162.086 125.181 162.073 124.869L162.065 124.536C162.065 124.489 162.065 124.445 162.065 124.406C162.065 124.097 161.91 123.942 161.755 123.787C161.626 123.658 161.497 123.637 161.278 123.633L161.135 123.632C160.826 123.632 160.516 123.632 160.052 123.787V123.168C161.445 122.632 162.542 122.096 163.393 121.611L163.925 121.296C164.09 121.194 164.244 121.095 164.387 121ZM258.684 131.374C258.839 131.374 258.994 131.529 258.994 131.839V133.387L260.475 132.653L261.104 132.355C261.402 132.217 261.677 132.097 261.936 131.994C262.71 131.684 263.484 131.529 264.103 131.529C265.187 131.529 265.961 131.839 266.426 132.148C266.983 132.566 267.164 132.985 267.308 133.628L267.355 133.852C267.458 134.265 267.492 134.815 267.504 135.457L267.509 136.129L267.51 140.355L267.518 140.933C267.52 141.023 267.523 141.109 267.527 141.192L267.556 141.651C267.561 141.721 267.567 141.788 267.574 141.851L267.618 142.195C267.675 142.553 267.747 142.76 267.819 142.832C267.881 142.894 267.968 142.931 268.07 142.964L268.409 143.065C268.47 143.086 268.532 143.111 268.594 143.142L269.097 143.297C269.213 143.335 269.29 143.374 269.368 143.452V144.071C268.787 143.955 268.032 143.926 267.234 143.919L266.426 143.916C265.497 143.916 264.413 143.916 263.174 144.071V143.297C264.103 143.142 264.877 142.677 265.032 142.368L265.109 142.12C265.234 141.68 265.342 141.077 265.342 140.045C265.342 139.581 265.37 139.145 265.403 138.737L265.466 137.96C265.484 137.713 265.497 137.479 265.497 137.258L265.495 136.644C265.489 135.939 265.462 135.297 265.342 134.935C265.187 134.316 265.032 133.852 264.723 133.387C264.258 132.923 263.794 132.768 262.865 132.768C262.658 132.768 262.482 132.798 262.283 132.846L261.77 132.976C261.637 133.009 261.488 133.043 261.316 133.077C260.697 133.232 259.768 133.542 258.839 134.006L258.684 138.342V142.058C258.684 142.182 258.709 142.281 258.738 142.365L258.823 142.583C258.833 142.615 258.839 142.646 258.839 142.677C258.994 142.832 259.148 142.987 259.458 143.142C259.591 143.208 259.752 143.246 259.942 143.28L260.359 143.35C260.51 143.376 260.675 143.407 260.852 143.452V144.071C260.542 144.071 260.232 144.071 259.923 143.916L259.569 143.914L259.187 143.897C258.916 143.877 258.606 143.839 258.219 143.761L255.123 143.452V142.987L255.341 142.929L255.997 142.735C256.129 142.699 256.245 142.677 256.361 142.677C256.671 142.523 256.826 142.368 256.981 142.213C257.135 142.058 257.135 141.748 257.135 141.594C257.265 141.077 257.286 140.454 257.29 139.812L257.289 136.163L257.283 135.619C257.27 135.033 257.234 134.612 257.135 134.316C256.981 133.852 256.826 133.697 256.516 133.542C256.206 133.387 255.742 133.232 254.968 133.232V132.923L255.176 132.848L255.65 132.663C255.992 132.531 256.383 132.392 256.826 132.303L257.186 132.096L257.491 131.936L257.735 131.819L258.065 131.684C258.323 131.512 258.485 131.435 258.579 131.401L258.659 131.378L258.684 131.374ZM135.277 131.374C135.587 131.374 135.819 131.413 136.052 131.471L136.826 131.684C137.445 131.839 137.91 132.148 138.374 132.613C138.994 133.077 139.303 133.697 139.613 134.471L139.69 134.563L139.791 134.716C139.807 134.736 139.825 134.752 139.846 134.763L140.039 134.805L140.271 134.911C140.31 134.926 140.348 134.935 140.387 134.935L140.542 135.245L132.335 136.948C132.335 137.774 132.458 138.6 132.594 139.1L132.645 139.271C132.8 139.89 133.11 140.355 133.419 140.974C134.194 142.058 135.277 142.677 136.516 142.677C137.135 142.677 137.445 142.523 138.065 142.368C138.297 142.31 138.507 142.208 138.72 142.087L139.158 141.828C139.385 141.693 139.632 141.555 139.923 141.439L140.232 141.903C138.374 143.297 136.671 143.916 135.123 143.916C133.574 143.916 132.335 143.297 131.561 142.058C130.787 140.819 130.323 139.581 130.323 138.032C130.323 136.484 130.632 135.09 131.252 134.161C131.871 133.232 132.645 132.303 133.419 131.994C134.194 131.529 134.968 131.374 135.277 131.374ZM181.419 130.445C181.353 130.644 181.315 130.872 181.281 131.128L181.212 131.678C181.186 131.873 181.154 132.082 181.11 132.303C180.999 132.856 180.967 133.567 180.958 134.267L180.955 135.09C180.955 135.439 180.933 135.787 180.906 136.119L180.824 137.05C180.81 137.239 180.8 137.413 180.8 137.568V139.89C180.8 140.169 180.814 140.434 180.833 140.676L180.877 141.129L180.939 141.664C180.949 141.761 180.955 141.841 180.955 141.903L181.047 142.019L181.173 142.252C181.197 142.29 181.226 142.329 181.265 142.368L181.375 142.384L181.677 142.468C181.791 142.498 181.915 142.523 182.039 142.523C182.503 142.523 182.813 142.523 183.123 142.677L183.277 143.142L176.929 143.916V143.297L177.335 143.225C177.398 143.213 177.46 143.2 177.519 143.188L177.846 143.109C178.243 143 178.477 142.868 178.477 142.677L178.484 142.605L178.583 142.1C178.601 141.995 178.617 141.882 178.626 141.767L178.632 141.594C178.632 141.439 178.642 141.265 178.656 141.076L178.738 140.145C178.765 139.813 178.787 139.465 178.787 139.116L178.785 136.436L178.772 135.634L178.751 135.186C178.728 134.838 178.692 134.554 178.632 134.316C178.632 134.051 178.582 133.886 178.509 133.737L178.323 133.387L178.267 133.363C178.176 133.327 177.98 133.26 177.715 133.239L177.548 133.232C177.042 133.232 176.95 133.129 176.933 133.006L176.929 132.923C176.929 132.768 177.084 132.613 177.239 132.613C178.477 132.148 179.871 131.529 181.11 130.445H181.419ZM217.806 130.445C217.74 130.644 217.702 130.872 217.668 131.128L217.599 131.678C217.573 131.873 217.541 132.082 217.497 132.303C217.342 133.077 217.342 134.161 217.342 135.09C217.342 135.439 217.32 135.787 217.293 136.119L217.211 137.05C217.197 137.239 217.187 137.413 217.187 137.568V139.89C217.187 140.169 217.201 140.434 217.221 140.676L217.265 141.129L217.326 141.664C217.336 141.761 217.342 141.841 217.342 141.903L217.434 142.019L217.56 142.252C217.584 142.29 217.613 142.329 217.652 142.368L217.762 142.384L218.064 142.468C218.178 142.498 218.302 142.523 218.426 142.523C218.735 142.523 219.2 142.523 219.51 142.677L219.665 143.142L213.316 143.916V143.297L213.722 143.225C213.785 143.213 213.847 143.2 213.906 143.188L214.233 143.109C214.63 143 214.865 142.868 214.865 142.677L214.871 142.605L214.97 142.1C214.989 141.995 215.004 141.882 215.013 141.767L215.019 141.594C215.019 141.439 215.029 141.265 215.044 141.076L215.125 140.145C215.152 139.813 215.174 139.465 215.174 139.116L215.174 136.741L215.169 136.096L215.156 135.539C215.137 135.025 215.098 134.631 215.019 134.316C215.019 134.051 214.969 133.886 214.897 133.737L214.71 133.387L214.654 133.363C214.563 133.327 214.367 133.26 214.102 133.239L213.935 133.232C213.429 133.232 213.337 133.129 213.32 133.006L213.316 132.923C213.316 132.768 213.471 132.613 213.626 132.613C214.865 132.148 216.258 131.529 217.497 130.445H217.806ZM197.832 128.277L197.677 131.219C198.258 131.316 198.839 131.352 199.495 131.366L200.324 131.374L202.632 131.374V132.303C202.455 132.303 202.291 132.316 202.128 132.334L201.373 132.427C201.191 132.445 200.995 132.458 200.774 132.458L199.903 132.456L199.558 132.444C199.233 132.427 198.813 132.389 198.297 132.303H197.832C197.77 132.303 197.733 132.328 197.701 132.368L197.599 132.521C197.578 132.551 197.554 132.582 197.523 132.613C197.523 132.768 197.523 132.923 197.368 133.232V139.271C197.368 140.2 197.523 141.129 197.677 141.748C197.987 142.368 198.452 142.677 199.535 142.677C199.735 142.677 199.905 142.649 200.084 142.604L200.681 142.434C200.758 142.412 200.841 142.39 200.929 142.368C201.106 142.324 201.27 142.267 201.433 142.204L201.926 142.008C202.18 141.91 202.455 141.815 202.787 141.748V142.058C202.439 142.406 202.003 142.668 201.415 142.973L200.774 143.297C199.845 143.761 198.916 143.916 197.987 143.916C197.368 143.916 196.594 143.606 196.129 143.297C195.665 142.832 195.355 141.903 195.355 140.819V139.271H195.51V139.116L195.665 132.768C195.488 132.768 195.323 132.755 195.161 132.737L194.668 132.674C194.413 132.641 194.138 132.613 193.806 132.613V132.148L194.472 131.708C195.103 131.287 195.626 130.91 195.974 130.445C196.148 130.213 196.344 129.981 196.562 129.732L197.281 128.921C197.455 128.723 197.639 128.51 197.832 128.277ZM237.935 131.219C238.71 131.219 239.639 131.374 240.413 131.684C241.187 131.994 241.806 132.303 242.426 132.923C242.735 133.232 242.968 133.542 243.181 133.852L243.598 134.471C243.669 134.574 243.742 134.677 243.819 134.781C244.129 135.4 244.439 136.329 244.439 137.258C244.439 138.342 244.129 139.426 243.665 140.355L243.324 140.859C242.805 141.606 242.229 142.297 241.342 142.677C240.413 143.297 239.329 143.606 237.935 143.606C237.316 143.606 236.697 143.469 235.986 143.285L234.839 142.987C233.91 142.523 232.981 141.903 232.206 140.974C231.277 140.355 230.968 139.116 230.968 137.568C230.968 136.639 231.123 135.71 231.587 134.935L231.737 134.678L232.023 134.173C232.31 133.68 232.619 133.232 233.135 132.923C233.755 132.303 234.529 131.994 235.303 131.684C236.077 131.374 237.006 131.219 237.935 131.219ZM236.852 132.148C236.232 132.148 235.458 132.303 234.994 132.768C234.374 133.232 233.91 133.697 233.6 134.471L233.417 134.846C233.179 135.357 232.981 135.926 232.981 136.794C232.981 137.723 233.135 138.806 233.6 139.89L233.913 140.506C234.286 141.217 234.701 141.886 235.303 142.368C236.077 142.987 236.852 143.297 237.626 143.297C238.4 143.297 239.174 142.987 239.639 142.677C240.189 142.265 240.617 141.852 241.032 141.112L241.187 140.819C241.652 140.045 241.806 139.116 241.806 138.187C241.806 137.49 241.632 136.794 241.415 136.031L241.187 135.245C240.723 134.316 240.258 133.542 239.329 132.923C238.71 132.303 237.626 132.148 236.852 132.148ZM157.574 132.303C156.955 132.303 156.181 132.458 155.716 132.923L155.324 133.216C154.89 133.548 154.529 133.869 154.168 134.471C153.703 135.09 153.548 135.865 153.548 136.484C153.548 137.447 153.736 138.223 153.965 138.958L154.168 139.581L154.424 140C154.817 140.621 155.266 141.185 156.026 141.439C156.645 141.903 157.574 142.058 158.503 142.058C159.123 142.058 159.742 141.903 160.361 141.748C160.981 141.439 161.445 141.129 162.065 140.974V140.355C161.832 140.239 161.774 139.948 161.76 139.68L161.755 139.426L161.91 133.852C161.91 133.542 161.755 133.387 161.29 133.232C160.826 133.077 160.516 132.768 160.052 132.768C159.866 132.706 159.68 132.669 159.484 132.636L158.857 132.535C158.745 132.514 158.627 132.489 158.503 132.458L158.154 132.376L157.912 132.33L157.746 132.309L157.574 132.303ZM134.658 132.303C133.884 132.303 133.265 132.768 132.8 133.542C132.8 133.94 132.743 134.338 132.666 134.749L132.495 135.589C132.437 135.877 132.38 136.174 132.335 136.484L134.503 136.019C134.57 136.019 134.664 135.991 134.788 135.946L135.243 135.776C135.303 135.754 135.366 135.732 135.432 135.71L135.627 135.658L135.954 135.561L136.388 135.421C136.44 135.408 136.482 135.4 136.516 135.4L136.711 135.349L137.038 135.251L137.388 135.136C137.48 135.108 137.548 135.09 137.6 135.09C137.755 135.09 137.91 134.935 137.91 134.781C137.91 134.626 137.755 134.316 137.445 134.006C137.187 133.619 136.929 133.34 136.581 133.078L136.361 132.923C135.742 132.458 135.277 132.303 134.658 132.303ZM217.032 123.013C217.497 123.013 217.652 123.168 217.806 123.477C218.116 123.787 218.271 124.097 218.271 124.406C218.271 124.755 218.184 124.929 218.01 125.125L217.806 125.335C217.497 125.645 217.187 125.8 217.032 125.8C216.684 125.8 216.51 125.713 216.314 125.539L216.103 125.335C215.794 125.026 215.639 124.561 215.639 124.406C215.639 123.942 215.794 123.787 216.103 123.477C216.413 123.168 216.723 123.013 217.032 123.013ZM180.8 123.013C181.265 123.013 181.419 123.168 181.574 123.477L181.662 123.632L181.865 123.942C181.961 124.097 182.039 124.252 182.039 124.406C182.039 124.755 181.952 124.929 181.777 125.125L181.574 125.335C181.265 125.645 180.955 125.8 180.8 125.8C180.452 125.8 180.277 125.713 180.081 125.539L179.871 125.335C179.561 125.026 179.406 124.561 179.406 124.406C179.406 123.942 179.561 123.787 179.871 123.477C180.181 123.168 180.49 123.013 180.8 123.013ZM92.8516 73.4645C94.7097 73.4645 96.1032 73.7742 97.6516 74.3935C99.2 75.0129 100.284 76.0968 101.058 77.3355C101.832 78.5742 102.452 80.1226 102.452 81.8258C102.452 83.4155 101.912 85.0052 100.959 86.2172L100.748 86.471C99.5097 88.0194 97.8065 89.1032 95.4839 89.7226C98.1161 90.1871 100.129 90.9613 101.677 92.0452C103.226 93.129 104.31 94.2129 104.929 95.6065C105.548 96.8452 105.858 98.2387 105.858 99.7871C105.858 103.813 104.31 106.445 101.523 107.529C98.5806 108.613 95.6387 109.232 92.5419 109.232H85.4194C84.3355 109.077 82.4774 109.077 80 109.387V108.303L80.4645 108.211L81.3935 108.085C81.5484 108.061 81.7032 108.032 81.8581 107.994C82.3226 107.839 82.6323 107.684 82.9419 107.374L83.145 107.164C83.374 106.912 83.5613 106.617 83.5613 106.135L83.6433 105.652L83.6979 105.248L83.7526 104.775L83.8072 104.232L83.8892 103.284L83.9712 102.172L84.0258 101.335C84.0258 98.8581 84.1806 96.3806 84.1806 93.7484V83.529C84.1806 82.6442 84.1016 81.6014 84.0001 80.5699L83.871 79.3484C83.7935 78.6516 83.6774 78.1097 83.5613 77.6645L83.2934 76.7196C83.2785 76.6656 83.2645 76.6129 83.2516 76.5613C83.2516 76.0658 82.9543 75.7685 82.5976 75.5109L82.3226 75.3226C81.9785 75.1505 81.6822 75.0741 81.3275 75.0135L80.3097 74.8581V73.7742L81.8644 73.9033C83.1284 74.0049 84.3134 74.0839 85.4194 74.0839L85.5729 74.0777L88.7868 73.8015L90.7439 73.6548L92.8516 73.4645ZM252.955 73.1548C255.432 73.1548 257.91 73.6194 260.232 74.5484C261.316 75.0129 262.09 75.1677 262.71 75.1677C262.834 75.1677 262.933 75.143 263.017 75.1132L263.235 75.029C263.267 75.0191 263.298 75.0129 263.329 75.0129H263.794C263.948 75.0129 264.103 75.1677 264.258 75.3226L263.794 76.871C263.561 77.5677 263.406 78.3419 263.271 79.2129L263.14 80.1168L262.939 81.6031C262.915 81.7774 262.89 81.9548 262.865 82.1355C262.555 82.1355 262.245 81.9806 262.245 81.8258C262.116 81.6968 262.095 81.4602 262.091 81.2057L262.09 81.0516C262.09 79.9677 261.935 79.1935 261.626 78.729C261.045 78.0032 260.056 77.1413 258.276 76.3985L257.91 76.2516C256.052 75.4774 253.884 75.0129 252.026 75.0129C249.394 75.0129 247.071 75.6323 245.058 76.871C243.045 78.1097 241.342 79.9677 240.103 82.4452C238.865 84.9226 238.245 87.8645 238.245 91.271C238.245 94.3677 238.865 97 239.948 99.1677C241.032 101.335 242.426 103.194 243.974 104.587C245.677 105.826 247.226 106.755 248.929 107.529C250.632 108.148 252.026 108.303 253.265 108.303C255.123 108.303 256.826 107.994 258.065 107.374C259.303 106.755 260.387 105.981 261.161 105.052C261.316 104.819 261.49 104.587 261.674 104.35L262.245 103.619C262.535 103.242 262.826 102.843 263.083 102.405L263.329 101.955C263.526 101.561 263.723 101.355 263.84 101.257L263.92 101.198L263.948 101.181C264.413 101.181 264.568 101.335 264.568 101.8C264.404 101.636 264.283 101.776 264.137 102.128L264.035 102.392L263.718 103.29C263.692 103.359 263.666 103.43 263.639 103.503L263.614 103.557L263.526 103.803L263.413 104.183L263.217 104.909L262.555 107.529C261.759 107.794 260.962 108.003 260.178 108.191L258.63 108.552C258.121 108.67 257.622 108.79 257.135 108.923C255.432 109.232 253.884 109.387 251.871 109.387C249.703 109.387 247.381 108.923 245.213 108.148C243.045 107.374 240.877 106.29 239.174 104.587C237.316 103.039 236.077 101.181 234.839 98.8581C233.755 96.6903 233.29 94.0581 233.29 91.1161C233.29 87.282 234.133 84.1501 235.952 81.453L236.232 81.0516C238.09 78.2645 240.568 76.4065 243.665 75.0129C246.761 73.7742 249.858 73.1548 252.955 73.1548ZM142.245 73.7742V74.8581L141.465 74.9613L140.777 75.0645C140.563 75.0989 140.364 75.1333 140.181 75.1677L139.676 75.271C139.6 75.2882 139.527 75.3054 139.458 75.3226C138.839 75.4774 138.374 75.9419 138.065 76.5613L138.003 76.7726L137.941 77.0379C137.93 77.0868 137.92 77.1382 137.91 77.1921L137.848 77.5466L137.786 77.966L137.724 78.4548L137.631 79.3277C137.621 79.4344 137.61 79.5445 137.6 79.6581C137.561 80.0904 137.531 80.5328 137.509 80.9952L137.475 81.9499L137.456 82.9762L137.447 84.0922L137.445 85.8516C137.342 87.7097 137.308 89.4989 137.296 91.1735L137.291 92.8081L137.292 101.569L137.306 102.727L137.326 103.404C137.344 103.829 137.372 104.202 137.412 104.517L137.484 104.971L137.564 105.402C137.687 106.019 137.832 106.484 138.065 106.6C138.34 106.875 138.737 107.028 139.366 107.168L139.613 107.219C139.795 107.265 140.058 107.297 140.397 107.32L140.84 107.343L141.639 107.363L143.316 107.374L144.103 107.374C146.128 107.374 147.786 107.191 149.29 106.965L150.606 106.755C152.465 106.445 153.703 105.981 154.477 105.361C155.561 104.742 156.335 103.503 156.8 101.8L157.729 101.955L157.589 102.528L157.477 103.018C157.458 103.106 157.439 103.197 157.419 103.29L157.305 103.882C157.23 104.295 157.161 104.742 157.11 105.206L156.96 105.717L156.68 106.697C156.404 107.649 156.129 108.51 155.716 109.232L153.835 109.039C153.694 109.026 153.556 109.013 153.422 109.001L152.665 108.944C152.428 108.93 152.206 108.923 152 108.923H129.548V108.148L129.898 108.051L130.81 107.814L131.515 107.634L131.871 107.529C132.335 107.374 132.645 106.91 132.955 106.135C133.265 105.516 133.419 104.587 133.419 103.348C133.455 103.063 133.483 102.744 133.504 102.394L133.538 101.653C133.543 101.523 133.547 101.389 133.55 101.253L133.565 100.394L133.574 98.9674L133.574 79.8129C133.574 78.4194 133.419 77.3355 133.11 76.7161C132.8 76.0968 132.49 75.6323 132.026 75.3226C131.561 75.0129 130.942 74.8581 129.858 74.8581V73.929L138.816 73.9242L140.195 73.9065L141.041 73.8794L141.514 73.8528C141.587 73.8478 141.657 73.8423 141.724 73.8366L142.089 73.7974C142.144 73.7901 142.196 73.7823 142.245 73.7742ZM196.129 73H197.058L197.523 74.5048L197.987 75.9806C198.297 76.9484 198.606 77.8774 198.916 78.729L204.49 94.0581L205.945 97.7309L206.624 99.4873L207.19 101.004L207.542 101.989L207.742 102.574C208.14 103.769 208.602 104.707 209.005 105.431L209.263 105.882L209.6 106.445C210.065 107.065 210.994 107.529 212.542 107.684V108.923L211.039 108.773C210.065 108.682 209.135 108.613 208.206 108.613C207.123 108.613 206.194 108.613 205.11 108.768C204.626 108.865 204.142 108.901 203.734 108.914L203.285 108.922C203.218 108.923 203.155 108.923 203.097 108.923C202.787 109.077 202.323 109.077 202.013 109.077V108.148L202.589 108.03C203.155 107.906 203.677 107.761 204.026 107.529C204.542 107.271 204.628 107.013 204.642 106.576L204.645 106.29C204.645 105.671 204.49 105.052 204.026 103.968L203.569 102.636L203.469 102.306C203.429 102.158 203.406 102.039 203.406 101.955L201.394 96.5355L200.891 96.4696L200.313 96.4064L199.659 96.3486L198.929 96.2989L198.123 96.2601C197.561 96.2384 196.947 96.2258 196.284 96.2258H194.271C192.103 96.071 190.09 96.2258 188.697 96.5355L186.529 101.49L185.684 103.651L185.499 104.144L185.347 104.578C185.213 104.983 185.135 105.298 185.135 105.516C185.135 106.135 185.445 106.6 185.91 107.219C186.529 107.684 187.768 107.994 189.316 108.148V109.077C187.303 108.768 185.29 108.613 183.897 108.613C182.929 108.613 181.961 108.673 180.918 108.757L178.942 108.923V108.148C180.026 107.839 180.8 107.529 181.419 106.91L181.606 106.706L181.8 106.463L182.007 106.174L182.233 105.832L182.486 105.43L183.277 104.123L183.843 102.863L184.462 101.517C184.782 100.833 185.113 100.141 185.445 99.4774C185.727 98.7032 186.008 97.993 186.275 97.3613L186.588 96.6419L186.881 96.0035C186.974 95.8048 187.064 95.6205 187.148 95.4516L191.484 85.0774C191.732 84.5819 191.955 84.0617 192.173 83.5266L192.832 81.8865L193.627 80.0065L194.45 77.9161L194.89 76.871C195.116 76.3642 195.279 75.8984 195.411 75.4736L195.59 74.867L195.743 74.3219C195.817 74.0647 195.89 73.8305 195.974 73.6194C195.974 73.3097 195.974 73.1548 196.129 73ZM316.284 73.3097V74.3935C314.735 74.5484 312.877 75.6323 310.555 77.6452C309.161 78.8529 307.824 80.0606 306.508 81.2684L303.897 83.6839L300.181 87.4C299.639 87.8645 299.174 88.329 298.748 88.7742L297.839 89.735C297.742 89.8363 297.645 89.9355 297.548 90.0323L307.613 98.3936L313.2 102.985L314.544 104.063L315.221 104.59L315.802 105.024L316.134 105.26C316.186 105.295 316.236 105.329 316.284 105.361C316.806 105.768 317.307 106.131 317.786 106.466L319.586 107.703C319.727 107.8 319.865 107.897 320 107.994V108.768C319.845 108.768 319.535 108.768 319.381 108.613C319.071 108.458 318.761 108.458 318.452 108.458C317.806 108.329 316.946 108.308 316.229 108.304L315.819 108.303C315.538 108.303 315.241 108.308 314.93 108.318L313.953 108.357L312.896 108.416L309.935 108.613V107.839L310.052 107.815L310.284 107.708C310.323 107.694 310.361 107.684 310.4 107.684C310.555 107.684 310.865 107.529 311.019 107.529L311.37 107.435C311.806 107.306 312.103 107.157 312.103 106.91C312.103 106.75 311.969 106.508 311.701 106.183L311.475 105.924C311.391 105.832 311.299 105.735 311.198 105.634L310.872 105.313L310.495 104.961L310.067 104.578L309.59 104.164L309.062 103.719L308.176 102.994L307.177 102.2L306.448 101.631C306.322 101.534 306.194 101.435 306.065 101.335L300.955 97.1548L300.276 96.6519C299.964 96.4178 299.685 96.1948 299.406 95.9161C299.314 95.8542 299.221 95.7861 299.124 95.7117L298.47 95.1915C298.217 94.9933 297.92 94.7703 297.548 94.5226L296.944 94.0581L295.676 93.129C295.468 92.9742 295.265 92.8194 295.071 92.6645C294.761 92.5097 294.606 92.2 294.452 92.0452L294.458 94.189L294.483 95.9837L294.521 97.5131L294.581 99.194L294.759 103.44L294.804 104.228C294.816 104.387 294.828 104.536 294.841 104.674L294.884 105.057C294.93 105.408 294.99 105.664 295.071 105.826C295.381 106.445 296 106.91 296.929 107.374C297.858 107.839 298.787 107.994 299.097 107.994V108.768C298.954 108.732 298.778 108.705 298.571 108.681L298.116 108.64L296.639 108.544L295.92 108.491C295.795 108.481 295.667 108.47 295.535 108.458L290.575 108.458L289.398 108.466C288.452 108.48 287.581 108.516 286.71 108.613V107.684C287.794 107.529 288.568 107.374 289.032 107.065C289.595 106.783 289.774 106.374 289.919 105.72L290.019 105.254L290.077 104.931L290.135 104.542L290.223 103.828L290.281 103.26L290.339 102.614L290.517 100.322C290.622 98.9002 290.71 97.2809 290.731 95.5705L290.741 94.0872L290.765 93.0826L290.8 92.2215L290.889 90.5842L290.887 87.2992L290.868 84.552L290.851 83.5792L290.828 82.6785L290.798 81.8498C290.792 81.7177 290.786 81.5886 290.779 81.4625L290.735 80.7419L290.732 79.5473L290.721 78.837C290.703 78.1634 290.665 77.6029 290.581 77.1806L290.426 76.4237L290.323 75.97C290.254 75.6896 290.185 75.4602 290.116 75.3226C289.884 74.9742 289.652 74.8 289.419 74.6694L289.187 74.5484C288.973 74.87 288.61 74.8947 288.099 74.8281L287.736 74.7724L287.329 74.7032V73.7742L292.105 74.0328L292.74 74.0602L293.314 74.0777L293.832 74.0839L294.698 74.0822C295.639 74.0762 296.361 74.0495 297.084 73.929C297.305 73.8848 297.539 73.8532 297.775 73.827L298.476 73.7575C298.819 73.7236 299.141 73.6857 299.406 73.6194V74.3935C297.394 74.7032 296 75.1677 295.535 75.9419C295.494 76.0245 295.453 76.1622 295.412 76.349L295.35 76.6653L295.288 77.0511L295.195 77.7501L295.102 78.5805C295.092 78.6795 295.081 78.7806 295.071 78.8839L294.922 80.5584C294.845 81.4855 294.785 82.4286 294.767 83.4938L294.759 84.568L294.743 85.3403L294.7 86.3464L294.625 87.6846L294.609 88.125C294.607 88.1947 294.606 88.2627 294.606 88.329V91.5806L296.055 90.1933L296.533 89.7226C296.616 89.64 296.7 89.5554 296.785 89.4686L297.31 88.9236C297.489 88.7337 297.672 88.5355 297.858 88.329L305.723 80.4602L306.486 79.6799L306.923 79.2177L307.303 78.8001L307.623 78.4257C307.816 78.19 307.968 77.9822 308.077 77.8C308.542 77.3355 308.697 76.871 308.697 76.0968C308.697 75.3226 307.923 74.8581 306.065 74.7032V73.6194H310.555C312.413 73.6194 314.271 73.6194 316.284 73.3097ZM87.7419 90.8065L87.7438 102.525L87.7507 103.213L87.7661 103.822C87.7868 104.393 87.8253 104.849 87.8968 105.206L88.0573 105.854C88.172 106.29 88.3097 106.703 88.5161 106.91C88.8258 107.374 89.1355 107.529 89.7548 107.529C90.1677 107.735 90.7183 107.804 91.4523 107.827L92.038 107.837L92.6968 107.839C93.8581 107.839 94.9323 107.665 95.9847 107.447L97.0323 107.219C98.3097 106.794 99.3269 106.108 100.203 105.042L100.439 104.742C101.368 103.658 101.832 101.955 101.832 100.097C101.832 99.0129 101.523 97.929 101.213 96.8452C100.748 95.7613 100.129 94.6774 99.3548 93.7484C98.5806 92.8194 97.4968 92.0452 96.1032 91.5806C94.7097 90.9613 93.0065 90.8065 91.3032 90.8065H89.7548C88.9806 90.6516 88.3613 90.6516 87.7419 90.8065ZM195.2 80.4323C194.942 80.8624 194.779 81.2925 194.659 81.6695L194.426 82.4452C194.252 82.7935 194.121 83.0984 194.009 83.376L193.707 84.1435C193.642 84.3032 193.574 84.4581 193.497 84.6129L190.4 92.5097C190.329 92.6764 190.264 92.8358 190.206 92.9868L190.05 93.4132L189.778 94.2128C189.721 94.3687 189.673 94.4749 189.626 94.5226C190.71 94.7634 191.981 94.817 193.294 94.8289L194.426 94.8323L197.911 94.8306C199.056 94.8246 200.086 94.7979 200.929 94.6774L200.704 94.0169L200.398 93.1623L200.135 92.471L199.921 91.9429L199.763 91.5782L199.69 91.4258L197.832 86.471L197.761 86.3224L197.614 85.9889L197.373 85.3851L196.731 83.7207C196.687 83.6087 196.641 83.4933 196.594 83.3742L195.835 81.673L195.626 81.2255L195.439 80.849C195.351 80.6796 195.271 80.5395 195.2 80.4323ZM90.8387 74.8581C89.6 74.8581 88.8258 75.0129 88.5161 75.3226C88.4276 75.3668 88.3518 75.5122 88.285 75.7587L88.2211 76.0388L88.1623 76.3864L88.108 76.8014L88.0573 77.2839L88.0095 77.8337L87.9636 78.451L87.8968 79.5032C87.8968 79.9987 87.8906 80.488 87.8807 80.9686L87.8423 82.382L87.7754 84.372L87.7463 85.5902C87.7435 85.785 87.7419 85.9755 87.7419 86.1613V89.4129H89.1355C90.8387 89.4129 92.2323 89.2581 93.471 88.9484C94.7097 88.6387 95.7935 88.1742 96.7226 87.0903C97.6516 86.1613 98.1161 84.6129 98.1161 82.6C98.1161 80.8968 97.8065 79.5032 97.1871 78.4194C96.5677 77.3355 95.4839 76.4065 94.4 75.7871C93.471 75.1677 92.2323 74.8581 90.8387 74.8581Z" fill="#1D1D23"/>
</svg>
