<svg width="400" height="220" viewBox="0 0 400 220" fill="none" xmlns="http://www.w3.org/2000/svg">
<path d="M242.712 100.506H244.373C245.015 103.705 247.287 114.932 258.055 114.932C264.28 114.932 268.243 110.704 268.243 105.987C268.243 100.012 262.556 97.5069 258.193 95.5851C257.758 95.3936 257.336 95.2078 256.934 95.0249C249.854 91.8973 243.059 88.8511 243.059 80.3239C243.091 77.3002 244.319 74.4123 246.474 72.2913C248.63 70.1704 251.537 68.989 254.561 69.0053H255.172C257.196 68.9478 259.205 69.3594 261.043 70.2077C262.881 71.0561 264.498 72.3182 265.767 73.8954C266.77 72.7529 267.399 71.3309 267.571 69.8203H269.15V81.8113H267.683C265.482 73.5083 260.113 70.6048 255.457 70.6048C253.562 70.39 251.659 70.9369 250.167 72.1253C248.674 73.3137 247.715 75.0462 247.501 76.9416V77.7057C247.501 83.1867 253.175 85.7744 258.463 88.0565C267.224 91.8667 273.011 94.6276 273.011 103.399C273.011 109.97 268.783 116.552 258.595 116.552C256.199 116.567 253.828 116.06 251.647 115.068C249.465 114.076 247.526 112.622 245.962 110.806C245.1 112.13 244.534 113.624 244.302 115.187H242.641L242.712 100.506Z" fill="#1D1D23"/>
<path d="M91.6477 98.5805V114.606H90.2622C89.8766 112.849 89.1308 111.19 88.0718 109.736C86.185 111.982 83.81 113.768 81.1279 114.956C78.4459 116.144 75.5279 116.704 72.5965 116.593C59.6478 116.593 50 107.719 50 93.6496C50 81.9234 56.7953 69.0359 72.4641 69.0359C75.4018 68.9762 78.3176 69.5526 81.0116 70.7255C83.7056 71.8984 86.114 73.6401 88.0718 75.8311C89.0007 73.9604 89.5872 71.9385 89.8037 69.8611H91.3217L91.6477 87.272H90.2622C88.2246 73.6815 79.4835 70.6965 73.5847 70.6965C61.5122 70.6965 57.7631 82.6264 57.7631 93.3643C57.7631 108.707 65.9133 114.667 73.9108 114.667C85.1173 114.667 89.4573 105.304 90.2927 98.5805H91.6477Z" fill="#1D1D23"/>
<path fill-rule="evenodd" clip-rule="evenodd" d="M109.894 86.8441C113.752 86.7731 117.481 88.2345 120.263 90.908C123.046 93.5816 124.655 97.2492 124.738 101.107V101.861C124.82 103.756 124.527 105.648 123.876 107.429C123.225 109.21 122.228 110.845 120.944 112.24C119.659 113.635 118.112 114.763 116.391 115.559C114.669 116.355 112.808 116.803 110.913 116.878H109.894C106.077 116.979 102.375 115.56 99.603 112.934C96.831 110.307 95.2155 106.687 95.1115 102.869V101.912C95.0185 98.0521 96.4625 94.3135 99.1258 91.5184C101.789 88.7233 105.454 87.1005 109.313 87.0071H109.894V86.8441ZM109.894 115.207C118.156 115.207 119.124 107.933 119.124 102.054C119.124 94.5562 117.321 88.5251 109.894 88.5251C102.467 88.5251 100.725 94.4238 100.725 101.983C100.725 107.597 101.56 115.136 109.894 115.136V115.207Z" fill="#1D1D23"/>
<path d="M141.537 114.27C136.606 114.27 136.606 114.056 136.606 106.293V69.1479H136.117C133.21 70.0731 130.183 70.5674 127.132 70.6149V72.2144C131.777 72.2144 131.777 73.6916 131.777 78.7855V106.293C131.777 113.506 131.686 114.27 127.611 114.27H126.714V115.788H141.537V114.27Z" fill="#1D1D23"/>
<path fill-rule="evenodd" clip-rule="evenodd" d="M149.494 97.4598C149.494 97.9145 149.46 98.3916 149.425 98.8976C149.384 99.4687 149.341 100.076 149.341 100.73C149.341 104.255 149.494 115.085 158.439 115.085C160.29 115.155 162.118 114.663 163.684 113.674C165.25 112.684 166.479 111.244 167.211 109.543H168.81C167.961 111.827 166.396 113.775 164.349 115.097C162.302 116.419 159.882 117.044 157.451 116.878C155.615 116.859 153.8 116.479 152.112 115.758C150.423 115.038 148.893 113.991 147.609 112.679C146.325 111.366 145.312 109.814 144.628 108.11C143.945 106.405 143.604 104.583 143.626 102.747V102.105C143.626 93.5171 149.301 86.9154 157.145 86.9154C158.6 86.8385 160.057 87.0493 161.43 87.5358C162.804 88.0222 164.068 88.7748 165.151 89.7504C166.233 90.726 167.113 91.9055 167.739 93.2213C168.365 94.5372 168.726 95.9636 168.8 97.419C168.806 97.4562 168.806 97.4939 168.8 97.5311L149.494 97.4598ZM162.871 96.0844C162.962 95.628 163.013 95.1643 163.024 94.6989C163.085 93.9409 162.996 93.1782 162.763 92.4545C162.529 91.7309 162.155 91.0603 161.662 90.4812C161.169 89.9022 160.567 89.426 159.89 89.0798C159.212 88.7337 158.474 88.5244 157.716 88.464C157.468 88.4487 157.22 88.4487 156.972 88.464C150.859 88.464 149.912 94.2914 149.627 96.0946L162.871 96.0844Z" fill="#1D1D23"/>
<path d="M185.671 79.9878C185.659 82.0504 186.231 84.0742 187.321 85.8254V86.0393C185.24 87.3945 183.553 89.2734 182.428 91.4873C181.303 93.7012 180.781 96.1721 180.913 98.6518C180.913 109.757 190.449 116.99 202.134 116.99C218.73 116.99 224.181 107.281 224.181 99.1306C224.226 97.2861 223.887 95.4523 223.185 93.7458C222.484 92.0393 221.435 90.4973 220.106 89.2179C227.094 89.0957 234.369 86.3246 234.369 78.5309C234.477 76.2106 233.66 73.9423 232.098 72.2234C230.535 70.5045 228.355 69.4754 226.035 69.3619C225.379 69.2828 224.713 69.3355 224.078 69.517C223.443 69.6986 222.85 70.0052 222.334 70.419C221.819 70.8328 221.392 71.3453 221.077 71.9266C220.763 72.5078 220.567 73.1461 220.503 73.8038V73.9872C220.522 74.2769 220.599 74.5599 220.729 74.8197C220.858 75.0796 221.038 75.311 221.258 75.5006C221.478 75.6902 221.734 75.8342 222.01 75.9242C222.286 76.0142 222.577 76.0483 222.867 76.0247C223.592 76.0993 224.32 75.9224 224.931 75.5236C225.541 75.1249 225.996 74.5284 226.218 73.8344C226.809 72.7239 227.207 72.3266 228.123 72.3266C229.296 72.433 230.38 72.9953 231.142 73.8927C231.904 74.7901 232.283 75.9508 232.199 77.125C232.199 81.842 228.592 84.4704 222.011 84.4704C220.826 84.4704 219.563 84.4107 218.236 84.348C216.768 84.2786 215.221 84.2055 213.616 84.2055C208.42 84.2055 203.581 87.2007 203.581 93.3745C203.581 97.4395 205.996 100.2 209.541 100.2C211.314 100.2 213.096 99.3344 213.096 97.144V96.7569C213.036 96.0035 212.682 95.304 212.11 94.8101C211.538 94.3162 210.794 94.0676 210.04 94.1183C209.511 94.1183 208.917 94.3447 208.34 94.5646C207.795 94.7722 207.266 94.974 206.821 94.974C205.904 94.974 205.048 94.1998 205.048 92.6206C205.048 89.9922 207.738 88.0871 212.281 88.0871C218.048 88.0871 222.052 90.9193 222.052 97.3376C222.052 106.364 214.706 111.458 204.345 111.458C192.048 111.458 183.786 103.776 183.786 95.626C183.623 93.9443 183.95 92.2512 184.727 90.7509C185.505 89.2507 186.699 88.0071 188.167 87.1702C189.536 88.6425 191.401 89.5569 193.403 89.7375C195.706 89.7375 196.827 88.5455 196.827 86.9053C196.827 84.8677 195.074 83.6859 192.446 83.6859C191.548 83.7224 190.664 83.9226 189.838 84.2768C188.99 83.6257 188.313 82.7782 187.866 81.8074C187.419 80.8366 187.214 79.7715 187.27 78.7041C187.255 78.4837 187.255 78.2624 187.27 78.0419C187.308 76.4737 187.966 74.9845 189.101 73.9014C190.235 72.8183 191.754 72.2299 193.322 72.2654C194.499 72.2754 195.637 72.693 196.541 73.4472C196.909 73.8228 197.348 74.1208 197.833 74.3238C198.317 74.5268 198.838 74.6306 199.363 74.629C199.479 74.6388 199.594 74.6388 199.71 74.629C199.951 74.611 200.186 74.5455 200.402 74.4362C200.617 74.327 200.809 74.1762 200.966 73.9925C201.124 73.8088 201.243 73.5959 201.317 73.3659C201.392 73.136 201.42 72.8935 201.401 72.6526C201.401 70.7373 199.363 69.1582 196.307 69.1582C195.93 69.1378 195.553 69.1378 195.176 69.1582C193.841 69.245 192.536 69.594 191.335 70.1852C190.135 70.7765 189.063 71.5984 188.18 72.6041C187.298 73.6097 186.622 74.7794 186.191 76.0463C185.761 77.3132 185.584 78.6525 185.671 79.9878Z" fill="#1D1D23"/>
<path fill-rule="evenodd" clip-rule="evenodd" d="M302.625 90.908C299.843 88.2345 296.114 86.7731 292.256 86.8441V86.9561H291.685C287.827 87.0522 284.165 88.6762 281.504 91.471C278.843 94.2658 277.401 98.0029 277.494 101.861C277.473 102.241 277.473 102.622 277.494 103.002C277.568 104.946 278.026 106.856 278.839 108.623C279.652 110.391 280.805 111.98 282.233 113.302C283.66 114.624 285.334 115.651 287.159 116.326C288.983 117 290.923 117.309 292.867 117.234C294.811 117.159 296.721 116.702 298.488 115.889C300.256 115.076 301.845 113.923 303.167 112.495C304.489 111.068 305.516 109.394 306.191 107.569C306.866 105.744 307.174 103.805 307.099 101.861V101.107C307.016 97.2492 305.407 93.5816 302.625 90.908ZM301.486 102.054C301.486 107.933 300.518 115.207 292.256 115.207V115.136C283.912 115.136 283.087 107.597 283.087 101.983C283.087 94.4238 284.829 88.5251 292.256 88.5251C299.683 88.5251 301.486 94.5562 301.486 102.054Z" fill="#1D1D23"/>
<path d="M317.185 86.9155C317.71 88.7959 318.014 90.731 318.092 92.6818C321.617 88.8002 324.663 86.9155 328.759 86.9155C335.136 86.9155 337.53 91.3064 337.53 96.0132V106.293C337.53 113.852 337.53 114.27 342.084 114.27V115.788H327.913V114.27C332.691 114.27 332.691 113.852 332.691 106.293V97.3274C332.691 91.0211 330.501 89.004 327.088 89.004C323.268 89.004 320.71 92.0826 318.572 94.6558C318.486 94.7594 318.401 94.8621 318.316 94.9638V106.293C318.316 113.791 318.316 114.27 322.901 114.27V115.788H308.638V114.27C313.202 114.27 313.202 113.852 313.202 106.293V98.01C313.202 90.471 313.202 90.0533 308.638 90.0533V88.5149C311.22 88.187 313.772 87.6521 316.268 86.9155H317.185Z" fill="#1D1D23"/>
<path d="M50.0409 125.171H341.952V126.882H50.0409V125.171Z" fill="#1D1D23"/>
<path d="M341.952 129.572H50.0409V134.676H341.952V129.572Z" fill="#1D1D23"/>
<path fill-rule="evenodd" clip-rule="evenodd" d="M346.801 82.2086C346.801 81.2408 346.017 80.5175 344.611 80.5175L341.626 80.5684V80.7722C342.329 80.7722 342.329 81.0472 342.329 81.7909V85.7234C342.329 86.4569 342.329 86.7422 341.544 86.7422V86.946H344.387V86.6811C343.49 86.6811 343.49 86.4264 343.49 85.6623V83.9304H344.061L346.251 86.9867H347.636V86.7218L347.618 86.7204C347.362 86.7011 347.167 86.6863 346.709 86.0596L345.11 83.8693C345.548 83.7572 346.801 83.1765 346.801 82.2086ZM343.714 83.6757H343.49V80.9555C343.695 80.8772 343.913 80.8391 344.132 80.8435H344.244C344.62 80.8515 344.979 81.0081 345.24 81.2791C345.501 81.5502 345.645 81.9136 345.64 82.2901C345.64 83.4312 344.478 83.6757 343.714 83.6757Z" fill="#1D1D23"/>
<path fill-rule="evenodd" clip-rule="evenodd" d="M349.099 86.7796C349.686 85.9001 350 84.866 350 83.8081C350 82.3896 349.437 81.0292 348.433 80.0261C347.43 79.023 346.07 78.4595 344.651 78.4595C343.594 78.4595 342.559 78.7732 341.68 79.3609C340.8 79.9486 340.115 80.784 339.71 81.7613C339.305 82.7386 339.199 83.8141 339.406 84.8516C339.612 85.8891 340.121 86.8421 340.869 87.5902C341.617 88.3382 342.57 88.8476 343.608 89.0539C344.646 89.2603 345.721 89.1544 346.698 88.7496C347.676 88.3448 348.511 87.6592 349.099 86.7796ZM340.585 86.5249C340.048 85.7208 339.761 84.7753 339.761 83.8081C339.761 82.5112 340.277 81.2674 341.194 80.3503C342.111 79.4332 343.354 78.918 344.651 78.918C345.619 78.918 346.564 79.2048 347.368 79.7421C348.172 80.2795 348.799 81.0432 349.169 81.9367C349.539 82.8303 349.636 83.8135 349.448 84.7621C349.259 85.7107 348.793 86.5821 348.109 87.266C347.425 87.9499 346.554 88.4156 345.605 88.6043C344.657 88.793 343.674 88.6962 342.78 88.326C341.887 87.9559 341.123 87.3291 340.585 86.5249Z" fill="#1D1D23"/>
<path d="M57.1212 151.69V154.165H57.0601V153.921C56.9276 153.574 56.8156 153.309 56.7341 153.136C56.5551 152.815 56.3083 152.537 56.0107 152.321C55.8269 152.135 55.609 151.987 55.3689 151.883C55.1314 151.793 54.8792 151.748 54.6252 151.751C54.2448 151.741 53.8688 151.833 53.5351 152.016C53.2401 152.206 52.9785 152.443 52.7608 152.719C52.5251 153.031 52.3331 153.373 52.1903 153.737C51.9866 154.331 51.8834 154.954 51.8847 155.581C51.8734 156.116 51.9491 156.65 52.1088 157.16C52.2265 157.591 52.4428 157.989 52.7404 158.322C52.9905 158.615 53.3037 158.848 53.6565 159.003C54.0094 159.159 54.3928 159.232 54.778 159.218C55.1741 159.189 55.5612 159.085 55.919 158.913C56.2273 158.772 56.4915 158.55 56.6831 158.271C56.9255 157.892 57.0916 157.47 57.1721 157.028H57.3046C57.2472 157.524 57.0801 158.001 56.8156 158.424C56.556 158.773 56.2027 159.041 55.7968 159.198C55.3366 159.379 54.8446 159.466 54.3501 159.453C53.8519 159.451 53.357 159.372 52.8831 159.218C52.1653 158.995 51.5464 158.531 51.1308 157.904C50.7212 157.247 50.5025 156.488 50.4991 155.714C50.4928 155.074 50.6176 154.439 50.8659 153.849C51.0665 153.263 51.4179 152.739 51.8847 152.331C52.2513 152.056 52.6609 151.842 53.097 151.7C53.5469 151.549 54.0184 151.474 54.4927 151.476C54.9787 151.475 55.4611 151.557 55.919 151.72L56.3877 151.873C56.4645 151.893 56.5452 151.893 56.622 151.873C56.6663 151.879 56.7113 151.871 56.7512 151.851C56.7911 151.831 56.8242 151.8 56.8461 151.761V151.588L57.1212 151.69Z" fill="#1D1D23"/>
<path fill-rule="evenodd" clip-rule="evenodd" d="M58.7718 153.839C58.5329 154.384 58.4281 154.978 58.4661 155.571C58.517 156.016 58.6409 156.45 58.8329 156.855C58.9498 157.274 59.1432 157.667 59.4034 158.016C59.7782 158.456 60.2486 158.805 60.7788 159.035C61.3089 159.28 61.8857 159.409 62.4699 159.412C63.0667 159.404 63.6557 159.275 64.2019 159.035C64.7296 158.785 65.2064 158.44 65.6078 158.016C66.2301 157.314 66.5737 156.408 66.5737 155.469C66.5737 154.531 66.2301 153.625 65.6078 152.922C65.2197 152.483 64.7397 152.136 64.2019 151.903C63.6911 151.655 63.1295 151.53 62.5616 151.537C62.1045 151.532 61.6499 151.604 61.2168 151.751C60.7766 151.927 60.3593 152.157 59.9739 152.433C59.4707 152.803 59.0594 153.285 58.7718 153.839ZM60.6769 158.281C60.0869 157.503 59.778 156.547 59.8007 155.571L59.7702 155.653C59.7838 155.065 59.8798 154.482 60.0554 153.921C60.2005 153.44 60.428 152.989 60.7278 152.586C60.9473 152.303 61.2253 152.07 61.5428 151.903C61.8646 151.766 62.2121 151.7 62.5616 151.71C62.9109 151.704 63.2578 151.769 63.5804 151.903C63.8955 152.065 64.1678 152.299 64.375 152.586C64.6908 152.981 64.9261 153.435 65.0678 153.921C65.2404 154.475 65.333 155.051 65.3429 155.632C65.3364 156.592 65.0142 157.523 64.426 158.281C64.193 158.578 63.9018 158.824 63.5702 159.004C63.2543 159.162 62.9043 159.239 62.5514 159.228C62.1987 159.237 61.8491 159.16 61.5327 159.004C61.1952 158.833 60.9023 158.585 60.6769 158.281Z" fill="#1D1D23"/>
<path d="M67.7369 159.32V159.188C67.898 159.193 68.0584 159.166 68.2089 159.108C68.3593 159.05 68.4967 158.963 68.6131 158.851C68.7318 158.731 68.8132 158.579 68.8474 158.413C68.8678 158.129 68.8678 157.843 68.8474 157.558V153.483C68.878 153.191 68.878 152.898 68.8474 152.606C68.804 152.434 68.7162 152.276 68.5927 152.148C68.4933 152.061 68.3795 151.992 68.2565 151.944H67.7573V151.822H71.2823V151.883H70.7831C70.6546 151.929 70.5392 152.006 70.4469 152.107C70.3144 152.228 70.225 152.389 70.1922 152.566C70.1616 152.85 70.1616 153.137 70.1922 153.421V157.761C70.202 157.967 70.2541 158.168 70.345 158.352C70.4592 158.611 70.6614 158.82 70.9155 158.943C71.2395 159.071 71.5864 159.13 71.9343 159.116C72.3052 159.125 72.6746 159.067 73.0244 158.943C73.3241 158.843 73.5845 158.65 73.7681 158.393C73.9108 158.226 74.0245 158.037 74.1043 157.833C74.205 157.563 74.2767 157.283 74.3183 156.997H74.4711V159.188L67.7369 159.32Z" fill="#1D1D23"/>
<path fill-rule="evenodd" clip-rule="evenodd" d="M75.6426 153.839C75.3779 154.378 75.2452 154.971 75.2554 155.571C75.2836 156.019 75.3834 156.459 75.5509 156.875C75.7219 157.302 75.9667 157.695 76.2742 158.036C76.6542 158.475 77.1234 158.827 77.6505 159.07C78.1776 159.312 78.7504 159.439 79.3306 159.442C79.9281 159.441 80.5185 159.313 81.0625 159.065C81.598 158.819 82.082 158.473 82.4888 158.047C82.8029 157.683 83.0543 157.27 83.2325 156.824C83.3948 156.387 83.4777 155.925 83.477 155.459C83.4678 154.516 83.1041 153.61 82.4582 152.922C82.0667 152.492 81.5919 152.145 81.0625 151.903C80.541 151.655 79.9694 151.529 79.3917 151.537C78.9383 151.536 78.4877 151.609 78.0571 151.751C77.6193 151.919 77.2077 152.149 76.8345 152.433C76.34 152.81 75.9333 153.29 75.6426 153.839ZM77.4866 158.281C76.8876 157.507 76.5777 156.549 76.6104 155.571L76.6206 155.663C76.6084 155.051 76.6839 154.44 76.8447 153.849C76.9855 153.364 77.2133 152.908 77.5171 152.505C77.7399 152.227 78.0173 151.998 78.3321 151.832C78.6532 151.692 79.0007 151.623 79.3509 151.628C79.701 151.624 80.0481 151.694 80.3697 151.832C80.6774 151.996 80.9452 152.226 81.1542 152.505C81.461 152.908 81.6923 153.364 81.8367 153.849C81.9991 154.402 82.0814 154.975 82.0813 155.551C82.1045 156.537 81.7959 157.502 81.2051 158.291C80.9773 158.593 80.6849 158.84 80.3493 159.015C80.0334 159.172 79.6834 159.249 79.3306 159.239C78.9778 159.247 78.6282 159.171 78.3118 159.015C77.985 158.835 77.7029 158.585 77.4866 158.281Z" fill="#1D1D23"/>
<path d="M88.0107 151.71V151.883C87.8347 151.863 87.6569 151.863 87.4809 151.883C87.3517 151.943 87.2343 152.026 87.1345 152.128C87.0148 152.257 86.9305 152.415 86.89 152.586C86.8697 152.905 86.8697 153.225 86.89 153.544V157.843C86.9302 158.067 87.0132 158.282 87.1345 158.475C87.2812 158.75 87.5088 158.974 87.7866 159.116C88.1061 159.26 88.4552 159.327 88.8053 159.31C89.1862 159.319 89.5656 159.26 89.926 159.137C90.246 159.035 90.5434 158.872 90.8022 158.658C90.9272 158.537 91.0306 158.396 91.1078 158.24C91.1811 158.051 91.2258 157.852 91.2402 157.649V153.503C91.2708 153.225 91.2708 152.945 91.2402 152.667C91.1997 152.496 91.1155 152.338 90.9957 152.209C90.8959 152.107 90.7786 152.024 90.6493 151.965H90.1196V151.842H92.6869V151.883H92.1775C92.0482 151.943 91.9309 152.026 91.8311 152.128C91.7018 152.25 91.6159 152.411 91.5866 152.586C91.5561 152.864 91.5561 153.144 91.5866 153.421V156.977C91.6043 157.369 91.5596 157.761 91.4542 158.138C91.3717 158.406 91.2122 158.643 90.9957 158.821C90.2889 159.265 89.4744 159.508 88.6398 159.525C87.8051 159.541 86.9819 159.329 86.2584 158.913C86.0963 158.776 85.9632 158.608 85.867 158.419C85.7708 158.23 85.7133 158.024 85.6981 157.812C85.6777 157.514 85.6777 157.214 85.6981 156.916V153.472C85.7286 153.195 85.7286 152.915 85.6981 152.637C85.6688 152.462 85.5829 152.301 85.4536 152.178C85.3611 152.077 85.2505 151.994 85.1275 151.934H84.5978V151.812L88.0107 151.71Z" fill="#1D1D23"/>
<path fill-rule="evenodd" clip-rule="evenodd" d="M95.8145 157.558V155.591L96.0692 155.632C96.2068 155.601 96.3494 155.601 96.4869 155.632C96.6123 155.647 96.7299 155.7 96.8231 155.785C97.09 156.021 97.3111 156.304 97.4751 156.62C97.7418 157.072 97.9767 157.542 98.1781 158.026L98.5754 158.902L98.7486 159.29H100.593V159.157H100.236C100.135 159.095 100.045 159.016 99.9712 158.923C99.8041 158.709 99.6574 158.481 99.5331 158.24C99.4072 158.018 99.2491 157.694 99.043 157.271L99.0425 157.27C98.9652 157.111 98.8811 156.939 98.7894 156.753L98.4837 156.142C98.4112 156.03 98.3294 155.924 98.2392 155.826C98.0799 155.719 97.9131 155.623 97.74 155.54C97.9666 155.508 98.1887 155.45 98.4022 155.367C98.5614 155.303 98.7093 155.213 98.8403 155.102C99.0483 154.939 99.2155 154.73 99.3287 154.492C99.4419 154.253 99.4979 153.991 99.4923 153.727C99.4992 153.357 99.3913 152.993 99.1833 152.687C98.9753 152.38 98.6776 152.146 98.3309 152.015C97.9015 151.869 97.4501 151.796 96.9963 151.802H93.4204V151.924H93.9298C94.0591 151.984 94.1764 152.067 94.2762 152.168C94.4055 152.29 94.4914 152.451 94.5207 152.627C94.5512 152.904 94.5512 153.185 94.5207 153.462V157.609C94.5513 157.893 94.5513 158.18 94.5207 158.464C94.4848 158.632 94.3996 158.784 94.2762 158.902C94.187 158.995 94.0743 159.062 93.9502 159.096C93.7749 159.127 93.5957 159.127 93.4204 159.096V159.228H96.9046V159.096C96.7328 159.126 96.5569 159.126 96.3851 159.096C96.2393 159.041 96.1103 158.949 96.0103 158.829C95.9104 158.71 95.843 158.567 95.8145 158.413C95.784 158.129 95.784 157.842 95.8145 157.558ZM96.0285 155.479H95.8145L95.8655 152.056H96.0794C96.3871 152.016 96.6988 152.016 97.0065 152.056C97.2065 152.096 97.3926 152.187 97.5465 152.321C97.767 152.484 97.9366 152.707 98.0355 152.963C98.1501 153.223 98.2091 153.504 98.2087 153.788C98.2143 154.045 98.1644 154.3 98.0624 154.535C97.9604 154.771 97.8088 154.982 97.6178 155.153C97.4633 155.315 97.2651 155.428 97.0473 155.479C96.7098 155.533 96.3659 155.533 96.0285 155.479Z" fill="#1D1D23"/>
<path d="M104.311 155.612L105.259 154.664L106.277 155.612L105.259 156.529L104.311 155.612Z" fill="#1D1D23"/>
<path fill-rule="evenodd" clip-rule="evenodd" d="M113.694 157.558V155.571L113.704 155.561H115.742C116.098 155.549 116.447 155.455 116.761 155.286C117.021 155.135 117.234 154.915 117.378 154.651C117.522 154.387 117.59 154.088 117.576 153.788C117.586 153.478 117.52 153.169 117.383 152.89C117.246 152.611 117.043 152.37 116.791 152.189C116.564 152.014 116.299 151.896 116.017 151.842C115.591 151.759 115.157 151.721 114.723 151.73H111.371V151.863C111.574 151.875 111.774 151.92 111.962 151.995C112.102 152.079 112.223 152.189 112.319 152.321C112.408 152.451 112.461 152.602 112.472 152.759V157.558C112.502 157.842 112.502 158.129 112.472 158.413C112.44 158.582 112.354 158.736 112.227 158.851C112.135 158.962 112.016 159.046 111.881 159.096C111.712 159.126 111.54 159.126 111.371 159.096V159.228H114.815V159.096C114.64 159.127 114.46 159.127 114.285 159.096C114.15 159.046 114.031 158.962 113.939 158.851C113.817 158.732 113.732 158.58 113.694 158.413C113.664 158.129 113.664 157.842 113.694 157.558ZM114.244 155.388H113.694L113.725 151.964H114.743C115.041 151.979 115.325 152.094 115.548 152.29C115.749 152.454 115.906 152.664 116.007 152.902C116.127 153.181 116.182 153.484 116.17 153.788C116.185 154.034 116.144 154.279 116.051 154.507C115.957 154.735 115.813 154.938 115.63 155.102C115.48 155.24 115.298 155.338 115.1 155.388C114.817 155.438 114.527 155.438 114.244 155.388Z" fill="#1D1D23"/>
<path fill-rule="evenodd" clip-rule="evenodd" d="M125.95 159.32H122.333V159.188C122.579 159.184 122.82 159.121 123.036 159.004C123.141 158.947 123.227 158.861 123.285 158.756C123.343 158.652 123.369 158.533 123.362 158.413C123.353 158.202 123.301 157.994 123.21 157.802V157.558L122.68 156.264H120.143L119.858 157.038L119.705 157.364C119.567 157.688 119.484 158.032 119.46 158.383C119.414 158.506 119.414 158.641 119.458 158.764C119.503 158.888 119.591 158.991 119.705 159.055C119.875 159.168 120.072 159.231 120.275 159.239V159.371H117.82V159.239C118 159.226 118.176 159.181 118.34 159.106C118.501 158.991 118.642 158.85 118.757 158.689C118.901 158.508 119.021 158.309 119.114 158.098C119.204 157.932 119.288 157.72 119.397 157.449C119.449 157.32 119.507 157.176 119.572 157.018L121.61 151.761H121.916L124.351 157.609C124.465 157.935 124.604 158.252 124.768 158.556C124.854 158.723 124.972 158.872 125.115 158.994L125.42 159.147H125.95V159.32ZM122.466 156.03L121.284 153.157L120.143 156.03H122.466Z" fill="#1D1D23"/>
<path d="M128.65 151.883H129.414L129.343 157.486C129.373 157.771 129.373 158.058 129.343 158.342C129.306 158.507 129.225 158.659 129.108 158.78C129.01 158.888 128.888 158.972 128.752 159.025C128.58 159.055 128.404 159.055 128.232 159.025V159.157H131.635V159.025C131.469 159.045 131.301 159.045 131.136 159.025C130.997 158.977 130.873 158.893 130.779 158.78C130.652 158.665 130.566 158.511 130.535 158.342C130.514 158.057 130.514 157.771 130.535 157.486V151.812C131.126 151.796 131.717 151.848 132.297 151.965C132.657 152.049 132.979 152.249 133.214 152.535C133.469 152.884 133.633 153.29 133.693 153.717H133.825L133.713 151.679H126.195V153.717H126.296C126.363 153.355 126.498 153.009 126.694 152.698C126.854 152.435 127.093 152.228 127.376 152.107C127.789 151.976 128.217 151.9 128.65 151.883Z" fill="#1D1D23"/>
<path d="M137.523 151.883H136.78C136.347 151.896 135.918 151.971 135.506 152.107C135.219 152.231 134.974 152.436 134.803 152.698C134.607 153.009 134.472 153.355 134.406 153.717V151.679H141.945V153.717H141.823C141.771 153.289 141.61 152.882 141.354 152.535C141.112 152.248 140.783 152.048 140.417 151.965C139.841 151.843 139.253 151.791 138.664 151.812V157.486C138.634 157.771 138.634 158.058 138.664 158.342C138.705 158.505 138.786 158.656 138.899 158.78C138.997 158.888 139.119 158.972 139.255 159.025C139.427 159.055 139.603 159.055 139.775 159.025V159.157H136.382V159.025C136.554 159.055 136.73 159.055 136.902 159.025C137.041 158.977 137.164 158.893 137.258 158.78C137.383 158.664 137.465 158.51 137.493 158.342C137.523 158.058 137.523 157.771 137.493 157.486L137.523 151.883Z" fill="#1D1D23"/>
<path d="M148.608 153.554V151.71L142.719 151.802V151.924H143.249C143.377 151.986 143.494 152.069 143.595 152.168C143.708 152.3 143.785 152.457 143.819 152.627C143.85 152.904 143.85 153.185 143.819 153.462V157.649C143.84 157.934 143.84 158.22 143.819 158.505C143.782 158.667 143.705 158.818 143.595 158.943C143.492 159.054 143.362 159.138 143.218 159.188C143.053 159.208 142.885 159.208 142.719 159.188V159.32H149.29V157.12H149.158C149.108 157.39 149.036 157.656 148.944 157.914C148.861 158.112 148.752 158.297 148.618 158.464C148.421 158.701 148.164 158.88 147.874 158.984C147.515 159.111 147.135 159.17 146.753 159.157C146.405 159.178 146.056 159.119 145.735 158.984C145.477 158.859 145.269 158.651 145.144 158.393C145.064 158.206 145.019 158.006 145.011 157.802C144.981 157.439 144.981 157.075 145.011 156.712V155.632H145.317C145.544 155.602 145.773 155.602 146 155.632C146.162 155.69 146.311 155.78 146.438 155.897C146.551 156.034 146.641 156.189 146.703 156.355C146.785 156.575 146.836 156.805 146.855 157.038H147.049V154.053H146.916C146.909 154.273 146.864 154.49 146.784 154.695C146.743 154.846 146.663 154.984 146.552 155.095C146.442 155.206 146.304 155.286 146.152 155.327C145.895 155.357 145.635 155.357 145.378 155.327H145.052V151.975H146.326C146.637 151.944 146.951 151.944 147.263 151.975C147.49 152.019 147.703 152.117 147.884 152.26C148.079 152.397 148.242 152.574 148.363 152.78C148.486 153.023 148.568 153.284 148.608 153.554Z" fill="#1D1D23"/>
<path fill-rule="evenodd" clip-rule="evenodd" d="M152.428 155.591V157.558C152.398 157.842 152.398 158.129 152.428 158.413C152.466 158.58 152.551 158.732 152.673 158.851C152.765 158.962 152.884 159.046 153.019 159.096C153.194 159.127 153.374 159.127 153.549 159.096V159.228H150.034V159.096C150.209 159.127 150.389 159.127 150.564 159.096C150.662 159.046 150.751 158.981 150.829 158.902C150.946 158.781 151.027 158.629 151.063 158.464C151.103 158.181 151.103 157.892 151.063 157.609V153.462C151.094 153.185 151.094 152.904 151.063 152.627C151.031 152.454 150.95 152.295 150.829 152.168C150.725 152.066 150.604 151.984 150.472 151.924H149.953V151.802H153.518C153.982 151.801 154.442 151.873 154.883 152.015C155.226 152.161 155.522 152.397 155.739 152.698C155.939 153 156.045 153.355 156.045 153.717C156.051 153.982 155.994 154.245 155.879 154.484C155.764 154.723 155.594 154.931 155.383 155.092C155.246 155.205 155.091 155.295 154.924 155.357C154.721 155.44 154.509 155.498 154.293 155.53C154.458 155.616 154.618 155.711 154.771 155.816C154.873 155.904 154.956 156.011 155.016 156.131L155.342 156.743C155.668 157.425 155.912 157.924 156.086 158.23C156.199 158.472 156.339 158.701 156.503 158.913C156.577 159.006 156.667 159.085 156.768 159.147C156.89 159.167 157.013 159.167 157.135 159.147V159.279H155.301C155.243 159.158 155.212 159.026 155.209 158.892L154.843 158.016C154.63 157.533 154.389 157.064 154.119 156.61C153.962 156.292 153.744 156.008 153.477 155.775C153.383 155.698 153.271 155.645 153.151 155.622C153.013 155.602 152.872 155.602 152.734 155.622L152.428 155.591ZM152.428 155.479H152.683C153.02 155.534 153.364 155.534 153.702 155.479C153.915 155.433 154.108 155.318 154.252 155.153C154.539 154.876 154.733 154.516 154.808 154.124C154.882 153.732 154.834 153.327 154.669 152.963C154.572 152.714 154.414 152.494 154.211 152.321C154.05 152.193 153.862 152.103 153.661 152.056C153.357 152.015 153.048 152.015 152.744 152.056H152.499L152.428 155.479Z" fill="#1D1D23"/>
<path d="M159.111 157.558V152.718L164.562 159.361H164.826V153.513C164.796 153.235 164.796 152.955 164.826 152.678C164.852 152.505 164.93 152.345 165.051 152.219C165.167 152.108 165.304 152.021 165.455 151.963C165.605 151.905 165.766 151.878 165.927 151.883V151.842H163.319V151.965H163.828C163.962 152.027 164.086 152.109 164.195 152.209C164.311 152.338 164.389 152.497 164.419 152.667C164.45 152.945 164.45 153.225 164.419 153.503V157.578L159.906 151.822H157.705V151.944H158.235C158.364 152.004 158.482 152.087 158.581 152.189C158.709 152.312 158.794 152.472 158.826 152.647C158.856 152.925 158.856 153.205 158.826 153.483V157.558C158.856 157.842 158.856 158.129 158.826 158.413C158.788 158.58 158.703 158.732 158.581 158.851C158.489 158.962 158.37 159.046 158.235 159.096C158.06 159.127 157.88 159.127 157.705 159.096V159.228H160.211V159.096C160.043 159.127 159.87 159.127 159.702 159.096C159.567 159.046 159.448 158.962 159.356 158.851C159.234 158.732 159.149 158.58 159.111 158.413C159.081 158.129 159.081 157.842 159.111 157.558Z" fill="#1D1D23"/>
<path d="M169.87 155.612L170.817 154.664L171.836 155.612L170.888 156.529L169.87 155.612Z" fill="#1D1D23"/>
<path d="M182.981 153.554L182.869 151.71L177.133 151.832V151.954H177.653C177.785 152.014 177.906 152.097 178.01 152.199C178.131 152.325 178.212 152.485 178.244 152.657C178.274 152.935 178.274 153.215 178.244 153.493V157.68C178.274 157.964 178.274 158.251 178.244 158.536C178.203 158.699 178.123 158.849 178.01 158.974C177.91 159.08 177.788 159.163 177.653 159.218C177.48 159.239 177.306 159.239 177.133 159.218V159.351H183.735V157.15H183.521C183.457 157.42 183.375 157.685 183.277 157.945C183.194 158.142 183.084 158.328 182.951 158.495C182.761 158.73 182.511 158.91 182.227 159.014C181.852 159.132 181.458 159.18 181.066 159.157C180.718 159.17 180.371 159.112 180.047 158.984C179.793 158.861 179.591 158.651 179.477 158.393C179.386 158.209 179.334 158.007 179.324 157.802V155.632H179.558C179.785 155.602 180.014 155.602 180.241 155.632C180.397 155.691 180.539 155.781 180.658 155.897C180.784 156.029 180.881 156.185 180.944 156.355C181.015 156.578 181.066 156.806 181.096 157.038H181.209V154.053C181.179 154.27 181.135 154.484 181.076 154.695C181.025 154.841 180.941 154.973 180.832 155.082C180.72 155.203 180.574 155.288 180.414 155.327C180.16 155.357 179.904 155.357 179.65 155.327H179.324V151.975H180.546C180.861 151.944 181.179 151.944 181.494 151.975C181.724 152.018 181.94 152.116 182.125 152.26C182.318 152.4 182.481 152.576 182.604 152.78C182.721 153.025 182.803 153.286 182.849 153.554H182.981Z" fill="#1D1D23"/>
<path d="M184.163 151.71H187.82V151.883C187.635 151.852 187.446 151.852 187.26 151.883C187.209 151.886 187.158 151.898 187.112 151.921C187.066 151.944 187.025 151.976 186.992 152.015C186.958 152.054 186.933 152.099 186.918 152.149C186.903 152.198 186.898 152.25 186.904 152.301C186.976 152.653 187.133 152.981 187.362 153.258L188.381 154.685L189.216 153.666C189.462 153.396 189.681 153.103 189.868 152.79C189.968 152.658 190.022 152.497 190.021 152.331C190.025 152.24 189.997 152.149 189.941 152.076C189.885 152.004 189.805 151.953 189.715 151.934C189.55 151.914 189.382 151.914 189.216 151.934V151.802H191.753V151.883C191.538 151.842 191.316 151.842 191.101 151.883C190.708 152.124 190.363 152.435 190.082 152.8L189.664 153.35L188.462 154.837L190.367 157.69C190.628 158.095 190.94 158.465 191.295 158.79C191.563 159.012 191.904 159.128 192.252 159.116V159.249H188.371V159.116C188.599 159.108 188.824 159.056 189.033 158.964C189.129 158.929 189.212 158.867 189.274 158.785C189.335 158.704 189.372 158.607 189.379 158.505C189.41 158.419 189.41 158.326 189.379 158.24C189.311 158.096 189.233 157.956 189.145 157.823L187.78 155.785L186.466 157.384C186.299 157.573 186.152 157.778 186.027 157.996C185.954 158.139 185.909 158.294 185.895 158.454C185.888 158.548 185.905 158.642 185.945 158.727C185.984 158.813 186.044 158.887 186.119 158.943C186.328 159.057 186.563 159.117 186.802 159.116V159.249H183.99V159.116L184.52 158.964C184.692 158.864 184.847 158.737 184.978 158.587C185.384 158.197 185.766 157.782 186.119 157.344L187.566 155.591L185.875 153.085L185.589 152.647C185.445 152.411 185.259 152.204 185.039 152.036C184.83 151.934 184.6 151.882 184.367 151.883H184.265L184.163 151.71Z" fill="#1D1D23"/>
<path d="M199.679 154.165V151.689L199.424 151.74V151.914C199.398 151.953 199.361 151.985 199.318 152.005C199.275 152.024 199.227 152.032 199.18 152.026C199.103 152.046 199.022 152.046 198.946 152.026L198.508 151.873C198.049 151.711 197.567 151.628 197.081 151.628C196.597 151.626 196.115 151.701 195.655 151.852C195.227 152.005 194.822 152.218 194.453 152.484C193.998 152.858 193.648 153.342 193.434 153.89C193.189 154.481 193.068 155.115 193.077 155.754C193.078 156.527 193.29 157.284 193.689 157.945C194.106 158.574 194.729 159.038 195.451 159.259C195.923 159.422 196.419 159.504 196.918 159.504C197.413 159.512 197.905 159.422 198.365 159.239C198.769 159.083 199.122 158.819 199.384 158.475C199.66 158.053 199.828 157.57 199.873 157.069H199.74C199.669 157.512 199.513 157.937 199.282 158.322C199.07 158.592 198.798 158.808 198.487 158.953C198.124 159.097 197.737 159.17 197.346 159.167C196.961 159.183 196.577 159.11 196.224 158.955C195.871 158.799 195.558 158.565 195.309 158.271C195.018 157.933 194.803 157.537 194.677 157.109C194.516 156.599 194.44 156.065 194.453 155.53C194.442 154.903 194.556 154.279 194.789 153.696C194.912 153.323 195.106 152.977 195.36 152.678C195.558 152.396 195.811 152.157 196.103 151.975C196.437 151.792 196.813 151.701 197.193 151.71C197.447 151.707 197.7 151.752 197.937 151.842C198.183 151.947 198.407 152.095 198.599 152.28C198.866 152.515 199.075 152.808 199.211 153.136C199.337 153.391 199.449 153.653 199.547 153.921V154.165H199.679Z" fill="#1D1D23"/>
<path d="M206.739 151.71V153.554C206.697 153.286 206.618 153.026 206.505 152.78C206.375 152.578 206.209 152.402 206.016 152.26C205.831 152.116 205.614 152.018 205.384 151.975C205.069 151.944 204.752 151.944 204.437 151.975H203.174V155.327H203.428C203.685 155.357 203.945 155.357 204.203 155.327C204.361 155.283 204.505 155.199 204.62 155.082C204.723 154.97 204.803 154.838 204.855 154.695C204.885 154.482 204.885 154.266 204.855 154.053H204.987V157.038H204.855C204.846 156.805 204.801 156.575 204.722 156.355C204.663 156.183 204.565 156.026 204.437 155.897C204.321 155.776 204.178 155.685 204.019 155.632C203.795 155.612 203.57 155.612 203.347 155.632H203.011V157.802C203.019 158.009 203.075 158.211 203.174 158.393C203.287 158.649 203.485 158.857 203.734 158.984C204.058 159.109 204.405 159.168 204.753 159.157C205.197 159.158 205.636 159.072 206.047 158.902C206.333 158.797 206.583 158.614 206.77 158.373C206.906 158.207 207.016 158.021 207.096 157.823C207.189 157.566 207.268 157.304 207.33 157.038V159.228H200.759V159.096C200.934 159.127 201.114 159.127 201.289 159.096C201.424 159.046 201.543 158.962 201.635 158.851C201.757 158.732 201.842 158.58 201.88 158.413C201.91 158.129 201.91 157.842 201.88 157.558V153.483C201.91 153.205 201.91 152.925 201.88 152.647C201.839 152.476 201.755 152.318 201.635 152.189C201.533 152.089 201.417 152.007 201.289 151.944H200.759V151.822L206.739 151.71Z" fill="#1D1D23"/>
<path fill-rule="evenodd" clip-rule="evenodd" d="M210.56 157.558V155.571L210.549 155.561H212.536C212.892 155.55 213.241 155.455 213.555 155.286C213.818 155.138 214.034 154.92 214.179 154.655C214.323 154.39 214.389 154.089 214.37 153.788C214.38 153.477 214.313 153.167 214.174 152.888C214.035 152.609 213.83 152.369 213.575 152.189C213.354 152.011 213.091 151.892 212.811 151.842C212.385 151.759 211.951 151.722 211.517 151.73H208.166V151.863C208.368 151.875 208.568 151.92 208.756 151.995C208.905 152.061 209.032 152.168 209.122 152.303C209.212 152.438 209.262 152.597 209.266 152.759V157.558C209.296 157.842 209.296 158.129 209.266 158.413C209.234 158.582 209.149 158.736 209.021 158.851C208.929 158.962 208.81 159.046 208.675 159.096C208.507 159.127 208.334 159.127 208.166 159.096V159.228H211.67V159.096C211.498 159.126 211.322 159.126 211.151 159.096C211.013 159.046 210.89 158.962 210.794 158.851C210.675 158.731 210.594 158.579 210.56 158.413C210.539 158.129 210.539 157.843 210.56 157.558ZM211.079 155.388H210.56L210.59 151.995H211.609C211.901 152.007 212.179 152.123 212.393 152.321C212.594 152.485 212.751 152.694 212.852 152.932C212.961 153.205 213.016 153.495 213.015 153.788C213.026 154.034 212.982 154.28 212.887 154.507C212.792 154.734 212.648 154.937 212.465 155.102C212.315 155.24 212.133 155.338 211.935 155.388C211.652 155.439 211.362 155.439 211.079 155.388Z" fill="#1D1D23"/>
<path d="M218.048 151.883H217.304C216.865 151.902 216.43 151.977 216.01 152.107C215.732 152.232 215.497 152.438 215.338 152.698C215.142 153.009 215.007 153.355 214.941 153.717H214.828V151.679H222.347V153.717H222.215C222.145 153.296 221.989 152.893 221.756 152.535C221.51 152.248 221.178 152.048 220.809 151.965C220.232 151.847 219.644 151.796 219.056 151.812V157.486C219.026 157.771 219.026 158.058 219.056 158.342C219.097 158.508 219.181 158.659 219.301 158.78C219.393 158.89 219.513 158.975 219.647 159.025C219.816 159.045 219.988 159.045 220.157 159.025V159.157H216.866V159.025C217.041 159.055 217.221 159.055 217.396 159.025C217.531 158.975 217.65 158.89 217.742 158.78C217.862 158.659 217.947 158.508 217.987 158.342C218.017 158.058 218.017 157.771 217.987 157.486L218.048 151.883Z" fill="#1D1D23"/>
<path d="M226.707 151.883V151.71L223.162 151.812V151.934H223.682C223.814 151.994 223.935 152.077 224.038 152.178C224.159 152.305 224.241 152.464 224.272 152.637C224.303 152.915 224.303 153.195 224.272 153.472V157.619C224.303 157.903 224.303 158.19 224.272 158.475C224.232 158.638 224.151 158.788 224.038 158.913C223.935 159.002 223.813 159.068 223.682 159.106C223.51 159.137 223.334 159.137 223.162 159.106V159.239H226.707V159.106C226.505 159.092 226.306 159.047 226.116 158.974C225.962 158.908 225.833 158.794 225.75 158.648C225.662 158.516 225.606 158.366 225.587 158.21V152.739C225.599 152.51 225.693 152.293 225.852 152.128C225.95 152.019 226.072 151.936 226.208 151.883H226.707Z" fill="#1D1D23"/>
<path fill-rule="evenodd" clip-rule="evenodd" d="M227.828 155.571C227.821 154.97 227.957 154.377 228.225 153.839C228.509 153.288 228.913 152.807 229.407 152.433C229.781 152.15 230.193 151.921 230.63 151.751C231.064 151.609 231.518 151.536 231.974 151.537C232.549 151.53 233.117 151.656 233.635 151.903C234.166 152.147 234.644 152.494 235.041 152.922C235.665 153.619 236.007 154.523 235.999 155.459C235.998 155.924 235.919 156.385 235.764 156.824C235.59 157.272 235.339 157.686 235.021 158.047C234.612 158.471 234.128 158.816 233.594 159.065C233.05 159.311 232.46 159.439 231.862 159.442C231.282 159.439 230.709 159.312 230.182 159.069C229.655 158.827 229.186 158.475 228.806 158.036C228.499 157.731 228.25 157.372 228.073 156.977C227.906 156.527 227.824 156.051 227.828 155.571ZM229.183 155.571C229.15 156.549 229.46 157.507 230.059 158.281C230.28 158.582 230.565 158.829 230.895 159.004C231.21 159.162 231.56 159.239 231.913 159.228C232.266 159.237 232.616 159.16 232.932 159.004C233.27 158.833 233.562 158.585 233.788 158.281C234.383 157.494 234.692 156.527 234.664 155.54C234.664 154.965 234.582 154.392 234.419 153.839C234.279 153.354 234.051 152.898 233.747 152.494C233.546 152.202 233.272 151.968 232.952 151.814C232.632 151.66 232.277 151.593 231.923 151.618C231.574 151.616 231.227 151.685 230.905 151.822C230.59 151.975 230.32 152.206 230.12 152.494C229.796 152.887 229.563 153.346 229.438 153.839C229.255 154.425 229.172 155.039 229.193 155.652L229.183 155.571Z" fill="#1D1D23"/>
<path d="M238.505 157.558V152.718L243.711 159.361H243.976V153.513C243.945 153.235 243.945 152.955 243.976 152.678C243.998 152.506 244.073 152.346 244.19 152.219C244.306 152.108 244.443 152.021 244.594 151.963C244.744 151.905 244.905 151.878 245.066 151.883V151.842H242.702V151.965H243.201C243.34 152.024 243.467 152.107 243.578 152.209C243.692 152.338 243.766 152.497 243.792 152.667C243.823 152.945 243.823 153.225 243.792 153.503V157.578L239.279 151.822H237.099V151.944H237.629C237.756 152.007 237.873 152.089 237.975 152.189C238.095 152.318 238.179 152.476 238.22 152.647C238.25 152.925 238.25 153.205 238.22 153.483V157.558C238.25 157.842 238.25 158.129 238.22 158.413C238.181 158.58 238.097 158.732 237.975 158.851C237.883 158.962 237.763 159.046 237.629 159.096C237.453 159.127 237.274 159.127 237.099 159.096V159.228H239.595V159.096C239.43 159.126 239.261 159.126 239.096 159.096C238.959 159.043 238.837 158.96 238.739 158.851C238.624 158.729 238.543 158.577 238.505 158.413C238.474 158.129 238.474 157.842 238.505 157.558Z" fill="#1D1D23"/>
<path fill-rule="evenodd" clip-rule="evenodd" d="M253.848 159.32H250.099V159.188C250.344 159.182 250.585 159.12 250.802 159.004C250.906 158.947 250.992 158.861 251.05 158.756C251.108 158.651 251.135 158.533 251.128 158.413C251.118 158.201 251.066 157.994 250.975 157.802V157.558L250.486 156.264H247.949L247.664 157.038L247.511 157.364C247.373 157.688 247.29 158.032 247.266 158.383C247.22 158.506 247.22 158.641 247.264 158.764C247.309 158.887 247.397 158.991 247.511 159.055C247.681 159.167 247.878 159.231 248.081 159.239V159.371H245.667V159.239C245.85 159.225 246.029 159.18 246.197 159.106C246.355 158.98 246.501 158.84 246.635 158.688C246.759 158.501 246.868 158.303 246.961 158.098C247.137 157.733 247.293 157.358 247.429 156.977L249.467 151.72H249.773L252.207 157.568C252.321 157.894 252.461 158.211 252.625 158.515C252.714 158.68 252.831 158.829 252.972 158.953L253.277 159.106H253.807L253.848 159.32ZM250.363 156.029L249.171 153.156L248.081 156.029H250.363Z" fill="#1D1D23"/>
<path d="M254.214 159.188V159.32L260.959 159.188V156.997H260.826C260.775 157.284 260.693 157.564 260.582 157.833C260.521 158.039 260.417 158.23 260.276 158.393C260.085 158.643 259.827 158.834 259.532 158.943C259.172 159.067 258.792 159.126 258.412 159.116C258.064 159.124 257.718 159.065 257.393 158.943C257.145 158.811 256.946 158.604 256.822 158.352C256.741 158.165 256.689 157.965 256.669 157.761V153.421C256.629 153.138 256.629 152.849 256.669 152.566C256.699 152.39 256.785 152.229 256.914 152.107C257.01 152.006 257.129 151.929 257.26 151.883H257.77V151.822H254.214V151.944H254.703C254.829 151.992 254.947 152.061 255.05 152.148C255.182 152.271 255.274 152.431 255.314 152.606C255.345 152.898 255.345 153.191 255.314 153.483V157.558C255.345 157.842 255.345 158.129 255.314 158.413C255.276 158.58 255.192 158.732 255.07 158.851C254.961 158.967 254.828 159.057 254.68 159.115C254.532 159.173 254.373 159.198 254.214 159.188Z" fill="#1D1D23"/>
<path d="M264.147 151.71H267.652V151.883C267.427 151.832 267.194 151.832 266.969 151.883C266.876 151.927 266.796 151.993 266.735 152.077C266.705 152.193 266.705 152.316 266.735 152.433C266.746 152.654 266.805 152.87 266.908 153.065L267.061 153.411L268.773 157.649L269.995 154.012C270.117 153.685 270.192 153.342 270.219 152.993C270.25 152.828 270.25 152.659 270.219 152.494C270.17 152.345 270.086 152.209 269.975 152.097C269.883 152.008 269.771 151.941 269.649 151.903C269.491 151.873 269.328 151.873 269.17 151.903V151.771H272.736V151.903H272.277C272.176 151.916 272.078 151.95 271.992 152.005C271.881 152.077 271.79 152.175 271.727 152.291C271.697 152.421 271.697 152.557 271.727 152.688C271.747 152.928 271.798 153.164 271.88 153.391L273.266 157.772L274.773 154.022C274.98 153.605 275.108 153.152 275.15 152.688C275.16 152.553 275.136 152.417 275.079 152.294C275.022 152.171 274.934 152.065 274.824 151.985C274.631 151.891 274.418 151.845 274.203 151.852V151.73H276.791V151.852C276.594 151.873 276.401 151.925 276.22 152.005C276.067 152.104 275.936 152.232 275.833 152.382C275.557 152.826 275.328 153.297 275.15 153.788L272.96 159.33H272.736L270.77 153.411L268.732 159.33H268.487L265.991 153.35L265.818 152.932C265.74 152.728 265.644 152.53 265.533 152.341C265.462 152.225 265.364 152.127 265.248 152.056C265.165 151.99 265.067 151.944 264.962 151.924H264.524L264.147 151.71Z" fill="#1D1D23"/>
<path fill-rule="evenodd" clip-rule="evenodd" d="M280.978 159.32H284.635V159.147C284.463 159.167 284.288 159.167 284.116 159.147L283.81 158.994C283.659 158.878 283.537 158.728 283.453 158.556C283.391 158.45 283.318 158.284 283.223 158.07L283.223 158.069C283.163 157.934 283.094 157.779 283.015 157.609L280.611 151.761H280.295L278.258 157.018L277.799 158.098C277.714 158.311 277.597 158.51 277.453 158.689C277.335 158.847 277.194 158.988 277.035 159.106C276.868 159.181 276.688 159.226 276.505 159.239V159.371H279.012V159.239C278.808 159.231 278.611 159.168 278.441 159.055C278.334 158.985 278.249 158.886 278.197 158.77C278.166 158.643 278.166 158.51 278.197 158.383C278.221 158.032 278.303 157.688 278.441 157.364L278.594 157.038L278.879 156.264H281.304L281.854 157.558V157.802C281.945 157.994 281.997 158.202 282.007 158.413C282.013 158.535 281.984 158.656 281.922 158.761C281.861 158.866 281.77 158.951 281.66 159.004C281.454 159.127 281.218 159.19 280.978 159.188V159.32ZM279.969 153.157L281.131 156.03H278.879L279.969 153.157Z" fill="#1D1D23"/>
<path d="M285.124 159.32V159.188C285.286 159.196 285.447 159.171 285.598 159.113C285.749 159.055 285.886 158.966 286 158.851C286.116 158.729 286.196 158.577 286.235 158.413C286.265 158.129 286.265 157.842 286.235 157.558V153.483C286.265 153.191 286.265 152.898 286.235 152.606C286.177 152.438 286.087 152.282 285.97 152.148C285.868 152.059 285.751 151.99 285.623 151.944H285.124V151.822H288.69V151.883H288.18C288.047 151.932 287.926 152.008 287.824 152.107C287.692 152.23 287.6 152.39 287.559 152.566C287.528 152.85 287.528 153.137 287.559 153.421V157.761C287.577 157.967 287.632 158.167 287.722 158.352C287.842 158.604 288.038 158.81 288.282 158.943C288.607 159.069 288.953 159.127 289.301 159.116C289.679 159.125 290.055 159.067 290.412 158.943C290.705 158.83 290.962 158.64 291.155 158.393C291.284 158.22 291.39 158.032 291.471 157.833C291.569 157.56 291.648 157.281 291.705 156.997H291.838V159.188L285.124 159.32Z" fill="#1D1D23"/>
<path d="M292.337 159.188V159.32L299.082 159.096V156.906H298.959C298.909 157.192 298.827 157.472 298.715 157.741C298.644 157.946 298.541 158.139 298.409 158.312C298.213 158.556 297.957 158.746 297.665 158.862C297.291 158.984 296.898 159.043 296.504 159.035C296.157 159.041 295.811 158.983 295.485 158.862C295.294 158.73 295.137 158.556 295.027 158.352C294.945 158.165 294.893 157.965 294.874 157.761V153.421C294.843 153.137 294.843 152.85 294.874 152.566C294.915 152.39 295.007 152.23 295.139 152.107C295.238 152.01 295.356 151.933 295.485 151.883H295.995V151.802H292.419V151.924H292.928C293.054 151.972 293.171 152.04 293.274 152.128C293.397 152.258 293.488 152.415 293.539 152.586C293.57 152.877 293.57 153.171 293.539 153.462V157.609C293.57 157.893 293.57 158.18 293.539 158.464C293.499 158.63 293.415 158.781 293.295 158.902C293.168 159.02 293.015 159.107 292.849 159.157C292.683 159.206 292.508 159.217 292.337 159.188Z" fill="#1D1D23"/>
<path fill-rule="evenodd" clip-rule="evenodd" d="M302.066 155.571V157.558C302.036 157.842 302.036 158.129 302.066 158.413C302.105 158.58 302.189 158.732 302.311 158.851C302.403 158.962 302.523 159.046 302.657 159.096C302.833 159.127 303.012 159.127 303.187 159.096V159.228H299.632V159.096C299.8 159.127 299.973 159.127 300.141 159.096C300.276 159.046 300.395 158.962 300.487 158.851C300.615 158.736 300.701 158.582 300.732 158.413C300.762 158.129 300.762 157.842 300.732 157.558V152.759C300.715 152.603 300.663 152.453 300.579 152.321C300.486 152.187 300.364 152.076 300.223 151.995C300.034 151.92 299.834 151.875 299.632 151.863V151.73H302.983C303.417 151.722 303.851 151.759 304.277 151.842C304.556 151.894 304.819 152.013 305.041 152.189C305.296 152.369 305.501 152.609 305.64 152.888C305.779 153.167 305.846 153.477 305.836 153.788C305.85 154.089 305.782 154.387 305.638 154.651C305.495 154.915 305.281 155.135 305.021 155.286C304.707 155.455 304.359 155.55 304.002 155.561H302.056L302.066 155.571ZM302.066 155.388H302.617C302.9 155.439 303.189 155.439 303.472 155.388C303.668 155.34 303.847 155.242 303.992 155.102C304.177 154.939 304.322 154.736 304.417 154.508C304.512 154.281 304.555 154.034 304.542 153.788C304.553 153.495 304.501 153.203 304.389 152.932C304.285 152.697 304.128 152.487 303.931 152.321C303.705 152.122 303.417 152.007 303.116 151.995H302.097L302.066 155.388Z" fill="#1D1D23"/>
<path fill-rule="evenodd" clip-rule="evenodd" d="M310.594 159.32H314.231L314.118 159.055H313.599L313.293 158.902C313.15 158.778 313.029 158.63 312.937 158.464C312.855 158.291 312.702 157.955 312.519 157.517L310.084 151.669H309.779L307.741 156.926C307.607 157.293 307.454 157.654 307.283 158.006C307.19 158.211 307.081 158.409 306.956 158.597C306.831 158.756 306.684 158.897 306.518 159.014C306.363 159.119 306.191 159.195 306.009 159.238V159.371H308.525V159.238C308.323 159.227 308.126 159.164 307.955 159.055C307.858 158.977 307.779 158.88 307.721 158.77C307.69 158.643 307.69 158.51 307.721 158.383C307.747 158.033 307.826 157.69 307.955 157.364L308.118 157.038L308.403 156.264H310.848L311.47 157.558V157.802C311.561 157.994 311.613 158.201 311.623 158.413C311.63 158.533 311.603 158.651 311.545 158.756C311.487 158.86 311.401 158.947 311.297 159.004C311.08 159.119 310.839 159.182 310.594 159.188V159.32ZM309.646 153.156L310.828 156.029H308.556L309.646 153.156Z" fill="#1D1D23"/>
<path fill-rule="evenodd" clip-rule="evenodd" d="M317.053 157.558V155.581H319.039C319.395 155.568 319.744 155.474 320.058 155.306C320.318 155.155 320.532 154.936 320.675 154.671C320.819 154.407 320.888 154.109 320.873 153.808C320.883 153.497 320.816 153.188 320.677 152.909C320.539 152.629 320.333 152.389 320.078 152.209C319.855 152.035 319.593 151.916 319.314 151.863C318.888 151.78 318.455 151.742 318.021 151.751H314.669V151.883C314.87 151.891 315.069 151.929 315.26 151.995C315.402 152.078 315.527 152.189 315.626 152.321C315.705 152.454 315.751 152.605 315.759 152.759C315.779 153 315.779 153.242 315.759 153.482V157.558C315.789 157.842 315.789 158.129 315.759 158.413C315.731 158.581 315.649 158.735 315.524 158.851C315.428 158.962 315.306 159.046 315.168 159.096C315.003 159.126 314.834 159.126 314.669 159.096V159.228H318.173V159.096C318.001 159.126 317.826 159.126 317.654 159.096C317.516 159.046 317.393 158.962 317.297 158.851C317.18 158.728 317.096 158.577 317.053 158.413C317.032 158.128 317.032 157.842 317.053 157.558ZM317.053 155.388H317.603C317.886 155.439 318.176 155.439 318.459 155.388C318.656 155.338 318.838 155.24 318.988 155.102C319.171 154.937 319.315 154.734 319.41 154.507C319.506 154.28 319.549 154.034 319.538 153.788C319.538 153.496 319.486 153.206 319.386 152.932C319.281 152.694 319.12 152.484 318.917 152.321C318.693 152.124 318.41 152.009 318.112 151.995H317.093L317.053 155.388Z" fill="#1D1D23"/>
<path d="M327.556 153.554V151.71L321.8 151.832V151.954H322.31C322.439 152.014 322.556 152.097 322.656 152.199C322.776 152.328 322.86 152.486 322.9 152.657C322.931 152.935 322.931 153.215 322.9 153.493V157.68C322.931 157.964 322.931 158.251 322.9 158.536C322.86 158.701 322.776 158.853 322.656 158.974C322.564 159.084 322.444 159.168 322.31 159.218C322.14 159.239 321.969 159.239 321.8 159.218V159.351H328.412V157.15H328.188C328.137 157.424 328.055 157.69 327.943 157.945C327.883 158.148 327.778 158.336 327.638 158.495C327.443 158.733 327.185 158.913 326.894 159.014C326.526 159.131 326.139 159.179 325.753 159.157C325.406 159.164 325.06 159.105 324.734 158.984C324.489 158.849 324.29 158.643 324.164 158.393C324.093 158.202 324.041 158.004 324.011 157.802V155.632H324.347C324.57 155.602 324.796 155.602 325.02 155.632C325.183 155.688 325.332 155.778 325.458 155.897C325.571 156.034 325.66 156.189 325.722 156.355C325.803 156.575 325.855 156.805 325.875 157.038H325.977V154.053H325.845C325.815 154.27 325.771 154.484 325.712 154.695C325.668 154.837 325.595 154.969 325.498 155.082C325.381 155.196 325.237 155.28 325.081 155.327C324.827 155.357 324.57 155.357 324.317 155.327H323.98V151.975H325.142C325.457 151.944 325.774 151.944 326.089 151.975C326.314 152.017 326.524 152.115 326.701 152.26C326.9 152.391 327.065 152.57 327.179 152.78C327.302 153.023 327.384 153.284 327.424 153.554H327.556Z" fill="#1D1D23"/>
<path fill-rule="evenodd" clip-rule="evenodd" d="M331.346 155.591V157.557C331.316 157.842 331.316 158.129 331.346 158.413C331.378 158.582 331.463 158.736 331.591 158.851C331.683 158.962 331.802 159.046 331.937 159.096C332.105 159.126 332.278 159.126 332.446 159.096V159.228H328.932V159.096C329.107 159.126 329.286 159.126 329.461 159.096C329.596 159.046 329.716 158.962 329.808 158.851C329.929 158.732 330.014 158.58 330.052 158.413C330.073 158.128 330.073 157.842 330.052 157.557V153.482C330.073 153.204 330.073 152.925 330.052 152.647C330.017 152.474 329.932 152.315 329.808 152.189C329.708 152.087 329.591 152.004 329.461 151.944H328.932V151.822H332.508C332.961 151.816 333.413 151.888 333.842 152.036C334.193 152.167 334.492 152.406 334.698 152.718C334.912 153.013 335.02 153.373 335.004 153.737C335.013 154.002 334.959 154.265 334.846 154.504C334.732 154.744 334.563 154.952 334.352 155.112C334.223 155.227 334.074 155.317 333.913 155.377C333.707 155.461 333.492 155.519 333.272 155.55C333.441 155.633 333.605 155.729 333.761 155.836C333.855 155.928 333.935 156.034 333.995 156.152C333.995 156.152 334.168 156.478 334.301 156.763L335.055 158.25C335.181 158.49 335.328 158.718 335.493 158.933C335.559 159.028 335.646 159.108 335.747 159.167C335.872 159.188 335.999 159.188 336.124 159.167V159.3H334.26L334.087 158.912L333.689 158.036C333.496 157.548 333.261 157.078 332.986 156.63C332.822 156.314 332.601 156.031 332.334 155.795C332.249 155.716 332.143 155.664 332.029 155.642C331.883 155.622 331.736 155.622 331.591 155.642L331.346 155.591ZM331.346 155.479H331.57C331.908 155.533 332.252 155.533 332.589 155.479C332.799 155.43 332.988 155.316 333.129 155.153C333.322 154.983 333.474 154.772 333.577 154.536C333.679 154.3 333.728 154.045 333.72 153.788C333.72 153.504 333.661 153.223 333.547 152.963C333.453 152.712 333.295 152.491 333.088 152.321C332.923 152.187 332.727 152.096 332.518 152.056C332.213 152.015 331.905 152.015 331.601 152.056H331.377L331.346 155.479Z" fill="#1D1D23"/>
<path d="M336.919 157.099V159.29L337.255 159.402C337.281 159.323 337.332 159.255 337.4 159.207C337.468 159.159 337.549 159.135 337.632 159.137H337.785L338.202 159.31C338.638 159.492 339.105 159.589 339.578 159.595C340.052 159.6 340.519 159.481 340.933 159.249C341.326 159.011 341.633 158.654 341.809 158.23C341.946 157.908 342.015 157.561 342.013 157.211C342.024 156.726 341.861 156.253 341.554 155.877C341.202 155.465 340.759 155.14 340.26 154.929L339.466 154.532C338.681 154.165 338.264 153.656 338.264 153.044C338.243 152.892 338.243 152.738 338.264 152.586C338.323 152.435 338.405 152.294 338.508 152.168C338.633 152.023 338.79 151.91 338.967 151.837C339.144 151.764 339.336 151.735 339.527 151.751C339.791 151.748 340.051 151.815 340.281 151.944C340.53 152.118 340.738 152.344 340.892 152.606L341.157 153.116C341.284 153.367 341.363 153.64 341.391 153.921H341.524V151.71H341.412C341.371 151.995 341.289 151.995 341.157 151.995H340.892L340.505 151.842L339.914 151.649C339.752 151.618 339.587 151.618 339.425 151.649C338.911 151.64 338.412 151.825 338.029 152.168C337.59 152.606 337.338 153.198 337.326 153.819C337.315 154.286 337.487 154.739 337.805 155.082C337.946 155.221 338.1 155.348 338.264 155.459C338.526 155.621 338.799 155.767 339.079 155.897L339.955 156.396C340.124 156.516 340.278 156.657 340.413 156.814C340.531 156.969 340.614 157.147 340.656 157.337C340.699 157.527 340.699 157.724 340.658 157.914C340.665 158.112 340.631 158.308 340.56 158.492C340.488 158.676 340.379 158.844 340.24 158.984C340.11 159.124 339.952 159.235 339.777 159.31C339.601 159.386 339.412 159.424 339.221 159.422C338.907 159.418 338.6 159.329 338.332 159.164C338.065 158.999 337.847 158.764 337.703 158.485C337.438 158.057 337.245 157.589 337.133 157.099H336.919Z" fill="#1D1D23"/>
</svg>
