<svg width="400" height="220" viewBox="0 0 400 220" fill="none" xmlns="http://www.w3.org/2000/svg">
<path d="M245.417 112.521V113.077C245.417 118.704 242.218 123.71 237.038 125.57C235.596 126.147 233.894 126.628 232.159 127.076L237.351 128.56L238.793 128.982L239.781 129.265L240.689 129.515L241.249 129.661L241.774 129.79L242.264 129.901C242.972 130.052 243.559 130.136 244.026 130.136C245.216 130.136 246.059 129.663 246.61 129.268L246.828 129.106L247.091 128.901C247.216 128.805 247.306 128.745 247.364 128.745C247.549 128.745 247.735 128.838 247.735 129.023V129.116C247.735 129.338 247.568 129.561 247.254 129.864L247.023 130.078L246.437 130.599C245.324 131.526 243.934 132.083 242.45 131.99C240.596 131.906 238.742 131.592 236.957 131.048L229.471 128.652C228.729 128.374 227.894 128.189 227.06 128.189C226.179 128.189 225.461 128.397 224.893 128.606L224.224 128.866C223.982 128.959 223.784 129.023 223.63 129.023C223.552 129.023 223.475 128.959 223.452 128.884L223.444 128.838C223.444 128.207 225.806 126.877 228.661 126.801L229.014 126.798L229.254 126.802L229.55 126.814L229.9 126.842C230.026 126.854 230.161 126.87 230.305 126.891L231.732 126.483L232.318 126.323C232.42 126.296 232.524 126.269 232.63 126.242L231.696 126.242C224.835 126.242 219.18 120.401 219.18 112.984C219.18 105.85 224.954 100.16 231.963 100.008L232.252 100.004C239.391 99.819 245.232 105.474 245.417 112.521ZM140.189 100.004C145.474 100.004 148.811 102.971 148.811 107.143C148.811 109.925 146.957 112.242 143.527 113.262L144.078 114.191L144.62 115.084L145.153 115.943C145.241 116.084 145.329 116.223 145.417 116.36L145.937 117.168C146.023 117.3 146.108 117.43 146.194 117.559L146.702 118.315C149.054 121.767 151.157 124.109 153.169 125.407C153.872 125.855 154.432 126.093 154.864 126.236L155.108 126.311L155.73 126.472C155.944 126.536 156.043 126.606 156.043 126.798C156.043 126.984 155.95 127.076 155.672 127.076H154.652C150.488 127.076 146.246 123.337 141.569 115.858L141.057 115.027L140.541 114.167C140.455 114.021 140.368 113.874 140.282 113.726H139.726C138.428 113.726 137.222 113.633 135.924 113.448L135.928 120.112L135.937 120.973L135.948 121.498L135.974 122.214L135.998 122.645L136.03 123.039C136.036 123.102 136.042 123.163 136.048 123.223L136.092 123.565C136.221 124.429 136.449 124.928 136.852 125.129C137.269 125.324 137.628 125.435 137.925 125.511L138.203 125.576L138.542 125.652C138.834 125.725 138.984 125.806 138.984 126.056L138.981 126.139C138.972 126.23 138.938 126.335 138.799 126.335C137.315 126.056 135.924 125.964 134.441 125.871C133.236 125.871 132.031 126.056 130.825 126.242C130.686 126.242 130.651 126.19 130.643 126.085L130.64 125.964C130.64 125.716 130.745 125.654 130.97 125.593L131.275 125.516C131.433 125.473 131.623 125.414 131.845 125.315C132.787 125.001 133.134 124.134 133.259 122.656L133.289 122.217L133.309 121.744L133.321 121.238L133.328 120.415L133.327 109.617L133.318 107.936L133.306 107.026L133.288 106.188L133.262 105.422L133.24 104.95L133.213 104.51L133.182 104.101L133.145 103.723C133.139 103.663 133.132 103.603 133.125 103.546L133.08 103.213C133.071 103.16 133.063 103.108 133.055 103.058L133 102.771C132.864 102.135 132.672 101.743 132.401 101.581C132.031 101.358 131.615 101.284 131.25 101.239L130.866 101.196C130.513 101.152 130.269 101.089 130.269 100.839C130.269 100.653 130.362 100.468 130.547 100.468L130.71 100.47L130.981 100.494L131.646 100.569L131.992 100.6C132.054 100.605 132.118 100.61 132.183 100.615L132.603 100.638C132.825 100.648 133.067 100.653 133.329 100.653C133.968 100.626 134.625 100.556 135.295 100.472L136.655 100.294C137.802 100.144 138.984 100.004 140.189 100.004ZM209.259 100.375C209.129 100.839 209.024 101.275 208.936 101.682L208.84 102.155L208.758 102.598L208.689 103.01L208.506 104.194L208.46 104.453C208.367 104.936 208.263 105.196 208.054 105.196C207.869 105.196 207.683 105.104 207.683 104.918C207.776 104.362 207.869 103.806 207.869 103.249C207.869 102.539 207.409 102.07 206.315 101.782L206.015 101.711C205.753 101.655 205.46 101.607 205.135 101.567L204.73 101.522C204.659 101.516 204.588 101.509 204.515 101.503L204.061 101.469L203.575 101.442L203.054 101.421L202.5 101.406L201.911 101.398L201.286 101.395C199.617 101.395 197.856 101.488 196.187 101.766C196.002 104.918 195.909 107.978 195.909 110.944L195.91 111.779L195.918 111.946C195.958 112.386 196.14 112.54 196.829 112.59L197.094 112.604L197.577 112.613L200.389 112.612L201.331 112.604L202.184 112.587L202.704 112.569L203.186 112.545C203.263 112.54 203.339 112.535 203.413 112.53L203.839 112.496C204.928 112.393 205.632 112.206 206.014 111.872C206.436 111.492 206.589 111.036 206.683 110.652L206.781 110.234C206.845 109.991 206.925 109.832 207.127 109.832C207.312 109.832 207.405 109.925 207.405 110.11C207.405 110.197 207.4 110.291 207.392 110.394L207.356 110.726L207.252 111.53C207.188 112.051 207.127 112.663 207.127 113.355C207.127 113.668 207.134 113.961 207.144 114.235L207.17 114.756L207.22 115.441L207.295 116.321C207.299 116.369 207.302 116.414 207.304 116.458L207.312 116.693L207.311 116.868C207.303 117.094 207.262 117.156 207.034 117.156C206.92 117.156 206.868 117.046 206.821 116.839L206.706 116.251C206.656 116.009 206.587 115.722 206.478 115.395L206.438 115.281L206.354 115.067C206.03 114.315 205.535 113.929 204.509 113.733L204.216 113.684L203.895 113.644L203.545 113.612L203.163 113.587L202.748 113.568L202.3 113.555L201.558 113.543L200.73 113.54L197.987 113.542L197.443 113.55L197.14 113.561L196.879 113.579C196.799 113.586 196.725 113.594 196.658 113.603L196.473 113.636C196.081 113.722 195.961 113.884 195.924 114.184L195.913 114.321L195.909 114.476L195.91 118.269L195.919 119.588L195.932 120.528L195.954 121.517C195.959 121.686 195.964 121.856 195.969 122.029L196.008 123.087C196.031 123.627 196.06 124.185 196.094 124.758C197.763 125.037 199.432 125.129 201.101 125.222C201.683 125.222 202.231 125.21 202.745 125.183L203.348 125.144C206.479 124.899 208.32 124.031 209.538 121.977C209.636 121.813 209.717 121.656 209.785 121.507L209.908 121.221L210.091 120.743C210.198 120.473 210.29 120.308 210.465 120.308C210.734 120.308 210.759 120.357 210.752 120.455L210.745 120.538C210.744 120.553 210.743 120.57 210.743 120.586C210.465 122.533 209.908 124.48 208.981 126.242L202.66 126.086L201.679 126.069L200.797 126.058L200.266 126.056L198.789 126.063L197.767 126.077L196.817 126.096L195.132 126.149L193.726 126.214L193.125 126.248L191.844 126.334L190.65 126.427C190.641 126.427 190.632 126.427 190.624 126.427C190.253 126.427 190.161 126.149 190.161 125.964C190.161 125.752 190.416 125.648 190.764 125.564L191.039 125.503L191.333 125.443C191.78 125.347 192.24 125.222 192.479 124.944C192.526 124.889 192.57 124.803 192.612 124.685L192.661 124.529L192.708 124.343L192.752 124.127L192.794 123.881L192.834 123.605L192.889 123.136L192.924 122.785L192.971 122.204L193.014 121.555L193.064 120.586L193.106 119.498L193.133 118.605L193.17 116.967L193.196 115.144L193.212 113.137L193.22 110.017L193.219 105.552L193.213 105.024L193.202 104.537C193.2 104.459 193.197 104.383 193.195 104.309L193.173 103.881C193.081 102.453 192.822 101.72 192.108 101.395C191.808 101.259 191.54 101.179 191.311 101.121L190.841 101.012C190.583 100.946 190.439 100.872 190.439 100.653C190.439 100.468 190.532 100.375 190.81 100.375L191.005 100.387L191.824 100.457L192.463 100.5L193.05 100.528L193.732 100.549L194.242 100.558L194.979 100.559L199.916 100.453L204.575 100.394L208.796 100.375C208.949 100.375 209.104 100.375 209.259 100.375ZM93.1844 100.283C93.3698 100.283 93.4625 100.375 93.4625 100.561C93.4625 100.755 93.3376 100.848 93.1434 100.926L92.9612 100.991L92.7529 101.061C92.4248 101.176 92.0347 101.349 91.701 101.766C91.5582 101.944 91.4395 102.246 91.3409 102.673L91.2841 102.945C91.275 102.992 91.2661 103.041 91.2574 103.091L91.2075 103.408L91.1619 103.754L91.1205 104.131L91.0657 104.753L91.0191 105.443L90.9924 105.941L90.9582 106.745L90.9228 107.925L90.8925 109.573L90.8777 111.03L90.867 113.879L90.8679 119.857L90.8765 120.772L90.8882 121.332L90.9059 121.854C90.9094 121.937 90.9132 122.019 90.9173 122.1L90.9459 122.564C91.0495 123.974 91.2823 124.824 91.7937 125.222C92.1182 125.474 92.4427 125.573 92.7181 125.631L93.133 125.714C93.3363 125.764 93.4625 125.84 93.4625 126.056C93.4625 126.242 93.3698 126.335 93.1844 126.335C91.9791 126.149 90.8666 126.056 89.6613 126.056C89.3539 126.056 89.0604 126.063 88.7818 126.075L88.2449 126.104C88.0728 126.115 87.9077 126.128 87.7498 126.142L87.2986 126.185L86.2271 126.303L85.9705 126.326C85.9321 126.329 85.896 126.331 85.8621 126.332L85.7674 126.335C85.4893 126.335 85.3966 126.335 85.3966 126.056C85.3966 125.822 85.5609 125.752 85.8135 125.695L86.1309 125.627C86.439 125.557 86.8068 125.442 87.1581 125.129C87.5879 124.747 87.8702 124.021 88.0428 122.874L88.0992 122.451L88.1469 121.993L88.1863 121.499L88.2176 120.967L88.2414 120.397L88.2579 119.789L88.2675 119.142L88.2706 118.454L88.2692 117.586C88.2648 116.687 88.2475 115.696 88.1779 114.653V114.189C88.1779 113.677 88.0046 113.511 87.4298 113.464L87.1779 113.451L86.88 113.448L71.8975 113.449L71.6349 113.457C71.034 113.494 70.8408 113.649 70.8408 114.189V122.441C70.8408 124.017 71.119 125.129 72.7878 125.593C72.8591 125.607 72.9282 125.617 72.9941 125.625L73.2657 125.654C73.4817 125.683 73.6222 125.735 73.6222 125.964C73.6222 126.149 73.5295 126.242 73.3441 126.242C71.8607 126.056 70.47 125.964 68.9866 125.964L68.7248 125.965L67.9912 125.979L67.5467 125.995L66.9496 126.027L66.1492 126.086L65.4664 126.145L65.3708 126.149H65.1854C65.0927 126.149 65 125.964 65 125.871C65 125.709 65.1476 125.637 65.3754 125.585L65.5886 125.544L65.8315 125.502L66.0948 125.449C66.4101 125.377 66.7476 125.264 67.0397 125.037C67.1105 124.986 67.1779 124.891 67.242 124.753L67.3049 124.599C67.3152 124.572 67.3254 124.542 67.3355 124.512L67.3949 124.315C67.4046 124.28 67.4142 124.243 67.4238 124.205L67.4797 123.965L67.5331 123.695L67.5842 123.396L67.6562 122.894L67.7011 122.523L67.7435 122.123L67.7834 121.695L67.8383 120.998L67.8874 120.237L67.9168 119.694L67.9559 118.826L67.9986 117.57L68.0301 116.2L68.0504 114.717L68.0595 112.706L68.0577 104.138L68.0511 103.725C68.0477 103.593 68.0431 103.467 68.0365 103.347L68.0106 103.002C67.9291 102.179 67.7118 101.65 67.1324 101.302C66.8233 101.117 66.5143 101.024 66.2396 100.966L65.9776 100.917L65.7461 100.878C65.4613 100.826 65.2781 100.767 65.2781 100.561L65.3781 100.465C65.4768 100.377 65.6092 100.283 65.7417 100.283L67.0195 100.362L67.9397 100.406L68.8362 100.437L69.3354 100.45L70.1455 100.463L70.725 100.467L71.4994 100.465L71.9239 100.457L72.4709 100.44L73.0359 100.411L73.6222 100.375C73.8076 100.375 73.993 100.468 73.993 100.653C73.993 100.822 73.7969 100.892 73.5071 100.95L73.0151 101.036C72.5679 101.117 72.0545 101.243 71.6752 101.581C71.2117 102.044 71.0263 102.693 71.0263 103.342C70.8408 105.104 70.7481 106.958 70.7481 108.627L70.7503 109.399C70.7557 110.023 70.7746 110.6 70.8408 111.13L70.8415 111.574L70.8488 111.708C70.8823 112.042 71.045 112.192 71.7649 112.232L72.0619 112.241L86.7872 112.242C87.7144 112.242 88.1779 112.15 88.1779 111.315V104.176L88.1733 103.738C88.1394 102.273 87.9038 101.54 86.9727 101.117C86.7119 101.001 86.4693 100.93 86.2589 100.882L86.0228 100.834L85.7386 100.784C85.5805 100.753 85.4893 100.723 85.4893 100.653C85.4893 100.468 85.582 100.283 85.6747 100.283C86.88 100.468 88.1779 100.561 89.3832 100.561C89.7104 100.561 90.0203 100.552 90.3123 100.538L90.8725 100.503C90.9619 100.496 91.0492 100.489 91.1345 100.481L91.6217 100.434L92.6197 100.322L92.9285 100.293C93.0227 100.286 93.108 100.283 93.1844 100.283ZM111.819 100.19C112.051 100.19 112.167 100.398 112.283 100.792L112.353 101.051L112.517 101.697C112.532 101.758 112.549 101.82 112.566 101.885L112.68 102.29C112.701 102.361 112.723 102.433 112.747 102.508C113.75 105.256 114.836 108.087 115.994 111.019L116.876 113.238L117.784 115.496L118.717 117.796L119.676 120.14C119.837 120.534 120 120.93 120.163 121.328L120.388 121.862L120.601 122.351C121.297 123.909 121.863 124.758 122.945 125.222C123.095 125.286 123.225 125.331 123.336 125.364L123.616 125.443C123.791 125.494 123.872 125.536 123.872 125.686C123.872 125.908 123.813 125.953 123.646 125.961L123.454 125.963L122.259 125.904L121.702 125.885L121.271 125.877L120.534 125.871C119.874 125.871 119.291 125.91 118.787 125.959L118.309 126.01L117.342 126.123C117.181 126.139 117.04 126.149 116.919 126.149H116.64C116.362 126.149 116.27 126.149 116.27 125.964C116.27 125.814 116.411 125.731 116.617 125.662L116.808 125.604L117.131 125.513L117.355 125.437C117.802 125.269 118.217 124.98 118.217 124.295C118.217 124.017 118.124 123.646 118.031 123.368L115.991 117.434C115.837 117.048 115.618 116.984 115.335 116.973L115.157 116.971L106.995 116.971L106.818 116.976C106.54 116.994 106.347 117.073 106.205 117.416L104.31 122.533C104.124 122.997 104.032 123.368 104.032 123.831C104.032 124.758 104.796 125.129 105.561 125.349L105.865 125.43L106.43 125.567C106.816 125.666 107.091 125.769 107.091 125.964C107.091 126.056 106.998 126.242 106.628 126.242H105.886C105.782 126.242 105.661 126.232 105.523 126.216L105.226 126.177L104.692 126.103L104.277 126.052C103.838 126.003 103.325 125.964 102.734 125.964C102.388 125.964 102.061 125.977 101.76 125.996L101.327 126.029L100.936 126.066L100.295 126.13C100.16 126.142 100.045 126.149 99.9523 126.149C99.8596 126.149 99.7669 126.056 99.7669 125.964C99.7669 125.791 99.8678 125.719 100.06 125.644L100.478 125.494C100.646 125.43 100.842 125.346 101.065 125.222C101.451 124.973 101.846 124.478 102.279 123.734L102.467 123.399C102.498 123.341 102.53 123.281 102.562 123.221L102.758 122.84C102.791 122.774 102.824 122.707 102.858 122.639L103.063 122.213L103.382 121.516L103.604 121.013L103.953 120.201L104.321 119.319L105.123 117.347L106.349 114.282L107.008 112.605L107.754 110.669L108.543 108.577L109.527 105.898L110.884 102.133L111.141 101.448L111.317 101.01L111.467 100.667L111.534 100.53L111.596 100.417L111.653 100.327L111.706 100.26C111.748 100.213 111.785 100.19 111.819 100.19ZM327.838 100.004C327.925 100.004 328.021 100.008 328.126 100.015L328.467 100.043L329.534 100.156L330.042 100.203C330.131 100.211 330.221 100.218 330.313 100.225L330.887 100.26C331.184 100.274 331.497 100.283 331.824 100.283C332.172 100.283 332.507 100.27 332.823 100.253L333.715 100.204C333.899 100.196 334.072 100.19 334.235 100.19L334.405 100.192C334.662 100.2 334.791 100.252 334.791 100.561C334.791 100.741 334.623 100.809 334.373 100.852L334.142 100.885L333.883 100.918C333.57 100.961 333.225 101.029 332.937 101.21C332.691 101.407 332.503 101.8 332.361 102.399L332.298 102.691L332.242 103.012L332.191 103.362L332.146 103.743L332.106 104.154L332.07 104.596L332.04 105.068L332.002 105.834L331.972 106.671L331.95 107.579L331.931 108.901L331.921 110.353L331.917 111.528L331.918 118.249L331.935 120.454L332.008 124.924L332.01 125.778C332.01 126.056 331.917 126.149 331.639 126.149C331.548 126.149 331.457 126.074 331.337 125.923L331.218 125.762L330.595 124.846L330.323 124.464L330.116 124.182L329.884 123.877L329.627 123.551L329.19 123.018L328.862 122.635L328.503 122.23C328.44 122.16 328.376 122.09 328.31 122.019L327.9 121.579L327.454 121.117C327.377 121.038 327.298 120.958 327.217 120.877L326.714 120.38L324.777 118.501L323.574 117.346L322.037 115.886L320.225 114.186L318.536 112.621L316.974 111.187L312.852 107.428L311.847 106.497L311.311 105.991L310.825 105.523L310.391 105.092L310.13 104.825L309.944 105.011L309.949 113.617L309.964 116.262L309.981 117.609L309.998 118.542L310.028 119.682L310.057 120.461L310.091 121.173L310.118 121.611L310.148 122.02L310.199 122.58L310.237 122.916L310.279 123.224L310.324 123.503L310.374 123.753L310.427 123.974C310.501 124.25 310.587 124.449 310.686 124.573C311.026 124.981 311.653 125.177 312.31 125.298L312.67 125.358L313.536 125.474L313.845 125.521C314.333 125.603 314.673 125.716 314.673 125.964C314.673 126.126 314.602 126.146 314.46 126.149L314.394 126.149C314.188 126.149 313.969 126.14 313.737 126.126L312.224 126.012C311.819 125.984 311.397 125.964 310.964 125.964C310.284 125.964 309.666 125.995 309.117 126.036L308.59 126.08L307.485 126.189L307.131 126.221C307.022 126.23 306.921 126.236 306.83 126.239L306.699 126.242C306.421 126.242 306.236 126.242 306.236 125.964C306.236 125.767 306.418 125.701 306.754 125.627L307.291 125.512C307.447 125.476 307.619 125.432 307.806 125.376L307.997 125.315C308.792 125.076 308.974 124.77 309.009 123.928L309.016 123.627L309.017 121.606C309.017 121.166 309.023 120.72 309.032 120.266L309.081 118.172C309.097 117.455 309.11 116.716 309.11 115.951L309.107 110.678L309.097 109.195L309.082 108.172L309.058 107.225L309.035 106.635L309.007 106.079L308.973 105.556L308.931 105.067C308.916 104.909 308.9 104.757 308.882 104.61L308.825 104.186C308.662 103.098 308.404 102.358 307.997 101.951C307.569 101.523 307.073 101.301 306.624 101.164L306.361 101.09L305.697 100.933C305.458 100.868 305.309 100.796 305.309 100.653C305.309 100.468 305.401 100.375 305.68 100.375L305.852 100.378L306.233 100.395L306.901 100.435C307.226 100.453 307.589 100.468 307.997 100.468L308.656 100.466C309.223 100.46 309.838 100.442 310.501 100.375L310.71 100.645L311.147 101.192L311.609 101.751L312.097 102.322C312.18 102.418 312.264 102.515 312.35 102.612L312.874 103.202L313.424 103.804C313.518 103.906 313.612 104.008 313.708 104.111L314.295 104.733L314.907 105.368C315.011 105.475 315.116 105.583 315.222 105.691L315.871 106.347L316.544 107.017L317.242 107.701L317.964 108.399L318.711 109.113L319.482 109.841L320.685 110.962L321.942 112.119L323.702 113.717L325.559 115.381L327.512 117.114L330.086 119.378C330.263 119.533 330.44 119.688 330.619 119.845L330.99 119.659L331.032 118.675L331.059 117.747L331.074 116.873C331.076 116.732 331.077 116.594 331.078 116.457L331.083 114.931L331.079 110.075L331.068 108.658L331.059 107.997L331.046 107.368L331.018 106.482L330.994 105.93L330.965 105.408L330.93 104.916L330.888 104.453C330.873 104.304 330.857 104.159 330.839 104.02L330.783 103.615L330.718 103.239L330.645 102.891C330.425 101.945 330.095 101.334 329.599 101.024C329.228 100.765 328.828 100.668 328.481 100.616L328.01 100.557C327.738 100.52 327.56 100.468 327.56 100.283C327.56 100.097 327.652 100.004 327.838 100.004ZM262.661 100.375C262.754 100.375 262.847 100.468 262.847 100.561C262.847 100.773 262.699 100.863 262.444 100.925L262.233 100.968L261.707 101.055C261.363 101.117 260.962 101.21 260.529 101.395C260.007 101.656 259.75 102.269 259.624 103.365L259.587 103.749C259.582 103.816 259.577 103.885 259.572 103.955L259.548 104.394L259.53 104.872L259.519 105.39L259.51 106.243L259.509 106.865V117.342C259.509 122.441 262.198 125.037 267.482 125.037C271.535 125.037 274.451 123.812 275.634 121.787L275.734 121.606C276.058 121.046 276.308 120.241 276.497 119.187L276.574 118.719C276.599 118.559 276.622 118.393 276.645 118.221L276.708 117.693L276.765 117.133L276.816 116.542L276.86 115.92L276.899 115.267L276.932 114.583L276.96 113.867L276.993 112.734L277.009 111.939L277.024 110.686L277.032 108.905L277.028 106.881L277.022 106.267L277.012 105.693L276.998 105.159L276.978 104.663C276.974 104.583 276.97 104.505 276.965 104.429L276.934 103.989C276.928 103.919 276.922 103.85 276.916 103.783L276.872 103.397C276.736 102.357 276.482 101.745 276.012 101.488C275.789 101.377 275.508 101.324 275.224 101.289L274.667 101.233C274.227 101.187 273.879 101.117 273.879 100.839C273.879 100.653 274.065 100.468 274.436 100.468C274.818 100.468 275.227 100.494 275.656 100.527L276.543 100.595C276.998 100.627 277.472 100.653 277.959 100.653L278.217 100.653L278.916 100.644L279.678 100.621L280.833 100.561C281.018 100.561 281.111 100.746 281.111 100.839C281.111 101.019 280.963 101.079 280.739 101.103L280.579 101.115L280.111 101.137C279.414 101.186 278.608 101.405 278.608 102.878L278.607 106.409L278.594 107.784L278.578 108.668L278.557 109.526L278.529 110.356L278.497 111.16L278.439 112.314L278.395 113.049L278.321 114.099L278.24 115.086L278.182 115.707L278.09 116.585L278.027 117.134L277.927 117.901L277.825 118.6L277.756 119.028L277.686 119.426L277.582 119.964L277.478 120.431L277.41 120.703L277.343 120.942C277.332 120.98 277.321 121.015 277.31 121.05C276.29 124.295 272.767 126.242 267.297 126.242C260.344 126.242 256.728 123.275 256.728 117.712L256.734 117.226L256.793 114.743L256.814 113.255L256.82 112.233L256.817 110.699L256.802 109.246L256.783 108.238L256.757 107.3L256.711 106.159L256.669 105.385L256.621 104.681L256.584 104.251L256.524 103.664L256.481 103.312L256.434 102.991L256.384 102.702L256.331 102.443C256.322 102.403 256.313 102.364 256.303 102.326L256.246 102.114C256.167 101.853 256.081 101.675 255.986 101.581C255.623 101.218 255.155 101.135 254.742 101.105L254.283 101.078C253.974 101.055 253.761 101 253.761 100.746C253.761 100.524 253.88 100.479 254.07 100.47L254.225 100.468L254.448 100.482L255.241 100.549L255.919 100.595L256.532 100.624L257.235 100.645L257.752 100.652C257.842 100.653 257.933 100.653 258.026 100.653C258.397 100.653 258.744 100.646 259.071 100.633L259.697 100.601C259.797 100.595 259.894 100.588 259.99 100.581L260.539 100.537L261.921 100.41L262.307 100.385C262.43 100.379 262.548 100.375 262.661 100.375ZM298.077 100.283L298.177 100.314L298.346 100.362C298.468 100.401 298.541 100.445 298.541 100.561C298.541 100.769 298.293 100.861 297.934 100.937L297.258 101.069C296.77 101.171 296.238 101.326 295.852 101.673C295.664 101.843 295.509 102.174 295.384 102.67L295.323 102.932C295.313 102.978 295.304 103.026 295.295 103.074L295.241 103.378L295.191 103.709L295.146 104.069L295.104 104.457L295.067 104.874L295.032 105.319L295.002 105.792L294.962 106.556L294.918 107.676L294.886 108.913L294.858 110.625L294.841 112.523L294.833 115.049L294.833 120.597L294.841 121.403L294.854 121.89C294.856 121.968 294.859 122.045 294.863 122.12L294.886 122.55C295.003 124.27 295.347 125.047 296.292 125.288L296.408 125.315C296.726 125.388 297.017 125.423 297.274 125.442L297.566 125.461L297.936 125.481C298.261 125.506 298.448 125.559 298.448 125.778C298.448 126.031 298.295 126.131 297.919 126.147L297.521 126.149C297.37 126.149 297.212 126.146 297.047 126.141L296.529 126.12L294.695 126.022L293.988 125.993C293.5 125.975 292.978 125.964 292.422 125.964C292.001 125.964 291.608 125.977 291.244 125.996L290.72 126.029L289.446 126.13C289.273 126.142 289.121 126.149 288.991 126.149H288.342C288.157 126.149 287.972 126.149 287.972 125.871C287.972 125.621 288.122 125.521 288.422 125.503L288.528 125.5C290.475 125.5 291.402 124.944 291.773 123.831C291.79 123.778 291.807 123.72 291.824 123.656L291.871 123.448L291.915 123.207L291.956 122.933L291.993 122.627L292.027 122.287L292.058 121.915L292.099 121.296L292.122 120.842L292.162 119.835L292.199 118.392L292.222 116.745L292.234 114.892L292.233 111.32L292.216 109.232L292.193 107.986L292.168 107.126L292.134 106.33L292.107 105.835L292.076 105.369L292.039 104.93L291.998 104.519L291.952 104.135L291.9 103.78C291.881 103.666 291.862 103.556 291.842 103.451L291.778 103.15C291.587 102.336 291.318 101.848 290.938 101.673C290.475 101.457 290.022 101.364 289.623 101.316L289.336 101.287L288.839 101.25C288.475 101.218 288.25 101.163 288.25 100.932C288.25 100.653 288.435 100.561 288.713 100.561H288.899C290.104 100.561 291.402 100.653 292.7 100.653C293.637 100.653 294.491 100.597 295.249 100.529L296.982 100.353L297.46 100.31C297.686 100.293 297.892 100.283 298.077 100.283ZM171.804 100.375C171.897 100.375 171.989 100.561 171.989 100.653C171.989 100.881 171.772 100.938 171.439 100.97L170.936 101.011C170.52 101.05 170.034 101.13 169.579 101.395C169.197 101.586 168.987 102.195 168.873 103.261L168.837 103.656L168.808 104.09L168.785 104.562L168.769 105.073L168.753 105.913L168.744 107.514L168.748 113.632L168.767 116.898L168.803 119.534L168.837 120.943L168.878 122.074L168.917 122.805L168.943 123.151L168.962 123.344L168.991 123.576L169.012 123.692C169.015 123.709 169.019 123.724 169.023 123.739C169.178 124.361 169.725 124.722 171.538 124.822L171.979 124.841L172.468 124.85L172.731 124.851C173.85 124.851 174.885 124.802 175.825 124.716L176.439 124.652C176.938 124.595 177.408 124.528 177.846 124.451L178.358 124.356C178.44 124.339 178.522 124.322 178.602 124.305L179.068 124.198C180.568 123.831 181.548 123.356 181.909 122.904C182.157 122.595 182.301 122.245 182.407 121.915L182.491 121.639L182.565 121.382C182.686 120.973 182.806 120.679 183.115 120.679C183.393 120.679 183.486 120.772 183.486 121.05C183.486 121.621 183.298 122.296 183.032 123.085L182.427 124.817C182.284 125.237 182.139 125.681 182.002 126.149L180.9 126.029C179.624 125.895 178.366 125.799 176.996 125.871L173.658 125.881L170.473 125.912L168.149 125.949L163.72 126.056L163.5 126.054C163.334 126.045 163.274 126.001 163.274 125.778C163.274 125.547 163.413 125.477 163.68 125.419L164.174 125.322C164.37 125.28 164.596 125.222 164.85 125.129C165.589 124.861 165.841 124.252 165.924 122.986L165.944 122.606L165.956 122.189L165.961 121.732L165.96 113.313L165.946 110.551L165.927 108.807L165.898 107.253L165.868 106.145L165.83 105.159L165.784 104.293L165.757 103.905L165.729 103.548L165.681 103.068L165.646 102.785L165.609 102.532L165.569 102.31L165.526 102.117C165.512 102.058 165.496 102.004 165.481 101.954L165.432 101.821C165.424 101.802 165.415 101.783 165.407 101.766C165.205 101.363 164.758 101.205 164.317 101.125L164.056 101.085L163.585 101.029C163.345 100.996 163.182 100.952 163.182 100.839C163.182 100.535 163.244 100.48 163.419 100.47L163.553 100.468L163.657 100.473L164.551 100.554L164.886 100.58L165.466 100.617L165.903 100.636L166.378 100.649C166.543 100.652 166.714 100.653 166.89 100.653C167.349 100.653 167.782 100.643 168.186 100.627L168.772 100.598L169.317 100.563L170.054 100.504L171.067 100.415L171.395 100.391L171.679 100.377C171.723 100.376 171.764 100.375 171.804 100.375ZM231.696 101.395C225.947 101.395 221.868 105.567 221.868 111.593C221.961 114.746 222.888 117.712 224.742 120.308C226.782 123.275 230.027 125.037 233.643 125.129C239.113 125.129 242.821 120.772 242.821 115.024C242.821 107.236 237.444 101.395 231.696 101.395ZM110.985 105.567C110.892 105.567 110.707 105.66 110.614 105.845L106.998 115.302C106.937 115.364 106.916 115.467 106.909 115.583L106.906 115.765L106.908 115.883C106.916 115.996 106.95 116.03 107.105 116.039L107.27 116.043L115.064 116.044C115.25 116.044 115.25 115.951 115.25 115.765L115.235 115.641L115.172 115.426C115.163 115.389 115.157 115.348 115.157 115.302L111.263 105.938L111.184 105.783C111.117 105.662 111.051 105.567 110.985 105.567ZM139.447 100.839C137.501 100.839 136.481 101.302 136.295 102.044L136.271 102.159L136.237 102.394L136.215 102.591L136.185 102.949L136.158 103.379L136.117 104.257L136.084 105.336L136.052 106.894L136.028 109.069L136.018 111.627L136.017 112.428C137.037 112.706 138.057 112.891 139.262 112.891C143.527 112.891 145.937 110.759 145.937 107.514C145.937 103.62 143.527 100.839 139.447 100.839Z" fill="#1D1D23"/>
</svg>
