<svg width="400" height="220" viewBox="0 0 400 220" fill="none" xmlns="http://www.w3.org/2000/svg">
<path d="M128.32 99.8406L127.979 99.3664C127.772 99.4864 127.552 99.594 127.331 99.7017C126.849 99.9368 126.365 100.173 126.021 100.54C122.935 103.815 119.878 107.131 116.82 110.448L116.816 110.452C115.635 111.733 114.455 113.013 113.272 114.292C112.16 115.493 111.039 116.688 109.761 118.05L109.759 118.053C109.423 118.412 109.075 118.782 108.715 119.166V88.5726C108.715 88.4793 108.717 88.383 108.72 88.2862C108.742 87.4796 108.764 86.6337 107.302 87.1636V130.448C108.285 130.851 108.742 130.639 108.728 129.565C108.699 127.177 108.699 124.789 108.728 122.401C108.728 121.855 108.728 121.149 109.069 120.794C111.209 118.388 113.396 116.025 115.669 113.57L115.669 113.569C116.194 113.002 116.723 112.43 117.257 111.852C117.394 112.077 117.524 112.289 117.649 112.493C118.022 113.102 118.349 113.636 118.666 114.172C119.688 115.896 120.708 117.625 121.729 119.356L121.73 119.357L121.733 119.362L121.734 119.363C123.742 122.768 125.753 126.179 127.795 129.561C128.023 129.944 128.432 130.219 128.845 130.497C129.051 130.634 129.257 130.773 129.443 130.926C129.489 130.876 129.536 130.826 129.582 130.775C129.679 130.671 129.777 130.565 129.876 130.462L118.277 110.785C121.451 107.286 124.606 103.866 127.755 100.453L128.32 99.8406Z" fill="#1D1D23"/>
<path d="M343.331 99.1959C347.295 99.9396 349.84 102.478 349.918 106.51C350.029 112.276 350.003 118.043 349.976 123.868L349.975 123.888C349.965 126.09 349.955 128.301 349.952 130.523H345.858V108.639C345.858 103.791 343.528 101.847 338.694 102.549C335.133 103.068 332.39 105.016 329.982 107.503C329.582 107.912 329.453 108.724 329.453 109.352C329.432 115.766 329.432 122.177 329.432 128.591V130.547H325.339V99.6632H329.364V104.252C329.887 103.872 330.365 103.515 330.816 103.179C331.754 102.478 332.576 101.865 333.437 101.314C336.453 99.3767 339.725 98.5136 343.331 99.1959Z" fill="#1D1D23"/>
<path d="M266.673 113.219C268.284 113.747 269.896 114.275 271.427 114.974C274.522 116.376 275.971 118.979 275.934 122.36C275.862 125.659 274.419 128.258 271.427 129.623C265.611 132.294 259.88 132.12 254.421 128.541C253.647 128.043 252.942 127.442 252.16 126.776C251.798 126.468 251.419 126.145 251.01 125.812L254.721 123.083C257.628 126.883 261.442 128.251 266.03 127.593C266.424 127.541 266.815 127.468 267.201 127.375C270.07 126.651 271.625 125.075 271.775 122.79C271.919 120.576 270.67 118.747 267.992 117.703C266.819 117.249 265.603 116.917 264.384 116.584C263.681 116.392 262.978 116.2 262.281 115.984C261.788 115.829 261.287 115.684 260.786 115.54C259.431 115.149 258.068 114.756 256.823 114.148C251.617 111.631 251.02 104.92 255.585 101.359C260.617 97.4016 270.295 98.5205 274.433 103.61L271.659 106.575C269.128 103.525 265.921 102.222 262.107 102.693C260.874 102.826 259.682 103.211 258.604 103.825C256.028 105.384 256.011 108.99 258.662 110.409C259.93 111.088 261.334 111.511 262.738 111.935C263.403 112.136 264.069 112.337 264.72 112.565C265.368 112.791 266.021 113.005 266.673 113.219Z" fill="#1D1D23"/>
<path d="M285.39 130.588H281.484V99.8066H285.39V130.588Z" fill="#1D1D23"/>
<path d="M71.1102 99.8475L70.7281 99.3494C70.5221 99.4774 70.3034 99.5929 70.0848 99.7084C69.6153 99.9563 69.1461 100.204 68.804 100.574C65.2221 104.401 61.6579 108.248 58.095 112.093L58.0869 112.102C56.2503 114.084 54.414 116.066 52.5757 118.044C52.388 118.246 52.1752 118.422 51.8805 118.666C51.7413 118.782 51.5838 118.912 51.4022 119.068V87.0955C49.896 86.7656 49.9653 87.5961 50.0254 88.317C50.0368 88.4534 50.0478 88.5858 50.0478 88.7057C50.016 101.044 50.0103 113.378 50.0308 125.71C50.0308 126.147 50.0327 126.583 50.0346 127.02C50.0384 127.891 50.0421 128.762 50.0308 129.633C50.0308 130.755 50.5425 130.834 51.4602 130.387V128.681C51.4685 127.92 51.4172 127.136 51.366 126.352C51.2491 124.563 51.1323 122.775 51.7229 121.265C52.3204 119.736 53.6371 118.481 54.9509 117.228C55.5048 116.7 56.0581 116.173 56.5569 115.626C57.2711 114.844 57.9978 114.075 58.7489 113.28L58.7497 113.279C59.1821 112.822 59.6231 112.355 60.0741 111.873C63.6459 117.88 67.0574 123.642 70.4347 129.415L70.458 129.454C70.9332 130.265 71.3732 131.015 72.6487 130.438L61.0498 110.764C64.4612 107.07 67.7874 103.46 71.1102 99.8475Z" fill="#1D1D23"/>
<path d="M180.41 116.786C182.395 111.53 184.377 106.271 186.356 101.011C186.379 100.951 186.401 100.891 186.423 100.83L186.423 100.829C186.694 100.083 186.969 99.3281 188.253 99.8988C187.156 102.808 186.061 105.712 184.967 108.612C181.617 117.541 178.25 126.462 174.866 135.375C172.287 142.16 167.763 144.251 160.818 141.925L160.538 141.375C160.984 141.154 161.451 140.98 161.933 140.857C162.331 140.855 162.726 140.917 163.103 141.041C168.425 142.061 171.226 140.321 173.437 135.392C174.822 132.28 174.737 129.636 173.457 126.522C171.015 120.584 168.757 114.566 166.499 108.55L166.498 108.547C165.625 106.22 164.751 103.893 163.868 101.57C163.724 101.216 163.605 100.856 163.486 100.495C163.43 100.325 163.374 100.155 163.315 99.9841C164.625 99.6225 164.645 99.6225 165.181 101.035C168.449 109.573 171.711 118.109 174.965 126.645C175.128 127.072 175.301 127.496 175.515 128.018L175.516 128.021L175.523 128.037C175.621 128.277 175.727 128.537 175.845 128.828C177.442 124.632 178.929 120.705 180.41 116.786Z" fill="#1D1D23"/>
<path d="M88.1333 105.835C88.1333 105.382 88.1366 104.929 88.1398 104.476C88.1486 103.256 88.1573 102.035 88.1026 100.816C88.1026 100.552 87.9043 100.295 87.7059 100.037C87.6145 99.9185 87.5231 99.7997 87.451 99.6803C87.1458 100.042 86.8858 100.44 86.6766 100.864C86.5861 101.102 86.607 101.39 86.6279 101.678C86.6369 101.803 86.6459 101.927 86.6459 102.048V127.934C86.6073 128.616 86.6221 129.301 86.6903 129.981C86.7419 130.142 86.834 130.287 86.9576 130.402C87.0812 130.517 87.2323 130.599 87.3964 130.639C87.6421 130.639 88.0037 130.24 88.0787 129.957C88.1578 129.507 88.1739 129.047 88.1265 128.592V110.368L88.1262 110.221C88.1244 109.576 88.1224 108.871 88.4233 108.39C91.3878 103.675 94.9903 99.9294 101.22 100.373C101.488 100.394 101.77 100.219 102.052 100.044C102.183 99.9631 102.315 99.8819 102.444 99.8202L102.212 99.2812C96.1332 98.2339 92.0019 101.328 88.1333 105.835Z" fill="#1D1D23"/>
<path d="M78.0274 99.9543C78.1586 99.8466 78.3114 99.7683 78.4755 99.7247C78.6119 99.6872 78.9258 100.076 79.0588 100.322C79.1265 100.455 79.112 100.629 79.0978 100.799C79.0919 100.869 79.0861 100.938 79.0861 101.004V129.78C79.0861 129.941 79.0673 130.095 79.0488 130.247C79.04 130.319 79.0313 130.39 79.0247 130.462L78.5062 130.861C78.4191 130.736 78.3115 130.611 78.2038 130.487C77.9656 130.212 77.7267 129.936 77.7079 129.647C77.6334 128.569 77.6457 127.492 77.6578 126.418C77.6624 126.015 77.667 125.613 77.667 125.212V101.714C77.616 101.259 77.6321 100.799 77.7147 100.349C77.7895 100.197 77.8961 100.062 78.0274 99.9543Z" fill="#1D1D23"/>
<path d="M281.525 92.3457H285.483V87.498H281.525V92.3457Z" fill="#1D1D23"/>
<path d="M79.2908 91.5609H77.5339V89.1661L79.2908 89.0774V91.5609Z" fill="#1D1D23"/>
<path fill-rule="evenodd" clip-rule="evenodd" d="M295.284 103.071C291.279 107.67 291.947 113.343 297.242 119.221C292.701 122.008 292.309 124.557 296.15 127.59C295.855 127.776 295.569 127.947 295.294 128.113C294.743 128.443 294.233 128.749 293.762 129.104C289.805 132.069 289.921 137.224 294.073 139.925C295.22 140.657 296.475 141.204 297.791 141.546C302.036 142.679 306.486 142.814 310.792 141.942C312.725 141.539 314.586 140.843 316.309 139.878C318.922 138.414 319.969 135.937 319.744 132.963C319.522 130.042 317.885 128.088 315.248 127.088C313.593 126.498 311.876 126.098 310.13 125.898C308.313 125.661 306.488 125.484 304.662 125.306C303.04 125.149 301.419 124.991 299.804 124.792C298.603 124.639 297.382 124.161 297.72 122.496C297.986 121.186 299.442 120.422 300.855 120.733C301.847 120.973 302.854 121.143 303.87 121.241C310.779 121.77 316.445 117.618 316.994 111.232C317.132 109.642 316.776 108.012 316.401 106.297C316.219 105.462 316.032 104.607 315.896 103.726L320.648 102.921V98.9948L313.269 101.799C307.289 97.1492 299.152 98.6161 295.284 103.071ZM300.633 128.657C303.908 128.91 307.179 129.241 310.444 129.623C311.396 129.759 312.325 130.022 313.208 130.404C313.966 130.677 314.62 131.182 315.076 131.847C315.533 132.511 315.77 133.303 315.752 134.109C315.78 135.733 314.917 137.063 313.422 137.551C311.698 138.116 309.926 138.534 308.232 138.933L308.231 138.934C307.523 139.1 306.828 139.264 306.156 139.434C305.267 139.266 304.408 139.126 303.575 138.99L303.574 138.99C301.783 138.697 300.108 138.423 298.497 137.937C295.717 137.097 294.55 135.108 295.042 132.867C295.505 130.715 298.354 128.494 300.626 128.668L300.633 128.657ZM304.836 118.068C300.101 118.044 296.703 114.684 296.73 110.055C296.757 105.425 300.159 102.13 304.945 102.208C309.629 102.266 313.132 105.712 313.095 110.256C313.085 114.865 309.68 118.092 304.836 118.068Z" fill="#1D1D23"/>
<path fill-rule="evenodd" clip-rule="evenodd" d="M213.613 87.0684H217.656C217.879 92.9736 217.824 98.8721 217.769 104.768C217.688 113.37 217.607 121.967 218.393 130.568H214.316L213.497 126.976C213.262 127.159 213.034 127.339 212.81 127.516C212.261 127.949 211.74 128.361 211.202 128.746C204.15 133.812 195.076 131.277 191.944 123.189C189.679 117.331 189.73 111.368 192.599 105.681C195.812 99.2814 203.556 97.0639 209.786 100.612C210.594 101.072 211.363 101.603 212.23 102.202L212.231 102.203C212.662 102.501 213.117 102.816 213.613 103.147V87.0684ZM210.386 125.418C210.793 125.173 211.198 124.93 211.604 124.7C213.085 123.864 213.777 122.599 213.624 120.774C213.558 120.093 213.528 119.41 213.532 118.727C213.53 118.144 213.543 117.558 213.557 116.971C213.57 116.419 213.583 115.866 213.583 115.315C213.583 114.76 213.585 114.205 213.588 113.65C213.593 112.541 213.599 111.432 213.583 110.324C213.576 109.772 213.562 109.219 213.538 108.663C213.511 108.004 213.259 107.124 212.784 106.749C212.657 106.65 212.53 106.55 212.403 106.449C211.016 105.359 209.592 104.24 208.008 103.522C202.55 101.055 197.481 103.252 195.587 108.902C194.207 112.917 194.207 117.277 195.587 121.292C197.256 126.228 201.076 128.582 206.03 127.46C207.556 127.116 208.98 126.261 210.386 125.418Z" fill="#1D1D23"/>
<path fill-rule="evenodd" clip-rule="evenodd" d="M248.567 115.656C248.489 110.706 247.772 106.186 244.378 102.659C243.072 101.324 241.483 100.301 239.728 99.6634C233.472 97.4562 226.765 100.629 224.005 106.923C221.941 111.648 221.876 116.53 223.247 121.425C225.093 128.006 230.319 131.731 237.122 131.318C242.106 131.004 245.852 128.589 248.472 124.192L245.61 122.268C241.209 127.422 236.999 128.968 232.646 127.122C228.941 125.55 226.215 120.337 226.734 115.656H248.567ZM235.696 102.512C240.472 102.485 243.491 105.886 244.102 112.105H226.881C227.328 106.52 231.015 102.539 235.696 102.512Z" fill="#1D1D23"/>
<path fill-rule="evenodd" clip-rule="evenodd" d="M148.564 99.0423C154.483 99.4755 158.256 102.641 159.822 108.492C161.074 113.015 161.032 117.798 159.699 122.298C157.137 130.95 147.725 134.18 140.359 128.951C139.571 128.379 138.838 127.738 138.025 127.026C137.61 126.662 137.174 126.28 136.699 125.88C136.699 126.353 136.695 126.801 136.692 127.232C136.685 128.046 136.679 128.799 136.699 129.551C136.729 130.554 136.368 130.939 135.293 130.496V87.1193C136.731 86.7406 136.713 87.4926 136.696 88.212C136.694 88.2898 136.692 88.3673 136.692 88.4429V104.538C136.915 104.328 137.11 104.143 137.286 103.977C137.658 103.624 137.946 103.352 138.237 103.088C141.175 100.448 144.531 98.7455 148.564 99.0423ZM141.987 128.33C147.974 132.031 155.308 129.534 157.867 122.977C159.508 118.788 159.6 114.435 158.631 110.061C157.659 105.545 155.363 102.089 150.638 100.803C145.981 99.5335 139.52 102.048 136.992 106.104C136.771 106.553 136.67 107.051 136.699 107.55C136.687 109.219 136.691 110.883 136.695 112.55C136.697 113.384 136.699 114.219 136.699 115.056C136.699 115.74 136.697 116.424 136.694 117.107C136.688 118.928 136.682 120.745 136.719 122.561C136.729 123.148 136.835 123.925 137.211 124.267C137.415 124.461 137.619 124.657 137.824 124.853C139.132 126.11 140.461 127.386 141.987 128.33Z" fill="#1D1D23"/>
</svg>
