<svg width="400" height="220" viewBox="0 0 400 220" fill="none" xmlns="http://www.w3.org/2000/svg">
<path d="M185.631 102.995H202.375V99.8735C201.637 99.8167 200.729 99.7032 199.651 99.5329C198.572 99.3059 197.664 99.0221 196.926 98.6815C196.075 98.2275 194.996 97.5463 193.804 96.6382C192.556 95.73 191.364 94.5381 190.172 93.0055C188.924 91.4451 187.701 89.9284 186.509 88.4487L186.499 88.4363L186.498 88.4347L186.496 88.4331C184.657 86.1506 182.889 83.956 181.204 81.8238C178.423 78.3615 174.903 74.1612 170.59 69.3366C173.711 66.4419 176.833 63.2065 179.955 59.6874C183.134 56.1683 186.142 52.7627 189.037 49.4706C189.718 48.7328 190.569 48.1652 191.648 47.6543C192.726 47.1435 193.748 46.8029 194.713 46.5759C194.957 46.5314 195.184 46.487 195.394 46.446C195.72 46.3822 196.003 46.3266 196.245 46.2921C196.51 46.2164 196.775 46.1912 197.04 46.1659C197.172 46.1533 197.305 46.1407 197.437 46.1218C197.615 46.1218 197.793 46.1063 197.963 46.0915C198.118 46.078 198.267 46.065 198.402 46.065C198.686 46.0083 198.913 46.0083 198.97 46.0083V43H176.493V46.0083C176.713 46.0398 176.969 46.0538 177.259 46.0697C177.492 46.0825 177.747 46.0965 178.025 46.1218C178.65 46.1786 179.331 46.2921 180.125 46.4624C180.806 46.6326 181.431 46.8597 181.942 47.1435C182.452 47.3705 182.736 47.7678 182.736 48.1652C182.736 49.3571 182.225 50.7194 181.204 52.2519C180.182 53.7844 178.536 55.8278 176.322 58.382C174.279 60.6524 172.065 62.9795 169.625 65.3067C167.184 67.6338 164.687 69.8475 162.132 72.0043H161.281V51.287C161.281 50.3788 161.451 49.5274 161.792 48.7328C162.132 47.9381 162.757 47.3705 163.722 47.03C164.289 46.8597 165.141 46.6326 166.333 46.4056C167.525 46.1786 168.49 46.065 169.284 46.0083V43H144.423V46.0083C145.218 46.065 146.126 46.2353 147.148 46.5191C148.226 46.8029 149.134 47.1435 149.872 47.484C150.837 47.9381 151.462 48.5625 151.802 49.2436C152.143 49.9247 152.313 50.7761 152.313 51.741V95.0489C152.313 96.0706 152.143 96.922 151.745 97.6599C151.405 98.3977 150.78 98.9653 149.929 99.3059C149.418 99.5329 148.567 99.7032 147.318 99.8167C146.587 99.8832 145.953 99.9303 145.427 99.9692C145.056 99.9967 144.739 100.02 144.48 100.044V103.052H169.341V100.044C168.546 100.044 167.525 99.8735 166.276 99.5897C165.084 99.3059 164.233 99.0221 163.778 98.8518C162.814 98.3977 162.189 97.8301 161.849 97.0923C161.508 96.3544 161.338 95.503 161.338 94.5948V73.7071H162.416C166.73 78.3047 170.873 83.1293 174.847 88.0674C178.82 93.0055 182.396 98.0004 185.631 102.995Z" fill="#1D1D23"/>
<path d="M146.921 140.286L145.729 152.547H145.218L143.231 145.281H143.175L141.188 152.547H140.677L139.428 140.286L140.62 140.059L141.188 149.084H141.245L143.004 142.784H143.345L145.104 149.084H145.161L145.729 140.059L146.921 140.286Z" fill="#1D1D23"/>
<path fill-rule="evenodd" clip-rule="evenodd" d="M151.064 152.547L152.029 148.63H155.321L156.229 152.547L157.421 152.206L154.356 140.286H152.937L149.872 152.206L151.064 152.547ZM152.313 147.552L153.675 141.932L155.037 147.552H152.313Z" fill="#1D1D23"/>
<path d="M162.813 140.286H161.622V152.32H167.752V151.241H162.813V140.286Z" fill="#1D1D23"/>
<path d="M173.768 140.286H172.576V152.32H178.706V151.241H173.768V140.286Z" fill="#1D1D23"/>
<path d="M196.188 140.286H190.285V152.32H191.477V146.416H195.394V145.338H191.477V141.365H196.188V140.286Z" fill="#1D1D23"/>
<path fill-rule="evenodd" clip-rule="evenodd" d="M200.218 152.547L201.183 148.63H204.475L205.383 152.547L206.575 152.206L203.51 140.286H202.091L199.026 152.206L200.218 152.547ZM201.467 147.552L202.829 141.932L204.191 147.552H201.467Z" fill="#1D1D23"/>
<path d="M213.557 141.308C214.579 141.308 215.033 142.16 215.203 143.068L216.395 142.897C216.054 141.365 215.26 140.173 213.557 140.173C211.854 140.173 210.776 141.592 210.776 143.238C210.776 145.054 211.741 145.622 213.103 146.417C213.169 146.456 213.234 146.494 213.299 146.532C214.457 147.212 215.373 147.749 215.373 149.255C215.373 150.73 214.635 151.411 213.614 151.411C212.138 151.411 211.854 150.39 211.684 149.084L210.492 149.255C210.662 151.128 211.457 152.547 213.557 152.547C215.543 152.547 216.565 151.014 216.565 149.141C216.565 147.325 215.543 146.587 214.068 145.679C212.138 144.544 211.968 144.203 211.968 143.238C211.968 142.216 212.422 141.308 213.557 141.308Z" fill="#1D1D23"/>
<path d="M222.355 140.286H221.163V152.32H222.355V146.416H226.044V152.32H227.236V140.286H226.044V145.338H222.355V140.286Z" fill="#1D1D23"/>
<path d="M232.458 141.365H234.104V151.241H232.458V152.32H236.942V151.241H235.296V141.365H236.942V140.286H232.458V141.365Z" fill="#1D1D23"/>
<path fill-rule="evenodd" clip-rule="evenodd" d="M245.002 152.49C248.354 152.49 248.352 147.98 248.351 146.377V146.226C248.352 144.572 248.354 140.172 245.002 140.116C241.767 140.116 241.653 144.316 241.653 146.303L241.653 146.377C241.652 147.98 241.65 152.49 245.002 152.49ZM245.002 151.355C243.356 151.355 242.959 149.538 242.959 146.303L242.958 146.167C242.957 144.38 242.955 141.251 245.002 141.251C247.048 141.251 247.047 143.892 247.045 146.128V146.465C247.047 148.551 247.049 151.355 245.002 151.355Z" fill="#1D1D23"/>
<path d="M254.992 140.286H253.459V152.376H254.651V144.997L254.594 142.273L254.651 142.216L258.227 152.319H259.759V140.286H258.568V147.665L258.624 150.333L258.568 150.39L254.992 140.286Z" fill="#1D1D23"/>
<path d="M196.188 184.048C196.188 182.459 197.551 181.097 199.253 181.097C200.956 181.097 202.318 182.459 202.318 184.048C202.318 185.695 200.956 187 199.253 187C197.551 187 196.188 185.695 196.188 184.048Z" fill="#1D1D23"/>
<path d="M251.87 59.2901C251.643 58.2684 251.132 57.0765 250.508 55.6575C249.827 54.2385 249.089 52.933 248.294 51.6843C247.443 50.3788 246.534 49.2436 245.513 48.2787C244.491 47.3138 243.526 46.7462 242.618 46.6326C241.767 46.5191 240.631 46.4624 239.326 46.4056C238.02 46.3488 236.772 46.3488 235.637 46.3488H233.196V94.311C233.196 95.2192 233.366 96.0706 233.763 96.8652C234.161 97.6599 234.842 98.2275 235.807 98.6815C236.318 98.8518 237.396 99.1356 238.985 99.4762C240.631 99.8167 241.88 99.987 242.788 100.044V103.052H214.465V100.044C215.26 99.987 216.452 99.8735 218.098 99.7032C219.744 99.5329 220.822 99.3059 221.447 99.0789C222.355 98.7383 223.036 98.1707 223.49 97.4896C223.944 96.8085 224.171 95.9003 224.171 94.7083V46.2921H221.73C220.879 46.2921 219.8 46.2921 218.495 46.3488C217.19 46.4056 215.941 46.4624 214.749 46.6326C213.841 46.7462 212.876 47.3138 211.854 48.2787C210.832 49.3004 209.924 50.4356 209.073 51.6843C208.221 52.933 207.484 54.2952 206.859 55.7142C206.235 57.1332 205.781 58.3252 205.497 59.2334H202.545V43H254.821V59.2901H251.87Z" fill="#1D1D23"/>
<path d="M131.652 126.097L131.255 132.227H114V131.205C114.217 131.205 114.501 131.172 114.851 131.131C114.959 131.118 115.072 131.105 115.192 131.092C115.703 131.035 115.987 130.978 116.157 130.921C116.497 130.751 116.668 130.581 116.838 130.354C116.952 130.127 117.008 129.843 117.008 129.446V114.461C117.008 114.12 116.952 113.837 116.838 113.609C116.724 113.382 116.497 113.155 116.157 112.985C115.873 112.872 115.533 112.758 115.078 112.645C114.624 112.531 114.284 112.474 114 112.474V111.453H130.12V116.447H129.041C128.871 115.71 128.417 114.915 127.793 114.064C127.168 113.212 126.544 112.758 125.92 112.701C125.768 112.671 125.583 112.657 125.384 112.642C125.21 112.628 125.026 112.614 124.841 112.588C124.655 112.588 124.444 112.575 124.219 112.562C123.965 112.547 123.693 112.531 123.422 112.531H120.13V120.875H122.4C123.138 120.875 123.706 120.818 124.047 120.648C124.387 120.534 124.728 120.25 124.955 119.91C125.182 119.626 125.352 119.229 125.522 118.775C125.693 118.321 125.749 117.866 125.806 117.412H126.941V125.586H125.863C125.806 125.132 125.693 124.621 125.522 124.11C125.352 123.599 125.182 123.202 125.011 122.975C124.728 122.578 124.387 122.351 123.99 122.237C123.592 122.123 123.082 122.067 122.457 122.067H120.13V128.31C120.13 128.935 120.187 129.446 120.244 129.786C120.357 130.127 120.527 130.41 120.754 130.581C120.981 130.751 121.379 130.865 121.776 130.921C122.23 130.978 122.855 130.978 123.649 130.978H124.898C125.409 130.978 125.863 130.978 126.26 130.921C126.657 130.865 126.998 130.808 127.395 130.694C127.793 130.581 128.076 130.467 128.247 130.297C128.701 129.843 129.155 129.105 129.666 128.14C130.177 127.175 130.46 126.494 130.631 126.04H131.652V126.097Z" fill="#1D1D23"/>
<path d="M155.378 132.284H145.672V131.262C146.467 131.262 147.148 131.148 147.602 131.035C148.113 130.921 148.34 130.694 148.34 130.411C148.34 130.24 148.226 129.956 147.999 129.502C147.772 129.048 147.488 128.537 147.148 127.97C147.045 127.808 146.937 127.638 146.826 127.46L146.825 127.459C146.506 126.953 146.149 126.386 145.729 125.756C145.409 125.224 145.068 124.714 144.732 124.212C144.53 123.911 144.331 123.613 144.139 123.316C143.412 124.285 142.602 125.42 141.674 126.721L141.188 127.402C140.11 128.992 139.542 129.956 139.542 130.24C139.542 130.581 139.712 130.808 139.996 130.978C140.28 131.148 140.961 131.205 141.983 131.262V132.284H134.207V131.262C134.395 131.262 134.66 131.223 134.972 131.177C135.036 131.168 135.103 131.158 135.171 131.148C135.569 131.092 135.909 130.978 136.136 130.865C136.647 130.581 137.045 130.297 137.385 129.956C137.461 129.866 137.54 129.775 137.621 129.683C137.846 129.427 138.085 129.154 138.293 128.821C138.918 127.97 139.712 126.891 140.677 125.586C141.135 124.966 141.568 124.385 141.981 123.83L141.982 123.829L141.983 123.827C142.439 123.214 142.871 122.632 143.288 122.067C143.067 121.735 142.82 121.378 142.551 120.988C142.129 120.377 141.651 119.685 141.131 118.888C140.673 118.258 140.214 117.583 139.741 116.888C139.277 116.206 138.799 115.504 138.293 114.802C137.896 114.177 137.555 113.723 137.328 113.496C137.101 113.269 136.761 113.042 136.363 112.815C136.212 112.739 136.01 112.689 135.775 112.63C135.657 112.6 135.531 112.569 135.398 112.531L135.287 112.515L135.2 112.502C134.889 112.457 134.622 112.418 134.434 112.418V111.396H144.083V112.418C143.563 112.418 143.043 112.513 142.479 112.616L142.323 112.645C141.699 112.758 141.415 112.928 141.415 113.212C141.415 113.383 141.529 113.723 141.756 114.177C141.983 114.631 142.266 115.142 142.607 115.653C142.756 115.901 142.916 116.149 143.081 116.407L143.082 116.408C143.295 116.739 143.519 117.086 143.742 117.469C144.121 118.119 144.604 118.821 145.189 119.672L145.275 119.796C146.353 118.321 147.318 116.958 148.113 115.766C148.907 114.574 149.305 113.78 149.305 113.439C149.305 113.099 149.134 112.872 148.737 112.758C148.396 112.588 147.772 112.531 146.864 112.474V111.453H154.64V112.474C154.452 112.474 154.186 112.513 153.874 112.559L153.84 112.564C153.786 112.572 153.731 112.58 153.675 112.588C153.278 112.645 152.937 112.758 152.71 112.872C152.199 113.099 151.802 113.383 151.575 113.666C151.481 113.784 151.368 113.921 151.235 114.081C151.046 114.308 150.819 114.583 150.553 114.915C149.759 115.936 149.078 116.844 148.397 117.752C147.716 118.66 146.921 119.74 146.013 120.988C146.807 122.124 147.659 123.372 148.624 124.791C148.936 125.251 149.243 125.705 149.546 126.153L149.546 126.154C150.177 127.088 150.791 127.996 151.405 128.878C151.689 129.332 152.029 129.729 152.426 130.127C152.824 130.524 153.108 130.808 153.391 130.921C153.618 131.035 153.959 131.148 154.356 131.205C154.754 131.262 155.094 131.262 155.378 131.262V132.284Z" fill="#1D1D23"/>
<path d="M164.971 132.737C163.722 132.737 162.53 132.51 161.395 132C160.259 131.489 159.238 130.808 158.386 129.899C157.535 128.991 156.797 127.856 156.286 126.551C155.775 125.245 155.492 123.713 155.492 122.067C155.492 120.421 155.719 118.888 156.229 117.526C156.74 116.164 157.421 115.028 158.33 114.007C159.238 113.042 160.259 112.304 161.508 111.736C162.7 111.225 164.006 110.942 165.368 110.942C166.39 110.942 167.298 111.055 168.149 111.339C169 111.566 169.795 111.963 170.533 112.417L171.157 111.396H172.349L172.463 118.831H171.271C171.101 118.093 170.874 117.299 170.59 116.504C170.249 115.653 169.909 114.915 169.511 114.347C169.057 113.666 168.49 113.155 167.865 112.758C167.241 112.361 166.503 112.19 165.652 112.19C164.687 112.19 163.835 112.417 162.984 112.815C162.189 113.212 161.451 113.836 160.884 114.688C160.316 115.482 159.862 116.504 159.522 117.696C159.181 118.945 159.011 120.307 159.011 121.783C159.011 123.088 159.181 124.337 159.522 125.472C159.862 126.607 160.316 127.572 160.941 128.424C161.565 129.275 162.303 129.899 163.154 130.354C164.006 130.808 164.971 131.035 165.992 131.035C166.787 131.035 167.525 130.921 168.149 130.637C168.83 130.41 169.398 130.07 169.852 129.672C170.363 129.218 170.76 128.764 171.157 128.197C171.555 127.629 171.838 127.061 172.066 126.38L173.144 126.891C172.293 128.935 171.214 130.41 169.795 131.318C168.546 132.34 166.9 132.737 164.971 132.737Z" fill="#1D1D23"/>
<path d="M192.272 126.04L191.818 132.227H175.528V131.205C175.694 131.205 175.921 131.175 176.209 131.136C176.314 131.122 176.428 131.107 176.549 131.092C177.004 131.035 177.287 130.978 177.458 130.921C177.741 130.808 177.969 130.581 178.082 130.354C178.196 130.127 178.252 129.786 178.252 129.389V114.461C178.252 114.12 178.196 113.837 178.082 113.553C177.969 113.326 177.741 113.099 177.401 112.928C177.174 112.815 176.833 112.701 176.436 112.588C176.039 112.474 175.698 112.418 175.414 112.418V111.396H184.212V112.418C183.928 112.418 183.588 112.474 183.134 112.588C182.868 112.654 182.661 112.701 182.489 112.74C182.367 112.768 182.263 112.791 182.169 112.815C181.828 112.928 181.601 113.155 181.488 113.439C181.374 113.723 181.317 114.007 181.317 114.347V128.31C181.317 128.935 181.374 129.446 181.431 129.786C181.488 130.127 181.658 130.411 181.885 130.638C182.112 130.808 182.453 130.921 182.907 130.978C183.361 131.035 183.985 131.035 184.779 131.035C185.12 131.035 185.518 131.035 185.915 130.978C186.268 130.978 186.575 130.933 186.918 130.884L187.05 130.865C187.391 130.808 187.731 130.751 188.015 130.638C188.299 130.524 188.526 130.411 188.639 130.24C189.037 129.786 189.491 129.105 190.058 128.197C190.569 127.289 190.967 126.551 191.194 125.983H192.272V126.04Z" fill="#1D1D23"/>
<path d="M214.635 112.474C214.352 112.474 213.954 112.531 213.443 112.644C212.933 112.758 212.479 112.928 212.138 113.155C211.797 113.382 211.57 113.836 211.457 114.574C211.343 115.255 211.287 116.164 211.287 117.129V126.153C211.287 127.289 211.06 128.31 210.549 129.162C210.095 130.013 209.414 130.694 208.676 131.262C207.881 131.773 207.086 132.17 206.235 132.397C205.384 132.624 204.532 132.737 203.794 132.737C202.546 132.737 201.41 132.567 200.445 132.227C199.481 131.886 198.629 131.432 198.005 130.921C197.324 130.354 196.87 129.729 196.529 128.991C196.188 128.253 196.018 127.516 196.018 126.721V114.404C196.018 114.063 195.961 113.78 195.848 113.553C195.734 113.326 195.507 113.099 195.167 112.928C194.94 112.815 194.599 112.701 194.202 112.588C193.805 112.531 193.521 112.474 193.237 112.417V111.396H201.864V112.417C201.622 112.417 201.338 112.459 201.013 112.506C200.957 112.514 200.901 112.523 200.843 112.531C200.445 112.588 200.105 112.701 199.935 112.758C199.594 112.872 199.367 113.099 199.254 113.326C199.14 113.609 199.083 113.893 199.083 114.234V125.699C199.083 126.267 199.14 126.834 199.254 127.459C199.367 128.083 199.594 128.651 199.991 129.162C200.389 129.672 200.9 130.127 201.524 130.467C202.205 130.808 203.056 130.978 204.248 130.978C205.327 130.978 206.235 130.808 206.973 130.467C207.711 130.127 208.278 129.672 208.676 129.105C209.073 128.594 209.357 128.026 209.527 127.459C209.697 126.891 209.754 126.324 209.754 125.699V117.185C209.754 116.107 209.697 115.199 209.527 114.518C209.357 113.836 209.13 113.382 208.846 113.155C208.505 112.928 208.051 112.701 207.427 112.588C207.309 112.564 207.195 112.54 207.086 112.518C206.675 112.432 206.334 112.361 206.065 112.361V111.339H214.579V112.474H214.635Z" fill="#1D1D23"/>
<path d="M228.939 122.691C229.393 123.202 229.677 123.713 229.904 124.28C230.131 124.848 230.244 125.529 230.244 126.324C230.244 128.14 229.563 129.673 228.201 130.864C226.839 132.056 225.136 132.681 223.149 132.681C222.241 132.681 221.276 132.511 220.368 132.227C219.46 131.943 218.609 131.602 217.984 131.205L217.36 132.283H216.168L215.941 125.132H217.133C217.36 126.04 217.644 126.835 217.984 127.516C218.325 128.197 218.722 128.878 219.29 129.502C219.801 130.07 220.368 130.524 221.049 130.864C221.73 131.205 222.525 131.375 223.433 131.375C224.114 131.375 224.682 131.262 225.193 131.092C225.704 130.921 226.101 130.637 226.442 130.354C226.782 130.013 227.009 129.673 227.123 129.218C227.293 128.764 227.35 128.254 227.35 127.686C227.35 126.835 227.123 126.097 226.669 125.359C226.214 124.621 225.477 124.11 224.568 123.713C223.944 123.486 223.206 123.202 222.355 122.861C221.829 122.673 221.328 122.461 220.884 122.273C220.658 122.177 220.446 122.087 220.255 122.01C219.063 121.499 218.155 120.818 217.53 119.91C216.906 119.058 216.565 117.923 216.565 116.561C216.565 115.766 216.736 115.028 217.076 114.347C217.417 113.666 217.871 113.042 218.438 112.531C219.006 112.02 219.687 111.623 220.425 111.339C221.22 111.055 222.014 110.885 222.866 110.885C223.831 110.885 224.682 111.055 225.42 111.339C226.158 111.623 226.896 111.963 227.52 112.361L228.144 111.339H229.336L229.45 118.264H228.258C228.031 117.469 227.804 116.731 227.52 115.993C227.236 115.255 226.896 114.631 226.498 114.007C226.101 113.439 225.59 112.985 224.966 112.645C224.341 112.304 223.604 112.134 222.752 112.134C221.844 112.134 221.049 112.417 220.368 113.042C219.687 113.666 219.403 114.347 219.403 115.255C219.403 116.164 219.63 116.902 220.028 117.469C220.425 118.037 221.049 118.548 221.844 118.945C222.582 119.285 223.263 119.569 223.944 119.853C224.625 120.08 225.306 120.364 225.931 120.648C226.309 120.799 226.687 121.001 227.066 121.203C227.255 121.303 227.445 121.405 227.633 121.499C228.087 121.896 228.542 122.294 228.939 122.691Z" fill="#1D1D23"/>
<path d="M241.88 132.283H232.401V131.262C232.601 131.262 232.829 131.234 233.124 131.197C233.248 131.182 233.385 131.165 233.536 131.148C234.047 131.091 234.388 131.035 234.615 130.978C234.955 130.864 235.183 130.694 235.296 130.467C235.466 130.24 235.523 129.956 235.523 129.559V114.461C235.523 114.12 235.466 113.836 235.353 113.609C235.239 113.382 235.012 113.212 234.615 113.042C234.331 112.928 233.934 112.815 233.48 112.701C233.026 112.588 232.685 112.531 232.401 112.531V111.509H241.767V112.531C241.483 112.531 241.086 112.588 240.688 112.645C240.428 112.682 240.168 112.743 239.94 112.797C239.819 112.826 239.708 112.852 239.61 112.872C239.212 112.985 238.985 113.155 238.872 113.439C238.758 113.723 238.702 114.007 238.702 114.347V129.389C238.702 129.729 238.758 130.013 238.929 130.24C239.042 130.467 239.326 130.694 239.667 130.808C239.761 130.831 239.874 130.864 240.007 130.903C240.195 130.958 240.422 131.025 240.688 131.091C241.142 131.205 241.54 131.262 241.88 131.262V132.283Z" fill="#1D1D23"/>
<path d="M265.379 112.474C265.152 112.474 264.811 112.531 264.471 112.644C264.13 112.758 263.79 112.872 263.563 113.042C263.222 113.269 262.938 113.496 262.768 113.836C262.541 114.177 262.371 114.518 262.2 114.972C261.545 116.446 260.627 118.762 259.395 121.869L259.249 122.237C259.067 122.696 258.884 123.157 258.7 123.62L258.669 123.697C257.543 126.535 256.381 129.461 255.219 132.51H254.027C253.567 131.278 253.113 130.064 252.665 128.865L252.663 128.858C251.729 126.361 250.822 123.932 249.94 121.556C248.635 118.037 247.727 115.653 247.272 114.461C247.159 114.177 246.989 113.893 246.818 113.666C246.648 113.439 246.364 113.212 246.024 112.985C245.74 112.815 245.456 112.701 245.116 112.588C244.775 112.531 244.491 112.474 244.207 112.417V111.396H252.835V112.417C252.097 112.474 251.473 112.531 250.962 112.644C250.451 112.758 250.224 112.928 250.224 113.212C250.224 113.326 250.224 113.439 250.281 113.609C250.302 113.674 250.316 113.731 250.327 113.78C250.346 113.858 250.359 113.915 250.394 113.95C250.538 114.357 250.732 114.865 250.968 115.482L250.969 115.486L250.971 115.489L250.972 115.492L250.974 115.497L250.975 115.5L250.977 115.504L250.978 115.507C251.3 116.349 251.699 117.393 252.154 118.661C252.539 119.705 253.016 120.976 253.574 122.459L253.579 122.471C254.172 124.049 254.857 125.868 255.616 127.913C256.31 126.205 257.104 124.196 257.999 121.933L258.372 120.989C259.23 118.819 259.837 117.287 260.1 116.391C260.441 115.482 260.611 114.858 260.668 114.518C260.725 114.177 260.725 113.893 260.725 113.666C260.725 113.439 260.611 113.269 260.441 113.099C260.214 112.928 259.987 112.815 259.646 112.701C259.306 112.588 259.022 112.531 258.681 112.474C258.341 112.417 258 112.361 257.66 112.361V111.339H265.379V112.474Z" fill="#1D1D23"/>
<path d="M285.188 126.097L284.791 132.227H267.536V131.205C267.753 131.205 268.037 131.172 268.387 131.131L268.537 131.113C268.599 131.106 268.662 131.099 268.728 131.092C269.239 131.035 269.522 130.978 269.693 130.921C270.033 130.751 270.203 130.581 270.374 130.354C270.487 130.127 270.544 129.843 270.544 129.446V114.461C270.544 114.12 270.487 113.837 270.374 113.609C270.26 113.382 270.033 113.155 269.693 112.985C269.409 112.872 269.068 112.758 268.614 112.645C268.16 112.531 267.82 112.474 267.536 112.474V111.453H283.656V116.447H282.577C282.407 115.71 281.953 114.915 281.328 114.064C280.704 113.212 280.08 112.758 279.455 112.701C279.303 112.671 279.119 112.657 278.919 112.642C278.746 112.628 278.561 112.614 278.377 112.588C278.191 112.588 277.98 112.575 277.755 112.562C277.501 112.547 277.229 112.531 276.958 112.531H273.666V120.875H275.993C276.731 120.875 277.298 120.818 277.639 120.648C277.98 120.534 278.32 120.25 278.547 119.91C278.774 119.626 278.944 119.229 279.115 118.775C279.285 118.321 279.342 117.866 279.399 117.412H280.477V125.586H279.399C279.342 125.132 279.228 124.621 279.058 124.11C278.888 123.599 278.717 123.202 278.547 122.975C278.263 122.578 277.923 122.351 277.525 122.237C277.128 122.123 276.617 122.067 275.993 122.067H273.666V128.31C273.666 128.935 273.723 129.446 273.779 129.786C273.893 130.127 274.063 130.41 274.29 130.581C274.517 130.751 274.915 130.865 275.312 130.921C275.766 130.978 276.39 130.978 277.185 130.978H278.434C278.944 130.978 279.399 130.978 279.796 130.921C280.193 130.865 280.534 130.808 280.931 130.694C281.328 130.581 281.612 130.467 281.782 130.297C282.237 129.843 282.691 129.105 283.201 128.14C283.712 127.175 283.996 126.494 284.166 126.04H285.188V126.097Z" fill="#1D1D23"/>
<path fill-rule="evenodd" clip-rule="evenodd" d="M228.996 164.296C229.166 165.034 229.223 165.715 229.166 166.396C229.279 168.439 228.712 170.937 227.293 172.81C225.647 175.194 223.49 176.897 220.992 177.748C220.311 177.975 219.573 178.145 218.892 178.259C218.722 178.94 218.438 179.621 218.041 180.189C216.963 181.778 215.544 182.913 213.841 183.481C209.924 184.73 206.235 183.367 203.17 181.892C201.864 181.21 200.616 180.529 199.424 179.791C198.896 180.079 198.378 180.377 197.857 180.677C197.147 181.086 196.431 181.498 195.678 181.892C192.612 183.424 188.923 184.73 185.007 183.481C183.304 182.913 181.885 181.778 180.806 180.189C180.409 179.621 180.125 178.94 179.955 178.259C179.274 178.145 178.593 177.975 177.855 177.748C175.301 176.897 173.201 175.194 171.555 172.81C170.306 170.994 169.738 168.496 169.852 166.396C169.795 165.715 169.795 165.034 169.965 164.296C170.613 161.855 171.567 161.075 172.366 160.422C172.477 160.331 172.586 160.243 172.69 160.152C176.646 157.635 179.905 158.885 182.887 160.028C183.199 160.148 183.508 160.267 183.815 160.38C187.107 161.855 190.229 163.445 193.237 165.261C194.146 165.817 195.056 166.384 195.975 166.957C197.121 167.672 198.283 168.396 199.48 169.121C201.637 167.815 203.737 166.51 205.724 165.261C208.789 163.388 211.854 161.799 215.146 160.38C215.481 160.258 215.818 160.131 216.157 160.002C219.152 158.866 222.345 157.654 226.271 160.152C226.375 160.243 226.483 160.331 226.595 160.422C227.394 161.075 228.348 161.855 228.996 164.296ZM173.711 170.483C174.676 171.504 175.698 172.299 176.72 172.98C177.741 173.661 178.82 174.286 179.898 174.683C179.955 174.626 179.955 174.569 179.955 174.456C180.425 172.784 181.088 172.266 181.633 171.841C181.68 171.804 181.726 171.768 181.771 171.732C184.449 170.084 186.613 170.912 188.602 171.673C188.805 171.751 189.007 171.828 189.207 171.902C190.285 172.356 191.307 172.867 192.328 173.377C193.18 172.923 194.031 172.469 194.883 171.959C195.252 171.732 195.606 171.519 195.961 171.306C196.316 171.093 196.671 170.88 197.04 170.653L196.832 170.525C192.477 167.845 188.223 165.227 183.474 163.104C183.249 163.007 183.02 162.906 182.786 162.804C180.019 161.587 176.717 160.137 173.995 161.969C173.144 162.536 172.122 163.558 171.838 164.864C171.296 167.574 172.773 169.352 173.599 170.347C173.638 170.394 173.676 170.439 173.711 170.483ZM184.269 176.159C186.312 175.875 188.299 175.194 190.229 174.399L188.866 173.718C188.79 173.682 188.712 173.645 188.634 173.608C186.743 172.715 184.417 171.615 182.509 172.923C181.942 173.321 181.26 173.945 181.09 174.853C181.033 174.967 181.033 175.08 181.033 175.194C181.658 175.478 182.339 175.705 182.963 175.875C183.361 175.989 183.815 176.102 184.269 176.159ZM189.377 182.402C191.931 182.062 194.315 180.87 196.472 179.621C196.642 179.515 196.82 179.409 197.002 179.3C197.308 179.117 197.628 178.926 197.948 178.713C197.32 178.345 196.701 177.969 196.083 177.594C195.081 176.985 194.085 176.38 193.067 175.818C189.831 177.294 186.142 178.599 182.225 178.429C182.225 178.486 182.282 178.543 182.339 178.599C182.963 179.337 183.644 179.848 184.326 180.302C185.688 181.21 187.107 181.835 188.526 182.232L189.377 182.402ZM195.195 174.995C195.28 175.038 195.365 175.08 195.45 175.137C196.756 175.988 198.174 176.84 199.593 177.691C201.012 176.839 202.375 175.989 203.737 175.137C203.823 175.08 203.908 175.038 203.993 174.995C204.078 174.953 204.163 174.91 204.248 174.853C203.739 174.562 203.229 174.277 202.724 173.994C201.652 173.394 200.597 172.803 199.594 172.186C198.118 173.094 196.529 174.002 194.94 174.853C195.025 174.91 195.11 174.953 195.195 174.995ZM214.919 180.302C215.6 179.848 216.225 179.337 216.906 178.599L217.076 178.429C213.16 178.599 209.47 177.351 206.235 175.818C204.589 176.726 203 177.691 201.354 178.713C201.864 179.054 202.318 179.337 202.829 179.621C204.986 180.87 207.37 182.062 209.924 182.402L210.776 182.232C212.195 181.778 213.557 181.21 214.919 180.302ZM210.322 173.718L208.959 174.399C210.889 175.194 212.876 175.875 214.919 176.216C215.146 176.159 215.359 176.116 215.572 176.074C215.785 176.031 215.998 175.988 216.225 175.932C216.905 175.705 217.529 175.478 218.154 175.251C218.097 175.137 218.098 175.024 218.098 174.91C217.871 173.718 216.735 172.98 215.941 172.696C214.862 172.299 213.727 172.526 212.706 172.81C211.911 173.037 211.116 173.378 210.322 173.718ZM222.468 172.98C223.49 172.299 224.512 171.561 225.477 170.483C226.328 169.518 227.917 167.645 227.35 164.864C227.009 163.104 225.306 162.026 224.114 161.571C222.525 161.004 220.822 161.288 219.29 161.742C218.041 162.139 216.849 162.65 215.657 163.161C211.252 165.13 207.32 167.525 203.256 170.001C202.869 170.237 202.481 170.473 202.091 170.71C202.772 171.107 203.51 171.561 204.248 172.015C205.043 172.526 205.894 172.98 206.802 173.434C207.824 172.923 208.846 172.413 209.924 171.959C210.167 171.871 210.411 171.779 210.657 171.685C212.655 170.928 214.783 170.121 217.36 171.788C217.405 171.824 217.451 171.861 217.498 171.897C218.043 172.323 218.706 172.841 219.176 174.513C219.233 174.57 219.233 174.626 219.233 174.74C220.311 174.229 221.39 173.661 222.468 172.98Z" fill="#1D1D23"/>
</svg>
