<svg width="400" height="220" viewBox="0 0 400 220" fill="none" xmlns="http://www.w3.org/2000/svg">
<path d="M134.256 86.5419C134.431 89.7443 134.723 93.3206 135.202 96.9905C136.57 107.474 139.468 118.788 145.639 124.865C142.682 118.636 140.73 111.974 139.877 105.137C139.515 102.6 139.234 99.889 139.012 96.9905C138.767 93.7531 138.592 90.2702 138.475 86.5419C138.323 81.7851 138.276 76.6309 138.276 71.0093H133.344L123.795 98.3112L115.03 71.0093H109.35V105.125H112.681V76.853L122.218 105.125H124.181L133.987 77.1101C133.998 79.471 134.045 82.7552 134.256 86.5419Z" fill="#1D1D23"/>
<path d="M150.122 89.8869L151.209 86.5443L153.979 78.0592L156.878 86.5443L158.023 89.8869H150.122ZM156.141 71H153.138L142.023 105.127H145.155L149.304 92.3997H159.005L163.341 105.127H167.782L156.141 71Z" fill="#1D1D23"/>
<path d="M163.112 71.0034V73.5279H172.707V105.131H176.821V73.5279H194.808V105.131H198.934V73.5279H208.518V71.0034H163.112Z" fill="#1D1D23"/>
<path d="M229.798 71.0034V86.2789H216.58V71.0034H212.466V105.131H216.58V88.8034H229.798V105.131H233.912V71.0034H229.798Z" fill="#1D1D23"/>
<path d="M239.319 71.0034V105.131H256.301V102.606H243.433V88.8151H255.109V86.2906H243.433V73.5279H256.301V71.0034H239.319Z" fill="#1D1D23"/>
<path d="M276.558 71.0034H279.504L285.78 97.2534L292.056 71.0034H295.036L286.879 105.131H283.723L277.365 78.5652L271.019 105.131H267.863L259.705 71.0034H263.994L270.271 97.2534L270.329 96.9963L276.558 71.0034Z" fill="#1D1D23"/>
<path d="M155.729 114.062H151.615V148.19H168.585V145.654H155.729V114.062Z" fill="#1D1D23"/>
<path d="M134.933 114.062H130.819V148.19H147.801V145.654H134.945V114.062H134.933Z" fill="#1D1D23"/>
<path d="M287.359 132.129C287.359 132.129 287.265 134.244 287.148 135.542C287.032 137.073 286.763 138.58 286.33 140.041C285.407 143.115 283.432 146.586 279.213 146.586H278.079C273.86 146.586 271.885 143.115 270.961 140.041C270.529 138.569 270.26 137.061 270.143 135.542C270.026 134.244 269.933 132.129 269.933 132.129V131.229C269.933 131.229 269.968 130.481 270.015 129.593C270.05 128.997 270.096 128.33 270.132 127.816C270.237 126.554 270.973 116.772 278.056 116.772H279.189C286.272 116.772 287.02 126.554 287.125 127.816C287.172 128.342 287.207 128.997 287.242 129.593C287.3 130.481 287.335 131.229 287.335 131.229V132.129H287.359ZM291.964 129.593C291.309 117.368 283.245 114.06 279.727 114.06H277.95C274.433 114.06 266.368 117.368 265.714 129.593C265.69 130.107 265.679 130.645 265.667 131.194V131.895C265.62 134.665 266.064 137.423 266.976 140.041C269.524 146.96 275.157 149.029 277.939 149.029H279.715C282.497 149.029 288.13 146.96 290.69 140.041C291.601 137.423 292.046 134.677 291.999 131.907V131.194C292.01 130.645 291.999 130.107 291.964 129.593Z" fill="#1D1D23"/>
<path d="M235.346 148.185H239.881L239.799 114.058H234.867L225.319 141.36L216.553 114.058H210.873V148.185H214.286L214.204 119.913L223.741 148.185H225.704L235.335 120.685V148.185H235.346Z" fill="#1D1D23"/>
<path d="M119.832 148.185H123.946V114.058H119.832V148.185Z" fill="#1D1D23"/>
<path d="M172.671 148.185H176.785V114.058H172.671V148.185Z" fill="#1D1D23"/>
<path d="M248.27 129.599C249.287 130.616 250.397 131.539 251.578 132.357C256.276 135.594 258.345 137.897 258.929 140.047C259.093 140.643 259.151 141.275 259.093 141.894C258.742 145.879 255.271 146.242 253.191 146.429C250.923 146.639 246.155 144.512 246.155 144.512L244.834 146.663C246.938 148.03 249.322 148.883 251.811 149.164C255.668 149.491 259.619 148.03 261.115 145.821C262.354 144.15 263.031 142.116 263.043 140.036C262.926 135.524 258.917 132.077 255.458 129.587C253.868 128.559 252.361 127.425 250.923 126.198C247.826 122.867 247.569 116.439 255.283 116.661C256.989 116.859 258.672 117.245 260.297 117.794L261.138 115.106C261.138 115.106 252.139 111.472 247.125 116.602C242.73 121.09 244.659 125.929 248.27 129.599Z" fill="#1D1D23"/>
<path d="M189.049 132.945L190.136 129.602L192.906 121.117L195.804 129.602L196.949 132.945H189.049ZM195.068 114.058H192.052L180.938 148.185H184.07L188.219 135.469H197.919L202.256 148.197H206.697L195.068 114.058Z" fill="#1D1D23"/>
<path d="M319.984 116.383C320.019 114.232 319.984 109.323 319.984 109.055C319.984 108.938 319.996 108.832 319.926 108.891C319.575 109.183 319.295 109.534 319.096 109.943C317.308 112.982 316.934 118.954 316.934 120.555V142.34L299.636 114.045H296.563V148.161H299.975L299.858 121.502L316.338 148.161H319.996C319.996 148.161 319.973 121.969 319.996 118.299C319.996 116.231 319.984 116.383 319.984 116.383Z" fill="#1D1D23"/>
<path d="M96.8533 114.062H99.7985L106.075 140.313L112.351 114.062H115.331L107.173 148.19H104.018L97.6597 121.624L91.3135 148.19H88.1578L80 114.062H84.2893L90.5654 140.313L90.6239 140.055L96.8533 114.062Z" fill="#1D1D23"/>
</svg>
