<svg width="400" height="220" viewBox="0 0 400 220" fill="none" xmlns="http://www.w3.org/2000/svg">
<path d="M242.466 91.1764C243.35 91.2649 244.273 91.392 245.168 91.5917L245.549 91.6819C245.692 91.7138 245.84 91.7545 245.99 91.7997L246.295 91.8947L246.606 91.9938C247.234 92.1908 247.892 92.3655 248.531 92.2379C248.827 92.1839 248.951 92.0869 249.072 91.9621L249.214 91.8107C249.285 91.7389 249.37 91.6616 249.491 91.5808L251.463 91.6313C252.221 94.0069 253.181 96.2814 253.939 98.657C253.804 98.7132 253.662 98.7643 253.516 98.8133L252.849 99.0279C252.553 99.125 252.266 99.2298 252.019 99.3646L251.094 98.2175L250.778 97.8334L250.563 97.5789L250.345 97.3263L250.123 97.0762C250.085 97.0348 250.048 96.9935 250.01 96.9524L249.781 96.7075C248.119 94.9666 246.046 93.552 242.718 93.552C238.675 93.552 234.833 96.6858 236.249 100.78C236.718 102.063 237.943 102.958 239.311 103.682L239.629 103.846L239.951 104.005L240.274 104.159L240.598 104.308L241.706 104.805C241.758 104.828 241.809 104.851 241.859 104.874C242.438 105.136 243.028 105.39 243.621 105.641L245.394 106.388C246.373 106.802 247.332 107.217 248.228 107.654L248.677 107.886L248.975 108.044L249.273 108.204L249.717 108.45L250.011 108.617L250.302 108.789C250.35 108.817 250.399 108.846 250.447 108.876L250.734 109.053L251.018 109.234C251.065 109.264 251.112 109.295 251.159 109.326L251.437 109.514C251.483 109.546 251.529 109.578 251.575 109.61L251.847 109.806C254.276 111.592 256.129 114.04 256.163 118.117C256.163 127.215 248.784 132.067 239.18 130.298L239.042 130.269L238.76 130.205L238.328 130.1L237.888 129.99L237.593 129.92C236.507 129.669 235.406 129.523 234.53 130.096C234.48 130.136 234.431 130.181 234.383 130.226L234.241 130.364C234.099 130.5 233.954 130.621 233.772 130.652C233.54 130.715 233.326 130.708 233.108 130.685L232.705 130.64C232.52 130.624 232.323 130.618 232.104 130.652C231.7 127.518 231.396 124.283 231.043 121.149C231.7 120.846 232.357 120.593 233.014 120.341L233.259 120.834C234.206 122.709 235.274 124.396 236.855 125.698L237.123 125.919C238.72 127.206 240.903 128.422 243.628 128.327C247.668 128.227 250.871 124.978 251.004 120.959L251.008 120.795C251.058 118.925 250.249 117.106 248.834 115.842C247.671 114.845 246.099 114.031 244.424 113.265L243.863 113.011L243.012 112.635L242.388 112.362C241.661 112.044 240.937 111.724 240.242 111.394L239.795 111.19L238.895 110.782L238.289 110.505L237.827 110.289L237.52 110.142L237.064 109.918L236.762 109.765L236.463 109.609C236.414 109.582 236.364 109.556 236.315 109.529L236.02 109.367C235.972 109.34 235.923 109.313 235.874 109.285L235.586 109.117C235.49 109.06 235.395 109.002 235.301 108.944L235.021 108.766C232.617 107.204 230.78 105.045 230.689 101.285C230.689 99.4657 231.144 97.6967 232.003 96.1298C233.822 93.1477 237.26 90.8732 242.466 91.1764ZM317.069 91.0248C317.827 91.0753 318.586 91.227 319.344 91.4291C319.431 91.4494 319.521 91.4732 319.612 91.499L320.174 91.6661C320.607 91.791 321.062 91.8942 321.517 91.8335C321.753 91.8099 321.901 91.6873 322.048 91.5477L322.176 91.4259C322.308 91.3038 322.457 91.1865 322.68 91.1259C322.923 91.0595 323.166 91.0803 323.439 91.1161L323.681 91.1489C323.973 91.1875 324.303 91.2206 324.701 91.1764C325.182 92.44 325.637 93.7036 326.085 94.9673L326.98 97.4945C327.129 97.9157 327.279 98.3369 327.431 98.7581C327.26 99.0708 326.914 99.3836 326.535 99.6873L326.28 99.8884L325.9 100.184C325.817 100.248 325.738 100.312 325.662 100.376L325.3 99.7707L325.115 99.4694L324.926 99.1683L324.636 98.718L324.437 98.4199C324.369 98.3209 324.301 98.2223 324.232 98.1241L324.023 97.8314L323.809 97.5423C322.072 95.2459 319.8 93.3642 316.362 93.4004C313.203 93.4367 311.087 95.768 309.697 98.446L309.536 98.7626C309.51 98.8155 309.484 98.8686 309.459 98.9218L309.308 99.2418C309.284 99.2953 309.259 99.3489 309.235 99.4024L309.094 99.7243L308.96 100.047L308.831 100.369L308.709 100.69L308.592 101.009L308.481 101.326C308.463 101.378 308.445 101.43 308.428 101.483L308.376 101.639C305.976 108.988 306.543 119.651 310.665 124.578L310.802 124.738C312.874 127.164 317.726 129.186 321.315 126.659C323.691 124.991 325.207 120.593 323.539 116.752C323.413 116.449 323.236 116.158 323.059 115.88L322.8 115.473C322.718 115.34 322.642 115.21 322.579 115.084C327.734 114.477 329.301 120.745 327.38 124.839C325.156 129.59 318.889 131.764 312.116 130.045C304.01 127.994 299.866 120.195 300.618 109.544L300.642 109.221C301.09 103.056 303.591 97.7715 307.232 94.5696L307.54 94.3048L307.792 94.0933C307.835 94.0583 307.878 94.0233 307.921 93.9885L308.182 93.781L308.45 93.5767C308.676 93.408 308.909 93.2433 309.15 93.0839L309.442 92.8954C311.369 91.688 313.784 90.8423 317.069 91.0248ZM134.957 95.8771C138.395 98.7581 141.124 103.358 141.427 109.322C141.781 115.943 139.759 120.745 136.524 124.182C133.29 127.619 128.993 129.944 122.877 130.449C116.458 130.955 111.353 128.984 107.765 125.9C104.176 122.817 101.699 118.572 101.194 112.557C100.638 105.935 103.064 100.932 106.046 97.6461C109.129 94.108 113.375 91.7324 119.592 91.3281C126.213 90.8732 131.419 92.8949 134.957 95.8771ZM206.528 96.1803C207.539 98.2021 207.691 101.791 206.579 104.065C205.315 106.744 202.788 108.21 199.553 109.12C202.068 110.7 203.555 113.246 204.722 116.196L204.908 116.677L205.09 117.166L205.267 117.66L205.441 118.159L205.611 118.664L205.78 119.173L206.362 120.981L206.528 121.503L206.835 122.486L206.969 122.903L207.107 123.315L207.202 123.586C207.218 123.631 207.234 123.675 207.25 123.72L207.35 123.986C207.367 124.03 207.384 124.074 207.401 124.117L207.506 124.377C207.542 124.462 207.579 124.547 207.616 124.631L207.731 124.88C208.593 126.687 209.9 128.023 212.543 128.023C212.467 128.402 212.354 128.744 212.234 129.085L212.053 129.601C211.994 129.777 211.937 129.957 211.886 130.146C209.056 130.601 206.377 130.601 204.759 129.742C203.142 128.883 202.131 127.063 201.322 125.092C200.564 123.121 199.857 121.099 199.301 119.026L199.192 118.637L198.816 117.257L198.652 116.666L198.538 116.274L198.422 115.886L198.3 115.503C197.701 113.665 196.913 112.034 195.51 111.192C194.415 110.529 193.059 110.388 191.499 110.369L191.048 110.367L190.586 110.369L189.386 110.381L188.888 110.383L188.88 110.696L188.858 111.681L188.843 112.729L188.836 113.458L188.827 114.97L188.826 115.748L188.826 117.576L188.837 121.89L188.839 123.283L188.845 123.738L188.852 124.03L188.864 124.314L188.879 124.588C188.882 124.633 188.885 124.677 188.889 124.721L188.912 124.982C188.916 125.024 188.92 125.066 188.925 125.108L188.956 125.355C189.198 127.046 189.906 128.046 191.921 128.226L191.815 128.51L191.612 129.086C191.477 129.471 191.336 129.85 191.163 130.197H180.397C180.33 129.961 180.251 129.736 180.169 129.515L179.918 128.856C179.835 128.636 179.757 128.411 179.689 128.175L179.783 128.151L180.312 128.02L180.542 127.959C181.201 127.776 181.907 127.496 182.217 126.911C182.676 126.154 182.774 124.718 182.766 123.151L182.762 122.739L182.753 122.324L182.73 121.491L182.691 120.268L182.677 119.684C182.676 119.62 182.675 119.557 182.674 119.495L182.671 119.128V102.65C182.671 102.359 182.678 102.053 182.687 101.736L182.709 101.09L182.749 100.088C182.753 99.9758 182.757 99.8629 182.761 99.7499L182.773 99.3688L182.782 98.9887L182.787 98.6113L182.788 98.2382C182.781 96.5709 182.609 95.0802 181.913 94.4113C181.496 94.0322 180.88 93.8521 180.279 93.7218L179.98 93.6601L179.689 93.6026C179.79 92.8949 179.993 92.2379 180.346 91.6313C182.196 91.7494 184.187 91.7372 186.219 91.691L187.332 91.663L190.258 91.583L191.205 91.5625L192.146 91.5484L192.847 91.5432L193.542 91.5437L194.231 91.5508L194.913 91.5653L195.363 91.5795L195.809 91.5978C195.883 91.6012 195.957 91.6047 196.031 91.6085L196.471 91.6332L196.906 91.6626L197.336 91.6968L197.761 91.7363C197.902 91.7504 198.042 91.7653 198.181 91.7812L198.595 91.8319L199.003 91.8885C202.446 92.3959 205.209 93.5808 206.528 96.1803ZM172.613 99.3646C172.909 103.66 171.036 106.246 168.224 107.799L167.953 107.944C167.862 107.991 167.77 108.037 167.677 108.083L167.396 108.215C167.302 108.258 167.206 108.301 167.11 108.342L166.819 108.463L166.524 108.579L166.224 108.689C166.174 108.707 166.123 108.724 166.073 108.742L165.767 108.844C165.716 108.86 165.664 108.877 165.613 108.893L165.302 108.987L164.988 109.077C164.935 109.091 164.882 109.106 164.829 109.12C167.458 110.99 169.126 113.517 170.389 117.106C170.642 117.818 170.884 118.593 171.125 119.388L171.561 120.831C171.658 121.152 171.757 121.472 171.856 121.789L172.139 122.679L172.275 123.092L172.37 123.365L172.468 123.635L172.57 123.902L172.676 124.164C172.694 124.208 172.712 124.251 172.731 124.294L172.844 124.55C173.731 126.491 175.088 127.973 177.819 127.973C177.743 128.352 177.63 128.706 177.51 129.053L177.329 129.572C177.27 129.745 177.213 129.919 177.162 130.096C174.332 130.551 171.703 130.551 170.035 129.691C168.475 128.888 167.445 127.199 166.698 125.412L166.548 125.041C165.79 123.019 165.133 120.947 164.577 118.875L164.465 118.484L164.027 116.898L163.911 116.49L163.792 116.086L163.668 115.685L163.54 115.29C162.95 113.526 162.179 111.965 160.836 111.141C159.742 110.478 158.364 110.337 156.775 110.319L156.315 110.316L155.844 110.319L154.621 110.331L154.114 110.333L154.112 123.811L154.115 124.178C154.13 125.144 154.202 126.01 154.518 126.608C154.882 127.296 155.731 127.659 156.574 127.907L156.826 127.978L157.075 128.043C157.116 128.054 157.157 128.064 157.197 128.074L157.091 128.358L156.888 128.935C156.752 129.319 156.612 129.699 156.439 130.045H145.723C145.656 129.809 145.577 129.585 145.495 129.364L145.244 128.705C145.162 128.484 145.083 128.259 145.016 128.023L145.466 127.919L145.702 127.861C146.415 127.679 147.164 127.404 147.543 126.76C147.892 126.192 148.025 125.144 148.062 123.929L148.071 123.54L148.075 123.142L148.074 122.737L148.065 122.122L148.009 119.9L148.002 119.52L147.998 119.154L147.998 102.498C147.998 102.131 148.008 101.737 148.022 101.327L148.071 100.061L148.095 99.3195L148.104 98.9488L148.109 98.58L148.11 98.2148C148.102 96.521 147.924 94.9906 147.189 94.3102C146.633 93.8553 145.673 93.6531 145.016 93.552C145.066 92.8949 145.319 92.2379 145.622 91.6313C147.624 91.7611 149.775 91.7396 151.958 91.6847L153.55 91.6405L155.227 91.5922L156.062 91.5711L156.893 91.5539L157.444 91.5453L157.992 91.5396L158.537 91.537C158.628 91.537 158.718 91.537 158.808 91.537L159.347 91.5405C159.437 91.5413 159.526 91.5424 159.615 91.5437L160.147 91.5536C160.412 91.5598 160.675 91.5679 160.936 91.5781L161.455 91.6013L161.967 91.6307C167.739 91.9999 172.238 93.6275 172.613 99.3646ZM90.0234 91.5302H96.5437C96.602 91.8024 96.7052 92.0746 96.813 92.3381L97.0032 92.8013C97.102 93.0514 97.1813 93.2876 97.2007 93.5015C96.5437 93.6026 95.8866 93.8553 95.3306 94.2091C94.4073 94.9086 94.2119 96.5374 94.2558 98.3496L94.2671 98.7025L94.2837 99.0587L94.3165 99.5967L94.3565 100.136L94.5224 102.053L94.5724 102.701L94.6624 104.133L95.2878 113.964L95.4829 117.092L95.6687 120.16C95.7087 120.834 95.7477 121.501 95.7855 122.16C95.7855 123.424 95.9371 124.637 96.2404 125.85C96.6219 127.079 97.4301 127.562 98.4562 127.895L98.6968 127.969L99.0709 128.074C98.7676 128.68 98.616 129.388 98.3127 129.995H87.4962C87.4288 129.759 87.3502 129.534 87.2678 129.313L87.017 128.654C86.9346 128.433 86.856 128.209 86.7886 127.973L87.2508 127.857C87.9242 127.684 88.6019 127.474 89.0125 127.063C89.6339 126.442 89.7474 125.312 89.7091 124.1L89.6951 123.767C89.6923 123.711 89.6891 123.656 89.6858 123.6L89.6636 123.265L89.6378 122.93L89.5685 122.11L89.173 116.161L87.9006 96.5341C86.546 98.7177 85.1914 100.99 83.8335 103.293L82.4745 105.605L81.1126 107.923C79.9763 109.855 78.8362 111.782 77.6906 113.669C76.767 112.139 75.8509 110.593 74.9352 109.041L73.1021 105.931C71.2652 102.816 69.4105 99.6955 67.4806 96.6352L67.2214 101.549L66.9355 106.774L66.7856 109.448L66.4779 114.811L66.2192 119.191L66.0655 121.735C66.0485 122.014 66.0316 122.29 66.0148 122.565L65.9962 122.969L65.9649 123.591C65.9194 124.565 65.9057 125.547 66.1664 126.254C66.529 127.297 67.4196 127.729 68.5107 128.026L68.7659 128.093C68.8089 128.103 68.8523 128.114 68.8958 128.124C68.7747 128.28 68.695 128.537 68.6203 128.815L68.5314 129.151L68.4797 129.334C68.3721 129.692 68.2347 130.005 67.986 130.096C67.8091 130.171 67.5059 130.171 67.1773 130.153L66.9278 130.136L66.5564 130.109C66.4361 130.101 66.3212 130.096 66.217 130.096H60.7582C60.695 129.944 60.635 129.783 60.5757 129.618L60.398 129.116C60.278 128.782 60.1516 128.453 60 128.175V128.124L60.3969 128.032C61.003 127.885 61.7217 127.666 62.1734 127.215C62.7664 126.644 63.0444 125.529 63.1859 124.227L63.2212 123.867L63.2506 123.5C63.255 123.438 63.2592 123.376 63.2633 123.314L63.2852 122.938L63.3031 122.559L63.325 121.967L63.3682 120.435C63.3807 120.024 63.3958 119.626 63.4185 119.252L63.437 118.976C63.6139 116.373 63.7782 113.707 63.9362 111.04L64.1691 107.049L64.3974 103.105C64.4056 102.974 64.4152 102.839 64.4261 102.701L64.462 102.278L64.5482 101.387L64.6655 100.222L64.7098 99.7501C64.7169 99.6714 64.7238 99.5928 64.7305 99.5143L64.768 99.0452L64.7989 98.5819C64.8754 97.2806 64.8509 96.0874 64.549 95.3211C64.0941 94.2596 62.7799 93.7542 61.7185 93.5015C61.9207 92.8444 62.1734 92.1873 62.4767 91.5808H72.0296C74.7084 95.9276 77.2357 100.426 79.9651 104.773L81.1925 102.674L82.0404 101.228L86.7886 93.1477L87.0549 92.6555L87.1729 92.4447C87.4133 92.0242 87.6771 91.626 87.9006 91.5302C88.128 91.4544 88.5071 91.4544 88.9051 91.4734L89.2051 91.4903L89.6413 91.5172C89.78 91.5249 89.9097 91.5302 90.0234 91.5302ZM225.887 91.6313C226.136 91.9424 226.289 92.3683 226.429 92.803L226.585 93.2902C226.62 93.3968 226.657 93.5015 226.696 93.6026C224.927 93.7036 223.764 94.7145 223.613 96.7363C223.491 98.2223 223.515 99.7811 223.554 101.369L223.581 102.431C223.598 103.142 223.613 103.856 223.613 104.571V120.189C223.613 120.391 223.611 120.599 223.608 120.81L223.579 122.34L223.573 122.909L223.574 123.472C223.575 123.534 223.576 123.596 223.577 123.657L223.586 124.023L223.601 124.382C223.665 125.62 223.86 126.68 224.371 127.215C224.763 127.607 225.332 127.773 225.899 127.89L226.182 127.945L226.459 127.997C226.505 128.006 226.55 128.014 226.595 128.023C226.443 128.731 226.19 129.388 225.887 130.045H215.172C215.104 129.809 215.026 129.585 214.943 129.364L214.692 128.705C214.61 128.484 214.531 128.259 214.464 128.023C216.031 127.821 217.294 127.012 217.446 125.193C217.554 124.007 217.547 122.749 217.517 121.45L217.478 119.972C217.46 119.309 217.446 118.639 217.446 117.965V103.661C217.446 103.187 217.453 102.717 217.463 102.251L217.487 101.326L217.511 100.415C217.546 99.0592 217.56 97.7567 217.446 96.5341C217.294 94.664 216.182 93.8047 214.464 93.6531C214.666 92.9455 214.919 92.2884 215.273 91.6313H225.887ZM120.148 93.6531C116.276 93.802 112.696 95.9012 110.606 99.2323L110.494 99.4152C108.523 102.549 107.562 107.148 107.916 112.203C108.27 116.954 109.584 120.795 111.859 123.626C114.391 126.854 118.387 128.569 122.409 128.197L122.625 128.175C126.444 127.828 129.924 125.679 131.963 122.445L132.076 122.261C134.098 119.077 135.16 114.68 134.957 109.676C134.604 100.325 130.105 92.8444 120.148 93.6531ZM278.655 91.9851C281.536 91.9851 284.215 93.2993 284.569 95.8265C284.872 98.101 283.356 100.679 280.829 99.6679C279.801 99.2272 279.247 98.1224 279.535 97.0429L279.565 96.9385C279.628 96.6679 279.793 96.4402 279.966 96.2236L280.114 96.0399C280.307 95.7966 280.475 95.556 280.475 95.2705C280.475 94.1364 278.647 93.8681 277.619 94.2782L277.543 94.3102C274.511 95.5738 274.208 101.74 276.836 103.661C277.604 104.267 278.469 104.55 279.535 104.821L280.374 105.026L279.601 105.316L279.15 105.489L278.855 105.605L278.421 105.781L278.139 105.9L277.861 106.021L277.589 106.144L277.322 106.27L277.062 106.399L276.807 106.532C276.765 106.554 276.723 106.577 276.682 106.599L276.436 106.738C276.395 106.761 276.355 106.784 276.315 106.808L276.079 106.953C275.963 107.027 275.849 107.103 275.738 107.18L275.519 107.338C273.83 108.601 272.792 110.413 272.792 113.618C272.792 116.802 273.904 119.38 275.522 120.998C276.836 122.362 278.605 123.121 280.526 123.121C284.064 123.121 285.883 120.492 285.883 116.853C285.883 114.629 285.277 112.456 283.508 111.799C280.677 110.788 279.565 114.073 280.879 115.943C278.201 115.943 277.695 112.607 278.655 110.535C279.231 109.263 280.263 108.345 281.403 107.51L281.748 107.262L282.273 106.896L282.977 106.409L283.326 106.163C284.884 105.049 286.292 103.814 286.692 101.791C287.299 102.195 287.753 102.852 287.956 103.56C288.521 105.896 287.457 107.67 286.23 108.883L286.049 109.056C286.019 109.084 285.988 109.112 285.958 109.14L285.776 109.301C285.746 109.328 285.715 109.353 285.685 109.379L285.503 109.528L285.324 109.67L285.147 109.803L284.974 109.928C285.984 110.282 286.945 110.788 287.753 111.445C290.129 113.467 290.635 117.914 289.017 120.998C287.652 123.626 284.721 125.446 281.031 125.698C273.399 126.204 267.738 121.503 268.344 113.82C268.698 109.221 271.074 106.39 274.713 104.823L274.452 104.708C274.409 104.688 274.366 104.669 274.324 104.649L274.071 104.529C272.07 103.558 270.619 102.258 270.619 99.4657C270.619 94.8156 274.056 92.0357 278.655 91.9851ZM334.507 117.005C335.013 118.521 333.547 120.088 332.03 119.431C330.716 118.875 330.716 116.348 332.283 115.994C333.193 115.792 334.254 116.145 334.507 117.005ZM339.966 105.733C340.219 108.867 339.056 111.596 336.782 112.961C334.507 114.326 330.716 114.528 328.24 112.708C325.965 111.04 324.752 106.542 326.319 103.206C326.976 101.841 328.037 100.78 329.402 100.072C330.211 99.6679 331.121 99.4657 332.03 99.4152C336.63 99.0108 339.612 101.639 339.966 105.733ZM332.182 101.083C328.593 101.589 328.644 108.665 330.565 110.99C331.474 112.051 332.94 112.405 334.204 111.9C336.579 110.788 336.832 105.127 335.417 102.599C334.76 101.437 333.446 100.83 332.182 101.083ZM188.939 94.2091C188.838 94.2596 188.787 94.3102 188.787 94.4113V107.806L189.222 107.839L189.653 107.867L190.079 107.89L190.501 107.906C190.641 107.91 190.78 107.914 190.918 107.916L191.33 107.92C191.398 107.92 191.466 107.92 191.534 107.92L191.938 107.915L192.336 107.903C193.193 107.87 194.01 107.789 194.776 107.655L195.125 107.59C199.047 106.801 201.533 104.512 201.12 99.769C200.861 96.6863 198.959 95.2293 196.221 94.5932L195.929 94.5292C195.831 94.5089 195.732 94.4895 195.632 94.4711L195.329 94.4186C195.278 94.4103 195.227 94.4023 195.175 94.3944L194.864 94.35C194.812 94.3431 194.759 94.3363 194.706 94.3298L194.387 94.293L194.063 94.261L193.734 94.2336C193.679 94.2295 193.624 94.2255 193.568 94.2216L193.233 94.2008C193.177 94.1976 193.12 94.1947 193.064 94.1919L192.722 94.1771L192.376 94.166L191.851 94.1561C191.792 94.1554 191.733 94.1548 191.674 94.1544L191.318 94.1534L190.779 94.1573L190.049 94.1716L189.496 94.1882L188.939 94.2091ZM154.164 94.2596C154.114 94.2596 154.063 94.3607 154.063 94.4113V107.806L155.678 107.829L156.466 107.836L156.982 107.836L157.491 107.83C159.764 107.789 161.794 107.548 163.363 106.592C165.689 105.177 167.255 101.386 165.992 97.9999C165.114 95.6486 162.894 94.6974 160.021 94.3623L159.666 94.3243C159.606 94.3184 159.546 94.3128 159.486 94.3075L159.121 94.2781C159.06 94.2737 158.999 94.2695 158.937 94.2655L158.564 94.244C158.501 94.2408 158.438 94.2379 158.375 94.2351L157.994 94.2209L157.608 94.211L157.217 94.2052L156.623 94.2035L156.222 94.2065L155.613 94.2165L154.789 94.2383L154.164 94.2596Z" fill="#1D1D23"/>
</svg>
