<svg width="400" height="220" viewBox="0 0 400 220" fill="none" xmlns="http://www.w3.org/2000/svg">
<path fill-rule="evenodd" clip-rule="evenodd" d="M344.903 95.3115H345.94L347.26 97.4422H347.913L346.518 95.3115C347.335 95.3115 347.964 94.9533 347.964 94.0545C347.964 93.294 347.555 92.8352 346.33 92.8352H344.312V97.4547H344.878L344.903 95.3115ZM344.903 93.2249H346.223C346.788 93.2249 347.379 93.3129 347.379 94.0357C347.379 94.8874 346.584 94.8761 345.948 94.8671C345.885 94.8662 345.823 94.8653 345.764 94.8653H344.903V93.2249Z" fill="#1D1D23"/>
<path fill-rule="evenodd" clip-rule="evenodd" d="M348.17 98.569C347.492 99.0243 346.694 99.2687 345.877 99.2712C345.332 99.2737 344.791 99.1681 344.287 98.9605C343.782 98.7529 343.324 98.4475 342.938 98.0618C342.553 97.6761 342.247 97.2178 342.039 96.7134C341.832 96.209 341.726 95.6684 341.729 95.123C341.731 94.3061 341.976 93.5083 342.431 92.8301C342.886 92.152 343.532 91.6239 344.288 91.3124C345.043 91.0009 345.873 90.9201 346.674 91.0801C347.475 91.2401 348.211 91.6337 348.789 92.2113C349.366 92.7889 349.76 93.5246 349.92 94.3257C350.08 95.1267 349.999 95.9572 349.688 96.7124C349.376 97.4676 348.848 98.1136 348.17 98.569ZM347.233 91.8154C346.804 91.6353 346.342 91.5439 345.877 91.5468C345.41 91.5414 344.946 91.6309 344.514 91.8097C344.082 91.9886 343.691 92.2532 343.365 92.5874C343.038 92.9217 342.783 93.3188 342.614 93.7546C342.445 94.1904 342.366 94.6559 342.382 95.123C342.382 96.0465 342.749 96.9321 343.402 97.5851C344.055 98.2381 344.941 98.6049 345.864 98.6049C346.788 98.6049 347.674 98.2381 348.327 97.5851C348.98 96.9321 349.346 96.0465 349.346 95.123C349.363 94.6578 349.286 94.194 349.119 93.7595C348.952 93.325 348.699 92.9287 348.375 92.5946C348.051 92.2605 347.662 91.9955 347.233 91.8154Z" fill="#1D1D23"/>
<path d="M222.978 111.621C231.407 112.225 233.525 113.293 233.5 119.823L233.5 120.03C233.502 124.672 233.505 129.169 221.149 129.169C213.896 129.169 209.069 129.018 209.069 119.673H216.354C216.354 122.639 217.416 122.941 221.137 122.941C224.713 122.941 225.888 122.79 225.888 120.32C225.888 117.912 225.494 117.887 222.161 117.678L221.897 117.661L220.225 117.548C220.081 117.538 219.937 117.528 219.795 117.518L219.429 117.493C212.89 117.043 209.095 116.782 209.095 108.925C209.095 100.754 213.695 100.22 221.137 100.22C227.372 100.22 232.689 100.333 232.689 108.202V109.371H225.392C225.392 106.449 224.179 106.449 221.137 106.449C217.039 106.449 216.693 107.285 216.693 108.875C216.693 111.154 217.81 111.237 219.813 111.387L222.978 111.621Z" fill="#1D1D23"/>
<path fill-rule="evenodd" clip-rule="evenodd" d="M143.478 100.428H129.192V128.943H136.734V121.646H143.453C151.397 121.646 153.182 118.912 153.182 110.899C153.207 103.451 150.561 100.428 143.478 100.428ZM141.963 115.015H136.734V107.058H141.938C144.899 107.058 145.357 107.97 145.357 110.899C145.383 114.582 144.961 114.927 141.963 115.04V115.015Z" fill="#1D1D23"/>
<path d="M67.4726 118.346H67.7428L72.9092 100.453H85.2531V128.943H78.3206L78.4149 107.096H78.1509L70.9356 128.943H64.3614L57.0644 107.096H56.8382L56.8947 128.943H50V100.453H62.0422L67.4726 118.346Z" fill="#1D1D23"/>
<path fill-rule="evenodd" clip-rule="evenodd" d="M104.215 100.453C110.783 100.566 114.014 101.968 114.014 109.076C114.014 113.821 114.014 116.599 108.64 117.875V118.177C111.751 118.265 113.768 119.974 113.768 123.205V128.962H106.17V124.971C106.22 122.847 105.309 121.401 103.027 121.401H97.1381V128.943H89.5458V100.453H104.215ZM97.1381 114.77H103.034C106.2 114.77 106.192 113.631 106.172 110.622L106.172 110.619C106.171 110.523 106.17 110.426 106.17 110.327C106.17 107.781 105.541 107.058 103.027 107.058H97.1381V114.77Z" fill="#1D1D23"/>
<path d="M176.267 117.165H164.112V122.715H177.33V128.943H156.513V100.453H177.066V106.681H164.112V111.885H176.267V117.165Z" fill="#1D1D23"/>
<path fill-rule="evenodd" clip-rule="evenodd" d="M205.87 109.076C205.87 101.968 202.64 100.566 196.066 100.453H181.415V128.943H189.014V121.401H194.903C197.178 121.401 198.089 122.847 198.014 124.971V128.962H205.613V123.205C205.613 119.974 203.601 118.265 200.484 118.177V117.875C205.87 116.599 205.87 113.821 205.87 109.076ZM189.001 114.77V107.058H194.89C197.404 107.058 198.033 107.781 198.033 110.327C198.033 110.429 198.034 110.53 198.035 110.628L198.035 110.638C198.056 113.636 198.064 114.77 194.903 114.77H189.001Z" fill="#1D1D23"/>
<path d="M269.739 100.453L265.447 122.407H265.183L260.092 100.453H252.191L246.83 122.407H246.566L242.462 100.453H234.75L240.903 128.943H251.77L255.912 111.087H256.22L260.092 128.943H271.072L277.376 100.453H269.739Z" fill="#1D1D23"/>
<path fill-rule="evenodd" clip-rule="evenodd" d="M275.515 128.918L284.063 100.428H295.615L304.276 128.918H296.526L295.043 124.016H284.824L283.416 128.918H275.515ZM289.915 106.122L286.458 118.472H293.522L289.99 106.122H289.915Z" fill="#1D1D23"/>
<path d="M314.533 100.453H306.935V128.943H326.425V122.331H314.533V100.453Z" fill="#1D1D23"/>
<path d="M329.492 100.453H337.09V122.331H348.982V128.943H329.492V100.453Z" fill="#1D1D23"/>
</svg>
