<svg width="400" height="220" viewBox="0 0 400 220" fill="none" xmlns="http://www.w3.org/2000/svg">
<path d="M46.8076 114.558C46.5235 114.558 46.3814 114.882 46.495 115.473L47.2054 119.28C47.3191 119.812 49.9049 120.903 52.0076 120.903C58.4579 120.903 60.1344 117.184 60.1344 114.705C60.1344 110.243 56.6718 109.2 53.5406 108.256C50.9563 107.478 48.5978 106.767 48.5978 104.259C48.5978 101.543 50.9847 100.421 53.2295 100.421C55.73 100.421 57.8044 101.721 58.6568 104.259C58.7421 104.524 58.941 105.144 59.2536 105.144C59.5377 105.144 59.5945 104.937 59.5661 104.701L59.1399 100.687C59.1115 100.362 58.9699 100.274 58.7989 100.274C58.6531 100.274 58.5671 100.359 58.4834 100.443C58.404 100.522 58.3267 100.599 58.2022 100.599C58.1012 100.599 57.9655 100.53 57.7629 100.428C57.1673 100.128 55.994 99.5361 53.4284 99.5361C50.1606 99.5361 47.1202 101.336 47.1202 105.085C47.1202 109.226 50.455 110.219 53.5388 111.138C56.1907 111.928 58.6568 112.663 58.6568 115.296C58.6568 118.394 56.0142 119.959 53.3147 119.959C49.3934 119.959 47.6885 116.89 47.3475 115.532C47.3254 115.435 47.3067 115.345 47.2894 115.262C47.1958 114.81 47.1435 114.558 46.8076 114.558Z" fill="#1D1D23"/>
<path fill-rule="evenodd" clip-rule="evenodd" d="M27.4285 99.5366C21.6034 99.5366 17.0001 103.993 17.0001 110.131C17.0001 116.359 20.7793 120.903 26.9454 120.903C33.2821 120.903 37.6865 116.624 37.6865 109.984C37.6865 103.875 33.2252 99.5366 27.4285 99.5366ZM28.1389 120.018C22.5126 120.018 19.0744 114.735 19.0744 109.276C19.0744 104.613 21.8023 100.511 26.576 100.511C32.117 100.511 35.6121 105.734 35.6121 111.105C35.6121 116.565 32.2875 120.018 28.1389 120.018Z" fill="#1D1D23"/>
<path fill-rule="evenodd" clip-rule="evenodd" d="M72.0122 102.753C72.0122 101.271 70.9074 100.897 70.1582 100.644C69.774 100.514 69.4833 100.415 69.4833 100.215C69.4833 99.7983 69.8606 99.8003 70.1892 99.802L70.2505 99.8022C70.4859 99.8022 70.7213 99.8224 70.9971 99.8462C71.3871 99.8797 71.8579 99.9202 72.5237 99.9202C72.9945 99.9202 73.4653 99.9 74.0169 99.8763C74.797 99.8427 75.7386 99.8022 77.0702 99.8022C82.0713 99.8022 83.3216 102.635 83.3216 104.819C83.3216 107.205 81.6444 108.311 80.948 108.771C80.7656 108.891 80.6505 108.967 80.6505 109.01C80.6505 109.112 80.8889 109.196 81.2553 109.324C82.4745 109.751 85.1117 110.673 85.1117 114.44C85.1117 116.388 83.7478 120.697 78.2068 120.697C77.688 120.697 76.9938 120.666 76.3096 120.637C75.6449 120.607 74.9887 120.579 74.5128 120.579C73.8592 120.579 73.1986 120.608 72.5379 120.638C71.8773 120.667 71.2166 120.697 70.5631 120.697C70.421 120.697 69.8527 120.638 69.8527 120.372C69.8527 120.102 70.1375 120.005 70.5771 119.855L70.6169 119.842L70.7051 119.811C70.7201 119.807 70.7366 119.803 70.7545 119.798C71.1106 119.704 72.0122 119.465 72.0122 117.273V102.753ZM74.2571 117.155C74.2571 117.227 74.2569 117.297 74.2567 117.365C74.2522 119.321 74.2509 119.9 78.15 119.9C81.9292 119.9 82.9522 117.302 82.9522 115.532C82.9522 113.643 82.8385 109.866 76.303 109.866C74.2377 109.866 74.2485 110.234 74.2562 110.499C74.2566 110.514 74.2571 110.53 74.2571 110.545V117.155ZM74.2484 108.156C74.217 108.836 74.2116 108.951 76.4735 108.951C81.1336 108.951 81.3609 107.15 81.3609 105.764C81.3609 102.576 78.7751 100.776 75.9052 100.776C74.2439 100.776 74.2466 101.208 74.2556 102.638V102.64C74.2563 102.751 74.2571 102.867 74.2571 102.99V107.859C74.2571 107.968 74.2525 108.067 74.2484 108.156Z" fill="#1D1D23"/>
<path fill-rule="evenodd" clip-rule="evenodd" d="M104.008 99.5366C98.1826 99.5366 93.5793 103.993 93.5793 110.131C93.5793 116.359 97.3585 120.903 103.525 120.903C109.861 120.903 114.266 116.624 114.266 109.984C114.266 103.875 109.804 99.5366 104.008 99.5366ZM104.718 120.018C99.0919 120.018 95.6536 114.735 95.6536 109.276C95.6536 104.613 98.3815 100.511 103.155 100.511C108.696 100.511 112.191 105.734 112.191 111.105C112.191 116.565 108.867 120.018 104.718 120.018Z" fill="#1D1D23"/>
<path fill-rule="evenodd" clip-rule="evenodd" d="M138.026 117.48C139.387 119.638 140.458 119.879 141.023 120.006C141.308 120.07 141.465 120.105 141.465 120.342C141.465 120.697 139.873 120.697 139.618 120.697C137.543 120.697 136.435 119.192 135.355 117.509L132.201 112.345C132.094 112.171 132.002 112.017 131.921 111.879C131.674 111.463 131.52 111.204 131.296 111.042C130.927 110.777 130.367 110.778 128.883 110.78C128.738 110.78 128.585 110.781 128.422 110.781C127.63 110.781 127.657 111.183 127.677 111.482C127.68 111.527 127.683 111.569 127.683 111.607V117.834C127.683 119.392 128.797 119.649 129.657 119.847C130.198 119.972 130.638 120.073 130.638 120.461C130.638 120.713 130.451 120.706 130.254 120.699C130.221 120.698 130.188 120.697 130.155 120.697C130.092 120.697 130.004 120.689 129.872 120.679C129.471 120.645 128.662 120.579 126.887 120.579C126.348 120.579 125.808 120.608 125.268 120.638C124.728 120.667 124.188 120.697 123.648 120.697C123.478 120.697 123.364 120.549 123.364 120.372C123.364 120.103 123.639 119.987 123.99 119.84C124.6 119.583 125.438 119.23 125.438 117.805V102.783C125.438 101.006 124.478 100.819 123.761 100.68C123.335 100.597 122.995 100.53 122.995 100.156C122.995 99.9791 123.222 99.8021 123.563 99.8021C123.753 99.8021 123.853 99.8185 123.979 99.839C124.189 99.8737 124.472 99.9201 125.381 99.9201C126.228 99.9201 127.067 99.889 127.883 99.8587C128.656 99.83 129.408 99.8021 130.127 99.8021C130.152 99.8021 130.194 99.8003 130.251 99.7979C131.248 99.7564 136.861 99.5224 136.861 104.908C136.861 107.21 135.27 109.187 133.281 110.013L138.026 117.48ZM127.683 109.364C127.683 109.828 128.894 109.807 130.069 109.786C130.311 109.781 130.552 109.777 130.78 109.777C132.002 109.777 134.73 109.246 134.73 105.586C134.73 101.986 132.087 100.776 129.303 100.776L129.16 100.776C128.224 100.773 127.683 100.772 127.683 101.868V109.364Z" fill="#1D1D23"/>
<path d="M149.24 100.607C150.249 100.864 151.95 101.298 151.95 105.616V116.506C151.95 119.261 150.838 119.602 150.097 119.829C149.727 119.943 149.449 120.028 149.449 120.372C149.449 120.519 149.477 120.696 149.818 120.696C149.88 120.696 150.064 120.685 150.317 120.67C150.884 120.635 151.802 120.578 152.49 120.578C153.309 120.578 153.921 120.619 154.426 120.653C154.779 120.676 155.079 120.696 155.359 120.696C155.644 120.696 155.672 120.461 155.672 120.313C155.672 120.031 155.359 119.978 154.954 119.91C154.215 119.785 153.171 119.609 153.171 117.893V105.822C153.171 105.232 153.257 105.143 153.37 105.143C153.531 105.143 153.785 105.471 153.906 105.628C153.935 105.665 153.956 105.693 153.967 105.704L166.186 119.989C166.782 120.667 167.067 120.815 167.266 120.815C167.493 120.815 167.521 120.401 167.521 119.545V102.458C167.521 101.109 168.179 100.813 168.67 100.592C168.964 100.46 169.198 100.354 169.198 100.067C169.198 99.8903 169.084 99.8018 168.914 99.8018C168.602 99.8018 168.178 99.8264 167.718 99.8531C167.169 99.8849 166.569 99.9198 166.044 99.9198C165.582 99.9198 165.142 99.8893 164.709 99.8594C164.29 99.8303 163.877 99.8018 163.458 99.8018C163.287 99.8018 163.145 99.8903 163.145 100.097C163.145 100.422 163.498 100.514 163.967 100.636C164.901 100.878 166.299 101.241 166.299 103.815V116.152C166.299 116.388 166.271 116.477 166.214 116.477C166.157 116.477 166.044 116.358 165.873 116.152L152.319 100.481C152.283 100.437 152.244 100.382 152.201 100.322C152.039 100.096 151.827 99.8018 151.58 99.8018C151.367 99.8018 151.147 99.8313 150.927 99.8608C150.706 99.8903 150.486 99.9198 150.273 99.9198C150.046 99.9198 149.826 99.8903 149.605 99.8608C149.385 99.8313 149.165 99.8018 148.938 99.8018C148.796 99.8018 148.511 99.9198 148.511 100.097C148.511 100.421 148.814 100.498 149.24 100.607Z" fill="#1D1D23"/>
<path d="M183.092 108.526C183.091 108.928 183.091 109.143 183.198 109.259C183.322 109.393 183.591 109.393 184.173 109.393H187.241C189.238 109.393 189.535 108.316 189.729 107.617C189.821 107.281 189.89 107.032 190.111 107.032C190.339 107.032 190.424 107.357 190.424 107.593C190.424 108.12 190.409 108.64 190.395 109.148V109.15C190.381 109.636 190.367 110.112 190.367 110.574C190.367 110.954 190.381 111.334 190.395 111.717C190.409 112.108 190.424 112.503 190.424 112.906C190.424 113.171 190.31 113.289 190.111 113.289C189.778 113.289 189.709 112.918 189.623 112.457C189.482 111.697 189.295 110.692 187.81 110.692H183.604C183.074 110.692 183.082 111.088 183.091 111.487C183.092 111.537 183.093 111.587 183.093 111.636V117.066C183.093 117.213 183.091 117.352 183.09 117.484C183.073 118.922 183.066 119.516 185.252 119.516C190.558 119.516 192.206 117.53 192.838 116.769C192.988 116.588 193.081 116.476 193.152 116.476C193.351 116.476 193.379 116.772 193.379 116.83C193.379 117.893 192.64 118.926 191.958 119.693C191.096 120.701 190.489 120.699 189.361 120.697C189.3 120.697 189.238 120.696 189.174 120.696C188.248 120.696 187.323 120.664 186.397 120.631C185.163 120.588 183.929 120.545 182.695 120.578C182.244 120.59 181.785 120.611 181.324 120.632C180.621 120.664 179.914 120.696 179.228 120.696C178.972 120.696 178.802 120.638 178.802 120.401C178.839 120.171 178.973 120.115 179.313 119.974C179.494 119.899 179.735 119.799 180.052 119.634C180.791 119.28 180.848 118.453 180.848 117.066V103.609C180.848 102.281 180.848 100.864 179.313 100.628C179.277 100.619 179.23 100.609 179.178 100.598C178.902 100.543 178.461 100.453 178.461 100.156C178.461 99.9198 178.632 99.8018 179.456 99.8018C183.105 99.8018 184.957 99.8563 186.144 99.8912C186.703 99.9077 187.115 99.9198 187.497 99.9198C187.75 99.9198 188.409 99.8964 189.14 99.8704C190.05 99.8381 191.072 99.8018 191.561 99.8018C191.788 99.8018 191.845 100.097 191.845 100.451C191.845 103.727 191.447 103.963 191.276 103.963C190.894 103.963 190.869 103.517 190.84 103.005C190.818 102.605 190.794 102.165 190.594 101.868C189.941 100.98 187.552 101.016 186.223 101.036C186.05 101.039 185.895 101.041 185.764 101.041C185.61 101.041 185.465 101.041 185.328 101.041C184.118 101.037 183.563 101.036 183.308 101.312C183.092 101.546 183.092 101.98 183.093 102.782L183.093 108.39L183.092 108.526Z" fill="#1D1D23"/>
<path fill-rule="evenodd" clip-rule="evenodd" d="M225.564 104.2C225.677 104.2 225.848 104.111 225.848 103.963L225.763 101.16C225.763 101.132 225.763 101.101 225.764 101.068C225.77 100.784 225.779 100.333 225.422 100.333C225.275 100.333 225.175 100.421 225.09 100.495C225.026 100.551 224.971 100.599 224.911 100.599C224.88 100.599 224.804 100.561 224.685 100.502C224.262 100.289 223.292 99.8022 221.87 99.8022C219.569 99.8022 217.267 101.13 217.267 103.816C217.267 105.055 217.835 106.236 218.574 107.18C215.534 107.859 214.027 110.279 214.027 113.437C214.027 118.041 217.693 120.904 221.87 120.904C224.655 120.904 226.814 119.901 228.86 117.923C229.095 118.118 229.33 118.322 229.566 118.527C230.906 119.689 232.306 120.904 234.117 120.904C235.055 120.904 236.476 120.461 236.476 119.959C236.476 119.901 236.447 119.723 236.248 119.723C236.174 119.723 236.088 119.743 235.981 119.769C235.799 119.812 235.554 119.871 235.197 119.871C234.226 119.871 232.452 118.22 231.182 117.038C230.779 116.663 230.427 116.336 230.167 116.122C231.076 114.44 231.304 112.552 231.503 110.692C231.591 109.889 232.037 109.707 232.365 109.573C232.568 109.49 232.725 109.426 232.725 109.246C232.725 108.951 232.583 108.892 232.327 108.892C231.73 108.892 231.317 108.937 231.002 108.972C230.807 108.993 230.65 109.01 230.508 109.01C230.343 109.01 230.091 108.992 229.783 108.97C229.3 108.936 228.679 108.892 228.036 108.892L228.019 108.892L227.985 108.891L227.943 108.89C227.708 108.883 227.383 108.874 227.383 109.158C227.383 109.482 227.698 109.556 228.111 109.652C228.902 109.838 230.054 110.107 230.054 112.374C230.054 113.614 229.94 114.676 229.23 115.503C223.092 109.6 218.887 104.937 218.887 102.96C218.887 101.543 219.938 100.57 221.245 100.57C222.978 100.57 224.456 102.134 225.137 103.668C225.153 103.701 225.169 103.74 225.186 103.782C225.26 103.965 225.356 104.2 225.564 104.2ZM221.027 110.142C222.463 111.821 224.611 114.333 227.923 117.273C226.53 118.514 224.655 119.163 222.836 119.163C219.171 119.163 215.561 115.857 215.561 111.932C215.561 110.22 216.869 107.918 218.659 107.918C219.125 107.918 219.827 108.739 221.027 110.142Z" fill="#1D1D23"/>
<path d="M258.009 117.067C258.009 117.213 258.007 117.352 258.006 117.484C257.989 118.922 257.982 119.516 260.169 119.516C265.474 119.516 267.122 117.53 267.754 116.769C267.904 116.588 267.997 116.476 268.068 116.476C268.267 116.476 268.295 116.772 268.295 116.831C268.295 117.893 267.557 118.926 266.875 119.693C266.012 120.701 265.405 120.7 264.277 120.697C264.216 120.697 264.154 120.697 264.09 120.697C263.164 120.697 262.239 120.664 261.313 120.632C260.079 120.588 258.845 120.545 257.611 120.579C257.16 120.591 256.701 120.611 256.24 120.633C255.538 120.665 254.831 120.697 254.145 120.697C253.889 120.697 253.718 120.638 253.718 120.402C253.755 120.171 253.889 120.116 254.229 119.974C254.411 119.899 254.652 119.799 254.969 119.634C255.707 119.28 255.764 118.454 255.764 117.067V102.104C255.764 101.157 254.855 100.873 254.159 100.656C253.727 100.521 253.377 100.412 253.377 100.186C253.377 99.8613 253.576 99.8022 253.946 99.8022C254.182 99.8022 254.462 99.8207 254.801 99.8431C255.319 99.8772 255.974 99.9203 256.815 99.9203C257.886 99.9203 258.547 99.8687 258.995 99.8338C259.225 99.8158 259.399 99.8022 259.543 99.8022C259.913 99.8022 260.083 99.8613 260.083 100.215C260.083 100.446 259.844 100.513 259.528 100.602C258.914 100.774 258.009 101.028 258.009 102.724V117.067Z" fill="#1D1D23"/>
<path d="M277.619 100.527C278.292 100.702 279.245 100.95 279.264 102.34V117.45C279.264 119.346 278.33 119.601 277.675 119.781C277.32 119.878 277.047 119.953 277.047 120.254C277.047 120.549 277.132 120.696 277.644 120.696C277.773 120.696 277.922 120.684 278.125 120.667C278.547 120.632 279.2 120.578 280.372 120.578C281.078 120.578 281.783 120.618 282.379 120.651C282.816 120.675 283.193 120.696 283.47 120.696C283.952 120.696 284.037 120.608 284.037 120.401C284.037 120.048 283.635 119.944 283.151 119.818C282.422 119.63 281.509 119.394 281.509 118.188V102.34C281.509 100.926 282.343 100.692 282.947 100.523C283.288 100.428 283.555 100.353 283.555 100.097C283.555 99.8608 283.47 99.8018 283.015 99.8018C282.574 99.8018 282.134 99.8313 281.694 99.8608C281.253 99.8903 280.813 99.9198 280.372 99.9198C279.846 99.9198 279.327 99.8903 278.809 99.8608C278.29 99.8313 277.772 99.8018 277.247 99.8018C277.019 99.8018 276.962 99.8608 276.962 100.126C276.962 100.357 277.248 100.431 277.619 100.527Z" fill="#1D1D23"/>
<path d="M300.637 102.658L300.637 102.656C300.653 102.296 300.692 101.451 300.347 101.425H295.716C294.032 101.425 293.906 101.83 293.452 103.281L293.448 103.293C293.428 103.357 293.408 103.423 293.386 103.491C293.373 103.536 293.361 103.584 293.35 103.631C293.284 103.895 293.216 104.17 292.903 104.17C292.733 104.17 292.618 103.963 292.618 103.816L292.931 100.953C292.935 100.911 292.937 100.862 292.94 100.809C292.96 100.42 292.993 99.8022 293.443 99.8022C294.412 99.8022 295.376 99.8248 296.461 99.8502C297.856 99.8829 299.45 99.9203 301.512 99.9203C305.373 99.9203 307.809 99.8538 309.024 99.8206C309.428 99.8096 309.697 99.8022 309.838 99.8022C310.492 99.8022 310.634 99.9793 310.663 100.658L310.804 103.019C310.833 103.314 310.862 103.668 310.492 103.668C310.097 103.668 310.067 103.352 310.03 102.956C309.968 102.299 309.886 101.425 308.076 101.425H304.013C303.923 101.425 303.84 101.425 303.763 101.424C303.333 101.421 303.109 101.42 302.993 101.531C302.866 101.653 302.869 101.91 302.874 102.447C302.875 102.573 302.877 102.713 302.877 102.872V117.923C302.877 119.465 303.768 119.671 304.441 119.827C304.85 119.921 305.178 119.997 305.178 120.343L305.179 120.365C305.181 120.469 305.186 120.697 304.923 120.697C304.598 120.697 304.247 120.67 303.879 120.642C303.476 120.611 303.052 120.579 302.621 120.579C300.037 120.579 299.195 120.657 298.879 120.686C298.805 120.693 298.76 120.697 298.728 120.697C298.472 120.697 298.387 120.608 298.387 120.313C298.387 120.039 298.724 119.915 299.137 119.763C299.789 119.524 300.632 119.214 300.632 118.129V102.783C300.632 102.756 300.634 102.712 300.637 102.658Z" fill="#1D1D23"/>
<path d="M326.693 102.656L326.693 102.657C326.691 102.712 326.689 102.756 326.689 102.783V118.129C326.689 119.214 325.846 119.524 325.193 119.763C324.78 119.915 324.443 120.039 324.443 120.313C324.443 120.608 324.529 120.697 324.784 120.697C324.817 120.697 324.862 120.693 324.935 120.686C325.252 120.657 326.094 120.579 328.678 120.579C329.109 120.579 329.532 120.611 329.936 120.642C330.303 120.67 330.654 120.697 330.979 120.697C331.242 120.697 331.238 120.469 331.236 120.365L331.235 120.343C331.235 119.997 330.907 119.921 330.498 119.827C329.824 119.671 328.934 119.465 328.934 117.923V102.872C328.934 102.716 328.932 102.577 328.931 102.453L328.931 102.447C328.925 101.909 328.923 101.653 329.049 101.531C329.166 101.42 329.39 101.421 329.819 101.424C329.896 101.425 329.98 101.425 330.07 101.425H334.134C335.942 101.425 336.025 102.299 336.087 102.956C336.124 103.351 336.154 103.668 336.549 103.668C336.918 103.668 336.89 103.314 336.861 103.019L336.719 100.658C336.69 99.9793 336.549 99.8022 335.895 99.8022C335.753 99.8022 335.484 99.8096 335.081 99.8206C333.866 99.8538 331.43 99.9203 327.569 99.9203C325.507 99.9203 323.912 99.8829 322.517 99.8502C321.433 99.8248 320.469 99.8022 319.5 99.8022C319.049 99.8022 319.017 100.42 318.997 100.809C318.994 100.862 318.992 100.911 318.988 100.953L318.675 103.816C318.675 103.963 318.789 104.17 318.959 104.17C319.273 104.17 319.341 103.895 319.406 103.631L319.407 103.629L319.407 103.627C319.419 103.581 319.43 103.535 319.443 103.491C319.466 103.419 319.488 103.349 319.509 103.281C319.963 101.83 320.089 101.425 321.772 101.425H326.404C326.749 101.451 326.71 102.296 326.693 102.656Z" fill="#1D1D23"/>
<path d="M349.591 117.067C349.591 117.213 349.589 117.352 349.588 117.484C349.571 118.922 349.564 119.516 351.751 119.516C357.056 119.516 358.704 117.53 359.337 116.769C359.487 116.588 359.579 116.476 359.65 116.476C359.849 116.476 359.877 116.772 359.877 116.831C359.877 117.893 359.139 118.926 358.457 119.693C357.594 120.701 356.987 120.7 355.859 120.697C355.798 120.697 355.736 120.697 355.672 120.697C354.746 120.697 353.821 120.664 352.895 120.632C351.661 120.588 350.427 120.545 349.193 120.579C348.743 120.591 348.283 120.611 347.822 120.633C347.12 120.665 346.413 120.697 345.727 120.697C345.471 120.697 345.3 120.638 345.3 120.402C345.337 120.171 345.471 120.116 345.811 119.974C345.993 119.899 346.234 119.799 346.551 119.634C347.289 119.28 347.346 118.454 347.346 117.067V102.104C347.346 101.157 346.437 100.873 345.741 100.656C345.309 100.521 344.959 100.412 344.959 100.186C344.959 99.8613 345.158 99.8022 345.528 99.8022C345.764 99.8022 346.044 99.8207 346.383 99.8431C346.901 99.8772 347.556 99.9203 348.398 99.9203C349.468 99.9203 350.129 99.8687 350.577 99.8338C350.807 99.8158 350.981 99.8022 351.125 99.8022C351.495 99.8022 351.665 99.8613 351.665 100.215C351.665 100.446 351.426 100.513 351.11 100.602C350.496 100.774 349.591 101.028 349.591 102.724V117.067Z" fill="#1D1D23"/>
<path d="M372.656 109.259C372.537 109.131 372.551 108.88 372.551 108.39V102.901C372.551 102.022 372.54 101.557 372.766 101.312C373.05 101.005 373.706 101.041 375.222 101.041C375.353 101.041 375.508 101.039 375.681 101.036C377.01 101.016 379.399 100.98 380.053 101.868C380.252 102.165 380.276 102.605 380.298 103.005C380.327 103.517 380.352 103.963 380.735 103.963C380.905 103.963 381.302 103.727 381.302 100.451C381.302 100.097 381.246 99.8018 381.019 99.8018C380.53 99.8018 379.509 99.838 378.599 99.8704C377.868 99.8964 377.208 99.9198 376.955 99.9198C376.573 99.9198 376.161 99.9077 375.602 99.8912C374.415 99.8563 372.564 99.8018 368.914 99.8018C368.089 99.8018 367.919 99.9198 367.919 100.156C367.919 100.453 368.36 100.543 368.636 100.599C368.688 100.609 368.735 100.619 368.772 100.628C370.306 100.864 370.306 102.281 370.306 103.609V117.066C370.306 118.453 370.249 119.28 369.51 119.634C369.193 119.799 368.952 119.899 368.77 119.974C368.43 120.115 368.297 120.171 368.26 120.401C368.26 120.638 368.43 120.696 368.686 120.696C369.372 120.696 370.079 120.664 370.781 120.632C371.243 120.611 371.702 120.59 372.153 120.578C373.387 120.545 374.621 120.588 375.855 120.631C376.781 120.664 377.706 120.696 378.632 120.696C378.696 120.696 378.758 120.697 378.819 120.697C379.946 120.699 380.553 120.701 381.417 119.693C382.098 118.926 382.837 117.893 382.837 116.83C382.837 116.772 382.808 116.476 382.61 116.476C382.539 116.476 382.446 116.588 382.296 116.769C381.664 117.53 380.016 119.516 374.711 119.516C372.524 119.516 372.531 118.922 372.548 117.484C372.549 117.352 372.551 117.213 372.551 117.066V111.636C372.551 111.587 372.55 111.537 372.549 111.487C372.54 111.088 372.532 110.692 373.062 110.692H377.268C378.753 110.692 378.94 111.697 379.082 112.457C379.168 112.918 379.237 113.289 379.57 113.289C379.768 113.289 379.882 113.171 379.882 112.906C379.882 112.503 379.867 112.108 379.853 111.717C379.839 111.334 379.825 110.954 379.825 110.574C379.825 110.112 379.838 109.636 379.852 109.15C379.867 108.641 379.882 108.121 379.882 107.593C379.882 107.357 379.796 107.032 379.57 107.032C379.348 107.032 379.28 107.281 379.187 107.617C378.993 108.316 378.696 109.393 376.699 109.393H373.631C373.049 109.393 372.78 109.393 372.656 109.259Z" fill="#1D1D23"/>
</svg>
