<svg width="400" height="220" viewBox="0 0 400 220" fill="none" xmlns="http://www.w3.org/2000/svg">
<path d="M139.87 104.265C139.174 104.239 138.481 104.177 137.792 104.08C136.406 103.895 136.129 102.879 135.991 101.54C135.76 99.6006 135.76 95.9525 135.76 91.5193V86.6705C135.754 86.6328 135.757 86.5942 135.769 86.5579C135.781 86.5216 135.801 86.4885 135.828 86.4615C135.855 86.4345 135.888 86.4143 135.924 86.4025C135.961 86.3906 135.999 86.3875 136.037 86.3935H155.623C155.659 86.3918 155.696 86.3979 155.73 86.4112C155.765 86.4246 155.796 86.4449 155.822 86.471C155.848 86.497 155.869 86.5282 155.882 86.5626C155.895 86.5969 155.901 86.6337 155.9 86.6705V91.5193C155.9 95.9525 155.9 99.6006 155.669 101.54C155.484 102.879 155.253 103.895 154.33 104.08C153.875 104.187 153.411 104.249 152.944 104.265C152.667 104.265 152.575 104.403 152.575 104.542C152.575 104.819 152.806 104.911 153.314 104.911C154.699 104.911 157.608 104.773 157.839 104.773C158.07 104.773 160.979 104.911 163.519 104.911C164.027 104.911 164.258 104.773 164.258 104.542C164.258 104.403 164.166 104.265 163.889 104.265C163.191 104.232 162.495 104.162 161.805 104.057C160.419 103.872 160.142 102.856 160.004 101.517C159.773 99.5775 159.773 95.9294 159.773 91.4962V83.3918C159.773 76.188 159.773 74.8949 159.865 73.4172C159.958 71.801 160.327 71.0159 161.597 70.785C161.977 70.7063 162.363 70.6599 162.751 70.6465C162.936 70.6465 163.121 70.5541 163.121 70.3694C163.121 70.0924 162.89 70 162.382 70C160.997 70 158.087 70.1385 157.856 70.1385C157.626 70.1385 154.716 70 152.661 70C152.153 70 151.922 70.0924 151.922 70.3694C151.922 70.5541 152.107 70.6465 152.292 70.6465C152.818 70.6449 153.344 70.6912 153.862 70.785C155.386 71.1083 155.755 71.8472 155.848 73.4172C155.94 74.8949 155.94 76.188 155.94 83.3918V84.3616C155.946 84.3993 155.943 84.4379 155.931 84.4742C155.919 84.5106 155.899 84.5436 155.872 84.5706C155.845 84.5976 155.812 84.6178 155.776 84.6297C155.739 84.6415 155.701 84.6446 155.663 84.6387H136.049C136.011 84.6446 135.972 84.6415 135.936 84.6297C135.9 84.6178 135.867 84.5976 135.84 84.5706C135.813 84.5436 135.792 84.5106 135.78 84.4742C135.769 84.4379 135.766 84.3993 135.771 84.3616V83.3918C135.771 76.188 135.771 74.8949 135.864 73.4172C135.956 71.801 136.326 71.0159 137.596 70.785C137.976 70.7063 138.362 70.6599 138.75 70.6465C138.935 70.6465 139.125 70.5541 139.125 70.3694C139.125 70.0924 138.894 70 138.381 70C136.984 70 134.063 70.1385 133.832 70.1385C133.601 70.1385 130.692 70 128.614 70C128.106 70 127.875 70.0924 127.875 70.3694C127.875 70.5541 128.06 70.6465 128.244 70.6465C128.771 70.6449 129.296 70.6912 129.814 70.785C131.338 71.1083 131.708 71.8472 131.8 73.4172C131.892 74.8949 131.892 76.188 131.892 83.3918V91.5193C131.892 95.9525 131.892 99.6006 131.662 101.54C131.477 102.879 131.246 103.895 130.322 104.08C129.868 104.187 129.404 104.249 128.937 104.265C128.66 104.265 128.568 104.403 128.568 104.542C128.568 104.819 128.798 104.911 129.306 104.911C130.692 104.911 133.601 104.773 133.832 104.773C134.063 104.773 136.972 104.911 139.512 104.911C140.026 104.911 140.257 104.773 140.257 104.542C140.257 104.403 140.158 104.265 139.87 104.265Z" fill="#1D1D23"/>
<path d="M107.931 70C113.704 70 115.782 71.9395 116.521 72.6322C117.974 74.0967 118.807 76.0648 118.847 78.1275C118.847 84.6618 114.044 89.0949 107.481 89.0949C107.159 89.1027 106.837 89.0873 106.517 89.0487C106.286 89.0487 106.009 88.9564 106.009 88.7255C106.009 88.3561 106.286 88.3099 107.25 88.3099C111.735 88.3099 115.245 85.0543 115.245 80.8058C115.245 79.2819 115.106 76.188 112.659 73.6943C111.832 72.8712 110.835 72.2382 109.739 71.8395C108.642 71.4407 107.472 71.2857 106.309 71.3854C105.636 71.3597 104.964 71.4535 104.324 71.6624C104.047 71.7548 103.954 72.078 103.954 72.5398V91.4962C103.954 95.9294 103.954 99.5775 104.191 101.517C104.324 102.856 104.601 103.872 105.992 104.057C106.679 104.154 107.371 104.216 108.064 104.242C108.347 104.242 108.434 104.38 108.434 104.519C108.434 104.75 108.209 104.888 107.701 104.888C105.744 104.888 103.574 104.806 102.568 104.768L102.568 104.768L102.567 104.768C102.265 104.757 102.068 104.75 102.015 104.75C101.982 104.75 101.788 104.758 101.495 104.77C100.566 104.808 98.6342 104.888 97.5816 104.888C97.0737 104.888 96.8428 104.796 96.8428 104.519C96.8428 104.38 96.9351 104.242 97.2122 104.242C97.6789 104.226 98.1429 104.164 98.5976 104.057C99.5211 103.895 99.752 102.902 99.9367 101.54C100.168 99.6006 100.168 95.9525 100.168 91.5193V83.3918C100.168 76.188 100.168 74.8949 100.075 73.4172C99.9829 71.8472 99.6135 71.1083 98.0896 70.785C97.5715 70.6912 97.046 70.6449 96.5195 70.6465C96.3348 70.6465 96.1501 70.5541 96.1501 70.3694C96.1501 70.0924 96.381 70 96.8889 70C98.3507 70 100.155 70.0685 101.225 70.1092C101.677 70.1264 101.998 70.1385 102.107 70.1385C102.523 70.1385 103.219 70.1153 104.041 70.0879C105.229 70.0484 106.68 70 107.931 70Z" fill="#1D1D23"/>
<path d="M177.332 70.8312C176.864 70.7128 176.384 70.6508 175.901 70.6465C175.716 70.6465 175.531 70.5772 175.531 70.3694C175.531 70.0924 175.762 70 176.27 70C177.367 70 179.188 70.0718 180.208 70.112C180.605 70.1277 180.881 70.1385 180.946 70.1385C181.013 70.1385 181.305 70.1269 181.72 70.1104C182.735 70.0699 184.488 70 185.471 70C185.979 70 186.21 70.0924 186.21 70.3694C186.21 70.5541 186.026 70.6465 185.841 70.6465C185.453 70.6599 185.067 70.7063 184.686 70.785C183.416 71.0159 183.047 71.801 182.955 73.4172C182.862 74.8949 182.862 76.188 182.862 83.3918V91.4962C182.862 95.9294 182.862 99.5775 183.093 101.517C183.232 102.856 183.509 103.872 184.894 104.057C185.587 104.162 186.284 104.232 186.984 104.265C187.261 104.265 187.353 104.403 187.353 104.542C187.353 104.773 187.122 104.911 186.614 104.911C184.663 104.911 182.493 104.829 181.488 104.791C181.185 104.78 180.988 104.773 180.934 104.773C180.867 104.773 180.575 104.784 180.161 104.801C179.145 104.841 177.393 104.911 176.409 104.911C175.901 104.911 175.67 104.819 175.67 104.542C175.67 104.403 175.762 104.265 176.039 104.265C176.506 104.249 176.97 104.187 177.425 104.08C178.348 103.895 178.579 102.879 178.764 101.54C178.995 99.6006 178.995 95.9525 178.995 91.5193V83.3918C178.995 76.188 178.995 74.8949 178.902 73.4172C178.81 71.8472 178.348 71.0621 177.332 70.8312Z" fill="#1D1D23"/>
<path d="M204.024 104.773C205.363 104.773 206.794 104.819 208.734 104.911C210.673 105.003 213.075 105.05 216.4 105.05C218.847 105.05 218.986 104.865 219.286 103.803C219.638 102.284 219.87 100.74 219.978 99.185C219.978 98.677 219.932 98.4923 219.701 98.4923C219.47 98.4923 219.332 98.7232 219.286 99.0695C219.111 100.075 218.699 101.025 218.085 101.84C216.977 103.179 214.945 103.226 212.497 103.226C208.896 103.226 207.695 102.902 206.956 102.164C206.125 101.332 205.94 98.3768 205.94 91.5886V83.3898C205.94 76.1877 205.94 74.8948 206.032 73.4172C206.125 71.801 206.494 71.0159 207.833 70.785C208.337 70.703 208.847 70.6567 209.357 70.6465C209.542 70.6465 209.727 70.5541 209.727 70.3694C209.727 70.0924 209.496 70 208.988 70C208.004 70 206.019 70.0699 204.868 70.1104C204.398 70.1269 204.067 70.1385 204.001 70.1385C203.943 70.1385 203.719 70.1299 203.384 70.1169C202.377 70.0779 200.364 70 198.805 70C198.297 70 198.067 70.0924 198.067 70.3694C198.067 70.5541 198.251 70.6465 198.436 70.6465C198.963 70.6449 199.488 70.6912 200.006 70.785C201.53 71.1083 201.899 71.8472 201.992 73.4172C202.084 74.8949 202.084 76.188 202.084 83.3918V91.5193C202.084 95.9525 202.084 99.6006 201.853 101.54C201.669 102.879 201.438 103.895 200.514 104.08C200.059 104.187 199.595 104.249 199.129 104.265C198.852 104.265 198.759 104.403 198.759 104.542C198.759 104.819 198.99 104.911 199.498 104.911C200.191 104.911 201.23 104.865 202.13 104.819C203.031 104.773 203.839 104.773 204.024 104.773Z" fill="#1D1D23"/>
<path d="M249.417 99.0695C249.464 98.7232 249.556 98.4923 249.833 98.4923C250.064 98.4923 250.122 98.677 250.11 99.185C250.002 100.74 249.77 102.284 249.417 103.803C249.117 104.865 248.979 105.05 246.531 105.05C243.206 105.05 240.805 105.003 238.866 104.911C236.926 104.819 235.494 104.773 234.155 104.773C233.994 104.773 233.162 104.773 232.262 104.819C231.361 104.865 230.322 104.911 229.63 104.911C229.122 104.911 228.891 104.819 228.891 104.542C228.891 104.403 228.983 104.265 229.26 104.265C229.727 104.249 230.191 104.187 230.646 104.08C231.569 103.895 231.8 102.879 231.985 101.54C232.216 99.6006 232.216 95.9525 232.216 91.5193V83.3898C232.216 76.1877 232.216 74.8948 232.123 73.4172C232.031 71.8472 231.662 71.1083 230.138 70.785C229.62 70.6912 229.094 70.6449 228.568 70.6465C228.383 70.6465 228.198 70.5541 228.198 70.3694C228.198 70.0924 228.429 70 228.937 70C230.476 70 232.494 70.0777 233.508 70.1167C233.847 70.1298 234.074 70.1385 234.132 70.1385C234.199 70.1385 234.53 70.1269 235 70.1104C236.151 70.0699 238.136 70 239.12 70C239.627 70 239.858 70.0924 239.858 70.3694C239.858 70.5541 239.674 70.6465 239.489 70.6465C238.978 70.6567 238.469 70.703 237.965 70.785C236.626 71.0159 236.256 71.801 236.164 73.4172C236.072 74.8949 236.072 76.188 236.072 83.3918V91.5886C236.072 98.3768 236.256 101.332 237.088 102.164C237.827 102.902 239.027 103.226 242.629 103.226C245.077 103.226 247.108 103.179 248.217 101.84C248.831 101.025 249.243 100.075 249.417 99.0695Z" fill="#1D1D23"/>
<path d="M259.207 70.6465C259.69 70.6508 260.171 70.7128 260.639 70.8312C261.655 71.0621 262.117 71.8472 262.209 73.4172C262.301 74.8949 262.301 76.188 262.301 83.3918V91.5193C262.301 95.9525 262.301 99.6006 262.07 101.54C261.886 102.879 261.655 103.895 260.731 104.08C260.277 104.187 259.813 104.249 259.346 104.265C259.069 104.265 258.976 104.403 258.976 104.542C258.976 104.819 259.207 104.911 259.715 104.911C260.699 104.911 262.451 104.841 263.467 104.801C263.882 104.784 264.174 104.773 264.241 104.773C264.294 104.773 264.491 104.78 264.795 104.791C265.8 104.829 267.969 104.911 269.921 104.911C270.429 104.911 270.66 104.773 270.66 104.542C270.66 104.403 270.567 104.265 270.29 104.265C269.595 104.239 268.901 104.177 268.212 104.08C266.827 103.895 266.55 102.879 266.411 101.54C266.18 99.6006 266.18 95.9525 266.18 91.5193V83.3918C266.18 76.188 266.18 74.8949 266.273 73.4172C266.365 71.801 266.734 71.0159 268.004 70.785C268.385 70.7063 268.771 70.6599 269.159 70.6465C269.343 70.6465 269.528 70.5541 269.528 70.3694C269.528 70.0924 269.297 70 268.789 70C267.806 70 266.053 70.0699 265.038 70.1104C264.623 70.1269 264.331 70.1385 264.264 70.1385C264.199 70.1385 263.92 70.1276 263.519 70.1119C262.492 70.0716 260.664 70 259.577 70C259.069 70 258.838 70.0924 258.838 70.3694C258.838 70.5772 259.023 70.6465 259.207 70.6465Z" fill="#1D1D23"/>
<path d="M293.149 70C298.921 70 300.999 71.9395 301.738 72.6322C303.202 74.0921 304.045 76.0607 304.093 78.1275C304.093 84.6618 299.29 89.0949 292.733 89.0949C292.409 89.1026 292.085 89.0872 291.763 89.0487C291.532 89.0487 291.255 88.9564 291.255 88.7255C291.255 88.3561 291.532 88.3099 292.502 88.3099C296.982 88.3099 300.491 85.0543 300.491 80.8058C300.491 79.2819 300.353 76.188 297.905 73.6943C297.078 72.8705 296.082 72.2372 294.985 71.8384C293.889 71.4396 292.718 71.285 291.555 71.3854C290.882 71.3592 290.21 71.4531 289.57 71.6624C289.293 71.7548 289.2 72.078 289.2 72.5398V91.5193C289.2 95.9525 289.2 99.6006 289.431 101.54C289.57 102.879 289.847 103.895 291.232 104.08C291.921 104.177 292.615 104.239 293.31 104.265C293.587 104.265 293.68 104.403 293.68 104.542C293.68 104.773 293.449 104.911 292.941 104.911C290.989 104.911 288.82 104.829 287.815 104.791C287.512 104.78 287.314 104.773 287.261 104.773C287.228 104.773 287.034 104.781 286.741 104.793C285.812 104.831 283.88 104.911 282.828 104.911C282.32 104.911 282.089 104.819 282.089 104.542C282.089 104.403 282.181 104.265 282.458 104.265C282.925 104.249 283.389 104.187 283.844 104.08C284.767 103.895 284.998 102.879 285.183 101.54C285.414 99.6006 285.414 95.9525 285.414 91.5193V83.3918C285.414 76.188 285.414 74.8949 285.321 73.4172C285.229 71.8472 284.86 71.1083 283.336 70.785C282.818 70.6912 282.292 70.6449 281.766 70.6465C281.581 70.6465 281.396 70.5541 281.396 70.3694C281.396 70.0924 281.627 70 282.135 70C283.578 70 285.374 70.0683 286.444 70.109C286.897 70.1263 287.22 70.1385 287.33 70.1385C287.745 70.1385 288.439 70.1154 289.258 70.088C290.443 70.0484 291.893 70 293.149 70Z" fill="#1D1D23"/>
<path d="M108.503 113.87C107.568 113.87 105.903 113.937 104.938 113.976L104.937 113.976L104.936 113.976L104.935 113.976L104.934 113.976L104.931 113.976C104.541 113.992 104.266 114.003 104.203 114.003C104.147 114.003 103.931 113.994 103.606 113.982C102.636 113.944 100.705 113.87 99.2441 113.87C98.765 113.87 98.5456 113.956 98.5456 114.222C98.5456 114.395 98.7188 114.482 98.8977 114.482C99.3971 114.481 99.8956 114.526 100.387 114.614C101.836 114.92 102.188 115.625 102.275 117.114C102.351 118.432 102.351 119.497 102.35 124.469C102.35 125.115 102.35 125.828 102.35 126.615V139.314C102.35 150.634 100.987 152.96 98.1358 155.858C97.6723 156.325 97.1572 156.737 96.6003 157.087L96.5865 157.096C96.2141 157.327 96 157.46 96 157.74C96.0073 157.814 96.0433 157.883 96.1004 157.931C96.1575 157.98 96.2312 158.004 96.3059 157.999C96.414 158 96.52 157.97 96.6119 157.913C97.209 157.58 97.7871 157.213 98.3436 156.816C101.894 154.357 103.827 152.296 104.745 150.103C106.061 146.992 106.061 144.267 106.061 137.161V126.615C106.061 119.769 106.061 118.534 106.154 117.137C106.24 115.602 106.592 114.828 107.776 114.638C108.137 114.563 108.504 114.519 108.872 114.505C109.045 114.505 109.224 114.418 109.224 114.245C109.207 113.979 108.988 113.87 108.503 113.87Z" fill="#1D1D23"/>
<path d="M136.591 141.796C136.678 141.312 136.764 141.138 136.984 141.138C137.227 141.138 137.227 141.387 137.226 141.718L137.226 141.762C137.226 142.114 136.868 145.092 136.649 146.016C136.343 147.17 136.014 147.17 134.282 147.17C130.992 147.17 128.55 147.124 126.865 147.038C125.179 146.951 124.106 146.905 123.448 146.905C123.432 146.905 123.383 146.907 123.305 146.911C123.029 146.923 122.401 146.951 121.716 146.951C121.246 146.951 120.737 146.976 120.265 146.999L120.265 146.999C119.856 147.019 119.475 147.038 119.17 147.038C118.685 147.038 118.466 146.951 118.466 146.686C118.466 146.553 118.553 146.42 118.818 146.42C119.261 146.405 119.702 146.347 120.134 146.247C121.012 146.074 121.231 145.104 121.404 143.834C121.623 141.993 121.623 138.523 121.623 134.315V126.592C121.623 119.746 121.623 118.603 121.537 117.114C121.45 115.625 121.098 114.92 119.649 114.614C119.158 114.526 118.659 114.481 118.16 114.482C117.981 114.482 117.808 114.395 117.808 114.222C117.808 113.956 118.027 113.87 118.512 113.87C119.511 113.87 120.7 113.87 121.704 113.939L123.505 114.031C123.811 114.031 132.539 114.031 133.549 113.985C134.183 113.961 134.814 113.888 135.437 113.766C135.543 113.744 135.658 113.691 135.765 113.644C135.878 113.593 135.98 113.547 136.049 113.547C136.181 113.547 136.227 113.72 136.227 113.939C136.227 114.079 136.189 114.249 136.135 114.489C136.059 114.822 135.953 115.291 135.875 116.006C135.858 116.168 135.835 116.54 135.809 116.97C135.764 117.686 135.71 118.563 135.656 118.892C135.61 119.111 135.523 119.377 135.35 119.377C135.085 119.377 134.998 119.151 134.998 118.799C135 118.261 134.91 117.726 134.732 117.218C134.427 116.519 133.988 115.994 131.621 115.728C130.871 115.642 126.091 115.596 125.606 115.596C125.433 115.596 125.347 115.728 125.347 116.034V128.156C125.347 128.462 125.387 128.595 125.606 128.595C126.178 128.595 131.535 128.595 132.585 128.508C133.636 128.422 134.253 128.33 134.646 127.891C134.952 127.533 135.171 127.314 135.304 127.314C135.437 127.314 135.523 127.394 135.523 127.66C135.523 127.76 135.492 127.927 135.446 128.175C135.371 128.585 135.254 129.215 135.171 130.119C135.085 130.996 134.998 132.572 134.998 132.924C134.998 133.276 134.998 133.761 134.692 133.761C134.473 133.761 134.38 133.582 134.38 133.363C134.401 132.876 134.343 132.388 134.207 131.92C134.005 131.302 133.63 130.558 131.898 130.384C130.715 130.252 126.368 130.165 125.624 130.165C125.582 130.159 125.54 130.163 125.5 130.177C125.46 130.19 125.424 130.212 125.395 130.242C125.365 130.272 125.343 130.308 125.329 130.347C125.316 130.387 125.312 130.43 125.318 130.471V134.333C125.318 134.752 125.314 135.454 125.31 136.267C125.299 138.355 125.285 141.176 125.318 141.837C125.451 144.862 126.109 145.439 130.403 145.439C131.546 145.439 133.474 145.439 134.617 144.954C135.76 144.469 136.285 143.592 136.591 141.796Z" fill="#1D1D23"/>
<path d="M164.656 113.541C164.557 113.541 164.456 113.598 164.338 113.664C164.251 113.713 164.155 113.767 164.044 113.806C163.407 113.925 162.759 113.983 162.111 113.98C161.307 114.016 155.504 113.995 152.724 113.984H152.722L152.718 113.984C152.007 113.982 151.495 113.98 151.316 113.98L149.521 113.933C148.557 113.87 147.374 113.87 146.364 113.87C145.879 113.87 145.659 113.957 145.659 114.222C145.659 114.395 145.833 114.482 146.012 114.482C146.511 114.481 147.009 114.526 147.501 114.615C148.95 114.92 149.302 115.625 149.388 117.114C149.475 118.603 149.475 119.746 149.475 126.592V134.316C149.475 138.524 149.475 141.993 149.256 143.834C149.082 145.104 148.863 146.074 147.986 146.247C147.554 146.347 147.113 146.405 146.67 146.42C146.404 146.42 146.318 146.553 146.318 146.686C146.318 146.951 146.537 147.038 147.022 147.038C147.956 147.038 149.619 146.971 150.582 146.932L150.583 146.932L150.589 146.932L150.59 146.932L150.591 146.932C150.98 146.916 151.253 146.905 151.316 146.905C151.367 146.905 151.555 146.912 151.843 146.923L151.845 146.923L151.845 146.923C152.802 146.96 154.861 147.038 156.714 147.038C157.198 147.038 157.418 146.905 157.418 146.686C157.418 146.553 157.331 146.42 157.066 146.42C156.405 146.396 155.746 146.338 155.092 146.247C153.775 146.074 153.51 145.093 153.36 143.834C153.14 141.993 153.14 138.524 153.14 134.316V130.61C153.14 130.298 153.227 130.211 153.446 130.211C154.191 130.211 158.976 130.211 160.073 130.344C160.562 130.371 161.034 130.533 161.437 130.813C161.839 131.092 162.156 131.477 162.353 131.926C162.497 132.44 162.584 132.968 162.613 133.502C162.613 133.721 162.705 133.9 162.925 133.9C163.144 133.9 163.231 133.461 163.231 133.063C163.231 132.757 163.317 131.002 163.404 130.125C163.487 129.221 163.603 128.591 163.679 128.181C163.725 127.933 163.756 127.766 163.756 127.666C163.756 127.4 163.71 127.319 163.536 127.319C163.394 127.319 163.279 127.467 163.144 127.641C163.114 127.679 163.084 127.719 163.052 127.758C162.659 128.335 162.088 128.457 161.037 128.543C160.419 128.589 159.808 128.589 159.063 128.589L153.446 128.636C153.181 128.636 153.14 128.503 153.14 128.237V116.115C153.14 115.763 153.267 115.63 153.533 115.63L160.292 115.763C162.024 115.804 163.011 116.594 163.271 117.166C163.505 117.693 163.64 118.258 163.669 118.834C163.669 119.14 163.756 119.359 163.975 119.359C164.194 119.359 164.281 119.094 164.327 118.875C164.381 118.546 164.435 117.671 164.48 116.955L164.48 116.953C164.506 116.523 164.529 116.151 164.547 115.988C164.624 115.274 164.73 114.805 164.806 114.472C164.86 114.232 164.899 114.062 164.899 113.922C164.922 113.714 164.829 113.541 164.656 113.541Z" fill="#1D1D23"/>
<path d="M191.405 113.664C191.522 113.598 191.623 113.541 191.723 113.541C191.896 113.541 191.988 113.714 191.965 113.922C191.965 114.062 191.927 114.232 191.872 114.472C191.797 114.805 191.69 115.274 191.613 115.988C191.596 116.15 191.573 116.52 191.547 116.948L191.546 116.95L191.546 116.952C191.502 117.669 191.448 118.546 191.394 118.875C191.348 119.094 191.261 119.359 191.042 119.359C190.822 119.359 190.736 119.14 190.736 118.834C190.706 118.258 190.571 117.693 190.337 117.166C190.078 116.594 189.091 115.804 187.359 115.763L180.599 115.63C180.34 115.63 180.207 115.763 180.207 116.115V128.237C180.207 128.503 180.247 128.636 180.513 128.636L186.129 128.589C186.874 128.589 187.486 128.589 188.104 128.543C189.154 128.457 189.726 128.335 190.118 127.758C190.152 127.716 190.184 127.675 190.215 127.635C190.347 127.463 190.458 127.319 190.603 127.319C190.782 127.319 190.822 127.4 190.822 127.666C190.822 127.766 190.791 127.933 190.746 128.18C190.67 128.591 190.553 129.221 190.47 130.125C190.384 131.002 190.297 132.757 190.297 133.063C190.297 133.461 190.297 133.9 189.991 133.9C189.772 133.9 189.679 133.721 189.679 133.502C189.651 132.968 189.564 132.44 189.42 131.926C189.223 131.477 188.906 131.092 188.503 130.813C188.101 130.533 187.629 130.371 187.14 130.344C186.043 130.211 181.258 130.211 180.513 130.211C180.294 130.211 180.207 130.298 180.207 130.61V134.339C180.207 138.546 180.207 142.016 180.426 143.857C180.582 145.116 180.842 146.097 182.158 146.27C182.813 146.361 183.472 146.419 184.132 146.443C184.398 146.443 184.484 146.576 184.484 146.709C184.484 146.928 184.265 147.061 183.78 147.061C181.927 147.061 179.869 146.983 178.915 146.946L178.914 146.946L178.905 146.946C178.623 146.935 178.439 146.928 178.389 146.928C178.325 146.928 178.051 146.939 177.66 146.955L177.655 146.955L177.653 146.955C176.688 146.994 175.023 147.061 174.088 147.061C173.603 147.061 173.384 146.974 173.384 146.709C173.384 146.576 173.471 146.443 173.736 146.443C174.179 146.428 174.62 146.37 175.052 146.27C175.93 146.097 176.149 145.127 176.322 143.857C176.542 142.016 176.542 138.547 176.542 134.339V126.615C176.542 119.769 176.542 118.626 176.455 117.137C176.368 115.648 176.016 114.944 174.567 114.638C174.076 114.548 173.578 114.504 173.078 114.505C172.905 114.505 172.726 114.418 172.726 114.245C172.726 113.98 172.945 113.893 173.43 113.893C174.44 113.893 175.624 113.893 176.588 113.933L178.389 113.98C178.568 113.98 179.081 113.982 179.794 113.984C182.572 113.995 188.373 114.016 189.177 113.98C189.826 113.983 190.473 113.925 191.111 113.806C191.222 113.767 191.318 113.713 191.405 113.664Z" fill="#1D1D23"/>
<path fill-rule="evenodd" clip-rule="evenodd" d="M232.568 146.443C231.988 146.447 231.409 146.404 230.836 146.316C229.739 146.137 227.858 145.658 225.485 143.153C223.234 140.749 220.64 137.419 217.582 133.495L217.578 133.49C217.18 132.978 216.774 132.457 216.359 131.926C220.307 128.283 221.67 125.034 221.67 121.789C221.648 120.63 221.363 119.491 220.839 118.458C220.314 117.424 219.562 116.523 218.639 115.821C216.33 114.153 213.375 113.893 210.616 113.893C209.766 113.893 208.149 113.945 206.932 113.983L206.931 113.983L206.929 113.984C206.195 114.007 205.607 114.026 205.421 114.026C205.366 114.026 205.152 114.017 204.831 114.005C203.868 113.968 201.943 113.893 200.462 113.893C199.977 113.893 199.758 113.98 199.758 114.245C199.758 114.418 199.937 114.505 200.11 114.505C200.609 114.504 201.108 114.548 201.599 114.638C203.048 114.943 203.4 115.648 203.487 117.137C203.573 118.626 203.573 119.769 203.573 126.615V134.339C203.573 138.547 203.573 142.016 203.354 143.857C203.181 145.127 202.962 146.097 202.084 146.27C201.652 146.371 201.211 146.429 200.768 146.443C200.503 146.443 200.416 146.576 200.416 146.709C200.416 146.974 200.635 147.061 201.12 147.061C202.239 147.061 204.405 146.965 205.054 146.936L205.055 146.936C205.169 146.931 205.236 146.928 205.242 146.928C205.292 146.928 205.48 146.935 205.767 146.946C206.723 146.982 208.785 147.061 210.639 147.061C211.124 147.061 211.343 146.928 211.343 146.709C211.343 146.576 211.256 146.443 210.991 146.443C210.33 146.419 209.671 146.361 209.017 146.27C207.701 146.097 207.435 145.116 207.285 143.857C207.066 142.016 207.066 138.547 207.066 134.339V133.282C207.066 133.063 207.152 132.93 207.372 132.93L212.769 133.022C212.879 133.018 212.988 133.039 213.088 133.084C213.188 133.129 213.277 133.197 213.346 133.282C213.695 133.742 214.233 134.482 214.87 135.359L214.87 135.36L214.87 135.36L214.872 135.362C215.834 136.687 217.024 138.325 218.131 139.776C218.201 139.868 218.27 139.958 218.338 140.048C218.451 140.197 218.562 140.344 218.671 140.488C220.861 143.379 222.311 145.294 224.054 146.224C225.208 146.841 226.288 147.061 228.747 147.061H231.864C232.654 147.061 232.914 146.974 232.914 146.709C232.96 146.576 232.805 146.443 232.568 146.443ZM215.326 130.829C214.339 131.433 213.191 131.723 212.036 131.66C210.102 131.66 208.087 131.354 207.418 130.956C207.323 130.906 207.244 130.83 207.19 130.737C207.136 130.644 207.109 130.538 207.112 130.431V116.086C207.104 115.973 207.134 115.86 207.196 115.765C207.259 115.671 207.351 115.599 207.458 115.561C208.426 115.363 209.414 115.273 210.402 115.296C215.095 115.296 217.987 118.586 217.987 124.07C217.999 127.406 216.861 129.773 215.326 130.829Z" fill="#1D1D23"/>
<path d="M243.403 146.27C244.057 146.362 244.716 146.419 245.377 146.443C245.637 146.443 245.729 146.576 245.712 146.709C245.712 146.928 245.492 147.061 245.007 147.061C243.153 147.061 241.092 146.982 240.136 146.946L240.128 146.946C239.845 146.935 239.66 146.928 239.61 146.928C239.547 146.928 239.269 146.939 238.875 146.955L238.872 146.955C237.907 146.994 236.244 147.061 235.31 147.061C234.831 147.061 234.611 146.974 234.611 146.709C234.611 146.576 234.698 146.443 234.958 146.443C235.401 146.429 235.842 146.371 236.274 146.27C237.157 146.097 237.376 145.127 237.549 143.857C237.769 142.016 237.769 138.547 237.769 134.339V126.615C237.769 119.769 237.769 118.626 237.682 117.137C237.596 115.648 237.157 114.903 236.187 114.684C235.744 114.57 235.288 114.51 234.831 114.505C234.652 114.505 234.479 114.418 234.479 114.245C234.479 113.98 234.698 113.893 235.183 113.893C236.221 113.893 237.943 113.962 238.91 114C239.286 114.015 239.549 114.026 239.61 114.026C239.674 114.026 239.951 114.015 240.345 113.999C241.311 113.96 242.976 113.893 243.911 113.893C244.395 113.893 244.615 113.98 244.615 114.245C244.615 114.418 244.436 114.505 244.263 114.505C243.894 114.519 243.527 114.563 243.166 114.638C241.983 114.828 241.63 115.602 241.544 117.137C241.452 118.534 241.452 119.769 241.452 126.615V134.339C241.452 138.547 241.452 142.016 241.671 143.857C241.821 145.116 242.087 146.097 243.403 146.27Z" fill="#1D1D23"/>
<path d="M273.54 141.138C273.321 141.138 273.234 141.312 273.147 141.796C272.836 143.592 272.31 144.469 271.173 144.954C270.036 145.439 268.102 145.439 266.96 145.439C262.659 145.439 262.001 144.862 261.868 141.837C261.839 141.176 261.852 138.355 261.861 136.267C261.865 135.454 261.868 134.752 261.868 134.333V130.471C261.864 130.429 261.868 130.387 261.882 130.347C261.897 130.307 261.919 130.272 261.95 130.242C261.98 130.213 262.016 130.19 262.056 130.177C262.096 130.164 262.138 130.16 262.18 130.165C262.925 130.165 267.265 130.252 268.449 130.384C270.18 130.558 270.556 131.302 270.758 131.92C270.893 132.388 270.952 132.876 270.931 133.363C270.931 133.582 271.017 133.761 271.237 133.761C271.456 133.761 271.543 133.276 271.543 132.924C271.543 132.572 271.635 130.996 271.722 130.119C271.804 129.219 271.918 128.59 271.992 128.18C272.037 127.93 272.068 127.76 272.068 127.66C272.068 127.394 271.981 127.314 271.854 127.314C271.727 127.314 271.502 127.533 271.196 127.891C270.798 128.33 270.186 128.422 269.13 128.508C268.074 128.595 262.728 128.595 262.157 128.595C261.938 128.595 261.891 128.462 261.891 128.156V116.034C261.891 115.728 261.978 115.596 262.157 115.596C262.642 115.596 267.421 115.642 268.166 115.728C270.533 115.994 270.971 116.519 271.283 117.218C271.459 117.726 271.547 118.261 271.543 118.799C271.543 119.151 271.635 119.377 271.895 119.377C272.122 119.377 272.155 119.173 272.187 118.975C272.189 118.96 272.192 118.945 272.194 118.93C272.196 118.917 272.198 118.904 272.201 118.892C272.263 118.538 272.322 117.55 272.367 116.809L272.367 116.805C272.389 116.447 272.407 116.147 272.42 116.006C272.497 115.291 272.604 114.822 272.679 114.489C272.734 114.249 272.772 114.079 272.772 113.939C272.772 113.72 272.732 113.547 272.599 113.547C272.53 113.547 272.426 113.593 272.311 113.644C272.204 113.692 272.087 113.744 271.981 113.766C271.359 113.889 270.728 113.962 270.094 113.985C269.09 114.031 260.356 114.031 260.05 114.031L258.203 113.933C257.239 113.893 256.056 113.893 255.045 113.893C254.561 113.893 254.347 113.979 254.347 114.245C254.347 114.418 254.52 114.505 254.693 114.505C255.195 114.504 255.695 114.548 256.188 114.638C257.637 114.943 257.984 115.648 258.076 117.137C258.163 118.539 258.163 119.634 258.163 125.473L258.162 134.339C258.162 138.547 258.162 142.016 257.943 143.857C257.764 145.127 257.545 146.097 256.667 146.27C256.235 146.37 255.795 146.428 255.351 146.443C255.092 146.443 255.005 146.576 255.005 146.709C255.005 146.974 255.224 147.061 255.703 147.061C256.009 147.061 256.39 147.042 256.799 147.022C257.271 146.999 257.779 146.974 258.249 146.974C258.94 146.974 259.578 146.946 259.848 146.933C259.921 146.93 259.967 146.928 259.981 146.928C260.639 146.928 261.712 146.974 263.404 147.061C265.095 147.147 267.525 147.194 270.815 147.194C272.547 147.194 272.882 147.194 273.188 146.039C273.407 145.115 273.765 142.137 273.765 141.785C273.765 141.757 273.765 141.729 273.765 141.702C273.767 141.388 273.768 141.138 273.54 141.138Z" fill="#1D1D23"/>
<path d="M291.833 127.273L293.062 128.237C298.24 132.341 299.464 135.037 299.452 138.547C299.444 139.968 299.102 141.368 298.455 142.633C297.807 143.898 296.871 144.994 295.723 145.831C293.764 147.103 291.466 147.751 289.131 147.69C287.106 147.747 285.094 147.343 283.249 146.507C282.637 146.201 282.591 145.993 282.591 144.838C282.591 143.123 282.701 141.675 282.768 140.789C282.786 140.542 282.802 140.339 282.81 140.186C282.857 139.707 282.897 139.487 283.162 139.487C283.428 139.487 283.468 139.62 283.468 139.966C283.455 140.512 283.499 141.058 283.601 141.594C284.259 144.838 287.157 146.068 290.095 146.068C294.309 146.068 296.37 143.037 296.37 140.232C296.37 137.207 295.094 135.453 291.325 132.335L289.35 130.713C284.698 126.898 283.647 124.173 283.647 121.195C283.647 116.496 287.157 113.292 292.727 113.292C294.1 113.275 295.47 113.423 296.808 113.731C297.31 113.862 297.825 113.935 298.344 113.951C298.696 113.951 298.782 114.072 298.782 114.262C298.782 114.301 298.775 114.39 298.764 114.534C298.717 115.1 298.604 116.503 298.604 118.88C298.604 119.584 298.557 119.89 298.298 119.89C298.038 119.89 297.992 119.665 297.945 119.313C297.862 118.557 297.667 117.818 297.368 117.12C297.08 116.658 295.925 114.811 291.885 114.811C288.854 114.811 286.487 116.698 286.487 119.902C286.487 122.401 287.642 123.983 291.833 127.273Z" fill="#1D1D23"/>
</svg>
