<svg width="400" height="220" viewBox="0 0 400 220" fill="none" xmlns="http://www.w3.org/2000/svg">
<path d="M170.676 39.8662C199.601 39.8662 223.05 64.6628 223.05 95.2508C223.05 125.839 199.601 150.635 170.676 150.635C151.229 150.635 134.258 139.428 125.223 122.788L125.224 200H118V42.2742H125.224L125.223 67.7137C134.258 51.0737 151.229 39.8662 170.676 39.8662ZM179.454 171.632C180.052 171.632 180.609 171.755 181.126 172.003C181.609 172.234 182.075 172.604 182.525 173.115L182.622 173.226V171.837H183.658L183.657 178.353C183.649 179.401 183.551 180.174 183.364 180.671C183.094 181.405 182.627 181.971 181.96 182.368C181.294 182.765 180.493 182.963 179.557 182.963C178.871 182.963 178.255 182.867 177.709 182.673C177.163 182.48 176.718 182.22 176.375 181.894C176.055 181.59 175.759 181.155 175.485 180.588L175.427 180.465H176.544L176.606 180.569C176.901 181.046 177.272 181.403 177.72 181.641C178.2 181.895 178.795 182.023 179.506 182.023C180.206 182.023 180.798 181.892 181.281 181.63C181.763 181.367 182.107 181.038 182.313 180.641C182.509 180.263 182.612 179.665 182.621 178.847L182.622 178.723V178.312L182.537 178.415C182.167 178.855 181.722 179.196 181.203 179.44C180.645 179.702 180.052 179.833 179.425 179.833C178.69 179.833 177.999 179.65 177.353 179.285C176.706 178.92 176.206 178.429 175.853 177.812C175.501 177.195 175.324 176.516 175.324 175.776C175.324 175.037 175.508 174.347 175.876 173.708C176.243 173.068 176.751 172.562 177.4 172.19C178.05 171.818 178.734 171.632 179.454 171.632ZM141.417 171.632C142.554 171.632 143.526 172.041 144.335 172.859C145.143 173.677 145.547 174.662 145.547 175.813C145.547 176.989 145.147 177.987 144.346 178.808C143.545 179.628 142.579 180.039 141.447 180.039C140.81 180.039 140.224 179.906 139.69 179.642C139.195 179.396 138.743 179.038 138.336 178.569L138.243 178.459V182.758H137.221V171.837H138.243V173.307L138.325 173.197C138.712 172.693 139.153 172.311 139.646 172.05C140.175 171.771 140.766 171.632 141.417 171.632ZM198.598 171.837H199.634L199.634 175.693L199.637 175.927L199.641 176.148L199.649 176.354L199.659 176.546C199.66 176.577 199.662 176.607 199.664 176.637L199.678 176.808C199.683 176.863 199.688 176.915 199.693 176.965L199.712 177.108C199.731 177.244 199.754 177.358 199.781 177.452C199.928 177.942 200.208 178.329 200.622 178.613C201.036 178.897 201.53 179.039 202.103 179.039C202.676 179.039 203.163 178.901 203.562 178.624C203.961 178.347 204.237 177.983 204.389 177.533C204.413 177.459 204.435 177.365 204.454 177.251L204.472 177.13L204.487 176.996L204.501 176.849L204.513 176.689L204.523 176.516L204.531 176.329L204.537 176.129L204.541 175.915L204.543 175.571V171.837H205.594V175.762L205.593 175.904C205.582 176.936 205.454 177.719 205.208 178.253C204.951 178.811 204.564 179.249 204.047 179.565C203.53 179.881 202.882 180.039 202.103 180.039C201.324 180.039 200.674 179.881 200.152 179.565C199.63 179.249 199.241 178.808 198.984 178.242C198.738 177.701 198.609 176.898 198.598 175.835L198.598 175.688V171.837ZM209.68 171.632C210.385 171.632 211.095 171.963 211.81 172.627L211.899 172.712L211.238 173.395L211.159 173.321C210.638 172.836 210.127 172.594 209.628 172.594C209.295 172.594 209.01 172.705 208.772 172.925C208.534 173.145 208.416 173.403 208.416 173.697C208.416 173.956 208.514 174.204 208.71 174.439C208.895 174.666 209.272 174.929 209.842 175.23L209.944 175.284C210.708 175.681 211.228 176.063 211.502 176.43C211.772 176.803 211.906 177.222 211.906 177.687C211.906 178.343 211.676 178.899 211.215 179.355C210.755 179.811 210.179 180.039 209.489 180.039C209.028 180.039 208.588 179.938 208.169 179.737C207.785 179.553 207.462 179.305 207.2 178.993L207.13 178.907L207.776 178.172L207.845 178.248C208.349 178.79 208.882 179.061 209.444 179.061C209.856 179.061 210.206 178.929 210.495 178.664C210.784 178.4 210.929 178.089 210.929 177.731C210.929 177.437 210.833 177.175 210.642 176.945C210.499 176.776 210.221 176.574 209.807 176.338L209.635 176.243L209.448 176.143C209.415 176.126 209.382 176.109 209.349 176.092C208.629 175.72 208.139 175.353 207.879 174.99C207.62 174.627 207.49 174.213 207.49 173.748C207.49 173.141 207.697 172.636 208.111 172.234C208.525 171.832 209.048 171.632 209.68 171.632ZM192.66 171.632C193.89 171.632 194.909 172.077 195.717 172.969C196.452 173.782 196.819 174.745 196.819 175.857C196.819 176.974 196.431 177.95 195.655 178.786C194.878 179.621 193.88 180.039 192.66 180.039C191.435 180.039 190.435 179.621 189.658 178.786C188.882 177.95 188.493 176.974 188.493 175.857C188.493 174.75 188.861 173.79 189.596 172.976C190.404 172.08 191.425 171.632 192.66 171.632ZM226.707 171.632C228.069 171.632 229.156 172.148 229.969 173.182C230.523 173.882 230.816 174.748 230.849 175.78L230.851 175.916H223.664L223.668 176.031C223.709 176.91 224.004 177.635 224.553 178.205C225.127 178.8 225.835 179.098 226.677 179.098C227.084 179.098 227.479 179.027 227.864 178.885C228.249 178.743 228.576 178.554 228.845 178.319C229.097 178.099 229.367 177.754 229.657 177.283L229.72 177.18L230.587 177.636L230.52 177.762C230.252 178.263 229.946 178.671 229.602 178.988C229.23 179.331 228.811 179.591 228.345 179.77C227.88 179.949 227.353 180.039 226.765 180.039C225.462 180.039 224.443 179.611 223.708 178.756C222.973 177.901 222.606 176.935 222.606 175.857C222.606 174.843 222.917 173.939 223.539 173.145C224.328 172.136 225.384 171.632 226.707 171.632ZM262.701 171.632C263.406 171.632 264.116 171.963 264.831 172.627L264.92 172.712L264.259 173.395L264.18 173.321C263.659 172.836 263.148 172.594 262.649 172.594C262.316 172.594 262.031 172.705 261.793 172.925C261.555 173.145 261.437 173.403 261.437 173.697C261.437 173.956 261.535 174.204 261.731 174.439C261.916 174.666 262.293 174.929 262.863 175.23L262.965 175.284C263.729 175.681 264.249 176.063 264.523 176.43C264.793 176.803 264.927 177.222 264.927 177.687C264.927 178.343 264.697 178.899 264.236 179.355C263.776 179.811 263.2 180.039 262.51 180.039C262.049 180.039 261.609 179.938 261.19 179.737C260.806 179.553 260.483 179.305 260.221 178.993L260.151 178.907L260.797 178.172L260.866 178.248C261.37 178.79 261.903 179.061 262.465 179.061C262.877 179.061 263.227 178.929 263.516 178.664C263.805 178.4 263.95 178.089 263.95 177.731C263.95 177.437 263.854 177.175 263.663 176.945C263.53 176.787 263.278 176.6 262.909 176.385L262.744 176.291C262.715 176.275 262.686 176.259 262.656 176.243L262.469 176.143C262.436 176.126 262.403 176.109 262.37 176.092C261.65 175.72 261.16 175.353 260.9 174.99C260.641 174.627 260.511 174.213 260.511 173.748C260.511 173.141 260.718 172.636 261.132 172.234C261.546 171.832 262.069 171.632 262.701 171.632ZM163.581 171.632C164.287 171.632 164.997 171.963 165.711 172.627L165.8 172.712L165.139 173.395L165.061 173.321C164.539 172.836 164.029 172.594 163.53 172.594C163.197 172.594 162.911 172.705 162.674 172.925C162.436 173.145 162.317 173.403 162.317 173.697C162.317 173.956 162.415 174.204 162.611 174.439C162.796 174.666 163.174 174.929 163.743 175.23L163.846 175.284C164.61 175.681 165.129 176.063 165.404 176.43C165.673 176.803 165.808 177.222 165.808 177.687C165.808 178.343 165.578 178.899 165.117 179.355C164.656 179.811 164.081 180.039 163.39 180.039C162.93 180.039 162.49 179.938 162.071 179.737C161.687 179.553 161.364 179.305 161.101 178.993L161.031 178.907L161.678 178.172L161.746 178.248C162.25 178.79 162.784 179.061 163.346 179.061C163.758 179.061 164.108 178.929 164.397 178.664C164.686 178.4 164.83 178.089 164.83 177.731C164.83 177.437 164.735 177.175 164.544 176.945C164.41 176.787 164.159 176.6 163.79 176.385L163.624 176.291C163.596 176.275 163.566 176.259 163.536 176.243L163.349 176.143C163.317 176.126 163.284 176.109 163.25 176.092C162.53 175.72 162.04 175.353 161.781 174.99C161.521 174.627 161.391 174.213 161.391 173.748C161.391 173.141 161.598 172.636 162.012 172.234C162.426 171.832 162.949 171.632 163.581 171.632ZM155.718 171.632C157.08 171.632 158.168 172.148 158.981 173.182C159.535 173.882 159.828 174.748 159.86 175.78L159.863 175.916H152.676L152.68 176.031C152.72 176.91 153.016 177.635 153.565 178.205C154.138 178.8 154.846 179.098 155.689 179.098C156.095 179.098 156.491 179.027 156.875 178.885C157.26 178.743 157.587 178.554 157.856 178.319C158.108 178.099 158.379 177.754 158.669 177.283L158.731 177.18L159.598 177.636L159.532 177.762C159.263 178.263 158.957 178.671 158.613 178.988C158.241 179.331 157.822 179.591 157.357 179.77C156.891 179.949 156.365 180.039 155.777 180.039C154.474 180.039 153.455 179.611 152.72 178.756C151.985 177.901 151.617 176.935 151.617 175.857C151.617 174.843 151.929 173.939 152.551 173.145C153.339 172.136 154.395 171.632 155.718 171.632ZM254.837 171.632C256.199 171.632 257.287 172.148 258.1 173.182C258.654 173.882 258.947 174.748 258.979 175.78L258.982 175.916H251.795L251.799 176.031C251.84 176.91 252.135 177.635 252.684 178.205C253.257 178.8 253.965 179.098 254.808 179.098C255.215 179.098 255.61 179.027 255.995 178.885C256.379 178.743 256.706 178.554 256.976 178.319C257.227 178.099 257.498 177.754 257.788 177.283L257.85 177.18L258.718 177.636L258.651 177.762C258.383 178.263 258.077 178.671 257.733 178.988C257.361 179.331 256.942 179.591 256.476 179.77C256.011 179.949 255.484 180.039 254.896 180.039C253.593 180.039 252.574 179.611 251.839 178.756C251.104 177.901 250.737 176.935 250.737 175.857C250.737 174.843 251.048 173.939 251.67 173.145C252.459 172.136 253.515 171.632 254.837 171.632ZM275.976 169.621C276.902 169.621 277.765 169.851 278.565 170.312C279.365 170.773 279.999 171.409 280.467 172.22C280.934 173.032 281.168 173.894 281.168 174.806C281.168 175.741 280.936 176.609 280.473 177.409C280.01 178.209 279.375 178.843 278.569 179.31C277.762 179.778 276.897 180.011 275.976 180.011C275.054 180.011 274.19 179.779 273.383 179.314C272.576 178.848 271.94 178.215 271.475 177.412C271.01 176.61 270.777 175.75 270.777 174.833C270.777 173.907 271.01 173.038 271.475 172.227C271.94 171.416 272.575 170.778 273.38 170.315C274.185 169.852 275.05 169.621 275.976 169.621ZM219.821 168.868V171.837H221.452V172.719H219.821V179.833H218.785V172.719H217.381V171.837H218.785V168.868H219.821ZM186.744 171.837V179.833H185.708V171.837H186.744ZM233.093 171.837L235.209 174.799L237.325 171.837H238.56L235.826 175.637L238.905 179.833H237.656L235.209 176.474L232.799 179.833H231.571L234.599 175.637L231.858 171.837H233.093ZM241.926 168.868V171.837H243.557V172.719H241.926V179.833H240.89V172.719H239.486V171.837H240.89V168.868H241.926ZM245.975 171.837V179.833H244.939V171.837H245.975ZM173.605 171.837V179.833H172.569V171.837H173.605ZM248.981 168.751V179.833H247.952V168.751H248.981ZM169.556 168.868V171.837H171.187V172.719H169.556V179.833H168.519V172.719H167.116V171.837H168.519V168.868H169.556ZM150.214 171.632C150.472 171.632 150.747 171.706 151.037 171.856L151.125 171.904L150.589 172.771L150.509 172.738C150.328 172.667 150.173 172.631 150.045 172.631C149.702 172.631 149.371 172.772 149.053 173.054C148.734 173.335 148.492 173.773 148.325 174.365C148.294 174.475 148.267 174.612 148.244 174.777L148.225 174.924C148.219 174.975 148.213 175.029 148.208 175.085L148.192 175.259L148.179 175.446L148.167 175.646L148.157 175.86L148.149 176.087L148.142 176.328L148.138 176.581L148.135 176.848L148.134 177.128V179.833H147.083V171.837H148.134V173.006L148.207 172.902C148.499 172.493 148.805 172.184 149.126 171.973C149.474 171.746 149.837 171.632 150.214 171.632ZM275.989 170.322C275.191 170.322 274.443 170.523 273.744 170.924C273.045 171.325 272.496 171.875 272.097 172.574C271.698 173.273 271.498 174.024 271.498 174.826C271.498 175.624 271.698 176.369 272.097 177.062C272.496 177.754 273.046 178.301 273.747 178.702C274.448 179.103 275.195 179.304 275.989 179.304C276.778 179.304 277.519 179.102 278.211 178.699C278.904 178.295 279.449 177.748 279.848 177.058C280.247 176.368 280.447 175.62 280.447 174.813C280.447 174.019 280.246 173.273 279.845 172.574C279.444 171.875 278.899 171.325 278.211 170.924C277.524 170.523 276.783 170.322 275.989 170.322ZM141.337 172.624C140.445 172.624 139.694 172.935 139.084 173.557C138.474 174.179 138.169 174.953 138.169 175.879C138.169 176.487 138.305 177.033 138.577 177.518C138.849 178.003 139.239 178.388 139.746 178.672C140.253 178.956 140.788 179.098 141.351 179.098C141.905 179.098 142.425 178.955 142.913 178.668C143.4 178.381 143.789 177.981 144.078 177.466C144.367 176.952 144.511 176.413 144.511 175.85C144.511 175.281 144.368 174.743 144.081 174.233C143.795 173.724 143.409 173.328 142.924 173.046C142.439 172.765 141.91 172.624 141.337 172.624ZM192.66 172.638C191.808 172.638 191.075 172.954 190.463 173.586C189.85 174.218 189.544 174.983 189.544 175.879C189.544 176.457 189.684 176.996 189.963 177.496C190.242 177.996 190.62 178.381 191.095 178.653C191.57 178.925 192.092 179.061 192.66 179.061C193.228 179.061 193.75 178.925 194.225 178.653C194.7 178.381 195.078 177.996 195.357 177.496C195.636 176.996 195.776 176.457 195.776 175.879C195.776 174.983 195.468 174.218 194.854 173.586C194.239 172.954 193.508 172.638 192.66 172.638ZM179.587 172.624C179.004 172.624 178.462 172.765 177.963 173.046C177.463 173.328 177.071 173.717 176.787 174.215C176.503 174.712 176.361 175.25 176.361 175.828C176.361 176.705 176.654 177.43 177.242 178.003C177.83 178.576 178.592 178.863 179.528 178.863C180.473 178.863 181.234 178.579 181.81 178.01C182.385 177.442 182.673 176.695 182.673 175.769C182.673 175.166 182.541 174.629 182.276 174.156C182.012 173.683 181.637 173.31 181.152 173.035C180.667 172.761 180.145 172.624 179.587 172.624ZM276.307 171.784L276.414 171.784C276.94 171.791 277.323 171.849 277.563 171.959C277.819 172.076 278.027 172.267 278.188 172.531C278.349 172.796 278.43 173.104 278.43 173.457C278.43 173.761 278.372 174.024 278.258 174.244C278.169 174.407 277.978 174.586 277.682 174.78C277.951 174.912 278.132 175.065 278.225 175.239C278.311 175.401 278.357 175.67 278.363 176.047L278.363 176.136V176.81L278.365 176.896C278.376 177.144 278.432 177.358 278.535 177.538L278.674 177.763H277.616L277.592 177.668C277.546 177.474 277.512 177.254 277.488 177.008L277.477 176.883L277.431 176.149L277.425 176.071C277.404 175.843 277.363 175.679 277.302 175.58C277.234 175.47 277.137 175.39 277.011 175.342C276.905 175.301 276.709 175.277 276.424 175.271L276.26 175.269H274.759V177.763H273.813V171.784H276.307ZM254.852 172.616C254.068 172.616 253.395 172.869 252.831 173.373C252.444 173.719 252.146 174.228 251.936 174.899L251.898 175.027H257.85C257.713 174.478 257.514 174.04 257.252 173.711C256.989 173.383 256.643 173.118 256.212 172.918C255.781 172.717 255.327 172.616 254.852 172.616ZM155.733 172.616C154.949 172.616 154.275 172.869 153.712 173.373C153.324 173.719 153.026 174.228 152.817 174.899L152.779 175.027H158.731C158.594 174.478 158.394 174.04 158.132 173.711C157.87 173.383 157.523 173.118 157.092 172.918C156.661 172.717 156.208 172.616 155.733 172.616ZM226.721 172.616C225.937 172.616 225.264 172.869 224.7 173.373C224.313 173.719 224.015 174.228 223.805 174.899L223.767 175.027H229.72C229.582 174.478 229.383 174.04 229.121 173.711C228.859 173.383 228.512 173.118 228.081 172.918C227.65 172.717 227.197 172.616 226.721 172.616ZM276.287 172.644H274.759V174.416H276.227C276.673 174.416 276.975 174.365 277.133 174.264C277.367 174.118 277.484 173.871 277.484 173.523C277.484 173.219 277.4 172.996 277.233 172.855C277.076 172.723 276.791 172.653 276.377 172.644L276.287 172.644ZM245.453 168.545C245.688 168.545 245.889 168.628 246.056 168.795C246.222 168.962 246.306 169.162 246.306 169.398C246.306 169.628 246.222 169.826 246.056 169.993C245.889 170.159 245.688 170.243 245.453 170.243C245.223 170.243 245.024 170.159 244.858 169.993C244.691 169.826 244.608 169.628 244.608 169.398C244.608 169.162 244.691 168.962 244.858 168.795C245.024 168.628 245.223 168.545 245.453 168.545ZM186.223 168.545C186.458 168.545 186.659 168.628 186.825 168.795C186.992 168.962 187.075 169.162 187.075 169.398C187.075 169.628 186.992 169.826 186.825 169.993C186.659 170.159 186.458 170.243 186.223 170.243C185.992 170.243 185.794 170.159 185.627 169.993C185.461 169.826 185.377 169.628 185.377 169.398C185.377 169.162 185.461 168.962 185.627 168.795C185.794 168.628 185.992 168.545 186.223 168.545ZM173.083 168.545C173.318 168.545 173.519 168.628 173.686 168.795C173.852 168.962 173.935 169.162 173.935 169.398C173.935 169.628 173.852 169.826 173.686 169.993C173.519 170.159 173.318 170.243 173.083 170.243C172.853 170.243 172.654 170.159 172.488 169.993C172.321 169.826 172.238 169.628 172.238 169.398C172.238 169.162 172.321 168.962 172.488 168.795C172.654 168.628 172.853 168.545 173.083 168.545ZM252.548 20L252.548 42.5753H281.144V49.7993H252.548L252.548 117.068C252.593 118.594 252.812 119.923 253.204 121.052L253.631 122.622L253.782 123.168L253.936 123.704L254.014 123.969L254.133 124.362L254.215 124.622L254.299 124.881L254.385 125.139L254.473 125.395L254.518 125.523L254.611 125.779L254.707 126.034L254.807 126.289L254.91 126.545C254.945 126.63 254.981 126.715 255.017 126.8L255.129 127.056L255.245 127.312L255.305 127.441L255.429 127.699C255.639 128.13 255.872 128.566 256.132 129.012L256.292 129.281C256.455 129.551 256.628 129.825 256.814 130.104L257.003 130.384C257.647 131.325 258.426 132.322 259.386 133.414L259.679 133.744C260.078 134.189 260.506 134.649 260.967 135.127C263.847 137.768 266.92 139.371 271.051 140.234L271.43 140.311C272.193 140.46 272.992 140.584 273.832 140.687L274.255 140.736L274.47 140.759L274.904 140.803L275.124 140.823L275.568 140.862L275.794 140.88L276.25 140.913C276.48 140.929 276.713 140.943 276.948 140.956L277.475 140.983L278.011 141.006C278.191 141.013 278.373 141.019 278.557 141.025L279.113 141.04C279.488 141.049 279.869 141.055 280.257 141.059L280.846 141.063H281.144V148.287H280.838L280.229 148.283L279.927 148.28L279.327 148.271L278.768 148.259L278.491 148.251L277.939 148.234C277.39 148.214 276.848 148.189 276.313 148.158L275.78 148.124L275.31 148.09C275.155 148.079 274.999 148.066 274.845 148.053L274.382 148.012C267.318 147.358 261.456 145.377 256.084 140.451L255.771 140.161L255.616 140.016L255.233 139.652L254.857 139.286L254.722 139.153L254.454 138.884C253.834 138.256 253.244 137.615 252.682 136.948L252.443 136.661C249.242 132.76 247.016 127.948 245.698 119.845L245.324 117.525L245.324 111.613C245.239 109.758 245.199 107.787 245.204 105.69L245.208 104.897C245.212 104.365 245.219 103.825 245.229 103.276L245.246 102.448L245.257 102.029L245.28 101.181C245.293 100.755 245.308 100.323 245.324 99.8871L245.324 49.7993H230.876V42.5753H245.324L245.324 20H252.548ZM170.676 47.0903C145.833 47.0903 125.525 68.565 125.525 95.2508C125.525 121.937 145.833 143.411 170.676 143.411C195.518 143.411 215.826 121.937 215.826 95.2508C215.826 68.565 195.518 47.0903 170.676 47.0903Z" fill="#1D1D23"/>
</svg>
