<svg width="400" height="220" viewBox="0 0 400 220" fill="none" xmlns="http://www.w3.org/2000/svg">
<path d="M328 128.738V131.523H313.54V128.738H316.432C317.289 128.738 317.931 128.31 317.931 127.667V113.421C317.931 113.421 317.717 106.673 313.326 106.673C308.72 106.673 306.47 112.564 306.47 114.599V127.453C306.47 128.31 307.22 128.738 308.184 128.738H310.862C310.862 129.595 310.862 131.523 310.862 131.523H296.509V128.738H299.187C300.151 128.738 300.9 128.524 300.9 127.774V107.423C300.151 105.28 295.866 105.923 295.866 105.923V103.245L305.828 102.603C305.935 104.423 306.042 106.351 306.256 108.172C308.291 104.852 311.612 102.603 314.825 102.603C320.288 102.603 323.501 106.994 323.501 112.885V127.774C323.501 128.845 324.572 128.845 325.536 128.845L328 128.738ZM250.986 110.957C248.094 106.78 252.271 103.995 255.913 104.531C260.197 105.28 262.661 109.244 263.732 113.1C264.482 113.1 265.232 113.1 265.982 113.1V102.603H264.054C263.625 103.352 263.09 103.995 262.554 104.531H262.233C260.733 103.459 259.126 102.603 257.305 102.067C253.985 101.21 250.45 102.388 248.308 105.173C246.38 107.851 245.951 111.279 247.023 114.278C248.201 116.634 250.343 118.348 252.914 118.991C256.341 120.49 261.161 119.741 263.197 123.382C264.803 126.81 261.161 129.916 256.984 129.488C252.057 128.738 248.844 124.132 247.879 119.633H245.737V131.63H247.772C248.522 130.88 248.844 129.809 249.808 129.167C253.128 131.951 258.484 133.451 262.554 131.095C266.303 129.059 268.231 124.775 267.16 120.597C266.517 117.277 262.982 115.028 259.983 114.385C258.269 113.849 252.7 113.207 250.986 110.957ZM238.668 102.603C234.383 102.603 231.705 108.601 230.527 112.457L230.206 112.778L229.992 103.031L219.709 103.352V105.923C219.709 105.923 222.172 106.03 222.922 106.03C223.672 106.03 225.493 106.78 225.493 108.172V127.56C225.493 128.417 224.422 128.952 223.779 128.952H220.244V131.523H237.382V128.845H232.241C231.384 128.845 230.741 128.203 230.634 127.346V127.238V123.275C230.849 119.526 231.598 115.777 232.777 112.243C232.991 111.6 234.383 107.423 237.061 105.923C238.882 104.959 238.561 105.923 237.918 106.887C237.061 108.279 237.275 110.1 238.561 111.279C244.238 115.242 247.88 102.603 238.668 102.603ZM219.816 123.382L217.567 122.311C217.567 122.311 213.282 131.737 205.784 128.31C203.213 127.131 200.964 125.096 200.964 117.598H219.602C219.602 117.598 220.137 104.209 210.176 102.174C205.677 101.424 201.178 103.245 198.393 106.78C191.538 115.67 194.216 132.38 208.783 132.38C216.817 132.273 219.816 123.382 219.816 123.382ZM213.71 113.1C213.818 113.849 213.282 114.599 212.532 114.706C212.425 114.706 212.211 114.706 212.104 114.706H201.178C201.285 111.064 202.571 104.531 207.605 104.531C213.175 104.423 213.603 109.779 213.71 113.1ZM185.218 91.0343V106.78C183.933 104.638 181.898 103.031 179.434 102.388C174.293 101.531 170.115 104.316 167.759 108.279C164.76 113.635 164.438 120.169 167.009 125.739C168.723 128.845 171.936 131.737 175.685 132.059C179.649 132.38 183.397 130.452 185.54 127.131C185.754 128.631 185.968 131.523 185.968 131.523H195.608V128.845C194.323 128.952 193.038 128.845 191.859 128.524C191.217 128.203 190.788 127.453 190.681 126.703V86L179.434 86.7498V89.6418H183.612C184.147 89.6418 185.218 90.4987 185.218 91.0343ZM177.292 128.845C173.864 128.845 171.508 124.346 171.508 116.956C171.508 110.636 173.65 105.387 178.47 105.387C184.04 105.387 185.218 111.279 185.218 118.134C185.218 129.702 178.256 128.845 177.292 128.845ZM161.118 127.774V114.385C161.118 112.564 161.654 104.102 153.299 102.71C149.014 102.174 145.801 104.959 143.766 108.172C143.444 106.351 143.444 104.423 143.337 102.603C140.017 102.817 133.269 103.459 133.269 103.459V105.923C133.269 105.923 136.268 105.709 137.339 106.244C137.982 106.566 138.41 107.208 138.41 107.958V127.774C138.41 129.167 133.911 128.845 133.911 128.845V131.523H148.372V128.738C148.372 128.738 143.98 129.167 143.98 127.667V113.849C143.98 111.493 147.086 106.673 150.3 106.673C153.299 106.673 155.655 109.136 155.548 112.136C155.548 112.243 155.548 112.35 155.548 112.35V127.667C155.548 129.059 151.049 128.845 151.049 128.845V131.523H165.617V128.845C165.724 128.845 161.118 129.059 161.118 127.774V114.385V127.774ZM133.483 128.845C133.483 128.845 132.733 127.988 132.412 127.774L131.662 128.31C131.019 128.631 130.269 128.631 129.627 128.31C128.77 127.667 128.234 126.703 128.341 125.632V111.493C128.449 109.672 128.02 107.851 127.27 106.137C125.021 102.924 120.951 101.96 116.88 102.495C112.81 103.031 108.74 104.852 107.347 108.922C106.919 110.422 107.454 112.028 108.633 113.1C109.704 113.956 111.203 114.171 112.489 113.635C114.095 112.671 114.524 110.529 113.453 108.922C113.346 108.815 113.238 108.601 113.131 108.494C112.596 107.851 112.274 107.423 113.131 106.566C113.988 105.709 117.737 103.888 121.058 106.137C123.414 107.851 122.986 111.279 122.772 113.956C116.559 115.135 103.063 117.92 105.955 127.346C106.812 129.702 108.847 131.416 111.31 131.951C115.916 132.915 120.629 130.88 123.307 127.024C125.556 133.13 129.734 131.844 131.019 131.202C132.09 130.666 132.84 129.809 133.483 128.845ZM74.0351 106.137C77.2485 111.386 81.7473 111.707 89.1381 113.742C92.9941 114.813 96.1004 116.42 97.2787 118.669C98.564 121.562 98.1356 124.882 96.1004 127.238C93.5297 130.238 89.031 130.666 85.282 129.595C78.7481 127.238 75.749 120.919 74.1423 114.813L72 114.921V132.166H74.5707L77.3556 128.524L79.4979 130.131C84.1038 133.558 91.7088 134.201 96.7431 131.095C102.313 127.881 104.027 120.597 102.313 114.278C100.813 109.458 95.8862 107.101 91.3874 105.816C86.8887 104.102 80.8904 104.423 77.9983 100.032C77.0343 97.5682 77.3556 94.569 78.9623 92.3197C80.7833 89.8561 83.7824 89.2134 86.6745 89.5347C93.7439 90.4987 97.0644 97.6753 98.564 103.674H100.813V87.1782H98.3498L95.8862 90.6059C95.8862 90.6059 91.7088 86.1071 83.5682 86.6427C78.2126 87.0711 74.8921 90.9272 73.1782 95.6402C72 99.1749 72.3213 102.924 74.0351 106.137ZM122.129 124.668C120.951 128.417 116.238 130.345 113.56 128.738C111.632 127.56 110.561 122.954 113.774 119.741C115.916 117.598 122.879 116.741 122.879 116.741C123.2 119.419 122.879 122.097 122.129 124.668ZM283.12 105.173C288.582 105.173 290.189 112.136 290.082 117.17C289.975 122.204 289.011 130.023 283.227 130.023C278.621 130.023 275.836 124.775 275.836 118.241C275.836 111.707 277.764 105.173 283.12 105.173ZM269.516 117.598C269.516 127.238 277.014 132.594 283.655 132.594C289.868 132.594 296.616 125.953 296.616 117.705C296.616 109.244 290.296 102.495 282.584 102.495C276.8 102.603 269.516 108.28 269.516 117.598Z" fill="#1D1D23"/>
</svg>
