<svg width="400" height="220" viewBox="0 0 400 220" fill="none" xmlns="http://www.w3.org/2000/svg">
<path fill-rule="evenodd" clip-rule="evenodd" d="M219.709 112.817C220.044 112.657 220.352 112.446 220.622 112.191C220.946 111.875 221.258 111.546 221.57 111.217C222.031 110.733 222.491 110.248 222.988 109.804C224.455 108.492 224.782 106.851 224.542 104.999C224.525 104.871 224.516 104.742 224.506 104.612L224.506 104.611C224.486 104.338 224.466 104.064 224.381 103.812C224.351 103.721 224.321 103.629 224.291 103.538L224.289 103.533L224.288 103.529L224.288 103.527C224.055 102.817 223.819 102.098 223.448 101.464C223.001 100.698 222.461 100.618 221.78 101.191L221.72 101.242C220.767 102.046 219.792 102.868 219.022 103.836C216.918 106.499 215.127 109.394 213.683 112.465C213.509 112.83 213.284 113.169 213.058 113.508C212.955 113.663 212.852 113.818 212.754 113.976L212.512 113.851C212.637 113.517 212.755 113.181 212.873 112.844L212.874 112.844L212.874 112.843C213.134 112.102 213.394 111.362 213.728 110.655C214.971 108.021 215.078 105.314 214.391 102.538C213.989 100.909 213.223 100.663 211.988 101.762C210.42 103.163 208.858 104.565 207.296 105.967L207.289 105.974L207.281 105.981C206.349 106.817 205.418 107.653 204.485 108.489C204.352 108.608 204.207 108.717 204.029 108.851L204.027 108.853C203.906 108.944 203.769 109.047 203.609 109.173C203.609 108.986 203.611 108.83 203.613 108.692C203.616 108.462 203.619 108.285 203.609 108.108C203.458 105.913 203.221 103.745 201.807 101.914C200.793 100.6 199.691 100.448 198.36 101.444C196.532 102.816 195.204 104.632 194.011 106.524C192.944 108.215 191.941 109.946 190.937 111.677L190.936 111.679C190.442 112.531 189.947 113.384 189.445 114.232C189.313 114.456 189.156 114.667 188.999 114.877C188.925 114.977 188.851 115.076 188.779 115.177L188.568 115.044C188.622 114.847 188.674 114.649 188.725 114.451L188.726 114.449L188.726 114.446L188.727 114.445C188.84 114.013 188.952 113.581 189.091 113.154C191.117 106.68 192.708 100.094 194.299 93.5071L194.302 93.4971C194.71 91.8047 195.119 90.1122 195.536 88.4214C196.497 84.521 197.629 80.6573 198.818 76.8178C199.611 74.2548 201.094 72.1404 203.548 70.8141C206.034 69.4814 209.212 70.0981 210.96 72.323C211.074 72.441 211.199 72.5482 211.333 72.6434C211.373 72.6082 211.415 72.5774 211.455 72.5481C211.537 72.4879 211.61 72.4342 211.637 72.3631C211.835 71.83 212.037 71.2984 212.239 70.7668C212.812 69.2599 213.385 67.7529 213.854 66.2136C214.183 65.1404 213.627 64.4516 212.467 64.1985C209.891 63.6571 207.501 64.2674 205.228 65.4928C199.521 68.5795 195.872 73.5292 193.25 79.2445C191.734 82.5507 190.564 86.0395 189.527 89.5331C188.234 93.8925 187.106 98.3023 185.979 102.711L185.969 102.751C185.78 103.488 185.592 104.226 185.402 104.964C184.52 108.397 183.66 111.836 182.801 115.274L182.799 115.28C182.129 117.963 181.458 120.646 180.776 123.327C180.616 123.957 180.409 124.647 180.006 125.127C179.168 126.096 178.265 127.005 177.304 127.851C176.637 128.453 175.841 128.262 175.63 127.394C175.433 126.593 175.344 125.679 175.511 124.878C176.407 120.521 177.359 116.175 178.366 111.84C178.865 109.671 179.409 107.511 179.953 105.352C180.235 104.231 180.517 103.112 180.792 101.991C181.052 100.938 180.919 100.823 179.831 101.039L179.215 101.163C178.035 101.4 176.855 101.638 175.666 101.829C171.333 102.524 167.729 104.465 164.899 107.866C162.309 110.977 160.438 114.49 158.927 118.208C157.679 121.283 156.662 124.435 156.824 127.819C156.938 130.2 157.625 132.39 159.387 134.109C160.258 134.963 161.095 135.07 162.153 134.455C162.693 134.135 163.155 133.667 163.595 133.212C166.129 130.604 167.968 127.508 169.76 124.381C169.932 124.112 170.117 123.853 170.316 123.604C170.409 123.881 170.415 124.179 170.332 124.46C170.222 124.906 170.107 125.351 169.992 125.796C169.781 126.614 169.569 127.433 169.389 128.259C168.889 130.542 170.087 133.257 171.989 134.441C172.674 134.867 173.169 134.785 173.658 134.223C173.98 133.851 174.3 133.477 174.619 133.102C175.165 132.462 175.711 131.822 176.272 131.197C176.911 130.485 177.566 129.788 178.264 129.045C178.588 128.7 178.921 128.346 179.266 127.976C179.266 128.122 179.268 128.234 179.269 128.325C179.272 128.463 179.274 128.552 179.266 128.64C179.228 129.003 179.186 129.365 179.143 129.728C179.055 130.478 178.966 131.229 178.923 131.982C178.828 133.584 179.223 134.091 180.845 134.354C181.63 134.482 182.424 134.545 183.219 134.609C183.621 134.641 184.022 134.673 184.422 134.713C186.77 134.948 188.907 134.392 190.653 132.791C192.593 131.006 194.515 129.183 196.282 127.229C199.917 123.205 202.339 118.531 203.154 113.133C203.348 111.851 203.787 110.87 204.844 110.138C205.122 109.944 205.387 109.729 205.652 109.513C206.029 109.206 206.406 108.899 206.822 108.657C207.602 108.204 208.158 108.581 208.064 109.458C208.045 109.627 208.028 109.797 208.01 109.966C207.896 111.071 207.781 112.185 207.495 113.248C206.823 115.742 206.106 118.225 205.39 120.707C204.983 122.114 204.577 123.521 204.179 124.93C203.341 127.903 202.528 130.884 201.719 133.865C201.47 134.785 201.559 134.889 202.489 134.9C202.725 134.903 202.961 134.907 203.197 134.91C204.586 134.929 205.975 134.949 207.364 134.913C207.645 134.905 208.004 134.61 208.164 134.348C208.271 134.172 208.307 133.934 208.343 133.696C208.36 133.577 208.378 133.458 208.405 133.346C208.693 132.151 208.977 130.954 209.26 129.757L209.26 129.756C209.922 126.964 210.584 124.171 211.306 121.395C212.225 117.855 213.877 114.627 215.916 111.603C216.326 110.996 216.819 110.296 217.702 110.498C218.439 110.666 218.532 111.302 218.622 111.912C218.635 112.001 218.648 112.089 218.663 112.175C218.663 112.191 218.666 112.207 218.67 112.223L218.67 112.224C218.671 112.229 218.673 112.235 218.674 112.241C218.674 112.245 218.675 112.249 218.676 112.254C218.732 112.952 219.129 113.104 219.709 112.817ZM173.434 107.317C173.28 107.919 173.126 108.522 172.974 109.125L172.725 110.109C171.74 114.003 170.755 117.899 169.672 121.765C169.502 122.368 169.247 122.944 168.915 123.476C168.722 123.791 168.508 124.091 168.274 124.376C167.787 124.952 167.245 125.479 166.656 125.949C166.459 126.109 166.257 126.27 166.054 126.417C165.92 126.525 165.758 126.592 165.588 126.611C165.453 126.623 165.318 126.582 165.213 126.497C165.072 126.378 164.973 126.217 164.929 126.037C164.636 125.022 164.428 123.977 164.228 122.938C164.204 122.801 164.192 122.663 164.194 122.524V122.243C164.194 122.186 164.198 122.129 164.201 122.073L164.203 122.047L164.204 122.014C164.205 121.996 164.206 121.977 164.207 121.959V121.82C164.492 117.152 165.412 112.635 167.611 108.457C167.693 108.297 167.779 108.148 167.869 107.999C168.091 107.63 168.347 107.282 168.633 106.959C168.689 106.897 168.748 106.835 168.807 106.774C168.987 106.59 169.18 106.419 169.384 106.263C169.735 105.994 170.118 105.772 170.526 105.603C170.724 105.52 170.93 105.458 171.141 105.42C171.272 105.398 171.404 105.386 171.537 105.385C171.664 105.384 171.79 105.396 171.915 105.42C172.162 105.465 172.399 105.558 172.61 105.694C172.663 105.728 172.716 105.764 172.77 105.805C172.876 105.887 172.974 105.979 173.063 106.078C173.159 106.186 173.246 106.3 173.323 106.421C173.361 106.483 173.392 106.55 173.413 106.62C173.425 106.657 173.435 106.695 173.443 106.734C173.481 106.926 173.478 107.125 173.434 107.317ZM193.154 126.417C192.494 127.825 191.691 129.14 190.386 130.071C190.109 130.279 189.814 130.462 189.505 130.619C187.696 131.466 186.075 130.348 186.215 128.376C186.444 125.131 187.145 121.993 188.528 119.047C189.782 116.373 191.097 113.724 192.507 111.126C192.958 110.353 193.587 109.699 194.342 109.218C195.058 108.746 195.736 109.066 195.944 109.91C196.127 110.657 196.221 111.426 196.314 112.195C196.355 112.529 196.396 112.864 196.444 113.197C196.215 117.775 195.098 122.265 193.154 126.417Z" fill="#1D1D23"/>
<path d="M326.917 115.808C325.943 111.398 323.309 108.153 319.45 105.877C318.305 105.199 317.025 104.755 315.818 105.497C314.705 106.183 313.678 107.009 312.653 107.834L312.652 107.835C312.392 108.044 312.132 108.254 311.871 108.46C311.739 108.57 311.681 108.762 311.623 108.956C311.596 109.046 311.569 109.136 311.534 109.218C311.609 109.245 311.684 109.279 311.759 109.312C311.924 109.386 312.09 109.46 312.255 109.469C313.944 109.576 315.558 110.208 316.87 111.278C320.85 114.416 322.947 118.486 322.837 123.612C322.795 125.507 322.667 127.405 321.748 129.129C319.825 132.73 317.112 135.586 313.532 137.538C309.125 139.941 304.371 141.103 299.354 141.234C294.576 141.359 291.071 139.24 288.622 135.232C287.821 133.924 287.033 132.609 286.245 131.295C285.14 129.453 284.036 127.612 282.9 125.791C281.41 123.399 279.376 121.664 276.541 121.044C276.283 120.988 276.027 120.924 275.742 120.854L275.533 120.803L275.478 120.789L275.317 120.75C275.395 120.682 275.464 120.622 275.527 120.566C275.642 120.466 275.739 120.381 275.841 120.295C276.407 119.84 276.983 119.394 277.56 118.948C278.776 118.007 279.994 117.065 281.127 116.034C283.412 113.959 285.371 111.611 286.317 108.569C286.651 107.54 286.774 106.453 286.677 105.375C286.58 104.296 286.266 103.249 285.754 102.295C284.806 100.462 283.448 100.161 281.956 101.558C280.465 102.955 279.007 104.441 277.792 106.074C276.274 108.134 274.851 110.267 273.428 112.398L273.427 112.4L273.427 112.401L273.423 112.406C272.804 113.334 272.185 114.261 271.559 115.182C271.393 115.396 271.214 115.599 271.022 115.79L270.828 115.689C270.876 115.395 270.943 115.103 271.027 114.816C271.298 114.07 271.576 113.326 271.854 112.583C272.322 111.331 272.79 110.078 273.225 108.814C274.525 105.039 275.818 101.261 277.11 97.4828L277.112 97.4776C278.611 93.0958 280.11 88.7139 281.622 84.3367C282.76 81.0369 283.975 77.7692 285.916 74.817C288.295 71.2033 292.134 70.5401 295.617 71.2705C296.418 71.4307 297.058 71.7975 297.203 72.7282C297.225 72.8755 297.339 73.0092 297.452 73.1428C297.505 73.2039 297.557 73.265 297.6 73.3273C297.667 73.2727 297.742 73.224 297.816 73.1758C297.96 73.0825 298.102 72.9904 298.181 72.8596C299.173 71.2066 299.787 69.3551 299.98 67.4373C300.158 65.781 299.421 64.9193 297.738 65.0138C296.296 65.0955 294.79 65.2621 293.427 65.7266C289.33 67.1186 286.099 69.784 283.308 73.0358C278.818 78.2641 275.876 84.3607 273.431 90.744C268.558 103.567 264.334 116.628 260.777 129.877C260.494 130.923 260.251 131.98 260.007 133.037L260.005 133.046C259.927 133.387 259.848 133.729 259.768 134.07C259.608 134.738 259.891 134.977 260.569 134.958C261.543 134.931 262.518 134.935 263.493 134.939C263.932 134.941 264.37 134.943 264.809 134.942C266.185 134.942 266.279 134.772 266.543 133.431C266.67 132.79 266.791 132.147 266.913 131.504L266.913 131.503C267.356 129.159 267.799 126.813 268.475 124.538C270.216 118.685 273.59 113.673 277.136 108.784C277.354 108.513 277.622 108.288 277.926 108.121C278.844 107.571 279.73 108.028 279.805 109.101C279.839 109.607 279.819 110.115 279.744 110.616C279.264 113.863 277.441 116.375 275.187 118.595C274.276 119.492 273.292 120.313 272.3 121.14C271.849 121.516 271.396 121.893 270.949 122.279C270.976 122.359 271.014 122.434 271.061 122.504C271.182 122.606 271.309 122.704 271.439 122.797C273.865 124.559 275.857 126.664 277.205 129.419C278.878 132.823 280.672 136.161 282.562 139.44C284.164 142.216 286.39 144.422 289.639 145.171C292.833 145.908 296.093 145.953 299.349 145.62C303.696 145.173 307.647 143.504 311.467 141.516C317.584 138.331 322.56 133.952 325.526 127.58C327.275 123.824 327.812 119.867 326.917 115.808Z" fill="#1D1D23"/>
<path d="M124.864 101.073L124.744 100.93C124.462 100.592 124.178 100.255 123.895 99.9182C121.636 97.2327 119.38 94.5498 117.696 91.4458C115.801 87.9522 116.814 84.0693 120.136 81.9309C122.079 80.6798 124.235 80.0199 126.517 79.786C129.518 79.4801 132.425 79.7332 135.094 81.335C136.215 82.0094 136.91 82.9368 137.163 84.2263C137.476 85.8121 137.203 87.3563 136.875 88.9021C136.79 89.3046 136.726 89.7116 136.663 90.1164C136.634 90.2996 136.606 90.4825 136.575 90.6641L136.838 90.8002C136.922 90.7537 137.011 90.7119 137.1 90.67C137.295 90.5777 137.491 90.4853 137.639 90.3421C138.009 89.9784 138.382 89.6166 138.755 89.2548L138.76 89.2499C140.009 88.0376 141.259 86.8244 142.422 85.5366C143.874 83.9647 144.988 82.1109 145.693 80.0904C146.161 78.7096 145.956 77.4297 144.857 76.5199C143.966 75.7694 142.95 75.1802 141.857 74.7787C137.371 73.2105 132.761 73.4652 128.175 74.2196C122.607 75.1359 117.863 77.8382 113.504 81.2981C111.422 82.9496 109.442 84.7261 108.176 87.0936C106.025 91.1174 105.686 95.1893 108.465 99.0897C110.614 102.104 112.79 105.116 115.13 107.978C117.045 110.316 119.023 112.6 121.002 114.885C122.482 116.594 123.961 118.302 125.414 120.032C126.35 121.187 127.172 122.429 127.869 123.742C128.842 125.504 129.257 127.441 128.851 129.459C128.382 131.798 126.841 133.361 124.9 134.553C121.991 136.337 118.813 137.499 115.521 138.338C111.444 139.381 107.26 139.648 103.073 139.829C97.5723 140.068 92.102 139.956 86.6494 139.009C80.3429 137.913 76.9166 132.517 77.0384 127.295C77.1461 122.96 78.2744 118.712 80.3317 114.895C81.5988 112.507 83.3448 110.57 86.0359 109.691C86.1374 109.659 86.2199 109.567 86.3023 109.475C86.3393 109.433 86.3768 109.392 86.4155 109.356C86.3718 109.309 86.3308 109.255 86.2899 109.202C86.2017 109.086 86.1134 108.97 85.9974 108.923C85.5916 108.761 85.1875 108.59 84.7834 108.42L84.7809 108.419C83.6624 107.947 82.5428 107.475 81.3809 107.161C79.0022 106.521 76.6876 106.681 74.8887 108.662C74.1015 109.495 73.3981 110.402 72.7887 111.373C69.8381 116.332 69.3976 121.632 70.6791 127.192C71.8708 132.37 74.5406 136.584 78.6883 139.834C83.5755 143.659 89.2604 145.426 95.4018 145.681C98.9675 145.83 102.546 145.764 106.118 145.693C111.215 145.593 116.186 144.755 120.994 142.985C127.118 140.733 132.42 137.351 136.234 131.956C138.256 129.098 139.343 125.9 139.079 122.345C138.866 119.367 137.725 116.726 135.893 114.451C132.275 109.946 128.569 105.509 124.864 101.073Z" fill="#1D1D23"/>
<path d="M173.722 143.148C173.653 143.098 173.586 143.05 173.527 143.004C173.468 142.958 173.396 142.931 173.319 142.903C173.206 142.861 173.081 142.814 172.971 142.698H176.719C175.968 143.046 175.586 143.224 175.392 143.523C175.191 143.833 175.191 144.273 175.191 145.169V151.979L174.973 152.104L167.822 144.453V149.933C167.834 151.046 167.963 151.219 169.016 151.573C169.166 151.65 169.313 151.735 169.453 151.828H165.581C165.587 151.794 165.591 151.761 165.594 151.733C165.6 151.682 165.604 151.646 165.615 151.646L165.698 151.628C166.873 151.372 167.057 151.332 167.057 149.563C167.057 149.042 167.057 148.521 167.057 148.001C167.057 146.96 167.058 145.919 167.057 144.875C167.055 143.309 167.054 143.308 165.586 142.812L165.585 142.811C166.488 142.321 168.269 142.578 168.932 143.292C170.574 145.059 172.214 146.829 173.853 148.602C173.984 148.765 174.1 148.939 174.201 149.123L174.38 148.999C174.38 148.567 174.383 148.135 174.385 147.703C174.392 146.406 174.4 145.11 174.342 143.816C174.33 143.586 174.008 143.354 173.722 143.148Z" fill="#1D1D23"/>
<path d="M205.22 149.852C204.711 150.798 203.881 151.207 202.866 151.263C201.959 151.319 201.049 151.319 200.143 151.263C199.917 151.247 199.545 150.878 199.532 150.654C199.485 149.857 199.492 149.056 199.499 148.221C199.501 147.92 199.503 147.613 199.503 147.302C199.781 147.302 200.053 147.303 200.321 147.305C200.845 147.309 201.354 147.312 201.861 147.302C202.728 147.279 203.463 147.419 203.687 148.437C203.698 148.486 203.755 148.525 203.829 148.577C203.887 148.616 203.956 148.664 204.022 148.729V145.421C203.96 145.387 203.894 145.361 203.825 145.344C203.795 145.411 203.77 145.482 203.744 145.554C203.688 145.711 203.631 145.868 203.527 145.985C203.496 146.019 203.464 146.055 203.432 146.092C203.217 146.335 202.969 146.616 202.726 146.634C201.968 146.69 201.205 146.681 200.423 146.671H200.421C200.121 146.668 199.819 146.664 199.513 146.664C199.513 146.39 199.511 146.121 199.509 145.856C199.504 145.122 199.499 144.418 199.535 143.717C199.545 143.52 199.833 143.182 200.005 143.174C201.07 143.13 202.138 143.146 203.208 143.174C203.506 143.167 203.797 143.26 204.035 143.439C204.272 143.618 204.442 143.873 204.517 144.16C204.601 144.335 204.709 144.496 204.838 144.641L204.998 144.559V142.698H196.478C197.146 142.969 197.483 143.106 197.653 143.356C197.825 143.609 197.825 143.98 197.825 144.726V149.852C197.825 150.011 197.829 150.155 197.834 150.287C197.86 151.127 197.87 151.431 196.543 151.665C196.527 151.665 196.516 151.699 196.5 151.747C196.491 151.774 196.48 151.805 196.466 151.838C196.557 151.879 196.653 151.908 196.751 151.923C197.636 151.923 198.522 151.924 199.407 151.926H199.418C201.198 151.929 202.978 151.932 204.761 151.923C204.867 151.909 204.968 151.87 205.056 151.809C205.144 151.748 205.217 151.667 205.267 151.572C205.443 151.1 205.582 150.619 205.722 150.139C205.771 149.968 205.821 149.797 205.872 149.626L205.712 149.496C205.666 149.525 205.616 149.552 205.566 149.58C205.425 149.656 205.284 149.734 205.22 149.852Z" fill="#1D1D23"/>
<path d="M147.979 146.793L147.982 146.795L147.983 146.795C148.238 146.938 148.493 147.081 148.744 147.23C149.77 147.838 150.526 148.609 150.289 149.945C150.098 151.016 149.158 151.881 147.761 152.042C146.994 152.111 146.221 152.062 145.469 151.897C145.368 151.878 145.268 151.852 145.168 151.826C144.641 151.689 144.131 151.557 143.611 152.365C143.425 151.161 143.268 150.196 143.112 149.235L143.1 149.161L143.333 149.056C143.358 149.089 143.383 149.122 143.408 149.155L143.453 149.214C143.586 149.388 143.717 149.561 143.825 149.749C144.455 150.847 145.369 151.49 146.651 151.579C147.525 151.638 148.376 151.144 148.602 150.465C148.833 149.752 148.523 149.03 147.711 148.522C147.122 148.154 146.512 147.816 145.902 147.479C145.672 147.351 145.442 147.224 145.212 147.095C143.703 146.246 143.22 145.327 143.631 144.088C144.032 142.901 145.433 142.174 146.915 142.408C147.074 142.433 147.231 142.476 147.388 142.52C147.593 142.576 147.797 142.633 148.006 142.648C148.321 142.671 148.639 142.655 149.028 142.635C149.214 142.626 149.416 142.616 149.641 142.608C149.733 143.368 149.851 144.35 149.971 145.331L149.741 145.429C149.591 145.234 149.456 145.028 149.336 144.812C148.802 143.664 147.658 142.914 146.484 142.99C145.84 143.031 145.244 143.225 145.022 143.906C144.799 144.587 145.144 145.104 145.701 145.466C146.111 145.732 146.537 145.974 146.963 146.216L146.967 146.218C147.119 146.305 147.272 146.391 147.423 146.478C147.607 146.585 147.793 146.689 147.979 146.793Z" fill="#1D1D23"/>
<path d="M190.644 150.39C189.522 151.214 188.262 151.595 186.878 151.412C184.139 151.05 182.694 148.169 183.85 145.375C184.457 143.904 185.576 143.123 187.185 143.062C188.763 143.003 189.909 143.656 190.602 145.085C190.666 145.216 190.742 145.341 190.818 145.466L190.818 145.467C190.849 145.518 190.88 145.569 190.91 145.62L191.054 145.58V142.677C190.805 142.677 190.57 142.687 190.345 142.696C189.883 142.714 189.466 142.731 189.064 142.66C187.623 142.404 186.197 142.301 184.808 142.842C183.136 143.494 181.989 144.648 181.672 146.475C181.352 148.277 181.856 149.839 183.322 150.96C185.068 152.293 187.049 152.425 189.101 151.813C189.998 151.547 190.782 151.077 191.32 150.228C191.082 150.201 190.843 150.258 190.644 150.39Z" fill="#1D1D23"/>
<path d="M159.081 145.054V149.905C159.081 151.232 159.113 151.271 160.398 151.603C160.531 151.666 160.659 151.742 160.779 151.828H155.748C157.463 151.156 157.463 151.156 157.463 149.446V144.516C157.46 143.247 157.441 143.231 156.215 142.927C156.16 142.912 156.109 142.883 156.068 142.843C156.026 142.803 155.996 142.753 155.978 142.698H160.662C160.639 142.739 160.624 142.77 160.613 142.793C160.596 142.828 160.589 142.844 160.577 142.844C159.847 143.099 159.473 143.23 159.281 143.494C159.081 143.77 159.081 144.191 159.081 145.054Z" fill="#1D1D23"/>
<path d="M249.006 150.239V143.351C249.006 143.164 248.996 142.976 248.983 142.751C248.977 142.637 248.97 142.515 248.963 142.378L246.029 143.659C246.189 143.819 246.287 143.803 246.379 143.779C247.491 143.492 247.614 143.589 247.616 144.763V149.408C247.616 151.189 247.616 151.189 245.915 151.822H250.448L250.472 151.711C250.393 151.673 250.31 151.643 250.224 151.622C249.016 151.444 249.008 151.439 249.006 150.239Z" fill="#1D1D23"/>
<path d="M223.96 143.345V149.825C223.96 151.41 223.96 151.41 225.461 151.828H220.966C222.568 151.223 222.568 151.223 222.568 149.498V144.779C222.568 143.582 222.482 143.513 221.348 143.803C221.279 143.827 221.204 143.833 221.132 143.82C221.06 143.808 220.992 143.776 220.936 143.73L223.914 142.41C223.92 142.531 223.927 142.641 223.934 142.744C223.948 142.967 223.96 143.156 223.96 143.345Z" fill="#1D1D23"/>
<path d="M329.793 139.362C329.149 139.65 328.978 140.19 328.811 140.716C328.696 141.08 328.582 141.437 328.316 141.699C328.247 141.508 328.181 141.321 328.116 141.137L328.114 141.132C327.949 140.664 327.791 140.217 327.61 139.776C327.559 139.648 327.355 139.557 327.203 139.512C327.152 139.496 326.977 139.664 326.969 139.757C326.907 140.518 326.86 141.274 326.813 142.03C326.801 142.229 326.788 142.428 326.776 142.628L327.123 142.676L327.123 142.675L327.126 142.645L327.127 142.637L327.14 142.509C327.205 141.855 327.271 141.189 327.352 140.363C327.455 140.64 327.553 140.901 327.646 141.152L328.216 142.684H328.488C328.771 141.944 329.053 141.205 329.354 140.414C329.509 140.764 329.498 141.127 329.487 141.478C329.474 141.903 329.462 142.309 329.745 142.649L330 142.605C329.934 141.585 329.869 140.561 329.793 139.362Z" fill="#1D1D23"/>
<path d="M324.197 139.748C324.214 139.664 324.226 139.579 324.232 139.494H326.474C326.476 139.524 326.478 139.55 326.48 139.573C326.484 139.607 326.487 139.634 326.49 139.658C326.495 139.696 326.499 139.725 326.499 139.754L326.379 139.778C326.131 139.829 325.861 139.884 325.448 139.964V142.671C325.385 142.664 325.127 142.653 325.127 142.653V139.989C324.828 139.901 324.547 139.833 324.268 139.765L324.197 139.748Z" fill="#1D1D23"/>
<path fill-rule="evenodd" clip-rule="evenodd" d="M264.061 107.027C264.068 107.197 264.076 107.367 264.086 107.536C264.032 110.085 263.258 112.462 262.398 114.826C260.57 119.85 258.501 124.754 255.274 129.071C253.945 130.848 252.486 132.536 250.504 133.625C247.981 135.011 245.407 134.921 242.955 133.497C240.744 132.214 240.105 130.004 239.987 127.622C239.825 124.413 240.701 121.399 241.862 118.456C244.025 112.976 246.858 107.898 250.833 103.525C251.79 102.45 252.91 101.532 254.152 100.802C259.221 97.9285 263.457 101.629 263.977 105.861C264.025 106.247 264.043 106.637 264.061 107.027ZM253.668 127.891C253.705 127.788 253.741 127.685 253.78 127.586C255.443 123.321 256.37 118.917 256.125 114.326C256.125 113.948 256.132 113.569 256.138 113.191C256.153 112.338 256.167 111.488 256.107 110.642C255.997 109.093 255.838 107.491 254.288 106.598C252.639 105.648 250.402 105.324 249.527 108.086C247.884 113.196 247.205 118.567 247.526 123.925C247.619 125.451 248.009 126.923 248.982 128.174C249.833 129.27 250.999 129.496 252.281 129.365C253.175 129.273 253.429 128.562 253.668 127.891Z" fill="#1D1D23"/>
<path fill-rule="evenodd" clip-rule="evenodd" d="M242.317 111.361C242.928 109.359 243.118 107.268 242.665 105.192C241.8 101.247 237.859 98.1973 233.214 100.677C231.842 101.442 230.61 102.435 229.57 103.611C225.661 107.927 222.866 112.944 220.726 118.336C219.64 121.073 218.815 123.875 218.794 126.063C218.778 128.768 219.15 130.409 219.853 131.554C221.668 134.511 226.043 135.486 229.288 133.636C231.449 132.406 233.039 130.566 234.447 128.578C238.151 123.343 240.464 117.448 242.317 111.361ZM232.565 127.679C232.48 127.833 232.409 128.001 232.338 128.169C232.106 128.717 231.872 129.27 231.146 129.353C229.974 129.484 228.851 129.353 227.989 128.392C226.914 127.206 226.491 125.738 226.371 124.216C225.934 118.755 226.615 113.263 228.373 108.074C228.727 107.02 229.137 105.981 230.526 105.953C232.195 105.921 233.648 106.408 234.334 108.036C234.718 108.942 234.846 109.987 234.938 110.985C235.008 111.741 234.992 112.505 234.976 113.27C234.969 113.601 234.962 113.932 234.962 114.262C235.212 118.747 234.273 123.05 232.746 127.237C232.697 127.388 232.636 127.536 232.565 127.679Z" fill="#1D1D23"/>
<path fill-rule="evenodd" clip-rule="evenodd" d="M154.758 125.633C154.926 125.464 155.262 125.239 155.398 125.303C155.612 125.403 155.857 125.738 155.847 125.957L155.843 126.024C155.816 126.524 155.783 127.119 155.498 127.46L155.12 127.913C153.66 129.664 152.196 131.421 150.574 133.018C148.76 134.807 146.423 135.16 144.021 134.519C143.265 134.315 142.493 133.724 141.994 133.098C140.759 131.547 140.312 129.68 140.312 127.32C140.579 123.849 141.468 120.455 142.938 117.299C145.557 111.725 149.054 106.74 153.596 102.54C154.393 101.834 155.251 101.201 156.159 100.646C157.188 99.9913 158.064 100.183 158.652 101.223C159.126 102.054 159.51 102.933 159.799 103.845C160.061 104.674 160.259 105.522 160.456 106.371C160.554 106.795 160.653 107.22 160.76 107.642C160.957 108.423 160.814 109.011 160.182 109.628C156.023 113.698 151.888 117.79 147.777 121.904C146.598 123.083 146.989 125.867 148.439 127.096C150.168 128.562 151.942 128.515 153.579 126.936C153.795 126.726 153.992 126.495 154.189 126.265C154.373 126.049 154.557 125.833 154.758 125.633ZM151.665 106.957C151.389 107.171 151.115 107.383 150.952 107.669C148.842 111.234 147.621 115.255 147.394 119.391L147.543 119.322C147.77 119.213 147.99 119.093 148.205 118.962C148.314 118.901 148.426 118.828 148.539 118.755L148.568 118.736C148.692 118.656 148.818 118.571 148.946 118.481C149.712 117.947 150.447 117.371 151.147 116.754C151.884 116.12 152.575 115.436 153.217 114.706C153.489 114.409 153.685 114.05 153.787 113.66C153.821 113.508 153.835 113.353 153.829 113.198C153.825 113.117 153.815 113.036 153.8 112.957C153.651 112.108 153.491 111.262 153.319 110.416C153.149 109.57 152.966 108.729 152.768 107.892C152.697 107.586 152.508 107.309 152.319 107.031C152.299 107.002 152.279 106.973 152.259 106.943C152.19 106.841 152.121 106.738 152.062 106.634C151.967 106.721 151.866 106.801 151.764 106.881C151.732 106.906 151.7 106.93 151.669 106.955L151.667 106.956L151.665 106.957Z" fill="#1D1D23"/>
<path fill-rule="evenodd" clip-rule="evenodd" d="M260.445 142.443C258.875 142.463 257.841 143.275 257.275 144.686C256.68 146.156 256.616 147.788 257.093 149.301C257.64 151.119 258.831 152.038 260.553 152.032C262.154 152.032 263.276 151.098 263.806 149.272C263.939 148.809 264.018 148.33 264.102 147.815C264.142 147.571 264.183 147.319 264.232 147.057C264.175 146.83 264.124 146.594 264.071 146.354C263.949 145.799 263.823 145.219 263.617 144.675C263.051 143.19 261.898 142.427 260.445 142.443ZM262.084 150.453C261.914 151.177 261.381 151.574 260.642 151.622C260.306 151.651 259.969 151.575 259.677 151.405C259.386 151.234 259.154 150.978 259.015 150.67C258.825 150.318 258.686 149.941 258.603 149.549C258.291 147.921 258.329 146.245 258.715 144.633C258.782 144.403 258.869 144.179 258.975 143.964C259.268 143.296 259.776 142.865 260.508 142.874C260.848 142.87 261.18 142.98 261.451 143.187C261.721 143.394 261.915 143.685 262.001 144.015C262.213 144.786 262.356 145.578 262.497 146.353C262.555 146.676 262.613 146.996 262.675 147.31C262.606 147.68 262.543 148.04 262.481 148.393L262.48 148.395C262.357 149.101 262.239 149.779 262.084 150.448V150.453Z" fill="#1D1D23"/>
<path fill-rule="evenodd" clip-rule="evenodd" d="M232.19 146.201C231.886 144.471 233.079 142.759 234.779 142.484C237.468 142.054 239.514 144.185 239.083 146.965C238.658 149.733 236.671 151.632 233.712 152.091C233.459 152.13 233.204 152.155 232.949 152.179C232.848 152.188 232.748 152.198 232.648 152.208C232.635 152.176 232.62 152.143 232.606 152.11C232.581 152.052 232.556 151.994 232.532 151.936C234.897 151.547 236.554 150.325 237.355 148.023C237.189 148.078 237.029 148.136 236.874 148.192C236.478 148.334 236.108 148.468 235.726 148.54C233.895 148.888 232.495 147.931 232.19 146.201ZM234.015 146.752C234.252 147.733 235.149 148.112 236.161 147.893V147.898C237.316 147.649 237.526 147.377 237.688 146.08C237.612 145.841 237.542 145.6 237.473 145.359C237.309 144.794 237.145 144.229 236.906 143.698C236.607 143.031 235.945 142.793 235.231 142.855C234.516 142.918 233.96 143.355 233.893 144.029C233.783 144.937 233.824 145.858 234.015 146.752Z" fill="#1D1D23"/>
</svg>
