<svg width="400" height="220" viewBox="0 0 400 220" fill="none" xmlns="http://www.w3.org/2000/svg">
<g clip-path="url(#clip0_1089_13887)">
<path d="M176.519 161.907C175.215 162.326 173.957 162.838 172.699 163.397C168.413 165.168 163.94 166.519 159.328 167.357C156.579 167.777 153.784 168.01 151.035 168.15C147.774 168.336 144.559 168.336 141.298 168.15C136.22 167.544 131.188 166.519 126.296 165.075C119.681 163.164 113.484 159.996 108.033 155.757C105.657 153.94 103.421 151.983 101.278 149.887L99.8803 148.396C99.228 147.65 98.6224 146.858 98.0167 146.066C96.9917 144.575 96.5259 144.016 95.5475 142.432C95.5475 142.013 94.5691 140.522 94.2896 140.103C94.01 139.684 93.1249 138.006 92.7521 137.168C92.3794 136.329 92.1931 136.05 92.426 135.677C92.659 135.304 92.659 135.677 93.0317 135.677C97.5974 135.351 102.07 134.419 106.449 132.975C116.559 128.689 125.225 121.654 131.514 112.662C133.471 109.96 144.699 89.1811 131.514 79.7701C126.063 75.8567 116.699 76.7418 110.689 79.3508C100.905 83.4507 93.1714 91.1844 89.0716 100.968C85.5774 108.935 84.5525 117.833 86.1831 126.406C86.416 127.897 87.5808 132.509 87.441 132.882C83.4343 132.882 79.4743 131.857 75.9801 129.853C71.4144 127.198 67.827 123.191 65.5907 118.392C62.842 111.311 62.5625 103.484 64.8919 96.2626C70.436 78.9781 85.3911 66.8184 100.952 59.8766C104.958 58.1062 109.058 56.662 113.251 55.5438C121.684 53.4939 130.396 53.261 138.922 54.845C140.925 55.2177 142.882 55.8234 144.745 56.5222C149.731 58.1528 154.017 61.5072 156.905 65.8866C157.511 66.8184 161.471 72.3159 159.607 87.5039C158.909 98.033 151.315 115.364 144.606 125.521C141.531 130.179 138.13 134.605 134.449 138.798C132.073 141.594 129.557 144.249 126.902 146.765C125.97 147.79 122.103 151.517 120.659 152.682C119.215 153.847 117.305 155.85 117.584 157.015C117.864 158.179 118.982 157.853 120.146 157.667C122.709 157.341 125.178 156.689 127.601 155.757C133.285 153.334 138.736 150.259 143.767 146.672C146.143 144.948 148.473 143.038 150.755 141.081C151.454 140.382 168.04 125.101 178.103 113.221C183.694 106.605 188.632 101.434 192.22 97.7069L203.215 86.1528C209.085 79.8633 212.346 76.9748 217.518 72.0829C221.058 68.7285 224.832 65.6537 228.839 62.8583C231.634 60.7618 234.569 58.8051 237.504 56.9415C240.393 55.078 244.26 53.7269 244.958 52.8883C245.238 52.5156 245.145 52.0031 244.772 51.7235C244.726 51.677 244.632 51.6304 244.586 51.6304C240.719 50.8384 235.92 54.0996 233.498 55.6836C229.957 57.9665 226.742 60.3425 223.434 62.8583C219.428 65.8866 215.607 69.1478 212.02 72.7352C208.899 75.7169 202.143 82.0996 192.546 92.5355C189.378 96.1695 186.955 98.266 183.88 101.62C178.802 106.699 157.79 130.412 146.702 139.917C143.161 142.945 139.481 145.74 135.614 148.303C133.098 150.026 130.443 151.61 127.647 152.915C126.809 153.241 125.504 153.893 125.132 153.614C124.759 153.334 128.02 150.632 128.905 149.98C130.489 148.768 131.607 147.837 133.424 146.299C138.549 141.78 143.301 136.842 147.587 131.577C149.591 129.387 151.408 127.011 153.038 124.542C158.769 116.622 163.241 107.863 166.316 98.5921C168.133 91.7435 168.599 84.6154 167.667 77.5804C167.388 75.9032 166.968 74.2726 166.409 72.6886C161.564 56.3824 143.022 49.2077 125.411 50.4656C118.19 50.9315 111.062 52.3758 104.213 54.7984C96.852 57.5938 89.9102 61.3675 83.5275 66.0264C78.2164 69.9398 73.5109 74.6453 69.5508 80.0031C68.06 82.053 66.7089 84.3359 65.218 86.2926C59.6274 95.9365 58.5092 107.584 62.1432 118.113C64.659 124.822 69.7838 130.273 76.3062 133.161C78.822 134.279 81.5242 135.025 84.3195 135.351C85.624 135.397 86.9285 135.537 88.233 135.817C88.6057 136.376 88.9318 136.935 89.1648 137.541C89.6773 138.612 90.2829 139.684 90.8886 140.709C92.2863 142.991 93.7771 145.228 95.4077 147.371C96.2463 148.442 97.0849 149.421 98.0633 150.399L100.206 152.589C102.536 154.778 105.052 156.735 107.707 158.506C118.935 166.333 132.306 170.479 146.003 170.479C147.774 170.572 149.544 170.572 151.315 170.479H153.411C155.461 170.479 156.719 170.199 158.536 169.966L163.428 169.081C164.266 168.942 165.151 168.709 165.99 168.476C170.276 167.544 174.423 165.96 178.243 163.77C179.361 163.025 178.942 162.419 178.802 162.279C178.802 162.279 177.171 161.767 176.519 161.907ZM91.2613 132.649C90.5625 131.298 90.0966 129.853 89.8636 128.316C88.5591 122.912 88.3728 117.274 89.3511 111.823C89.7239 109.494 90.2829 107.211 90.9818 104.928C94.5691 95.7502 101.045 88.0164 109.478 82.9848C111.528 81.8201 113.717 80.8883 115.953 80.236C117.258 80.0963 118.562 79.8167 119.867 79.4906C128.02 79.4906 132.539 81.9598 132.399 90.3458C132.399 91.231 132.399 92.1162 132.12 93.0014C131.747 94.7252 131.188 96.449 130.582 98.0796C125.318 109.68 116.978 119.604 106.449 126.778C103.048 129.061 99.3678 130.925 95.5009 132.229C94.1032 132.602 92.659 132.742 91.2613 132.649ZM151.035 140.895H150.755C150.755 140.895 150.755 141.314 151.035 140.895ZM295.554 115.923C296.765 115.923 297.697 114.945 297.697 113.78C297.744 112.522 296.765 111.497 295.554 111.451C294.296 111.404 293.271 112.382 293.225 113.594C293.178 114.852 294.156 115.877 295.368 115.923C295.461 115.923 295.508 115.923 295.554 115.923ZM339.301 126.033C339.301 126.033 338.789 125.753 338.276 126.359C335.201 130.599 331.754 134.559 327.98 138.146C326.443 140.01 324.113 141.081 321.691 141.035C321.178 140.988 320.759 140.662 320.572 140.196C320.479 138.519 320.992 136.888 322.017 135.584C323.508 132.695 325.092 130.226 326.349 127.291C327.328 125.753 327.747 123.937 327.607 122.12C327.048 119.79 324.719 118.392 322.389 118.951C322.063 119.045 321.737 119.138 321.458 119.324C318.103 120.908 315.308 125.055 314.795 124.868C314.283 124.635 314.795 123.843 314.795 122.772C314.749 120.396 312.745 118.486 310.369 118.579C309.81 118.579 309.251 118.719 308.739 118.951C307.76 119.417 306.875 120.023 306.037 120.722C303.94 122.865 302.03 125.148 300.353 127.617C297.651 131.81 294.296 135.537 290.429 138.705C289.544 139.544 288.519 140.196 287.354 140.615C283.022 142.386 283.022 139.404 284.978 135.91C286.143 133.72 290.523 126.313 291.454 124.775C292.386 123.238 292.945 122.492 293.551 121.281C293.551 120.862 294.11 120.07 293.83 119.697C293.551 119.324 291.641 119.091 290.662 119.231C289.731 119.371 288.007 120.955 287.308 122.166L283.907 127.85C281.298 131.624 278.27 135.071 274.869 138.193C273.285 139.404 269.604 142.246 267.834 140.802C267.042 139.497 268.719 136.469 270.163 134.093C272.213 130.552 273.471 128.316 275.381 125.148C276.313 123.843 277.151 122.492 277.85 121.048C278.736 118.812 275.894 119.231 274.589 119.231C273.285 119.231 272.586 121.328 271.934 121.374C271.281 121.467 271.468 120.07 270.117 119.511C269.464 119.184 268.719 118.951 268.02 118.812C265.411 118.765 262.802 119.278 260.379 120.303C254.183 122.632 249.431 127.664 247.428 133.953C245.983 140.243 250.642 144.622 255.534 143.131C258.283 142.153 260.706 140.429 262.523 138.193C263.221 137.308 263.687 136.702 263.874 136.749C264.06 136.795 262.942 140.476 264.992 142.479C266.762 143.55 268.952 143.644 270.815 142.758C273.983 141.174 276.872 138.985 279.201 136.329C279.807 135.63 280.18 134.838 280.459 134.885C280.739 134.932 280.04 135.863 280.133 138.798C280.226 140.15 280.879 141.407 281.95 142.199C285.491 144.762 289.637 141.501 291.734 139.823C296.16 135.956 300.073 131.437 303.288 126.499C304.919 124.216 306.782 121.234 309.438 120.862C310.09 120.862 310.23 121.141 310.416 121.56C310.882 123.471 309.251 125.288 308.459 126.499C306.176 130.086 304.127 133.767 301.797 137.354C300.958 138.426 300.26 139.59 299.654 140.802C299.654 141.314 298.955 142.293 299.328 142.712C300.865 144.016 304.08 143.131 305.711 140.615C307.341 138.053 309.065 134.932 310.928 132.183C312.373 130.086 313.957 128.13 315.681 126.313C316.24 125.707 316.845 125.148 317.498 124.635C318.523 123.843 319.361 122.725 320.479 121.98C320.992 121.654 321.551 121.421 322.11 121.281C324.579 121.514 322.11 125.334 321.737 126.313C319.594 129.434 317.777 132.788 316.379 136.283C315.634 138.472 316.286 140.895 318.01 142.432C320.107 143.457 322.576 143.457 324.719 142.432C329.052 139.963 332.919 136.655 335.947 132.695C336.925 131.577 340.885 127.058 339.301 126.033ZM264.2 133.627C262.662 135.91 260.845 137.96 258.749 139.73C257.631 140.662 254.975 142.665 252.972 141.268C250.922 139.87 252.552 135.118 253.391 133.394C255.534 128.875 258.795 124.961 262.849 122.026C263.92 121.328 265.038 120.815 266.203 120.442C266.622 120.349 267.088 120.256 267.554 120.209C271.887 120.209 270.815 123.657 269.418 125.986C268.02 128.362 265.924 131.158 264.2 133.627ZM254.509 119.184C255.488 118.765 256.513 118.439 257.584 118.253C258.003 118.113 258.423 117.927 258.749 117.647C259.122 117.414 259.308 116.995 259.261 116.575C258.749 115.178 253.205 117.973 250.596 120.07C246.216 124.216 242.21 128.689 238.576 133.534C236.339 136.562 233.498 139.125 230.236 141.035C229.258 141.687 227.907 141.64 227.022 140.802C226.369 139.59 227.721 137.214 228.513 135.444C228.885 134.605 229.305 133.767 229.864 133.021C231.401 131.018 232.752 128.875 233.824 126.592C235.268 123.284 234.616 120.07 231.354 119.231C228.839 118.579 226.276 120.675 225.065 121.56C222.503 123.843 220.313 126.546 218.682 129.574C216.726 132.09 214.536 134.512 212.206 136.702C210.716 138.333 208.992 139.684 207.082 140.709C204.752 141.873 203.914 140.243 203.867 140.15C203.028 138.892 204.845 135.817 205.451 134.559C206.802 132.043 208.433 129.62 210.25 127.431C211.135 126.219 212.346 125.101 213.231 123.843C214.117 122.585 216.26 119.93 214.815 119.744C213.092 119.65 211.414 119.93 209.784 120.489C208.852 120.908 207.78 120.815 206.942 120.256C206.662 119.278 208.433 118.159 208.06 116.808C207.827 116.016 207.361 115.318 206.755 114.758C206.336 114.572 205.87 114.572 205.451 114.758C204.845 114.991 204.333 115.551 204.193 116.203C203.914 118.392 203.261 120.536 202.283 122.492C201.305 123.937 200.093 125.194 199.068 126.592C195.993 131.204 192.173 135.304 187.747 138.705C185.744 140.429 183.321 141.501 180.712 141.78C177.684 141.78 176.799 139.544 176.659 137.447C176.566 136.562 176.659 135.677 176.985 134.838C178.383 133.907 179.92 133.161 181.504 132.649C185.325 131.204 188.632 128.642 191.008 125.288C192.173 123.377 191.894 120.862 190.31 119.278C187.701 117.6 183.787 119.278 181.644 120.442C177.591 122.446 174.376 125.847 172.606 129.993C170.369 134.745 172.373 140.429 177.125 142.665C177.358 142.758 177.591 142.898 177.824 142.945C180.666 143.504 183.647 142.898 186.023 141.268C191.894 138.006 196.832 133.301 200.326 127.57C201.491 125.567 203.168 123.843 205.171 122.632C206.243 122.259 207.454 122.259 208.526 122.632C209.178 123.238 208.246 123.471 207.594 124.356C204.007 127.058 201.211 130.739 199.581 134.885C198.183 137.913 199.488 141.501 202.516 142.945C202.609 142.991 202.702 143.038 202.795 143.085C206.476 144.063 209.597 140.942 211.461 139.497C213.511 137.82 215.421 135.956 217.098 133.907C218.216 132.602 219.335 131.204 220.266 129.993C221.151 128.828 221.757 127.617 222.689 126.406C223.155 125.66 223.714 124.961 224.273 124.309C224.832 123.75 225.298 123.238 225.81 122.818L227.068 121.887C227.488 121.607 228 121.421 228.513 121.281C229.444 121.281 229.724 121.281 230.05 121.887C230.376 122.492 228.513 125.8 227.441 127.291C226.416 128.782 225.112 131.391 223.854 133.487C222.456 135.491 222.037 138.006 222.736 140.336C224.785 145.135 231.028 142.758 233.917 140.662C237.737 137.494 241.045 133.767 243.701 129.574C244.679 128.176 245.983 127.058 247.008 125.66L248.639 123.937C250.409 122.12 252.32 120.489 254.509 119.184ZM180.153 127.85C181.551 125.567 183.321 123.564 185.325 121.793C185.93 121.281 186.629 120.908 187.421 120.629C189.145 120.349 189.471 121.328 189.844 121.933C190.216 124.03 189.378 124.635 188.446 125.893C186.676 128.036 184.439 129.76 181.877 130.832L179.175 131.903C178.709 132.183 178.196 132.276 177.684 132.183C178.29 130.552 179.082 129.015 180.107 127.664V127.85H180.153Z" fill="black"/>
</g>
<defs>
<clipPath id="clip0_1089_13887">
<rect width="280" height="120.666" fill="white" transform="translate(60 50)"/>
</clipPath>
</defs>
</svg>
