<svg width="400" height="220" viewBox="0 0 400 220" fill="none" xmlns="http://www.w3.org/2000/svg">
<path d="M141.012 91.0541H154.548C154.602 91.379 154.71 91.6497 154.819 91.9204C154.277 92.2453 153.682 92.4077 153.032 92.4077C152.707 92.5701 152.382 92.7325 152.057 92.9491L151.875 93.2274L151.518 93.7802C151.28 94.1458 151.036 94.5038 150.758 94.8441L150.623 98.2091C150.614 98.4385 150.605 98.6701 150.596 98.9047C150.74 100.457 150.908 102.009 151.085 103.577L151.354 105.943L151.495 106.373C151.618 106.74 151.756 107.127 151.949 107.513C151.99 107.567 152.037 107.622 152.089 107.677L152.341 107.946C152.429 108.043 152.518 108.149 152.599 108.271C153.682 108.542 154.819 108.704 155.956 108.759C156.335 108.813 156.714 108.921 157.093 109.029C158.067 108.921 159.042 108.759 160.016 108.596L161.388 107.953L161.85 107.732L162.075 107.62L162.33 107.489L162.497 107.398L162.701 107.279L163.005 107.088L163.427 106.809C163.497 106.717 163.566 106.604 163.64 106.48L163.795 106.219C163.849 106.129 163.907 106.036 163.969 105.943C164.007 105.324 164.101 104.706 164.211 104.087L164.348 103.344C164.388 103.324 164.421 103.289 164.455 103.243L164.568 103.085C164.598 103.047 164.632 103.006 164.672 102.965L164.808 103.034L164.915 103.092C165.071 103.184 165.13 103.263 165.224 103.483L165.286 103.633C165.297 103.662 165.309 103.691 165.322 103.723C165.403 103.967 165.424 104.15 165.429 104.34L165.43 104.535C165.404 104.633 165.382 104.738 165.361 104.851L165.323 105.089C165.317 105.13 165.311 105.172 165.305 105.215L165.273 105.485L165.229 105.931L165.118 107.172L165.077 107.58L165.03 108.011L164.974 108.467C164.964 108.545 164.954 108.624 164.943 108.704L165.026 110.339C165.112 111.983 165.214 113.658 165.376 115.364C165.144 115.635 164.912 115.96 164.68 116.302L164.402 116.717L163.969 116.338L163.839 115.276L163.709 114.183C163.687 113.999 163.665 113.815 163.644 113.631C163.427 113.306 163.162 112.958 162.898 112.617L162.507 112.115C162.368 112.023 162.224 111.934 162.077 111.846L161.629 111.581C161.401 111.446 161.169 111.303 160.937 111.141L160.51 111.143L159.218 111.161C158.636 111.168 158.04 111.168 157.417 111.141C156.891 111.11 156.348 111.044 155.797 110.972L154.965 110.865C154.826 110.848 154.687 110.831 154.548 110.816C154.007 110.978 153.411 111.141 152.761 111.303C152.529 111.651 152.27 111.999 151.982 112.367L151.624 112.819L151.34 114.168L150.772 116.885C150.677 117.337 150.582 117.787 150.487 118.233L150.537 118.394L150.564 118.512L150.584 118.639L150.608 118.871L150.629 119.2L150.657 119.864L150.713 121.932L150.812 126.679C150.975 126.95 151.137 127.221 151.299 127.546L152.621 127.853L152.92 127.917L153.095 127.951L153.255 127.979L153.406 128.002L153.625 128.029L153.773 128.042L154.097 128.064L154.602 128.087L154.817 128.18L155.513 128.469C155.752 128.569 155.994 128.675 156.226 128.791C156.551 129.116 156.93 129.441 157.309 129.711L156.659 130.199L155.483 130.221L154.129 130.235L153.486 130.236L152.653 130.229L152.123 130.218L150.332 130.162L149.771 130.149L149.357 130.145C149.285 130.145 149.21 130.145 149.134 130.145L149.026 130.172L148.927 130.19L148.873 130.197L148.749 130.208L148.6 130.214L148.313 130.219L144.835 130.19L143.763 130.187L141.599 130.192L140.363 130.199L139.945 130.074L139.79 130.026L139.664 129.982C139.645 129.975 139.627 129.968 139.61 129.962L139.517 129.921C139.474 129.901 139.437 129.88 139.403 129.857L139.336 129.809L139.27 129.752L139.117 129.603L139.821 129.116C140.417 129.116 140.958 129.062 141.554 129.008C142.474 128.737 143.341 128.358 144.153 127.871C144.222 127.778 144.292 127.665 144.366 127.541L144.52 127.28C144.575 127.19 144.632 127.097 144.694 127.004C144.748 124.893 144.802 122.781 144.911 120.67L144.817 119.519C144.736 118.565 144.648 117.615 144.532 116.609C144.508 116.029 144.515 115.449 144.53 114.865L144.566 113.689C144.577 113.294 144.586 112.897 144.586 112.494C144.694 111.899 144.802 111.357 144.965 110.762C144.965 110.414 144.91 110.093 144.839 109.761L144.748 109.354L144.965 108.813C144.921 108.726 144.887 108.631 144.854 108.53L144.753 108.217C144.735 108.163 144.716 108.109 144.694 108.055L144.749 107.588L144.777 107.317L144.795 107.098L144.808 106.873L144.818 106.63L144.823 106.356L144.822 105.862L144.813 105.233L144.748 102.586L144.234 98.2588L144.15 97.4907L144.075 96.6907L144.037 96.1618L144.02 95.8118L144.007 95.4936L143.99 94.9524C143.72 94.4109 143.286 93.9778 142.745 93.653L142.287 93.4062L142.092 93.3081L141.969 93.2505L141.849 93.1981L141.728 93.1504L141.604 93.1065L141.474 93.0659C141.452 93.0594 141.429 93.0529 141.406 93.0466L141.186 92.9913L141.023 92.9559L140.844 92.9209L140.538 92.8673L140.047 92.7904L139.09 92.6513C139.029 92.6425 138.966 92.6335 138.901 92.6243C138.901 92.3535 138.901 92.0828 138.847 91.8121C139.232 91.7159 139.565 91.5959 139.846 91.4788L140.048 91.392L140.395 91.2319L140.541 91.1635L140.668 91.1063C140.844 91.0301 140.958 91 141.012 91.0541ZM234.082 91C234.129 91.0464 234.184 91.0928 234.244 91.1405L234.437 91.2885C234.536 91.3657 234.639 91.4486 234.732 91.5414C234.964 92.0442 235.251 92.5469 235.554 93.0497L235.923 93.653C236.225 94.4651 236.536 95.2673 236.854 96.0723L237.818 98.5087C237.926 98.7832 238.035 99.0594 238.143 99.3378C238.305 99.6086 238.495 99.8928 238.698 100.191L239.172 100.883C239.226 100.963 239.28 101.043 239.334 101.125L239.708 102.193C240.024 103.086 240.355 103.986 240.742 104.914L242.799 108.434L243.972 113.605L244.236 114.714L244.378 115.286L244.519 115.832L244.802 116.889L245.127 118.071C245.282 118.38 245.441 118.69 245.603 119.002L246.351 120.431C246.519 120.756 246.69 121.087 246.86 121.428C247.293 123.269 247.834 125.109 248.592 126.842C249.404 127.437 250.271 127.925 251.191 128.304L251.519 128.371L252.533 128.559C252.877 128.625 253.225 128.698 253.573 128.791C253.472 128.859 253.434 128.948 253.406 129.031L253.375 129.127C253.37 129.142 253.364 129.156 253.357 129.17C253.411 129.549 253.249 129.874 252.924 130.036H240.362L240.08 130.032L239.382 130.016L238.917 130.012L238.087 130.016L236.681 130.036C236.478 129.955 236.322 129.908 236.199 129.877L236.065 129.848L235.91 129.82L235.827 129.802C235.726 129.776 235.652 129.733 235.544 129.603L235.744 129.505L235.852 129.455L235.966 129.407L236.131 129.346L236.313 129.287L236.537 129.22L236.923 129.114L237.293 129.018L239.345 128.51L240.633 128.195C240.85 127.925 241.067 127.708 241.283 127.492C241.337 126.788 241.446 125.976 241.554 125.218C241.256 124.324 240.931 123.431 240.593 122.524L239.814 120.455C239.727 120.221 239.639 119.986 239.551 119.749L239.475 119.653L239.196 119.325C239.097 119.206 238.994 119.076 238.901 118.937C238.179 118.468 237.433 118.023 236.663 117.57L235.49 116.88C234.964 116.849 234.42 116.783 233.869 116.711L233.038 116.604C232.899 116.587 232.76 116.57 232.62 116.555L228.506 116.609L228.433 116.519L228.28 116.348C228.178 116.233 228.08 116.114 228.018 115.959V115.147L228.139 115.088L228.23 115.048L228.303 115.021L228.415 114.986L228.515 114.962L228.726 114.919L229.079 114.863L230 114.738L231.484 114.552L231.947 114.549L232.871 114.535C233.485 114.525 234.09 114.521 234.678 114.552L234.994 114.43L235.607 114.186C235.71 114.146 235.815 114.105 235.923 114.064L236.41 113.252C236.41 113.159 236.375 113.067 236.335 112.984L236.248 112.819C236.341 112.262 236.451 111.723 236.569 111.171L236.844 109.896C236.519 108.488 236.14 107.08 235.707 105.618L235.436 105.181L234.888 104.285C234.61 103.832 234.326 103.371 234.028 102.911C233.757 102.099 233.487 101.341 233.162 100.583C232.837 100.33 232.488 100.03 232.147 99.7289L231.646 99.2837C231.267 99.2837 230.942 99.2837 230.563 99.392L230.383 99.5143C230.25 99.6025 230.094 99.6988 229.913 99.771L229.156 101.097L228.963 101.422L228.792 101.692L228.699 101.822L228.613 101.928L228.57 101.976L228.513 102.036L228.397 102.153L228.042 103.317L227.843 103.952L227.701 104.386L227.607 104.666L227.48 105.028L227.282 105.565L227.093 106.056L226.778 106.849L226.252 108.134L225.365 110.274L225.29 110.714L225.248 110.983L225.226 111.144L225.209 111.297L225.197 111.447L225.19 111.601L225.186 111.763L225.187 111.94L225.196 112.243L225.213 112.611L225.257 113.415L225.387 113.671C225.452 113.796 225.517 113.913 225.582 114.01C225.474 114.606 225.365 115.201 225.203 115.797L225.07 115.909C225.049 115.926 225.029 115.942 225.008 115.957L224.927 116.013L224.87 116.048L224.77 116.1L224.65 116.156L224.5 116.217L224.245 116.314L223.594 116.543L222.929 116.772C222.604 117.854 222.279 118.991 222.009 120.074L221.844 120.401C221.732 120.622 221.612 120.85 221.467 121.103L221.429 121.401L221.335 122.027C221.303 122.24 221.272 122.456 221.251 122.673L219.626 126.084C219.626 126.463 219.681 126.896 219.735 127.275L220.385 128.128L220.607 128.411L220.742 128.574L220.82 128.663L220.923 128.772L220.986 128.832L221.046 128.884L221.105 128.929L221.197 128.991L221.413 129.116C221.684 129.116 221.955 129.17 222.225 129.278L222.713 129.766L221.576 129.928L221.168 129.909L220.797 129.895L220.304 129.881L219.881 129.875L219.558 129.874L219.187 129.88L218.896 129.89L218.741 129.899L218.353 129.927L218.273 129.927L218.23 129.923L218.19 129.913C218.165 129.904 218.14 129.892 218.11 129.874L215.004 129.934L214.251 129.941L213.856 129.941L213.059 129.928L212.967 129.928C212.908 129.889 212.799 129.864 212.671 129.845L212.468 129.821L212.163 129.791C212.1 129.783 212.042 129.775 211.992 129.766V129.224L212.317 129.093L212.967 128.838C213.292 128.71 213.617 128.574 213.942 128.412C214.51 128.06 215.079 127.681 215.661 127.289L216.545 126.691C216.845 126.49 217.149 126.287 217.461 126.084C217.65 125.597 217.867 125.123 218.097 124.642L218.632 123.541C218.692 123.416 218.753 123.289 218.814 123.16C218.954 122.712 219.088 122.254 219.222 121.792L219.627 120.393C219.832 119.69 220.044 118.984 220.276 118.287C220.479 117.881 220.697 117.468 220.925 117.046L221.392 116.194L221.874 115.321C221.955 115.173 222.036 115.025 222.117 114.877C222.132 114.722 222.152 114.567 222.174 114.41L222.243 113.928C222.277 113.681 222.31 113.422 222.334 113.144C222.455 112.887 222.574 112.623 222.692 112.355L223.051 111.54C223.295 110.992 223.552 110.437 223.85 109.896L223.851 109.46C223.856 109.168 223.868 108.867 223.904 108.542L225.23 105.73L225.673 104.812L225.805 104.549L225.916 104.334L226.015 104.15L226.104 103.99L226.187 103.85L226.267 103.724L226.346 103.604L226.413 103.509L226.611 103.236L226.749 102.689C226.862 102.237 226.967 101.79 227.044 101.287L229.21 96.9556L230.463 94.9878L230.922 94.2837L231.141 93.9577L231.387 93.6042L231.618 93.2873L231.805 93.0433L232.108 92.663L232.675 91.9746L233.048 91.6961C233.364 91.4641 233.696 91.232 234.082 91ZM113.617 91.5414L113.996 91.1624L114.565 91.1938L115.216 91.2353L115.757 91.2761L116.301 91.3254L116.802 91.3811L117.239 91.4396L117.544 91.4822L117.775 91.5101C117.893 91.5227 118.018 91.5333 118.165 91.5414C120.872 92.8408 123.525 94.1402 126.232 95.4938C126.881 96.36 127.585 97.1722 128.452 97.8219C128.874 98.4066 129.316 98.9913 129.754 99.5644L130.617 100.691L130.984 101.465C131.355 102.241 131.741 103.033 132.187 103.886L132.46 105.241C132.645 106.148 132.837 107.062 133.054 108.001V109.841C133.013 110.099 132.976 110.362 132.939 110.631L132.83 111.452C132.756 112.007 132.675 112.576 132.566 113.144C132.422 113.902 132.205 114.588 131.965 115.298L131.718 116.019C131.676 116.142 131.634 116.266 131.592 116.393L131.164 117.268L130.939 117.717L130.612 118.355L130.29 118.966L129.722 120.015L129.608 120.238L129.501 120.461L129.396 120.696L129.344 120.821C129.335 120.842 129.327 120.864 129.318 120.886C128.722 121.59 128.073 122.24 127.369 122.944L127.249 123.005L126.638 123.332L126.34 123.485C124.337 125.109 122.225 126.679 120.168 128.358L119.403 128.618L118.367 128.983L118.179 129.045L117.956 129.111L117.792 129.15L117.619 129.184L117.492 129.204L117.352 129.224L117.297 129.275L117.257 129.3L117.204 129.324L117.15 129.342L116.997 129.382L116.764 129.429L116.217 129.52L114.139 129.828L113.075 129.982L111.18 130.036L110.891 129.911L110.65 129.812L110.482 129.751L110.368 129.715L110.249 129.681L110.049 129.631L109.814 129.581L109.528 129.526L108.419 129.332C108.071 129.216 107.733 129.081 107.392 128.937L106.702 128.646C106.469 128.548 106.23 128.451 105.983 128.358L104.16 127.279L102.31 126.18C101.378 125.628 100.437 125.071 99.4857 124.514C98.1321 122.89 96.6703 121.265 95.2626 119.587C94.6052 118.427 93.9753 117.267 93.3337 116.067L92.5555 114.606L92.4138 114.094C92.2914 113.666 92.1533 113.229 91.9599 112.765C91.9599 111.736 91.9058 110.599 91.7975 109.462L91.8634 109.173L91.9602 108.774L92.0243 108.526L92.1212 108.173L92.2206 107.834L92.3605 107.384L92.8735 105.802L93.0908 105.111L93.2107 104.72L93.4759 103.832C93.5977 103.595 93.7212 103.363 93.845 103.137L94.0923 102.691L94.3375 102.26L94.6957 101.644L95.1415 100.879L95.3448 100.523C95.6055 100.06 95.8221 99.6446 95.9664 99.2837C97.4283 97.9302 98.8901 96.5225 100.352 95.1148C101.096 94.6636 101.935 94.2312 102.789 93.8059L104.326 93.0454C105.002 92.7085 105.658 92.3716 106.253 92.0287C107.066 91.758 107.878 91.6497 108.744 91.7038L109.168 92.0252C109.288 92.1138 109.417 92.2066 109.556 92.2994L109.475 92.3849L109.215 92.6804C109.153 92.7506 109.087 92.8228 109.015 92.895C108.311 92.9491 107.607 93.0574 106.903 93.2198L106.468 93.4329C106.273 93.5314 106.083 93.6375 105.929 93.7612L103.384 96.4683C102.572 98.1467 101.705 99.771 100.785 101.449L100.066 104.781L99.9644 105.218L99.8826 105.54L99.7998 105.826L99.7461 105.989L99.6481 106.268C99.5398 109.083 99.3774 112.007 99.1608 114.931C99.2041 115.169 99.2388 115.407 99.2717 115.649L99.3722 116.388C99.3904 116.514 99.4099 116.642 99.4315 116.772L99.6655 117.271C99.7029 117.352 99.7396 117.432 99.7755 117.512L99.9828 117.977L100.174 118.421L100.352 118.845L100.517 119.248L101.085 120.676L101.213 120.99L101.338 121.288L101.463 121.571C101.525 121.709 101.588 121.842 101.651 121.969L102.073 122.535C102.169 122.664 102.266 122.797 102.367 122.937L102.68 123.377C102.974 123.609 103.268 123.845 103.564 124.085L104.464 124.812C104.92 125.179 105.387 125.55 105.874 125.921C106.849 126.3 107.769 126.679 108.744 127.167C109.502 127.275 110.368 127.437 111.234 127.654L115.403 127.6C116.486 127.275 117.569 126.896 118.652 126.517L119.255 126.19C119.758 125.913 120.261 125.62 120.763 125.272L121.496 124.125L122.617 122.366C122.998 121.772 123.389 121.171 123.795 120.561C123.958 120.196 124.135 119.831 124.323 119.459L124.708 118.708L125.108 117.931C125.176 117.799 125.244 117.665 125.311 117.53L125.474 116.848L125.799 115.504C125.853 115.279 125.907 115.053 125.961 114.822C125.961 114.064 125.907 113.306 125.907 112.603L126.12 111.32C126.218 110.736 126.325 110.135 126.448 109.517L126.309 107.977L126.17 106.385C126.154 106.204 126.139 106.02 126.123 105.835C125.365 103.398 124.607 100.854 123.904 98.3633C123.579 97.6053 123.254 96.8473 122.821 96.1435L121.63 95.0606C120.439 94.2485 119.193 93.4364 117.84 92.6243L115.945 92.1911H114.537C114.266 92.137 113.996 92.0287 113.779 91.9204L113.617 91.5414ZM267.921 91C268.408 91 268.841 91.0541 269.329 91.1624L272.09 93.2198L275.447 96.3059C275.772 96.8473 276.151 97.3887 276.53 97.9302C277.035 98.4355 277.588 98.9649 278.142 99.4862L278.966 100.258C279.971 101.534 281.032 102.838 282.109 104.15L283.406 105.727C283.866 106.187 284.353 106.647 284.847 107.107L285.838 108.028C286.003 108.181 286.167 108.334 286.329 108.488C286.468 108.766 286.618 109.035 286.772 109.306L287.088 109.856C287.195 110.044 287.304 110.236 287.412 110.437C289.09 112.386 290.877 114.281 292.61 116.23L293.293 116.481C293.53 116.568 293.774 116.663 294.017 116.772H295.479C295.966 116.447 296.454 116.014 296.779 115.472C296.815 114.101 296.875 112.705 296.943 111.301L297.049 109.192C297.049 108.109 296.941 107.026 296.833 105.889C296.848 105.688 296.868 105.487 296.89 105.283L296.958 104.662C296.993 104.345 297.026 104.017 297.049 103.669L297.537 103.182L297.723 103.182C298.047 103.184 298.13 103.199 298.244 103.297L298.349 103.398L298.478 103.946L298.529 104.176L298.572 104.393C298.578 104.429 298.585 104.464 298.591 104.5L298.63 104.754L298.662 105.022L298.692 105.328L298.727 105.79L298.806 107.099L298.836 107.622L298.787 108.028L298.668 108.84C298.65 108.975 298.633 109.11 298.619 109.246C298.658 110.831 298.724 112.389 298.799 113.979L298.89 115.905C298.89 118.991 298.836 122.023 298.728 125.109C298.728 125.705 298.836 126.246 298.944 126.842C298.782 127.654 298.619 128.412 298.403 129.224L298.385 129.266L298.281 129.556C298.227 129.698 298.159 129.847 298.078 129.928C297.753 129.874 297.482 129.874 297.158 129.928L296.15 128.928L295.207 127.976L293.301 126.018L293.032 125.748L292.696 125.419L292.461 125.194L292.08 124.84L291.801 124.586L291.498 124.314L290.985 123.864L289.343 122.06C289.066 121.756 288.788 121.452 288.509 121.147L286.824 119.31C285.977 118.39 285.125 117.469 284.272 116.555C284.164 116.474 284.059 116.389 283.954 116.302L283.636 116.034C283.419 115.851 283.189 115.662 282.918 115.472L282.148 114.633L281.226 113.645L280.563 112.947L279.914 112.278L278.467 110.814L278.155 110.486L277.995 110.313C277.905 110.213 277.814 110.111 277.721 110.004C277.581 109.725 277.432 109.457 277.277 109.186L276.961 108.635C276.854 108.448 276.746 108.256 276.638 108.055L276.173 107.518L275.237 106.428C274.607 105.696 273.962 104.953 273.281 104.211L272.713 103.755L271.576 102.825C271.386 102.671 271.197 102.519 271.007 102.37L270.355 102.195L270.053 102.118L269.835 102.068L269.715 102.046L269.623 102.037C269.614 102.037 269.606 102.037 269.598 102.037L269.552 102.039L269.513 102.046L269.477 102.057L269.422 102.08L269.383 102.099C268.896 102.64 268.571 103.236 268.354 103.886L268.215 107.574C268.207 107.786 268.199 108.001 268.192 108.217C268.228 109.372 268.288 110.527 268.356 111.698L268.462 113.469L268.298 117.497L268.248 119.04L268.234 119.855L268.233 120.366L268.237 120.787L268.245 121.127L268.267 121.858L268.3 122.727L268.39 123.304L268.561 124.45C268.676 125.214 268.795 125.983 268.95 126.788C269.22 127.329 269.599 127.816 270.141 128.195L273.064 129.116L273.057 129.224L273.044 129.365L273.038 129.462C273.032 129.621 273.052 129.748 273.173 129.657C273.071 129.759 272.828 129.835 272.47 129.891L272.263 129.919L272.034 129.944C271.995 129.948 271.954 129.952 271.912 129.955L271.653 129.974L271.374 129.99L271.077 130.003L270.598 130.016L270.084 130.023L269.55 130.024L269.197 130.022L268.462 130.012L267.691 129.996L266.891 129.975L265.228 129.922L262.132 129.809C261.692 129.794 261.256 129.779 260.828 129.766C260.384 129.766 260.242 129.679 260.115 129.534L260.052 129.456L259.984 129.369C259.947 129.324 259.905 129.275 259.854 129.224L259.855 129.091C259.858 128.917 259.877 128.845 259.982 128.724L260.065 128.635L260.179 128.52C260.883 128.466 261.641 128.52 262.344 128.574C262.362 128.557 262.387 128.54 262.419 128.523L262.494 128.489L262.588 128.453L262.767 128.394L263.259 128.238L263.463 128.17L263.687 128.092L263.93 128.003L264.194 127.901L264.477 127.785L264.781 127.654C265.051 127.492 265.268 127.329 265.485 127.113L265.618 126.639C265.688 126.396 265.766 126.149 265.864 125.921L265.93 125.338L266.119 123.558C266.185 122.959 266.258 122.356 266.351 121.753L266.548 115.693L266.587 113.936L266.595 113.22L266.595 112.446L266.587 111.533L266.567 110.22C266.567 109.733 266.459 109.3 266.351 108.813L266.4 107.874C266.445 107.085 266.506 106.283 266.622 105.51L266.463 101.696L266.381 99.9946L266.334 99.2451L266.296 98.7891L266.261 98.4565L266.215 98.1043L266.178 97.8605L266.132 97.5847L266.08 97.2805L265.199 95.2901L265.034 94.9307L264.874 94.5999L264.759 94.3763L264.64 94.1628L264.468 93.8726C264.447 93.8371 264.425 93.8001 264.402 93.7612C264.321 93.7071 264.233 93.653 264.139 93.5971L263.847 93.4228C263.644 93.301 263.427 93.1657 263.211 93.0032L262.723 92.8889L262.412 92.8239L262.198 92.7875L262.054 92.7681L261.902 92.7518L261.737 92.7382L261.554 92.7265L261.113 92.707L260.179 92.6784C260.07 92.4077 259.908 92.1911 259.746 91.9746C259.815 91.9049 259.885 91.8254 259.959 91.7359L260.113 91.5436L260.287 91.3249L260.466 91.3256L260.792 91.331L261.084 91.3411L261.356 91.3549L262.532 91.4329L262.945 91.4549L263.614 91.4814C263.676 91.4834 263.74 91.4854 263.806 91.4873L263.899 91.5408L263.942 91.5622L263.988 91.5803L264.038 91.5953C264.047 91.5975 264.057 91.5996 264.066 91.6016L264.129 91.6121L264.246 91.6226L264.343 91.6265L264.596 91.6272L265.286 91.6093L265.701 91.5956C266.459 91.4331 267.163 91.2707 267.921 91ZM85.2463 119.533L85.6406 119.928L85.8124 120.104L85.9392 120.24L86.0014 120.312L86.0476 120.371C86.1056 120.452 86.1152 120.497 86.1007 120.54L86.0878 120.569L85.4253 121.654L84.7342 122.761L83.6773 124.418L83.5094 124.695L83.4264 124.842L83.3551 124.977L83.3137 125.062L83.2597 125.184L83.2146 125.302C83.2055 125.328 83.197 125.354 83.189 125.38C83.189 125.581 83.1934 125.782 83.1997 125.986L83.2324 126.928C83.2387 127.145 83.2431 127.368 83.2431 127.6C83.1348 127.871 83.013 128.141 82.8776 128.426L82.6645 128.864L82.431 129.332L81.7813 129.82L71.4402 129.982L71.362 129.918L71.3186 129.879C71.3119 129.872 71.3054 129.866 71.2992 129.859L71.2643 129.817L71.234 129.769C71.2293 129.76 71.2247 129.751 71.2202 129.742L71.1948 129.68L71.1716 129.604L71.1495 129.512L71.1277 129.401L71.081 129.107L71.007 128.574L71.6567 128.087C72.1621 128.087 72.6674 128.063 73.1888 128.031L73.9848 127.979C75.4467 127.546 76.9085 127.058 78.3703 126.571C79.9946 124.73 81.5106 122.781 82.8641 120.778C83.2972 120.453 83.6762 120.074 84.0552 119.641C84.4342 119.641 84.8674 119.587 85.2463 119.533ZM314.591 91.1083C315.133 91.1624 315.674 91.2707 316.216 91.379L325.257 91.2166C325.365 91.3249 325.474 91.4331 325.528 91.5956C325.463 91.6605 325.417 91.745 325.38 91.8256L325.311 91.9746L324.066 92.4618L323.914 92.6607L323.635 93.0088L323.416 93.274C323.416 93.7071 323.416 94.0861 323.362 94.5192C323.687 95.3313 324.066 96.0893 324.499 96.8473C324.986 97.3346 325.365 97.876 325.582 98.5257L326.34 99.013L326.485 99.3977L327.08 101.021C327.288 101.577 327.507 102.141 327.748 102.695C328.073 103.236 328.506 103.886 328.939 104.481L329.539 105.867L330.022 106.972C330.13 107.134 330.244 107.303 330.363 107.475L330.728 108.003L331.105 108.542C331.538 108.921 332.025 109.3 332.512 109.679C332.791 109.772 333.089 109.865 333.399 109.957L334.031 110.143L334.678 110.329L334.712 110.489L334.809 110.965C334.866 111.233 334.937 111.514 335.057 111.845L335.089 112.973L335.133 115.21C335.141 115.584 335.152 115.959 335.165 116.338L335.088 116.715L335.048 116.929C335.019 117.101 335 117.264 334.988 117.461L334.977 117.718L334.973 118.025L334.975 118.527L335.003 120.02L334.678 120.67L334.719 122.354L334.737 122.757L334.755 122.988L334.768 123.091L334.789 123.198L334.801 123.241L334.815 123.279L334.846 123.347L334.894 123.431L335.165 126.03L335.281 126.219L335.517 126.617L335.895 127.263C335.94 127.338 335.985 127.414 336.031 127.492L336.743 127.816C337.095 127.979 337.439 128.141 337.764 128.304C337.872 128.304 337.972 128.356 338.073 128.422L338.228 128.526C338.334 128.596 338.446 128.661 338.576 128.683C338.684 128.845 338.847 129.17 338.901 129.495L338.576 129.82C338.251 129.82 337.981 129.82 337.656 129.928C337.385 129.874 337.114 129.766 336.844 129.603C334.299 129.549 331.7 129.332 329.047 129.278C328.073 129.278 327.098 129.387 326.069 129.495C325.69 129.603 325.311 129.766 324.932 129.928C324.445 129.928 323.958 129.928 323.471 129.982C323.146 129.711 322.767 129.495 322.388 129.278C322.465 129.24 322.57 129.146 322.683 129.036L322.821 128.899C323.137 128.857 323.575 128.676 324.041 128.464L324.849 128.09C325.315 127.877 325.753 127.696 326.069 127.654C326.665 127.329 327.152 126.842 327.531 126.3L328.018 124.676L328.158 120.329C328.165 120.082 328.173 119.834 328.181 119.587C328.073 118.233 327.91 116.934 327.694 115.526C327.694 115.147 327.748 114.714 327.856 114.335C327.694 113.306 327.477 112.224 327.206 111.141L326.159 109.277L325.667 108.415L325.298 107.783L325.012 107.307L324.645 106.715L324.246 106.089L323.691 105.241L322.012 102.725C321.957 102.644 321.902 102.562 321.846 102.478L321.776 102.405L321.629 102.244C321.525 102.13 321.405 102.006 321.251 101.883L321.108 101.578L320.491 100.291C320.384 100.068 320.276 99.8406 320.168 99.6086L319.476 98.7457L318.416 97.4133C318.055 96.9615 317.684 96.5022 317.298 96.0352C317.175 95.8186 317.051 95.5932 316.926 95.3615L316.35 94.2847C316.219 94.0397 316.084 93.7922 315.945 93.5447C315.759 93.359 315.538 93.1911 315.302 93.0206L314.939 92.7605C314.877 92.716 314.816 92.6707 314.754 92.6243C314.266 92.5972 313.779 92.543 313.278 92.4821L312.515 92.3882C312.256 92.3569 311.992 92.3265 311.722 92.2994C311.613 92.137 311.451 91.9746 311.289 91.8121L311.938 91.1624L314.591 91.1083ZM59.6775 91.3408L59.6914 91.379L62.0693 91.606L62.8427 91.6712L63.2023 91.6964L63.5951 91.7172L63.8817 91.7262L64.2296 91.7294L64.7488 91.7217L65.3763 91.7038C65.6037 91.7363 65.8116 91.7883 66.0234 91.8481L66.4591 91.9746L70.9597 91.8853L74.2929 91.8037L77.0544 91.7186L81.0031 91.5679L81.8571 91.5461C81.9384 91.5445 82.0213 91.5429 82.1061 91.5414C82.7558 91.6497 83.4055 91.8663 83.9469 92.2994C83.8928 92.5701 83.8928 92.895 83.8928 93.2198L83.7284 93.5467C83.6161 93.7673 83.4958 93.9958 83.3514 94.2485C82.8641 94.5734 82.3768 94.8982 81.8896 95.2772L81.7878 95.4182L81.6727 95.5676L81.4966 95.7853L80.7909 96.6311L80.4075 97.1017L79.9647 97.662L79.5647 98.184L79.3486 98.4721L79.0036 98.9405L78.7592 99.2782L78.3703 99.8251L76.2588 101.666L76.0105 102.039L75.7793 102.376L75.5643 102.683L75.0912 103.346L74.9254 103.583L74.7715 103.812C74.5491 104.15 74.3638 104.475 74.2014 104.86C73.0103 106.43 72.1982 108.055 71.007 109.625C70.5847 110.469 70.1624 111.334 69.7401 112.205L68.8955 113.956L68.251 114.915L67.9459 115.381L67.7119 115.751L67.478 116.136L67.0612 116.853L66.3714 118.087L65.4846 119.695C64.2934 121.374 62.994 123.052 61.6946 124.676C61.5322 125.109 61.3698 125.488 61.1532 125.867V126.625L61.1963 126.66L61.2701 126.714L61.3248 126.747L61.389 126.779L61.4679 126.811L61.5666 126.845L61.7381 126.895L62.0341 126.97L62.6439 127.112L63.8603 127.383C64.4559 127.383 65.0514 127.383 65.647 127.437C66.1884 127.708 66.6757 128.141 67.0005 128.683L66.9116 128.968L66.8627 129.111C66.785 129.324 66.72 129.417 66.5729 129.54L66.474 129.618L66.3508 129.711L65.8324 129.754L65.6189 129.766L65.3884 129.774C65.3487 129.775 65.3083 129.776 65.2667 129.776L64.9895 129.774L64.6015 129.763L63.9319 129.729L62.8921 129.663L60.4494 129.495L52.1258 129.884L50.8381 129.928L50.5929 129.932H50.4527L50.3077 129.929C50.2871 129.928 50.2682 129.927 50.2506 129.926L50.1612 129.917L50.1038 129.908L50.0741 129.9L50 129.874V129.332C50.5053 128.791 50.9866 128.226 51.4598 127.652L52.1657 126.788L54.7318 123.181L55.7187 121.777L56.2671 120.985L56.7959 120.211L57.3326 119.414L58.4057 117.796L60.8825 114.01L61.1843 113.473L61.7917 112.379L62.7265 110.689C62.8327 110.498 62.9399 110.305 63.0482 110.112C64.1852 108.488 65.3221 106.844 66.4634 105.188L68.7528 101.865C69.5187 100.753 70.2877 99.6395 71.0612 98.5257L71.1335 98.2673L71.3594 97.4378C71.4916 96.9603 71.6387 96.4623 71.8192 95.9811L71.7786 95.8508L71.6973 95.5699C71.6838 95.5242 71.6703 95.4802 71.6567 95.4396L71.161 95.2045L70.1492 94.7544C69.9817 94.6783 69.8159 94.6004 69.6535 94.5192L69.0918 94.3966L68.53 94.2688C68.4353 94.2468 68.3397 94.2244 68.2428 94.2015L67.6431 94.0566C67.5394 94.0311 67.4337 94.0049 67.3254 93.9778L60.3411 93.9237L58.1213 95.1689L57.2994 95.8489L56.9655 96.1315L56.5532 96.4929L56.1889 96.8276L55.8603 97.1411L55.4076 97.5856L54.7578 98.2375L53.3513 99.6654C53.2999 99.7177 53.2476 99.771 53.1944 99.8251L52.9305 99.8959L52.8041 99.9263C52.6213 99.9656 52.5674 99.9488 52.4882 99.8757L52.4364 99.8251C52.8154 98.4174 53.3027 97.0639 53.9524 95.8186C54.4071 95.2555 54.758 94.7618 55.0846 94.2888L55.5662 93.5888C55.8885 93.1245 56.2263 92.6567 56.6594 92.137C57.0926 91.9204 57.5257 91.6497 57.9047 91.3249L59.0071 91.2598L59.3182 91.2496L59.4461 91.2511L59.511 91.2554L59.5619 91.2625L59.6009 91.2723C59.6122 91.2761 59.6217 91.2803 59.63 91.285L59.6511 91.3006L59.6663 91.3192L59.6775 91.3408ZM195.912 91.2166C196.081 91.4196 196.039 91.7072 195.97 91.9473L195.928 92.0845L195.887 92.204C195.875 92.2402 195.865 92.2723 195.858 92.2994C195.371 92.2994 194.938 92.2994 194.45 92.4077C194.017 92.6784 193.584 92.895 193.097 93.1657C192.555 93.7071 192.122 94.3568 191.798 95.0606L191.843 97.6156C191.878 99.7489 191.906 101.898 191.906 104.102L192.447 107.459L192.517 107.532L192.665 107.694C192.769 107.807 192.888 107.931 193.043 108.055L193.97 108.218L194.897 108.386C195.053 108.415 195.209 108.444 195.367 108.474L196.332 108.659C196.497 108.692 196.664 108.725 196.833 108.759L199.323 108.704L199.909 108.516C200.25 108.405 200.609 108.278 200.947 108.109C201.381 107.784 201.76 107.459 202.139 107.08L202.465 106.537L202.804 105.981C202.921 105.793 203.041 105.6 203.167 105.402L203.428 103.924L203.494 103.573L203.55 103.3L203.588 103.137L203.624 103.003L203.659 102.892L203.683 102.827L203.72 102.741C203.724 102.732 203.729 102.723 203.733 102.715L203.76 102.664L203.793 102.605L203.871 102.478C204.142 102.478 204.413 102.478 204.683 102.37L204.954 102.95L205.019 103.102L205.05 103.179L205.07 103.24L205.082 103.29L205.087 103.331C205.087 103.337 205.087 103.343 205.087 103.349L205.083 103.383L205.062 103.453L204.807 104.874L204.702 105.415L204.657 105.623L204.615 105.802L204.558 106.008L204.499 106.194L204.431 106.38L204.304 106.701C204.358 108.488 204.358 110.329 204.413 112.169L204.494 112.3L204.656 112.581C204.683 112.626 204.71 112.67 204.737 112.711L204.746 113.239L204.783 114.295C204.788 114.47 204.792 114.646 204.792 114.822C204.699 115.039 204.606 115.291 204.513 115.558L204.374 115.967C204.351 116.037 204.327 116.106 204.304 116.176H203.709L203.167 113.493C203.077 113.042 202.987 112.585 202.897 112.115C202.788 112.034 202.683 111.95 202.579 111.862L202.26 111.594C202.044 111.411 201.814 111.222 201.543 111.032L199.053 110.383L196.075 110.437C195.263 110.599 194.45 110.816 193.638 111.032L193.335 111.286L192.827 111.705C192.65 111.852 192.468 112.007 192.285 112.169C191.798 112.711 191.31 113.361 190.823 114.01C190.661 115.256 190.552 116.555 190.39 117.854L190.438 119.863C190.479 121.548 190.529 123.261 190.606 125.001C190.715 125.488 190.823 125.976 190.985 126.463C191.125 126.556 191.264 126.644 191.404 126.732L191.831 126.997C192.047 127.133 192.269 127.275 192.501 127.437C193.963 127.6 195.425 127.654 196.833 127.6L198.078 128.033C198.186 128.195 198.349 128.358 198.511 128.466C198.511 128.791 198.457 129.116 198.349 129.387L197.374 129.874L197.158 129.87L196.965 129.857L196.678 129.826L195.998 129.735L195.647 129.695L195.214 129.652L194.683 129.607L194.21 129.572L193.855 129.549L191.192 129.523L185.583 129.442L182.905 129.427L180.505 129.429L178.045 129.441C178.045 129.224 178.045 129.008 178.1 128.791L178.24 128.696C178.359 128.612 178.486 128.513 178.641 128.358C179.778 128.358 180.969 128.25 182.106 128.141C182.539 127.979 182.918 127.816 183.351 127.546L183.643 127.209C183.897 126.919 184.179 126.61 184.488 126.3L184.536 124.932C184.578 123.776 184.628 122.588 184.705 121.428L184.624 121.216L184.461 120.773C184.434 120.7 184.407 120.629 184.38 120.561L184.36 119.819L184.31 117.581C184.291 116.831 184.264 116.075 184.218 115.31L184.297 114.396L184.45 112.569C184.579 111.046 184.718 109.523 184.922 108.001C184.9 107.789 184.882 107.586 184.867 107.39L184.842 107.009L184.823 106.648L184.81 106.309L184.798 105.841L184.787 104.942L184.782 104.736L184.775 104.554L184.762 104.395C184.75 104.272 184.732 104.175 184.705 104.102C184.723 103.886 184.747 103.675 184.773 103.465L184.853 102.827C184.879 102.61 184.903 102.388 184.922 102.153L184.705 99.4702L184.272 94.0319C184.133 93.9391 183.989 93.8507 183.842 93.763L183.394 93.4978C183.166 93.3624 182.934 93.2198 182.702 93.0574C181.781 93.0032 180.861 92.9491 179.886 92.7867L179.647 92.652L179.535 92.5842C179.439 92.5216 179.383 92.4706 179.323 92.393L179.259 92.3051L179.182 92.1911C179.237 92.1189 179.285 92.0106 179.333 91.8903L179.431 91.6408C179.499 91.4732 179.573 91.3128 179.67 91.2166L180.462 91.1554L181.131 91.1115L181.566 91.0885L181.957 91.073L182.312 91.0638L182.749 91.06L182.959 91.0609L183.343 91.0665L184.534 91.0939L185.202 91.1041L186.004 91.1083C186.033 91.1161 186.071 91.1225 186.117 91.1275L186.22 91.1357C186.239 91.1368 186.259 91.1378 186.279 91.1386L186.415 91.1421L186.657 91.1422L187.049 91.1343L189.314 91.0609L190.029 91.0447L190.599 91.0363L191.194 91.0322L191.814 91.0336L192.455 91.0416L193.115 91.0571L193.566 91.0722L194.254 91.1028L194.722 91.1289L195.194 91.16C195.273 91.1656 195.353 91.1714 195.432 91.1775L195.912 91.2166ZM350 91.1083V91.5414C349.892 91.7038 349.729 91.8663 349.567 92.0287L349.099 92.2754L348.565 92.5636L348.122 92.8094L347.679 93.0642L347.278 93.3052L346.676 93.679L346.571 93.739L346.5 93.7775L346.427 93.8154C346.427 94.0861 346.373 94.4109 346.264 94.6816L342.467 99.4551L341.525 100.667L341.026 101.325L340.584 101.922L339.58 103.314L339.172 103.886L338.927 104.366L338.418 105.348L338.143 105.889L337.899 106.218L337.152 107.245C336.982 107.477 336.807 107.712 336.627 107.946C336.356 107.946 336.086 107.946 335.815 107.892C335.707 107.73 335.544 107.567 335.382 107.405C335.382 107.188 335.382 106.918 335.273 106.701C335.815 105.889 336.41 105.131 337.06 104.319C337.223 103.94 337.385 103.507 337.493 103.128C337.944 102.466 338.437 101.788 338.943 101.105L339.554 100.285L340.167 99.4664C341.08 98.2415 341.96 97.0368 342.637 95.9269C342.655 95.6201 342.685 95.3975 342.717 95.207L342.793 94.7847C342.827 94.5777 342.853 94.3568 342.853 94.0319L342.781 93.9423L342.655 93.7426C342.633 93.7105 342.61 93.68 342.583 93.653L341.559 93.4093C340.99 93.274 340.41 93.1386 339.767 93.0032L339.695 92.9335L339.541 92.7902C339.439 92.6917 339.342 92.5856 339.28 92.4618C339.28 92.1911 339.334 91.9204 339.442 91.6497C339.496 91.5414 339.605 91.4873 339.713 91.4331L340.657 91.4222L341.465 91.4178L342.555 91.4207L344.52 91.444L345.036 91.4478L345.863 91.4478L346.706 91.4402L347.185 91.4331L348.114 91.2509L348.349 91.1985L348.437 91.176L348.507 91.1549L348.564 91.1345L348.61 91.114L348.648 91.0927L348.695 91.0573L348.755 91C349.188 91 349.567 91 350 91.1083ZM162.777 91.0541C163.427 91.1083 164.023 91.2166 164.672 91.3249L169.329 91.2166L170.303 91.6497C170.574 91.9746 170.845 92.2994 171.115 92.5701C171.278 93.274 171.494 93.9778 171.711 94.6816L172.036 97.7136L172.207 97.9626L172.26 98.0477L172.307 98.1308L172.35 98.2159L172.389 98.3072L172.427 98.4089L172.464 98.5251L172.504 98.66L172.569 98.9062L172.74 99.6086L172.623 100.432L172.585 100.675L172.562 100.807L172.539 100.917L172.516 101.009C172.512 101.023 172.509 101.037 172.505 101.049L172.481 101.119C172.477 101.129 172.473 101.139 172.468 101.149L172.442 101.201C172.437 101.209 172.432 101.217 172.427 101.224L172.396 101.266L172.361 101.303L172.322 101.339L172.252 101.395C171.386 100.312 170.574 99.1213 169.978 97.8219C169.502 97.3021 169.043 96.713 168.594 96.1205L167.928 95.2374C167.488 94.6578 167.055 94.1077 166.622 93.653L165.853 93.2041L165.471 92.9875L165.235 92.8616L165.133 92.811L164.994 92.747C164.979 92.7405 164.964 92.7343 164.949 92.7282L164.853 92.6903L164.69 92.6334L164.508 92.5779L164.293 92.516C162.94 92.5546 161.586 92.5381 160.213 92.5057L158.554 92.4618L158.447 92.3894C158.29 92.281 158.236 92.2228 158.166 92.0431L158.096 91.8438C158.087 91.817 158.077 91.7884 158.067 91.758C158.5 91.5956 158.879 91.379 159.258 91.1083L162.777 91.0541ZM208.741 91.0709L209.015 91L209.597 91.287C209.865 91.4221 210.144 91.5724 210.422 91.758C210.585 92.8486 210.797 93.9093 211.025 94.9828L211.374 96.608C211.57 97.5222 211.764 98.46 211.938 99.4461L211.92 99.496L211.905 99.5226C211.903 99.5266 211.899 99.5304 211.896 99.534L211.872 99.5531C211.863 99.5587 211.852 99.5635 211.838 99.5676L211.791 99.5779C211.782 99.5792 211.773 99.5804 211.762 99.5815L211.691 99.5859H211.544L210.97 99.5604C210.933 99.5585 210.895 99.5565 210.855 99.5544L209.438 96.5228L209.013 95.6396L208.767 95.1518L208.643 94.9224L208.515 94.7044L208.419 94.5567L208.326 94.4274L208.185 94.2492L208.094 94.1402L207.873 94.0206L206.51 93.303C206.427 93.2587 206.341 93.213 206.253 93.1657C205.333 92.9491 204.413 92.8408 203.438 92.895L203.369 92.9444L203.325 92.9693L203.291 92.984L203.253 92.9971L203.208 93.009L203.125 93.0245L203.018 93.0377L202.931 93.0455L202.646 93.0623L201.827 93.0884L200.839 93.1115C200.298 92.9491 199.865 92.5701 199.594 92.137C199.648 91.9746 199.756 91.8121 199.919 91.6497C200.054 91.5956 200.203 91.5279 200.359 91.4534L200.839 91.2166C201.651 91.2707 202.463 91.3249 203.276 91.4331L206.353 91.2941L207.388 91.2374L207.844 91.2041L208.142 91.175L208.415 91.1377L208.579 91.1074L208.741 91.0709ZM303.005 91.1083C303.655 91.1624 304.25 91.4331 304.683 91.9204C304.792 92.0287 304.792 92.137 304.737 92.2994L304.607 92.3806L304.326 92.543C304.281 92.5701 304.237 92.5972 304.196 92.6243L300.244 93.1657L299.432 93.9778C299.323 94.2253 299.211 94.4728 299.095 94.7228L298.556 95.8736C298.434 96.1368 298.31 96.4065 298.186 96.6849C298.186 97.5512 298.186 98.4174 298.132 99.2837H297.32C297.284 99.1393 297.224 98.9709 297.156 98.7944L297.049 98.5257C297.049 98.0926 297.103 97.6053 297.212 97.1722C297.103 96.3059 296.941 95.3855 296.724 94.4109C296.291 93.9237 295.804 93.5447 295.208 93.274L294.209 93.2139L293.816 93.1831L293.583 93.1577L293.449 93.1386L293.328 93.1169L293.215 93.0921L293.107 93.0634L293 93.0303L292.833 92.971L292.501 92.8408L292.429 92.719L292.303 92.4754C292.281 92.4348 292.258 92.3942 292.231 92.3535C292.393 91.8663 292.772 91.4873 293.259 91.2707L293.565 91.2625L293.935 91.2596L294.278 91.2639L295.87 91.3188L296.518 91.3316L296.816 91.3346L297.492 91.3356L298.078 91.3309L298.511 91.3249L298.593 91.2945L298.692 91.262L298.801 91.2349L298.935 91.2125L299.071 91.1975L299.242 91.1845L299.58 91.1682L300.325 91.1482L302.805 91.1109C302.871 91.1101 302.937 91.1092 303.005 91.1083Z" fill="black"/>
</svg>
