<svg width="112" height="95" viewBox="0 0 112 95" fill="none" xmlns="http://www.w3.org/2000/svg">
<path d="M46.6602 39.947H57.5439V37.9178C57.0643 37.8809 56.474 37.8071 55.773 37.6964C55.072 37.5488 54.4817 37.3644 54.0021 37.143C53.4487 36.8479 52.7477 36.4051 51.9729 35.8148C51.1613 35.2245 50.3865 34.4497 49.6117 33.4536C48.8003 32.4393 48.0059 31.4535 47.2309 30.4916L47.2244 30.4836L47.2235 30.4825L47.2227 30.4815C46.0273 28.9979 44.8778 27.5714 43.7825 26.1855C41.9747 23.935 39.6872 21.2048 36.8833 18.0688C38.9125 16.1872 40.9416 14.0843 42.9708 11.7968C45.0369 9.50942 46.9922 7.29577 48.8738 5.15592C49.3166 4.6763 49.87 4.30736 50.571 3.97532C51.2719 3.64327 51.936 3.42191 52.5632 3.27433C52.7221 3.24544 52.8697 3.21656 53.0059 3.18988C53.2177 3.14843 53.4022 3.11231 53.5594 3.08986C53.7315 3.04067 53.9037 3.02428 54.0759 3.00788C54.162 2.99968 54.2481 2.99148 54.3341 2.97918C54.4498 2.97918 54.5656 2.9691 54.676 2.95947C54.7768 2.95069 54.8733 2.94229 54.9613 2.94229C55.1458 2.90539 55.2934 2.90539 55.3303 2.90539V0.950012H40.7203V2.90539C40.8636 2.92586 41.0296 2.93498 41.2183 2.94534C41.3697 2.95365 41.5358 2.96276 41.7164 2.97918C42.1222 3.01608 42.565 3.08986 43.0815 3.20055C43.5242 3.31123 43.93 3.4588 44.2621 3.64327C44.5941 3.79085 44.7786 4.04911 44.7786 4.30737C44.7786 5.08214 44.4466 5.96759 43.7825 6.96373C43.1184 7.95987 42.0484 9.28805 40.6096 10.9483C39.2814 12.424 37.8425 13.9367 36.2561 15.4493C34.6696 16.962 33.0463 18.4009 31.3861 19.8028H30.8327V6.33653C30.8327 5.74623 30.9434 5.19282 31.1647 4.6763C31.3861 4.15979 31.7919 3.79085 32.4191 3.56948C32.7881 3.4588 33.3415 3.31123 34.1162 3.16365C34.891 3.01608 35.5182 2.94229 36.0347 2.90539V0.950012H19.8752V2.90539C20.3917 2.94229 20.982 3.05297 21.6461 3.23744C22.3471 3.42191 22.9374 3.64327 23.417 3.86464C24.0442 4.15979 24.45 4.56562 24.6714 5.00835C24.8927 5.45108 25.0034 6.00449 25.0034 6.63168V34.7818C25.0034 35.4459 24.8927 35.9993 24.6345 36.4789C24.4131 36.9585 24.0073 37.3275 23.4539 37.5488C23.1218 37.6964 22.5684 37.8071 21.7568 37.8809C21.2813 37.9241 20.8692 37.9547 20.5277 37.98C20.2863 37.9979 20.0801 38.0132 19.9121 38.0285V39.9839H36.0716V38.0285C35.5551 38.0285 34.891 37.9178 34.0794 37.7333C33.3046 37.5488 32.7512 37.3644 32.456 37.2537C31.8288 36.9585 31.423 36.5896 31.2016 36.11C30.9803 35.6304 30.8696 35.0769 30.8696 34.4866V20.9097H31.5706C34.3745 23.8981 37.0678 27.0341 39.6503 30.2438C42.2329 33.4536 44.5572 36.7003 46.6602 39.947Z" fill="#1D1D23"/>
<path d="M21.4984 64.1862L20.7237 72.1553H20.3916L19.1003 67.4328H19.0634L17.7722 72.1553H17.4401L16.6284 64.1862L17.4032 64.0386L17.7722 69.9047H17.809L18.9528 65.8095H19.1741L20.3178 69.9047H20.3547L20.7237 64.0386L21.4984 64.1862Z" fill="#1D1D23"/>
<path fill-rule="evenodd" clip-rule="evenodd" d="M24.1917 72.1553L24.8189 69.6096H26.9587L27.549 72.1553L28.3238 71.9339L26.3316 64.1862H25.4092L23.4169 71.9339L24.1917 72.1553ZM25.0034 68.9086L25.8888 65.2561L26.7743 68.9086H25.0034Z" fill="#1D1D23"/>
<path d="M31.8288 64.1862H31.054V72.0077H35.0385V71.3067H31.8288V64.1862Z" fill="#1D1D23"/>
<path d="M38.9493 64.1862H38.1745V72.0077H42.1591V71.3067H38.9493V64.1862Z" fill="#1D1D23"/>
<path d="M53.5224 64.1862H49.6855V72.0077H50.4602V68.1707H53.0059V67.4697H50.4602V64.8871H53.5224V64.1862Z" fill="#1D1D23"/>
<path fill-rule="evenodd" clip-rule="evenodd" d="M56.1419 72.1553L56.7691 69.6096H58.9089L59.4992 72.1553L60.274 71.9339L58.2817 64.1862H57.3594L55.3671 71.9339L56.1419 72.1553ZM56.9536 68.9086L57.839 65.2561L58.7245 68.9086H56.9536Z" fill="#1D1D23"/>
<path d="M64.812 64.8503C65.4761 64.8503 65.7712 65.4037 65.8819 65.994L66.6567 65.8834C66.4353 64.8872 65.9188 64.1125 64.812 64.1125C63.7052 64.1125 63.0042 65.0348 63.0042 66.1047C63.0042 67.2853 63.6314 67.6543 64.5168 68.1708C64.5598 68.1962 64.6023 68.2212 64.6444 68.2458C65.3969 68.6875 65.9926 69.0371 65.9926 70.0155C65.9926 70.9747 65.513 71.4175 64.8489 71.4175C63.8896 71.4175 63.7052 70.7534 63.5945 69.9048L62.8197 70.0155C62.9304 71.233 63.4469 72.1553 64.812 72.1553C66.1033 72.1553 66.7674 71.1592 66.7674 69.9417C66.7674 68.7611 66.1033 68.2815 65.144 67.6912C63.8896 66.9533 63.7789 66.7319 63.7789 66.1047C63.7789 65.4406 64.0741 64.8503 64.812 64.8503Z" fill="#1D1D23"/>
<path d="M70.5305 64.1862H69.7557V72.0077H70.5305V68.1707H72.9286V72.0077H73.7034V64.1862H72.9286V67.4697H70.5305V64.1862Z" fill="#1D1D23"/>
<path d="M77.0977 64.8871H78.1676V71.3067H77.0977V72.0077H80.0123V71.3067H78.9424V64.8871H80.0123V64.1862H77.0977V64.8871Z" fill="#1D1D23"/>
<path fill-rule="evenodd" clip-rule="evenodd" d="M85.2512 72.1183C87.4302 72.1183 87.4286 69.187 87.428 68.1451V68.0469C87.4286 66.9719 87.4301 64.1118 85.2512 64.0754C83.1483 64.0754 83.0745 66.8056 83.0745 68.0969L83.0745 68.1451C83.0739 69.187 83.0722 72.1183 85.2512 72.1183ZM85.2512 71.3805C84.1813 71.3805 83.923 70.1998 83.923 68.0969L83.923 68.0088C83.9221 66.847 83.9205 64.8133 85.2512 64.8133C86.5815 64.8133 86.5804 66.5301 86.5795 67.9833V68.202C86.5804 69.5582 86.5816 71.3805 85.2512 71.3805Z" fill="#1D1D23"/>
<path d="M91.7446 64.1862H90.7484V72.0446H91.5232V67.2484L91.4863 65.4774L91.5232 65.4405L93.8475 72.0077H94.8437V64.1862H94.0689V68.9824L94.1058 70.7164L94.0689 70.7533L91.7446 64.1862Z" fill="#1D1D23"/>
<path d="M53.5224 92.6315C53.5224 91.5985 54.4079 90.713 55.5147 90.713C56.6215 90.713 57.507 91.5985 57.507 92.6315C57.507 93.7014 56.6215 94.55 55.5147 94.55C54.4079 94.55 53.5224 93.7014 53.5224 92.6315Z" fill="#1D1D23"/>
<path d="M89.7154 11.5386C89.5679 10.8745 89.2358 10.0997 88.83 9.17737C88.3873 8.25502 87.9076 7.40646 87.3911 6.59479C86.8377 5.74623 86.2474 5.00835 85.5833 4.38115C84.9192 3.75395 84.292 3.38501 83.7017 3.31123C83.1483 3.23744 82.4104 3.20055 81.5619 3.16365C80.7133 3.12676 79.9016 3.12675 79.1638 3.12675H77.5773V34.3022C77.5773 34.8925 77.688 35.4459 77.9463 35.9624C78.2045 36.4789 78.6473 36.8479 79.2744 37.143C79.6065 37.2537 80.3075 37.4382 81.3405 37.6595C82.4104 37.8809 83.2221 37.9916 83.8124 38.0285V39.9839H65.4023V38.0285C65.9188 37.9916 66.6936 37.9178 67.7635 37.8071C68.8335 37.6964 69.5344 37.5488 69.9403 37.4013C70.5306 37.1799 70.9733 36.811 71.2685 36.3682C71.5636 35.9255 71.7112 35.3352 71.7112 34.5604V3.08986H70.1247C69.5713 3.08986 68.8703 3.08986 68.0218 3.12675C67.1732 3.16365 66.3616 3.20054 65.5868 3.31123C64.9965 3.38501 64.3693 3.75395 63.7052 4.38115C63.0411 5.04524 62.4508 5.78312 61.8974 6.59479C61.344 7.40646 60.8643 8.29191 60.4585 9.21426C60.0527 10.1366 59.7575 10.9114 59.5731 11.5017H57.6546V0.950012H91.6339V11.5386H89.7154Z" fill="#1D1D23"/>
<path d="M11.574 54.9629L11.3158 58.9474H0.100006V58.2833C0.241211 58.2833 0.425671 58.2617 0.653346 58.235C0.723072 58.2268 0.796942 58.2182 0.874779 58.2095C1.20683 58.1726 1.39129 58.1358 1.50198 58.0989C1.72334 57.9882 1.83402 57.8775 1.94471 57.7299C2.01849 57.5823 2.05539 57.3979 2.05539 57.1396V47.3996C2.05539 47.1782 2.01849 46.9938 1.94471 46.8462C1.87092 46.6986 1.72334 46.551 1.50198 46.4404C1.31751 46.3666 1.09614 46.2928 0.800991 46.219C0.50584 46.1452 0.284476 46.1083 0.100006 46.1083V45.4442H10.5779V48.6909H9.87691C9.76623 48.2113 9.47108 47.6947 9.06524 47.1413C8.65941 46.5879 8.25357 46.2928 7.84774 46.2559C7.74897 46.2361 7.62904 46.227 7.49929 46.217C7.38673 46.2084 7.26671 46.1992 7.14675 46.1821C7.02573 46.1821 6.8885 46.174 6.74266 46.1654C6.57734 46.1556 6.40077 46.1452 6.22441 46.1452H4.08456V51.5686H5.56032C6.03993 51.5686 6.40888 51.5317 6.63024 51.421C6.8516 51.3473 7.07297 51.1628 7.22054 50.9414C7.36812 50.7569 7.4788 50.4987 7.58948 50.2035C7.70017 49.9084 7.73706 49.6132 7.77395 49.3181H8.51183V54.6308H7.81085C7.77395 54.3357 7.70017 54.0036 7.58948 53.6716C7.4788 53.3395 7.36812 53.0813 7.25744 52.9337C7.07297 52.6754 6.8516 52.5279 6.59335 52.4541C6.33509 52.3803 6.00304 52.3434 5.59721 52.3434H4.08456V56.4017C4.08456 56.8076 4.12145 57.1396 4.15834 57.361C4.23213 57.5823 4.34281 57.7668 4.49039 57.8775C4.63797 57.9882 4.89622 58.062 5.15448 58.0989C5.44963 58.1358 5.85546 58.1358 6.37198 58.1358H7.18365C7.5157 58.1358 7.81085 58.1358 8.0691 58.0989C8.32736 58.062 8.54873 58.0251 8.80699 57.9513C9.06524 57.8775 9.24971 57.8037 9.3604 57.693C9.65555 57.3979 9.9507 56.9183 10.2827 56.2911C10.6148 55.6639 10.7993 55.2211 10.9099 54.926H11.574V54.9629Z" fill="#1D1D23"/>
<path d="M26.9957 58.9843H20.6868V58.3203C21.2033 58.3203 21.6461 58.2465 21.9412 58.1727C22.2733 58.0989 22.4208 57.9513 22.4208 57.7668C22.4208 57.6562 22.347 57.4717 22.1995 57.1765C22.0519 56.8814 21.8674 56.5493 21.6461 56.1804C21.579 56.075 21.5094 55.9645 21.4366 55.8491L21.4361 55.8483C21.2291 55.5198 20.9966 55.1508 20.7237 54.7415C20.5161 54.3955 20.294 54.0639 20.0756 53.7377C19.9447 53.5422 19.8151 53.3486 19.6907 53.1551C19.218 53.7853 18.6915 54.5232 18.0882 55.3688L17.7722 55.8115C17.0712 56.8445 16.7023 57.4717 16.7023 57.6562C16.7023 57.8775 16.8129 58.0251 16.9974 58.1358C17.1819 58.2465 17.6246 58.2834 18.2887 58.3203V58.9843H13.2342V58.3203C13.3565 58.3203 13.5293 58.295 13.7318 58.2653C13.7737 58.2592 13.8171 58.2528 13.8614 58.2465C14.1197 58.2096 14.3411 58.1358 14.4886 58.062C14.8207 57.8775 15.0789 57.6931 15.3003 57.4717C15.3494 57.4128 15.401 57.3539 15.4539 57.2937C15.5999 57.1274 15.7552 56.9504 15.8906 56.7338C16.2964 56.1804 16.8129 55.4794 17.4401 54.6309C17.7379 54.228 18.019 53.8501 18.2874 53.4893L18.288 53.4886L18.2888 53.4875C18.5853 53.0889 18.8664 52.7111 19.1373 52.3434C18.9936 52.1279 18.8331 51.8955 18.658 51.642C18.3836 51.2448 18.073 50.7952 17.7353 50.2774C17.4371 49.8674 17.139 49.4292 16.8313 48.977C16.5299 48.534 16.2192 48.0774 15.8906 47.621C15.6323 47.2152 15.411 46.92 15.2634 46.7724C15.1158 46.6249 14.8945 46.4773 14.6362 46.3297C14.5378 46.2805 14.4066 46.2477 14.2536 46.2095C14.1771 46.1903 14.0951 46.1698 14.009 46.1452L13.9363 46.1347L13.8801 46.1265C13.6776 46.0969 13.504 46.0715 13.3818 46.0715V45.4074H19.6538V46.0715C19.3158 46.0715 18.9778 46.1334 18.6115 46.2005L18.5101 46.219C18.1042 46.2928 17.9198 46.4035 17.9198 46.588C17.9198 46.6986 17.9936 46.92 18.1411 47.2152C18.2887 47.5103 18.4732 47.8424 18.6945 48.1744C18.7913 48.3357 18.8951 48.497 19.0029 48.6644L19.0033 48.665C19.1419 48.8803 19.2873 49.1062 19.4324 49.355C19.6788 49.7774 19.9924 50.2334 20.3731 50.787L20.4286 50.8677C21.1295 49.9084 21.7567 49.023 22.2733 48.2482C22.7898 47.4734 23.048 46.9569 23.048 46.7355C23.048 46.5142 22.9374 46.3666 22.6791 46.2928C22.4577 46.1821 22.0519 46.1452 21.4616 46.1083V45.4443H26.5161V46.1083C26.3938 46.1083 26.2209 46.1337 26.0183 46.1633L25.996 46.1666C25.9611 46.1717 25.9253 46.1769 25.8889 46.1821C25.6306 46.219 25.4092 46.2928 25.2617 46.3666C24.9296 46.5142 24.6714 46.6987 24.5238 46.8831C24.4627 46.9595 24.3889 47.0486 24.3024 47.1529C24.1802 47.3005 24.0326 47.4787 23.8597 47.6948C23.3434 48.3586 22.9008 48.9488 22.4582 49.5389C22.0155 50.1292 21.4985 50.8308 20.9082 51.6424C21.4247 52.3803 21.9781 53.192 22.6053 54.1143C22.8085 54.4132 23.0079 54.7082 23.2046 54.9993L23.205 54.9999C23.6152 55.6069 24.0143 56.1974 24.4131 56.7707C24.5976 57.0659 24.8189 57.3241 25.0772 57.5824C25.3355 57.8406 25.5199 58.0251 25.7044 58.0989C25.852 58.1727 26.0733 58.2465 26.3316 58.2834C26.5899 58.3203 26.8112 58.3203 26.9957 58.3203V58.9843Z" fill="#1D1D23"/>
<path d="M33.2309 59.2794C32.4192 59.2794 31.6444 59.1318 30.9065 58.7998C30.1687 58.4677 29.5046 58.025 28.9512 57.4347C28.3977 56.8444 27.9181 56.1065 27.5861 55.2579C27.254 54.4094 27.0696 53.4132 27.0696 52.3433C27.0696 51.2734 27.2171 50.2772 27.5492 49.3918C27.8812 48.5063 28.324 47.7685 28.9143 47.1044C29.5046 46.4772 30.1687 45.9975 30.9803 45.6286C31.7551 45.2966 32.6037 45.1121 33.4891 45.1121C34.1532 45.1121 34.7435 45.1859 35.2969 45.3703C35.8503 45.5179 36.3668 45.7762 36.8465 46.0713L37.2523 45.4072H38.0271L38.1009 50.2404H37.3261C37.2154 49.7607 37.0678 49.2442 36.8834 48.7277C36.662 48.1743 36.4406 47.6947 36.1824 47.3257C35.8872 46.883 35.5183 46.551 35.1125 46.2927C34.7066 46.0344 34.227 45.9238 33.6736 45.9238C33.0464 45.9238 32.493 46.0713 31.9396 46.3296C31.423 46.5878 30.9434 46.9937 30.5745 47.5471C30.2055 48.0636 29.9104 48.7277 29.689 49.5025C29.4677 50.3141 29.357 51.1996 29.357 52.1588C29.357 53.0074 29.4677 53.8191 29.689 54.557C29.9104 55.2948 30.2055 55.922 30.6114 56.4754C31.0172 57.0289 31.4968 57.4347 32.0502 57.7298C32.6037 58.025 33.2309 58.1726 33.8949 58.1726C34.4115 58.1726 34.8911 58.0988 35.2969 57.9143C35.7396 57.7667 36.1086 57.5454 36.4037 57.2871C36.7358 56.992 36.994 56.6968 37.2523 56.3279C37.5106 55.9589 37.695 55.59 37.8426 55.1473L38.5436 55.4793C37.9902 56.8075 37.2892 57.7667 36.3668 58.357C35.5552 59.0211 34.4852 59.2794 33.2309 59.2794Z" fill="#1D1D23"/>
<path d="M50.9768 54.926L50.6817 58.9475H40.0931V58.2834C40.2011 58.2834 40.3487 58.2636 40.5358 58.2385C40.6043 58.2294 40.6781 58.2195 40.7572 58.2096C41.0523 58.1727 41.2368 58.1358 41.3475 58.0989C41.532 58.0251 41.6795 57.8775 41.7533 57.73C41.8271 57.5824 41.864 57.361 41.864 57.1028V47.3996C41.864 47.1783 41.8271 46.9938 41.7533 46.8093C41.6795 46.6618 41.532 46.5142 41.3106 46.4035C41.163 46.3297 40.9417 46.2559 40.6834 46.1821C40.4251 46.1083 40.2038 46.0715 40.0193 46.0715V45.4074H45.7379V46.0715C45.5534 46.0715 45.332 46.1083 45.0369 46.1821C44.8642 46.2253 44.7294 46.2558 44.6177 46.2811C44.5387 46.2991 44.4708 46.3144 44.4097 46.3297C44.1883 46.4035 44.0408 46.5511 43.967 46.7355C43.8932 46.92 43.8563 47.1045 43.8563 47.3259V56.4018C43.8563 56.8076 43.8932 57.1397 43.9301 57.361C43.967 57.5824 44.0776 57.7668 44.2252 57.9144C44.3728 58.0251 44.5942 58.0989 44.8893 58.1358C45.1844 58.1727 45.5902 58.1727 46.1067 58.1727C46.328 58.1727 46.5865 58.1727 46.8447 58.1358C47.0739 58.1358 47.274 58.1067 47.4967 58.0744L47.5826 58.062C47.8039 58.0251 48.0253 57.9882 48.2098 57.9144C48.3942 57.8406 48.5418 57.7668 48.6156 57.6562C48.8739 57.361 49.169 56.9183 49.538 56.328C49.87 55.7377 50.1283 55.2581 50.2758 54.8891H50.9768V54.926Z" fill="#1D1D23"/>
<path d="M65.5131 46.1082C65.3286 46.1082 65.0703 46.1451 64.7383 46.2189C64.4062 46.2927 64.1111 46.4034 63.8897 46.551C63.6684 46.6985 63.5208 46.9937 63.447 47.4733C63.3732 47.916 63.3363 48.5063 63.3363 49.1335V54.9997C63.3363 55.7376 63.1887 56.4017 62.8567 56.9551C62.5615 57.5085 62.1188 57.9512 61.6392 58.3201C61.1227 58.6522 60.6062 58.9104 60.0527 59.058C59.4993 59.2056 58.9459 59.2794 58.4663 59.2794C57.6546 59.2794 56.9168 59.1687 56.2896 58.9473C55.6624 58.726 55.109 58.4308 54.7031 58.0988C54.2604 57.7298 53.9652 57.324 53.7439 56.8444C53.5225 56.3648 53.4118 55.8851 53.4118 55.3686V47.3626C53.4118 47.1413 53.3749 46.9568 53.3011 46.8092C53.2274 46.6616 53.0798 46.5141 52.8584 46.4034C52.7108 46.3296 52.4895 46.2558 52.2312 46.182C51.973 46.1451 51.7885 46.1082 51.604 46.0713V45.4072H57.2119V46.0713C57.0543 46.0713 56.8699 46.0983 56.6585 46.1291C56.6224 46.1344 56.5855 46.1397 56.5478 46.1451C56.2896 46.182 56.0682 46.2558 55.9575 46.2927C55.7362 46.3665 55.5886 46.5141 55.5148 46.6616C55.441 46.8461 55.4041 47.0306 55.4041 47.2519V54.7045C55.4041 55.0735 55.441 55.4424 55.5148 55.8482C55.5886 56.2541 55.7361 56.623 55.9944 56.9551C56.2527 57.2871 56.5847 57.5823 56.9905 57.8036C57.4333 58.025 57.9867 58.1357 58.7615 58.1357C59.4624 58.1357 60.0527 58.025 60.5324 57.8036C61.012 57.5823 61.3809 57.2871 61.6392 56.9182C61.8974 56.5861 62.0819 56.2172 62.1926 55.8482C62.3033 55.4793 62.3402 55.1104 62.3402 54.7045V49.1704C62.3402 48.4694 62.3033 47.8791 62.1926 47.4364C62.0819 46.9937 61.9343 46.6985 61.7499 46.551C61.5285 46.4034 61.2334 46.2558 60.8275 46.182C60.7505 46.1666 60.6768 46.1512 60.6062 46.1365C60.3386 46.0807 60.1172 46.0344 59.9421 46.0344V45.3704H65.4762V46.1082H65.5131Z" fill="#1D1D23"/>
<path d="M74.8103 52.7492C75.1055 53.0812 75.2899 53.4133 75.4375 53.7822C75.5851 54.1512 75.6589 54.5939 75.6589 55.1104C75.6589 56.291 75.2162 57.2872 74.3307 58.0619C73.4453 58.8367 72.3384 59.2425 71.0471 59.2425C70.4568 59.2425 69.8297 59.1319 69.2394 58.9474C68.649 58.7629 68.0956 58.5416 67.6898 58.2833L67.284 58.9843H66.5092L66.3616 54.3356H67.1364C67.284 54.9259 67.4684 55.4425 67.6898 55.8852C67.9112 56.3279 68.1694 56.7706 68.5384 57.1765C68.8704 57.5454 69.2393 57.8406 69.6821 58.0619C70.1248 58.2833 70.6413 58.394 71.2316 58.394C71.6743 58.394 72.0433 58.3202 72.3753 58.2095C72.7074 58.0988 72.9656 57.9144 73.187 57.7299C73.4084 57.5085 73.5559 57.2872 73.6297 56.992C73.7404 56.6969 73.7773 56.3648 73.7773 55.9959C73.7773 55.4425 73.6297 54.9628 73.3346 54.4832C73.0394 54.0036 72.5598 53.6715 71.9695 53.4133C71.5637 53.2657 71.084 53.0812 70.5306 52.8599C70.1887 52.7378 69.863 52.5995 69.5748 52.4772C69.4279 52.4148 69.2901 52.3563 69.1656 52.3065C68.3908 51.9744 67.8005 51.5317 67.3946 50.9414C66.9888 50.388 66.7674 49.6501 66.7674 48.7646C66.7674 48.2481 66.8781 47.7685 67.0995 47.3258C67.3209 46.883 67.616 46.4772 67.9849 46.1452C68.3539 45.8131 68.7966 45.5549 69.2762 45.3704C69.7928 45.1859 70.3093 45.0752 70.8627 45.0752C71.4899 45.0752 72.0433 45.1859 72.5229 45.3704C73.0025 45.5549 73.4821 45.7762 73.888 46.0345L74.2938 45.3704H75.0686L75.1424 49.8715H74.3676C74.22 49.3549 74.0725 48.8753 73.888 48.3957C73.7035 47.9161 73.4821 47.5102 73.2239 47.1044C72.9656 46.7355 72.6336 46.4403 72.2278 46.219C71.8219 45.9976 71.3423 45.8869 70.7889 45.8869C70.1986 45.8869 69.6821 46.0714 69.2394 46.4772C68.7966 46.883 68.6121 47.3258 68.6121 47.9161C68.6121 48.5064 68.7597 48.986 69.018 49.3549C69.2762 49.7239 69.6821 50.0559 70.1986 50.3142C70.6781 50.5355 71.1208 50.72 71.5634 50.9044C72.0061 51.052 72.4491 51.2365 72.855 51.421C73.1009 51.5194 73.3469 51.6506 73.5928 51.7817C73.7155 51.8472 73.8391 51.9131 73.9618 51.9744C74.2567 52.2325 74.5523 52.4911 74.8103 52.7492Z" fill="#1D1D23"/>
<path d="M83.2221 58.9843H77.0608V58.3202C77.1905 58.3202 77.3386 58.3019 77.5304 58.2783C77.6114 58.2683 77.7002 58.2573 77.7987 58.2464C78.1308 58.2095 78.3521 58.1726 78.4997 58.1357C78.7211 58.0619 78.8686 57.9512 78.9424 57.8036C79.0531 57.6561 79.09 57.4716 79.09 57.2133V47.3995C79.09 47.1782 79.0531 46.9937 78.9793 46.8461C78.9055 46.6986 78.758 46.5879 78.4997 46.4772C78.3152 46.4034 78.057 46.3296 77.7618 46.2558C77.4667 46.182 77.2453 46.1451 77.0608 46.1451V45.4811H83.1483V46.1451C82.9639 46.1451 82.7056 46.182 82.4474 46.2189C82.2783 46.2431 82.1093 46.283 81.9609 46.3181C81.8827 46.3366 81.8101 46.3538 81.7464 46.3665C81.4881 46.4403 81.3405 46.551 81.2668 46.7355C81.193 46.9199 81.1561 47.1044 81.1561 47.3258V57.1027C81.1561 57.324 81.193 57.5085 81.3036 57.6561C81.3774 57.8036 81.5619 57.9512 81.7833 58.025C81.8444 58.0403 81.9182 58.0619 82.0046 58.0872C82.1269 58.123 82.2745 58.1663 82.4474 58.2095C82.7425 58.2833 83.0008 58.3202 83.2221 58.3202V58.9843Z" fill="#1D1D23"/>
<path d="M98.4963 46.1082C98.3487 46.1082 98.1273 46.1451 97.906 46.2189C97.6846 46.2927 97.4633 46.3665 97.3157 46.4772C97.0943 46.6247 96.9098 46.7723 96.7992 46.9937C96.6516 47.2151 96.5409 47.4364 96.4302 47.7316C96.0041 48.6902 95.4072 50.1956 94.6066 52.2149L94.5117 52.454C94.3934 52.7523 94.2744 53.052 94.1548 53.3533L94.135 53.4033C93.4027 55.2475 92.6475 57.1494 91.8923 59.1318H91.1175C90.8186 58.3308 90.5236 57.5413 90.2324 56.7623L90.2308 56.758C89.6241 55.1346 89.0342 53.556 88.4611 52.0113C87.6126 49.7238 87.0223 48.1743 86.7271 47.3995C86.6533 47.2151 86.5426 47.0306 86.432 46.883C86.3213 46.7354 86.1368 46.5879 85.9154 46.4403C85.731 46.3296 85.5465 46.2558 85.3251 46.182C85.1038 46.1451 84.9193 46.1082 84.7348 46.0713V45.4072H90.3427V46.0713C89.8631 46.1082 89.4573 46.1451 89.1252 46.2189C88.7932 46.2927 88.6456 46.4034 88.6456 46.5879C88.6456 46.6616 88.6456 46.7355 88.6825 46.8461C88.6966 46.8884 88.7053 46.9253 88.7127 46.9568C88.7248 47.0078 88.7335 47.0447 88.7563 47.0675C88.8496 47.3319 88.9758 47.662 89.1291 48.0631L89.1301 48.0657L89.1309 48.0677L89.1317 48.0699L89.133 48.0733L89.1337 48.0751L89.1347 48.0777L89.1354 48.0796C89.3447 48.627 89.6042 49.3058 89.9 50.1297C90.1501 50.8084 90.4606 51.6342 90.8234 52.5985L90.8262 52.606C91.2121 53.6318 91.6569 54.8143 92.1505 56.1434C92.6015 55.0333 93.1177 53.7275 93.6991 52.2567L93.9419 51.6427C94.4997 50.2327 94.8938 49.2364 95.0652 48.6539C95.2865 48.0636 95.3972 47.6578 95.4341 47.4364C95.471 47.2151 95.471 47.0306 95.471 46.883C95.471 46.7354 95.3972 46.6247 95.2865 46.5141C95.1389 46.4034 94.9914 46.3296 94.77 46.2558C94.5486 46.182 94.3642 46.1451 94.1428 46.1082C93.9214 46.0713 93.7001 46.0344 93.4787 46.0344V45.3704H98.4963V46.1082Z" fill="#1D1D23"/>
<path d="M111.372 54.9629L111.114 58.9474H99.8982V58.2833C100.039 58.2833 100.224 58.2617 100.451 58.235L100.549 58.2236C100.589 58.219 100.63 58.2143 100.673 58.2095C101.005 58.1726 101.19 58.1358 101.3 58.0989C101.522 57.9882 101.632 57.8775 101.743 57.7299C101.817 57.5823 101.854 57.3979 101.854 57.1396V47.3996C101.854 47.1782 101.817 46.9938 101.743 46.8462C101.669 46.6986 101.522 46.551 101.3 46.4404C101.116 46.3666 100.894 46.2928 100.599 46.219C100.304 46.1452 100.083 46.1083 99.8982 46.1083V45.4442H110.376V48.6909H109.675C109.564 48.2113 109.269 47.6947 108.863 47.1413C108.458 46.5879 108.052 46.2928 107.646 46.2559C107.547 46.2361 107.427 46.227 107.298 46.217C107.185 46.2084 107.065 46.1992 106.945 46.1821C106.824 46.1821 106.687 46.174 106.541 46.1654C106.376 46.1556 106.199 46.1452 106.023 46.1452H103.883V51.5686H105.395C105.875 51.5686 106.244 51.5317 106.465 51.421C106.687 51.3473 106.908 51.1628 107.056 50.9414C107.203 50.7569 107.314 50.4987 107.425 50.2035C107.535 49.9084 107.572 49.6132 107.609 49.3181H108.31V54.6308H107.609C107.572 54.3357 107.498 54.0036 107.388 53.6716C107.277 53.3395 107.166 53.0813 107.056 52.9337C106.871 52.6754 106.65 52.5279 106.392 52.4541C106.133 52.3803 105.801 52.3434 105.395 52.3434H103.883V56.4017C103.883 56.8076 103.92 57.1396 103.957 57.361C104.03 57.5823 104.141 57.7668 104.289 57.8775C104.436 57.9882 104.694 58.062 104.953 58.0989C105.248 58.1358 105.654 58.1358 106.17 58.1358H106.982C107.314 58.1358 107.609 58.1358 107.867 58.0989C108.126 58.062 108.347 58.0251 108.605 57.9513C108.863 57.8775 109.048 57.8037 109.159 57.693C109.454 57.3979 109.749 56.9183 110.081 56.2911C110.413 55.6639 110.597 55.2211 110.708 54.926H111.372V54.9629Z" fill="#1D1D23"/>
<path fill-rule="evenodd" clip-rule="evenodd" d="M74.8472 79.7924C74.9579 80.272 74.9947 80.7147 74.9579 81.1575C75.0316 82.4856 74.6627 84.109 73.7404 85.3265C72.6704 86.876 71.2684 87.9828 69.6451 88.5363C69.2024 88.6838 68.7228 88.7945 68.28 88.8683C68.1694 89.311 67.9849 89.7538 67.7266 90.1227C67.0256 91.1557 66.1033 91.8936 64.9965 92.2625C62.4508 93.0742 60.0527 92.1888 58.0604 91.2295C57.2118 90.7868 56.4002 90.344 55.6254 89.8644C55.2822 90.0516 54.9457 90.2454 54.6074 90.4402C54.1454 90.7061 53.6802 90.974 53.1904 91.2295C51.1981 92.2256 48.8 93.0742 46.2543 92.2625C45.1475 91.8936 44.2252 91.1557 43.5242 90.1227C43.2659 89.7538 43.0814 89.311 42.9708 88.8683C42.528 88.7945 42.0853 88.6838 41.6057 88.5363C39.9455 87.9828 38.5804 86.876 37.5105 85.3265C36.6988 84.1459 36.3299 82.5225 36.4036 81.1575C36.3667 80.7147 36.3667 80.272 36.4774 79.7924C36.8984 78.2055 37.5185 77.6988 38.038 77.2743C38.1103 77.2152 38.1807 77.1577 38.2483 77.0991C40.8199 75.4626 42.9381 76.275 44.8764 77.0184C45.0793 77.0962 45.2803 77.1733 45.4796 77.2467C47.6194 78.2059 49.6486 79.239 51.604 80.4196C52.1951 80.7808 52.7862 81.1493 53.3838 81.5219C54.129 81.9865 54.8843 82.4575 55.6623 82.9284C57.0643 82.0798 58.4293 81.2312 59.7206 80.4196C61.7129 79.2021 63.7052 78.169 65.845 77.2467C66.0627 77.1679 66.2816 77.0848 66.5021 77.0012C68.4489 76.2626 70.5245 75.4752 73.0763 77.0991C73.1439 77.1577 73.2143 77.2152 73.2866 77.2743C73.8061 77.6989 74.4262 78.2055 74.8472 79.7924ZM38.9124 83.8138C39.5396 84.4779 40.2037 84.9944 40.8678 85.4372C41.5319 85.8799 42.2329 86.2857 42.9339 86.544C42.9708 86.5071 42.9708 86.4702 42.9708 86.3964C43.2764 85.3097 43.7071 84.9732 44.0613 84.6964C44.092 84.6725 44.122 84.649 44.1514 84.6255C45.8918 83.5544 47.2983 84.0927 48.5911 84.5875C48.7233 84.6381 48.8544 84.6882 48.9845 84.7362C49.6854 85.0313 50.3494 85.3633 51.0135 85.6953C51.5669 85.4002 52.1205 85.1051 52.6739 84.7731C52.9137 84.6255 53.1442 84.4872 53.3748 84.3489C53.6054 84.2105 53.836 84.0721 54.0759 83.9245L53.9408 83.8414C51.1103 82.0994 48.3451 80.3976 45.2582 79.0176C45.1119 78.9545 44.9627 78.889 44.8111 78.8223C43.0122 78.0318 40.8662 77.0888 39.0969 78.2797C38.5435 78.6487 37.8794 79.3128 37.6949 80.1613C37.3426 81.9229 38.3024 83.0789 38.8394 83.7256C38.8647 83.7562 38.8891 83.7856 38.9124 83.8138ZM45.7747 87.5032C47.1029 87.3187 48.3942 86.876 49.6486 86.3595L48.7631 85.9168C48.7133 85.8933 48.663 85.8695 48.6121 85.8455C47.3832 85.2647 45.871 84.55 44.631 85.4003C44.2621 85.6585 43.8193 86.0644 43.7086 86.6547C43.6717 86.7285 43.6718 86.8022 43.6718 86.876C44.0776 87.0605 44.5203 87.2081 44.9261 87.3188C45.1844 87.3925 45.4796 87.4663 45.7747 87.5032ZM49.0952 91.5615C50.7554 91.3402 52.3049 90.5654 53.7069 89.7538C53.8173 89.6848 53.9328 89.6158 54.0515 89.5449C54.2504 89.4262 54.4583 89.302 54.6662 89.1635C54.2581 88.9243 53.8554 88.6797 53.454 88.4359C52.8029 88.0404 52.1552 87.647 51.4933 87.2819C49.3903 88.2411 46.9922 89.0897 44.4465 88.979C44.4465 89.0159 44.4834 89.0528 44.5203 89.0897C44.9262 89.5693 45.3689 89.9013 45.8116 90.1965C46.6971 90.7868 47.6194 91.1926 48.5418 91.4509L49.0952 91.5615ZM52.8768 86.7469C52.9321 86.7746 52.9875 86.8022 53.0428 86.8391C53.8912 87.3924 54.8134 87.9457 55.7356 88.4991C56.6579 87.9456 57.5439 87.3925 58.4293 86.8391C58.4847 86.8022 58.54 86.7746 58.5954 86.7469C58.6507 86.7192 58.7061 86.6916 58.7614 86.6547C58.4303 86.4655 58.0992 86.28 57.7705 86.096C57.0737 85.7058 56.3879 85.3217 55.7361 84.9206C54.7768 85.5109 53.7438 86.1012 52.7108 86.6547C52.7661 86.6916 52.8215 86.7192 52.8768 86.7469ZM65.6975 90.1965C66.1402 89.9013 66.546 89.5693 66.9888 89.0897L67.0994 88.979C64.5537 89.0897 62.1556 88.278 60.0527 87.2819C58.9828 87.8722 57.9497 88.4994 56.8798 89.1635C57.2118 89.3848 57.507 89.5693 57.839 89.7538C59.241 90.5654 60.7906 91.3402 62.4508 91.5615L63.0042 91.4509C63.9265 91.1557 64.812 90.7868 65.6975 90.1965ZM62.709 85.9168L61.8236 86.3595C63.078 86.876 64.3693 87.3187 65.6975 87.5401C65.845 87.5032 65.9834 87.4756 66.1217 87.4479C66.2601 87.4202 66.3984 87.3925 66.546 87.3556C66.9885 87.2081 67.3942 87.0606 67.7998 86.9131C67.7629 86.8393 67.7635 86.7653 67.7635 86.6916C67.6159 85.9168 66.8781 85.4372 66.3616 85.2527C65.6606 84.9944 64.9227 85.142 64.2586 85.3265C63.7421 85.4741 63.2256 85.6954 62.709 85.9168ZM70.6044 85.4372C71.2685 84.9944 71.9325 84.5148 72.5597 83.8138C73.1132 83.1866 74.1462 81.9691 73.7772 80.1613C73.5559 79.0176 72.4491 78.3166 71.6743 78.0215C70.6413 77.6525 69.5344 77.837 68.5383 78.1321C67.7267 78.3904 66.9519 78.7224 66.1772 79.0544C63.3138 80.3346 60.7578 81.8916 58.1164 83.5007C57.8649 83.6538 57.6127 83.8075 57.3594 83.9614C57.8021 84.2196 58.2816 84.5147 58.7612 84.8098C59.2777 85.1419 59.8313 85.4372 60.4216 85.7323C61.0857 85.4003 61.7498 85.0682 62.4508 84.7731C62.6086 84.7164 62.7672 84.6562 62.9272 84.5956C64.2258 84.1029 65.6086 83.5784 67.2839 84.6624C67.3133 84.6859 67.3433 84.7093 67.3739 84.7333C67.7282 85.0101 68.1589 85.3466 68.4645 86.4333C68.5014 86.4702 68.5014 86.5071 68.5014 86.5809C69.2024 86.2488 69.9034 85.8799 70.6044 85.4372Z" fill="#1D1D23"/>
</svg>
