<svg width="160" height="88" viewBox="0 0 160 88" fill="none" xmlns="http://www.w3.org/2000/svg">
<path d="M133.508 40.6038C134.44 40.6038 135.19 40.8875 135.554 41.09C135.696 41.1711 135.737 41.1711 135.757 41.09L135.838 40.8267C135.856 40.7735 135.874 40.7669 135.959 40.766L136 40.7659C136.122 40.7659 136.142 40.7862 136.142 40.928C136.142 41.1103 136.345 42.731 136.385 43.0349C136.395 43.0956 136.385 43.126 136.345 43.1362L136.152 43.1969C136.101 43.2172 136.071 43.1767 136.041 43.0956C135.919 42.731 135.676 42.2245 135.251 41.7788C134.805 41.3534 134.278 41.0293 133.488 41.0293C131.867 41.0293 131.199 42.4879 131.199 43.9465C131.199 44.5745 131.381 45.7698 132.131 46.5801C132.799 47.2892 133.387 47.3702 133.873 47.3702C134.987 47.3702 135.868 46.8131 136.294 46.1952C136.345 46.1243 136.385 46.0939 136.415 46.1243L136.588 46.2762C136.618 46.3066 136.628 46.337 136.608 46.3775C136 47.2486 135.028 48.0792 133.589 48.0792C132.293 48.0792 131.564 47.6943 130.936 47.1271C130.186 46.4586 129.842 45.2836 129.842 44.3922C129.842 43.3995 130.166 42.4474 130.875 41.6775C131.422 41.09 132.293 40.6038 133.508 40.6038ZM30.0074 40.7254C30.0884 40.7254 30.1087 40.7659 30.1087 40.7963V41.0293C30.1087 41.09 30.0884 41.1306 30.0479 41.1306H29.7643C29.5617 41.1306 29.4604 41.2926 29.43 41.6674C29.4 42.0751 29.3523 42.8375 29.3184 43.6062L29.3115 43.7652C29.2917 44.2418 29.2781 44.7116 29.2781 45.0911V47.7652C29.2781 47.907 29.2781 48.0489 29.1565 48.0489C29.0147 48.0489 28.8931 47.9678 28.8121 47.8868C28.7311 47.7855 28.1841 47.1575 27.5561 46.4079C27.5088 46.3498 27.4612 46.2914 27.4134 46.2329L27.2699 46.0572L27.2341 46.0134L27.1626 45.926C26.5798 45.2142 26.0347 44.5549 25.9354 44.4226C25.7936 44.2808 24.1729 42.2549 24.0514 42.1131H23.9906L23.9906 43.4235C23.9929 45.1117 24.0719 46.4935 24.0919 46.803C24.1121 47.3094 24.2337 47.5525 24.5983 47.5525H24.8617C24.9427 47.5525 24.9427 47.593 24.9427 47.6437V47.8767C24.9427 47.9374 24.9427 47.9577 24.8617 47.9577C24.7604 47.9577 24.1526 47.9273 23.7677 47.9273L23.7418 47.9274C23.4619 47.9292 22.8124 47.9577 22.7143 47.9577C22.6738 47.9577 22.6535 47.9374 22.6535 47.8665V47.6133C22.6535 47.593 22.6738 47.5525 22.7143 47.5525H23.0587C23.322 47.5525 23.4639 47.3297 23.5145 46.7118C23.5244 46.5345 23.5821 45.1881 23.5853 43.6234L23.5854 42.2043C23.5854 41.5965 23.241 41.1306 22.7953 41.1306H22.4712C22.4307 41.1204 22.4104 41.1002 22.4104 41.0597V40.7862C22.4104 40.7456 22.4307 40.7254 22.4712 40.7254C22.5218 40.7254 22.6029 40.7355 22.7852 40.7456C22.9295 40.7537 23.131 40.7553 23.4298 40.7557L23.6867 40.7558C23.8589 40.7558 24.0108 40.7456 24.1324 40.7355C24.2641 40.7355 24.3552 40.7254 24.416 40.7254C24.5376 40.7254 24.5983 40.7558 24.6591 40.8165C24.7038 40.8613 25.1156 41.3718 25.5792 41.9525L25.6386 42.027C25.6684 42.0644 25.6984 42.102 25.7285 42.1398L25.803 42.2334C25.8155 42.249 25.8279 42.2646 25.8403 42.2803L25.9148 42.3739C26.336 42.904 26.7385 43.4148 26.8956 43.6223L26.9208 43.6557C26.932 43.6708 26.9413 43.6834 26.9483 43.6933C27.0901 43.8553 28.6703 45.8204 28.8324 46.023H28.8729V44.9696C28.8729 44.9425 28.8729 44.9159 28.8729 44.8896L28.8728 44.5192C28.8722 43.894 28.8692 43.4796 28.8526 43.0652C28.8324 42.6803 28.7919 41.6877 28.7412 41.5155C28.6703 41.2724 28.4475 41.1306 28.2044 41.1306H27.8802C27.8194 41.1306 27.8194 41.09 27.8194 41.0394L27.8195 40.794C27.8199 40.7429 27.8252 40.7254 27.9005 40.7254C28.022 40.7254 28.3462 40.7558 29.035 40.7558L29.0876 40.7557C29.6569 40.754 29.8894 40.7254 30.0074 40.7254ZM122.299 40.7254C122.38 40.7254 122.4 40.7659 122.4 40.7963V41.0293C122.4 41.09 122.38 41.1306 122.339 41.1306H122.056C121.853 41.1306 121.752 41.2926 121.721 41.6674C121.691 42.0751 121.644 42.8375 121.61 43.6062L121.603 43.7652C121.583 44.2418 121.57 44.7116 121.57 45.0911L121.569 47.8056C121.568 47.9328 121.558 48.0489 121.448 48.0489C121.306 48.0489 121.185 47.9678 121.104 47.8868C121.023 47.7855 120.476 47.1575 119.848 46.4079C119.8 46.3498 119.753 46.2914 119.705 46.2329L119.561 46.0572L119.526 46.0134L119.454 45.926C118.871 45.2142 118.326 44.5549 118.227 44.4226C118.085 44.2808 116.464 42.2549 116.343 42.1131H116.282L116.282 43.4235C116.284 45.1117 116.363 46.4935 116.383 46.803C116.404 47.3094 116.525 47.5525 116.89 47.5525H117.153C117.234 47.5525 117.234 47.593 117.234 47.6437L117.234 47.8891C117.234 47.9402 117.228 47.9577 117.153 47.9577C117.052 47.9577 116.444 47.9273 116.059 47.9273L116.033 47.9274C115.753 47.9292 115.104 47.9577 115.006 47.9577C114.965 47.9577 114.945 47.9374 114.945 47.8665V47.6133C114.945 47.593 114.965 47.5525 115.006 47.5525H115.35C115.613 47.5525 115.755 47.3297 115.806 46.7118C115.816 46.5345 115.874 45.1881 115.877 43.6234L115.877 42.2043C115.877 41.5965 115.532 41.1306 115.087 41.1306H114.763C114.722 41.1204 114.702 41.1002 114.702 41.0597V40.7862C114.702 40.7456 114.722 40.7254 114.763 40.7254C114.813 40.7254 114.894 40.7355 115.077 40.7456C115.221 40.7537 115.422 40.7553 115.721 40.7557L115.978 40.7558C116.15 40.7558 116.302 40.7456 116.424 40.7355C116.556 40.7355 116.647 40.7254 116.707 40.7254C116.829 40.7254 116.89 40.7558 116.951 40.8165C116.995 40.8613 117.407 41.3718 117.871 41.9525L117.93 42.027C117.96 42.0644 117.99 42.102 118.02 42.1398L118.094 42.2334C118.107 42.249 118.119 42.2646 118.132 42.2803L118.206 42.3739C118.627 42.904 119.03 43.4148 119.187 43.6223L119.212 43.6557C119.223 43.6708 119.233 43.6834 119.24 43.6933C119.382 43.8553 120.962 45.8204 121.124 46.023H121.164L121.164 44.5192C121.164 43.894 121.161 43.4796 121.144 43.0652C121.124 42.6803 121.083 41.6877 121.033 41.5155C120.962 41.2724 120.739 41.1306 120.496 41.1306H120.172C120.111 41.1306 120.111 41.09 120.111 41.0394L120.111 40.794C120.111 40.7429 120.117 40.7254 120.192 40.7254C120.313 40.7254 120.638 40.7558 121.326 40.7558L121.379 40.7557C121.948 40.754 122.181 40.7254 122.299 40.7254ZM44.7622 40.7254C44.8432 40.7254 44.8635 40.7659 44.8635 40.7963V41.0293C44.8635 41.09 44.8432 41.1306 44.8027 41.1306H44.5191C44.3165 41.1306 44.2152 41.2926 44.1848 41.6674C44.1548 42.0751 44.1071 42.8375 44.0732 43.6062L44.0663 43.7652C44.0465 44.2418 44.0329 44.7116 44.0329 45.0911V47.7652C44.0329 47.907 44.0329 48.0489 43.9113 48.0489C43.7695 48.0489 43.6479 47.9678 43.5669 47.8868C43.4859 47.7855 42.9389 47.1575 42.3109 46.4079C42.2636 46.3498 42.216 46.2914 42.1682 46.2329L42.0247 46.0572L41.9889 46.0134L41.9174 45.926C41.3346 45.2142 40.7895 44.5549 40.6902 44.4226C40.5484 44.2808 38.9277 42.2549 38.8062 42.1131H38.7454L38.7454 43.4235C38.7477 45.1117 38.8267 46.4935 38.8467 46.803C38.8669 47.3094 38.9885 47.5525 39.3531 47.5525H39.6165C39.6975 47.5525 39.6975 47.593 39.6975 47.6437L39.6975 47.8891C39.6971 47.9402 39.6917 47.9577 39.6165 47.9577C39.5152 47.9577 38.9074 47.9273 38.5225 47.9273L38.4966 47.9274C38.2167 47.9292 37.5672 47.9577 37.4691 47.9577C37.4286 47.9577 37.4083 47.9374 37.4083 47.8665V47.6133C37.4083 47.593 37.4286 47.5525 37.4691 47.5525H37.8135C38.0768 47.5525 38.2187 47.3297 38.2693 46.7118C38.2794 46.5295 38.3402 45.1114 38.3402 43.4907V42.2043C38.3402 41.5965 37.9958 41.1306 37.5501 41.1306H37.226C37.1855 41.1204 37.1652 41.1002 37.1652 41.0597V40.7862C37.1652 40.7456 37.1855 40.7254 37.226 40.7254C37.2766 40.7254 37.3577 40.7355 37.54 40.7456C37.6843 40.7537 37.8858 40.7553 38.1846 40.7557L38.4415 40.7558C38.6137 40.7558 38.7656 40.7456 38.8872 40.7355C39.0189 40.7355 39.11 40.7254 39.1708 40.7254C39.2924 40.7254 39.3531 40.7558 39.4139 40.8165C39.4586 40.8613 39.8704 41.3718 40.334 41.9525L40.3934 42.027C40.4232 42.0644 40.4532 42.102 40.4833 42.1398L40.5578 42.2334C40.5703 42.249 40.5827 42.2646 40.5951 42.2803L40.6696 42.3739C41.0908 42.904 41.4933 43.4148 41.6504 43.6223L41.6756 43.6557C41.6868 43.6708 41.6961 43.6834 41.7031 43.6933C41.8449 43.8553 43.4251 45.8204 43.5872 46.023H43.6277L43.6276 44.5192C43.627 43.894 43.624 43.4796 43.6074 43.0652C43.5872 42.6803 43.5467 41.6877 43.496 41.5155C43.4251 41.2724 43.2023 41.1306 42.9592 41.1306H42.635C42.5742 41.1306 42.5742 41.09 42.5742 41.0394L42.5743 40.794C42.5747 40.7429 42.58 40.7254 42.6553 40.7254C42.7768 40.7254 43.101 40.7558 43.7898 40.7558L43.8424 40.7557C44.4117 40.754 44.6442 40.7254 44.7622 40.7254ZM55.7691 40.4114C55.8299 40.4114 55.8704 40.5329 55.8907 40.5937C56.073 41.2217 56.8631 43.4907 57.0454 44.139C57.1518 44.4846 57.3357 45.0397 57.5208 45.5776L57.5605 45.6926L57.595 45.792C57.807 46.4018 58.0071 46.9487 58.0786 47.0866C58.2609 47.431 58.5243 47.5525 58.7269 47.5525H59.051C59.1118 47.5525 59.1321 47.5728 59.1321 47.6234V47.8361C59.1321 47.8969 59.1118 47.9577 59.0308 47.9577L59.0118 47.9576C58.8398 47.9557 58.6235 47.9293 57.6437 47.9274L57.4744 47.9273C56.6652 47.9287 56.3313 47.9577 56.1135 47.9577C56.0325 47.9577 56.0122 47.8969 56.0122 47.8361V47.6336C56.0122 47.5728 56.0325 47.5525 56.0933 47.5525H56.3566C56.6403 47.5525 56.7213 47.4512 56.6605 47.1777C56.5795 46.8131 56.1743 45.5165 56.0528 45.1417H53.7028C53.6217 45.3747 53.1254 46.8232 53.0748 47.0967C53.0545 47.1777 53.0545 47.2588 53.0545 47.3094C53.0545 47.4411 53.2166 47.5525 53.4191 47.5525H53.8446C53.9256 47.5525 53.9459 47.5728 53.9459 47.6032V47.8564C53.9459 47.9172 53.9256 47.9577 53.8648 47.9577C53.723 47.9577 53.2976 47.9273 52.5885 47.9273L52.5382 47.9273C51.8289 47.9287 51.6129 47.9577 51.4743 47.9577C51.4135 47.9577 51.4135 47.8969 51.4135 47.826V47.6336C51.4135 47.5728 51.4338 47.5525 51.4743 47.5525H51.7782C52.0618 47.5525 52.2442 47.4107 52.4265 47.0967C52.4876 46.9868 52.7769 46.2803 53.0637 45.5501L53.1056 45.4431C53.28 44.9973 53.4492 44.5531 53.561 44.2402L54.5536 41.5864C54.5739 41.4851 54.6347 41.3028 54.5739 41.242C54.5435 41.2116 54.5131 41.1508 54.5131 41.1204C54.5131 41.0799 54.5334 41.0394 54.6144 41.0191C54.9385 40.9381 55.4956 40.6342 55.6172 40.5127C55.678 40.4519 55.7185 40.4114 55.7691 40.4114ZM91.2698 40.7254C92.0802 40.7254 92.7082 40.9989 93.1133 41.3635C93.478 41.6877 93.6603 42.1131 93.6603 42.498C93.6603 43.7743 92.8905 44.301 91.7763 44.4833V44.5239C92.0599 44.6252 92.2422 44.8075 92.384 44.9898C92.5056 45.1519 93.1336 46.104 93.2146 46.2256C93.2754 46.3269 93.9237 47.2385 94.0756 47.3803C94.2681 47.5525 94.5517 47.5728 94.7948 47.5728C94.8556 47.5728 94.8758 47.6032 94.8758 47.6437V47.8564C94.8758 47.9273 94.8556 47.9577 94.7948 47.9577C94.7138 47.9577 94.4504 47.9273 93.8021 47.9273C93.5185 47.9273 93.1336 47.9476 92.9107 47.9577C92.7892 47.8665 92.5967 47.593 92.4651 47.3803C92.2827 47.0967 91.8877 46.3674 91.7965 46.2053C91.6952 46.023 91.4116 45.557 91.2495 45.3342C90.9963 44.9797 90.7633 44.7062 90.3379 44.7062C90.2974 44.7062 90.1252 44.7163 90.0138 44.7264L90.0139 45.3488C90.0143 45.5171 90.016 45.717 90.0187 45.9219L90.02 46.0167L90.0214 46.1116C90.0292 46.6015 90.0417 47.0734 90.0543 47.1676C90.0847 47.3702 90.1556 47.5525 90.3177 47.5525H90.8241C90.8849 47.5525 90.9052 47.5829 90.9052 47.6234V47.8665C90.9052 47.9374 90.8748 47.9577 90.7937 47.9577L90.7796 47.9576C90.6516 47.9557 90.4387 47.9293 89.5138 47.9274L89.3007 47.9274C88.43 47.9294 88.1848 47.9556 88.0806 47.9576L88.069 47.9577C88.0082 47.9577 87.9879 47.9273 87.9879 47.8665V47.6336C87.9879 47.5829 88.0082 47.5525 88.0487 47.5525H88.3931C88.6159 47.5525 88.778 47.4917 88.778 47.2183C88.7946 46.3895 88.7976 45.6014 88.7981 44.8207L88.7983 41.637C88.7983 41.2926 88.6565 41.1306 88.4741 41.1306H88.0791C88.0284 41.1306 88.0082 41.1103 88.0082 41.0698V40.7963C88.0082 40.7456 88.0284 40.7254 88.0791 40.7254C88.1474 40.7254 88.4505 40.7536 89.3592 40.7557L89.5149 40.7557C89.7105 40.7552 89.9435 40.7514 90.1772 40.7467L90.294 40.7443C90.7016 40.7357 91.0925 40.7254 91.2698 40.7254ZM151.646 40.7254C151.748 40.7254 151.768 40.7659 151.768 40.8165V41.0293C151.768 41.09 151.748 41.1306 151.646 41.1306H151.282C150.978 41.1306 150.958 41.2926 150.958 41.6471L150.957 41.67C150.957 41.779 150.952 42.1301 150.947 42.5005L150.946 42.5975C150.942 42.9696 150.937 43.3416 150.937 43.4907V44.5846C150.937 44.8127 150.943 45.3005 150.948 45.8L150.949 45.9363C150.953 46.3223 150.957 46.7017 150.957 46.9601L150.958 47.0461C150.958 47.4107 151.059 47.5525 151.363 47.5525H151.768C151.829 47.5525 151.849 47.5829 151.849 47.6234V47.8564C151.849 47.9172 151.829 47.9577 151.748 47.9577C151.586 47.9577 151.241 47.9273 150.37 47.9273L150.31 47.9273C149.404 47.9286 149.088 47.9577 148.81 47.9577C148.749 47.9577 148.729 47.907 148.729 47.8665V47.6336C148.729 47.5829 148.739 47.5525 148.81 47.5525H149.357C149.6 47.5525 149.61 47.3702 149.62 47.0967C149.63 46.871 149.639 46.4007 149.647 45.9433L149.648 45.8381C149.655 45.3952 149.66 44.9835 149.661 44.8423L149.661 44.5239C149.661 44.4327 149.58 44.4023 149.438 44.4023H146.136C146.025 44.4023 145.994 44.4428 145.994 44.534V44.9696C145.994 45.1861 146.001 45.6886 146.011 46.2073L146.014 46.3187L146.016 46.4378C146.022 46.7152 146.028 46.9857 146.035 47.2081C146.045 47.4512 146.156 47.5525 146.379 47.5525H146.744C146.825 47.5525 146.845 47.5728 146.845 47.6234V47.8564C146.845 47.9172 146.825 47.9577 146.744 47.9577C146.561 47.9577 146.217 47.9273 145.386 47.9273L145.273 47.9274C144.407 47.9295 144.106 47.9554 143.912 47.9576L143.887 47.9577C143.806 47.9577 143.786 47.9172 143.786 47.8665V47.6336C143.786 47.5728 143.806 47.5525 143.887 47.5525H144.414C144.657 47.5525 144.698 47.3094 144.698 47.0764C144.698 46.5902 144.718 45.4355 144.718 44.7872L144.718 43.4482C144.717 43.299 144.714 43.0157 144.71 42.7233L144.708 42.6263C144.703 42.2379 144.698 41.8581 144.698 41.7788C144.698 41.2724 144.637 41.1306 144.313 41.1306H143.867C143.786 41.1306 143.766 41.09 143.766 41.0394V40.8267C143.766 40.7862 143.786 40.7254 143.867 40.7254C144.042 40.7254 144.348 40.7534 145.252 40.7556L145.424 40.7557C146.293 40.7545 146.646 40.7254 146.825 40.7254C146.906 40.7254 146.926 40.7659 146.926 40.8165V41.0293C146.926 41.09 146.906 41.1306 146.825 41.1306H146.46C146.095 41.1306 146.055 41.2926 146.045 41.6877C146.035 41.8295 145.994 43.1665 145.994 43.4299V43.8351C145.994 43.9364 146.025 43.9769 146.116 43.9769H149.458C149.62 43.9769 149.661 43.9465 149.661 43.8351L149.661 43.5099C149.659 43.1145 149.62 41.7464 149.61 41.637C149.6 41.3129 149.56 41.1306 149.337 41.1306H148.871C148.8 41.1306 148.79 41.1002 148.79 41.0394V40.8064C148.79 40.7558 148.8 40.7254 148.871 40.7254C149.053 40.7254 149.499 40.7558 150.309 40.7558L150.369 40.7557C151.1 40.7542 151.489 40.7254 151.646 40.7254ZM12.3556 40.4114C12.4164 40.4114 12.4569 40.5329 12.4771 40.5937C12.6595 41.2217 13.4496 43.4907 13.6319 44.139C13.7382 44.4846 13.9221 45.0397 14.1073 45.5776L14.1469 45.6926L14.1814 45.792C14.3935 46.4018 14.5936 46.9487 14.6651 47.0866C14.8474 47.431 15.1108 47.5525 15.3133 47.5525H15.6375C15.6983 47.5525 15.7185 47.5728 15.7185 47.6234V47.8361C15.7185 47.8969 15.6983 47.9577 15.6172 47.9577L15.5982 47.9576C15.4262 47.9557 15.21 47.9293 14.2301 47.9274L14.0609 47.9273C13.2516 47.9287 12.9178 47.9577 12.7 47.9577C12.619 47.9577 12.5987 47.8969 12.5987 47.8361V47.6336C12.5987 47.5728 12.619 47.5525 12.6797 47.5525H12.9431C13.2267 47.5525 13.3077 47.4512 13.247 47.1777C13.1659 46.8131 12.7608 45.5165 12.6392 45.1417H10.2892C10.2082 45.3747 9.71185 46.8232 9.6612 47.0967C9.64094 47.1777 9.64094 47.2588 9.64094 47.3094C9.64094 47.4411 9.80301 47.5525 10.0056 47.5525H10.431C10.5121 47.5525 10.5323 47.5728 10.5323 47.6032V47.8564C10.5323 47.9172 10.5121 47.9577 10.4513 47.9577C10.3095 47.9577 9.88405 47.9273 9.175 47.9273L9.1247 47.9273C8.41534 47.9287 8.19936 47.9577 8.06078 47.9577C8 47.9577 8 47.8969 8 47.826V47.6336C8 47.5728 8.02026 47.5525 8.06078 47.5525H8.36465C8.64827 47.5525 8.8306 47.4107 9.01293 47.0967C9.074 46.9868 9.36338 46.2803 9.65016 45.5501L9.69209 45.4431C9.86646 44.9973 10.0357 44.5531 10.1474 44.2402L11.1401 41.5864C11.1603 41.4851 11.2211 41.3028 11.1603 41.242C11.1299 41.2116 11.0996 41.1508 11.0996 41.1204C11.0996 41.0799 11.1198 41.0394 11.2009 41.0191C11.525 40.9381 12.0821 40.6342 12.2037 40.5127C12.2644 40.4519 12.3049 40.4114 12.3556 40.4114ZM107.027 40.7254C107.078 40.7254 107.098 40.7456 107.108 40.7862C107.149 40.9178 107.534 42.2954 107.574 42.3967C107.595 42.4575 107.585 42.4879 107.544 42.5081L107.362 42.5892C107.331 42.5993 107.301 42.5892 107.271 42.5385C107.23 42.4777 106.399 41.5459 106.156 41.404C105.944 41.2825 105.67 41.1508 105.386 41.1407L103.847 41.1002L103.827 44.0275C104.13 44.0275 104.86 44.0073 104.981 43.9769C105.204 43.9364 105.326 43.8553 105.447 43.6122C105.508 43.4805 105.609 43.2273 105.609 43.045C105.609 42.9842 105.65 42.964 105.69 42.964L105.954 42.9842C105.994 42.9842 106.025 43.0045 106.014 43.0652C105.998 43.1994 105.995 43.6804 105.994 43.9915L105.994 44.1592C105.994 44.5644 106.035 45.0506 106.055 45.2734C106.055 45.3241 106.035 45.3342 105.974 45.3443L105.751 45.3849C105.711 45.395 105.69 45.3747 105.67 45.3139C105.63 45.1519 105.559 44.929 105.508 44.8075C105.417 44.6049 105.224 44.4631 105.002 44.4428C104.637 44.4023 104.151 44.3821 103.827 44.3821L103.837 44.9898C103.84 45.1638 103.844 45.383 103.848 45.6068L103.851 45.751C103.859 46.1531 103.866 46.5423 103.867 46.6844L103.867 46.7118C103.867 47.2385 104.049 47.4411 104.272 47.5019C104.434 47.5424 104.677 47.5829 105.062 47.5829C105.245 47.5829 105.711 47.5626 105.913 47.5424C106.096 47.5221 106.48 47.4208 106.744 47.198C106.926 47.0359 107.493 46.3674 107.686 46.1243C107.726 46.0736 107.757 46.0635 107.797 46.0838L107.959 46.1851C107.99 46.2053 108 46.2357 107.98 46.2864L107.493 47.8057C107.463 47.8969 107.392 47.9577 107.271 47.9577L107.261 47.9576C107.196 47.9566 106.965 47.947 106.369 47.9374L106.263 47.9373C105.654 47.9364 104.711 47.9283 103.262 47.9274L102.931 47.9274C102.589 47.9285 102.335 47.9374 102.135 47.9374C101.932 47.9476 101.791 47.9577 101.699 47.9577C101.639 47.9577 101.618 47.9374 101.618 47.8767V47.6336C101.618 47.5728 101.639 47.5525 101.72 47.5525L102.096 47.5524C102.532 47.5495 102.571 47.483 102.571 47.117L102.57 43.6246C102.57 43.474 102.569 43.3119 102.568 43.1467L102.567 43.0473C102.566 42.9697 102.566 42.8917 102.565 42.8143L102.564 42.7217C102.556 42.1223 102.543 41.5758 102.53 41.4851C102.489 41.2116 102.388 41.1306 102.084 41.1306H101.699C101.659 41.1306 101.639 41.1103 101.639 41.0597V40.7963C101.639 40.7456 101.649 40.7254 101.699 40.7254C101.89 40.7254 102.186 40.7552 102.789 40.7573L102.893 40.7574C102.964 40.7572 103.038 40.7567 103.118 40.7558L103.453 40.7557C103.693 40.7551 104.246 40.7512 104.829 40.747L104.975 40.7459C104.999 40.7457 105.024 40.7456 105.048 40.7454L105.194 40.7443C105.777 40.7401 106.33 40.7361 106.571 40.7356L106.622 40.7355C106.784 40.7355 106.977 40.7254 107.027 40.7254ZM80.4249 40.695C80.4654 40.7153 80.4857 40.7558 80.4857 40.8368C80.5262 40.9989 80.8503 42.3967 80.8909 42.5183C80.901 42.5588 80.8909 42.5892 80.8605 42.5993L80.668 42.6803C80.6275 42.7006 80.6072 42.6803 80.5465 42.5993C80.4452 42.417 80.1818 42.0726 79.8171 41.6674C79.6551 41.4446 79.3917 41.2622 79.1284 41.2015C78.9967 41.1761 78.6016 41.1533 78.1914 41.1369L78.0793 41.1326C77.7057 41.1187 77.3382 41.1103 77.1633 41.1103V44.3517C77.4469 44.3517 78.085 44.3415 78.2471 44.301C78.4497 44.2808 78.6118 44.1592 78.784 43.906C78.865 43.7743 78.9258 43.5717 78.9663 43.3894C78.9764 43.3489 79.0068 43.3084 79.0473 43.3084L79.2499 43.3286C79.2904 43.3286 79.3107 43.3489 79.3107 43.3894C79.2942 43.5375 79.2911 44.1136 79.2906 44.4005L79.2904 44.5441C79.2904 44.9088 79.3309 45.395 79.3512 45.5976C79.3613 45.6685 79.3309 45.6887 79.2904 45.6989L79.0676 45.7394C79.0271 45.7394 78.9967 45.7191 78.9865 45.6583C78.9764 45.5874 78.8853 45.2734 78.8346 45.1823C78.7131 44.9594 78.5307 44.8075 78.3281 44.767C77.9432 44.7062 77.4672 44.7062 77.1633 44.7062V47.2284C77.1633 47.512 77.2443 47.5525 77.4874 47.5525H78.0344C78.0952 47.5525 78.1154 47.5728 78.1154 47.6234V47.8767C78.1154 47.9374 78.0952 47.9577 78.0344 47.9577L78.0211 47.9576C77.9053 47.9554 77.5221 47.9295 76.6493 47.9274L76.4778 47.9273C75.6074 47.9286 75.2357 47.9577 75.0969 47.9577C75.0564 47.9577 75.0361 47.9374 75.0361 47.8868V47.6133C75.0361 47.5728 75.0564 47.5525 75.0969 47.5525H75.5021C75.7452 47.5525 75.8262 47.512 75.8363 47.3398C75.846 47.1457 75.8651 45.9654 75.8666 44.334L75.8666 43.3472C75.8661 43.1783 75.8636 42.9174 75.8606 42.6412L75.8596 42.5468C75.8541 42.0572 75.8473 41.5469 75.8465 41.4315L75.8465 41.4142C75.8465 41.2318 75.7047 41.1306 75.4413 41.1306H74.9348C74.8943 41.1306 74.8538 41.1103 74.8538 41.0799V40.7862C74.8538 40.7456 74.8943 40.7254 74.9348 40.7254C75.0326 40.7254 75.3948 40.7537 76.459 40.7557L76.6129 40.7556C76.7998 40.7547 77.568 40.7492 78.3438 40.7442L78.4571 40.7434C79.0609 40.7396 79.6525 40.7362 79.9609 40.7356L80.04 40.7355C80.2223 40.7355 80.3844 40.695 80.4249 40.695ZM54.9993 41.7484C54.9385 41.7484 54.898 41.789 54.8676 41.8801C54.8271 42.0118 53.9155 44.5036 53.8446 44.7366H55.9515C55.9063 44.6055 55.7441 44.0732 55.573 43.5058L55.5375 43.388L55.4972 43.2543C55.3096 42.6307 55.1303 42.0297 55.1006 41.9308C55.0601 41.8092 55.0398 41.7484 54.9993 41.7484ZM11.5858 41.7484C11.525 41.7484 11.4845 41.789 11.4541 41.8801C11.4136 42.0118 10.5019 44.5036 10.431 44.7366H12.5379C12.4927 44.6055 12.3306 44.0732 12.1595 43.5058L12.124 43.388L12.0837 43.2543C11.8961 42.6307 11.7167 42.0297 11.6871 41.9308C11.6465 41.8092 11.6263 41.7484 11.5858 41.7484ZM90.5405 41.09C90.3784 41.09 90.2569 41.1002 90.1758 41.1508C90.0948 41.2015 90.0543 41.323 90.0543 41.4446L90.034 44.3618C90.1758 44.3821 90.2974 44.4023 90.4189 44.4023C91.9991 44.4023 92.3233 43.126 92.3233 42.6601C92.3233 42.1941 92.1308 41.7586 91.8776 41.5256C91.5129 41.2015 91.047 41.09 90.5405 41.09Z" fill="#1D1D23"/>
</svg>
