<svg width="30" height="20" viewBox="0 0 30 20" fill="none" xmlns="http://www.w3.org/2000/svg">
<path d="M30 17.9112C30 19.0601 29.0305 20 27.8456 20H2.1544C0.969479 20 0 19.0601 0 17.9112V2.08877C0 0.939948 0.969479 0 2.1544 0H27.8456C29.0305 0 30 0.939948 30 2.08877V17.9112Z" fill="white"/>
<path d="M13.3359 6.04047H17.6306V13.6885H13.3359V6.04047Z" fill="#FF5F00"/>
<path d="M13.6086 9.86447C13.6086 8.31054 14.3449 6.93228 15.4765 6.04046C14.6448 5.39186 13.595 5 12.4497 5C9.73657 5 7.5415 7.1755 7.5415 9.86447C7.5415 12.5534 9.73657 14.7289 12.4497 14.7289C13.595 14.7289 14.6448 14.3371 15.4765 13.6885C14.3449 12.8102 13.6086 11.4184 13.6086 9.86447Z" fill="#EB001B"/>
<path d="M23.4252 9.86447C23.4252 12.5534 21.2301 14.7289 18.517 14.7289C17.3717 14.7289 16.3219 14.3371 15.4902 13.6885C16.6355 12.7967 17.3581 11.4184 17.3581 9.86447C17.3581 8.31054 16.6219 6.93228 15.4902 6.04046C16.3219 5.39186 17.3717 5 18.517 5C21.2301 5 23.4252 7.18901 23.4252 9.86447Z" fill="#F79E1B"/>
</svg>
