<svg width="30" height="20" viewBox="0 0 30 20" fill="none" xmlns="http://www.w3.org/2000/svg">
<path fill-rule="evenodd" clip-rule="evenodd" d="M0 3C0 1.34315 1.34315 0 3 0H27C28.6569 0 30 1.34315 30 3V17C30 18.6569 28.6569 20 27 20H3C1.34315 20 0 18.6569 0 17V3Z" fill="white"/>
<path fill-rule="evenodd" clip-rule="evenodd" d="M15 4C12.2386 4 10 6.23858 10 9V11C10 13.7614 12.2386 16 15 16C17.7614 16 20 13.7614 20 11V9C20 6.23858 17.7614 4 15 4ZM14.2613 11.6375C14.336 11.4348 14.5171 11.2646 14.8044 11.1269H18.132V10.3695H15.6837L16.4768 9.80729H18.132V9.04995H17.3044C17.4998 8.91226 17.6377 8.74588 17.7182 8.55081C17.7987 8.35573 17.8389 8.1664 17.8389 7.98281C17.8389 7.68446 17.7814 7.41098 17.6665 7.16236C17.5515 6.91374 17.3791 6.69955 17.1492 6.51978C16.9194 6.34001 16.632 6.19849 16.2872 6.09522C15.9423 5.99194 15.5343 5.94031 15.063 5.94031C14.6148 5.94031 14.2182 5.99959 13.8734 6.11817C13.5285 6.23674 13.2354 6.39547 12.9941 6.59437C12.7527 6.79326 12.5717 7.02084 12.451 7.27711C12.3303 7.53338 12.2699 7.79921 12.2699 8.0746V8.36147H14.0286V8.10903C14.0286 7.97133 14.04 7.8432 14.063 7.72463C14.086 7.60605 14.1377 7.50087 14.2182 7.40907C14.2987 7.31727 14.405 7.2446 14.5372 7.19105C14.6694 7.1375 14.8504 7.11073 15.0803 7.11073C15.2987 7.11073 15.474 7.13942 15.6061 7.19679C15.7383 7.25416 15.8389 7.32875 15.9079 7.42055C15.9768 7.51234 16.0228 7.61562 16.0458 7.73036C16.0688 7.84511 16.0803 7.95986 16.0803 8.0746C16.0803 8.2429 16.0314 8.41884 15.9337 8.60244C15.836 8.78604 15.6837 8.93521 15.4768 9.04995H12.132V9.80729H14.5803L13.7699 10.3695H12.132V11.1269H12.9596C12.7642 11.2569 12.6148 11.4214 12.5113 11.6203C12.4079 11.8192 12.3561 12.0372 12.3561 12.2743C12.3561 12.8787 12.6004 13.3587 13.0889 13.7144C13.5774 14.0701 14.2642 14.248 15.1492 14.248C15.5745 14.248 15.9653 14.1964 16.3217 14.0931C16.678 13.9898 16.9854 13.8502 17.2441 13.6743C17.5027 13.4983 17.701 13.2937 17.8389 13.0604C17.9768 12.827 18.0458 12.5765 18.0458 12.3088V11.8727H16.2872V12.194C16.2872 12.3011 16.2699 12.4063 16.2354 12.5096C16.201 12.6129 16.1435 12.7066 16.063 12.7907C15.9826 12.8749 15.8705 12.9437 15.7268 12.9973C15.5831 13.0508 15.4021 13.0776 15.1837 13.0776C14.9883 13.0776 14.8245 13.0527 14.6923 13.003C14.5602 12.9533 14.4538 12.8902 14.3734 12.8137C14.2929 12.7372 14.2354 12.6492 14.201 12.5497C14.1665 12.4503 14.1492 12.347 14.1492 12.2399C14.1492 12.041 14.1866 11.8402 14.2613 11.6375Z" fill="#39AB6B"/>
</svg>
