<svg width="30" height="20" viewBox="0 0 30 20" fill="none" xmlns="http://www.w3.org/2000/svg">
<path d="M30 17.9112C30 19.0601 29.0305 20 27.8456 20H2.1544C0.969479 20 0 19.0601 0 17.9112V2.08877C0 0.939948 0.969479 0 2.1544 0H27.8456C29.0305 0 30 0.939948 30 2.08877V17.9112Z" fill="white"/>
<path fill-rule="evenodd" clip-rule="evenodd" d="M8.46818 11.4689L10.1173 7.01654V7.01726H11.8983L9.2518 13.5633H7.47082L5.96069 7.92997C7.02759 8.47683 7.9836 9.57775 8.28853 10.5909L8.46818 11.4689ZM12.5769 7.01654L11.5238 13.5698H13.2071L14.2595 7.01654H12.5769ZM17.6542 9.68599C17.066 9.39551 16.7054 9.19946 16.7054 8.90237C16.7125 8.63225 17.0103 8.35551 17.6752 8.35551C18.222 8.34177 18.624 8.47029 18.9289 8.59816L19.0817 8.66634L19.3105 7.29522C18.978 7.1667 18.4509 7.0251 17.7997 7.0251C16.1375 7.0251 14.967 7.88934 14.9598 9.12539C14.946 10.0375 15.7978 10.5437 16.4352 10.8473C17.0863 11.1588 17.308 11.3607 17.308 11.6375C17.3008 12.0624 16.7814 12.2584 16.2969 12.2584C15.6254 12.2584 15.2648 12.1574 14.7173 11.9207L14.4956 11.8197L14.2602 13.2446C14.6556 13.4204 15.3828 13.5751 16.1376 13.583C17.9041 13.583 19.0535 12.7318 19.068 11.4145C19.0738 10.6919 18.6246 10.1384 17.6542 9.68599ZM22.3235 7.03682H23.6258L24.9831 13.5751H23.4251L23.1726 12.2696H21.1963L20.7097 13.5698H18.9432L21.4435 7.56405C21.6173 7.15225 21.9222 7.03682 22.3235 7.03682ZM21.6863 10.9573C21.7223 10.954 22.3642 8.83477 22.3642 8.83477L22.877 10.9573H21.6863Z" fill="#1D68CA"/>
<path d="M7.73369 7.86171C7.60517 7.36202 7.19531 7.02501 6.63866 7.01782H4.0269L4 7.13908C6.03736 7.64135 7.74742 9.18686 8.3022 10.6406L7.73369 7.86171Z" fill="#FFAA09"/>
</svg>
